<?xml version="1.0" encoding="UTF-8"?><svg id="_レイヤー_2" xmlns="http://www.w3.org/2000/svg" viewBox="0 0 842.99 241.38"><defs><style>.cls-1{fill:#198caa;}.cls-1,.cls-2{stroke-width:0px;}.cls-2{fill:#fff;}</style></defs><g id="_レイヤー_4"><path class="cls-1" d="M38.29,236.17c-21.11,0-38.29-17.18-38.29-38.29s17.18-38.29,38.29-38.29c2.4,0,4.85-2.45,4.85-4.85V53.01c0-21.11,17.18-38.29,38.29-38.29,11.5,0,21.84,5.1,28.86,13.15,5.16-11.38,16.54-19.12,30.07-19.12,18.21,0,33.03,14.82,33.03,33.03v68.1c5.77-13.85,19.45-23.61,35.37-23.61,21.11,0,38.29,17.18,38.29,38.29,0,59.02-47.86,107.04-106.69,107.04-17.58,0-32.43-11.91-36.91-28.08-14.87,19.81-38.54,32.64-65.16,32.64Z"/><path class="cls-1" d="M363.46,223.96c-16.8,0-30.46-13.67-30.46-30.46s12.66-29.44,28.59-30.4c.97-15.93,14.24-28.59,30.4-28.59s30.46,13.67,30.46,30.46c0,32.53-26.47,59-59,59Z"/><path class="cls-1" d="M371.38,187.56c-3.1,0-6.09-.48-8.9-1.37-2.81.89-5.8,1.37-8.9,1.37-16.3,0-29.55-13.26-29.55-29.55s13.26-29.55,29.55-29.55c3.1,0,6.09.48,8.9,1.37,2.81-.89,5.8-1.37,8.9-1.37,16.3,0,29.55,13.26,29.55,29.55s-13.26,29.55-29.55,29.55ZM345.6,143.56c-5.09,2.77-8.46,8.14-8.46,14.45s3.39,11.52,8.41,14.34c-2.37-4.25-3.72-9.14-3.72-14.34s1.37-10.17,3.78-14.45ZM379.36,143.56c2.41,4.27,3.78,9.2,3.78,14.45s-1.35,10.09-3.72,14.34c5.01-2.82,8.41-8.19,8.41-14.34s-3.38-11.68-8.46-14.45ZM362.48,144.18c-4.54,2.93-7.55,8.03-7.55,13.83s3.01,10.9,7.55,13.83c4.54-2.93,7.55-8.03,7.55-13.83s-3.01-10.9-7.55-13.83Z"/><path class="cls-1" d="M626.17,236.16c-6.62,0-13.2-1.99-18.77-5.79-13.05-8.87-25.23-19.21-36.23-30.75-13.38,10.21-30.86,20.3-53.36,28.02-8.35,3.11-17.74,2.62-25.88-1.37-8.54-4.19-14.95-11.85-17.57-21.02-.05-.18-.1-.37-.15-.55-2.67-10.33-.34-20.78,5.48-28.73-6.91-6.18-11.26-15.15-11.26-25.13v-1.65c-1.82-.16-3.65-.48-5.45-.95-8.63-2.24-15.95-7.77-20.63-15.57-.03-.04-.05-.09-.08-.13-8.46-14.31-4.64-33.44,8.88-44.5.68-.55,1.39-1.07,2.13-1.54.58-.37,1.14-.75,1.7-1.12-4.97-5.88-7.97-13.47-7.97-21.75,0-14.18,8.8-26.34,21.22-31.32,3.43-14.59,16.55-25.48,32.17-25.48,13.22,0,24.65,7.8,29.93,19.05,6.94-9.87,18.41-16.46,31.09-16.46h49.72c20.6,0,38,17.4,38,38v86.36c0,12.64-6.55,24.08-16.38,31.03,4.06,3.34,8.2,6.47,12.47,9.42.33.23.65.46.97.71,14.15,10.93,17.55,30.38,8.01,45.41-4.8,7.79-12.27,13.13-21.07,15.06-2.3.5-4.64.75-6.97.75ZM633.25,192.33s.02.01.02.02c0,0-.02-.01-.02-.02ZM492.13,29.92h16.64c-2.24-1.88-5.15-2.99-8.37-2.99s-6.03,1.12-8.27,2.99Z"/><path class="cls-1" d="M787.34,241.38c-2.88,0-5.79-.37-8.65-1.11-.25-.06-.49-.13-.73-.2-15.37-4.53-27.64-10.12-36.4-14.82-6.17,7.3-15.39,11.94-25.67,11.94-9.42,0-17.95-3.89-24.05-10.16-6.23,2.63-12.85,4.91-19.79,6.8-.09.03-.19.05-.28.08-8.98,2.33-18.6.79-26.41-4.22-7.73-4.96-13.09-12.97-14.73-22-1.56-8.5.16-16.85,4.33-23.73-2.98-4.95-4.7-10.73-4.7-16.9,0-1.56.12-3.1.34-4.61-.19-.12-.37-.23-.56-.35-7.85-5.04-13.06-13.16-14.38-22.35-1.81-11.16,2.32-22.16,10.2-29.62-4.93-10.53-4.08-22.47,1.77-31.85-5.35-6.42-8.41-14.95-8.41-24.81,0-20.29,16.7-36.8,37.22-36.8h119.53c21.23,0,37.86,16.63,37.86,37.86v3.82c0,4.98-.97,9.7-2.74,13.97,5.44,7.68,7.66,17.17,6.17,26.6-.4,3.89-1.36,8.06-2.65,12.23,2.59,1.17,5.25,2.34,7.96,3.54,15.85,6.62,23.98,23.97,18.92,40.59-.19.62-.41,1.24-.65,1.84-1.19,2.98-2.81,5.76-4.77,8.25.03.56.04,1.12.04,1.68,0,12.84-7.03,23.75-17.56,29.22,2.23,5.91,2.9,12.42,1.61,18.82-.08.42-.18.84-.29,1.25-2.31,8.91-8.02,16.28-16.08,20.76-5.09,2.83-10.74,4.27-16.47,4.27ZM797.62,210.57h0,0Z"/><path class="cls-1" d="M278.37,193.56c-19.93,0-36.14-16.21-36.14-36.14,0-5.45,1.24-10.79,3.58-15.67V51.08c0-17.95,14.61-32.56,32.56-32.56s32.56,14.61,32.56,32.56v49.91c2.38-4.84,3.71-10.28,3.71-15.99,0-19.93,16.21-36.14,36.14-36.14s36.14,15.88,36.14,36.14c0,59.86-48.7,108.56-108.56,108.56Z"/><path class="cls-1" d="M423.84,228.82c-18.75,0-34.01-15.26-34.01-34.01v-101.38c0-18.75,15.26-34.01,34.01-34.01s34.01,15.26,34.01,34.01v29.08c16.64,2.33,29.49,16.65,29.49,33.93s-12.85,31.6-29.49,33.93v4.45c0,18.75-15.26,34.01-34.01,34.01ZM457.85,145.7v21.46c4.11-1.83,6.98-5.95,6.98-10.73s-2.87-8.9-6.98-10.73Z"/><path class="cls-1" d="M245.32,120.43h-68.84c-18.41,0-33.38-14.98-33.38-33.39s14.98-33.38,33.38-33.38h68.84c18.41,0,33.38,14.98,33.38,33.38s-14.98,33.39-33.38,33.39ZM245.32,99.66h0,0Z"/><path class="cls-1" d="M716.52,76.62c-20.47,0-37.12-16.65-37.12-37.12s16.65-37.12,37.12-37.12,37.12,16.65,37.12,37.12-16.65,37.12-37.12,37.12ZM716.52,30.62c-4.9,0-8.88,3.98-8.88,8.88s3.98,8.88,8.88,8.88,8.88-3.98,8.88-8.88-3.98-8.88-8.88-8.88Z"/><path class="cls-1" d="M322,88.47c-5.68,0-10.92-1.88-15.15-5.05-5.34-.86-10.12-3.4-13.79-7.05-3.71-.97-7.19-2.79-10.12-5.34-8.25-6.97-10.97-18.36-7.3-28.2-.5-1.98-.77-4.06-.77-6.2,0-1.46.12-2.89.36-4.28-.14-1.08-.21-2.18-.21-3.29,0-13.91,11.32-25.23,25.23-25.23,2.4,0,4.72.34,6.93.97,4.17-3.03,9.29-4.81,14.83-4.81,4.89,0,9.46,1.4,13.33,3.82,7.56,1.85,13.85,6.98,17.27,13.78,4.96,4.61,8.08,11.19,8.08,18.48,0,4.03-.95,7.84-2.62,11.22,1.68,3.38,2.62,7.19,2.62,11.22,0,13.48-10.64,24.53-23.96,25.19-4.15,2.99-9.23,4.75-14.72,4.75ZM286.22,50.04c.15.4.31.79.48,1.18.07-.24.15-.48.23-.72-.24-.15-.48-.3-.71-.46ZM284.93,43.09c.76.83,1.59,1.6,2.48,2.3-.48-1.2-.87-2.44-1.16-3.73l-1.22-.95c-.08.79-.11,1.58-.1,2.38ZM285.09,40.13l1,.82c-.23-1.19-.38-2.41-.44-3.66-.25.93-.44,1.88-.56,2.84ZM279.74,32.45c.14.84.33,1.67.56,2.47,1.67-2.22,2.83-4.01,3.24-4.73.05-.09.1-.18.16-.27,1.42-2.37,3.17-4.44,5.15-6.16,1.28-2.27,2.9-4.33,4.79-6.09.14-.31.3-.62.45-.92-7.24,2.18-12.82,8.21-14.36,15.7ZM300.24,8.3c-7.81,0-14.62,4.33-18.17,10.71,4.06-4.15,9.53-6.9,15.63-7.48,1.05-1.17,2.21-2.25,3.45-3.21-.3-.01-.61-.02-.91-.02Z"/><path class="cls-1" d="M362.67,83.26c-5.77,0-11.54-1.93-16.23-5.82-3.31-2.68-6.3-4.4-7.29-4.97-.13-.07-.25-.15-.38-.22-4.26-2.55-7.53-6.22-9.65-10.43-4.39-3.99-7.31-9.43-8.15-15.3-.91-6.41.71-13,4.47-18.27,3.04-4.45,4.28-6.97,4.59-7.65.16-.35.33-.69.51-1.03,5.91-11.36,19-16.66,31.13-12.62.43.14.85.3,1.27.47,2.93,1.17,5.59,2.87,7.85,4.98,5.34,1.38,10.12,4.46,13.66,8.89,4.91,6.16,6.72,14.07,4.97,21.72l-.04.16c-.38,1.59-1.08,4.12-2.3,7.17.42,1.4.73,2.84.92,4.32.84,6.74-1.07,13.66-5.25,18.99-.57.73-1.19,1.42-1.84,2.08-5,5-11.61,7.53-18.22,7.53ZM351.21,51.5l.19.02v-.33l-.19.31ZM349.58,51.24c.54.11,1.07.19,1.61.26l.21-.37v-1.81h-3.43c.16.22.33.44.5.65.35.44.72.87,1.11,1.28ZM358.36,43.48l5.13,2.91,2.57-3.38-4.84-3.24,5.45,1.96c-.03-.56-.09-1.12-.17-1.68-.01-.08-.02-.15-.03-.23l-4.75-2.06-3.36,5.72Z"/><path class="cls-1" d="M414.05,88.47c-4.65,0-9.01-1.26-12.76-3.45-2.66.95-5.52,1.46-8.5,1.46-6.6,0-12.63-2.54-17.14-6.69-4.83-.7-9.34-2.78-13.06-6.07-8.11-7.15-10.61-18.23-7.04-27.83-.57-2.1-.87-4.31-.87-6.59,0-1.26.09-2.49.27-3.7-.18-1.21-.27-2.44-.27-3.7,0-13.91,11.32-25.23,25.23-25.23,1.62,0,3.2.15,4.74.45,4.57-4.41,10.78-7.12,17.61-7.12,3.5,0,6.83.71,9.87,2,.37-.02.74-.02,1.12-.02,13.91,0,25.23,11.32,25.23,25.23,0,1.89-.21,3.74-.61,5.51,1.01,2.79,1.57,5.81,1.57,8.95v21.45c0,13.98-11.38,25.36-25.36,25.36ZM367.28,55.79s.1.08.15.12v-2.08c-.48-.27-.95-.56-1.4-.86.35.97.77,1.92,1.25,2.82ZM364.83,46.21c.8.84,1.67,1.61,2.59,2.31v-3.36l-2.4-1.94c-.14.99-.2,1.99-.2,3ZM365.24,41.98l2.19,1.97v-2.29c0-1.38.11-2.72.31-4.04-.56.38-1.1.79-1.62,1.23-.38,1.02-.67,2.07-.88,3.14ZM359.45,35.6c.16.88.37,1.73.63,2.56,1.5-1.79,2.81-3.88,3.7-5.3,2.23-3.62,5.25-6.5,8.7-8.54.63-1.84,1.47-3.59,2.49-5.21-7.91,1.93-14.06,8.4-15.52,16.49ZM368.48,34.25s0,0,0,0c0,0,0,0,0,0ZM368.49,34.24s0,0,0,0c0,0,0,0,0,0ZM422.93,10.71c4.81,2.85,8.6,7.24,10.68,12.49-1.4-7.15-6.47-12.99-13.17-15.48.9.93,1.73,1.93,2.49,2.99ZM379.89,11.13c-7.78,0-14.58,4.3-18.14,10.65,4.42-4.57,10.55-7.49,17.34-7.7.26-.25.53-.49.8-.72.41-.75.85-1.48,1.33-2.19-.44-.03-.88-.04-1.33-.04Z"/><path class="cls-1" d="M443.6,83.26c-5.77,0-11.54-1.93-16.23-5.82-3.31-2.68-6.3-4.4-7.29-4.97-.13-.07-.25-.15-.38-.22-4.26-2.55-7.53-6.22-9.65-10.43-4.39-3.99-7.31-9.42-8.15-15.3-.91-6.41.71-13.01,4.47-18.28,3.04-4.44,4.28-6.98,4.59-7.65.16-.34.32-.68.5-1.01,5.91-11.37,19-16.68,31.14-12.63.43.14.85.3,1.27.47,2.93,1.17,5.59,2.87,7.85,4.98,5.34,1.38,10.12,4.46,13.66,8.89,4.91,6.16,6.72,14.07,4.97,21.72-.01.05-.02.11-.04.16-.38,1.59-1.08,4.12-2.3,7.18.42,1.39.73,2.83.91,4.31.84,6.74-1.07,13.66-5.24,18.99-.58.74-1.2,1.44-1.86,2.1-5,4.99-11.61,7.52-18.21,7.52ZM432.15,51.5l.19.02v-.33l-.19.31ZM430.51,51.24c.54.11,1.07.19,1.61.26l.21-.37v-1.82h-3.43c.16.22.33.44.5.65.35.45.73.87,1.11,1.28ZM439.3,43.48l5.13,2.91,2.57-3.38-4.84-3.24,5.45,1.96c-.03-.56-.09-1.12-.17-1.68-.01-.07-.02-.15-.03-.22l-4.75-2.06-3.35,5.71Z"/><path class="cls-1" d="M458.11,87.57c-14.06,0-25.5-11.44-25.5-25.5s11.44-25.5,25.5-25.5,25.5,11.44,25.5,25.5-11.44,25.5-25.5,25.5ZM458.11,41.57c-11.3,0-20.5,9.2-20.5,20.5s9.2,20.5,20.5,20.5,20.5-9.2,20.5-20.5-9.2-20.5-20.5-20.5Z"/><path class="cls-1" d="M458.11,79.62c-14.06,0-25.5-11.44-25.5-25.5v-23c0-14.06,11.44-25.5,25.5-25.5s25.5,11.44,25.5,25.5v23c0,14.06-11.44,25.5-25.5,25.5ZM441.15,42.62c3.69,5.43,9.92,9,16.96,9s13.27-3.57,16.96-9c-3.69-5.43-9.92-9-16.96-9s-13.27,3.57-16.96,9Z"/><path class="cls-2" d="M38.29,231.17c-18.36,0-33.29-14.93-33.29-33.29s14.93-33.29,33.29-33.29c5.16,0,9.85-4.7,9.85-9.85V53.01c0-18.36,14.94-33.29,33.29-33.29,14,0,26,8.68,30.92,20.95.57-15.18,12.67-26.91,28.01-26.91s28.03,12.57,28.03,28.03v104.12c4.47-6.01,7.08-13.45,7.08-21.33,0-18.36,14.94-33.29,33.29-33.29s33.29,14.93,33.29,33.29c0,56.27-45.62,102.04-101.69,102.04-18.36,0-33.29-14.93-33.29-33.29,0-2.22.19-4.39.58-6.47-12.16,26.15-38.67,44.32-69.36,44.32ZM112.33,173.75c-.21.81-.43,1.61-.66,2.41.21-.35.43-.7.66-1.05v-1.36Z"/><path class="cls-2" d="M363.46,218.96c-14.04,0-25.46-11.42-25.46-25.46s11.42-25.46,25.46-25.46c1.67,0,3.07-1.41,3.07-3.07,0-14.04,11.42-25.46,25.46-25.46s25.46,11.42,25.46,25.46c0,29.77-24.22,54-54,54Z"/><path class="cls-2" d="M371.38,182.56c-3.14,0-6.14-.59-8.9-1.67-2.76,1.08-5.76,1.67-8.9,1.67-13.54,0-24.55-11.01-24.55-24.55s11.01-24.55,24.55-24.55c3.14,0,6.14.59,8.9,1.67,2.76-1.08,5.76-1.67,8.9-1.67,13.54,0,24.55,11.01,24.55,24.55s-11.01,24.55-24.55,24.55ZM349.25,147.38c-4.21,1.68-7.11,5.75-7.11,10.62s2.93,8.87,7.09,10.58c-1.54-3.21-2.4-6.8-2.4-10.58s.87-7.41,2.42-10.62ZM375.72,147.38c1.55,3.22,2.42,6.82,2.42,10.62s-.86,7.38-2.4,10.58c4.16-1.72,7.09-5.82,7.09-10.58s-2.9-8.95-7.11-10.62ZM362.48,150.81c-1.59,1.97-2.55,4.47-2.55,7.19s.96,5.23,2.55,7.19c1.59-1.97,2.55-4.47,2.55-7.19s-.96-5.23-2.55-7.19Z"/><path class="cls-2" d="M626.16,231.17c-5.62,0-11.21-1.7-15.95-4.93-13.91-9.45-26.8-20.61-38.29-33.14-.08-.08-.15-.16-.22-.24-13.42,10.85-31.53,21.83-55.57,30.07-7.09,2.66-15.07,2.25-21.99-1.15-7.28-3.57-12.73-10.09-14.96-17.9-.04-.14-.08-.29-.12-.43-2.73-10.54.65-21.24,7.91-28.23-8.12-5.08-13.53-14.1-13.53-24.36v-6.59c-3.06.22-6.15-.06-9.19-.85-7.35-1.91-13.6-6.64-17.6-13.3-.02-.03-.04-.07-.06-.1-7.21-12.2-3.88-28.58,7.74-38.09.53-.43,1.09-.84,1.66-1.21,2.43-1.57,4.65-3.17,6.66-4.78-6.49-5.27-10.64-13.31-10.64-22.3,0-13.02,8.71-24.04,20.6-27.55,1.86-13.67,13.61-24.25,27.79-24.25,15.46,0,28.03,12.57,28.04,28.02.26.17.51.34.77.52,3.33-14.64,16.73-25.95,32.21-25.95h49.72c17.89,0,33,15.11,33,33v86.36c0,13.31-8.37,25.08-20.02,30.24,5.91,5.22,11.95,9.95,18.26,14.33.26.18.51.36.76.55,12.09,9.34,15,25.97,6.83,38.8-4.09,6.64-10.43,11.19-17.9,12.83-1.95.43-3.93.64-5.91.64ZM508.52,203.07h-.01s0,0,.01,0ZM530.87,146.27v4.58c0,.3,0,.61-.01.91.69-.48,1.36-.97,2.01-1.45-.75-1.29-1.42-2.65-1.99-4.04ZM494.19,34.92h12.52c-1.43-1.85-3.68-2.99-6.31-2.99s-4.75,1.17-6.21,2.99Z"/><path class="cls-2" d="M787.33,236.38c-2.46,0-4.94-.31-7.39-.95-.19-.05-.38-.1-.57-.16-17.36-5.12-30.64-11.61-39.23-16.53-5.07,8.07-14.04,13.44-24.25,13.44-9.24,0-17.46-4.4-22.7-11.21-6.96,3.16-14.49,5.85-22.46,8.03-.07.02-.15.04-.22.06-7.63,1.98-15.82.67-22.46-3.59-6.56-4.21-11.12-11.01-12.5-18.67-1.56-8.51.56-16.68,5.38-22.94-3.56-4.68-5.67-10.51-5.67-16.81,0-2.5.35-4.94,1-7.26-1.21-.54-2.39-1.18-3.52-1.91-6.63-4.26-11.03-11.12-12.14-18.89-1.82-11,2.88-21.55,11.57-27.72-6.8-10.82-5.74-24.17,1.9-33.39-6.24-5.71-9.85-14.18-9.85-24.42,0-17.54,14.46-31.8,32.22-31.8h119.53c18.43,0,32.86,14.43,32.86,32.86v3.82c0,5.32-1.29,10.29-3.57,14.61.14.17.29.34.43.51,5.68,6.93,8.06,15.91,6.62,24.81-.47,4.73-1.93,10.16-3.87,15.54,3.88,1.79,7.98,3.61,12.17,5.46,13.5,5.61,20.42,20.39,16.11,34.54-.15.49-.32.97-.51,1.44-1.25,3.14-3.06,6-5.28,8.47.13,1.09.2,2.19.2,3.31,0,12.58-7.96,22.98-19.27,26.6,3.47,6.1,4.85,13.36,3.42,20.45-.07.33-.14.66-.22.98-1.96,7.57-6.82,13.83-13.67,17.64-4.34,2.41-9.16,3.64-14.04,3.64ZM797.62,210.57h0,0ZM802.93,175.07h0,0ZM740.74,78.89c.06.23.12.46.18.69.09-.23.19-.46.29-.69h-.47ZM775.97,57.66h0,0Z"/><path class="cls-2" d="M278.37,188.56c-17.17,0-31.14-13.97-31.14-31.14,0-5.06,1.25-10.02,3.58-14.49V51.08c0-15.2,12.36-27.56,27.56-27.56s27.56,12.36,27.56,27.56v64.63c8.49-7.62,13.71-18.62,13.71-30.71,0-17.17,13.97-31.14,31.14-31.14s31.14,13.68,31.14,31.14c0,57.1-46.46,103.56-103.56,103.56Z"/><path class="cls-2" d="M423.84,223.82c-16,0-29.01-13.01-29.01-29.01v-101.38c0-16,13.01-29.01,29.01-29.01s29.01,13.01,29.01,29.01v33.75c.08,0,.16,0,.23,0,16.13,0,29.26,13.12,29.26,29.26s-13.12,29.26-29.26,29.26c-.08,0-.16,0-.23,0v9.12c0,16-13.01,29.01-29.01,29.01ZM452.85,163.18c3.8.13,6.98-2.94,6.98-6.74s-3.17-6.89-6.98-6.74v13.48Z"/><path class="cls-2" d="M245.32,115.43h-68.84c-15.65,0-28.38-12.73-28.38-28.39s12.73-28.38,28.38-28.38h68.84c15.65,0,28.38,12.73,28.38,28.38s-12.73,28.39-28.38,28.39ZM245.32,94.66h0,0Z"/><path class="cls-2" d="M716.52,71.62c-17.71,0-32.12-14.41-32.12-32.12s14.41-32.12,32.12-32.12,32.12,14.41,32.12,32.12-14.41,32.12-32.12,32.12ZM716.52,35.62c-2.14,0-3.88,1.74-3.88,3.88s1.74,3.88,3.88,3.88,3.88-1.74,3.88-3.88-1.74-3.88-3.88-3.88Z"/><path class="cls-2" d="M322,83.47c-5,0-9.59-1.82-13.12-4.82-5.25-.52-9.92-3.05-13.22-6.81-3.49-.67-6.77-2.25-9.47-4.61-7.04-5.94-9.07-15.89-5.25-24.1-.69-2.04-1.07-4.22-1.07-6.48,0-1.43.15-2.83.43-4.18-.19-1.1-.29-2.24-.29-3.39,0-11.15,9.07-20.23,20.23-20.23,2.56,0,5.02.48,7.28,1.35.62-.31,1.26-.59,1.92-.84,3.46-2.73,7.82-4.36,12.56-4.36,4.21,0,8.12,1.29,11.36,3.5,6.78,1.39,12.39,6,15.16,12.16,4.38,3.71,7.16,9.25,7.16,15.42,0,4.15-1.25,8-3.39,11.22,2.14,3.21,3.39,7.07,3.39,11.22,0,11.15-9.07,20.22-20.22,20.22h-.49c-3.51,2.95-8.04,4.72-12.98,4.72ZM291.64,49.96c.23.15.46.29.69.42.34-.77.73-1.52,1.16-2.24-1.07-.38-2.09-.84-3.07-1.39.29,1.12.7,2.19,1.22,3.21ZM290.02,41.07c.5.42,1.02.82,1.57,1.18-.36-1.12-.62-2.29-.78-3.49-.15.1-.29.2-.44.3-.16.66-.27,1.33-.35,2.01ZM284.85,32.55c.25,1.09.61,2.14,1.07,3.14.85-1.21,1.53-2.27,1.95-2.99l.12-.21c1.3-2.17,2.94-4.02,4.8-5.51,1.13-2.22,2.65-4.21,4.48-5.87-6.02,1.09-10.86,5.6-12.42,11.43ZM300.24,13.3c-6.17,0-11.51,3.55-14.11,8.72,3.63-3.47,8.55-5.6,13.96-5.6h.08c.77-1.05,1.64-2.03,2.59-2.92-.82-.13-1.66-.2-2.52-.2Z"/><path class="cls-2" d="M362.67,78.27c-4.65,0-9.29-1.55-13.06-4.69-3.63-2.95-6.9-4.82-7.97-5.44-.1-.06-.2-.12-.3-.18-3.71-2.23-6.5-5.5-8.18-9.25-3.91-3.25-6.53-7.88-7.24-12.89-.73-5.16.58-10.47,3.62-14.71,3.19-4.67,4.58-7.44,5.03-8.43.13-.27.26-.54.4-.81,4.77-9.16,15.32-13.45,25.11-10.18.34.11.67.23,1,.37,2.76,1.1,5.21,2.79,7.22,4.9,4.8.93,9.12,3.53,12.24,7.45,3.95,4.96,5.42,11.33,4.01,17.49,0,.04-.02.09-.03.13-.41,1.72-1.24,4.65-2.79,8.16.64,1.61,1.08,3.32,1.3,5.1.68,5.43-.86,11-4.22,15.29-.45.57-.93,1.12-1.44,1.63-4.03,4.03-9.36,6.07-14.68,6.07ZM343.57,63.48h0,0ZM358.36,43.48l2.34,1.33c.32-.18.64-.36.95-.56.05-.63.07-1.27.04-1.91-.99.06-1.98.22-2.94.47l-.39.67ZM346.14,29.95s0,0,0,0c0,0,0,0,0,0ZM346.15,29.94h0s0,0,0,0ZM346.16,29.92s0,0,0,0c0,0,0,0,0,0ZM346.17,29.91h0,0ZM346.18,29.89h0s0,0,0,0ZM346.19,29.87s0,0,0,0c0,0,0,0,0,0ZM346.2,29.85s0,0,0,0c0,0,0,0,0,0ZM346.21,29.84s0,0,0,0c0,0,0,0,0,0ZM346.22,29.82s0,0,0,0c0,0,0,0,0,0ZM346.23,29.81s0,0,0,0c0,0,0,0,0,0ZM346.24,29.79s0,0,0,0c0,0,0,0,0,0ZM346.25,29.78s0,0,0,0c0,0,0,0,0,0Z"/><path class="cls-2" d="M414.05,83.47c-4.59,0-8.83-1.53-12.23-4.09-2.72,1.35-5.79,2.11-9.02,2.11-5.87,0-11.16-2.49-14.88-6.47-4.46-.3-8.65-2.04-12.02-5.04-6.93-6.12-8.75-15.8-5.03-23.83-.77-2.14-1.19-4.44-1.19-6.84,0-1.26.12-2.5.34-3.7-.22-1.2-.34-2.44-.34-3.7,0-11.15,9.07-20.23,20.23-20.23,2.23,0,4.39.36,6.4,1.04,3.73-4.7,9.5-7.72,15.95-7.72,3.21,0,6.25.75,8.95,2.08.67-.07,1.35-.1,2.03-.1,2.17,0,4.25.34,6.21.98.95.31,1.88.69,2.77,1.13,6.66,3.31,11.25,10.19,11.25,18.12,0,2.03-.3,3.99-.86,5.84,1.17,2.64,1.82,5.55,1.82,8.61v21.45c0,11.23-9.13,20.36-20.36,20.36ZM371.2,52.46c.4.26.8.51,1.22.73v-2.49c-.75-.3-1.47-.64-2.17-1.02.01.06.03.12.05.18.22.89.53,1.76.9,2.59ZM369.95,44.14c.77.62,1.6,1.18,2.48,1.65v-4.14c0-.34,0-.68.02-1.02-.71.35-1.4.75-2.05,1.21-.21.75-.36,1.52-.45,2.29ZM364.55,35.6c.28,1.17.69,2.29,1.22,3.34.92-1.3,1.7-2.54,2.26-3.44,2.14-3.48,5.18-6.11,8.65-7.76.35-1.44.85-2.82,1.49-4.13-6.66.72-12.08,5.6-13.62,11.99ZM372.62,37.05s0,0,0,0c0,0,0,0,0,0ZM379.89,16.13c-6.14,0-11.47,3.52-14.07,8.65,3.64-3.54,8.61-5.71,14.07-5.71.43,0,.86.01,1.29.04.8-.91,1.67-1.74,2.61-2.49-1.25-.32-2.56-.49-3.9-.49ZM419.45,14.49c4.17,2.18,7.49,5.77,9.34,10.12-1-6.01-5.4-10.88-11.15-12.56.66.76,1.27,1.58,1.81,2.44Z"/><path class="cls-2" d="M443.6,78.27c-4.65,0-9.29-1.55-13.06-4.69-3.63-2.95-6.89-4.82-7.97-5.44-.1-.06-.2-.12-.3-.18-3.71-2.23-6.5-5.5-8.19-9.25-3.91-3.25-6.52-7.87-7.24-12.89-.73-5.16.58-10.47,3.62-14.71,3.19-4.66,4.58-7.44,5.03-8.43.12-.27.25-.53.39-.79,4.76-9.17,15.33-13.46,25.12-10.19.33.11.67.23.99.36,2.76,1.1,5.21,2.79,7.22,4.9,4.8.93,9.12,3.53,12.24,7.45,3.95,4.96,5.42,11.33,4.01,17.49,0,.04-.02.08-.03.12-.41,1.72-1.24,4.65-2.79,8.16.64,1.61,1.08,3.32,1.3,5.09.68,5.42-.86,11-4.22,15.29-.45.58-.94,1.12-1.46,1.64-4.03,4.03-9.36,6.06-14.68,6.06ZM424.51,63.48h0,0ZM439.3,43.48l2.34,1.33c.32-.17.64-.36.95-.56.05-.63.07-1.27.04-1.91-.99.06-1.98.22-2.94.47l-.39.67ZM427.14,29.86s0,0,0,0c0,0,0,0,0,0ZM427.15,29.84h0s0,0,0,0ZM427.16,29.82s0,0,0,0c0,0,0,0,0,0ZM427.17,29.81s0,0,0,0c0,0,0,0,0,0ZM427.18,29.79s0,0,0,0c0,0,0,0,0,0ZM427.19,29.78s0,0,0,0c0,0,0,0,0,0ZM420.61,23.54s0,0,0,0c0,0,0,0,0,0Z"/><path class="cls-2" d="M458.11,82.57c-11.3,0-20.5-9.2-20.5-20.5s9.2-20.5,20.5-20.5,20.5,9.2,20.5,20.5-9.2,20.5-20.5,20.5ZM458.11,46.57c-8.55,0-15.5,6.95-15.5,15.5s6.95,15.5,15.5,15.5,15.5-6.95,15.5-15.5-6.95-15.5-15.5-15.5Z"/><path class="cls-2" d="M458.11,74.62c-11.3,0-20.5-9.2-20.5-20.5v-23c0-11.3,9.2-20.5,20.5-20.5s20.5,9.2,20.5,20.5v23c0,11.3-9.2,20.5-20.5,20.5ZM447.73,42.62c2.75,2.49,6.39,4,10.38,4s7.63-1.51,10.38-4c-2.75-2.49-6.39-4-10.38-4s-7.63,1.51-10.38,4Z"/><ellipse class="cls-2" cx="359.41" cy="43.48" rx="2.05" ry="1.96"/><polygon class="cls-2" points="349.2 144.13 382.06 147.33 382.83 164.51 369.85 171.78 345.77 167.16 340.47 154.13 349.2 144.13"/><path class="cls-1" d="M38.29,213.17c-8.43,0-15.29-6.86-15.29-15.29s6.86-15.29,15.29-15.29c15.1,0,27.85-12.75,27.85-27.85V53.01c0-8.29,7-15.29,15.29-15.29s15.29,7,15.29,15.29v101.72c0,32.22-26.21,58.44-58.44,58.44ZM140.36,208.61c-8.43,0-15.29-6.86-15.29-15.29,0-4.25,1.38-7.79,4.09-10.5l1.17-1.17V41.79c0-5.72,4.31-10.03,10.03-10.03s10.03,4.5,10.03,10.03v135.48l5.12-1.5c22.34-6.55,37.95-27.6,37.95-51.19,0-8.29,7-15.29,15.29-15.29s15.29,6.86,15.29,15.29c0,46.34-37.54,84.04-83.69,84.04Z"/><path class="cls-1" d="M363.46,200.96c-4.11,0-7.46-3.35-7.46-7.46s3.35-7.46,7.46-7.46c11.62,0,21.07-9.45,21.07-21.07,0-4.11,3.35-7.46,7.46-7.46s7.46,3.35,7.46,7.46c0,19.85-16.15,36-36,36Z"/><path class="cls-1" d="M371.38,164.56c-3.55,0-6.55-3-6.55-6.55s2.94-6.55,6.55-6.55,6.55,2.88,6.55,6.55-2.94,6.55-6.55,6.55ZM353.59,164.56c-3.61,0-6.55-2.94-6.55-6.55s2.88-6.55,6.55-6.55,6.55,2.94,6.55,6.55-3,6.55-6.55,6.55Z"/><path class="cls-1" d="M502.16,161.57c-5.79,0-10.72-4.71-10.72-10.71v-36.43c-4.29,3.21-9,7.07-14.36,10.29-5.36,3.22-11.79,1.5-15-3.86-2.79-4.71-1.07-11.14,3.64-15,15-9.64,23.57-20.79,28.93-29.36,1.07-1.07,0-2.14-1.07-2.14h-12.86c-5.79,0-10.71-4.93-10.71-10.71s4.93-10.72,10.71-10.72h31.07c8.14,0,13.93,7.5,11.36,15-2.14,6.43-5.36,13.93-10.29,21.86v61.08c0,6-4.71,10.71-10.71,10.71ZM509.99,206.01c-5.36,2.14-11.79-1.07-13.5-7.07-1.5-5.79,1.71-11.79,7.5-13.29,29.57-10.71,47.79-26.14,57.43-36.86-8.57,0-15-7.07-15-15V47.42c0-7.93,6.86-15,15-15h49.72c8.14,0,15,7.07,15,15v86.36c0,7.93-6.86,15-15,15h-24c-8.14,13.93-30,41.15-77.15,57.22ZM566.78,56v69.22c0,1.5,1.5,3.21,3.22,3.21h32.57c1.71,0,3.21-1.71,3.21-3.21V56c0-1.5-1.5-3.22-3.21-3.22h-32.57c-1.71,0-3.22,1.71-3.22,3.22ZM634.71,208.15c-3.22,5.36-9.64,6.43-14.36,3.22-16.72-11.36-28.5-23.15-35.36-30.65-4.29-4.29-3.86-10.72,1.07-14.36,4.71-3.64,11.14-3.22,15.43,1.07,6.43,6.43,16.72,16.07,30.65,25.72,4.71,3.64,5.79,10.07,2.57,15ZM529.36,117c-6.69,0-12.35-5.66-12.35-12.35s5.66-12.35,12.35-12.35,12.35,5.4,12.35,12.35-5.4,12.35-12.35,12.35ZM500.4,49.92c-5.44,0-10.04-4.6-10.04-10.04s4.6-10.04,10.04-10.04,10.04,4.39,10.04,10.04-4.39,10.04-10.04,10.04ZM579.13,87.61c-6.69,0-12.35-5.66-12.35-12.35s5.66-12.35,12.35-12.35,12.35,5.4,12.35,12.35-5.4,12.35-12.35,12.35ZM579.13,120.72c-6.69,0-12.35-5.66-12.35-12.35s5.66-12.35,12.35-12.35,12.35,5.4,12.35,12.35-5.4,12.35-12.35,12.35Z"/><path class="cls-1" d="M649.64,143.7c-5.31,1.7-10.62-2.12-11.25-7.43-1.06-5.73,2.83-10.72,8.07-12.1,14.4-3.79,32.46-5.46,50.32-26.54.64-1.06,0-2.12-1.06-2.12h-23.35c-3.61,2.55-7.43,5.73-11.04,8.92-4.88,3.19-10.62,2.12-13.8-2.55-3.18-4.88-2.12-11.25,2.55-14.44,8.07-6.37,14.86-12.74,19.75-17.41,3.61-4.25,9.98-4.88,14.22-1.06,2.12,1.49,3.19,3.61,3.82,6.37h24.42c7.86,0,13.8,7.86,10.62,15.29-5.94,16.56-23.35,41.4-73.25,53.08ZM642.21,53.46c0-7.43,6.37-13.8,14.22-13.8h119.53c8.49,0,14.86,6.37,14.86,14.86v3.82c0,7.43-5.31,12.74-12.74,12.74-4.88,0-8.49-3.82-8.49-8.49,0-1.06-.64-1.7-1.7-1.7h-103.4c-.64,0-1.06.64-1.06,1.06,0,3.18-2.76,5.94-5.95,5.94h-1.06c-10.62,0-14.22-6.37-14.22-14.44ZM695.72,187.64c3.19,4.88,1.7,11.68-3.61,13.8-5.95,3.18-14.44,7.01-26.11,10.19-5.73,1.49-11.68-2.12-12.74-8.07-1.06-5.73,2.12-11.04,8.07-12.74,7.86-2.55,14.22-4.67,19.11-6.79,5.31-2.76,11.68-1.06,15.29,3.61ZM813.12,167.05c0,5.73-4.25,9.98-10.19,9.98h-76.86c.42.64.42,1.06.42,1.7v24.84c0,5.95-4.67,10.62-10.62,10.62s-10.62-4.67-10.62-10.62v-26.54h-41.83c-5.31,0-10.19-4.25-10.19-9.98,0-5.31,4.88-9.98,10.19-9.98h139.49c5.94,0,10.19,4.67,10.19,9.98ZM694.23,130.53h43.95c5.31,0,10.19,4.25,10.19,9.98,0,5.31-4.88,10.19-10.19,10.19h-43.95c-5.95,0-10.19-4.88-10.19-10.19,0-5.73,4.25-9.98,10.19-9.98ZM819.49,148.58c-2.12,5.31-8.07,7.86-12.74,5.73-35.03-13.8-57.96-29.72-69-38.22-4.25-3.61-4.88-9.98-1.06-13.8,4.25-4.25,10.62-4.67,14.86-1.06,3.61,2.76,8.92,7.01,15.92,11.25,1.49-2.76,4.25-8.07,4.67-9.13.64-1.49-.42-3.18-2.12-3.18h-3.18c-5.73,0-9.98-4.25-9.98-9.98,0-5.31,4.25-10.19,9.98-10.19h14.44c8.49,0,14.86,7.43,13.16,15.92-.42,6.37-4.67,17.62-9.55,26.11,8.07,4.67,17.62,8.92,28.66,13.8,5.31,2.12,7.43,7.86,5.95,12.74ZM797.63,210.57c-1.49,5.73-7.43,8.92-13.16,7.43-16.56-4.88-29.3-11.25-37.15-15.92-5.31-2.76-6.37-9.13-3.18-13.8,3.61-4.88,9.98-6.37,15.29-3.82,6.37,3.82,16.99,9.13,30.79,12.74,5.31,2.12,8.49,8.07,7.43,13.38ZM666.07,113.67c0,3.97-3.22,7.18-7.18,7.18s-7.18-3.22-7.18-7.18,3.22-7.18,7.18-7.18,7.18,3.22,7.18,7.18ZM684.28,105.96c0,3.97-3.22,7.18-7.18,7.18s-7.18-3.22-7.18-7.18,3.22-7.18,7.18-7.18,7.18,3.22,7.18,7.18Z"/><path class="cls-1" d="M363.93,85c0,47.08-38.24,85.56-85.56,85.56-7.17,0-13.14-5.97-13.14-13.14,0-3.59,1.43-6.69,3.58-9.08V51.08c0-5.26,4.3-9.56,9.56-9.56s9.56,4.3,9.56,9.56v92.47c28.2-4.78,49.71-29.16,49.71-58.55,0-7.41,5.98-13.14,13.14-13.14s13.14,5.74,13.14,13.14Z"/><path class="cls-1" d="M423.84,205.82h0c-6.08,0-11.01-4.93-11.01-11.01v-101.38c0-6.08,4.93-11.01,11.01-11.01h0c6.08,0,11.01,4.93,11.01,11.01v101.38c0,6.08-4.93,11.01-11.01,11.01ZM464.34,156.44c0,6.22-5.04,11.26-11.26,11.26s-11.26-5.04-11.26-11.26,5.04-11.26,11.26-11.26,11.26,5.04,11.26,11.26Z"/><path class="cls-1" d="M245.32,76.66h-68.84c-5.74,0-10.38,4.65-10.38,10.38s4.65,10.38,10.38,10.38h68.84c5.74,0,10.38-4.65,10.38-10.38s-4.65-10.38-10.38-10.38Z"/><circle class="cls-1" cx="716.52" cy="39.5" r="14.12"/><path class="cls-1" d="M307.59,43.88c-1.18,2.27-3.54,5.81-6.38,9.45-.85,1.04-2.36,1.18-3.31.24-1.09-.8-1.18-2.22-.38-3.31,2.6-3.31,4.72-6.47,5.9-8.5.71-1.18,2.13-1.51,3.31-.94,1.09.61,1.56,2.03.85,3.07ZM337.68,58.52c0,1.28-1.04,2.22-2.22,2.22h-11.24v2.5c0,1.18-1.04,2.22-2.22,2.22-1.32,0-2.27-1.04-2.27-2.22v-2.5h-8.83c-1.18,0-2.27-.94-2.27-2.22,0-1.18,1.09-2.27,2.27-2.27h8.83v-3.16h-1.75c-1.32,0-2.27-1.04-2.27-2.22,0-1.32.94-2.27,2.27-2.27h1.75v-3.07h-4.72c-1.18,0-2.22-.94-2.22-2.22,0-1.18,1.04-2.27,2.22-2.27h4.72v-2.69h-8.83c-1.18,0-2.27-1.09-2.27-2.27,0-1.28,1.09-2.22,2.27-2.22h8.83v-3.31h-3.16c-1.18,0-2.27-.94-2.27-2.27,0-1.18,1.09-2.22,2.27-2.22h3.16v-.85c0-1.28.94-2.22,2.27-2.22,1.18,0,2.22.94,2.22,2.22v.85h4.87c1.75,0,3.31,1.51,3.31,3.31v4.49h3.07c1.18,0,2.22.94,2.22,2.22,0,1.18-1.04,2.27-2.22,2.27h-3.07v3.87c0,1.89-1.56,3.31-3.31,3.31h-4.87v3.07h2.27c1.18,0,2.22.94,2.22,2.27,0,1.18-1.04,2.22-2.22,2.22h-2.27v3.16h11.24c1.18,0,2.22,1.09,2.22,2.27ZM324.21,33.86h3.68v-2.6c0-.38-.38-.71-.71-.71h-2.98v3.31ZM324.21,41.05h2.98c.33,0,.71-.24.71-.57v-2.13h-3.68v2.69ZM302.47,29.07c0,1.23-1,2.23-2.23,2.23s-2.23-1-2.23-2.23,1-2.23,2.23-2.23,2.23,1,2.23,2.23ZM302.32,36.64c0,1.23-1,2.23-2.23,2.23s-2.23-1-2.23-2.23,1-2.23,2.23-2.23,2.23,1,2.23,2.23Z"/><path class="cls-1" d="M366.99,37.88c-.8,3.4-3.16,9.31-7.79,14.17l5.1,3.87c1.04.8,1.18,2.46.33,3.54-.94.94-2.46,1.18-3.54.24-4.35-3.54-8.27-5.9-10.49-7.18-1.18-.71-1.65-2.27-1.09-3.45.61-1.28,2.13-1.75,3.31-1.04.61.33,1.32.8,2.13,1.28v-.09c3.07-3.07,5.43-7.09,6.28-9.45.09-.14,0-.24-.14-.24h-9.68c-.8,1.42-1.89,3.07-3.16,4.82-.85,1.18-2.36,1.42-3.45.61-1.18-.85-1.42-2.36-.57-3.45,3.64-5.29,5.67-9.07,6.71-11.34.61-1.18,2.03-1.89,3.45-1.42,1.18.47,1.89,1.89,1.28,3.07-.33.71-.8,1.65-1.28,2.74h9.92c1.75,0,3.07,1.65,2.69,3.31Z"/><path class="cls-1" d="M387.5,47.19c-1.32,2.13-3.54,5.57-6.38,9.07-.85.94-2.36,1.09-3.31.24-1.09-.94-1.09-2.36-.24-3.4,2.6-3.07,4.58-6.24,5.76-8.12.71-1.18,2.13-1.56,3.31-.94,1.09.57,1.56,2.13.85,3.16ZM416.41,41.66v21.45c0,1.32-1.04,2.36-2.36,2.36s-2.36-1.04-2.36-2.36v-19.46c0-.33-.24-.57-.57-.57h-6.52v2.93h2.74c1.04,0,1.89.85,1.89,1.89s-.85,1.89-1.89,1.89h-2.74v2.83h2.74c1.04,0,1.89.85,1.89,1.89s-.85,1.89-1.89,1.89h-2.74v1.75c0,1.32-1.04,2.36-2.36,2.36s-2.36-1.04-2.36-2.36v-1.75h-4.72v4.72c0,1.28-1.04,2.36-2.36,2.36s-2.36-1.09-2.36-2.36v-19.46c0-1.89,1.56-3.31,3.31-3.31h6.14v-3.45h-3.4c-1.32,0-2.36-1.04-2.36-2.36s1.04-2.36,2.36-2.36h3.4v-4.82c0-1.32,1.09-2.36,2.36-2.36s2.36,1.04,2.36,2.36v4.82h5.43c1.32,0,2.36,1.09,2.36,2.36s-1.04,2.36-2.36,2.36h-5.43v3.45h8.5c1.89,0,3.31,1.42,3.31,3.31ZM399.87,43.08h-4.01c-.33,0-.71.24-.71.57v2.36h4.72v-2.93ZM399.87,49.78h-4.72v2.83h4.72v-2.83ZM382.12,31.9c0,1.23-1,2.23-2.23,2.23s-2.23-1-2.23-2.23,1-2.23,2.23-2.23,2.23,1,2.23,2.23ZM382.12,39.3c0,1.23-1,2.23-2.23,2.23s-2.23-1-2.23-2.23,1-2.23,2.23-2.23,2.23,1,2.23,2.23ZM415.45,27.2c0,1.23-1,2.23-2.23,2.23s-2.23-1-2.23-2.23,1-2.23,2.23-2.23,2.23,1,2.23,2.23Z"/><path class="cls-1" d="M447.92,37.88c-.8,3.4-3.16,9.31-7.79,14.17l5.1,3.87c1.04.8,1.18,2.46.33,3.54-.94.94-2.46,1.18-3.54.24-4.35-3.54-8.27-5.9-10.49-7.18-1.18-.71-1.65-2.27-1.09-3.45.61-1.28,2.13-1.75,3.31-1.04.61.33,1.32.8,2.13,1.28v-.09c3.07-3.07,5.43-7.09,6.28-9.45.09-.14,0-.24-.14-.24h-9.68c-.8,1.42-1.89,3.07-3.16,4.82-.85,1.18-2.36,1.42-3.45.61-1.18-.85-1.42-2.36-.57-3.45,3.64-5.29,5.67-9.07,6.71-11.34.61-1.18,2.03-1.89,3.45-1.42,1.18.47,1.89,1.89,1.28,3.07-.33.71-.8,1.65-1.28,2.74h9.92c1.75,0,3.07,1.65,2.69,3.31Z"/><circle class="cls-1" cx="458.11" cy="62.07" r="2.5"/><rect class="cls-1" x="455.61" y="28.61" width="5" height="28" rx="2.5" ry="2.5"/><polygon class="cls-2" points="483.46 134.17 481.25 146.46 468 136.89 483.46 134.17"/><polygon class="cls-2" points="523.11 123.71 537.94 123.71 545.74 152.66 515.7 170.53 523.11 123.71"/><polygon class="cls-2" points="531.61 66.43 537.64 71.08 537.64 81.75 523.8 84.25 531.61 66.43"/><polygon class="cls-2" points="639.39 70.26 647.04 78.8 637.55 89.11 631.43 81.16 639.39 70.26"/><path class="cls-2" d="M637.55,103.54l6.99,10.6s-15.39,7.85-15.02,6.58,8.03-17.18,8.03-17.18Z"/><polygon class="cls-2" points="725.08 110.9 729.05 120.72 713.01 120.72 725.08 110.9"/><polygon class="cls-2" points="733.5 91.32 747.71 89.11 757.47 70.26 725.96 68.65 733.5 91.32"/><polygon class="cls-2" points="607.14 158.61 633.5 147.12 648.37 155.05 650.58 186.29 641.89 194.09 607.14 158.61"/><polygon class="cls-2" points="159.61 98.98 191.41 106.03 183.46 139.17 170.21 160.15 158.28 163.69 159.61 98.98"/><polygon class="cls-2" points="111.02 168.55 119.41 174.18 113.12 182.57 105.28 176.39 111.02 168.55"/><polygon class="cls-1" points="423.27 8.47 422.2 9.08 420.71 8.41 419.7 6.83 423.27 8.47"/><polygon class="cls-2" points="415.95 9.89 423.83 12.57 423.83 16.11 416.69 16.66 415.95 9.89"/><path class="cls-1" d="M372.74,12.99c1.49-.61,5.48-1.47,8.14-1.28,1.86.13.83-1.79.83-1.79h-4.79l-4.67,1.36-1.38,1.35,1.88.36Z"/><polygon class="cls-2" points="369.95 17.35 379.9 13.36 386.32 15.36 385.06 19.97 374.25 22.48 369.95 17.35"/><polygon class="cls-2" points="452.29 70.18 467.01 77.91 468.33 89.76 448.6 99.78 446.1 78.67 452.29 70.18"/><polygon class="cls-2" points="362.52 136.29 400.93 149.02 403.42 75.26 377.35 72.2 362.52 136.29"/><polygon class="cls-2" points="344.65 161.76 353.21 168.59 349.25 172.95 340.83 165.79 344.65 161.76"/><polygon class="cls-2" points="303.57 71.21 325.71 79.62 323 108.37 304.75 124.96 294.1 117 303.57 71.21"/><polygon class="cls-2" points="284.85 22.02 289.44 15.3 298.01 12.13 303.65 12.65 304.2 14.78 291.61 30.02 285.24 24.43 284.85 22.02"/><path class="cls-1" d="M283.63,17.54c2.91-3.83,8.2-8.43,16.86-8.7s-1.94-2.53-1.94-2.53l-12.92,4.17-5.02,6.63,1.68,1.9,1.34-1.46Z"/><polygon class="cls-2" points="301.52 69.32 330.44 79.22 321.77 113.18 298.71 124.96 301.52 69.32"/><polygon class="cls-2" points="372.76 59.81 412.83 71.59 397.51 146.46 363.93 134.17 372.76 59.81"/><path class="cls-2" d="M430.77,58.72l30.92,10.01,8.25,19.58-19.58,12.66-15.5-22.38s-12.77-9.13-12.47-9.57,8.39-10.31,8.39-10.31Z"/><polygon class="cls-2" points="346.35 161.03 349.25 164.56 350.32 170.56 342.14 166.54 343.03 162.8 346.35 161.03"/></g></svg>