<?xml version="1.0" encoding="UTF-8"?><svg id="_レイヤー_2" xmlns="http://www.w3.org/2000/svg" viewBox="0 0 800 800"><defs><style>.cls-1{fill:#fff;stroke-width:0px;}</style></defs><g id="_レイヤー_4"><rect class="cls-1" y="7.69" width="7.69" height="192.31"/><rect class="cls-1" x="96.15" y="-96.15" width="7.69" height="200" transform="translate(103.85 -96.15) rotate(90)"/><rect class="cls-1" x="200" y="7.69" width="7.69" height="192.31"/><rect class="cls-1" x="296.15" y="-96.15" width="7.69" height="200" transform="translate(303.85 -296.15) rotate(90)"/><rect class="cls-1" x="400" y="7.69" width="7.69" height="192.31"/><rect class="cls-1" x="496.15" y="-96.15" width="7.69" height="200" transform="translate(503.85 -496.15) rotate(90)"/><rect class="cls-1" x="600" y="7.69" width="7.69" height="192.31"/><rect class="cls-1" x="696.15" y="-96.15" width="7.69" height="200" transform="translate(703.85 -696.15) rotate(90)"/><rect class="cls-1" y="207.69" width="7.69" height="192.31"/><rect class="cls-1" x="96.15" y="103.85" width="7.69" height="200" transform="translate(303.85 103.85) rotate(90)"/><rect class="cls-1" x="200" y="207.69" width="7.69" height="192.31"/><rect class="cls-1" x="296.15" y="103.85" width="7.69" height="200" transform="translate(503.85 -96.15) rotate(90)"/><rect class="cls-1" x="400" y="207.69" width="7.69" height="192.31"/><rect class="cls-1" x="496.15" y="103.85" width="7.69" height="200" transform="translate(703.85 -296.15) rotate(90)"/><rect class="cls-1" x="600" y="207.69" width="7.69" height="192.31"/><rect class="cls-1" x="696.15" y="103.85" width="7.69" height="200" transform="translate(903.85 -496.15) rotate(90)"/><rect class="cls-1" y="407.69" width="7.69" height="192.31"/><rect class="cls-1" x="96.15" y="303.85" width="7.69" height="200" transform="translate(503.85 303.85) rotate(90)"/><rect class="cls-1" x="200" y="407.69" width="7.69" height="192.31"/><rect class="cls-1" x="296.15" y="303.85" width="7.69" height="200" transform="translate(703.85 103.85) rotate(90)"/><rect class="cls-1" x="400" y="407.69" width="7.69" height="192.31"/><rect class="cls-1" x="496.15" y="303.85" width="7.69" height="200" transform="translate(903.85 -96.15) rotate(90)"/><rect class="cls-1" x="600" y="407.69" width="7.69" height="192.31"/><rect class="cls-1" x="696.15" y="303.85" width="7.69" height="200" transform="translate(1103.85 -296.15) rotate(90)"/><rect class="cls-1" y="607.69" width="7.69" height="192.31"/><rect class="cls-1" x="96.15" y="503.85" width="7.69" height="200" transform="translate(703.85 503.85) rotate(90)"/><rect class="cls-1" x="200" y="607.69" width="7.69" height="192.31"/><rect class="cls-1" x="296.15" y="503.85" width="7.69" height="200" transform="translate(903.85 303.85) rotate(90)"/><rect class="cls-1" x="400" y="607.69" width="7.69" height="192.31"/><rect class="cls-1" x="496.15" y="503.85" width="7.69" height="200" transform="translate(1103.85 103.85) rotate(90)"/><rect class="cls-1" x="600" y="607.69" width="7.69" height="192.31"/><rect class="cls-1" x="696.15" y="503.85" width="7.69" height="200" transform="translate(1303.85 -96.15) rotate(90)"/></g></svg>