<?xml version="1.0" encoding="UTF-8"?><svg id="_レイヤー_2" xmlns="http://www.w3.org/2000/svg" viewBox="0 0 697.75 654.18"><defs><style>.cls-1{fill:#326464;}.cls-1,.cls-2,.cls-3{stroke-width:0px;}.cls-2{fill:#d1a684;}.cls-3{fill:#59473a;}</style></defs><g id="_レイヤー_4"><path class="cls-3" d="M267.99,376.24h-.03c-1.59,0-3.08-.62-4.21-1.74-1.12-1.11-1.76-2.65-1.76-4.23v-13.52c0-1.59.62-3.09,1.75-4.22l8.09-8.09-.56-.56c-1.13-1.13-1.75-2.63-1.75-4.22s.62-3.09,1.75-4.22l5.11-5.11c1.13-1.13,2.63-1.75,4.22-1.75s3.09.62,4.22,1.75l.24.24,4.87-4.87c1.13-1.13,2.63-1.75,4.22-1.75s3.09.62,4.22,1.75l5.7,5.7c1.13,1.13,1.75,2.63,1.75,4.22s-.62,3.09-1.75,4.22l-22.03,22.03v8.35c0,3.27-2.66,5.95-5.93,5.97l-8.11.04Z"/><path class="cls-2" d="M266.95,374.47c-1.19,0-2.33-.47-3.17-1.31-.85-.84-1.33-1.99-1.33-3.19v-13.52c0-1.19.47-2.34,1.32-3.18l9.13-9.13-1.6-1.6c-.84-.84-1.32-1.99-1.32-3.18s.47-2.34,1.32-3.18l5.11-5.11c.84-.84,1.99-1.32,3.18-1.32s2.34.47,3.18,1.32l1.28,1.28,5.91-5.91c.84-.84,1.99-1.32,3.18-1.32s2.34.47,3.18,1.32l5.7,5.7c.84.84,1.32,1.99,1.32,3.18s-.47,2.34-1.32,3.18l-22.46,22.46v8.96c0,2.47-2,4.48-4.47,4.5l-8.11.04h-.02Z"/><path class="cls-3" d="M83.98,654.18h-10.05c-3.29,0-5.97-2.68-5.97-5.97v-25.28h-3.11v21.11c0,3.29-2.68,5.97-5.97,5.97h-18.83c-3.29,0-5.97-2.68-5.97-5.97v-51.65c0-1.59.62-3.09,1.75-4.22l11-11v-23.31l-8.52-8.52h-.56v3.42c2.98.33,5.31,2.86,5.31,5.93v12.03c0,3.29-2.68,5.97-5.97,5.97h-20.49c-1.59,0-3.09-.62-4.22-1.75l-10.64-10.64c-1.13-1.13-1.75-2.63-1.75-4.22v-35.85c0-3.29,2.68-5.97,5.97-5.97h23.35l16.85-16.85c1.13-1.13,2.63-1.75,4.22-1.75h43.03c1.59,0,3.09.62,4.22,1.75l16.77,16.77v-28.86c0-6.02,4.9-10.91,10.91-10.91h20.8l11.23-11.23c2.06-2.06,4.8-3.2,7.72-3.2h126.37c2.92,0,5.66,1.14,7.72,3.2l6.7,6.7,11.4-11.4v-9.89c0-2.91,1.13-5.65,3.2-7.72l35.58-35.6v-25.66c0-2.92,1.14-5.66,3.2-7.72l13.1-13.1c2.06-2.06,4.8-3.2,7.72-3.2h20.12c5.03,0,9.12,4.09,9.12,9.12v3.37c0,2.44-.95,4.73-2.67,6.45l-15.43,15.43v12.09h8.28s10.42-10.42,10.42-10.42c2.06-2.06,4.8-3.2,7.72-3.2h14.12l56.44-56.44v-57.6l-4.09-4.09c-2.06-2.06-3.2-4.8-3.2-7.72v-3.76c0-2.92,1.14-5.66,3.2-7.72l4.09-4.09v-21.39c0-2.92,1.14-5.66,3.2-7.72l15.72-15.72v-12.52c0-5.13,4.18-9.31,9.31-9.31h12.89c5.13,0,9.31,4.18,9.31,9.31v11.43h14.43v-8.81h-5.33c-4.96,0-8.99-4.03-8.99-8.99v-8.43c0-4.96,4.03-8.99,8.99-8.99h16.45c2.92,0,5.66,1.14,7.72,3.2l9.79,9.79c2.06,2.06,3.2,4.8,3.2,7.72v23.69l15.85,15.85c2.06,2.06,3.2,4.8,3.2,7.72v86c0,2.92-1.14,5.66-3.2,7.72l-6.69,6.69v108.96l13.67,13.67c2.06,2.06,3.2,4.8,3.2,7.72v39.99c0,2.91-1.14,5.66-3.2,7.72l-27.99,27.99c-2.06,2.06-4.8,3.2-7.72,3.2h-2.71c-4.52,0-8.2-3.68-8.2-8.2v-25.63c0-2.92,1.14-5.66,3.2-7.72l7.72-7.72-1.35-1.35-13.11,13.11v12.65c0,5.49-4.47,9.96-9.96,9.96h-24.53v15.8c0,2.92-1.14,5.66-3.2,7.72l-9.9,9.91c-2.06,2.06-4.8,3.2-7.72,3.2h-5.63c-2.92,0-5.66-1.14-7.72-3.2-2.06-2.06-3.2-4.8-3.2-7.72v-24.98s-3.79,0-3.79,0l-14.19,14.19c-2.06,2.06-4.8,3.2-7.72,3.2h-51.54c-6.02,0-10.91-4.9-10.91-10.91v-6.32h-7.47v17.49l9.6,9.6c2.06,2.06,3.2,4.8,3.2,7.72v9.23c0,5.24-4.26,9.5-9.5,9.5h-14.89l-25.4,25.4c-2.06,2.06-4.8,3.2-7.72,3.2h-10.83c-2.92,0-5.66-1.14-7.72-3.2l-20-20c-2.06-2.06-3.2-4.8-3.2-7.72v-34.3c0-2.92,1.14-5.66,3.2-7.72l6-6-5.33-5.33h-6.38l1.66,1.66c2.33,2.33,2.33,6.11,0,8.44l-1.24,1.24c.72,1.01,1.11,2.21,1.11,3.47,0,1.59-.62,3.09-1.75,4.22l-10.48,10.48c-1.13,1.13-2.63,1.75-4.23,1.75h-.03c-1.59-.01-3.14-.67-4.24-1.81l-7.61-7.83c-2.26-2.33-2.23-6.08.06-8.38l13.24-13.24h-23.06l-9.79,9.79c-1.66,1.66-3.76,2.72-6.04,3.07h12.88c1.59,0,3.09.62,4.22,1.75l21.04,21.04c1.13,1.13,1.75,2.63,1.75,4.22v18.11c0,1.59-.62,3.09-1.75,4.22l-34.86,34.86c-2.33,2.33-6.11,2.33-8.44,0l-22.08-22.08h-14.66l-16.8,16.8v6.8c0,3.29-2.68,5.97-5.97,5.97h-18.6c-1.59,0-3.09-.62-4.22-1.75l-16.5-16.46c-1.13-1.13-1.75-2.63-1.75-4.22v-36.23c0-1.59.63-3.09,1.75-4.22l30.03-30.03c.97-.97,2.23-1.57,3.58-1.71-.33-.26-.64-.54-.94-.84l-3.76-3.8h-5.89l-4.5,4.5c-2.06,2.06-4.8,3.2-7.72,3.2h-1.53c-2.92,0-5.66-1.14-7.72-3.2l-9.41-9.41h-8.82l1.76,1.76c1.13,1.13,1.75,2.63,1.75,4.22v38.11c0,1.59-.62,3.09-1.75,4.22l-14.67,14.67v32.39c0,1.59-.62,3.09-1.75,4.22l-25.1,25.09c-1.13,1.13-2.63,1.75-4.22,1.75ZM201.57,557.43h19.53l15.45-15.45c.83-.83,1.86-1.38,2.98-1.62h-53.75c-.46,0-.91-.03-1.35-.08l17.15,17.15Z"/><path class="cls-3" d="M435.52,360.32c-1.59,0-3.09-.62-4.22-1.75l-3.96-3.96c-2.25-2.25-2.32-5.87-.22-8.21l-1.59-1.59c-2.32-2.33-2.32-6.11,0-8.44l14.09-14.09c2.33-2.33,6.11-2.33,8.44,0l4.17,4.17c2.28,2.28,2.33,5.96.14,8.3l1.38,1.38c2.33,2.33,2.33,6.11,0,8.44l-14,14c-1.13,1.13-2.63,1.75-4.22,1.75Z"/><path class="cls-3" d="M514.09,173.81c-2.15,0-4.18-.84-5.7-2.36l-9.69-9.69c-1.52-1.52-2.36-3.55-2.36-5.7s.84-4.18,2.36-5.7l8.04-8.04-.28-30.5c-.02-2.41.9-4.68,2.6-6.4,1.7-1.71,3.96-2.66,6.37-2.66h16.09l13.14-13.14v-16.33c0-2.39.94-4.65,2.63-6.34l5.63-5.63V8.97c0-4.95,4.03-8.97,8.97-8.97h18.21c2.4,0,4.65.93,6.35,2.63l65.67,65.67h37.28c4.59,0,8.33,3.74,8.33,8.33v4.64c0,2.23-.87,4.32-2.44,5.89l-3.86,3.86v25.41l3.87,3.87c1.56,1.56,2.43,3.64,2.43,5.86v2.49c0,4.57-3.72,8.28-8.28,8.28h-28.3l-33.46,33.46c-1.7,1.7-3.95,2.63-6.35,2.63h-6.69c-2.4,0-4.65-.93-6.34-2.63l-30.27-30.26-7.64,7.64c-1.69,1.69-3.95,2.63-6.35,2.63s-4.65-.93-6.35-2.63l-9.53-9.53-9.92-.06v.62c2.22.11,4.3,1.03,5.89,2.62l7.08,7.08c1.45,1.45,2.24,3.37,2.24,5.42v1.87c0,2.07-.81,4.01-2.29,5.46-1.48,1.46-3.43,2.24-5.5,2.2l-17.67-.27-8.25,8.25c-1.52,1.52-3.55,2.36-5.7,2.36Z"/><path class="cls-2" d="M82.98,652.42h-10.05c-2.48,0-4.5-2.01-4.5-4.5v-26.75h-6.05v22.58c0,2.48-2.01,4.5-4.5,4.5h-18.83c-2.48,0-4.5-2.01-4.5-4.5v-51.65c0-1.19.47-2.34,1.32-3.18l11.43-11.43v-24.53l-9.38-9.38h-2.64v6.33h.81c2.48,0,4.5,2.01,4.5,4.5v12.03c0,2.48-2.01,4.5-4.5,4.5H15.6c-1.19,0-2.34-.47-3.18-1.32l-10.64-10.64c-.84-.84-1.32-1.99-1.32-3.18v-35.85c0-2.48,2.01-4.5,4.5-4.5h23.96l17.28-17.28c.84-.84,1.99-1.32,3.18-1.32h43.03c1.19,0,2.34.47,3.18,1.32l19.32,19.32c-.03-.31-.05-.63-.05-.95v-31.51c0-5.21,4.24-9.44,9.44-9.44h21.22c.12,0,.23-.05.32-.13l11.53-11.53c1.78-1.78,4.16-2.77,6.68-2.77h126.37c2.52,0,4.89.98,6.68,2.77l7.42,7.42c.17.17.46.17.64,0l12.42-12.42c.08-.08.13-.2.13-.32v-10.32c0-2.52.98-4.89,2.76-6.68l35.88-35.9c.08-.08.13-.2.13-.32v-26.08c0-2.52.98-4.89,2.77-6.68l13.1-13.1c1.78-1.78,4.16-2.77,6.68-2.77h20.12c4.22,0,7.65,3.43,7.65,7.65v3.37c0,2.04-.8,3.96-2.24,5.41l-15.73,15.73c-.08.08-.13.2-.13.32v13.53c0,.12.04.23.13.32.09.09.19.13.32.13h9.72c.12,0,.23-.05.32-.13l10.72-10.72c1.78-1.78,4.16-2.77,6.68-2.77h14.54c.12,0,.23-.05.32-.13l57.03-57.04c.08-.08.13-.2.13-.32v-58.45c0-.12-.05-.23-.13-.32l-4.39-4.39c-1.78-1.78-2.77-4.16-2.77-6.68v-3.76c0-2.52.98-4.89,2.77-6.68l4.39-4.39c.08-.08.13-.2.13-.32v-21.81c0-2.52.98-4.89,2.77-6.68l16.01-16.01c.08-.08.13-.2.13-.32v-12.94c0-4.32,3.52-7.84,7.84-7.84h12.89c4.32,0,7.84,3.52,7.84,7.84v12.45c0,.25.2.45.45.45h16.47c.25,0,.45-.2.45-.45v-10.85c0-.25-.2-.45-.45-.45h-6.35c-4.15,0-7.52-3.37-7.52-7.52v-8.43c0-4.15,3.37-7.52,7.52-7.52h16.45c2.52,0,4.89.98,6.68,2.77l9.79,9.79c1.78,1.78,2.77,4.16,2.77,6.68v24.11c0,.12.05.23.13.32l16.14,16.14c1.78,1.78,2.77,4.16,2.77,6.68v86c0,2.52-.98,4.89-2.77,6.68l-6.99,6.99c-.08.08-.13.2-.13.32v109.81c0,.12.05.23.13.32l13.97,13.97c1.78,1.78,2.77,4.16,2.77,6.68v39.99c0,2.52-.98,4.89-2.77,6.68l-27.99,27.99c-1.78,1.78-4.16,2.77-6.68,2.77h-2.71c-3.71,0-6.73-3.02-6.73-6.73v-25.63c0-2.52.98-4.89,2.77-6.68l8.44-8.44c.18-.18.18-.46,0-.64l-2.79-2.79c-.18-.18-.46-.18-.64,0l-14.13,14.13c-.08.08-.13.2-.13.32v13.07c0,4.68-3.81,8.49-8.49,8.49h-25.55c-.25,0-.45.2-.45.45v16.82c0,2.52-.98,4.9-2.77,6.68l-9.9,9.9c-1.78,1.78-4.16,2.77-6.68,2.77h-5.63c-2.52,0-4.89-.98-6.68-2.77-1.78-1.78-2.77-4.16-2.77-6.68v-26c0-.12-.04-.23-.13-.32s-.19-.13-.32-.13h-5.23c-.12,0-.23.05-.32.13l-14.49,14.49c-1.78,1.78-4.16,2.77-6.68,2.77h-51.54c-5.21,0-9.44-4.24-9.44-9.44v-7.34c0-.25-.2-.45-.45-.45h-9.51c-.25,0-.45.2-.45.45v18.94c0,.12.05.23.13.32l9.9,9.9c1.78,1.78,2.77,4.16,2.77,6.68v9.23c0,4.43-3.6,8.03-8.03,8.03h-15.32c-.12,0-.23.05-.32.13l-25.7,25.7c-1.78,1.78-4.16,2.77-6.68,2.77h-10.83c-2.52,0-4.89-.98-6.68-2.77l-20-20c-1.78-1.78-2.77-4.16-2.77-6.68v-34.3c0-2.52.98-4.89,2.77-6.68l6.72-6.72c.18-.18.18-.46,0-.64l-6.35-6.35c-.09-.08-.2-.13-.32-.13h-10.35l4.17,4.17c1.76,1.76,1.76,4.6,0,6.36l-2.23,2.23.35.35c.84.84,1.32,1.99,1.32,3.18s-.47,2.34-1.32,3.18l-10.48,10.48c-.85.85-2,1.32-3.21,1.32-1.2,0-2.35-.5-3.19-1.36l-7.61-7.83c-1.71-1.76-1.69-4.58.05-6.31l15.75-15.75h-27.03c-.12,0-.23.05-.32.13l-10.09,10.09c-1.78,1.78-4.16,2.77-6.68,2.77h-61.18c-2.52,0-4.89-.98-6.68-2.77l-4.8-4.8c-.08-.08-.2-.13-.32-.13h-6.74c-.12,0-.23.05-.32.13l-4.8,4.8c-1.78,1.78-4.16,2.77-6.68,2.77h-1.53c-2.52,0-4.89-.98-6.68-2.77l-9.71-9.71c-.08-.08-.2-.13-.32-.13h-11.88c-.32,0-.64-.02-.95-.05l4.31,4.31c.84.84,1.32,1.99,1.32,3.18v38.11c0,1.19-.47,2.34-1.32,3.18l-15.1,15.1v33c0,1.19-.47,2.34-1.32,3.18l-25.1,25.09c-.84.84-1.99,1.32-3.18,1.32Z"/><path class="cls-2" d="M182.18,629.38h-18.6c-1.19,0-2.34-.47-3.18-1.32l-15.76-15.76c-.84-.84-1.32-1.99-1.32-3.18v-36.23c0-1.19.48-2.34,1.32-3.18l30.03-30.03c1.76-1.76,4.6-1.76,6.36,0l18.14,18.14h22.19l15.88-15.88c.84-.84,1.99-1.32,3.18-1.32h19.3c1.19,0,2.34.47,3.18,1.32l21.04,21.04c.84.84,1.32,1.99,1.32,3.18v18.11c0,1.19-.47,2.34-1.32,3.18l-34.86,34.86c-1.76,1.76-4.6,1.76-6.36,0l-22.51-22.51h-15.88l-17.66,17.66v7.41c0,2.48-2.01,4.5-4.5,4.5Z"/><path class="cls-2" d="M434.52,358.56c-1.15,0-2.3-.44-3.18-1.32l-3.96-3.96c-1.76-1.76-1.76-4.6,0-6.36l.81-.81-2.62-2.63c-1.75-1.76-1.75-4.6,0-6.36l14.09-14.09c1.76-1.76,4.6-1.76,6.36,0l4.17,4.17c1.76,1.76,1.76,4.6,0,6.36l-.9.9,2.41,2.41c1.76,1.76,1.76,4.6,0,6.36l-14,14c-.88.88-2.03,1.32-3.18,1.32Z"/><path class="cls-2" d="M513.29,171.66c-1.76,0-3.41-.69-4.66-1.93l-9.69-9.69c-1.24-1.24-1.93-2.9-1.93-4.66s.69-3.41,1.93-4.66l8.48-8.48-.29-31.12c-.02-2.02.75-3.92,2.17-5.35,1.42-1.43,3.31-2.22,5.33-2.22h16.7l14-14v-16.94c0-2,.79-3.89,2.2-5.3l6.06-6.06V8.29c0-4.14,3.37-7.5,7.5-7.5h18.21c2,0,3.89.78,5.31,2.2l66.1,66.1h37.89c3.78,0,6.86,3.08,6.86,6.86v4.64c0,1.83-.71,3.56-2.01,4.85l-4.29,4.29v26.63l4.31,4.31c1.29,1.29,2,3,2,4.82v2.49c0,3.76-3.06,6.81-6.81,6.81h-28.91l-33.89,33.89c-1.42,1.42-3.3,2.2-5.31,2.2h-6.69c-2,0-3.89-.78-5.31-2.2l-31.31-31.3-8.68,8.68c-1.42,1.42-3.3,2.2-5.31,2.2s-3.89-.78-5.31-2.2l-9.96-9.96-12-.07v3.56h1.01c2,0,3.89.78,5.31,2.2l7.08,7.08c1.17,1.17,1.81,2.73,1.81,4.38v1.87c0,1.67-.66,3.24-1.85,4.41-1.19,1.17-2.77,1.81-4.44,1.78l-18.29-.28-8.69,8.69c-1.24,1.24-2.9,1.93-4.66,1.93Z"/><polygon class="cls-1" points="272.54 281.7 378.03 281.7 378.03 282.9 273.03 282.9 210.49 345.44 210.49 433.11 209.29 433.11 209.29 344.94 272.54 281.7"/></g></svg>