<?xml version="1.0" encoding="UTF-8"?><svg id="_レイヤー_2" xmlns="http://www.w3.org/2000/svg" viewBox="0 0 220.25 71.45"><defs><style>.cls-1,.cls-2,.cls-3{stroke-width:0px;}.cls-2{fill:#198caa;}.cls-3{fill:#fff;}</style></defs><g id="_レイヤー_4"><path class="cls-1" d="M42.44,5.97c.56.49.77,1.05.77,1.82v10.08h21.14c.77.07,1.33.35,1.89.91.49.56.7,1.19.7,1.89v8.33c0,.77-.21,1.33-.7,1.82-.56.49-1.12.77-1.89.77h-21.14v7.63c0,4.27,1.33,7.49,3.85,9.73,2.59,2.17,5.53,3.22,8.89,3.22h7.91c.84,0,1.54.28,2.17.84.56.56.84,1.26.84,2.1v8.61c0,.98-.28,1.75-.84,2.24-.63.49-1.33.77-2.17.77h-7.91c-7.84,0-14.56-3.29-20.23-9.73-5.74,6.44-12.39,9.73-19.95,9.73H7.09c-.77-.07-1.33-.35-1.89-.77-.49-.49-.7-1.05-.7-1.82v-9.38c0-.77.21-1.33.7-1.82.56-.42,1.12-.7,1.89-.77h8.68c3.08,0,5.88-1.05,8.47-3.22,2.52-2.24,3.85-5.46,3.85-9.73v-7.63H7.02c-.7,0-1.26-.28-1.82-.77-.49-.49-.7-1.05-.7-1.82v-8.33c0-.7.21-1.33.7-1.89.56-.56,1.12-.84,1.82-.91h21.07V7.79c0-.77.28-1.33.77-1.82.49-.49,1.12-.7,1.96-.7h9.59c.84,0,1.54.21,2.03.7Z"/><path class="cls-1" d="M132.39,50.36c2.1,1.47,4.13,2.38,6.16,2.8.91.07,1.54.35,1.96.84.49.56.77,1.19.77,2.03v7.28c0,1.33-.21,2.24-.63,2.73-.42.42-1.12.63-2.1.56-3.78-.28-7.98-2.73-12.67-7.49-3.64,4.76-7.77,7.21-12.53,7.49-.91.07-1.61-.14-2.03-.56-.42-.49-.63-1.4-.63-2.73v-7.28c0-.84.28-1.47.7-2.03.42-.49,1.05-.77,1.96-.84,2.87-.42,4.97-1.33,6.16-2.8-3.01-3.92-5.32-8.54-7.07-13.93h-1.68v16.66c-.42,5.46-1.89,9.03-4.48,10.78-2.66,1.75-5.04,2.59-7.14,2.45-1.12,0-1.82-.14-2.24-.63-.35-.42-.49-1.12-.49-2.17v-7.7h-8.89v8.19c0,.91-.28,1.61-.7,2.1-.49.42-1.12.7-2.03.7h-3.57c-.91,0-1.61-.28-2.03-.7-.49-.49-.7-1.19-.7-2.1V8.14c0-.91.21-1.61.7-2.1.42-.42,1.12-.63,2.03-.63h15.54c.91,0,1.61.21,2.1.63.42.49.7,1.19.7,2.1v4.34c-.07,1.05-.21,1.89-.42,2.45l-4.34,11.48h1.96c.91,0,1.61.28,2.1.7.42.49.7,1.12.7,2.03v24.57c.91-.07,1.61-.56,2.03-1.4.42-.91.56-2.24.56-4.13V8.14c-.14-1.12.07-1.82.42-2.24.42-.35,1.26-.49,2.52-.49h32.76c1.12,0,1.89.14,2.31.49.35.42.56,1.12.56,2.24v7.21c0,.84-.21,1.4-.56,1.75-.42.35-1.19.49-2.31.49h-27.09v7.49h26.18c1.12,0,1.96.21,2.38.7.49.49.77,1.19.77,2.1-.07,8.68-2.59,16.17-7.7,22.47ZM87.51,16.61v6.65l2.52-6.65h-2.52ZM87.51,44.61h1.61c.91,0,1.4-.42,1.4-1.33v-5.67h-3.01v7ZM130.36,36.42h-8.89c.7,1.96,2.17,4.41,4.41,7.35,2.24-2.94,3.78-5.39,4.48-7.35Z"/><path class="cls-1" d="M185.23,21.3c.7,0,1.33.28,1.82.91.56.56.84,1.26.84,1.96v5.74h10.36v-5.6c0-1.12.21-1.82.7-2.17.42-.35,1.26-.56,2.45-.56h5.53c1.26,0,2.1.21,2.59.56.42.35.56,1.05.49,2.17v5.6h1.68c1.19,0,2.03.21,2.45.63s.63,1.26.63,2.59v3.64c0,1.05-.21,1.82-.63,2.31-.42.42-1.26.7-2.45.7h-1.68v22.47c0,1.75-.28,3.01-.84,3.57-.56.63-1.61.98-3.36.98h-8.89c-1.96,0-2.94-.98-2.94-2.87v-3.92c0-1.96.98-2.94,2.94-2.94h1.33v-2.59c-.42.14-.98.21-1.54.21h-4.06c-1.12,0-1.82-.21-2.1-.63-.35-.42-.77-1.19-1.26-2.31l-2.59-6.09c-.42-.77-.35-1.4.14-1.96.56-.49,1.4-.77,2.59-.7h3.78c1.12-.07,1.89.07,2.24.49.35.42.84,1.19,1.47,2.38l1.33,3.22v-9.31h-11.9c-.49,1.33-1.26,2.73-2.38,4.13v20.16c0,.77-.28,1.4-.91,1.96-.56.56-1.26.77-2.1.77h-5.67c-.98,0-1.68-.21-2.24-.77-.49-.56-.77-1.19-.84-1.96v-16.52h-1.54c0,6.58-1.61,11.48-4.76,14.63s-7.07,4.83-11.48,4.76c-.7,0-1.33-.28-1.82-.7-.49-.49-.77-1.05-.77-1.82v-6.65c0-.77.28-1.33.77-1.82.49-.42,1.12-.7,1.82-.77,1.47-.07,2.59-.84,3.29-2.31.77-1.47,1.19-3.85,1.19-7.14V12.34c0-1.33.14-2.17.56-2.59s1.19-.63,2.31-.63h19.53v-1.96c0-.7.35-1.33.84-1.82.56-.56,1.26-.84,2.17-.84h8.05c.84,0,1.54.28,2.1.84.56.49.84,1.12.84,1.82v1.96h17.43c1.19,0,1.96.21,2.38.63s.63,1.26.63,2.59v4.9c0,1.05-.21,1.75-.63,2.24-.42.49-1.19.7-2.38.7h-42.07v17.92h1.4c1.75,0,2.87-.84,3.29-2.38.49-1.54.77-3.15.77-4.76v-6.79c0-.7.21-1.4.7-1.96.56-.63,1.12-.91,1.89-.91h6.51Z"/><path class="cls-2" d="M63.87,71.24h-7.91c-7.59,0-14.38-2.64-20.24-7.86-5.88,5.22-12.57,7.86-19.94,7.86H7.09c-.14,0-.27,0-.41-.02-1.52-.14-2.88-.68-4.18-1.65-.17-.13-.33-.27-.48-.42-1.34-1.34-2.02-3.02-2.02-5v-9.38c0-1.98.68-3.66,2.02-5,.15-.15.31-.29.48-.42,1.3-.98,2.67-1.52,4.19-1.65.13-.01.27-.02.4-.02h8.68c2.02,0,3.78-.68,5.53-2.12,1.54-1.4,2.29-3.47,2.29-6.33v-3.13H7.02c-1.75,0-3.36-.63-4.79-1.89-.07-.07-.15-.13-.22-.2-1.34-1.34-2.02-3.02-2.02-5v-8.33c0-1.82.63-3.5,1.81-4.85.07-.07.13-.15.2-.22,1.29-1.29,2.82-2.03,4.56-2.21.15-.01.3-.02.45-.02h16.57v-5.58c0-1.91.72-3.64,2.09-5,.92-.92,2.56-2.02,5.14-2.02h9.59c2.54,0,4.16,1.01,5.1,1.91,1.03.94,2.2,2.56,2.2,5.11v5.58h16.64c.14,0,.27,0,.41.02,1.82.17,3.34.89,4.67,2.21.07.07.14.14.2.22,1.19,1.36,1.81,3.04,1.81,4.85v8.33c0,1.98-.68,3.66-2.02,5-.07.07-.14.14-.22.2-1.43,1.25-3.06,1.89-4.86,1.89h-16.64v3.13c0,2.86.75,4.93,2.29,6.33,1.75,1.45,3.64,2.13,5.95,2.13h7.91c1.92,0,3.71.68,5.16,1.98.06.06.13.12.19.18,1.41,1.41,2.16,3.24,2.16,5.28v8.61c0,2.29-.84,4.28-2.37,5.62-.07.06-.13.11-.21.17-1.46,1.14-3.12,1.72-4.93,1.72ZM35.72,52.51h.01c1.29,0,2.51.56,3.36,1.53,4.86,5.52,10.38,8.2,16.85,8.2h6.42v-5.56h-6.42c-4.43,0-8.4-1.44-11.78-4.27-.03-.03-.07-.06-.1-.09-3.56-3.16-5.36-7.57-5.36-13.1v-7.63c0-2.49,2.01-4.5,4.5-4.5h19.23v-4.72h-19.23c-2.49,0-4.5-2.01-4.5-4.5v-8.1h-6.12v8.1c0,2.49-2.01,4.5-4.5,4.5H9v4.72h19.09c2.49,0,4.5,2.01,4.5,4.5v7.63c0,5.53-1.8,9.93-5.36,13.1-.03.03-.07.06-.1.09-3.38,2.83-7.21,4.27-11.36,4.27h-6.77v5.56h6.77c6.23,0,11.66-2.69,16.59-8.23.85-.96,2.08-1.5,3.36-1.5Z"/><path class="cls-2" d="M84.78,71.31h-3.57c-2.06,0-3.92-.72-5.22-2.03-.91-.91-2.01-2.57-2.01-5.27V8.14c0-2.7,1.1-4.37,2.02-5.29.88-.88,2.5-1.94,5.21-1.94h15.54c1.46,0,2.75.3,3.86.91,1.45-.79,3.12-.91,4.47-.91h32.76c1.44,0,3.54.16,5.19,1.53.21.17.4.37.58.58,1.08,1.29,1.6,2.97,1.6,5.12v7.21c0,2.52-1.02,4.08-1.88,4.93-.1.1-.2.19-.3.28-.57.47-1.19.8-1.82,1.03.52.3.99.68,1.39,1.12,1.3,1.35,1.98,3.14,1.98,5.17-.06,7.76-1.92,14.72-5.53,20.77.07.02.13.03.2.05,2.42.28,3.87,1.43,4.67,2.37,1.22,1.39,1.85,3.07,1.85,4.96v7.28c0,2.46-.56,4.32-1.72,5.66-.07.09-.15.17-.23.25-.96.96-2.72,2.08-5.6,1.87-3.91-.29-7.88-2.13-12.06-5.59-3.7,3.45-7.9,5.32-12.56,5.6-2.12.17-4.1-.5-5.48-1.87-.08-.08-.16-.17-.24-.25-.15-.18-.29-.36-.42-.55-3.03,1.76-5.8,2.55-8.48,2.41-1.12,0-3.71-.09-5.52-2.2-1-1.2-1.37-2.57-1.5-3.75-.16,1.59-.75,3.02-1.75,4.18-.15.17-.31.33-.48.48-1.36,1.17-3.08,1.79-4.97,1.79ZM82.98,62.31h.03v-6.49c0-2.49,2.01-4.5,4.5-4.5h7.54v-20.4h-.26c-1.48,0-2.86-.73-3.7-1.94-.45-.66-.72-1.41-.78-2.18-.99.78-2.29,1.14-3.61.9-2.14-.39-3.69-2.25-3.69-4.43v-6.65c0-2.49,2.01-4.5,4.5-4.5h2.52c1.48,0,2.86.73,3.7,1.94.22.32.4.67.53,1.03l.66-1.74s0,0,0,0c0,0,.08-.3.13-1.02v-2.41h-12.07s0,52.39,0,52.39ZM115.19,57.4v4.35c2.6-.72,4.89-2.46,7.12-5.38.79-1.04,1.99-1.68,3.29-1.76,1.29-.08,2.57.4,3.49,1.33,3.3,3.34,5.84,4.94,7.7,5.66v-4.24c-2.37-.61-4.65-1.7-6.97-3.32-1.02-.72-1.7-1.82-1.88-3.06s.17-2.49.96-3.46c1.12-1.38,2.1-2.83,2.94-4.34-.68,1.03-1.46,2.13-2.37,3.32-.85,1.12-2.17,1.77-3.58,1.77s-2.73-.66-3.58-1.77c-.16-.21-.32-.42-.47-.63.4.6.82,1.18,1.25,1.74,1.27,1.65,1.24,3.96-.07,5.57-1.7,2.1-4.33,3.52-7.82,4.21ZM100.91,58.05v3.53c.72-.23,1.67-.67,2.9-1.48,1.26-.85,2.14-3.42,2.46-7.2v-.43c-.14.59-.33,1.17-.58,1.72-.02.04-.04.09-.06.13-.98,1.96-2.66,3.28-4.71,3.73ZM138.23,57.64h0,0ZM110.76,31.92h1.68c1.95,0,3.68,1.26,4.28,3.11.09.29.19.57.28.85.09-.73.35-1.44.79-2.05.84-1.2,2.21-1.91,3.68-1.91h8.89c1.46,0,2.84.71,3.68,1.91.35.5.59,1.05.72,1.62.42-1.87.68-3.82.79-5.87h-24.78c-1.83,0-3.41-1.09-4.11-2.67v7.67c.7-1.57,2.28-2.67,4.11-2.67ZM106.65,9.91v5.85c.7-1.57,2.28-2.67,4.11-2.67h25.46v-3.18h-29.57ZM89.12,49.11h-1.61c-2.49,0-4.5-2.01-4.5-4.5v-7c0-2.49,2.01-4.5,4.5-4.5h3.01c2.49,0,4.5,2.01,4.5,4.5v5.67c0,3.38-2.48,5.83-5.9,5.83Z"/><path class="cls-2" d="M154.69,71.45c-.11,0-.22,0-.33,0h0c-1.65,0-3.34-.63-4.68-1.79-.09-.07-.17-.15-.25-.23-1.37-1.37-2.09-3.1-2.09-5v-6.65c0-1.91.72-3.64,2.09-5,.08-.08.16-.16.25-.23,1.15-.99,2.56-1.61,4.08-1.81.16-.33.65-1.65.65-5V12.34c0-1.92.22-4.12,1.88-5.77,1.29-1.29,3.14-1.95,5.49-1.95h15.54c.37-.9.92-1.73,1.66-2.46,1.41-1.41,3.26-2.16,5.35-2.16h8.05c1.99,0,3.78.71,5.18,2.05.8.73,1.4,1.6,1.79,2.57h13.41c.89,0,3.62,0,5.56,1.95,1.75,1.75,1.95,4.13,1.95,5.77v4.9c0,2.13-.56,3.82-1.71,5.17-1.21,1.41-2.78,1.94-4.03,2.15v1.2c1.13.32,2.06.85,2.81,1.6,1.75,1.75,1.95,4.13,1.95,5.77v3.64c0,2.15-.58,3.91-1.71,5.24-.08.09-.15.17-.24.25-.75.75-1.7,1.3-2.81,1.63v18.36c0,3.02-.67,5.2-2.06,6.65-2.21,2.4-5.54,2.4-6.64,2.4h-8.89c-4.45,0-7.44-2.96-7.44-7.37v-3.92c0-.45.03-.89.09-1.31-.4-.15-.76-.32-1.1-.53v5.9c0,2.03-.8,3.84-2.33,5.24-.97.93-2.63,1.99-5.18,1.99h-5.67c-2.21,0-4.03-.7-5.42-2.08-.07-.07-.14-.15-.21-.22-.71-.81-1.23-1.72-1.56-2.7-3.8,3.38-8.41,5.15-13.42,5.15ZM154.43,62.45s.03,0,.05,0c-.02,0-.03,0-.05,0ZM156.34,59.43v2.9c2.41-.34,4.5-1.44,6.39-3.33,2.28-2.28,3.44-6.14,3.44-11.45,0-2.49,2.01-4.5,4.5-4.5h1.54c2.49,0,4.5,2.01,4.5,4.5v14.75h2.76s0-18.39,0-18.39c0-1.02.35-2.01.99-2.81.75-.94,1.31-1.91,1.67-2.88.65-1.77,2.34-2.94,4.22-2.94h11.9c2.49,0,4.5,2.01,4.5,4.5v9.31c0,1-.33,1.94-.9,2.7.58.77.9,1.71.9,2.7v2.59c0,2.41-1.89,4.37-4.27,4.49v.73h7.03v-22.52c0-2.49,2.01-4.5,4.5-4.5h.26v-.87h-.26c-2.49,0-4.5-2.01-4.5-4.5v-3.83h-2.76v3.83c0,2.49-2.01,4.5-4.5,4.5h-10.36c-2.49,0-4.5-2.01-4.5-4.5v-4.11h-2.76v5.16c0,1.99-.32,4.02-.96,6.05-.99,3.45-3.89,5.59-7.6,5.59h-1.4c-2.49,0-4.5-2.01-4.5-4.5v-17.92c0-2.49,2.01-4.5,4.5-4.5h40.58v-2.06h-15.94c-2.49,0-4.5-2.01-4.5-4.5v-.12h-5v.12c0,2.49-2.01,4.5-4.5,4.5h-17.9v32.11c0,3.97-.54,6.97-1.66,9.15-1.15,2.35-3.06,3.95-5.41,4.54ZM193.52,50.2h.32l-.99-2.4c-.06-.1-.11-.2-.16-.29h-.31l1.06,2.49c.03.07.06.14.09.2ZM185.23,25.8h0,0ZM192.39,25.41h1.36v-.73h-1.36v.73Z"/><path class="cls-3" d="M63.87,69.74h-7.91c-7.63,0-14.43-2.82-20.24-8.4-5.84,5.58-12.54,8.4-19.94,8.4H7.09c-.09,0-.18,0-.27-.01-1.64-.15-2.74-.85-3.42-1.36-.11-.08-.22-.18-.32-.28-1.05-1.05-1.58-2.37-1.58-3.94v-9.38c0-1.57.53-2.89,1.58-3.94.1-.1.21-.19.32-.28.68-.51,1.78-1.21,3.42-1.36.09,0,.18-.01.27-.01h8.68c2.38,0,4.52-.82,6.54-2.52,1.85-1.64,2.78-4.09,2.78-7.43v-4.63H7.02c-1.39,0-2.63-.5-3.8-1.51-.05-.04-.1-.09-.14-.14-1.05-1.05-1.58-2.37-1.58-3.94v-8.33c0-1.45.5-2.79,1.44-3.87.04-.05.09-.1.13-.14,1.05-1.05,2.24-1.64,3.64-1.78.1,0,.2-.01.3-.01h18.07v-7.08c0-1.52.55-2.85,1.65-3.94,1.04-1.05,2.42-1.58,4.08-1.58h9.59c2.05,0,3.34.8,4.08,1.51,1.14,1.04,1.72,2.38,1.72,4.01v7.08h18.14c.09,0,.18,0,.27.01,1.46.13,2.68.71,3.74,1.78.05.05.09.09.13.14.94,1.08,1.44,2.42,1.44,3.87v8.33c0,1.57-.53,2.89-1.58,3.94-.05.05-.09.09-.14.14-1.16,1.02-2.43,1.51-3.87,1.51h-18.14v4.63c0,3.34.93,5.79,2.84,7.49,1.96,1.64,4.24,2.46,6.9,2.46h7.91c1.57,0,2.97.54,4.16,1.6.04.04.09.08.13.12,1.13,1.12,1.72,2.58,1.72,4.22v8.61c0,2.37-1.01,3.75-1.86,4.5-.04.04-.09.08-.14.11-1.2.93-2.55,1.4-4.01,1.4ZM35.72,54.01h0c.86,0,1.67.37,2.24,1.02,5.16,5.86,11.04,8.71,17.98,8.71h7.92v-8.56h-7.92c-4.07,0-7.71-1.32-10.82-3.93-3.29-2.92-4.92-6.95-4.92-12.03v-7.63c0-1.66,1.34-3,3-3h20.73v-7.72s-20.73,0-20.73,0c-1.66,0-3-1.34-3-3v-9.6h-9.12v9.6c0,1.66-1.34,3-3,3H7.5v7.72s20.59,0,20.59,0c1.66,0,3,1.34,3,3v7.63c0,5.08-1.63,9.11-4.86,11.97-3.17,2.66-6.67,3.98-10.46,3.98H7.5v8.56s8.27,0,8.27,0c6.68,0,12.48-2.85,17.71-8.73.57-.64,1.38-1,2.24-1Z"/><path class="cls-3" d="M84.78,69.81h-3.57c-1.66,0-3.14-.56-4.16-1.58-1.04-1.04-1.57-2.46-1.57-4.22V8.14c0-1.76.53-3.18,1.58-4.23.68-.68,1.96-1.5,4.15-1.5h15.54c1.55,0,2.85.4,3.87,1.2,0,0,.02-.01.02-.02,1.25-1.04,2.95-1.18,4.44-1.18h32.76c1.31,0,2.97.13,4.23,1.18.14.12.27.25.39.39.84,1.01,1.25,2.38,1.25,4.16v7.21c0,2.01-.78,3.21-1.44,3.87-.06.06-.13.13-.2.18-1.26,1.05-2.92,1.18-4.23,1.18h-24.09v1.49h23.18c2.04,0,3.58.56,4.57,1.65.74.76,1.58,2.09,1.58,4.15-.07,8.15-2.18,15.38-6.3,21.56.75.33,1.48.58,2.22.74,1.6.17,2.87.79,3.79,1.86.98,1.12,1.49,2.47,1.49,3.98v7.28c0,2.12-.43,3.61-1.35,4.68-.05.06-.1.11-.16.17-.74.75-2.12,1.6-4.44,1.43-3.9-.29-7.92-2.3-12.24-6.13-3.67,3.8-7.89,5.86-12.57,6.14-1.7.13-3.27-.37-4.33-1.43-.05-.05-.11-.11-.16-.17-.42-.49-.73-1.05-.95-1.73-.04.03-.09.06-.13.09-3.27,2.15-6.18,3.12-8.91,2.96-.97,0-3.03-.05-4.43-1.68-1.08-1.29-1.21-2.88-1.21-4.12v-4.7h-2.89v5.19c0,1.57-.49,2.97-1.42,4.06-.1.11-.2.22-.32.32-1.1.95-2.44,1.43-3.99,1.43ZM81.48,63.81h3.03v-7.99c0-1.66,1.34-3,3-3h8.89s.1,0,.15,0v-23.41h-1.76c-.99,0-1.91-.48-2.47-1.29-.56-.81-.69-1.84-.34-2.77l4.34-11.48s.15-.42.23-1.49v-3.97h-15.07v55.4ZM113.69,56.13v7.17c0,.09,0,.17,0,.25,3.68-.39,6.88-2.45,9.8-6.27.53-.69,1.33-1.12,2.2-1.17.86-.06,1.71.27,2.32.89,3.88,3.93,7.33,6.14,10.26,6.55,0-.08,0-.16,0-.24v-7.16c-.11-.01-.23-.03-.34-.05-2.47-.51-4.85-1.58-7.27-3.28-.68-.48-1.14-1.22-1.25-2.04-.12-.82.12-1.66.64-2.31,4.62-5.7,6.92-12.37,7.03-20.38-.05,0-.1,0-.15,0h-26.18c-1.66,0-3-1.34-3-3v-7.49c0-1.66,1.34-3,3-3h26.96v-6.18h-32.57v39.77c0,2.54-.24,4.1-.84,5.39-.93,1.87-2.57,2.98-4.52,3.13-.13,0-.25.01-.38,0v6.62c1.36.07,3.17-.61,5.22-1.97,2.14-1.44,2.88-5.34,3.13-8.39v-16.54c0-1.66,1.34-3,3-3h1.68c1.3,0,2.45.84,2.85,2.07,1.68,5.18,3.84,9.44,6.6,13.03.84,1.1.82,2.64-.05,3.72-1.65,2.03-4.36,3.34-8.06,3.88-.03,0-.06,0-.09.01ZM113.76,47.05v2.99c.58-.12,1.1-.26,1.55-.42-.54-.83-1.06-1.68-1.55-2.57ZM137.04,27.74s0,0,0,0c0,0,0,0,0,0ZM99,23.79c.05.02.1.04.15.06v-.45l-.15.4ZM89.12,47.61h-1.61c-1.66,0-3-1.34-3-3v-7c0-1.66,1.34-3,3-3h3.01c1.66,0,3,1.34,3,3v5.67c0,2.55-1.81,4.33-4.4,4.33ZM125.88,46.77c-.94,0-1.82-.44-2.39-1.18-2.45-3.21-4.04-5.88-4.85-8.16-.33-.92-.19-1.94.37-2.74.56-.8,1.48-1.27,2.45-1.27h8.89c.98,0,1.89.47,2.45,1.27.56.8.7,1.82.37,2.74-.78,2.19-2.35,4.78-4.92,8.16-.57.75-1.45,1.18-2.39,1.18ZM87.52,26.26c-.18,0-.36-.02-.54-.05-1.42-.26-2.46-1.5-2.46-2.95v-6.65c0-1.66,1.34-3,3-3h2.52c.99,0,1.91.48,2.47,1.3.56.81.69,1.85.34,2.77l-2.52,6.65c-.45,1.18-1.58,1.94-2.8,1.94Z"/><path class="cls-3" d="M154.7,69.95c-.11,0-.21,0-.32,0h0c-1.32,0-2.66-.51-3.73-1.42-.06-.05-.11-.1-.17-.16-1.09-1.09-1.65-2.42-1.65-3.94v-6.65c0-1.52.55-2.85,1.65-3.94.05-.05.11-.11.17-.16.97-.84,2.18-1.35,3.47-1.48.05,0,.1,0,.16-.01.25-.01.45-.02.73-.6.02-.03.03-.07.05-.1.25-.49.85-2.02.85-5.75V12.34c0-1.7.17-3.45,1.44-4.71,1.01-1.01,2.46-1.51,4.43-1.51h16.64c.22-1.06.77-2.06,1.61-2.9,1.12-1.12,2.61-1.72,4.29-1.72h8.05c1.6,0,3.04.57,4.15,1.65.89.81,1.47,1.83,1.69,2.97h14.53c2.01,0,3.49.49,4.5,1.51,1.35,1.35,1.51,3.34,1.51,4.71v4.9c0,1.76-.44,3.13-1.35,4.19-1.36,1.58-3.42,1.73-4.39,1.75.04.49.02.93,0,1.23v2.58c1.4.17,2.47.65,3.25,1.43,1.35,1.35,1.51,3.34,1.51,4.71v3.64c0,1.78-.46,3.21-1.35,4.26-.05.06-.1.12-.16.17-.79.79-1.9,1.29-3.25,1.49v19.56c0,2.62-.54,4.46-1.65,5.62-1.19,1.3-3,1.93-5.55,1.93h-8.89c-3.61,0-5.94-2.3-5.94-5.87v-3.92c0-.88.14-1.68.4-2.39-1.03-.14-2.35-.55-3.22-1.74-.39-.49-.77-1.13-1.19-1.99v10.19c0,1.61-.64,3.04-1.85,4.15-1.09,1.05-2.48,1.58-4.16,1.58h-5.67c-1.82,0-3.25-.54-4.36-1.65-.05-.05-.09-.1-.14-.15-.92-1.05-1.45-2.28-1.57-3.67,0-.09-.01-.18-.01-.27v-1.09c-.37.46-.76.9-1.18,1.32-3.75,3.75-8.23,5.64-13.33,5.64ZM154.84,58.17v5.78c3.46-.04,6.38-1.32,8.95-3.88s3.88-6.78,3.88-12.51c0-1.66,1.34-3,3-3h1.54c1.66,0,3,1.34,3,3v16.25s.05,0,.08,0h5.68v-19.89c0-.68.23-1.34.66-1.87.85-1.07,1.5-2.17,1.91-3.29.43-1.18,1.56-1.96,2.81-1.96h11.9c1.66,0,3,1.34,3,3v9.31c0,1.18-.69,2.23-1.72,2.71.17.08.32.17.47.28.76.57,1.25,1.44,1.25,2.39v2.59c0,1.66-1.34,3-3,3h-1.27v3.73h8.83c.54,0,.88-.04,1.09-.08.05-.26.11-.73.11-1.47v-22.47c0-1.66,1.34-3,3-3h1.68s.05,0,.08,0h0v-3.65c0-.08,0-.15,0-.22h-1.76c-1.66,0-3-1.34-3-3v-5.33h-5.61c-.05,0-.1,0-.15,0v5.33c0,1.66-1.34,3-3,3h-10.36c-1.66,0-3-1.34-3-3v-5.61h-5.76v6.66c0,1.84-.3,3.73-.9,5.62-.8,2.83-3.1,4.53-6.17,4.53h-1.4c-1.66,0-3-1.34-3-3v-17.92c0-1.66,1.34-3,3-3h42.08v-4.84c0-.08,0-.15,0-.22h-17.44c-1.66,0-3-1.34-3-3v-1.62h-7.99s0,0-.01,0v1.62c0,1.66-1.34,3-3,3h-19.4c0,.07,0,.14,0,.22v33.39c0,3.74-.49,6.51-1.5,8.48-1.14,2.35-3.11,3.74-5.57,3.95ZM154.43,63.95h.01-.01ZM192.95,52.27s.07.1.09.13c-.03-.05-.06-.09-.09-.13ZM192.58,51.7h4.17c-.56-.32-1.02-.82-1.28-1.46l-1.28-3.08c-.28-.52-.5-.9-.66-1.16-.04,0-.09,0-.14,0-.06,0-.13,0-.19,0h-3.11l1.95,4.58c.23.51.4.87.53,1.11ZM190.89,26.91h4.36v-2.6c0-.25,0-.65.06-1.13h-4.51c.06.32.09.66.09.99v2.74ZM185.23,24.3h0,0Z"/><path class="cls-2" d="M42.44,5.97c.56.49.77,1.05.77,1.82v10.08h21.14c.77.07,1.33.35,1.89.91.49.56.7,1.19.7,1.89v8.33c0,.77-.21,1.33-.7,1.82-.56.49-1.12.77-1.89.77h-21.14v7.63c0,4.27,1.33,7.49,3.85,9.73,2.59,2.17,5.53,3.22,8.89,3.22h7.91c.84,0,1.54.28,2.17.84.56.56.84,1.26.84,2.1v8.61c0,.98-.28,1.75-.84,2.24-.63.49-1.33.77-2.17.77h-7.91c-7.84,0-14.56-3.29-20.23-9.73-5.74,6.44-12.39,9.73-19.95,9.73H7.09c-.77-.07-1.33-.35-1.89-.77-.49-.49-.7-1.05-.7-1.82v-9.38c0-.77.21-1.33.7-1.82.56-.42,1.12-.7,1.89-.77h8.68c3.08,0,5.88-1.05,8.47-3.22,2.52-2.24,3.85-5.46,3.85-9.73v-7.63H7.02c-.7,0-1.26-.28-1.82-.77-.49-.49-.7-1.05-.7-1.82v-8.33c0-.7.21-1.33.7-1.89.56-.56,1.12-.84,1.82-.91h21.07V7.79c0-.77.28-1.33.77-1.82.49-.49,1.12-.7,1.96-.7h9.59c.84,0,1.54.21,2.03.7Z"/><path class="cls-2" d="M132.39,50.36c2.1,1.47,4.13,2.38,6.16,2.8.91.07,1.54.35,1.96.84.49.56.77,1.19.77,2.03v7.28c0,1.33-.21,2.24-.63,2.73-.42.42-1.12.63-2.1.56-3.78-.28-7.98-2.73-12.67-7.49-3.64,4.76-7.77,7.21-12.53,7.49-.91.07-1.61-.14-2.03-.56-.42-.49-.63-1.4-.63-2.73v-7.28c0-.84.28-1.47.7-2.03.42-.49,1.05-.77,1.96-.84,2.87-.42,4.97-1.33,6.16-2.8-3.01-3.92-5.32-8.54-7.07-13.93h-1.68v16.66c-.42,5.46-1.89,9.03-4.48,10.78-2.66,1.75-5.04,2.59-7.14,2.45-1.12,0-1.82-.14-2.24-.63-.35-.42-.49-1.12-.49-2.17v-7.7h-8.89v8.19c0,.91-.28,1.61-.7,2.1-.49.42-1.12.7-2.03.7h-3.57c-.91,0-1.61-.28-2.03-.7-.49-.49-.7-1.19-.7-2.1V8.14c0-.91.21-1.61.7-2.1.42-.42,1.12-.63,2.03-.63h15.54c.91,0,1.61.21,2.1.63.42.49.7,1.19.7,2.1v4.34c-.07,1.05-.21,1.89-.42,2.45l-4.34,11.48h1.96c.91,0,1.61.28,2.1.7.42.49.7,1.12.7,2.03v24.57c.91-.07,1.61-.56,2.03-1.4.42-.91.56-2.24.56-4.13V8.14c-.14-1.12.07-1.82.42-2.24.42-.35,1.26-.49,2.52-.49h32.76c1.12,0,1.89.14,2.31.49.35.42.56,1.12.56,2.24v7.21c0,.84-.21,1.4-.56,1.75-.42.35-1.19.49-2.31.49h-27.09v7.49h26.18c1.12,0,1.96.21,2.38.7.49.49.77,1.19.77,2.1-.07,8.68-2.59,16.17-7.7,22.47ZM87.51,16.61v6.65l2.52-6.65h-2.52ZM87.51,44.61h1.61c.91,0,1.4-.42,1.4-1.33v-5.67h-3.01v7ZM130.36,36.42h-8.89c.7,1.96,2.17,4.41,4.41,7.35,2.24-2.94,3.78-5.39,4.48-7.35Z"/><path class="cls-2" d="M185.23,21.3c.7,0,1.33.28,1.82.91.56.56.84,1.26.84,1.96v5.74h10.36v-5.6c0-1.12.21-1.82.7-2.17.42-.35,1.26-.56,2.45-.56h5.53c1.26,0,2.1.21,2.59.56.42.35.56,1.05.49,2.17v5.6h1.68c1.19,0,2.03.21,2.45.63s.63,1.26.63,2.59v3.64c0,1.05-.21,1.82-.63,2.31-.42.42-1.26.7-2.45.7h-1.68v22.47c0,1.75-.28,3.01-.84,3.57-.56.63-1.61.98-3.36.98h-8.89c-1.96,0-2.94-.98-2.94-2.87v-3.92c0-1.96.98-2.94,2.94-2.94h1.33v-2.59c-.42.14-.98.21-1.54.21h-4.06c-1.12,0-1.82-.21-2.1-.63-.35-.42-.77-1.19-1.26-2.31l-2.59-6.09c-.42-.77-.35-1.4.14-1.96.56-.49,1.4-.77,2.59-.7h3.78c1.12-.07,1.89.07,2.24.49.35.42.84,1.19,1.47,2.38l1.33,3.22v-9.31h-11.9c-.49,1.33-1.26,2.73-2.38,4.13v20.16c0,.77-.28,1.4-.91,1.96-.56.56-1.26.77-2.1.77h-5.67c-.98,0-1.68-.21-2.24-.77-.49-.56-.77-1.19-.84-1.96v-16.52h-1.54c0,6.58-1.61,11.48-4.76,14.63s-7.07,4.83-11.48,4.76c-.7,0-1.33-.28-1.82-.7-.49-.49-.77-1.05-.77-1.82v-6.65c0-.77.28-1.33.77-1.82.49-.42,1.12-.7,1.82-.77,1.47-.07,2.59-.84,3.29-2.31.77-1.47,1.19-3.85,1.19-7.14V12.34c0-1.33.14-2.17.56-2.59s1.19-.63,2.31-.63h19.53v-1.96c0-.7.35-1.33.84-1.82.56-.56,1.26-.84,2.17-.84h8.05c.84,0,1.54.28,2.1.84.56.49.84,1.12.84,1.82v1.96h17.43c1.19,0,1.96.21,2.38.63s.63,1.26.63,2.59v4.9c0,1.05-.21,1.75-.63,2.24-.42.49-1.19.7-2.38.7h-42.07v17.92h1.4c1.75,0,2.87-.84,3.29-2.38.49-1.54.77-3.15.77-4.76v-6.79c0-.7.21-1.4.7-1.96.56-.63,1.12-.91,1.89-.91h6.51Z"/></g></svg>