<?xml version="1.0" encoding="UTF-8"?><svg id="_レイヤー_2" xmlns="http://www.w3.org/2000/svg" viewBox="0 0 217.58 71.45"><defs><style>.cls-1,.cls-2,.cls-3{stroke-width:0px;}.cls-2{fill:#198caa;}.cls-3{fill:#fff;}</style></defs><g id="_レイヤー_4"><path class="cls-1" d="M17.94,62.26c-3.15,3.15-6.79,4.76-10.85,4.69-.77,0-1.33-.28-1.89-.7-.49-.49-.7-1.05-.7-1.82v-6.65c0-.77.21-1.33.7-1.82.56-.42,1.12-.7,1.89-.77,1.47-.07,2.38-.84,2.87-2.31s.7-3.85.7-7.14V12.9c0-1.33.21-2.17.63-2.59s1.19-.63,2.31-.63h19.81v-2.52c0-.7.28-1.33.84-1.82.49-.56,1.26-.84,2.17-.84h6.93c.84,0,1.54.28,2.1.84.56.49.84,1.12.84,1.82v2.52h16.87c1.19,0,2.03.21,2.45.63s.56,1.26.56,2.59v5.46c0,.98-.14,1.75-.56,2.24s-1.26.7-2.45.7H22.77v26.04c0,6.72-1.61,11.69-4.83,14.91ZM34.18,27.18c.56-1.33,1.12-2.24,1.54-2.66.49-.49,1.61-.7,3.43-.7h6.23c1.26,0,2.03.28,2.24.77.14.49,0,1.33-.42,2.38l-9.45,26.6h12.04l-3.99-11.34c-.42-1.12-.56-1.89-.35-2.38s.98-.7,2.31-.7h6.3c1.68,0,2.8.21,3.29.63s.98,1.33,1.54,2.59l7.14,20.16c.28,1.12.28,1.89.07,2.38-.28.42-.98.63-1.96.63H23.47c-.98,0-1.61-.21-1.89-.63-.21-.49-.21-1.26.07-2.38l12.53-35.35Z"/><path class="cls-1" d="M118.68,64.78h-39.06c-.77,0-1.33-.14-1.68-.49-.42-.35-.56-.84-.56-1.47v-13.37c0-.84.21-1.47.63-1.89.42-.49,1.05-.77,1.89-.98h3.57V11.92c0-.63.14-1.19.56-1.47.35-.35.98-.49,1.82-.49h11.76l1.47-2.8c.49-.98.98-1.61,1.47-1.96.42-.35,1.12-.49,2.03-.49h9.45c1.05,0,1.89.28,2.31.77.49.49.35,1.26-.28,2.24l-1.33,2.24h20.58c.84,0,1.47.14,1.82.49.42.28.63.84.63,1.47v17.99c0,.77-.21,1.26-.63,1.61-.35.35-.98.49-1.82.49h-35.98v1.82h40.67c.7,0,1.19.21,1.54.63.35.42.49,1.33.49,2.73s-.14,2.38-.49,2.73c-.35.42-.84.56-1.54.56h-40.67v1.89h35.56c2.24,0,3.78.42,4.76,1.33.98.91,1.47,2.52,1.47,4.83v12.95c0,2.1-.56,3.43-1.54,4.2-1.05.7-2.59,1.12-4.69,1.12h-9.87c-.63,0-1.19-.28-1.68-.7-.49-.49-.77-1.05-.84-1.82-.35.35-.98.49-1.82.49ZM92.5,55.68v-5.88h-2.73v5.88h2.73ZM123.72,16.05h-26.39v1.89h26.39v-1.89ZM123.72,24.03h-26.39v1.89h26.39v-1.89ZM106.01,55.68h2.66v-5.88h-2.66v5.88ZM123.09,56.66h1.89c1.26.07,1.89-.84,1.89-2.59v-2.73c-.21-.91-.91-1.4-1.96-1.54h-3.85v7.63c.21-.28.42-.42.7-.49.35-.14.77-.21,1.33-.28Z"/><path class="cls-1" d="M170.03,50.71c.7.07,1.33.28,1.75.77.49.49.77,1.12.77,1.82v5.81c0,2.45-.63,4.34-1.96,5.6-1.33,1.26-3.5,2.03-6.51,2.1h-10.22c-.84,0-1.54-.28-2.03-.77s-.7-1.05-.7-1.75v-3.85c0-.7.21-1.26.7-1.75s1.19-.77,2.03-.77h5.39c.84,0,1.47-.28,1.96-.77.49-.49.77-1.19.77-2.03v-1.82c0-.7.28-1.33.77-1.82.49-.49,1.12-.7,1.82-.77h5.46ZM188.09,49.23v15.26c0,.7-.21,1.26-.56,1.61-.42.35-.98.56-1.61.56h-7.7c-.63,0-1.26-.21-1.68-.56-.49-.35-.7-.91-.7-1.61v-15.26h-21.63c-.98,0-1.68-.35-2.17-.91-.56-.56-.84-1.19-.84-1.96V12.62c0-.7.28-1.26.84-1.82.49-.56,1.19-.84,2.17-.84h6.37c.84,0,1.54.28,2.1.84s.84,1.12.84,1.82v27.72h46.69c1.12,0,1.89.14,2.31.56.35.42.56,1.33.56,2.59v2.8c0,.98-.21,1.68-.56,2.17-.42.49-1.19.77-2.31.77h-22.12ZM209.02,5.97c.35.42.56.91.56,1.68v29.05c0,.7-.21,1.26-.56,1.61-.35.35-.84.49-1.61.49h-39.41c-.77,0-1.26-.14-1.61-.49-.35-.35-.49-.91-.49-1.61V7.65c0-.77.14-1.26.49-1.68.35-.35.84-.49,1.61-.49h39.41c.77,0,1.26.14,1.61.49ZM197.26,12.13h-19.11v2.17h19.11v-2.17ZM197.26,20.88h-19.11v2.17h19.11v-2.17ZM197.26,29.56h-19.11v2.31h19.11v-2.31ZM201.11,51.47c.49.49.77,1.12.77,1.82v1.82c0,.84.28,1.54.77,2.03.49.49,1.19.77,1.96.77h5.39c.84,0,1.54.28,2.03.77.49.49.7,1.05.7,1.75v3.85c0,.7-.21,1.26-.7,1.75-.49.49-1.19.77-2.03.77h-10.22c-3.01-.07-5.18-.84-6.51-2.1-1.33-1.26-1.96-3.15-1.96-5.6v-5.81c0-.7.28-1.33.77-1.82.42-.49,1.05-.7,1.75-.77h5.46c.7.07,1.33.28,1.82.77Z"/><path class="cls-2" d="M7.33,71.45c-.11,0-.21,0-.32,0h0c-1.58,0-3.08-.52-4.51-1.6-.17-.13-.33-.27-.48-.42-1.34-1.34-2.02-3.02-2.02-5v-6.65c0-1.98.68-3.66,2.02-5,.15-.15.31-.29.48-.42,1.05-.79,2.15-1.29,3.34-1.53.16-.84.32-2.35.32-5.09V12.9c0-1.64.2-4.03,1.95-5.77,1.29-1.29,3.14-1.95,5.49-1.95h15.6c.34-1.14.98-2.18,1.88-3.03,1.33-1.39,3.22-2.15,5.34-2.15h6.93c1.99,0,3.78.71,5.18,2.05.95.87,1.63,1.94,1.98,3.13h12.66c2.48,0,4.32.64,5.63,1.95,1.66,1.66,1.88,3.85,1.88,5.77v5.46c0,.8,0,3.25-1.64,5.17-1.95,2.27-4.9,2.27-5.87,2.27h-11.03c-.09.85-.33,1.77-.72,2.75l-2.17,6.1h4.81c2.92,0,4.84.53,6.22,1.71,1.16.99,1.93,2.39,2.72,4.18.05.11.09.22.13.33l7.14,20.16c.05.14.09.27.12.41.52,2.07.47,3.79-.16,5.24-.11.25-.24.5-.39.73-.8,1.2-2.44,2.63-5.7,2.63H23.47c-2.77,0-4.36-1.07-5.26-2.14-3.29,2.33-6.99,3.54-10.88,3.54ZM7.09,62.45s.03,0,.04,0c-.01,0-.03,0-.04,0ZM9,59.43v2.87c2.08-.37,3.97-1.44,5.76-3.22,2.33-2.33,3.51-6.28,3.51-11.73v-26.04c0-2.49,2.01-4.5,4.5-4.5h38.9v-2.62h-15.38c-2.49,0-4.5-2.01-4.5-4.5v-.68h-3.88v.68c0,2.49-2.01,4.5-4.5,4.5H15.16v31.55c0,3.99-.29,6.63-.93,8.56-.89,2.68-2.76,4.48-5.23,5.13ZM26.95,61.04h33.78s-6.02-17-6.02-17c-.07-.15-.12-.27-.18-.39-.14,0-.29,0-.47,0h-2.99l2.97,8.43c.48,1.38.27,2.9-.57,4.09-.84,1.19-2.21,1.9-3.67,1.9h-12.04c-1.46,0-2.83-.71-3.68-1.9-.84-1.19-1.05-2.72-.56-4.1l8.44-23.75h-2.8c-.21,0-.4,0-.55,0-.07.14-.14.3-.22.49l-11.42,32.23ZM27.27,25.8v7.41l2.62-7.41h-2.62Z"/><path class="cls-2" d="M132.89,71.31h-9.87c-1.66,0-3.25-.62-4.62-1.79-.08-.07-.17-.15-.24-.23,0,0-.01-.01-.02-.02h-38.53c-1.95,0-3.53-.56-4.71-1.66-.96-.85-2.03-2.35-2.03-4.8v-13.37c0-2.46.96-4.03,1.82-4.94,1.31-1.46,2.96-2.01,4.1-2.29.05-.01.11-.03.17-.04V11.92c0-2.67,1.23-4.17,2.18-4.94,1.17-1.01,2.75-1.52,4.7-1.52h9.04l.21-.39c.74-1.49,1.64-2.64,2.71-3.44,1.22-.96,2.78-1.42,4.77-1.42h9.45c2.34,0,4.33.79,5.62,2.22.71.76,1.26,1.8,1.43,3.03h14.23c1.93,0,3.5.5,4.67,1.5,1.46,1.14,2.28,2.92,2.28,4.96v17.78c1.07.37,2.01,1,2.74,1.88,1.35,1.62,1.54,3.75,1.54,5.61,0,2.06-.21,4.18-1.65,5.75-.07.08-.15.16-.22.24.64,1.49.97,3.27.97,5.35v12.95c0,3.44-1.1,6.04-3.26,7.74-.09.07-.18.14-.28.2-1.87,1.25-4.29,1.88-7.19,1.88ZM124.54,62.31h8.35c.81,0,1.35-.09,1.7-.18.02-.16.04-.37.04-.65v-12.95c0-.79-.08-1.26-.14-1.52-.25-.06-.75-.15-1.59-.15h-3.73c1.04.86,1.77,2.04,2.09,3.45.08.33.12.67.12,1.01v2.73c0,2.33-.7,4.16-2.07,5.46-1.17,1.11-2.74,1.69-4.41,1.63h-1.16c.33.34.6.73.81,1.15ZM117.32,61.1s0,0,0,0c0,0,0,0,0,0ZM81.88,60.27h35.7c-.64-.78-1.02-1.78-1.02-2.85v-7.63c0-1.12.41-2.14,1.08-2.92h-5.55c.67.79,1.08,1.81,1.08,2.92v5.88c0,2.49-2.01,4.5-4.5,4.5h-2.66c-2.49,0-4.5-2.01-4.5-4.5v-5.88c0-1.12.41-2.14,1.08-2.92h-5.26c-.62,0-1.2-.12-1.74-.35.87.82,1.41,1.98,1.41,3.27v5.88c0,2.49-2.01,4.5-4.5,4.5h-2.73c-2.49,0-4.5-2.01-4.5-4.5v-4.98c-.55.24-1.16.38-1.8.38h-1.59v9.2ZM87.97,14.46v31.21c.55-.24,1.16-.38,1.8-.38h2.73c.62,0,1.2.12,1.74.35-.87-.82-1.41-1.98-1.41-3.27v-1.89c0-1.32.57-2.5,1.47-3.33-.9-.82-1.47-2.01-1.47-3.33v-1.82c0-1.17.45-2.24,1.19-3.05-.74-.8-1.19-1.87-1.19-3.05v-1.89c0-1.17.45-2.24,1.19-3.04-.74-.8-1.19-1.87-1.19-3.04v-1.89c0-.56.1-1.1.29-1.59h-5.15ZM127.93,27.51h3.33v-13.05h-3.33c.19.49.29,1.03.29,1.59v1.89c0,1.17-.45,2.24-1.19,3.04.74.8,1.19,1.87,1.19,3.04v1.89c0,.56-.1,1.1-.29,1.59ZM101.86,11.55h6.66c-.28-.75-.36-1.56-.23-2.34h-5.21s-1.23,2.34-1.23,2.34Z"/><path class="cls-2" d="M210,71.31h-10.22s-.07,0-.11,0c-3.51-.08-6.37-.93-8.52-2.51-.14.17-.29.34-.44.49-.09.09-.19.18-.29.27-1.24,1.04-2.84,1.61-4.5,1.61h-7.7c-1.62,0-3.22-.54-4.43-1.5-.37-.28-.7-.6-1-.94-2.16,1.63-5.05,2.5-8.61,2.58-.04,0-.07,0-.11,0h-10.22c-2.01,0-3.87-.74-5.21-2.09-1.32-1.32-2.02-3.03-2.02-4.93v-3.85c0-1.91.7-3.61,2.02-4.93,1.03-1.03,2.34-1.7,3.8-1.96-1.44-.33-2.71-1.06-3.7-2.14-1.35-1.4-2.06-3.13-2.06-5.04V12.62c0-1.84.69-3.49,2.06-4.9.97-1.06,2.68-2.26,5.45-2.26h6.37c.37,0,.73.02,1.08.07.25-.91.67-1.72,1.27-2.44.09-.1.18-.2.27-.3,1.2-1.2,2.81-1.81,4.8-1.81h39.41c1.99,0,3.6.61,4.8,1.82.09.09.18.19.26.29,1.07,1.28,1.61,2.81,1.61,4.56v28.93c.56.27,1.12.64,1.62,1.14.1.1.19.19.27.3,1.08,1.29,1.61,3.08,1.61,5.47v2.8c0,1.88-.47,3.49-1.4,4.79-.08.11-.16.21-.24.31-.75.87-2.04,1.88-4.17,2.22,1.32.3,2.5.95,3.44,1.89,1.32,1.32,2.02,3.03,2.02,4.93v3.85c0,1.9-.7,3.61-2.01,4.93-1.35,1.35-3.2,2.09-5.22,2.09ZM199.84,62.31h3.48c-1.47-.25-2.8-.93-3.85-1.98-1.32-1.32-2.06-3.13-2.08-5.12h-1.57v3.9c0,1.15.2,2,.56,2.34.14.13.97.8,3.47.86ZM160.57,62.31h3.46c2.5-.07,3.33-.73,3.47-.87.35-.33.55-1.19.55-2.33v-3.9h-1.57c-.02,1.98-.76,3.8-2.09,5.13-1.05,1.05-2.36,1.72-3.82,1.97ZM180.34,62.17h3.25v-12.93c0-2.15,1.5-3.94,3.51-4.39h-10.27c2.01.45,3.51,2.25,3.51,4.39v12.93ZM155.7,44.73h6.83c-2.01-.45-3.51-2.25-3.51-4.39V14.46h-3.32v30.27ZM201.05,34.3h4.03V9.98h-3.87c.35.64.55,1.37.55,2.15v2.17c0,1.3-.55,2.47-1.43,3.29.88.82,1.43,1.99,1.43,3.29v2.17c0,1.28-.53,2.44-1.39,3.25.86.82,1.39,1.97,1.39,3.25v2.31c0,.9-.26,1.73-.71,2.43ZM170.4,34.3h3.96c-.45-.7-.71-1.53-.71-2.43v-2.31c0-1.28.53-2.44,1.39-3.25-.86-.82-1.39-1.97-1.39-3.25v-2.17c0-1.3.55-2.47,1.43-3.29-.88-.82-1.43-1.99-1.43-3.29v-2.17c0-.78.2-1.51.55-2.15h-3.8v24.32ZM207.46,9.98h0,0Z"/><path class="cls-3" d="M7.34,69.95c-.1,0-.2,0-.3,0h0c-1.7,0-2.9-.74-3.64-1.3-.11-.08-.22-.18-.32-.28-1.05-1.05-1.58-2.37-1.58-3.94v-6.65c0-1.57.53-2.89,1.58-3.94.1-.1.21-.19.32-.28.68-.51,1.78-1.21,3.42-1.36.04,0,.09,0,.13,0,.02,0,.04,0,.06,0,.03-.05.06-.14.11-.26.25-.75.55-2.43.55-6.19V12.9c0-1.38.16-3.36,1.51-4.71,1.02-1.02,2.46-1.51,4.43-1.51h16.83c.12-1.33.71-2.54,1.7-3.47,1.05-1.1,2.56-1.71,4.29-1.71h6.93c1.6,0,3.04.57,4.15,1.65,1.03.94,1.65,2.17,1.77,3.53h13.89c2.06,0,3.56.49,4.57,1.51,1.26,1.26,1.44,3.01,1.44,4.71v5.46c0,1.16-.13,2.85-1.28,4.19-1.5,1.75-3.93,1.75-4.73,1.75h-12.54c.16,1.06-.04,2.28-.61,3.73l-2.89,8.14c.26-.01.48-.01.64-.01h6.3c2.54,0,4.15.42,5.24,1.35.95.81,1.62,2.04,2.33,3.65.03.07.06.14.09.22l7.14,20.16c.03.09.06.18.08.27.44,1.74.41,3.14-.08,4.29-.07.17-.16.33-.26.48-.6.9-1.86,1.97-4.46,1.97H23.47c-2.04,0-3.51-.66-4.38-1.96-.1-.16-.19-.32-.27-.49-.06-.14-.11-.28-.16-.43-3.36,2.84-7.16,4.28-11.32,4.28ZM7.5,58.16v5.78c3.1-.05,5.81-1.3,8.32-3.81,2.62-2.62,3.95-6.93,3.95-12.79v-26.04c0-1.66,1.34-3,3-3h40.4v-5.4c0-.08,0-.15,0-.22h-16.88c-1.66,0-3-1.34-3-3v-2.18h-6.87s0,0,0,0v2.18c0,1.66-1.34,3-3,3H13.66c0,.07,0,.14,0,.22v32.83c0,3.77-.27,6.34-.86,8.09-.86,2.59-2.74,4.12-5.3,4.34ZM24.83,62.55h38.03l-6.75-19.06c-.29-.65-.49-1.03-.62-1.25-.26-.04-.7-.08-1.42-.08h-5.11l3.67,10.42c.32.92.18,1.94-.38,2.73s-1.48,1.27-2.45,1.27h-12.04c-.97,0-1.89-.47-2.45-1.27-.56-.8-.7-1.82-.38-2.73l9.15-25.75h-4.92c-.77,0-1.23.04-1.49.08-.16.26-.4.71-.69,1.37l-12.15,34.28ZM17.94,62.26h0,0ZM42,50.57h3.55l-1.77-5.03-1.79,5.03ZM25.77,24.3v17.63l5.58-15.75c.02-.05.04-.11.06-.16.27-.64.54-1.21.82-1.72h-6.47ZM63.11,11.84h0s0,0,0,0Z"/><path class="cls-3" d="M132.89,69.81h-9.87c-.9,0-2.27-.25-3.64-1.43-.06-.05-.11-.1-.16-.15-.15-.15-.28-.3-.41-.45-.05,0-.09,0-.13,0h-39.06c-.59,0-2.34,0-3.7-1.27-1.02-.9-1.54-2.14-1.54-3.69v-13.37c0-1.99.76-3.22,1.42-3.93,1.04-1.17,2.42-1.62,3.37-1.85.24-.06.48-.09.73-.09h.57V11.92c0-2.09.94-3.22,1.64-3.78,1.35-1.18,3.13-1.18,3.74-1.18h9.95l.63-1.2c.65-1.31,1.41-2.29,2.3-2.95.95-.75,2.21-1.11,3.86-1.11h9.45c1.92,0,3.52.62,4.53,1.75.46.5,1.31,1.7,1,3.5h15.75c.6,0,2.37,0,3.72,1.16,1.1.85,1.73,2.22,1.73,3.79v17.99c0,.33-.02.65-.07.96,1.59.18,2.58.98,3.15,1.67,1.04,1.25,1.19,2.98,1.19,4.65s-.16,3.54-1.26,4.74c-.3.34-.64.63-1.01.85.92,1.44,1.36,3.34,1.36,5.75v12.95c0,2.95-.9,5.16-2.69,6.56-.06.05-.12.09-.19.13-1.62,1.08-3.75,1.63-6.36,1.63ZM123.46,63.81h9.43c1.62,0,2.48-.3,2.89-.53.15-.18.34-.71.34-1.79v-12.95c0-2.13-.51-2.63-.51-2.63-.13-.12-.73-.53-2.72-.53h-35.56c-1.66,0-3-1.34-3-3v-1.89c0-1.66,1.34-3,3-3h39.7c0-.09,0-.19,0-.29,0-.13,0-.25,0-.36h-39.7c-1.66,0-3-1.34-3-3v-1.82c0-1.66,1.34-3,3-3h35.43V12.96s-20.03,0-20.03,0c-1.08,0-2.07-.58-2.61-1.52-.53-.94-.52-2.09.03-3.02l.43-.72h-8c-.15,0-.27,0-.35.01-.09.11-.25.35-.46.78l-1.5,2.85c-.52.99-1.54,1.61-2.66,1.61h-11.14v33.61c0,1.66-1.34,3-3,3h-3.09v12.2h38.3c.08,0,.14,0,.19,0,.78-.51,1.76-.63,2.65-.31,1.03.37,1.77,1.27,1.94,2.34ZM118.38,62.16s0,0,0,0c0,0,0,0,0,0ZM80.13,49.67s0,0,0,0c0,0,0,0,0,0ZM102.47,7.5h0s0,0,0,0ZM121.06,60.43c-.32,0-.63-.05-.95-.15-1.23-.41-2.05-1.55-2.05-2.85v-7.63c0-1.66,1.34-3,3-3h3.85c.13,0,.27,0,.4.03,2.33.31,4,1.75,4.48,3.84.05.22.08.45.08.67v2.73c0,1.9-.54,3.37-1.6,4.37-.88.83-2.06,1.27-3.36,1.22h-1.63c-.11.01-.19.03-.26.04-.55.47-1.25.73-1.96.73ZM123.47,59.22s0,0,0,0c0,0,0,0,0,0ZM108.67,58.68h-2.66c-1.66,0-3-1.34-3-3v-5.88c0-1.66,1.34-3,3-3h2.66c1.66,0,3,1.34,3,3v5.88c0,1.66-1.34,3-3,3ZM92.5,58.68h-2.73c-1.66,0-3-1.34-3-3v-5.88c0-1.66,1.34-3,3-3h2.73c1.66,0,3,1.34,3,3v5.88c0,1.66-1.34,3-3,3ZM123.72,28.92h-26.39c-1.66,0-3-1.34-3-3v-1.89c0-1.66,1.34-3,3-3h26.39c1.66,0,3,1.34,3,3v1.89c0,1.66-1.34,3-3,3ZM123.72,20.94h-26.39c-1.66,0-3-1.34-3-3v-1.89c0-1.66,1.34-3,3-3h26.39c1.66,0,3,1.34,3,3v1.89c0,1.66-1.34,3-3,3Z"/><path class="cls-3" d="M210,69.81h-10.22c-3.76-.09-6.62-1.07-8.57-2.92-.15-.15-.3-.29-.44-.45-.24.69-.62,1.29-1.12,1.79-.06.06-.13.12-.2.18-.97.81-2.23,1.26-3.54,1.26h-7.7c-1.29,0-2.57-.43-3.52-1.19-.72-.54-1.24-1.26-1.55-2.11-.16.18-.33.35-.5.51-1.96,1.85-4.82,2.84-8.5,2.92h-10.29c-1.61,0-3.09-.58-4.15-1.65-1.05-1.05-1.58-2.35-1.58-3.87v-3.85c0-1.52.53-2.82,1.58-3.87,1.06-1.06,2.54-1.65,4.15-1.65h5.12v-1.62c0-.36.04-.71.11-1.06h-4.87c-1.75,0-3.26-.64-4.36-1.86-1.08-1.11-1.65-2.5-1.65-4.01V12.62c0-1.45.56-2.75,1.65-3.88.76-.83,2.12-1.79,4.36-1.79h6.37c.83,0,1.61.15,2.32.45.02-.92.21-2.19,1.18-3.36.06-.07.12-.14.18-.2,1.37-1.37,3.15-1.37,3.74-1.37h39.41c.59,0,2.37,0,3.74,1.38.06.06.12.13.18.19.85,1.01,1.26,2.19,1.26,3.6v29.05c0,.31-.02.6-.06.89.76.2,1.5.56,2.12,1.19.06.06.12.13.18.2.85,1.01,1.26,2.49,1.26,4.51v2.8c0,1.56-.38,2.88-1.12,3.92-.05.07-.11.14-.16.21-.71.83-2.08,1.82-4.59,1.82h-5.43c.07.35.1.7.1,1.06v1.62h5.12c1.61,0,3.09.59,4.15,1.65,1.05,1.05,1.58,2.35,1.58,3.87v3.85c0,1.52-.53,2.82-1.58,3.87-1.06,1.06-2.54,1.65-4.15,1.65ZM194.31,53.71v5.4c0,1.63.34,2.78,1.02,3.43.82.77,2.42,1.23,4.52,1.28h9.88v-2.89h-5.12c-1.57,0-3.02-.59-4.08-1.66-1.06-1.06-1.65-2.53-1.65-4.15v-1.41h-4.57ZM154.13,63.8h9.95c2.02-.04,3.63-.5,4.45-1.27.68-.64,1.02-1.8,1.02-3.42v-5.4h-4.57v1.41c0,1.62-.59,3.09-1.65,4.15-1.08,1.08-2.49,1.65-4.08,1.65h-5.12v2.88ZM178.84,63.67h6.25v-14.43c0-1.66,1.34-3,3-3h21.99v-2.74c0-.05,0-.1,0-.15h-46.56c-1.66,0-3-1.34-3-3V12.97h-6.31s0,0-.01,0v33.27h21.64c1.66,0,3,1.34,3,3v14.43ZM168.9,35.8h37.68V8.48s-37.68,0-37.68,0v27.32ZM207.6,8.49h0,0ZM197.26,34.87h-19.11c-1.66,0-3-1.34-3-3v-2.31c0-1.66,1.34-3,3-3h19.11c1.66,0,3,1.34,3,3v2.31c0,1.66-1.34,3-3,3ZM197.26,26.05h-19.11c-1.66,0-3-1.34-3-3v-2.17c0-1.66,1.34-3,3-3h19.11c1.66,0,3,1.34,3,3v2.17c0,1.66-1.34,3-3,3ZM197.26,17.3h-19.11c-1.66,0-3-1.34-3-3v-2.17c0-1.66,1.34-3,3-3h19.11c1.66,0,3,1.34,3,3v2.17c0,1.66-1.34,3-3,3Z"/><path class="cls-2" d="M17.94,62.26c-3.15,3.15-6.79,4.76-10.85,4.69-.77,0-1.33-.28-1.89-.7-.49-.49-.7-1.05-.7-1.82v-6.65c0-.77.21-1.33.7-1.82.56-.42,1.12-.7,1.89-.77,1.47-.07,2.38-.84,2.87-2.31s.7-3.85.7-7.14V12.9c0-1.33.21-2.17.63-2.59s1.19-.63,2.31-.63h19.81v-2.52c0-.7.28-1.33.84-1.82.49-.56,1.26-.84,2.17-.84h6.93c.84,0,1.54.28,2.1.84.56.49.84,1.12.84,1.82v2.52h16.87c1.19,0,2.03.21,2.45.63s.56,1.26.56,2.59v5.46c0,.98-.14,1.75-.56,2.24s-1.26.7-2.45.7H22.77v26.04c0,6.72-1.61,11.69-4.83,14.91ZM34.18,27.18c.56-1.33,1.12-2.24,1.54-2.66.49-.49,1.61-.7,3.43-.7h6.23c1.26,0,2.03.28,2.24.77.14.49,0,1.33-.42,2.38l-9.45,26.6h12.04l-3.99-11.34c-.42-1.12-.56-1.89-.35-2.38s.98-.7,2.31-.7h6.3c1.68,0,2.8.21,3.29.63s.98,1.33,1.54,2.59l7.14,20.16c.28,1.12.28,1.89.07,2.38-.28.42-.98.63-1.96.63H23.47c-.98,0-1.61-.21-1.89-.63-.21-.49-.21-1.26.07-2.38l12.53-35.35Z"/><path class="cls-2" d="M118.68,64.78h-39.06c-.77,0-1.33-.14-1.68-.49-.42-.35-.56-.84-.56-1.47v-13.37c0-.84.21-1.47.63-1.89.42-.49,1.05-.77,1.89-.98h3.57V11.92c0-.63.14-1.19.56-1.47.35-.35.98-.49,1.82-.49h11.76l1.47-2.8c.49-.98.98-1.61,1.47-1.96.42-.35,1.12-.49,2.03-.49h9.45c1.05,0,1.89.28,2.31.77.49.49.35,1.26-.28,2.24l-1.33,2.24h20.58c.84,0,1.47.14,1.82.49.42.28.63.84.63,1.47v17.99c0,.77-.21,1.26-.63,1.61-.35.35-.98.49-1.82.49h-35.98v1.82h40.67c.7,0,1.19.21,1.54.63.35.42.49,1.33.49,2.73s-.14,2.38-.49,2.73c-.35.42-.84.56-1.54.56h-40.67v1.89h35.56c2.24,0,3.78.42,4.76,1.33.98.91,1.47,2.52,1.47,4.83v12.95c0,2.1-.56,3.43-1.54,4.2-1.05.7-2.59,1.12-4.69,1.12h-9.87c-.63,0-1.19-.28-1.68-.7-.49-.49-.77-1.05-.84-1.82-.35.35-.98.49-1.82.49ZM92.5,55.68v-5.88h-2.73v5.88h2.73ZM123.72,16.05h-26.39v1.89h26.39v-1.89ZM123.72,24.03h-26.39v1.89h26.39v-1.89ZM106.01,55.68h2.66v-5.88h-2.66v5.88ZM123.09,56.66h1.89c1.26.07,1.89-.84,1.89-2.59v-2.73c-.21-.91-.91-1.4-1.96-1.54h-3.85v7.63c.21-.28.42-.42.7-.49.35-.14.77-.21,1.33-.28Z"/><path class="cls-2" d="M170.03,50.71c.7.07,1.33.28,1.75.77.49.49.77,1.12.77,1.82v5.81c0,2.45-.63,4.34-1.96,5.6-1.33,1.26-3.5,2.03-6.51,2.1h-10.22c-.84,0-1.54-.28-2.03-.77s-.7-1.05-.7-1.75v-3.85c0-.7.21-1.26.7-1.75s1.19-.77,2.03-.77h5.39c.84,0,1.47-.28,1.96-.77.49-.49.77-1.19.77-2.03v-1.82c0-.7.28-1.33.77-1.82.49-.49,1.12-.7,1.82-.77h5.46ZM188.09,49.23v15.26c0,.7-.21,1.26-.56,1.61-.42.35-.98.56-1.61.56h-7.7c-.63,0-1.26-.21-1.68-.56-.49-.35-.7-.91-.7-1.61v-15.26h-21.63c-.98,0-1.68-.35-2.17-.91-.56-.56-.84-1.19-.84-1.96V12.62c0-.7.28-1.26.84-1.82.49-.56,1.19-.84,2.17-.84h6.37c.84,0,1.54.28,2.1.84s.84,1.12.84,1.82v27.72h46.69c1.12,0,1.89.14,2.31.56.35.42.56,1.33.56,2.59v2.8c0,.98-.21,1.68-.56,2.17-.42.49-1.19.77-2.31.77h-22.12ZM209.02,5.97c.35.42.56.91.56,1.68v29.05c0,.7-.21,1.26-.56,1.61-.35.35-.84.49-1.61.49h-39.41c-.77,0-1.26-.14-1.61-.49-.35-.35-.49-.91-.49-1.61V7.65c0-.77.14-1.26.49-1.68.35-.35.84-.49,1.61-.49h39.41c.77,0,1.26.14,1.61.49ZM197.26,12.13h-19.11v2.17h19.11v-2.17ZM197.26,20.88h-19.11v2.17h19.11v-2.17ZM197.26,29.56h-19.11v2.31h19.11v-2.31ZM201.11,51.47c.49.49.77,1.12.77,1.82v1.82c0,.84.28,1.54.77,2.03.49.49,1.19.77,1.96.77h5.39c.84,0,1.54.28,2.03.77.49.49.7,1.05.7,1.75v3.85c0,.7-.21,1.26-.7,1.75-.49.49-1.19.77-2.03.77h-10.22c-3.01-.07-5.18-.84-6.51-2.1-1.33-1.26-1.96-3.15-1.96-5.6v-5.81c0-.7.28-1.33.77-1.82.42-.49,1.05-.7,1.75-.77h5.46c.7.07,1.33.28,1.82.77Z"/></g></svg>