<?xml version="1.0" encoding="UTF-8"?><svg id="_レイヤー_2" xmlns="http://www.w3.org/2000/svg" viewBox="0 0 219.41 70.75"><defs><style>.cls-1,.cls-2,.cls-3{stroke-width:0px;}.cls-2{fill:#198caa;}.cls-3{fill:#fff;}</style></defs><g id="_レイヤー_4"><path class="cls-1" d="M11.78,14.02v-6.86c.07-.7.35-1.33.84-1.89.56-.49,1.26-.77,2.17-.77h5.88c.84,0,1.47.28,1.96.77.56.56.84,1.19.98,1.89v6.86h3.85c.7.07,1.33.35,1.82.91.49.56.77,1.19.84,1.89v2.94c.07,7.07-1.33,13.09-4.2,17.99l1.75.84c1.19.63,1.96,1.12,2.31,1.47.42.42.56,1.12.56,2.24v5.88c0,.77-.21,1.47-.77,2.03-.63.56-1.33.77-2.1.7l-4.06-1.96v14.35c-.14.77-.42,1.4-.98,1.96-.49.56-1.12.84-1.96.84h-5.88c-.91,0-1.61-.28-2.17-.84-.49-.56-.77-1.19-.84-1.96v-14.14c-.77.49-1.82.77-3.08.84h-1.61c-.77-.07-1.33-.28-1.89-.77-.49-.42-.7-1.05-.7-1.75v-7.28c0-.7.21-1.26.7-1.75.56-.42,1.12-.7,1.89-.77h1.26c3.36,0,5.81-.98,7.49-3.01,1.61-2.03,2.59-4.76,2.94-8.19H7.02c-.7,0-1.26-.21-1.82-.7-.49-.49-.7-1.12-.7-1.82v-7.14c0-.7.21-1.33.7-1.89.56-.56,1.12-.84,1.82-.91h4.76ZM33.13,12.9c-.42-.49-.63-1.19-.63-2.17v-3.01c0-1.33.21-2.24.63-2.66.42-.35,1.12-.56,2.24-.56h28.35c1.19,0,2.03.21,2.45.56.35.42.56,1.33.56,2.66v3.01c0,.98-.21,1.68-.56,2.17-.42.49-1.26.77-2.45.77h-28.35c-1.12,0-1.82-.28-2.24-.77ZM65.83,15.98c.49.56.77,1.12.91,1.82v13.02c-.14.7-.42,1.33-.91,1.89s-1.19.84-2.03.84h-28.28c-.91,0-1.61-.28-2.17-.84-.49-.56-.77-1.19-.84-1.89v-13.02c.07-.7.35-1.26.84-1.82.56-.56,1.26-.84,2.17-.84h28.28c.84,0,1.54.28,2.03.84ZM65.97,35.93c.56.56.84,1.12.84,1.82v25.55c0,.77-.28,1.4-.84,1.96-.56.56-1.26.84-2.1.84h-28.35c-.91,0-1.61-.28-2.17-.84s-.84-1.19-.84-1.96v-25.55c0-.7.28-1.26.84-1.82.56-.56,1.26-.84,2.17-.84h28.35c.84,0,1.54.28,2.1.84ZM57.22,22.98h-14.98v2.66h14.98v-2.66ZM44.89,46.08v-1.82h-2.66v1.82h2.66ZM44.89,57.07v-1.89h-2.66v1.89h2.66ZM57.22,44.26h-2.66v1.82h2.66v-1.82ZM57.22,55.19h-2.66v1.89h2.66v-1.89Z"/><path class="cls-1" d="M139.32,65.34c-.56.56-1.68.91-3.29.91h-12.18c-1.96,0-2.94-.98-2.94-2.8v-4.2c0-1.89.98-2.87,2.94-2.87h4.62V15.84h-37.38v47.68c0,.77-.28,1.4-.84,1.96-.56.56-1.26.77-2.1.77h-5.6c-.91,0-1.61-.21-2.1-.77-.56-.56-.84-1.19-.91-1.96V7.72c.07-.7.35-1.33.91-1.89.49-.56,1.19-.84,2.1-.84h54.54c1.26,0,2.1.21,2.45.63.42.35.63,1.12.63,2.24v53.98c0,1.75-.28,2.87-.84,3.5ZM122.17,24.17h.49c1.19,0,1.96.21,2.38.63.42.42.63,1.26.63,2.59v2.73c0,.98-.21,1.75-.63,2.24-.42.42-1.19.7-2.38.7h-7.98v12.74h2.17v-7.77c0-.7.28-1.26.84-1.82.56-.56,1.26-.84,2.1-.84h3.64c.91,0,1.68.28,2.17.84.56.56.84,1.12.84,1.82v13.65c0,1.05-.21,1.75-.56,2.24-.42.49-1.26.7-2.45.7h-27.16c-1.12,0-1.89-.21-2.31-.7-.35-.49-.56-1.19-.56-2.24v-13.65c0-.7.28-1.26.84-1.82.49-.56,1.26-.84,2.17-.84h3.64c.84,0,1.54.28,2.1.84s.84,1.12.84,1.82v7.77h2.1v-12.74h-8.05c-1.05,0-1.82-.28-2.24-.7-.42-.49-.63-1.26-.63-2.24v-2.73c0-1.33.21-2.17.63-2.59s1.19-.63,2.24-.63h.63l-1.54-3.64c-.35-.7-.28-1.33.21-1.89.49-.56,1.33-.84,2.52-.77h3.71c1.05-.07,1.82.14,2.17.49.35.42.84,1.19,1.47,2.38l1.47,3.43h4.48l1.47-3.43c.63-1.19,1.12-1.96,1.47-2.38.35-.35,1.12-.56,2.17-.49h3.71c1.19-.07,2.03.21,2.52.77s.56,1.19.21,1.89l-1.54,3.64Z"/><path class="cls-1" d="M171.86,50.14c.7.07,1.33.28,1.75.77.49.49.77,1.12.77,1.82v5.81c0,2.45-.63,4.34-1.96,5.6-1.33,1.26-3.5,2.03-6.51,2.1h-10.22c-.84,0-1.54-.28-2.03-.77s-.7-1.05-.7-1.75v-3.85c0-.7.21-1.26.7-1.75s1.19-.77,2.03-.77h5.39c.84,0,1.47-.28,1.96-.77.49-.49.77-1.19.77-2.03v-1.82c0-.7.28-1.33.77-1.82.49-.49,1.12-.7,1.82-.77h5.46ZM189.92,48.67v15.26c0,.7-.21,1.26-.56,1.61-.42.35-.98.56-1.61.56h-7.7c-.63,0-1.26-.21-1.68-.56-.49-.35-.7-.91-.7-1.61v-15.26h-21.63c-.98,0-1.68-.35-2.17-.91-.56-.56-.84-1.19-.84-1.96V12.06c0-.7.28-1.26.84-1.82.49-.56,1.19-.84,2.17-.84h6.37c.84,0,1.54.28,2.1.84s.84,1.12.84,1.82v27.72h46.69c1.12,0,1.89.14,2.31.56.35.42.56,1.33.56,2.59v2.8c0,.98-.21,1.68-.56,2.17-.42.49-1.19.77-2.31.77h-22.12ZM210.85,5.41c.35.42.56.91.56,1.68v29.05c0,.7-.21,1.26-.56,1.61-.35.35-.84.49-1.61.49h-39.41c-.77,0-1.26-.14-1.61-.49-.35-.35-.49-.91-.49-1.61V7.09c0-.77.14-1.26.49-1.68.35-.35.84-.49,1.61-.49h39.41c.77,0,1.26.14,1.61.49ZM199.09,11.57h-19.11v2.17h19.11v-2.17ZM199.09,20.32h-19.11v2.17h19.11v-2.17ZM199.09,29h-19.11v2.31h19.11v-2.31ZM202.94,50.91c.49.49.77,1.12.77,1.82v1.82c0,.84.28,1.54.77,2.03.49.49,1.19.77,1.96.77h5.39c.84,0,1.54.28,2.03.77.49.49.7,1.05.7,1.75v3.85c0,.7-.21,1.26-.7,1.75-.49.49-1.19.77-2.03.77h-10.22c-3.01-.07-5.18-.84-6.51-2.1-1.33-1.26-1.96-3.15-1.96-5.6v-5.81c0-.7.28-1.33.77-1.82.42-.49,1.05-.7,1.75-.77h5.46c.7.07,1.33.28,1.82.77Z"/><path class="cls-2" d="M63.87,70.61h-28.35c-2.09,0-3.94-.75-5.36-2.16-1.22-1.22-1.94-2.72-2.12-4.36,0,0,0,.01,0,.02-.3,1.69-1,3.07-2.12,4.24-1.35,1.48-3.16,2.26-5.24,2.26h-5.88c-2.09,0-3.94-.75-5.35-2.16-.07-.07-.14-.14-.2-.22-1.13-1.29-1.78-2.81-1.93-4.52-.01-.13-.02-.27-.02-.4v-8.8h-.19c-.14,0-.27,0-.41-.02-1.74-.16-3.19-.77-4.44-1.86-1.43-1.23-2.24-3.06-2.24-5.14v-7.28c0-1.9.7-3.61,2.01-4.93.15-.15.32-.29.49-.42,1.3-.97,2.66-1.51,4.18-1.65.14-.01.27-.02.41-.02h1.26c2.55,0,3.49-.74,4.02-1.38.2-.25.38-.52.55-.82h-5.9c-1.8,0-3.41-.61-4.78-1.81-.08-.07-.15-.14-.22-.21-1.3-1.3-2.01-3.08-2.01-5v-7.14c0-1.82.63-3.49,1.81-4.85.07-.08.14-.16.21-.23,1.29-1.29,2.82-2.03,4.55-2.2.15-.01.3-.02.45-.02h.26v-2.36c0-.15,0-.3.02-.44.16-1.62.83-3.15,1.93-4.41.13-.15.27-.29.42-.42,1.41-1.23,3.18-1.88,5.14-1.88h5.88c2,0,3.78.72,5.14,2.09,1.14,1.14,1.88,2.55,2.21,4.19.01.06.02.12.03.18.18-1.98.8-3.49,1.89-4.58.1-.1.2-.19.31-.28,1.29-1.08,2.97-1.6,5.12-1.6h28.35c2.26,0,4.05.54,5.33,1.6.21.18.41.37.58.58,1.08,1.29,1.6,3.11,1.6,5.54v3.01c0,1.49-.3,2.81-.88,3.94.37.7.63,1.44.79,2.25.06.29.09.59.09.89v13.02c0,.3-.03.59-.09.89-.18.88-.47,1.69-.87,2.44.69,1.09,1.03,2.3,1.03,3.6v25.55c0,1.95-.75,3.73-2.16,5.14-1.41,1.41-3.24,2.16-5.29,2.16ZM37,61.61h25.3v-22.01h-25.3v22.01ZM16.28,61.61h2.83v-12.65c0-1.55.8-2.99,2.11-3.81,1.31-.82,2.95-.91,4.35-.24l.48.23v-2.3c-.12-.07-.25-.14-.4-.22l-1.67-.8c-1.13-.54-1.99-1.54-2.36-2.74-.37-1.2-.21-2.5.42-3.59,2.44-4.17,3.65-9.44,3.58-15.67v-1.29h-2.01c-2.49,0-4.5-2.01-4.5-4.5v-5.02h-2.83v5.02c0,2.49-2.01,4.5-4.5,4.5h-2.78v3.46h9.78c1.27,0,2.49.54,3.34,1.48.85.95,1.27,2.21,1.14,3.47-.44,4.28-1.75,7.83-3.89,10.53-2.49,3.01-5.96,4.57-10.37,4.71v3.28c.28-.05.4-.1.4-.1,1.39-.88,3.12-.93,4.56-.14,1.44.79,2.32,2.31,2.32,3.96v12.44ZM63.87,39.59h0,0ZM62.79,39.12h0s1.06-1.07,1.06-1.07h0l-1.06,1.06h0ZM60.15,29.05h2.08v-9.41h-2.01c.91.82,1.48,2.01,1.48,3.34v2.66c0,1.36-.61,2.58-1.56,3.41ZM37,29.05h2.29c-.96-.83-1.56-2.05-1.56-3.41v-2.66c0-1.33.57-2.52,1.48-3.34h-2.22v9.41ZM37,9.17h25.23v-.17h-25.23v.17ZM57.21,61.57h-2.66c-2.49,0-4.5-2.01-4.5-4.5v-1.89c0-2.49,2.01-4.5,4.5-4.5h2.66c2.49,0,4.5,2.01,4.5,4.5v1.89c0,2.49-2.01,4.5-4.5,4.5ZM44.89,61.57h-2.66c-2.49,0-4.5-2.01-4.5-4.5v-1.89c0-2.49,2.01-4.5,4.5-4.5h2.66c2.49,0,4.5,2.01,4.5,4.5v1.89c0,2.49-2.01,4.5-4.5,4.5ZM57.21,50.58h-2.66c-2.49,0-4.5-2.01-4.5-4.5v-1.82c0-2.49,2.01-4.5,4.5-4.5h2.66c2.49,0,4.5,2.01,4.5,4.5v1.82c0,2.49-2.01,4.5-4.5,4.5ZM44.89,50.58h-2.66c-2.49,0-4.5-2.01-4.5-4.5v-1.82c0-2.49,2.01-4.5,4.5-4.5h2.66c2.49,0,4.5,2.01,4.5,4.5v1.82c0,2.49-2.01,4.5-4.5,4.5Z"/><path class="cls-2" d="M136.03,70.75h-12.18c-4.45,0-7.44-2.93-7.44-7.3v-4.2s0-.08,0-.12h-20.14c-.23,0-.46,0-.68-.02v4.41c0,1.95-.75,3.73-2.16,5.14-.96.96-2.65,2.09-5.28,2.09h-5.6c-2.75,0-4.43-1.16-5.37-2.18-1.24-1.28-1.95-2.84-2.12-4.64-.01-.14-.02-.27-.02-.41V7.72c0-.15,0-.3.02-.45.17-1.71.9-3.27,2.11-4.52,1.34-1.46,3.24-2.26,5.38-2.26h54.54c.95,0,3.74,0,5.62,1.93,1.3,1.24,1.96,3.07,1.96,5.44v53.98c0,1.83-.2,4.49-1.97,6.49-.06.07-.12.13-.18.19-1.48,1.48-3.66,2.23-6.47,2.23ZM139.32,65.34h0,0ZM135.57,62.96h0s0,0,0,0ZM125.41,61.74h10.25s0-52.25,0-52.25h-51.63v52.25h2.55s0-45.91,0-45.91c0-2.49,2.01-4.5,4.5-4.5h37.38c2.49,0,4.5,2.01,4.5,4.5v40.54c0,2.49-2.01,4.5-4.5,4.5h-3.06v.87ZM118.11,50.12h3.83v-10.25h-.59v5.93c0,2.05-1.37,3.77-3.24,4.32ZM106.35,50.12h7.07c-1.87-.55-3.24-2.27-3.24-4.32v-12.74c0-2.49,2.01-4.5,4.5-4.5h6.49c-1.11-.26-2.11-.93-2.75-1.9-.83-1.26-.98-2.85-.39-4.24l.02-.05h-.18c-.05.1-.11.2-.17.32l-1.4,3.26c-.71,1.65-2.34,2.73-4.14,2.73h-4.48c-1.8,0-3.43-1.07-4.14-2.73l-1.39-3.26c-.06-.11-.12-.22-.17-.32h-.18l.02.05c.59,1.39.44,2.98-.39,4.24-.65.97-1.64,1.65-2.75,1.9h6.42c2.49,0,4.5,2.02,4.5,4.5v12.74c0,2.05-1.37,3.77-3.24,4.32ZM97.89,50.12h3.83c-1.87-.55-3.24-2.27-3.24-4.32v-5.93h-.59v10.25ZM123.04,28.69h0,0Z"/><path class="cls-2" d="M211.83,70.75h-10.22s-.07,0-.11,0c-3.51-.08-6.37-.93-8.52-2.51-.14.17-.29.34-.44.49-.09.09-.19.18-.29.27-1.24,1.04-2.84,1.61-4.5,1.61h-7.7c-1.62,0-3.22-.54-4.43-1.5-.37-.28-.7-.6-1-.94-2.16,1.63-5.05,2.5-8.61,2.58-.04,0-.07,0-.11,0h-10.22c-2.01,0-3.87-.74-5.21-2.09-1.32-1.32-2.02-3.03-2.02-4.93v-3.85c0-1.91.7-3.61,2.02-4.93,1.03-1.03,2.34-1.7,3.8-1.96-1.44-.33-2.71-1.06-3.7-2.14-1.35-1.4-2.06-3.13-2.06-5.04V12.06c0-1.84.69-3.49,2.06-4.9.97-1.06,2.68-2.26,5.45-2.26h6.37c.37,0,.73.02,1.08.07.25-.91.67-1.72,1.27-2.44.09-.1.18-.2.27-.3,1.2-1.2,2.81-1.81,4.8-1.81h39.41c1.99,0,3.6.61,4.8,1.82.09.09.18.19.26.29,1.07,1.28,1.61,2.81,1.61,4.56v28.93c.56.27,1.12.64,1.62,1.14.1.09.19.19.27.3,1.08,1.29,1.61,3.08,1.61,5.47v2.8c0,1.88-.47,3.49-1.4,4.79-.08.11-.16.21-.24.31-.75.87-2.04,1.88-4.17,2.22,1.32.3,2.5.95,3.44,1.89,1.32,1.32,2.02,3.03,2.02,4.93v3.85c0,1.9-.7,3.61-2.01,4.93-1.35,1.35-3.2,2.09-5.22,2.09ZM201.67,61.75h3.48c-1.47-.25-2.8-.93-3.85-1.98-1.32-1.32-2.06-3.13-2.08-5.12h-1.57v3.9c0,1.15.2,2,.56,2.34.14.13.97.8,3.47.86ZM162.39,61.75h3.46c2.5-.07,3.33-.73,3.47-.87.35-.33.55-1.18.55-2.33v-3.9h-1.57c-.02,1.98-.76,3.8-2.09,5.13-1.05,1.05-2.36,1.72-3.82,1.97ZM182.17,61.61h3.25v-12.93c0-2.14,1.5-3.94,3.51-4.39h-10.27c2.01.45,3.51,2.25,3.51,4.39v12.93ZM157.53,44.17h6.83c-2.01-.45-3.51-2.25-3.51-4.39V13.9h-3.32v30.27ZM202.88,33.74h4.03V9.42h-3.87c.35.64.55,1.37.55,2.15v2.17c0,1.3-.55,2.47-1.43,3.29.88.82,1.43,1.99,1.43,3.29v2.17c0,1.28-.53,2.44-1.39,3.25.86.82,1.39,1.97,1.39,3.25v2.31c0,.89-.26,1.73-.71,2.43ZM172.23,33.74h3.96c-.45-.7-.71-1.53-.71-2.43v-2.31c0-1.28.53-2.44,1.39-3.25-.86-.82-1.39-1.97-1.39-3.25v-2.17c0-1.3.55-2.47,1.43-3.29-.88-.82-1.43-1.99-1.43-3.29v-2.17c0-.78.2-1.51.55-2.15h-3.8v24.32ZM209.29,9.42h0,0Z"/><path class="cls-3" d="M63.87,69.11h-28.35c-1.69,0-3.17-.59-4.29-1.72-1.12-1.12-1.72-2.54-1.72-4.08v-9.59c-.67.19-1.38.26-2.1.19-.27-.02-.54-.09-.79-.18v9.58c0,.18-.02.36-.05.53-.25,1.39-.82,2.53-1.74,3.48-1.06,1.17-2.49,1.79-4.15,1.79h-5.88c-1.68,0-3.17-.59-4.29-1.72-.05-.05-.09-.09-.13-.14-.92-1.05-1.45-2.28-1.57-3.67,0-.09-.01-.18-.01-.27v-10.3s-.05,0-.08,0h-1.61c-.09,0-.18,0-.27-.01-1.43-.13-2.57-.61-3.59-1.5-1.1-.95-1.72-2.38-1.72-4.01v-7.28c0-1.52.53-2.82,1.58-3.87.1-.1.21-.2.32-.28.68-.51,1.78-1.21,3.42-1.36.09,0,.18-.01.27-.01h1.26c3.22,0,4.5-1.1,5.18-1.92.69-.87,1.23-1.97,1.63-3.28H7.02c-1.42,0-2.7-.49-3.79-1.44-.05-.04-.1-.09-.15-.14-1.03-1.03-1.58-2.4-1.58-3.94v-7.14c0-1.45.5-2.79,1.44-3.86.04-.05.09-.1.14-.15,1.05-1.05,2.24-1.63,3.64-1.77.1,0,.2-.01.3-.01h1.76v-3.86c0-.1,0-.2.01-.29.13-1.33.66-2.53,1.57-3.57.09-.1.18-.19.28-.28,1.15-1,2.54-1.51,4.15-1.51h5.88c1.59,0,3,.57,4.08,1.65.94.94,1.53,2.06,1.8,3.43.04.19.06.39.06.59v3.86h.85c.1,0,.2,0,.3.01.63.06,1.22.22,1.77.45-.02-.25-.03-.5-.03-.76v-3.01c0-1.4.16-3.42,1.5-4.78.07-.07.13-.13.21-.19,1.01-.84,2.37-1.25,4.16-1.25h28.35c1.93,0,3.36.41,4.37,1.25.14.12.27.25.39.39.84,1.01,1.25,2.51,1.25,4.58v3.01c0,1.56-.38,2.88-1.12,3.92,0,0,0,.01-.02.02.54.77.89,1.61,1.08,2.54.04.2.06.39.06.59v13.02c0,.2-.02.4-.06.59-.21,1.04-.62,1.98-1.22,2.8.89,1.04,1.34,2.23,1.34,3.54v25.55c0,1.54-.59,2.96-1.72,4.08-1.13,1.13-2.59,1.72-4.22,1.72ZM35.5,63.11h28.3v-25.01h-28.29s0,0-.01,0v25.01ZM14.78,63.11h5.77s.04-.06.06-.13v-14.02c0-1.03.53-1.99,1.41-2.54.87-.55,1.97-.61,2.9-.16l2.63,1.27v-5.22c0-.14,0-.25,0-.34-.24-.15-.62-.38-1.22-.69l-1.7-.81c-.76-.36-1.33-1.03-1.57-1.83s-.14-1.67.28-2.39c2.58-4.4,3.85-9.94,3.79-16.45v-2.74s0-.02-.02-.03h-3.5c-1.66,0-3-1.34-3-3v-6.48s-.01-.03-.02-.04h-5.8s0,0,0,0v6.52c0,1.66-1.34,3-3,3h-4.28v6.46s11.28,0,11.28,0c.85,0,1.66.36,2.23.99.57.63.84,1.47.76,2.32-.41,3.99-1.61,7.27-3.58,9.75-2.29,2.77-5.59,4.15-9.84,4.15h-.85v6.32h1.11c1.01-.07,1.45-.3,1.56-.37.92-.59,2.1-.62,3.05-.1.96.53,1.56,1.54,1.56,2.63v13.94ZM7.15,46.96s.01.02.03.02c0,0-.02-.01-.03-.02ZM63.92,38.14h.01-.01ZM35.5,30.55h28.19s.03-.07.04-.1v-12.25s-.02-.03-.03-.05h-28.2s0,0-.01,0v12.41ZM35.5,10.67h28.23v-2.95c0-.08,0-.15,0-.22h-28.23c0,.07,0,.14,0,.22v2.95ZM57.21,60.07h-2.66c-1.66,0-3-1.34-3-3v-1.89c0-1.66,1.34-3,3-3h2.66c1.66,0,3,1.34,3,3v1.89c0,1.66-1.34,3-3,3ZM44.89,60.07h-2.66c-1.66,0-3-1.34-3-3v-1.89c0-1.66,1.34-3,3-3h2.66c1.66,0,3,1.34,3,3v1.89c0,1.66-1.34,3-3,3ZM57.21,49.08h-2.66c-1.66,0-3-1.34-3-3v-1.82c0-1.66,1.34-3,3-3h2.66c1.66,0,3,1.34,3,3v1.82c0,1.66-1.34,3-3,3ZM44.89,49.08h-2.66c-1.66,0-3-1.34-3-3v-1.82c0-1.66,1.34-3,3-3h2.66c1.66,0,3,1.34,3,3v1.82c0,1.66-1.34,3-3,3ZM57.21,28.64h-14.98c-1.66,0-3-1.34-3-3v-2.66c0-1.66,1.34-3,3-3h14.98c1.66,0,3,1.34,3,3v2.66c0,1.66-1.34,3-3,3Z"/><path class="cls-3" d="M136.03,69.25h-12.18c-3.61,0-5.94-2.28-5.94-5.8v-4.2c0-.57.06-1.12.18-1.62h-21.82c-.41,0-1.25,0-2.18-.26v6.15c0,1.55-.59,2.96-1.72,4.08-1.1,1.09-2.52,1.65-4.22,1.65h-5.6c-1.81,0-3.25-.58-4.29-1.71-1-1.03-1.58-2.29-1.71-3.74,0-.09-.01-.18-.01-.27V7.72c0-.1,0-.2.01-.3.14-1.4.71-2.62,1.71-3.65.76-.83,2.1-1.79,4.29-1.79h54.54c1.36,0,3.29.16,4.57,1.5,1.02.96,1.51,2.39,1.51,4.37v53.98c0,1.58-.17,3.88-1.6,5.49-.04.04-.08.09-.12.13-1.19,1.19-3.01,1.79-5.41,1.79ZM139.32,65.34h0,0ZM123.91,63.25h12.12c.49,0,.82-.04,1.03-.09.05-.25.1-.67.1-1.32V7.99h-54.63v55.26h5.55V15.84c0-1.66,1.34-3,3-3h37.38c1.66,0,3,1.34,3,3v40.54c0,1.66-1.34,3-3,3h-4.56v3.87ZM96.39,51.62h27.04v-13.25h-3.59v7.43c0,1.66-1.34,3-3,3h-2.17c-1.66,0-3-1.34-3-3v-12.74c0-1.66,1.34-3,3-3h7.99v-2.67c0-.08,0-.15,0-.22h-.5c-1.01,0-1.94-.5-2.5-1.34-.56-.84-.66-1.9-.26-2.83l.9-2.13h-3.04c-.07,0-.13,0-.2,0-.02,0-.04,0-.06,0-.17.27-.39.65-.67,1.18l-1.42,3.32c-.47,1.1-1.56,1.82-2.76,1.82h-4.48c-1.2,0-2.29-.72-2.76-1.82l-1.42-3.32c-.28-.53-.5-.91-.67-1.18-.02,0-.04,0-.06,0-.07,0-.13,0-.2,0h-3.04l.9,2.13c.39.93.29,1.99-.26,2.83-.56.84-1.5,1.34-2.5,1.34h-.5c0,.07,0,.14,0,.22v2.67h7.92c1.66,0,3,1.34,3,3v12.74c0,1.66-1.34,3-3,3h-2.1c-1.66,0-3-1.34-3-3v-7.43h-3.58s0,0,0,0v13.25ZM109.65,21.17h.52l.69-1.61c.03-.08.07-.15.11-.22.09-.17.18-.34.27-.5h-2.65c.09.16.18.32.27.5.04.07.07.15.11.22l.69,1.61Z"/><path class="cls-3" d="M211.83,69.25h-10.22c-3.76-.09-6.62-1.07-8.57-2.92-.15-.14-.3-.29-.44-.45-.24.68-.62,1.29-1.12,1.79-.06.06-.13.12-.2.18-.97.81-2.23,1.26-3.54,1.26h-7.7c-1.29,0-2.57-.43-3.52-1.19-.72-.54-1.24-1.26-1.55-2.11-.16.18-.33.35-.5.51-1.96,1.85-4.82,2.84-8.5,2.92h-10.29c-1.61,0-3.09-.58-4.15-1.65-1.05-1.05-1.58-2.35-1.58-3.87v-3.85c0-1.52.53-2.82,1.58-3.87,1.06-1.06,2.54-1.65,4.15-1.65h5.12v-1.62c0-.36.04-.71.11-1.06h-4.87c-1.75,0-3.26-.64-4.36-1.86-1.08-1.11-1.65-2.5-1.65-4.01V12.06c0-1.45.56-2.75,1.65-3.88.76-.83,2.12-1.79,4.36-1.79h6.37c.83,0,1.61.15,2.32.45.02-.92.21-2.19,1.18-3.36.06-.07.12-.13.18-.2,1.37-1.37,3.15-1.37,3.74-1.37h39.41c.59,0,2.37,0,3.74,1.38.06.06.12.13.18.19.85,1.01,1.26,2.19,1.26,3.6v29.05c0,.31-.02.6-.06.89.76.2,1.5.56,2.12,1.19.06.06.12.13.18.2.85,1.01,1.26,2.49,1.26,4.51v2.8c0,1.56-.38,2.88-1.12,3.92-.05.07-.11.14-.16.21-.71.83-2.08,1.82-4.59,1.82h-5.43c.07.35.1.7.1,1.06v1.62h5.12c1.61,0,3.09.58,4.15,1.65,1.05,1.05,1.58,2.35,1.58,3.87v3.85c0,1.52-.53,2.82-1.58,3.87-1.06,1.07-2.54,1.65-4.15,1.65ZM196.14,53.14v5.4c0,1.63.34,2.78,1.02,3.42.82.77,2.42,1.23,4.52,1.28h9.88v-2.89h-5.12c-1.57,0-3.02-.59-4.08-1.66-1.06-1.06-1.65-2.53-1.65-4.15v-1.41h-4.57ZM155.96,63.24h9.95c2.02-.04,3.63-.5,4.45-1.27.68-.64,1.02-1.8,1.02-3.42v-5.4h-4.57v1.41c0,1.62-.59,3.09-1.65,4.16-1.08,1.08-2.49,1.65-4.08,1.65h-5.12v2.88ZM180.67,63.11h6.25v-14.43c0-1.66,1.34-3,3-3h21.99v-2.74c0-.05,0-.1,0-.15h-46.56c-1.66,0-3-1.34-3-3V12.4h-6.31s0,0-.01,0v33.27h21.64c1.66,0,3,1.34,3,3v14.43ZM170.73,35.24h37.68V7.92s-37.68,0-37.68,0v27.32ZM209.43,7.93h0,0ZM199.09,34.31h-19.11c-1.66,0-3-1.34-3-3v-2.31c0-1.66,1.34-3,3-3h19.11c1.66,0,3,1.34,3,3v2.31c0,1.66-1.34,3-3,3ZM199.09,25.49h-19.11c-1.66,0-3-1.34-3-3v-2.17c0-1.66,1.34-3,3-3h19.11c1.66,0,3,1.34,3,3v2.17c0,1.66-1.34,3-3,3ZM199.09,16.74h-19.11c-1.66,0-3-1.34-3-3v-2.17c0-1.66,1.34-3,3-3h19.11c1.66,0,3,1.34,3,3v2.17c0,1.66-1.34,3-3,3Z"/><path class="cls-2" d="M11.78,14.02v-6.86c.07-.7.35-1.33.84-1.89.56-.49,1.26-.77,2.17-.77h5.88c.84,0,1.47.28,1.96.77.56.56.84,1.19.98,1.89v6.86h3.85c.7.07,1.33.35,1.82.91.49.56.77,1.19.84,1.89v2.94c.07,7.07-1.33,13.09-4.2,17.99l1.75.84c1.19.63,1.96,1.12,2.31,1.47.42.42.56,1.12.56,2.24v5.88c0,.77-.21,1.47-.77,2.03-.63.56-1.33.77-2.1.7l-4.06-1.96v14.35c-.14.77-.42,1.4-.98,1.96-.49.56-1.12.84-1.96.84h-5.88c-.91,0-1.61-.28-2.17-.84-.49-.56-.77-1.19-.84-1.96v-14.14c-.77.49-1.82.77-3.08.84h-1.61c-.77-.07-1.33-.28-1.89-.77-.49-.42-.7-1.05-.7-1.75v-7.28c0-.7.21-1.26.7-1.75.56-.42,1.12-.7,1.89-.77h1.26c3.36,0,5.81-.98,7.49-3.01,1.61-2.03,2.59-4.76,2.94-8.19H7.02c-.7,0-1.26-.21-1.82-.7-.49-.49-.7-1.12-.7-1.82v-7.14c0-.7.21-1.33.7-1.89.56-.56,1.12-.84,1.82-.91h4.76ZM33.13,12.9c-.42-.49-.63-1.19-.63-2.17v-3.01c0-1.33.21-2.24.63-2.66.42-.35,1.12-.56,2.24-.56h28.35c1.19,0,2.03.21,2.45.56.35.42.56,1.33.56,2.66v3.01c0,.98-.21,1.68-.56,2.17-.42.49-1.26.77-2.45.77h-28.35c-1.12,0-1.82-.28-2.24-.77ZM65.83,15.98c.49.56.77,1.12.91,1.82v13.02c-.14.7-.42,1.33-.91,1.89s-1.19.84-2.03.84h-28.28c-.91,0-1.61-.28-2.17-.84-.49-.56-.77-1.19-.84-1.89v-13.02c.07-.7.35-1.26.84-1.82.56-.56,1.26-.84,2.17-.84h28.28c.84,0,1.54.28,2.03.84ZM65.97,35.93c.56.56.84,1.12.84,1.82v25.55c0,.77-.28,1.4-.84,1.96-.56.56-1.26.84-2.1.84h-28.35c-.91,0-1.61-.28-2.17-.84s-.84-1.19-.84-1.96v-25.55c0-.7.28-1.26.84-1.82.56-.56,1.26-.84,2.17-.84h28.35c.84,0,1.54.28,2.1.84ZM57.22,22.98h-14.98v2.66h14.98v-2.66ZM44.89,46.08v-1.82h-2.66v1.82h2.66ZM44.89,57.07v-1.89h-2.66v1.89h2.66ZM57.22,44.26h-2.66v1.82h2.66v-1.82ZM57.22,55.19h-2.66v1.89h2.66v-1.89Z"/><path class="cls-2" d="M139.32,65.34c-.56.56-1.68.91-3.29.91h-12.18c-1.96,0-2.94-.98-2.94-2.8v-4.2c0-1.89.98-2.87,2.94-2.87h4.62V15.84h-37.38v47.68c0,.77-.28,1.4-.84,1.96-.56.56-1.26.77-2.1.77h-5.6c-.91,0-1.61-.21-2.1-.77-.56-.56-.84-1.19-.91-1.96V7.72c.07-.7.35-1.33.91-1.89.49-.56,1.19-.84,2.1-.84h54.54c1.26,0,2.1.21,2.45.63.42.35.63,1.12.63,2.24v53.98c0,1.75-.28,2.87-.84,3.5ZM122.17,24.17h.49c1.19,0,1.96.21,2.38.63.42.42.63,1.26.63,2.59v2.73c0,.98-.21,1.75-.63,2.24-.42.42-1.19.7-2.38.7h-7.98v12.74h2.17v-7.77c0-.7.28-1.26.84-1.82.56-.56,1.26-.84,2.1-.84h3.64c.91,0,1.68.28,2.17.84.56.56.84,1.12.84,1.82v13.65c0,1.05-.21,1.75-.56,2.24-.42.49-1.26.7-2.45.7h-27.16c-1.12,0-1.89-.21-2.31-.7-.35-.49-.56-1.19-.56-2.24v-13.65c0-.7.28-1.26.84-1.82.49-.56,1.26-.84,2.17-.84h3.64c.84,0,1.54.28,2.1.84s.84,1.12.84,1.82v7.77h2.1v-12.74h-8.05c-1.05,0-1.82-.28-2.24-.7-.42-.49-.63-1.26-.63-2.24v-2.73c0-1.33.21-2.17.63-2.59s1.19-.63,2.24-.63h.63l-1.54-3.64c-.35-.7-.28-1.33.21-1.89.49-.56,1.33-.84,2.52-.77h3.71c1.05-.07,1.82.14,2.17.49.35.42.84,1.19,1.47,2.38l1.47,3.43h4.48l1.47-3.43c.63-1.19,1.12-1.96,1.47-2.38.35-.35,1.12-.56,2.17-.49h3.71c1.19-.07,2.03.21,2.52.77s.56,1.19.21,1.89l-1.54,3.64Z"/><path class="cls-2" d="M171.86,50.14c.7.07,1.33.28,1.75.77.49.49.77,1.12.77,1.82v5.81c0,2.45-.63,4.34-1.96,5.6-1.33,1.26-3.5,2.03-6.51,2.1h-10.22c-.84,0-1.54-.28-2.03-.77s-.7-1.05-.7-1.75v-3.85c0-.7.21-1.26.7-1.75s1.19-.77,2.03-.77h5.39c.84,0,1.47-.28,1.96-.77.49-.49.77-1.19.77-2.03v-1.82c0-.7.28-1.33.77-1.82.49-.49,1.12-.7,1.82-.77h5.46ZM189.92,48.67v15.26c0,.7-.21,1.26-.56,1.61-.42.35-.98.56-1.61.56h-7.7c-.63,0-1.26-.21-1.68-.56-.49-.35-.7-.91-.7-1.61v-15.26h-21.63c-.98,0-1.68-.35-2.17-.91-.56-.56-.84-1.19-.84-1.96V12.06c0-.7.28-1.26.84-1.82.49-.56,1.19-.84,2.17-.84h6.37c.84,0,1.54.28,2.1.84s.84,1.12.84,1.82v27.72h46.69c1.12,0,1.89.14,2.31.56.35.42.56,1.33.56,2.59v2.8c0,.98-.21,1.68-.56,2.17-.42.49-1.19.77-2.31.77h-22.12ZM210.85,5.41c.35.42.56.91.56,1.68v29.05c0,.7-.21,1.26-.56,1.61-.35.35-.84.49-1.61.49h-39.41c-.77,0-1.26-.14-1.61-.49-.35-.35-.49-.91-.49-1.61V7.09c0-.77.14-1.26.49-1.68.35-.35.84-.49,1.61-.49h39.41c.77,0,1.26.14,1.61.49ZM199.09,11.57h-19.11v2.17h19.11v-2.17ZM199.09,20.32h-19.11v2.17h19.11v-2.17ZM199.09,29h-19.11v2.31h19.11v-2.31ZM202.94,50.91c.49.49.77,1.12.77,1.82v1.82c0,.84.28,1.54.77,2.03.49.49,1.19.77,1.96.77h5.39c.84,0,1.54.28,2.03.77.49.49.7,1.05.7,1.75v3.85c0,.7-.21,1.26-.7,1.75-.49.49-1.19.77-2.03.77h-10.22c-3.01-.07-5.18-.84-6.51-2.1-1.33-1.26-1.96-3.15-1.96-5.6v-5.81c0-.7.28-1.33.77-1.82.42-.49,1.05-.7,1.75-.77h5.46c.7.07,1.33.28,1.82.77Z"/></g></svg>