<?xml version="1.0" encoding="UTF-8"?><svg id="_レイヤー_2" xmlns="http://www.w3.org/2000/svg" viewBox="0 0 218.69 71.38"><defs><style>.cls-1,.cls-2,.cls-3{stroke-width:0px;}.cls-2{fill:#198caa;}.cls-3{fill:#fff;}</style></defs><g id="_レイヤー_4"><path class="cls-1" d="M5.06,66.11c-.35-.49-.56-1.19-.56-2.03v-23.59c0-1.33.21-2.24.56-2.66.42-.35,1.19-.56,2.31-.56h56.29c1.12,0,1.89.21,2.31.56.35.42.56,1.33.56,2.66v23.59c0,.84-.21,1.54-.56,2.03-.42.56-1.19.77-2.31.77h-8.47c-1.05,0-1.75-.21-2.17-.77-.42-.49-.63-1.19-.63-2.03v-19.11H18.64v19.11c0,.84-.21,1.54-.63,2.03-.42.56-1.12.77-2.17.77H7.37c-1.12,0-1.89-.21-2.31-.77ZM5.34,17.31c-.42-.49-.56-1.19-.56-2.24v-2.45c0-1.33.14-2.17.56-2.59s1.19-.63,2.31-.63h20.58v-2.73c0-.7.21-1.19.63-1.54.35-.42.91-.56,1.61-.56h9.8c.7,0,1.26.14,1.75.56.42.35.7.84.7,1.54v2.73h20.51c1.19,0,1.96.21,2.38.63.35.42.56,1.26.63,2.59v2.45c0,1.05-.14,1.75-.56,2.24s-1.26.7-2.45.7H7.65c-1.12,0-1.89-.21-2.31-.7ZM13.95,35.23c-1.26,0-2.24-.21-3.01-.7-.7-.56-1.05-1.61-1.05-3.22v-7.14c0-1.47.35-2.52,1.05-3.15.7-.63,1.68-.91,2.94-.91h43.19c1.4,0,2.52.28,3.15.91.63.56.98,1.61.98,3.08v7.35c0,1.47-.28,2.52-.91,3.01-.7.56-1.75.77-3.15.77H13.95ZM25.57,63.31c-1.26,0-2.24-.28-3.01-.77-.7-.49-1.05-1.61-1.05-3.22v-8.19c0-1.47.35-2.52,1.05-3.15.7-.63,1.68-.98,2.94-.98h19.95c1.4,0,2.52.35,3.15.91.63.63.98,1.68.98,3.15v8.4c0,1.47-.28,2.52-.91,3.01-.7.56-1.75.84-3.15.84h-19.95ZM47.13,28.58v-1.75h-23.24v1.75h23.24ZM38.1,56.1v-1.96h-5.18v1.96h5.18Z"/><path class="cls-1" d="M107.26,12.76c.42.42.63,1.26.63,2.59v4.9c0,1.05-.21,1.75-.63,2.24-.35.49-1.19.7-2.45.7h-5.6v5.11h5.81c1.26,0,2.1.21,2.45.56.42.42.63,1.33.63,2.66v4.9c0,.98-.21,1.75-.63,2.24-.35.42-1.19.7-2.45.7h-5.81l6.09,5.25c1.19,1.19,1.96,1.96,2.38,2.31.35.42.56,1.12.49,2.24v6.37c.07.84-.21,1.54-.77,2.1-.56.49-1.26.49-2.1-.14l-6.72-5.67c-.49,4.2-1.47,7.56-3.01,10.08-2.52,3.22-5.95,4.83-10.5,4.83h-4.83c-.77-.07-1.33-.35-1.89-.77-.49-.49-.7-1.05-.7-1.82v-6.65c0-.77.21-1.33.7-1.82.56-.42,1.12-.7,1.89-.7h2.45c2.03-.07,3.71-.84,5.04-2.38,1.26-1.47,1.96-3.85,1.96-7.14v-6.09h-8.68c-1.12,0-1.89-.28-2.31-.7-.42-.49-.63-1.26-.63-2.24v-4.9c0-1.33.21-2.24.63-2.66.42-.35,1.19-.56,2.31-.56h8.75v-5.11h-1.75c-1.19,1.75-2.73,2.52-4.55,2.52h-2.87c-.63-.07-1.26-.35-1.75-.77-.56-.49-.77-1.05-.77-1.82v-6.09c0-.77.21-1.33.77-1.82.49-.42,1.12-.7,1.75-.77.56,0,.98-.35,1.19-.91.21-.63.28-1.54.28-2.8v-3.43c0-.77.28-1.4.77-1.96.56-.56,1.19-.84,1.89-.84h3.5c.77,0,1.4.28,1.89.84.56.56.77,1.19.77,1.96v4.83h13.93c1.26,0,2.1.21,2.45.63ZM138.98,8.84c.56.56.84,1.19.84,1.89v53.13c0,.77-.28,1.4-.84,1.96-.56.56-1.26.84-2.1.84h-22.54c-.91,0-1.61-.28-2.17-.84-.49-.56-.77-1.19-.84-1.96V10.73c.07-.7.35-1.33.84-1.89.56-.49,1.26-.77,2.17-.77h22.54c.84,0,1.54.28,2.1.77ZM128.97,19.62h-6.79v35.49h6.79V19.62Z"/><path class="cls-1" d="M171.14,50.71c.7.07,1.33.28,1.75.77.49.49.77,1.12.77,1.82v5.81c0,2.45-.63,4.34-1.96,5.6-1.33,1.26-3.5,2.03-6.51,2.1h-10.22c-.84,0-1.54-.28-2.03-.77-.49-.49-.7-1.05-.7-1.75v-3.85c0-.7.21-1.26.7-1.75.49-.49,1.19-.77,2.03-.77h5.39c.84,0,1.47-.28,1.96-.77.49-.49.77-1.19.77-2.03v-1.82c0-.7.28-1.33.77-1.82s1.12-.7,1.82-.77h5.46ZM189.2,49.23v15.26c0,.7-.21,1.26-.56,1.61-.42.35-.98.56-1.61.56h-7.7c-.63,0-1.26-.21-1.68-.56-.49-.35-.7-.91-.7-1.61v-15.26h-21.63c-.98,0-1.68-.35-2.17-.91-.56-.56-.84-1.19-.84-1.96V12.62c0-.7.28-1.26.84-1.82.49-.56,1.19-.84,2.17-.84h6.37c.84,0,1.54.28,2.1.84s.84,1.12.84,1.82v27.72h46.7c1.12,0,1.89.14,2.31.56.35.42.56,1.33.56,2.59v2.8c0,.98-.21,1.68-.56,2.17-.42.49-1.19.77-2.31.77h-22.12ZM210.13,5.97c.35.42.56.91.56,1.68v29.05c0,.7-.21,1.26-.56,1.61-.35.35-.84.49-1.61.49h-39.41c-.77,0-1.26-.14-1.61-.49-.35-.35-.49-.91-.49-1.61V7.65c0-.77.14-1.26.49-1.68.35-.35.84-.49,1.61-.49h39.41c.77,0,1.26.14,1.61.49ZM198.37,12.13h-19.11v2.17h19.11v-2.17ZM198.37,20.88h-19.11v2.17h19.11v-2.17ZM198.37,29.56h-19.11v2.31h19.11v-2.31ZM202.22,51.47c.49.49.77,1.12.77,1.82v1.82c0,.84.28,1.54.77,2.03.49.49,1.19.77,1.96.77h5.39c.84,0,1.54.28,2.03.77s.7,1.05.7,1.75v3.85c0,.7-.21,1.26-.7,1.75s-1.19.77-2.03.77h-10.22c-3.01-.07-5.18-.84-6.51-2.1-1.33-1.26-1.96-3.15-1.96-5.6v-5.81c0-.7.28-1.33.77-1.82.42-.49,1.05-.7,1.75-.77h5.46c.7.07,1.33.28,1.82.77Z"/><path class="cls-2" d="M63.66,71.38h-8.47c-2.49,0-4.4-.82-5.68-2.45-.37-.45-.68-.96-.93-1.5-.92.25-1.94.38-3.05.38h-19.95c-1.1,0-2.14-.14-3.1-.42-.25.56-.57,1.08-.95,1.54-1.28,1.63-3.19,2.45-5.68,2.45H7.37c-2.64,0-4.63-.86-5.91-2.57-.02-.03-.04-.05-.06-.08-.92-1.28-1.4-2.89-1.4-4.65v-23.59c0-2.43.52-4.25,1.6-5.54.17-.21.37-.4.57-.58.88-.74,1.99-1.22,3.31-1.45-.06-.51-.1-1.04-.1-1.6v-7.14c0-.66.05-1.28.14-1.87-1.5-.32-2.71-1.01-3.61-2.06-1.47-1.72-1.64-3.77-1.64-5.17v-2.45c0-1.92.22-4.12,1.88-5.77,1.29-1.29,3.14-1.95,5.49-1.95h16.3c.3-1.15.89-2.17,1.74-2.97.88-.91,2.38-1.86,4.78-1.86h9.8c1.83,0,3.4.55,4.68,1.64,1,.83,1.7,1.93,2.04,3.19h16.24c.89,0,3.61,0,5.56,1.95.1.09.19.19.27.3,1.32,1.58,1.59,3.63,1.67,5.24,0,.08,0,.16,0,.24v2.45c0,1.4-.17,3.45-1.64,5.17-1.04,1.22-2.37,1.78-3.53,2.04.09.55.13,1.16.13,1.82v7.35c0,.52-.03,1.01-.08,1.48,1.28.24,2.36.72,3.23,1.44.21.17.4.37.57.58,1.08,1.29,1.6,3.11,1.6,5.54v23.59c0,1.76-.48,3.37-1.4,4.65-.02.03-.04.05-.06.08-1.28,1.71-3.27,2.57-5.91,2.57ZM56.89,62.38h5.14v-20.61s-6.48,0-6.48,0c.83.82,1.34,1.95,1.34,3.2v17.41ZM9,62.38h5.14v-17.41c0-1.25.51-2.39,1.34-3.2h-6.48v20.61ZM41.7,58.81h3.39v-7.31h-3.34c.54.74.86,1.65.86,2.64v1.96c0,1.02-.34,1.96-.91,2.71ZM26.01,58.81h3.32c-.57-.75-.91-1.69-.91-2.71v-1.96c0-.99.32-1.9.86-2.64h-3.27v7.31ZM51.09,30.73h5.62v-6.12h-5.66c.37.66.58,1.41.58,2.22v1.75c0,.78-.2,1.51-.55,2.15ZM14.39,30.73h5.55c-.35-.64-.55-1.37-.55-2.15v-1.75c0-.81.21-1.57.58-2.22h-5.59v6.12ZM9.29,15.42h0,0ZM30.06,13.51h10.83c-1.57-.7-2.67-2.28-2.67-4.11v-.33h-5.49v.33c0,1.83-1.1,3.41-2.67,4.11Z"/><path class="cls-2" d="M85.07,71.24h-4.83c-.14,0-.27,0-.41-.02-1.52-.14-2.88-.68-4.18-1.65-.17-.13-.33-.27-.48-.42-1.34-1.34-2.02-3.02-2.02-5v-6.65c0-1.98.68-3.66,2.02-5,.15-.15.31-.29.48-.42,1.44-1.08,2.94-1.6,4.59-1.6h2.36c.77-.04,1.25-.26,1.73-.82.41-.48.86-1.85.86-4.2v-1.59h-4.18c-2.87,0-4.57-1.1-5.49-2.02-.08-.08-.16-.17-.24-.25-1.14-1.33-1.71-3.07-1.71-5.17v-4.9c0-1.92.34-3.46,1.04-4.67-.59-.93-1.04-2.16-1.04-3.74v-6.09c0-2.64,1.25-4.29,2.31-5.21.52-.44,1.08-.82,1.68-1.11v-3.41c0-1.81.65-3.52,1.88-4.92.07-.08.13-.15.21-.22,1.41-1.41,3.17-2.16,5.07-2.16h3.5c2.01,0,3.85.8,5.18,2.27.93.97,1.98,2.6,1.98,5.03v.33h9.43c.5,0,1.53,0,2.66.29.32-.73.76-1.42,1.31-2.04.13-.15.27-.29.42-.42,1.41-1.23,3.18-1.88,5.14-1.88h22.54c1.91,0,3.66.65,5.07,1.88.07.07.15.13.22.2,1.41,1.41,2.16,3.17,2.16,5.07v53.13c0,1.95-.75,3.73-2.16,5.14-1.41,1.41-3.24,2.16-5.28,2.16h-22.54c-2.09,0-3.94-.75-5.35-2.16-.07-.07-.14-.14-.2-.22-1.13-1.29-1.78-2.81-1.93-4.52-.01-.14-.02-.27-.02-.41v-1.38c-1.43.06-2.89-.39-4.22-1.38-.07-.05-.14-.11-.21-.16l-1.03-.87c-.54,1.54-1.19,2.93-1.96,4.19-.09.15-.19.29-.3.43-3.41,4.35-8.13,6.56-14.04,6.56ZM82.15,62.24h2.92c3.03,0,5.14-.9,6.79-2.9,1.09-1.9,1.85-4.6,2.25-8.03.19-1.65,1.27-3.05,2.81-3.66,1.54-.61,3.29-.32,4.56.75l2.19,1.85v-.89c-.39-.38-.85-.84-1.44-1.43l-5.96-5.14c-1.42-1.23-1.93-3.21-1.28-4.98.66-1.76,2.34-2.93,4.22-2.93h4.39v-2.06h-4.39c-2.49,0-4.5-2.01-4.5-4.5v-5.11c0-2.49,2.01-4.5,4.5-4.5h4.18v-2.06h-12.51c-2.2,0-4.02-1.57-4.42-3.65-.08.76-.22,1.39-.41,1.98-.02.05-.03.1-.05.15-.62,1.66-1.88,2.91-3.43,3.48v2.63h.89c.28,0,.45,0,.83-.55.84-1.23,2.23-1.97,3.72-1.97h1.75c2.49,0,4.5,2.01,4.5,4.5v5.11c0,2.49-2.01,4.5-4.5,4.5h-7.19v2.06h7.12c2.49,0,4.5,2.01,4.5,4.5v6.09c0,4.32-1.02,7.71-3.04,10.07-2.14,2.47-5,3.83-8.3,3.95-.05,0-.1,0-.16,0h-.54v2.76ZM115.82,62.17h19.49V12.57h-19.49v49.6ZM80.85,34.86h0,0ZM136.88,12.57h0,0ZM128.97,59.62h-6.79c-2.49,0-4.5-2.01-4.5-4.5V19.62c0-2.49,2.01-4.5,4.5-4.5h6.79c2.49,0,4.5,2.01,4.5,4.5v35.49c0,2.49-2.01,4.5-4.5,4.5Z"/><path class="cls-2" d="M211.11,71.31h-10.22s-.07,0-.11,0c-3.51-.08-6.37-.93-8.52-2.51-.14.17-.29.34-.45.5-.09.09-.19.18-.29.26-1.24,1.04-2.84,1.61-4.5,1.61h-7.7c-1.62,0-3.22-.54-4.43-1.5-.37-.28-.7-.6-.99-.94-2.16,1.63-5.05,2.5-8.61,2.58-.04,0-.07,0-.11,0h-10.22c-2.02,0-3.87-.74-5.21-2.09-1.32-1.32-2.02-3.03-2.02-4.93v-3.85c0-1.9.7-3.61,2.01-4.93,1.03-1.03,2.35-1.7,3.81-1.97-1.43-.33-2.71-1.06-3.69-2.14-1.35-1.39-2.06-3.13-2.06-5.04V12.62c0-1.84.69-3.49,2.06-4.91.97-1.06,2.68-2.25,5.45-2.25h6.37c.37,0,.73.02,1.08.07.25-.91.67-1.72,1.27-2.45.08-.1.17-.2.26-.29,1.2-1.21,2.81-1.82,4.8-1.82h39.41c1.98,0,3.6.61,4.8,1.81.09.1.19.2.27.3,1.06,1.28,1.6,2.81,1.6,4.56v28.93c.56.27,1.12.64,1.62,1.14.1.1.19.2.28.3,1.08,1.29,1.6,3.08,1.6,5.47v2.8c0,1.88-.47,3.48-1.4,4.78-.08.11-.16.21-.25.31-.75.87-2.04,1.88-4.17,2.22,1.32.3,2.5.95,3.44,1.89,1.32,1.32,2.02,3.03,2.02,4.93v3.85c0,1.91-.7,3.61-2.02,4.93-1.35,1.35-3.2,2.09-5.21,2.09ZM200.95,62.31h3.48c-1.47-.25-2.8-.93-3.85-1.98-1.33-1.32-2.07-3.14-2.09-5.12h-1.57v3.9c0,1.15.2,2,.56,2.34.14.13.97.8,3.47.86ZM161.67,62.31h3.46c2.5-.07,3.33-.73,3.47-.87.35-.33.55-1.18.55-2.33v-3.9h-1.57c-.02,1.98-.76,3.8-2.09,5.12-1.06,1.06-2.36,1.73-3.82,1.98ZM181.45,62.17h3.25v-12.93c0-2.14,1.5-3.94,3.51-4.39h-10.27c2.01.45,3.51,2.25,3.51,4.39v12.93ZM156.81,44.73h6.83c-2.01-.45-3.51-2.25-3.51-4.39V14.46h-3.32v30.27ZM202.16,34.3h4.03V9.98h-3.87c.35.64.55,1.37.55,2.15v2.17c0,1.3-.55,2.47-1.43,3.29.88.82,1.43,1.99,1.43,3.29v2.17c0,1.28-.53,2.44-1.39,3.25.86.82,1.39,1.97,1.39,3.25v2.31c0,.89-.26,1.73-.71,2.43ZM171.51,34.3h3.96c-.45-.7-.71-1.53-.71-2.43v-2.31c0-1.28.53-2.44,1.39-3.25-.86-.82-1.39-1.97-1.39-3.25v-2.17c0-1.3.55-2.47,1.43-3.29-.88-.82-1.43-1.99-1.43-3.29v-2.17c0-.78.2-1.51.55-2.15h-3.8v24.32ZM208.57,9.98h.01-.01Z"/><path class="cls-3" d="M63.66,69.88h-8.47c-.75,0-3.03,0-4.51-1.89-.58-.7-.97-1.55-1.16-2.51-1.08.55-2.43.83-3.99.83h-19.95c-1.52,0-2.88-.31-4.05-.91-.18.99-.58,1.87-1.17,2.59-1.48,1.89-3.75,1.89-4.51,1.89H7.37c-.8,0-3.23,0-4.71-1.97-.01-.02-.03-.04-.04-.06-.73-1.02-1.12-2.33-1.12-3.78v-23.59c0-2.07.41-3.57,1.25-4.58.12-.14.24-.27.38-.38.99-.83,2.39-1.25,4.18-1.26-.28-.85-.42-1.84-.42-2.95v-7.14c0-1.2.18-2.25.53-3.16-.93-.01-2.99-.15-4.36-1.75-1.14-1.33-1.28-2.94-1.28-4.19v-2.45c0-1.7.17-3.45,1.44-4.71,1.02-1.02,2.46-1.51,4.43-1.51h17.59c.07-1.68.81-2.75,1.51-3.4.9-.95,2.15-1.43,3.73-1.43h9.8c1.48,0,2.69.42,3.7,1.28,1.05.87,1.67,2.13,1.74,3.55h17.52c2.01,0,3.49.49,4.5,1.51.06.06.12.13.18.2.81.97,1.22,2.31,1.32,4.35,0,.05,0,.11,0,.16v2.45c0,1.25-.15,2.87-1.28,4.19-1.27,1.49-3.22,1.71-4.26,1.74.3.81.5,1.83.5,3.1v7.35c0,.52,0,1.64-.36,2.81,1.72.03,3.08.45,4.05,1.26.14.12.27.24.38.38.84,1.01,1.25,2.51,1.25,4.58v23.59c0,1.45-.39,2.75-1.12,3.78-1.52,2.03-3.95,2.03-4.75,2.03ZM15.61,64.3h0s0,0,0,0ZM55.41,64.3s0,0,0,0c0,0,0,0,0,0ZM55.39,63.88h8.14v-23.39c0-.08,0-.15,0-.22H7.5c0,.07,0,.14,0,.22v23.39h8.14v-18.91c0-1.66,1.34-3,3-3h33.74c1.66,0,3,1.34,3,3v18.91ZM24.57,60.18c.27.08.61.12,1,.12h19.95c.5,0,.82-.05,1.02-.1.02-.17.04-.41.04-.75v-8.4c0-.49-.06-.79-.1-.95-.17-.04-.52-.12-1.03-.12h-19.95c-.39,0-.7.06-.87.17-.04.1-.12.39-.12.96v8.19c0,.4.03.68.06.87ZM12.95,32.15c.22.05.54.09,1,.09h43.19c.49,0,.82-.03,1.02-.07.02-.17.04-.4.04-.71v-7.35c0-.46-.05-.74-.09-.89-.16-.04-.49-.1-1.04-.1H13.88c-.52,0-.78.07-.88.12-.04.12-.11.4-.11.95v7.14c0,.39.03.66.06.83ZM58.23,23.26s0,0,0,0t0,0ZM7.78,15.01h55.47v-2.31c0-.11-.01-.21-.02-.3h-20.5c-1.66,0-3-1.34-3-3v-1.83h-8.49v1.83c0,1.66-1.34,3-3,3H7.78c0,.07,0,.14,0,.22v2.39ZM38.1,59.1h-5.18c-1.66,0-3-1.34-3-3v-1.96c0-1.66,1.34-3,3-3h5.18c1.66,0,3,1.34,3,3v1.96c0,1.66-1.34,3-3,3ZM47.13,31.58h-23.24c-1.66,0-3-1.34-3-3v-1.75c0-1.66,1.34-3,3-3h23.24c1.66,0,3,1.34,3,3v1.75c0,1.66-1.34,3-3,3Z"/><path class="cls-3" d="M85.07,69.74h-4.83c-.09,0-.18,0-.27-.01-1.64-.15-2.74-.85-3.42-1.36-.11-.09-.22-.18-.32-.28-1.05-1.05-1.58-2.37-1.58-3.94v-6.65c0-1.57.53-2.89,1.58-3.94.1-.1.21-.19.32-.28.75-.56,1.94-1.3,3.69-1.3h2.39c1.2-.05,2.07-.47,2.83-1.34.45-.53,1.23-1.92,1.23-5.18v-3.09h-5.68c-2.36,0-3.71-.86-4.43-1.58-.05-.05-.11-.11-.16-.17-.9-1.05-1.35-2.46-1.35-4.19v-4.9c0-1.37.15-3.34,1.42-4.69-.95-1-1.42-2.24-1.42-3.71v-6.09c0-1.66.6-3.04,1.8-4.08.64-.55,1.39-.97,2.17-1.23.01-.25.02-.58.02-1v-3.43c0-1.46.51-2.79,1.51-3.94.04-.05.09-.1.14-.15,1.12-1.12,2.51-1.72,4.01-1.72h3.5c1.61,0,3.02.62,4.08,1.79,1.05,1.08,1.58,2.43,1.58,4.01v1.83h10.93c1.05,0,2.44.1,3.6.75.21-1.11.71-2.13,1.49-3.02.09-.1.18-.19.28-.28,1.13-.99,2.56-1.51,4.15-1.51h22.54c1.54,0,2.95.52,4.08,1.51.05.04.1.09.14.14,1.12,1.12,1.72,2.51,1.72,4.01v53.13c0,1.55-.59,2.96-1.72,4.08-1.12,1.12-2.58,1.72-4.22,1.72h-22.54c-1.68,0-3.17-.59-4.29-1.72-.05-.05-.09-.09-.13-.14-.92-1.05-1.44-2.28-1.57-3.66,0-.09-.01-.18-.01-.27v-3.28c-1.3.61-3.03.65-4.82-.69-.05-.04-.09-.07-.14-.11l-2.77-2.34c-.61,2.32-1.43,4.31-2.47,6.02-.06.1-.13.19-.2.29-3.11,3.97-7.43,5.98-12.86,5.98ZM80.65,63.74h4.42c3.52,0,6.08-1.13,8.03-3.54,1.23-2.08,2.07-5.01,2.5-8.72.13-1.1.85-2.04,1.88-2.44,1.02-.41,2.19-.21,3.04.5l4.66,3.93v-4.3c0-.06,0-.12,0-.19,0-.11,0-.2,0-.27-.46-.43-1.06-1.03-1.93-1.9l-6.01-5.18c-.95-.82-1.29-2.14-.85-3.32.44-1.17,1.56-1.96,2.81-1.96h5.81s.05,0,.08,0v-4.84c0-.08,0-.15,0-.22h-5.89c-1.66,0-3-1.34-3-3v-5.11c0-1.66,1.34-3,3-3h5.68v-4.84c0-.08,0-.15,0-.22h-14.01c-1.66,0-3-1.34-3-3v-4.63h-2.79l-.03,3.23c0,1.74-.13,2.83-.44,3.75-.01.03-.02.06-.03.1-.6,1.61-1.92,2.66-3.52,2.84v5.3s2.39,0,2.39,0c.75,0,1.39-.21,2.07-1.21.56-.82,1.49-1.31,2.48-1.31h1.75c1.66,0,3,1.34,3,3v5.11c0,1.66-1.34,3-3,3h-8.69c0,.07,0,.14,0,.22v4.84h8.62c1.66,0,3,1.34,3,3v6.09c0,3.96-.9,7.01-2.68,9.09-1.88,2.18-4.3,3.33-7.22,3.43-.03,0-.07,0-.1,0h-2.04v5.76ZM114.32,63.67h22.49V11.07h-22.49v52.6ZM107.04,42.15l.22.19c.06.05.11.1.16.15.31.31.62.62.9.9v-1.68c-.36.18-.79.33-1.28.45ZM107.83,25.69c.17.06.34.12.49.19v-.43c-.16.09-.33.17-.49.24ZM80.59,11.44h0,0ZM128.97,58.12h-6.79c-1.66,0-3-1.34-3-3V19.62c0-1.66,1.34-3,3-3h6.79c1.66,0,3,1.34,3,3v35.49c0,1.66-1.34,3-3,3ZM125.17,52.12h.79v-29.49h-.79v29.49Z"/><path class="cls-3" d="M211.11,69.81h-10.22c-3.76-.09-6.62-1.07-8.57-2.92-.15-.14-.3-.29-.44-.45-.24.69-.62,1.3-1.12,1.79-.06.06-.13.12-.19.18-.97.81-2.23,1.26-3.54,1.26h-7.7c-1.29,0-2.57-.43-3.52-1.19-.72-.54-1.24-1.26-1.55-2.11-.16.18-.32.35-.5.52-1.96,1.85-4.82,2.84-8.5,2.92h-10.29c-1.62,0-3.09-.58-4.15-1.65-1.05-1.05-1.58-2.35-1.58-3.87v-3.85c0-1.52.53-2.82,1.58-3.87,1.06-1.07,2.54-1.65,4.15-1.65h5.12v-1.62c0-.36.04-.71.11-1.06h-4.87c-1.75,0-3.26-.64-4.36-1.86-1.08-1.11-1.65-2.5-1.65-4.01V12.62c0-1.45.56-2.75,1.65-3.88.76-.83,2.12-1.78,4.36-1.78h6.37c.83,0,1.61.15,2.32.45.02-.92.21-2.19,1.18-3.36.06-.07.11-.13.18-.19,1.37-1.38,3.15-1.38,3.74-1.38h39.41c.59,0,2.37,0,3.74,1.37.06.06.12.13.18.2.84,1.01,1.25,2.19,1.25,3.6v29.05c0,.3-.02.6-.06.89.76.2,1.5.56,2.13,1.19.06.06.13.13.18.2.84,1.01,1.25,2.49,1.25,4.51v2.8c0,1.56-.38,2.87-1.12,3.91-.05.07-.11.14-.16.21-.71.83-2.08,1.82-4.59,1.82h-5.43c.07.35.1.7.1,1.06v1.62h5.12c1.61,0,3.09.58,4.15,1.65,1.05,1.05,1.58,2.35,1.58,3.87v3.85c0,1.52-.53,2.82-1.58,3.87-1.06,1.06-2.54,1.65-4.15,1.65ZM195.42,53.71v5.4c0,1.63.34,2.78,1.03,3.42.82.77,2.42,1.23,4.52,1.28h9.88v-2.89h-5.12c-1.57,0-3.02-.59-4.08-1.66-1.06-1.06-1.65-2.53-1.65-4.15v-1.41h-4.57ZM155.24,63.8h9.95c2.02-.04,3.63-.5,4.45-1.27.68-.64,1.02-1.8,1.02-3.42v-5.4h-4.57v1.41c0,1.62-.59,3.09-1.65,4.15-1.08,1.08-2.49,1.65-4.08,1.65h-5.12v2.88ZM179.95,63.67h6.25v-14.43c0-1.66,1.34-3,3-3h21.99v-2.74c0-.05,0-.1,0-.15h-46.56c-1.66,0-3-1.34-3-3V12.96h-6.31s0,0,0,0v33.27h21.64c1.66,0,3,1.34,3,3v14.43ZM170.01,35.8h37.68V8.48s-37.68,0-37.68,0v27.32ZM208.71,8.49h0,0ZM198.37,34.87h-19.11c-1.66,0-3-1.34-3-3v-2.31c0-1.66,1.34-3,3-3h19.11c1.66,0,3,1.34,3,3v2.31c0,1.66-1.34,3-3,3ZM198.37,26.05h-19.11c-1.66,0-3-1.34-3-3v-2.17c0-1.66,1.34-3,3-3h19.11c1.66,0,3,1.34,3,3v2.17c0,1.66-1.34,3-3,3ZM198.37,17.3h-19.11c-1.66,0-3-1.34-3-3v-2.17c0-1.66,1.34-3,3-3h19.11c1.66,0,3,1.34,3,3v2.17c0,1.66-1.34,3-3,3Z"/><path class="cls-2" d="M5.06,66.11c-.35-.49-.56-1.19-.56-2.03v-23.59c0-1.33.21-2.24.56-2.66.42-.35,1.19-.56,2.31-.56h56.29c1.12,0,1.89.21,2.31.56.35.42.56,1.33.56,2.66v23.59c0,.84-.21,1.54-.56,2.03-.42.56-1.19.77-2.31.77h-8.47c-1.05,0-1.75-.21-2.17-.77-.42-.49-.63-1.19-.63-2.03v-19.11H18.64v19.11c0,.84-.21,1.54-.63,2.03-.42.56-1.12.77-2.17.77H7.37c-1.12,0-1.89-.21-2.31-.77ZM5.34,17.31c-.42-.49-.56-1.19-.56-2.24v-2.45c0-1.33.14-2.17.56-2.59s1.19-.63,2.31-.63h20.58v-2.73c0-.7.21-1.19.63-1.54.35-.42.91-.56,1.61-.56h9.8c.7,0,1.26.14,1.75.56.42.35.7.84.7,1.54v2.73h20.51c1.19,0,1.96.21,2.38.63.35.42.56,1.26.63,2.59v2.45c0,1.05-.14,1.75-.56,2.24s-1.26.7-2.45.7H7.65c-1.12,0-1.89-.21-2.31-.7ZM13.95,35.23c-1.26,0-2.24-.21-3.01-.7-.7-.56-1.05-1.61-1.05-3.22v-7.14c0-1.47.35-2.52,1.05-3.15.7-.63,1.68-.91,2.94-.91h43.19c1.4,0,2.52.28,3.15.91.63.56.98,1.61.98,3.08v7.35c0,1.47-.28,2.52-.91,3.01-.7.56-1.75.77-3.15.77H13.95ZM25.57,63.31c-1.26,0-2.24-.28-3.01-.77-.7-.49-1.05-1.61-1.05-3.22v-8.19c0-1.47.35-2.52,1.05-3.15.7-.63,1.68-.98,2.94-.98h19.95c1.4,0,2.52.35,3.15.91.63.63.98,1.68.98,3.15v8.4c0,1.47-.28,2.52-.91,3.01-.7.56-1.75.84-3.15.84h-19.95ZM47.13,28.58v-1.75h-23.24v1.75h23.24ZM38.1,56.1v-1.96h-5.18v1.96h5.18Z"/><path class="cls-2" d="M107.26,12.76c.42.42.63,1.26.63,2.59v4.9c0,1.05-.21,1.75-.63,2.24-.35.49-1.19.7-2.45.7h-5.6v5.11h5.81c1.26,0,2.1.21,2.45.56.42.42.63,1.33.63,2.66v4.9c0,.98-.21,1.75-.63,2.24-.35.42-1.19.7-2.45.7h-5.81l6.09,5.25c1.19,1.19,1.96,1.96,2.38,2.31.35.42.56,1.12.49,2.24v6.37c.07.84-.21,1.54-.77,2.1-.56.49-1.26.49-2.1-.14l-6.72-5.67c-.49,4.2-1.47,7.56-3.01,10.08-2.52,3.22-5.95,4.83-10.5,4.83h-4.83c-.77-.07-1.33-.35-1.89-.77-.49-.49-.7-1.05-.7-1.82v-6.65c0-.77.21-1.33.7-1.82.56-.42,1.12-.7,1.89-.7h2.45c2.03-.07,3.71-.84,5.04-2.38,1.26-1.47,1.96-3.85,1.96-7.14v-6.09h-8.68c-1.12,0-1.89-.28-2.31-.7-.42-.49-.63-1.26-.63-2.24v-4.9c0-1.33.21-2.24.63-2.66.42-.35,1.19-.56,2.31-.56h8.75v-5.11h-1.75c-1.19,1.75-2.73,2.52-4.55,2.52h-2.87c-.63-.07-1.26-.35-1.75-.77-.56-.49-.77-1.05-.77-1.82v-6.09c0-.77.21-1.33.77-1.82.49-.42,1.12-.7,1.75-.77.56,0,.98-.35,1.19-.91.21-.63.28-1.54.28-2.8v-3.43c0-.77.28-1.4.77-1.96.56-.56,1.19-.84,1.89-.84h3.5c.77,0,1.4.28,1.89.84.56.56.77,1.19.77,1.96v4.83h13.93c1.26,0,2.1.21,2.45.63ZM138.98,8.84c.56.56.84,1.19.84,1.89v53.13c0,.77-.28,1.4-.84,1.96-.56.56-1.26.84-2.1.84h-22.54c-.91,0-1.61-.28-2.17-.84-.49-.56-.77-1.19-.84-1.96V10.73c.07-.7.35-1.33.84-1.89.56-.49,1.26-.77,2.17-.77h22.54c.84,0,1.54.28,2.1.77ZM128.97,19.62h-6.79v35.49h6.79V19.62Z"/><path class="cls-2" d="M171.14,50.71c.7.07,1.33.28,1.75.77.49.49.77,1.12.77,1.82v5.81c0,2.45-.63,4.34-1.96,5.6-1.33,1.26-3.5,2.03-6.51,2.1h-10.22c-.84,0-1.54-.28-2.03-.77-.49-.49-.7-1.05-.7-1.75v-3.85c0-.7.21-1.26.7-1.75.49-.49,1.19-.77,2.03-.77h5.39c.84,0,1.47-.28,1.96-.77.49-.49.77-1.19.77-2.03v-1.82c0-.7.28-1.33.77-1.82s1.12-.7,1.82-.77h5.46ZM189.2,49.23v15.26c0,.7-.21,1.26-.56,1.61-.42.35-.98.56-1.61.56h-7.7c-.63,0-1.26-.21-1.68-.56-.49-.35-.7-.91-.7-1.61v-15.26h-21.63c-.98,0-1.68-.35-2.17-.91-.56-.56-.84-1.19-.84-1.96V12.62c0-.7.28-1.26.84-1.82.49-.56,1.19-.84,2.17-.84h6.37c.84,0,1.54.28,2.1.84s.84,1.12.84,1.82v27.72h46.7c1.12,0,1.89.14,2.31.56.35.42.56,1.33.56,2.59v2.8c0,.98-.21,1.68-.56,2.17-.42.49-1.19.77-2.31.77h-22.12ZM210.13,5.97c.35.42.56.91.56,1.68v29.05c0,.7-.21,1.26-.56,1.61-.35.35-.84.49-1.61.49h-39.41c-.77,0-1.26-.14-1.61-.49-.35-.35-.49-.91-.49-1.61V7.65c0-.77.14-1.26.49-1.68.35-.35.84-.49,1.61-.49h39.41c.77,0,1.26.14,1.61.49ZM198.37,12.13h-19.11v2.17h19.11v-2.17ZM198.37,20.88h-19.11v2.17h19.11v-2.17ZM198.37,29.56h-19.11v2.31h19.11v-2.31ZM202.22,51.47c.49.49.77,1.12.77,1.82v1.82c0,.84.28,1.54.77,2.03.49.49,1.19.77,1.96.77h5.39c.84,0,1.54.28,2.03.77s.7,1.05.7,1.75v3.85c0,.7-.21,1.26-.7,1.75s-1.19.77-2.03.77h-10.22c-3.01-.07-5.18-.84-6.51-2.1-1.33-1.26-1.96-3.15-1.96-5.6v-5.81c0-.7.28-1.33.77-1.82.42-.49,1.05-.7,1.75-.77h5.46c.7.07,1.33.28,1.82.77Z"/></g></svg>