<?xml version="1.0" encoding="UTF-8"?><svg id="_レイヤー_2" xmlns="http://www.w3.org/2000/svg" viewBox="0 0 217.84 70.82"><defs><style>.cls-1,.cls-2,.cls-3{stroke-width:0px;}.cls-2{fill:#198caa;}.cls-3{fill:#fff;}</style></defs><g id="_レイヤー_4"><path class="cls-1" d="M57.57,27.04c-1.05,0-1.75-.28-2.17-.77-.42-.56-.63-1.19-.63-2.03v-5.18H15.91v5.18c0,.98-.35,1.68-.98,2.17-.56.42-1.33.63-2.1.63h-5.32c-1.19,0-2.03-.21-2.45-.7-.35-.49-.56-1.26-.56-2.24v-11.48c0-1.33.21-2.17.56-2.59.42-.42,1.26-.63,2.45-.63h19.67v-2.59c0-.7.21-1.26.63-1.68.42-.42,1.05-.63,1.75-.63h11.69c.7,0,1.33.21,1.68.63.42.42.63.98.63,1.68v2.59h19.74c1.12,0,1.89.21,2.31.63.35.42.56,1.26.56,2.59v11.62c0,.84-.21,1.47-.56,2.03-.42.49-1.19.77-2.31.77h-5.74ZM10.59,65.41c-.63-.49-.91-1.54-.91-3.01v-15.26c0-1.47.35-2.52.98-3.08.63-.63,1.75-.98,3.15-.98h14.91v-2.17h-6.58c-1.47,0-2.52-.28-3.15-.77-.7-.56-.98-1.54-.98-3.01v-11.48c0-1.4.35-2.45.98-3.08.7-.63,1.75-.91,3.22-.91h26.39c1.33,0,2.31.28,3.01.91.7.7,1.05,1.75,1.05,3.15v11.27c0,1.61-.35,2.66-1.12,3.15-.7.56-1.68.77-3.01.77h-6.58v2.17h15.05c1.26,0,2.24.35,2.94.98.7.63,1.05,1.68,1.05,3.15v15.05c0,1.61-.35,2.73-1.05,3.22-.77.49-1.75.77-3.01.77H13.74c-1.4,0-2.45-.28-3.15-.84ZM46.92,53.08h-23.24v3.08h23.24v-3.08ZM40.2,30.12h-9.8v2.24h9.8v-2.24Z"/><path class="cls-1" d="M84.69,16.05c.56.56.84,1.12.84,1.82v30.94h1.26V8c.07-.63.35-1.26.91-1.82.49-.56,1.19-.84,2.1-.84h2.38c.77,0,1.47.28,1.96.84s.84,1.19.98,1.82v40.81h1.26v-30.94c.07-.7.35-1.26.84-1.82.56-.56,1.26-.84,2.17-.84h2.31c.84,0,1.54.28,2.1.84.56.56.84,1.12.84,1.82v38.71c-.14.77-.42,1.4-.91,1.96-.49.56-1.19.84-2.03.84h-21.42c-.91,0-1.68-.28-2.17-.84-.56-.56-.84-1.19-.84-1.89V17.87c0-.7.28-1.26.84-1.82.49-.56,1.26-.84,2.17-.84h2.31c.84,0,1.54.28,2.1.84ZM124.46,4.92c.63,0,1.26.28,1.75.84s.77,1.19.77,1.96v2.87h9.87c1.19,0,2.03.21,2.38.56.42.42.63,1.33.63,2.59v3.01c0,1.05-.21,1.75-.63,2.24-.35.49-1.19.7-2.38.7h-9.31c.28,1.19.77,2.1,1.47,2.73,1.4,1.26,3.85,1.89,7.35,1.89h.77c.77.07,1.33.28,1.89.77.49.42.7,1.05.7,1.75v4.06c0,.7-.21,1.33-.7,1.75-.56.49-1.12.7-1.89.77h-4.13c-4.69-.14-8.12-1.19-10.22-3.08-2.1,1.89-5.46,2.94-10.15,3.08h-4.2c-.7-.07-1.33-.28-1.82-.77-.49-.42-.77-1.05-.77-1.75v-4.06c0-.7.28-1.33.77-1.75.49-.49,1.12-.7,1.82-.77h.77c3.5,0,5.95-.63,7.35-1.89.7-.63,1.19-1.54,1.54-2.73h-9.24c-1.12,0-1.82-.21-2.24-.7-.42-.49-.63-1.19-.63-2.24v-3.01c0-1.26.21-2.17.63-2.59.42-.35,1.12-.56,2.24-.56h9.8v-2.87c0-.77.21-1.4.7-1.96.49-.56,1.12-.84,1.82-.84h3.29ZM106.61,43.35c-.42-.49-.63-1.26-.63-2.24v-3.01c0-1.33.21-2.17.63-2.59s1.12-.63,2.24-.63h28c1.19,0,2.03.21,2.38.63.42.42.63,1.26.63,2.59v3.01c0,.98-.21,1.75-.63,2.24-.35.49-1.19.7-2.38.7h-.63v17.85c0,1.75-.28,2.87-.84,3.5-.56.56-1.68.91-3.29.91h-6.44c-1.96,0-2.94-.98-2.94-2.8v-3.08c0-.35,0-.63.07-.91h-11.97c-1.26,0-2.24-.28-3.01-.77-.7-.49-1.05-1.54-1.05-3.22v-5.74c0-1.47.35-2.52,1.05-3.15.7-.63,1.68-.91,2.94-.91h11.41c1.47,0,2.52.28,3.22.91.63.63.98,1.61.98,3.08v5.95c0,.77-.07,1.33-.21,1.82h2.17v-13.44h-19.46c-1.12,0-1.82-.21-2.24-.7ZM118.16,53.86v-2.52h-3.29v2.52h3.29Z"/><path class="cls-1" d="M170.29,50.21c.7.07,1.33.28,1.75.77.49.49.77,1.12.77,1.82v5.81c0,2.45-.63,4.34-1.96,5.6-1.33,1.26-3.5,2.03-6.51,2.1h-10.22c-.84,0-1.54-.28-2.03-.77-.49-.49-.7-1.05-.7-1.75v-3.85c0-.7.21-1.26.7-1.75.49-.49,1.19-.77,2.03-.77h5.39c.84,0,1.47-.28,1.96-.77.49-.49.77-1.19.77-2.03v-1.82c0-.7.28-1.33.77-1.82s1.12-.7,1.82-.77h5.46ZM188.35,48.74v15.26c0,.7-.21,1.26-.56,1.61-.42.35-.98.56-1.61.56h-7.7c-.63,0-1.26-.21-1.68-.56-.49-.35-.7-.91-.7-1.61v-15.26h-21.63c-.98,0-1.68-.35-2.17-.91-.56-.56-.84-1.19-.84-1.96V12.13c0-.7.28-1.26.84-1.82.49-.56,1.19-.84,2.17-.84h6.37c.84,0,1.54.28,2.1.84s.84,1.12.84,1.82v27.72h46.7c1.12,0,1.89.14,2.31.56.35.42.56,1.33.56,2.59v2.8c0,.98-.21,1.68-.56,2.17-.42.49-1.19.77-2.31.77h-22.12ZM209.29,5.48c.35.42.56.91.56,1.68v29.05c0,.7-.21,1.26-.56,1.61-.35.35-.84.49-1.61.49h-39.41c-.77,0-1.26-.14-1.61-.49-.35-.35-.49-.91-.49-1.61V7.16c0-.77.14-1.26.49-1.68.35-.35.84-.49,1.61-.49h39.41c.77,0,1.26.14,1.61.49ZM197.52,11.64h-19.11v2.17h19.11v-2.17ZM197.52,20.39h-19.11v2.17h19.11v-2.17ZM197.52,29.07h-19.11v2.31h19.11v-2.31ZM201.37,50.98c.49.49.77,1.12.77,1.82v1.82c0,.84.28,1.54.77,2.03.49.49,1.19.77,1.96.77h5.39c.84,0,1.54.28,2.03.77s.7,1.05.7,1.75v3.85c0,.7-.21,1.26-.7,1.75s-1.19.77-2.03.77h-10.22c-3.01-.07-5.18-.84-6.51-2.1-1.33-1.26-1.96-3.15-1.96-5.6v-5.81c0-.7.28-1.33.77-1.82.42-.49,1.05-.7,1.75-.77h5.46c.7.07,1.33.28,1.82.77Z"/><path class="cls-2" d="M56.94,70.75H13.74c-2.43,0-4.43-.61-5.94-1.81-1.74-1.37-2.62-3.57-2.62-6.54v-15.26c0-3.39,1.27-5.32,2.39-6.35,1.46-1.4,3.53-2.16,6.01-2.21-.07-.62-.07-1.13-.07-1.45v-5.61c-.23.02-.45.03-.68.03h-5.32c-.97,0-3.92,0-5.87-2.27-.09-.1-.17-.21-.25-.31-.91-1.28-1.4-2.96-1.4-4.85v-11.48c0-2.39.52-4.17,1.6-5.47.08-.1.17-.2.27-.3,1.31-1.32,3.16-1.96,5.64-1.96h15.42c.3-1.12.87-2.12,1.7-2.95,1.26-1.26,3.01-1.95,4.94-1.95h11.69c1.99,0,3.79.75,4.99,2.08.76.8,1.29,1.76,1.58,2.82h15.49c2.36,0,4.21.66,5.5,1.96.09.09.18.19.27.3,1.09,1.31,1.6,3.05,1.6,5.47v11.62c0,1.61-.42,3.1-1.25,4.42-.12.19-.25.37-.4.54-.92,1.07-2.65,2.34-5.73,2.34h-5.74c-.14,0-.27,0-.4,0v5.45c0,.56-.03,1.09-.09,1.59,2.92.02,4.81,1.17,5.89,2.14,1.68,1.51,2.54,3.7,2.54,6.49v15.05c0,3.2-1,5.53-2.97,6.91-.05.04-.11.07-.17.11-1.54.98-3.36,1.47-5.43,1.47ZM14.18,61.75h42.32v-14.17h-14.54c-2.49,0-4.5-2.01-4.5-4.5v-2.17c0-1.77,1.03-3.31,2.52-4.04h-9.27c1.49.73,2.52,2.27,2.52,4.04v2.17c0,2.49-2.01,4.5-4.5,4.5h-14.54v14.17ZM42.19,36.4h5.98v-10.25h-5.84c1.42.76,2.38,2.25,2.38,3.97v2.24c0,1.77-1.03,3.31-2.52,4.04ZM22.51,36.4h5.91c-1.49-.73-2.52-2.27-2.52-4.04v-2.24c0-1.72.96-3.21,2.38-3.97h-5.77v10.25ZM49.13,36.34s0,0,0,0c0,0,0,0,0,0ZM59.27,22.54h2.41v-8.64h-18.11c-2.49,0-4.5-2.01-4.5-4.5v-.4h-7.38v.4c0,2.49-2.01,4.5-4.5,4.5H9v8.64h2.41v-3.48c0-2.49,2.01-4.5,4.5-4.5h38.85c2.49,0,4.5,2.01,4.5,4.5v3.48ZM46.92,60.67h-23.24c-2.49,0-4.5-2.01-4.5-4.5v-3.08c0-2.49,2.01-4.5,4.5-4.5h23.24c2.49,0,4.5,2.01,4.5,4.5v3.08c0,2.49-2.01,4.5-4.5,4.5Z"/><path class="cls-2" d="M132.09,70.82h-6.44c-4.27,0-7.2-2.71-7.43-6.79h-7.42c-1.92,0-3.64-.43-5.11-1.28-1.15.74-2.51,1.14-3.99,1.14h-21.42c-2.18,0-4.11-.8-5.45-2.25-1.35-1.39-2.06-3.11-2.06-4.98V17.87c0-1.84.69-3.49,2.06-4.91,1.34-1.46,3.27-2.25,5.45-2.25h2.01v-2.71c0-.17,0-.33.03-.5.18-1.65.91-3.17,2.1-4.4,1.34-1.46,3.24-2.26,5.38-2.26h2.38c2.11,0,4.01.84,5.35,2.38,1,1.14,1.69,2.46,1.99,3.81.07.32.11.65.11.97v2.71h2.08s.1,0,.15,0c.32-1.11.84-2.01,1.57-2.74.1-.1.2-.19.3-.28,1.29-1.08,2.97-1.6,5.12-1.6h5.46c.25-1.22.8-2.32,1.65-3.29,1.34-1.54,3.19-2.38,5.21-2.38h3.29c1.94,0,3.82.87,5.14,2.38.85.98,1.43,2.09,1.7,3.29h5.55c2.48,0,4.3.61,5.56,1.88,1.31,1.31,1.95,3.2,1.95,5.77v3.01c0,2.06-.52,3.71-1.6,5.04-.1.12-.2.24-.3.36,1.13,1.21,1.76,2.85,1.76,4.69v4.06c0,1.1-.23,2.14-.66,3.05.7,1.43.8,2.98.8,4.16v3.01c0,2.03-.54,3.72-1.6,5.03-.54.7-1.22,1.25-2.04,1.64v14.12c0,1.83-.2,4.49-1.97,6.49-.06.07-.12.13-.18.2-1.48,1.48-3.66,2.23-6.47,2.23ZM129.57,61.82h2.15s0-1.38,0-1.38c-.56.65-1.3,1.14-2.15,1.38ZM81.77,54.88h18.37v-3.6c-.8,1.22-2.19,2.03-3.76,2.03h-1.26c-1.88,0-3.49-1.15-4.17-2.79-.67,1.64-2.28,2.79-4.17,2.79h-1.26c-1.57,0-2.96-.81-3.76-2.03v3.6ZM110.48,39.55h17.83c1.71,0,3.19.95,3.96,2.35.63-1.16,1.76-2.01,3.1-2.27v-.25h-24.88v.17ZM133.07,28.91h2.15v-.12c-4.11-.15-7.13-1.15-9.22-3.02-1.39-1.25-2.35-2.95-2.84-5.04-.32-1.34,0-2.75.85-3.83s2.15-1.71,3.53-1.71h7.82v-.1h-8.38c-1.88,0-3.49-1.15-4.17-2.79-.67,1.64-2.28,2.79-4.17,2.79h-8.17v.1h7.61c1.42,0,2.75.67,3.6,1.81s1.11,2.61.71,3.97c-.6,2.05-1.53,3.62-2.84,4.8-2.09,1.88-5.12,2.88-9.23,3.03v.12h2.22c4.34-.14,6.32-1.12,7.21-1.92,1.71-1.54,4.31-1.54,6.02,0,.73.66,2.64,1.78,7.28,1.92ZM81.77,18.97h0s.52-.52.52-.52l-.52.52ZM124.46,9.42h0,0Z"/><path class="cls-2" d="M210.26,70.82h-10.22s-.07,0-.11,0c-3.51-.08-6.37-.93-8.52-2.51-.14.17-.29.34-.45.5-.09.09-.19.18-.29.26-1.24,1.04-2.84,1.61-4.5,1.61h-7.7c-1.62,0-3.22-.54-4.43-1.5-.37-.28-.7-.6-.99-.94-2.16,1.63-5.05,2.5-8.61,2.58-.04,0-.07,0-.11,0h-10.22c-2.02,0-3.87-.74-5.21-2.09-1.32-1.32-2.02-3.03-2.02-4.93v-3.85c0-1.9.7-3.61,2.01-4.93,1.03-1.03,2.35-1.7,3.81-1.97-1.43-.33-2.71-1.06-3.69-2.14-1.35-1.4-2.06-3.13-2.06-5.04V12.13c0-1.84.69-3.49,2.06-4.91.97-1.06,2.68-2.25,5.45-2.25h6.37c.37,0,.73.02,1.08.07.25-.91.67-1.72,1.27-2.45.08-.1.17-.2.26-.29,1.2-1.21,2.81-1.82,4.8-1.82h39.41c1.98,0,3.6.61,4.8,1.81.09.1.19.19.27.3,1.06,1.28,1.6,2.81,1.6,4.56v28.93c.56.27,1.12.64,1.62,1.14.1.1.19.2.28.3,1.08,1.29,1.6,3.08,1.6,5.47v2.8c0,1.88-.47,3.48-1.4,4.78-.08.11-.16.21-.25.31-.75.87-2.04,1.88-4.17,2.22,1.32.3,2.5.95,3.44,1.89,1.32,1.32,2.02,3.03,2.02,4.93v3.85c0,1.91-.7,3.61-2.02,4.93-1.35,1.35-3.2,2.09-5.21,2.09ZM200.1,61.82h3.48c-1.47-.25-2.8-.93-3.85-1.98-1.33-1.32-2.07-3.14-2.09-5.12h-1.57v3.9c0,1.15.2,2,.56,2.34.14.13.97.8,3.47.86ZM160.83,61.82h3.46c2.5-.07,3.33-.73,3.47-.87.35-.33.55-1.19.55-2.33v-3.9h-1.57c-.02,1.98-.76,3.8-2.09,5.12-1.06,1.06-2.36,1.73-3.82,1.98ZM180.6,61.68h3.25v-12.93c0-2.15,1.5-3.94,3.51-4.39h-10.27c2.01.45,3.51,2.25,3.51,4.39v12.93ZM155.96,44.24h6.83c-2.01-.45-3.51-2.25-3.51-4.39V13.97h-3.32v30.27ZM201.31,33.81h4.03V9.49h-3.87c.35.64.55,1.37.55,2.15v2.17c0,1.3-.55,2.47-1.43,3.29.88.82,1.43,1.99,1.43,3.29v2.17c0,1.28-.53,2.44-1.39,3.25.86.82,1.39,1.97,1.39,3.25v2.31c0,.9-.26,1.73-.71,2.43ZM170.66,33.81h3.96c-.45-.7-.71-1.53-.71-2.43v-2.31c0-1.28.53-2.44,1.39-3.25-.86-.82-1.39-1.97-1.39-3.25v-2.17c0-1.3.55-2.47,1.43-3.29-.88-.82-1.43-1.99-1.43-3.29v-2.17c0-.78.2-1.51.55-2.15h-3.8v24.32ZM207.72,9.49h.01-.01Z"/><path class="cls-3" d="M56.94,69.25H13.74c-2.08,0-3.77-.5-5.01-1.49-2.05-1.61-2.05-4.43-2.05-5.36v-15.26c0-2.87,1.03-4.44,1.92-5.26,1.21-1.18,3.01-1.8,5.21-1.8h1.64c-.44-1.23-.44-2.41-.44-2.95v-7.43c-.69.23-1.42.35-2.18.35h-5.32c-.8,0-3.23,0-4.73-1.75-.06-.07-.11-.14-.16-.21-.73-1.03-1.12-2.4-1.12-3.98v-11.48c0-2.05.4-3.48,1.25-4.51.06-.07.12-.13.18-.2,1.01-1.02,2.51-1.51,4.58-1.51h16.69c.09-1.33.6-2.49,1.49-3.39.98-.98,2.35-1.51,3.88-1.51h11.69c1.6,0,2.97.57,3.89,1.6.84.88,1.32,2.02,1.41,3.3h16.76c1.97,0,3.42.5,4.44,1.51.06.06.12.13.18.2.86,1.03,1.25,2.46,1.25,4.51v11.62c0,1.34-.33,2.53-1.02,3.62-.08.13-.17.25-.26.36-.71.83-2.08,1.82-4.59,1.82h-5.74c-.73,0-1.36-.09-1.9-.24v7.18c0,1.18-.16,2.22-.48,3.09h1.82c1.97,0,3.68.61,4.95,1.75,1.35,1.22,2.04,3.03,2.04,5.38v15.05c0,2.69-.78,4.6-2.33,5.68-.04.03-.07.05-.11.07-1.29.82-2.85,1.24-4.62,1.24ZM12.72,63.15c.2.05.52.1,1.02.1h43.19c.39,0,.73-.04,1-.12.03-.18.06-.46.06-.87v-15.05c0-.57-.08-.86-.12-.96-.17-.11-.49-.17-.87-.17h-15.05c-1.66,0-3-1.34-3-3v-2.17c0-1.66,1.34-3,3-3h6.58c.62,0,.93-.06,1.07-.1.03-.16.06-.42.06-.82v-11.27c0-.52-.08-.82-.13-.95-.12-.04-.39-.11-.93-.11h-26.39c-.62,0-.95.07-1.12.11-.03.13-.08.43-.08.88v11.48c0,.31.02.53.04.69.21.05.56.1,1.09.1h6.58c1.66,0,3,1.34,3,3v2.17c0,1.66-1.34,3-3,3h-14.91c-.54,0-.88.08-1.03.14-.04.14-.1.43-.1.92v15.26c0,.34.02.59.04.75ZM12.43,63.04s0,0,0,0c0,0,0,0,0,0ZM12.65,46.3s0,0,0,0c0,0,0,0,0,0ZM57.77,24.04h5.41v-11.42c0-.08,0-.15,0-.22h-19.61c-1.66,0-3-1.34-3-3v-1.9h-10.38s0,1.9,0,1.9c0,1.66-1.34,3-3,3H7.5c0,.07,0,.14,0,.22v11.42h5.33s.05,0,.08,0v-4.98c0-1.66,1.35-3,3-3h38.85c1.66,0,3,1.34,3,3v4.98ZM46.92,59.17h-23.24c-1.66,0-3-1.34-3-3v-3.08c0-1.66,1.34-3,3-3h23.24c1.66,0,3,1.34,3,3v3.08c0,1.66-1.34,3-3,3ZM40.2,35.36h-9.8c-1.66,0-3-1.34-3-3v-2.24c0-1.66,1.34-3,3-3h9.8c1.66,0,3,1.34,3,3v2.24c0,1.66-1.34,3-3,3Z"/><path class="cls-3" d="M132.09,69.32h-6.44c-3.61,0-5.94-2.28-5.94-5.8v-.99h-8.9c-1.77,0-3.33-.42-4.62-1.24-.04-.02-.08-.05-.11-.07-.15-.11-.29-.22-.42-.33-1.03.97-2.41,1.51-3.94,1.51h-21.42c-1.76,0-3.31-.63-4.36-1.78-1.08-1.11-1.65-2.47-1.65-3.95V17.87c0-1.45.56-2.75,1.65-3.88,1.05-1.15,2.59-1.78,4.36-1.78h2.31c.41,0,.81.04,1.2.11v-4.32c0-.11,0-.22.02-.33.15-1.32.74-2.54,1.7-3.54.76-.83,2.1-1.79,4.29-1.79h2.38c1.67,0,3.17.66,4.22,1.86.84.96,1.41,2.04,1.65,3.15.05.21.07.43.07.65v4.33c.41-.08.83-.12,1.27-.12h2.31c.46,0,.92.05,1.35.14.18-1.45.65-2.54,1.43-3.32.06-.06.13-.13.2-.18,1.01-.84,2.38-1.25,4.16-1.25h6.8c.03-1.46.51-2.74,1.44-3.8,1.05-1.21,2.5-1.87,4.08-1.87h3.29c1.51,0,2.97.68,4.01,1.86.97,1.11,1.48,2.39,1.51,3.81h6.87c2.06,0,3.53.47,4.5,1.44,1.02,1.02,1.51,2.56,1.51,4.71v3.01c0,1.71-.42,3.05-1.28,4.1-.45.58-1.01.98-1.58,1.25.35.2.68.44,1,.72,1.1.95,1.72,2.38,1.72,4.01v4.06c0,1.15-.31,2.21-.89,3.07.92,1.3,1.03,2.95,1.03,4.14v3.01c0,1.68-.43,3.06-1.28,4.1-.65.85-1.53,1.3-2.37,1.55v15.14c0,1.58-.17,3.88-1.6,5.49-.04.04-.08.09-.12.13-1.19,1.19-3.01,1.79-5.41,1.79ZM125.71,63.32h6.38c.49,0,.82-.04,1.04-.09.05-.25.1-.67.1-1.32v-17.85c0-1.66,1.34-3,3-3h.64v-2.95c0-.08,0-.15,0-.22h-27.88c0,.07,0,.14,0,.22v2.95h19.33c1.66,0,3,1.34,3,3v13.44c0,1.66-1.34,3-3,3h-2.17c-.15,0-.29-.01-.43-.03v2.85ZM119.53,56.53h3.25c.17,0,.34.01.5.04.05-.22.07-.51.07-.89v-5.95c0-.47-.05-.74-.09-.88-.15-.04-.49-.11-1.11-.11h-2.49c.9.52,1.5,1.49,1.5,2.6v2.52c0,1.16-.66,2.17-1.63,2.67ZM109.8,56.4c.27.08.61.12,1,.12h2.69c-.97-.5-1.63-1.51-1.63-2.67v-2.52c0-1.11.6-2.08,1.5-2.6h-2.63c-.52,0-.78.07-.88.11-.04.12-.11.4-.11.95v5.74c0,.41.03.68.06.87ZM80.27,56.38h21.33s.03-.08.05-.13V18.21h-2.25s0,0,0,0v30.6c0,1.66-1.34,3-3,3h-1.26c-1.66,0-3-1.34-3-3V8.49s-.05-.09-.09-.15h-2.24v40.47c0,1.66-1.34,3-3,3h-1.26c-1.66,0-3-1.34-3-3v-30.6h-2.25s0,0-.01,0v38.17ZM109.03,41.62h0,0ZM122.78,27.33c.72,0,1.44.26,2.01.77,1.55,1.4,4.42,2.2,8.3,2.31h3.63s0-3.1,0-3.1h-.36c-4.31,0-7.37-.87-9.36-2.66-1.16-1.04-1.96-2.48-2.38-4.27-.21-.89,0-1.83.57-2.55.57-.72,1.44-1.14,2.35-1.14h9.32v-2.95c0-.05,0-.1,0-.15h-9.88c-1.66,0-3-1.34-3-3v-2.67h-2.33v2.67c0,1.66-1.35,3-3,3h-9.67s0,.1,0,.15v2.95h9.11c.95,0,1.84.45,2.4,1.2.57.76.74,1.74.48,2.64-.52,1.78-1.31,3.12-2.41,4.11-1.99,1.79-5.05,2.66-9.36,2.66h-.36v3.1h3.79c3.74-.11,6.59-.91,8.14-2.31.57-.51,1.29-.77,2.01-.77ZM137.04,27.34s.02.02.03.02c0,0-.01-.02-.03-.02ZM82.65,18.25h0,0ZM124.46,7.92h0,0Z"/><path class="cls-3" d="M210.26,69.32h-10.22c-3.76-.09-6.62-1.07-8.57-2.92-.15-.15-.3-.29-.44-.45-.24.69-.62,1.3-1.12,1.79-.06.06-.13.12-.19.18-.97.81-2.23,1.26-3.54,1.26h-7.7c-1.29,0-2.57-.43-3.52-1.19-.72-.54-1.24-1.26-1.55-2.11-.16.18-.32.35-.5.52-1.96,1.85-4.82,2.84-8.5,2.92h-10.29c-1.62,0-3.09-.58-4.15-1.65-1.05-1.05-1.58-2.35-1.58-3.87v-3.85c0-1.52.53-2.82,1.58-3.87,1.06-1.06,2.54-1.65,4.15-1.65h5.12v-1.62c0-.36.04-.71.11-1.06h-4.87c-1.75,0-3.26-.64-4.36-1.86-1.08-1.11-1.65-2.5-1.65-4.01V12.13c0-1.45.56-2.75,1.65-3.88.76-.83,2.12-1.78,4.36-1.78h6.37c.83,0,1.61.15,2.32.45.02-.92.21-2.19,1.18-3.36.06-.07.11-.13.18-.19,1.37-1.38,3.15-1.38,3.74-1.38h39.41c.59,0,2.37,0,3.74,1.37.06.06.12.13.18.2.84,1.01,1.25,2.19,1.25,3.6v29.05c0,.31-.02.6-.06.89.76.2,1.5.56,2.13,1.19.06.06.13.13.18.2.84,1.01,1.25,2.49,1.25,4.51v2.8c0,1.56-.38,2.87-1.12,3.91-.05.07-.11.14-.16.21-.71.83-2.08,1.82-4.59,1.82h-5.43c.07.35.1.7.1,1.06v1.62h5.12c1.61,0,3.09.59,4.15,1.65,1.05,1.05,1.58,2.35,1.58,3.87v3.85c0,1.52-.53,2.82-1.58,3.87-1.06,1.06-2.54,1.65-4.15,1.65ZM194.57,53.21v5.4c0,1.63.34,2.78,1.03,3.43.82.77,2.42,1.23,4.52,1.28h9.88v-2.89h-5.12c-1.57,0-3.02-.59-4.08-1.66-1.06-1.06-1.65-2.53-1.65-4.15v-1.41h-4.57ZM154.39,63.31h9.95c2.02-.04,3.63-.5,4.45-1.27.68-.64,1.02-1.8,1.02-3.42v-5.4h-4.57v1.41c0,1.62-.59,3.09-1.65,4.15-1.08,1.08-2.49,1.65-4.08,1.65h-5.12v2.88ZM179.1,63.18h6.25v-14.43c0-1.66,1.34-3,3-3h21.99v-2.74c0-.05,0-.1,0-.15h-46.56c-1.66,0-3-1.34-3-3V12.47h-6.31s0,0,0,0v33.27h21.64c1.66,0,3,1.34,3,3v14.43ZM170.15,53.23h0s0,0,0,0ZM169.16,35.31h37.68V7.99s-37.68,0-37.68,0v27.32ZM207.86,8h0,0ZM197.52,34.38h-19.11c-1.66,0-3-1.34-3-3v-2.31c0-1.66,1.34-3,3-3h19.11c1.66,0,3,1.34,3,3v2.31c0,1.66-1.34,3-3,3ZM197.52,25.56h-19.11c-1.66,0-3-1.34-3-3v-2.17c0-1.66,1.34-3,3-3h19.11c1.66,0,3,1.34,3,3v2.17c0,1.66-1.34,3-3,3ZM197.52,16.81h-19.11c-1.66,0-3-1.34-3-3v-2.17c0-1.66,1.34-3,3-3h19.11c1.66,0,3,1.34,3,3v2.17c0,1.66-1.34,3-3,3Z"/><path class="cls-2" d="M57.57,27.04c-1.05,0-1.75-.28-2.17-.77-.42-.56-.63-1.19-.63-2.03v-5.18H15.91v5.18c0,.98-.35,1.68-.98,2.17-.56.42-1.33.63-2.1.63h-5.32c-1.19,0-2.03-.21-2.45-.7-.35-.49-.56-1.26-.56-2.24v-11.48c0-1.33.21-2.17.56-2.59.42-.42,1.26-.63,2.45-.63h19.67v-2.59c0-.7.21-1.26.63-1.68.42-.42,1.05-.63,1.75-.63h11.69c.7,0,1.33.21,1.68.63.42.42.63.98.63,1.68v2.59h19.74c1.12,0,1.89.21,2.31.63.35.42.56,1.26.56,2.59v11.62c0,.84-.21,1.47-.56,2.03-.42.49-1.19.77-2.31.77h-5.74ZM10.59,65.41c-.63-.49-.91-1.54-.91-3.01v-15.26c0-1.47.35-2.52.98-3.08.63-.63,1.75-.98,3.15-.98h14.91v-2.17h-6.58c-1.47,0-2.52-.28-3.15-.77-.7-.56-.98-1.54-.98-3.01v-11.48c0-1.4.35-2.45.98-3.08.7-.63,1.75-.91,3.22-.91h26.39c1.33,0,2.31.28,3.01.91.7.7,1.05,1.75,1.05,3.15v11.27c0,1.61-.35,2.66-1.12,3.15-.7.56-1.68.77-3.01.77h-6.58v2.17h15.05c1.26,0,2.24.35,2.94.98.7.63,1.05,1.68,1.05,3.15v15.05c0,1.61-.35,2.73-1.05,3.22-.77.49-1.75.77-3.01.77H13.74c-1.4,0-2.45-.28-3.15-.84ZM46.92,53.08h-23.24v3.08h23.24v-3.08ZM40.2,30.12h-9.8v2.24h9.8v-2.24Z"/><path class="cls-2" d="M84.69,16.05c.56.56.84,1.12.84,1.82v30.94h1.26V8c.07-.63.35-1.26.91-1.82.49-.56,1.19-.84,2.1-.84h2.38c.77,0,1.47.28,1.96.84s.84,1.19.98,1.82v40.81h1.26v-30.94c.07-.7.35-1.26.84-1.82.56-.56,1.26-.84,2.17-.84h2.31c.84,0,1.54.28,2.1.84.56.56.84,1.12.84,1.82v38.71c-.14.77-.42,1.4-.91,1.96-.49.56-1.19.84-2.03.84h-21.42c-.91,0-1.68-.28-2.17-.84-.56-.56-.84-1.19-.84-1.89V17.87c0-.7.28-1.26.84-1.82.49-.56,1.26-.84,2.17-.84h2.31c.84,0,1.54.28,2.1.84ZM124.46,4.92c.63,0,1.26.28,1.75.84s.77,1.19.77,1.96v2.87h9.87c1.19,0,2.03.21,2.38.56.42.42.63,1.33.63,2.59v3.01c0,1.05-.21,1.75-.63,2.24-.35.49-1.19.7-2.38.7h-9.31c.28,1.19.77,2.1,1.47,2.73,1.4,1.26,3.85,1.89,7.35,1.89h.77c.77.07,1.33.28,1.89.77.49.42.7,1.05.7,1.75v4.06c0,.7-.21,1.33-.7,1.75-.56.49-1.12.7-1.89.77h-4.13c-4.69-.14-8.12-1.19-10.22-3.08-2.1,1.89-5.46,2.94-10.15,3.08h-4.2c-.7-.07-1.33-.28-1.82-.77-.49-.42-.77-1.05-.77-1.75v-4.06c0-.7.28-1.33.77-1.75.49-.49,1.12-.7,1.82-.77h.77c3.5,0,5.95-.63,7.35-1.89.7-.63,1.19-1.54,1.54-2.73h-9.24c-1.12,0-1.82-.21-2.24-.7-.42-.49-.63-1.19-.63-2.24v-3.01c0-1.26.21-2.17.63-2.59.42-.35,1.12-.56,2.24-.56h9.8v-2.87c0-.77.21-1.4.7-1.96.49-.56,1.12-.84,1.82-.84h3.29ZM106.61,43.35c-.42-.49-.63-1.26-.63-2.24v-3.01c0-1.33.21-2.17.63-2.59s1.12-.63,2.24-.63h28c1.19,0,2.03.21,2.38.63.42.42.63,1.26.63,2.59v3.01c0,.98-.21,1.75-.63,2.24-.35.49-1.19.7-2.38.7h-.63v17.85c0,1.75-.28,2.87-.84,3.5-.56.56-1.68.91-3.29.91h-6.44c-1.96,0-2.94-.98-2.94-2.8v-3.08c0-.35,0-.63.07-.91h-11.97c-1.26,0-2.24-.28-3.01-.77-.7-.49-1.05-1.54-1.05-3.22v-5.74c0-1.47.35-2.52,1.05-3.15.7-.63,1.68-.91,2.94-.91h11.41c1.47,0,2.52.28,3.22.91.63.63.98,1.61.98,3.08v5.95c0,.77-.07,1.33-.21,1.82h2.17v-13.44h-19.46c-1.12,0-1.82-.21-2.24-.7ZM118.16,53.86v-2.52h-3.29v2.52h3.29Z"/><path class="cls-2" d="M170.29,50.21c.7.07,1.33.28,1.75.77.49.49.77,1.12.77,1.82v5.81c0,2.45-.63,4.34-1.96,5.6-1.33,1.26-3.5,2.03-6.51,2.1h-10.22c-.84,0-1.54-.28-2.03-.77-.49-.49-.7-1.05-.7-1.75v-3.85c0-.7.21-1.26.7-1.75.49-.49,1.19-.77,2.03-.77h5.39c.84,0,1.47-.28,1.96-.77.49-.49.77-1.19.77-2.03v-1.82c0-.7.28-1.33.77-1.82s1.12-.7,1.82-.77h5.46ZM188.35,48.74v15.26c0,.7-.21,1.26-.56,1.61-.42.35-.98.56-1.61.56h-7.7c-.63,0-1.26-.21-1.68-.56-.49-.35-.7-.91-.7-1.61v-15.26h-21.63c-.98,0-1.68-.35-2.17-.91-.56-.56-.84-1.19-.84-1.96V12.13c0-.7.28-1.26.84-1.82.49-.56,1.19-.84,2.17-.84h6.37c.84,0,1.54.28,2.1.84s.84,1.12.84,1.82v27.72h46.7c1.12,0,1.89.14,2.31.56.35.42.56,1.33.56,2.59v2.8c0,.98-.21,1.68-.56,2.17-.42.49-1.19.77-2.31.77h-22.12ZM209.29,5.48c.35.42.56.91.56,1.68v29.05c0,.7-.21,1.26-.56,1.61-.35.35-.84.49-1.61.49h-39.41c-.77,0-1.26-.14-1.61-.49-.35-.35-.49-.91-.49-1.61V7.16c0-.77.14-1.26.49-1.68.35-.35.84-.49,1.61-.49h39.41c.77,0,1.26.14,1.61.49ZM197.52,11.64h-19.11v2.17h19.11v-2.17ZM197.52,20.39h-19.11v2.17h19.11v-2.17ZM197.52,29.07h-19.11v2.31h19.11v-2.31ZM201.37,50.98c.49.49.77,1.12.77,1.82v1.82c0,.84.28,1.54.77,2.03.49.49,1.19.77,1.96.77h5.39c.84,0,1.54.28,2.03.77s.7,1.05.7,1.75v3.85c0,.7-.21,1.26-.7,1.75s-1.19.77-2.03.77h-10.22c-3.01-.07-5.18-.84-6.51-2.1-1.33-1.26-1.96-3.15-1.96-5.6v-5.81c0-.7.28-1.33.77-1.82.42-.49,1.05-.7,1.75-.77h5.46c.7.07,1.33.28,1.82.77Z"/></g></svg>