<?xml version="1.0" encoding="UTF-8"?><svg id="_レイヤー_2" xmlns="http://www.w3.org/2000/svg" viewBox="0 0 218.08 70.75"><defs><style>.cls-1,.cls-2,.cls-3{stroke-width:0px;}.cls-2{fill:#198caa;}.cls-3{fill:#fff;}</style></defs><g id="_レイヤー_4"><path class="cls-1" d="M5.06,65.34c-.42-.49-.56-1.19-.56-2.17V19.48c0-.7.14-1.26.56-1.61.42-.35.98-.56,1.68-.56h9.87c.7,0,1.26.21,1.75.56.42.35.7.91.7,1.61v33.88h8.82V6.6c0-.7.21-1.19.63-1.61.35-.35.91-.49,1.61-.49h9.8c.7,0,1.26.14,1.75.49.42.42.7.91.7,1.61v46.77h8.89V19.48c0-.7.28-1.26.7-1.61.49-.35,1.05-.56,1.75-.56h9.87c.7,0,1.26.21,1.61.56.42.35.56.91.56,1.61v43.69c0,.98-.14,1.68-.56,2.17s-1.26.77-2.38.77H7.37c-1.12,0-1.89-.28-2.31-.77Z"/><path class="cls-1" d="M102.54,42.44v-4.27c0-.7.21-1.19.56-1.54.42-.35.91-.56,1.47-.56l-4.62-4.41v6.16c-.07.77-.35,1.4-.84,1.96-.56.49-1.26.77-2.17.77h-4.2c-.84,0-1.54-.28-2.1-.77-.56-.56-.84-1.19-.84-1.96v-6.09l-7.91,7.14c-.77.63-1.47.7-2.1.14-.56-.56-.77-1.26-.77-2.03v-3.71c0-1.12.14-1.82.56-2.17.35-.42,1.12-1.19,2.31-2.45l2.59-2.24h-3.01c-1.05,0-1.82-.21-2.24-.7s-.63-1.26-.63-2.24v-1.61c0-1.33.21-2.24.63-2.59.42-.42,1.19-.63,2.24-.63h8.33v-1.54h-6.79c-.77,0-1.33-.28-1.89-.7-.49-.49-.7-1.05-.7-1.82v-3.22c0-.7.21-1.33.7-1.75.56-.49,1.12-.7,1.89-.77h14.7c.91,0,1.54-.14,1.89-.35.28-.28.42-.7.42-1.19,0-.56.28-1.12.77-1.68s1.05-.84,1.75-.84h4.83c.7,0,1.33.28,1.82.84s.77,1.19.77,1.96v2.8c0,2.31-.49,3.92-1.4,4.76-.98.91-2.73,1.33-5.32,1.33h-3.29v2.17h8.19c1.19,0,2.03.21,2.38.63.42.35.63,1.26.63,2.59v1.61c0,.98-.21,1.75-.63,2.24-.35.49-1.19.7-2.38.7h-2.87l2.59,2.24c1.19,1.26,1.96,2.03,2.38,2.45.42.35.56,1.05.49,2.17v2.8h2.17c.63,0,1.19.14,1.68.56.42.35.63.84.63,1.54v4.27h21c1.26,0,2.17.21,2.73.7.56.56.77,1.4.77,2.66v2.52c0,1.05-.21,1.96-.77,2.59-.49.63-1.4.91-2.66.91h-7.28v2.17c0,.77.28,1.47.77,1.96s1.12.77,1.96.77h5.39c.84,0,1.47.28,2.03.77.49.49.7,1.05.7,1.75v4.41c0,.7-.21,1.33-.7,1.82-.56.49-1.19.7-2.03.7h-10.22c-3.01,0-5.18-.56-6.51-1.82s-1.96-3.15-1.96-5.6v-6.93h-3.08v12.32c0,.7-.21,1.19-.63,1.61-.35.35-.91.49-1.54.49h-8.26c-.63,0-1.26-.14-1.68-.49-.49-.42-.7-.91-.7-1.61v-12.32h-3.15v6.93c0,2.45-.63,4.34-1.96,5.6-1.33,1.26-3.5,1.82-6.51,1.82h-10.22c-.84,0-1.54-.21-2.03-.7-.49-.49-.7-1.12-.7-1.82v-4.41c0-.7.21-1.26.7-1.75s1.19-.77,2.03-.77h5.39c.84,0,1.47-.28,1.96-.77.49-.49.77-1.19.77-1.96v-2.17h-7.21c-1.26,0-2.17-.28-2.73-.91-.56-.63-.84-1.47-.84-2.52v-2.66c0-1.19.21-2.03.77-2.52.56-.56,1.47-.77,2.73-.77h21ZM123.47,29.07c-.56.56-1.26.84-2.03.84h-5.32c-.98,0-1.68-.28-2.17-.84-.56-.56-.84-1.19-.84-1.89V7.37c0-.7.28-1.33.84-1.89.49-.56,1.19-.77,2.17-.77h5.32c.77,0,1.47.21,2.03.77.63.56.91,1.19.91,1.89v19.81c0,.7-.28,1.33-.91,1.89ZM137.26,39.57c-.56.56-1.61.84-3.29.84h-9.1c-1.96,0-2.94-.91-2.94-2.73v-3.43c0-1.89.98-2.87,2.94-2.87h2.17V7.51c0-1.12.21-1.82.63-2.24.42-.35,1.26-.49,2.45-.49h4.9c1.26,0,2.1.14,2.52.49.35.42.56,1.12.56,2.24v28.56c0,1.75-.28,2.87-.84,3.5Z"/><path class="cls-1" d="M170.53,50.07c.7.07,1.33.28,1.75.77.49.49.77,1.12.77,1.82v5.81c0,2.45-.63,4.34-1.96,5.6-1.33,1.26-3.5,2.03-6.51,2.1h-10.22c-.84,0-1.54-.28-2.03-.77-.49-.49-.7-1.05-.7-1.75v-3.85c0-.7.21-1.26.7-1.75.49-.49,1.19-.77,2.03-.77h5.39c.84,0,1.47-.28,1.96-.77.49-.49.77-1.19.77-2.03v-1.82c0-.7.28-1.33.77-1.82s1.12-.7,1.82-.77h5.46ZM188.59,48.6v15.26c0,.7-.21,1.26-.56,1.61-.42.35-.98.56-1.61.56h-7.7c-.63,0-1.26-.21-1.68-.56-.49-.35-.7-.91-.7-1.61v-15.26h-21.63c-.98,0-1.68-.35-2.17-.91-.56-.56-.84-1.19-.84-1.96V11.99c0-.7.28-1.26.84-1.82.49-.56,1.19-.84,2.17-.84h6.37c.84,0,1.54.28,2.1.84.56.56.84,1.12.84,1.82v27.72h46.69c1.12,0,1.89.14,2.31.56.35.42.56,1.33.56,2.59v2.8c0,.98-.21,1.68-.56,2.17-.42.49-1.19.77-2.31.77h-22.12ZM209.52,5.34c.35.42.56.91.56,1.68v29.05c0,.7-.21,1.26-.56,1.61-.35.35-.84.49-1.61.49h-39.41c-.77,0-1.26-.14-1.61-.49-.35-.35-.49-.91-.49-1.61V7.02c0-.77.14-1.26.49-1.68.35-.35.84-.49,1.61-.49h39.41c.77,0,1.26.14,1.61.49ZM197.76,11.5h-19.11v2.17h19.11v-2.17ZM197.76,20.25h-19.11v2.17h19.11v-2.17ZM197.76,28.93h-19.11v2.31h19.11v-2.31ZM201.61,50.84c.49.49.77,1.12.77,1.82v1.82c0,.84.28,1.54.77,2.03.49.49,1.19.77,1.96.77h5.39c.84,0,1.54.28,2.03.77s.7,1.05.7,1.75v3.85c0,.7-.21,1.26-.7,1.75s-1.19.77-2.03.77h-10.22c-3.01-.07-5.18-.84-6.51-2.1-1.33-1.26-1.96-3.15-1.96-5.6v-5.81c0-.7.28-1.33.77-1.82.42-.49,1.05-.7,1.75-.77h5.46c.7.07,1.33.28,1.82.77Z"/><path class="cls-2" d="M62.82,70.61H7.37c-3.07,0-4.81-1.27-5.72-2.34h0c-1.47-1.72-1.65-3.73-1.65-5.1V19.48c0-2.69,1.19-4.24,2.18-5.07,1.25-1.04,2.83-1.6,4.56-1.6h9.87c1.6,0,3.06.47,4.36,1.4.09.07.18.13.27.21,1.08.9,1.82,2.13,2.14,3.5V6.6c0-1.86.67-3.51,1.94-4.79.83-.83,2.33-1.81,4.8-1.81h9.8c1.66,0,3.13.45,4.36,1.32.21.15.4.31.58.49,1.66,1.67,2.01,3.52,2.01,4.79v11.65c.27-1.51,1.05-2.87,2.21-3.84.08-.07.17-.14.26-.2,1.3-.93,2.77-1.4,4.37-1.4h9.87c1.81,0,3.45.62,4.65,1.74.96.86,2.02,2.38,2.02,4.93v43.69c0,1.37-.17,3.38-1.64,5.1-.92,1.07-2.66,2.34-5.8,2.34ZM9,61.61h52.26V21.81h-5.49v31.55c0,2.49-2.01,4.5-4.5,4.5h-8.89c-2.49,0-4.5-2.01-4.5-4.5V9h-5.49v44.37c0,2.49-2.01,4.5-4.5,4.5h-8.82c-2.49,0-4.5-2.01-4.5-4.5v-31.55h-5.56v39.79Z"/><path class="cls-2" d="M113.18,70.75h-8.26c-1.78,0-3.36-.53-4.56-1.53-.26-.22-.54-.49-.8-.8-2.1,1.52-4.95,2.26-8.65,2.26h-10.22c-2.64,0-4.29-1.1-5.21-2.02-1.3-1.29-2.02-3.07-2.02-5v-4.41c0-1.91.7-3.61,2.02-4.93.07-.07.14-.14.22-.21-.06-.07-.13-.14-.19-.21-.9-1.01-1.97-2.79-1.97-5.51v-2.66c0-.88,0-3.39,1.75-5.36-.45-.89-.77-2.01-.77-3.39v-3.71c0-.87,0-2.94,1.27-4.66-1.12-1.32-1.69-3.05-1.69-5.14v-1.61c0-.99,0-3.89,1.96-5.79-.09-.48-.14-.98-.14-1.5v-3.22c0-2.08.81-3.91,2.27-5.17,1.21-1.06,2.67-1.67,4.41-1.83.14-.01.27-.02.41-.02h13.24c.3-.58.68-1.14,1.16-1.68,1.36-1.55,3.14-2.38,5.14-2.38h4.83c1.52,0,2.94.48,4.12,1.36,1.23-.95,2.78-1.43,4.63-1.43h5.32c1.72,0,3.04.51,4.01,1.13,1.5-.92,3.25-1.06,4.67-1.06h4.9c1.66,0,3.77.17,5.4,1.53.21.17.4.37.58.58,1.08,1.29,1.6,2.97,1.6,5.12v28.56c0,1.09-.07,2.49-.51,3.86l.04.04c2.08,2.09,2.08,4.91,2.08,5.84v2.52c0,2.22-.61,4.06-1.81,5.47-.09.1-.18.21-.28.32.07.06.14.13.21.2,1.32,1.32,2.02,3.03,2.02,4.93v4.41c0,1.93-.72,3.71-2.03,5.01-.07.07-.14.13-.21.2-1.38,1.21-3.06,1.82-5,1.82h-10.22c-3.66,0-6.48-.72-8.57-2.21-.13.16-.28.32-.43.47-.83.83-2.32,1.81-4.72,1.81ZM107.04,61.75h3.81v-9.92c0-2.49,2.01-4.5,4.5-4.5h3.08c2.49,0,4.5,2.01,4.5,4.5v6.93c0,1.13.21,2.01.55,2.33,0,0,.65.59,3.42.59h8.45v-.45h-3.62c-2,0-3.78-.72-5.14-2.09-1.35-1.35-2.09-3.17-2.09-5.14v-2.17c0-2.49,2.01-4.5,4.5-4.5h6.21v-.38h-20c-2.49,0-4.5-2.01-4.5-4.5v-1.87c-1.18,0-2.26-.47-3.06-1.22-.19.18-.39.34-.61.48v2.61c0,2.49-2.01,4.5-4.5,4.5h-20v.38h6.28c2.49,0,4.5,2.01,4.5,4.5v2.17c0,1.97-.74,3.8-2.09,5.14-1.36,1.37-3.14,2.09-5.14,2.09h-3.62v.45h8.45c2.76,0,3.41-.58,3.42-.59.35-.33.56-1.2.56-2.33v-6.93c0-2.49,2.01-4.5,4.5-4.5h3.15c2.49,0,4.5,2.01,4.5,4.5v9.92ZM94.3,36.05h1.15v-4.39c0-1.8,1.07-3.43,2.73-4.14.86-.37,1.79-.45,2.67-.27-.15-.79-.09-1.62.2-2.41.25-.66.64-1.24,1.13-1.7h-2.23c-2.49,0-4.5-2.01-4.5-4.5v-2.17c0-1.22.48-2.32,1.27-3.13h-4.45c1.22.8,2.03,2.19,2.03,3.76v1.54c0,2.49-2.01,4.5-4.5,4.5h-2.23c.49.46.88,1.04,1.13,1.7.3.81.36,1.67.19,2.48.9-.19,1.86-.1,2.74.29,1.62.72,2.67,2.33,2.67,4.11v4.32ZM126.43,35.91h7.17s0-26.63,0-26.63h-2.06v22.1c0,2.49-2.01,4.5-4.5,4.5l-.61.03ZM110.73,33.27h0,0ZM117.61,25.41h2.27V9.21h-2.27v16.2ZM102.45,11.97h.79c1.1,0,1.75-.09,2.1-.17.06-.28.12-.73.12-1.42v-1.1h-1.24c-.29.91-.77,1.72-1.43,2.39-.11.11-.22.21-.33.3Z"/><path class="cls-2" d="M210.5,70.68h-10.22s-.07,0-.11,0c-3.51-.08-6.37-.93-8.52-2.51-.14.17-.29.34-.44.49-.09.09-.19.18-.29.27-1.24,1.04-2.84,1.61-4.5,1.61h-7.7c-1.62,0-3.22-.54-4.43-1.5-.37-.28-.7-.59-.99-.94-2.16,1.63-5.05,2.5-8.61,2.58-.04,0-.07,0-.11,0h-10.22c-2.01,0-3.87-.74-5.21-2.09-1.32-1.32-2.02-3.03-2.02-4.93v-3.85c0-1.9.7-3.61,2.01-4.93,1.03-1.03,2.35-1.7,3.81-1.97-1.43-.33-2.71-1.06-3.69-2.14-1.35-1.39-2.06-3.13-2.06-5.04V11.99c0-1.84.69-3.49,2.06-4.91.97-1.06,2.68-2.25,5.45-2.25h6.37c.37,0,.73.02,1.08.07.25-.91.67-1.72,1.27-2.44.08-.1.17-.2.27-.29,1.2-1.21,2.81-1.82,4.8-1.82h39.41c1.99,0,3.6.61,4.8,1.82.09.09.18.19.27.29,1.06,1.28,1.6,2.81,1.6,4.56v28.93c.56.27,1.12.64,1.62,1.14.1.1.19.2.28.3,1.08,1.29,1.6,3.08,1.6,5.47v2.8c0,1.87-.47,3.48-1.4,4.78-.08.11-.16.21-.25.31-.75.87-2.04,1.88-4.17,2.22,1.32.3,2.5.95,3.44,1.89,1.32,1.32,2.02,3.03,2.02,4.93v3.85c0,1.91-.7,3.61-2.02,4.93-1.35,1.35-3.2,2.09-5.21,2.09ZM200.34,61.68h3.48c-1.47-.25-2.8-.93-3.85-1.98-1.32-1.32-2.07-3.14-2.09-5.12h-1.57v3.9c0,1.15.2,2,.56,2.34.14.13.97.8,3.47.86ZM161.06,61.68h3.46c2.5-.07,3.33-.73,3.47-.87.35-.33.55-1.18.55-2.33v-3.9h-1.57c-.02,1.98-.76,3.8-2.09,5.13-1.05,1.05-2.36,1.72-3.82,1.97ZM180.84,61.54h3.25v-12.93c0-2.14,1.5-3.94,3.51-4.39h-10.27c2.01.45,3.51,2.25,3.51,4.39v12.93ZM156.2,44.1h6.83c-2.01-.45-3.51-2.25-3.51-4.39V13.83h-3.32v30.27ZM201.55,33.67h4.03V9.35h-3.87c.35.64.55,1.37.55,2.15v2.17c0,1.3-.55,2.47-1.43,3.29.88.82,1.43,1.99,1.43,3.29v2.17c0,1.28-.53,2.44-1.39,3.25.86.82,1.39,1.97,1.39,3.25v2.31c0,.89-.26,1.73-.71,2.43ZM170.9,33.67h3.96c-.45-.7-.71-1.53-.71-2.43v-2.31c0-1.28.53-2.44,1.39-3.25-.86-.82-1.39-1.97-1.39-3.25v-2.17c0-1.3.55-2.47,1.43-3.29-.88-.82-1.43-1.99-1.43-3.29v-2.17c0-.78.2-1.51.55-2.15h-3.8v24.32ZM207.96,9.35h.01-.01Z"/><path class="cls-3" d="M62.82,69.11H7.37c-2.5,0-3.88-.99-4.59-1.82h0c-1.15-1.34-1.28-3-1.28-4.12V19.48c0-1.69.55-3.01,1.64-3.92.98-.82,2.23-1.25,3.6-1.25h9.87c1.28,0,2.45.38,3.49,1.12.06.04.12.09.18.14,1.13.94,1.78,2.37,1.78,3.92v30.88h2.82V6.6c0-1.47.51-2.73,1.5-3.73.91-.91,2.17-1.37,3.74-1.37h9.8c1.36,0,2.51.34,3.49,1.05.14.1.27.21.38.33,1.04,1.05,1.57,2.3,1.57,3.73v43.77h2.89v-30.88c0-1.54.65-2.97,1.78-3.92.06-.05.12-.09.18-.13,1.04-.74,2.21-1.12,3.49-1.12h9.87c1.43,0,2.71.48,3.63,1.34,1.02.9,1.54,2.19,1.54,3.83v43.69c0,1.13-.13,2.78-1.28,4.12-.71.83-2.09,1.82-4.66,1.82ZM7.5,63.11h55.26V20.31h-8.49s0,33.05,0,33.05c0,1.66-1.34,3-3,3h-8.89c-1.66,0-3-1.34-3-3V7.5h-8.49v45.87c0,1.66-1.34,3-3,3h-8.82c-1.66,0-3-1.34-3-3V20.31H7.5s0,42.79,0,42.79Z"/><path class="cls-3" d="M113.18,69.25h-8.26c-1.42,0-2.67-.41-3.6-1.18-.65-.56-1.13-1.21-1.42-1.94-.13.14-.27.28-.41.41-1.88,1.78-4.68,2.64-8.57,2.64h-10.22c-2.13,0-3.43-.86-4.15-1.58-1.03-1.03-1.58-2.39-1.58-3.94v-4.41c0-1.52.53-2.82,1.58-3.87.51-.51,1.12-.92,1.8-1.2-.67-.31-1.24-.74-1.71-1.27-.73-.82-1.6-2.27-1.6-4.51v-2.66c0-.78,0-3.14,1.72-4.71.15-.14.3-.28.46-.39-.62-.79-1.2-1.98-1.2-3.65v-3.71c0-.88,0-2.89,1.4-4.26.13-.14.29-.32.48-.52-.35-.23-.67-.51-.94-.83-.9-1.05-1.35-2.46-1.35-4.19v-1.61c0-1.45.17-3.51,1.6-4.8.17-.17.36-.32.57-.45-.23-.62-.34-1.3-.34-2.03v-3.22c0-1.63.62-3.06,1.75-4.03.99-.87,2.14-1.35,3.57-1.48.09,0,.18-.01.27-.01h14.24c.24-.76.67-1.49,1.29-2.2,1.07-1.22,2.45-1.87,4.01-1.87h4.83c1.58,0,3.03.66,4.08,1.87.02.02.04.04.06.06.08-.1.17-.19.26-.29,1.04-1.14,2.5-1.71,4.36-1.71h5.32c1.96,0,3.25.8,4.02,1.53.03-.03.06-.06.08-.09.06-.06.13-.13.2-.18,1.26-1.05,3-1.18,4.37-1.18h4.9c1.49,0,3.19.14,4.44,1.18.14.12.27.25.39.39.84,1.01,1.25,2.38,1.25,4.16v28.56c0,1.24-.1,2.9-.82,4.34.23.14.44.3.64.47.05.04.1.09.15.14,1.48,1.48,1.65,3.44,1.65,4.78v2.52c0,1.86-.49,3.38-1.46,4.51-.47.58-1.06,1.04-1.76,1.36.58.25,1.13.6,1.64,1.04.05.04.1.09.14.14,1.05,1.05,1.58,2.35,1.58,3.87v4.41c0,1.55-.55,2.91-1.58,3.94-.05.04-.09.09-.14.13-1.11.97-2.42,1.44-4.01,1.44h-10.22c-3.89,0-6.7-.86-8.57-2.64-.12-.11-.24-.23-.35-.35-.25.63-.63,1.19-1.13,1.7-.63.63-1.77,1.37-3.66,1.37ZM105.54,63.25h6.81v-11.42c0-1.66,1.34-3,3-3h3.08c1.66,0,3,1.34,3,3v6.93c0,1.63.34,2.78,1.02,3.42.39.37,1.5,1,4.45,1h9.95v-3.43s-5.12-.02-5.12-.02c-1.59,0-3-.57-4.08-1.65-1.06-1.06-1.65-2.51-1.65-4.08v-2.17c0-1.66,1.34-3,3-3h7.28c.17,0,.3,0,.4-.02.02-.11.03-.27.03-.48v-2.52c0-.13,0-.25,0-.34-.13-.01-.29-.02-.49-.02h-21c-1.66,0-3-1.34-3-3v-3.37h-1.48c-1.66,0-3-1.34-3-3v-2.8c0-.06,0-.12,0-.19,0-.09,0-.17,0-.24-.45-.45-1.09-1.11-1.96-2.03l-2.48-2.14c-.95-.82-1.29-2.14-.85-3.32.44-1.17,1.56-1.95,2.81-1.95h2.88v-1.55c0-.08,0-.15,0-.22h-8.2c-1.66,0-3-1.34-3-3v-2.17c0-1.66,1.34-3,3-3h3.29c2.68,0,3.27-.52,3.28-.53h0s.44-.57.44-2.56v-2.6h-3.96c-.1,1.1-.54,2.1-1.27,2.83-.18.18-.37.33-.59.46-.87.52-1.99.77-3.43.77h-14.29v2.26s6.38,0,6.38,0c1.66,0,3,1.34,3,3v1.54c0,1.66-1.34,3-3,3h-8.2c0,.07,0,.14,0,.22v1.55h2.88c1.25,0,2.37.78,2.81,1.95.44,1.17.1,2.5-.85,3.32l-2.48,2.14c-.41.44-.78.81-1.08,1.14-.37.38-.65.68-.85.9,0,.1-.01.24-.01.42v1.44l5.77-5.21c.88-.79,2.14-1,3.23-.51,1.08.48,1.78,1.56,1.78,2.74v5.82h4.15v-5.89c0-1.2.72-2.29,1.82-2.76,1.11-.47,2.38-.24,3.25.59l4.62,4.41c.89.85,1.17,2.15.71,3.29-.33.83-1,1.45-1.82,1.72v3.53c0,1.66-1.34,3-3,3h-21c-.21,0-.37,0-.5.02,0,.08,0,.17,0,.27v2.66c0,.18.02.31.04.39.11.02.29.04.54.04h7.21c1.66,0,3,1.34,3,3v2.17c0,1.57-.59,3.02-1.65,4.08-1.08,1.08-2.49,1.65-4.08,1.65h-5.12v3.45h9.95c2.95,0,4.05-.63,4.45-1,.68-.64,1.02-1.79,1.02-3.42v-6.93c0-1.66,1.34-3,3-3h3.15c1.66,0,3,1.34,3,3v11.42ZM118.21,39.44h.94c-.15-.54-.22-1.13-.22-1.76v-3.43c0-.47.04-.92.12-1.34h-2.93c-.94,0-1.72-.17-2.37-.42,0,.24,0,.45,0,.64,1.06.14,2,.55,2.79,1.23.75.62,1.68,1.82,1.68,3.82v1.27ZM85.73,39.44h1.3c-.1-.32-.16-.65-.2-.99l-1.1.99ZM124.93,37.41h9.04c.49,0,.82-.03,1.04-.06.04-.25.09-.66.09-1.28V7.78h-5.06v23.6c0,1.66-1.34,3-3,3h-2.11v3.03ZM110.73,33.27h0,0ZM116.11,26.91h5.27V7.71h-5.27v19.2ZM108.08,23.97s0,0,0,0c0,0,0,0,0,0ZM116.2,7.46s0,0,0,0c0,0,0,0,0,0ZM103.02,7.3h0s0,0,0,0Z"/><path class="cls-3" d="M210.5,69.18h-10.22c-3.76-.09-6.62-1.07-8.57-2.92-.15-.14-.3-.29-.44-.45-.24.69-.62,1.3-1.12,1.79-.06.06-.13.12-.2.18-.97.81-2.23,1.26-3.54,1.26h-7.7c-1.29,0-2.57-.43-3.52-1.19-.72-.54-1.24-1.26-1.55-2.11-.16.18-.33.35-.5.51-1.96,1.85-4.82,2.84-8.51,2.92h-10.29c-1.61,0-3.09-.58-4.15-1.65-1.05-1.05-1.58-2.35-1.58-3.87v-3.85c0-1.52.53-2.82,1.58-3.87,1.06-1.07,2.54-1.65,4.15-1.65h5.12v-1.62c0-.36.04-.71.11-1.06h-4.87c-1.75,0-3.26-.64-4.36-1.86-1.08-1.11-1.65-2.5-1.65-4.01V11.99c0-1.45.56-2.75,1.65-3.88.76-.83,2.12-1.78,4.36-1.78h6.37c.83,0,1.61.15,2.32.45.02-.92.21-2.19,1.18-3.36.06-.07.12-.13.18-.2,1.37-1.38,3.15-1.38,3.74-1.38h39.41c.59,0,2.37,0,3.74,1.38.06.06.12.13.18.2.84,1.01,1.25,2.19,1.25,3.6v29.05c0,.31-.02.6-.06.89.76.2,1.5.56,2.12,1.19.06.06.13.13.18.2.84,1.01,1.25,2.49,1.25,4.51v2.8c0,1.56-.38,2.87-1.12,3.91-.05.07-.11.14-.16.21-.71.83-2.08,1.82-4.59,1.82h-5.43c.07.35.1.7.1,1.06v1.62h5.12c1.61,0,3.09.59,4.15,1.65,1.05,1.05,1.58,2.35,1.58,3.87v3.85c0,1.52-.53,2.82-1.58,3.87-1.06,1.06-2.54,1.65-4.15,1.65ZM194.81,53.07v5.4c0,1.63.34,2.78,1.02,3.42.82.77,2.42,1.23,4.52,1.28h9.88v-2.89h-5.12c-1.57,0-3.02-.59-4.08-1.66-1.06-1.06-1.65-2.53-1.65-4.15v-1.41h-4.57ZM154.62,63.17h9.95c2.03-.04,3.63-.5,4.45-1.27.68-.64,1.02-1.8,1.02-3.42v-5.4h-4.57v1.41c0,1.62-.59,3.09-1.65,4.16-1.07,1.07-2.48,1.65-4.08,1.65h-5.12v2.88ZM179.34,63.04h6.25v-14.43c0-1.66,1.34-3,3-3h21.99v-2.74c0-.05,0-.1,0-.15h-46.56c-1.66,0-3-1.34-3-3V12.33h-6.31s0,0,0,0v33.27h21.64c1.66,0,3,1.34,3,3v14.43ZM169.4,35.17h37.68V7.85s-37.68,0-37.68,0v27.32ZM208.1,7.86h0,0ZM197.76,34.24h-19.11c-1.66,0-3-1.34-3-3v-2.31c0-1.66,1.34-3,3-3h19.11c1.66,0,3,1.34,3,3v2.31c0,1.66-1.34,3-3,3ZM197.76,25.42h-19.11c-1.66,0-3-1.34-3-3v-2.17c0-1.66,1.34-3,3-3h19.11c1.66,0,3,1.34,3,3v2.17c0,1.66-1.34,3-3,3ZM197.76,16.67h-19.11c-1.66,0-3-1.34-3-3v-2.17c0-1.66,1.34-3,3-3h19.11c1.66,0,3,1.34,3,3v2.17c0,1.66-1.34,3-3,3Z"/><path class="cls-2" d="M5.06,65.34c-.42-.49-.56-1.19-.56-2.17V19.48c0-.7.14-1.26.56-1.61.42-.35.98-.56,1.68-.56h9.87c.7,0,1.26.21,1.75.56.42.35.7.91.7,1.61v33.88h8.82V6.6c0-.7.21-1.19.63-1.61.35-.35.91-.49,1.61-.49h9.8c.7,0,1.26.14,1.75.49.42.42.7.91.7,1.61v46.77h8.89V19.48c0-.7.28-1.26.7-1.61.49-.35,1.05-.56,1.75-.56h9.87c.7,0,1.26.21,1.61.56.42.35.56.91.56,1.61v43.69c0,.98-.14,1.68-.56,2.17s-1.26.77-2.38.77H7.37c-1.12,0-1.89-.28-2.31-.77Z"/><path class="cls-2" d="M102.54,42.44v-4.27c0-.7.21-1.19.56-1.54.42-.35.91-.56,1.47-.56l-4.62-4.41v6.16c-.07.77-.35,1.4-.84,1.96-.56.49-1.26.77-2.17.77h-4.2c-.84,0-1.54-.28-2.1-.77-.56-.56-.84-1.19-.84-1.96v-6.09l-7.91,7.14c-.77.63-1.47.7-2.1.14-.56-.56-.77-1.26-.77-2.03v-3.71c0-1.12.14-1.82.56-2.17.35-.42,1.12-1.19,2.31-2.45l2.59-2.24h-3.01c-1.05,0-1.82-.21-2.24-.7s-.63-1.26-.63-2.24v-1.61c0-1.33.21-2.24.63-2.59.42-.42,1.19-.63,2.24-.63h8.33v-1.54h-6.79c-.77,0-1.33-.28-1.89-.7-.49-.49-.7-1.05-.7-1.82v-3.22c0-.7.21-1.33.7-1.75.56-.49,1.12-.7,1.89-.77h14.7c.91,0,1.54-.14,1.89-.35.28-.28.42-.7.42-1.19,0-.56.28-1.12.77-1.68s1.05-.84,1.75-.84h4.83c.7,0,1.33.28,1.82.84s.77,1.19.77,1.96v2.8c0,2.31-.49,3.92-1.4,4.76-.98.91-2.73,1.33-5.32,1.33h-3.29v2.17h8.19c1.19,0,2.03.21,2.38.63.42.35.63,1.26.63,2.59v1.61c0,.98-.21,1.75-.63,2.24-.35.49-1.19.7-2.38.7h-2.87l2.59,2.24c1.19,1.26,1.96,2.03,2.38,2.45.42.35.56,1.05.49,2.17v2.8h2.17c.63,0,1.19.14,1.68.56.42.35.63.84.63,1.54v4.27h21c1.26,0,2.17.21,2.73.7.56.56.77,1.4.77,2.66v2.52c0,1.05-.21,1.96-.77,2.59-.49.63-1.4.91-2.66.91h-7.28v2.17c0,.77.28,1.47.77,1.96s1.12.77,1.96.77h5.39c.84,0,1.47.28,2.03.77.49.49.7,1.05.7,1.75v4.41c0,.7-.21,1.33-.7,1.82-.56.49-1.19.7-2.03.7h-10.22c-3.01,0-5.18-.56-6.51-1.82s-1.96-3.15-1.96-5.6v-6.93h-3.08v12.32c0,.7-.21,1.19-.63,1.61-.35.35-.91.49-1.54.49h-8.26c-.63,0-1.26-.14-1.68-.49-.49-.42-.7-.91-.7-1.61v-12.32h-3.15v6.93c0,2.45-.63,4.34-1.96,5.6-1.33,1.26-3.5,1.82-6.51,1.82h-10.22c-.84,0-1.54-.21-2.03-.7-.49-.49-.7-1.12-.7-1.82v-4.41c0-.7.21-1.26.7-1.75s1.19-.77,2.03-.77h5.39c.84,0,1.47-.28,1.96-.77.49-.49.77-1.19.77-1.96v-2.17h-7.21c-1.26,0-2.17-.28-2.73-.91-.56-.63-.84-1.47-.84-2.52v-2.66c0-1.19.21-2.03.77-2.52.56-.56,1.47-.77,2.73-.77h21ZM123.47,29.07c-.56.56-1.26.84-2.03.84h-5.32c-.98,0-1.68-.28-2.17-.84-.56-.56-.84-1.19-.84-1.89V7.37c0-.7.28-1.33.84-1.89.49-.56,1.19-.77,2.17-.77h5.32c.77,0,1.47.21,2.03.77.63.56.91,1.19.91,1.89v19.81c0,.7-.28,1.33-.91,1.89ZM137.26,39.57c-.56.56-1.61.84-3.29.84h-9.1c-1.96,0-2.94-.91-2.94-2.73v-3.43c0-1.89.98-2.87,2.94-2.87h2.17V7.51c0-1.12.21-1.82.63-2.24.42-.35,1.26-.49,2.45-.49h4.9c1.26,0,2.1.14,2.52.49.35.42.56,1.12.56,2.24v28.56c0,1.75-.28,2.87-.84,3.5Z"/><path class="cls-2" d="M170.53,50.07c.7.07,1.33.28,1.75.77.49.49.77,1.12.77,1.82v5.81c0,2.45-.63,4.34-1.96,5.6-1.33,1.26-3.5,2.03-6.51,2.1h-10.22c-.84,0-1.54-.28-2.03-.77-.49-.49-.7-1.05-.7-1.75v-3.85c0-.7.21-1.26.7-1.75.49-.49,1.19-.77,2.03-.77h5.39c.84,0,1.47-.28,1.96-.77.49-.49.77-1.19.77-2.03v-1.82c0-.7.28-1.33.77-1.82s1.12-.7,1.82-.77h5.46ZM188.59,48.6v15.26c0,.7-.21,1.26-.56,1.61-.42.35-.98.56-1.61.56h-7.7c-.63,0-1.26-.21-1.68-.56-.49-.35-.7-.91-.7-1.61v-15.26h-21.63c-.98,0-1.68-.35-2.17-.91-.56-.56-.84-1.19-.84-1.96V11.99c0-.7.28-1.26.84-1.82.49-.56,1.19-.84,2.17-.84h6.37c.84,0,1.54.28,2.1.84.56.56.84,1.12.84,1.82v27.72h46.69c1.12,0,1.89.14,2.31.56.35.42.56,1.33.56,2.59v2.8c0,.98-.21,1.68-.56,2.17-.42.49-1.19.77-2.31.77h-22.12ZM209.52,5.34c.35.42.56.91.56,1.68v29.05c0,.7-.21,1.26-.56,1.61-.35.35-.84.49-1.61.49h-39.41c-.77,0-1.26-.14-1.61-.49-.35-.35-.49-.91-.49-1.61V7.02c0-.77.14-1.26.49-1.68.35-.35.84-.49,1.61-.49h39.41c.77,0,1.26.14,1.61.49ZM197.76,11.5h-19.11v2.17h19.11v-2.17ZM197.76,20.25h-19.11v2.17h19.11v-2.17ZM197.76,28.93h-19.11v2.31h19.11v-2.31ZM201.61,50.84c.49.49.77,1.12.77,1.82v1.82c0,.84.28,1.54.77,2.03.49.49,1.19.77,1.96.77h5.39c.84,0,1.54.28,2.03.77s.7,1.05.7,1.75v3.85c0,.7-.21,1.26-.7,1.75s-1.19.77-2.03.77h-10.22c-3.01-.07-5.18-.84-6.51-2.1-1.33-1.26-1.96-3.15-1.96-5.6v-5.81c0-.7.28-1.33.77-1.82.42-.49,1.05-.7,1.75-.77h5.46c.7.07,1.33.28,1.82.77Z"/></g></svg>