<?xml version="1.0" encoding="UTF-8"?><svg id="_レイヤー_2" xmlns="http://www.w3.org/2000/svg" viewBox="0 0 214.02 71.24"><defs><style>.cls-1,.cls-2,.cls-3{stroke-width:0px;}.cls-2{fill:#198caa;}.cls-3{fill:#fff;}</style></defs><g id="_レイヤー_4"><path class="cls-1" d="M5.13,32.29c-.42-.49-.63-1.26-.63-2.24v-1.12c0-1.26.21-2.17.63-2.59.42-.42,1.19-.56,2.24-.56h19.74v-1.54H8.91c-1.12,0-1.89-.21-2.31-.7-.35-.49-.56-1.26-.56-2.24v-1.12c0-1.26.21-2.17.56-2.59.42-.42,1.19-.56,2.31-.56h18.2v-1.54H8.91c-1.12,0-1.89-.21-2.31-.7-.35-.49-.56-1.26-.56-2.24v-1.12c0-1.26.21-2.17.56-2.59.42-.42,1.19-.56,2.31-.56h18.2v-1.68c0-.7.21-1.19.63-1.54.35-.42.91-.56,1.61-.56h9.8c.7,0,1.26.14,1.75.56.42.35.7.84.7,1.54v1.68h17.99c1.19,0,2.03.14,2.45.56.35.42.56,1.33.56,2.59v1.12c0,.98-.21,1.75-.56,2.24-.42.49-1.26.7-2.45.7h-17.99v1.54h17.99c1.19,0,2.03.14,2.45.56.35.42.56,1.33.56,2.59v1.12c0,.98-.21,1.75-.56,2.24-.42.49-1.26.7-2.45.7h-17.99v1.54h19.53c1.19,0,1.96.14,2.38.56.42.42.63,1.33.63,2.59v1.12c0,.98-.21,1.75-.63,2.24s-1.19.7-2.38.7H7.37c-1.05,0-1.82-.21-2.24-.7ZM57.85,35.51c.35.35.56.91.56,1.68v27.37c0,.77-.21,1.26-.56,1.61-.28.35-.84.56-1.61.56h-14.77c-.84,0-1.4-.21-1.75-.56-.28-.35-.49-.77-.49-1.4v-2.45c0-.84.21-1.47.49-1.89.35-.42.91-.63,1.75-.63h3.22v-1.82h-20.65v6.58c0,.77-.14,1.26-.42,1.61-.21.35-.77.56-1.61.56h-9.52c-.77,0-1.33-.21-1.61-.56-.35-.35-.56-.84-.56-1.61v-27.37c0-.77.21-1.33.56-1.68.28-.35.84-.56,1.61-.56h43.75c.77,0,1.33.21,1.61.56ZM44.68,43.35v-1.68h-20.65v1.68h20.65ZM44.68,51.54v-1.68h-20.65v1.68h20.65Z"/><path class="cls-1" d="M94.3,58.27v5.6c0,.77-.28,1.4-.84,2.03-.63.56-1.26.84-2.1.84h-3.15c-.91,0-1.61-.28-2.17-.84-.49-.63-.77-1.26-.84-2.03v-5.53l-7.14,6.02c-.77.63-1.47.7-2.03.14-.63-.56-.84-1.19-.84-2.03v-4.83c0-1.12.14-1.89.56-2.24.35-.42,1.12-1.19,2.31-2.45l2.66-2.31h-2.73c-1.05,0-1.82-.21-2.24-.7-.42-.49-.63-1.26-.63-2.31v-2.8c0-1.4.21-2.24.63-2.66s1.19-.63,2.24-.63h7.21v-3.5c.07-.63.35-1.26.84-1.89.56-.56,1.26-.84,2.17-.84h3.15c.84,0,1.47.28,2.1.84.56.63.84,1.26.84,1.89v3.5h7.07c1.19,0,2.03.21,2.45.63.35.42.56,1.26.56,2.66v2.8c0,1.05-.21,1.82-.56,2.31-.42.49-1.26.7-2.45.7h-2.52l2.59,2.31c1.19,1.26,2.03,2.03,2.38,2.45.42.35.56,1.12.49,2.24v4.83c.07.84-.21,1.47-.77,2.03-.56.56-1.26.49-2.1-.14l-7.14-6.09ZM110.55,35.44c-.56.56-1.26.84-2.1.84h-5.88c-.91,0-1.61-.28-2.17-.84-.49-.56-.77-1.26-.84-1.96v-7.63l-19.74,12.39c-1.12.49-1.89.63-2.31.35-.35-.28-.56-.91-.56-1.89v-4.83c0-1.33.21-2.24.63-2.66.35-.42,1.12-.98,2.24-1.82l11.69-7.35h-10.64c-1.12,0-1.96-.28-2.38-.77-.42-.49-.63-1.19-.63-2.17v-2.87c0-1.4.21-2.31.63-2.73.42-.35,1.26-.56,2.38-.56h18.69v-3.43c.07-.7.35-1.33.84-1.96.56-.56,1.26-.84,2.17-.84h5.88c.84,0,1.54.28,2.1.84.56.63.84,1.26.84,1.96v3.43h18.9c1.05,0,1.82.21,2.24.56.42.42.63,1.33.63,2.73v2.87c0,.98-.21,1.68-.63,2.17-.42.49-1.19.77-2.24.77h-10.78l11.69,7.35c1.12.84,1.89,1.4,2.24,1.82.42.42.63,1.33.63,2.66v4.83c0,.98-.21,1.61-.56,1.89-.42.28-1.19.14-2.31-.35l-19.81-12.39v7.63c0,.7-.28,1.4-.84,1.96ZM125.74,58.27v5.6c0,.77-.28,1.4-.84,2.03-.56.56-1.26.84-2.1.84h-3.15c-.91,0-1.61-.28-2.17-.84-.49-.63-.77-1.26-.84-2.03v-5.53l-7.07,6.02c-.84.63-1.54.7-2.1.14-.56-.56-.84-1.19-.77-2.03v-4.83c-.07-1.12.07-1.89.49-2.24.35-.42,1.19-1.19,2.38-2.45l2.59-2.31h-2.66c-1.12,0-1.89-.21-2.31-.7-.35-.49-.56-1.26-.56-2.31v-2.8c0-1.4.21-2.24.56-2.66.42-.42,1.19-.63,2.31-.63h7.14v-3.5c.07-.63.35-1.26.84-1.89.56-.56,1.26-.84,2.17-.84h3.15c.84,0,1.54.28,2.1.84.56.63.84,1.26.84,1.89v3.5h7.14c1.19,0,1.96.21,2.38.63s.63,1.26.63,2.66v2.8c0,1.05-.21,1.82-.63,2.31-.42.49-1.19.7-2.38.7h-2.59l2.66,2.31c1.19,1.26,1.96,2.03,2.31,2.45.42.35.56,1.12.56,2.24v4.83c0,.84-.21,1.47-.84,2.03-.56.56-1.26.49-2.03-.14l-7.21-6.09Z"/><path class="cls-1" d="M166.47,50.63c.7.07,1.33.28,1.75.77.49.49.77,1.12.77,1.82v5.81c0,2.45-.63,4.34-1.96,5.6-1.33,1.26-3.5,2.03-6.51,2.1h-10.22c-.84,0-1.54-.28-2.03-.77s-.7-1.05-.7-1.75v-3.85c0-.7.21-1.26.7-1.75.49-.49,1.19-.77,2.03-.77h5.39c.84,0,1.47-.28,1.96-.77.49-.49.77-1.19.77-2.03v-1.82c0-.7.28-1.33.77-1.82.49-.49,1.12-.7,1.82-.77h5.46ZM184.53,49.16v15.26c0,.7-.21,1.26-.56,1.61-.42.35-.98.56-1.61.56h-7.7c-.63,0-1.26-.21-1.68-.56-.49-.35-.7-.91-.7-1.61v-15.26h-21.63c-.98,0-1.68-.35-2.17-.91-.56-.56-.84-1.19-.84-1.96V12.55c0-.7.28-1.26.84-1.82.49-.56,1.19-.84,2.17-.84h6.37c.84,0,1.54.28,2.1.84.56.56.84,1.12.84,1.82v27.72h46.7c1.12,0,1.89.14,2.31.56.35.42.56,1.33.56,2.59v2.8c0,.98-.21,1.68-.56,2.17-.42.49-1.19.77-2.31.77h-22.12ZM205.46,5.9c.35.42.56.91.56,1.68v29.05c0,.7-.21,1.26-.56,1.61-.35.35-.84.49-1.61.49h-39.41c-.77,0-1.26-.14-1.61-.49-.35-.35-.49-.91-.49-1.61V7.58c0-.77.14-1.26.49-1.68.35-.35.84-.49,1.61-.49h39.41c.77,0,1.26.14,1.61.49ZM193.7,12.06h-19.11v2.17h19.11v-2.17ZM193.7,20.81h-19.11v2.17h19.11v-2.17ZM193.7,29.49h-19.11v2.31h19.11v-2.31ZM197.55,51.41c.49.49.77,1.12.77,1.82v1.82c0,.84.28,1.54.77,2.03s1.19.77,1.96.77h5.39c.84,0,1.54.28,2.03.77s.7,1.05.7,1.75v3.85c0,.7-.21,1.26-.7,1.75-.49.49-1.19.77-2.03.77h-10.22c-3.01-.07-5.18-.84-6.51-2.1-1.33-1.26-1.96-3.15-1.96-5.6v-5.81c0-.7.28-1.33.77-1.82.42-.49,1.05-.7,1.75-.77h5.46c.7.07,1.33.28,1.82.77Z"/><path class="cls-2" d="M56.24,71.24h-14.77c-2.52,0-4.07-1.02-4.93-1.87-.12-.12-.24-.25-.34-.38-.98-1.22-1.47-2.64-1.47-4.2v-2.29h-6.19v2.08c0,1.7-.41,3.09-1.26,4.23-.72,1.03-2.26,2.44-5.27,2.44h-9.52c-2.04,0-3.79-.72-4.95-2.04-.82-.88-1.72-2.37-1.72-4.63v-27.19c-1.72-.26-3.09-.99-4.1-2.16-1.14-1.33-1.71-3.06-1.71-5.17v-1.12c0-2.44.57-4.26,1.75-5.56-.14-.65-.21-1.34-.21-2.07v-1.12c0-1.59.23-2.91.71-4-.46-1.06-.71-2.29-.71-3.63v-1.12c0-2.39.52-4.17,1.6-5.47.09-.1.18-.2.27-.3,1.88-1.88,4.5-1.88,5.49-1.88h14.29c.33-.72.79-1.37,1.37-1.92.88-.91,2.38-1.86,4.78-1.86h9.8c1.83,0,3.41.55,4.68,1.64.71.59,1.27,1.32,1.65,2.14h14.11c1.75,0,3.97.21,5.63,1.88.09.09.18.19.27.3,1.08,1.29,1.61,3.08,1.61,5.47v1.12c0,1.34-.24,2.57-.71,3.63.47,1.09.71,2.41.71,4v1.12c0,.72-.07,1.42-.21,2.07,1.18,1.3,1.75,3.12,1.75,5.56v1.12c0,2.1-.58,3.84-1.71,5.17-1.21,1.41-2.78,1.94-4.03,2.15v27.2c0,2.26-.9,3.74-1.72,4.63-1.16,1.32-2.91,2.04-4.95,2.04ZM14.81,62.24h4.72v-4.25c0-1.26.52-2.4,1.36-3.22-.84-.82-1.36-1.96-1.36-3.22v-1.68c0-1.28.54-2.44,1.39-3.26-.86-.82-1.39-1.98-1.39-3.26v-1.68c0-.81.21-1.57.58-2.22h-5.31v22.78ZM48.47,62.24h5.43v-22.78h-5.31c.37.66.58,1.41.58,2.22v1.68c0,1.28-.54,2.44-1.39,3.26.86.82,1.39,1.98,1.39,3.26v1.68c0,1.26-.52,2.4-1.36,3.22.84.82,1.36,1.96,1.36,3.22v1.82c0,.9-.26,1.73-.71,2.43ZM30.7,28.49h7.31c-.57-.75-.91-1.69-.91-2.71v-1.54c0-1.48.71-2.78,1.81-3.61-1.1-.82-1.81-2.13-1.81-3.61v-1.54c0-1.48.71-2.78,1.81-3.61-.92-.68-1.56-1.71-1.75-2.89h-5.61c-.19,1.18-.83,2.2-1.75,2.89,1.1.82,1.81,2.13,1.81,3.61v1.54c0,1.48-.71,2.78-1.81,3.61,1.1.82,1.81,2.13,1.81,3.61v1.54c0,1.02-.34,1.96-.91,2.71Z"/><path class="cls-2" d="M122.8,71.24h-3.15c-2.09,0-3.94-.75-5.35-2.16-.13-.13-.25-.27-.37-.42-.34-.44-.64-.89-.88-1.36l-.56.48c-.07.06-.14.12-.22.17-2.43,1.82-4.94,1.69-6.76.65-1.82,1.04-4.33,1.17-6.76-.65-.08-.06-.15-.12-.22-.18l-.57-.49c-.3.56-.67,1.09-1.12,1.6-.12.13-.24.25-.37.37-1.47,1.31-3.19,1.98-5.09,1.98h-3.15c-2.09,0-3.94-.75-5.36-2.16-.13-.13-.25-.27-.37-.42-.35-.45-.65-.91-.9-1.39l-.63.53c-2.57,2.1-5.82,2.07-8.01-.01-1.5-1.38-2.26-3.16-2.26-5.32v-4.83c0-.93,0-3.21,1.47-4.99-1.02-1.3-1.54-2.99-1.54-5.03v-2.8c0-1.67.2-4.1,1.95-5.84.04-.04.08-.08.12-.12-.16-.62-.25-1.34-.25-2.16v-4.83c0-2.51.59-4.38,1.79-5.68.64-.72,1.43-1.31,2.59-2.19l.29-.22s.02-.01.02-.02c-.95-.45-1.61-1.04-2.07-1.58-1.14-1.32-1.71-3.04-1.71-5.1v-2.87c0-1.7.2-4.17,1.95-5.91.1-.1.2-.19.3-.27,1.28-1.06,3.05-1.6,5.26-1.6h14.3c.24-1.3.8-2.52,1.68-3.65.11-.15.24-.29.37-.42,1.41-1.41,3.26-2.16,5.35-2.16h5.88c2.04,0,3.87.75,5.28,2.16.06.06.12.13.18.19,1.05,1.18,1.68,2.48,1.9,3.88h14.48c2.12,0,3.85.54,5.12,1.6.1.09.2.18.3.27,1.75,1.75,1.95,4.21,1.95,5.91v2.87c0,2.06-.58,3.77-1.71,5.1-.56.66-1.26,1.19-2.07,1.58l.02.02.3.23c1.15.86,1.94,1.45,2.57,2.17,1.21,1.3,1.79,3.17,1.79,5.68v4.83c0,.82-.09,1.54-.25,2.16.04.04.08.08.12.12,1.75,1.75,1.95,4.17,1.95,5.84v2.8c0,2.04-.52,3.73-1.54,5.03,1.47,1.77,1.47,4.05,1.47,4.99v4.83c0,2.15-.76,3.94-2.26,5.31-2.19,2.09-5.44,2.12-7.96.06l-.69-.59c-.3.57-.68,1.11-1.14,1.63-.06.07-.12.13-.18.19-1.41,1.41-3.24,2.16-5.28,2.16ZM121.14,62.24h.1v-3.97c0-1.75,1.02-3.34,2.6-4.08,1.14-.53,2.42-.55,3.55-.1l-.06-.05c-1.42-1.23-1.92-3.21-1.26-4.97.66-1.76,2.34-2.92,4.22-2.92h1.1v-.1h-5.65c-2.49,0-4.5-2.01-4.5-4.5v-1.73h-.1v1.73c0,2.49-2.01,4.5-4.5,4.5h-5.51v.1h1.03c1.87,0,3.54,1.15,4.21,2.9s.18,3.72-1.21,4.96l-.18.16c1.13-.45,2.42-.43,3.55.09,1.59.74,2.61,2.33,2.61,4.09v3.9ZM89.7,62.24h.1v-3.97c0-1.76,1.02-3.35,2.61-4.09,1.14-.52,2.41-.54,3.54-.1l-.1-.09c-1.39-1.24-1.87-3.22-1.21-4.96s2.34-2.9,4.21-2.9h1.03v-.1h-5.58c-2.49,0-4.5-2.01-4.5-4.5v-1.73h-.1v1.73c0,2.49-2.01,4.5-4.5,4.5h-5.58v.1h1.1c1.88,0,3.56,1.17,4.22,2.92.66,1.76.15,3.74-1.26,4.97l-.15.13c1.14-.45,2.43-.44,3.57.1,1.59.74,2.6,2.33,2.6,4.08v3.9ZM110.55,35.44h0,0ZM111.39,21.35c.83,0,1.66.23,2.39.68l15.8,9.88v-.12c-.24-.18-.51-.39-.76-.57l-.16-.12-11.54-7.25c-1.7-1.07-2.48-3.13-1.93-5.06.56-1.93,2.32-3.25,4.32-3.25h9.15v-.1h-17.27c-2.49,0-4.5-2.01-4.5-4.5v-1.73h-2.83v1.73c0,2.49-2.01,4.5-4.5,4.5h-17.2v.1h9.15c2,0,3.77,1.33,4.32,3.25.55,1.93-.23,3.99-1.93,5.06l-11.68,7.36c-.25.19-.53.4-.78.58v.11l15.72-9.87c1.39-.87,3.14-.92,4.57-.13s2.32,2.3,2.32,3.94v5.93h2.83v-5.93c0-1.64.89-3.14,2.32-3.94.68-.38,1.43-.56,2.18-.56Z"/><path class="cls-2" d="M206.44,71.24h-10.22s-.07,0-.1,0c-3.51-.08-6.37-.93-8.52-2.51-.14.17-.29.34-.44.5-.1.1-.2.19-.3.28-1.24,1.03-2.84,1.6-4.49,1.6h-7.7c-1.62,0-3.22-.54-4.43-1.5-.37-.28-.71-.6-1-.94-2.16,1.63-5.05,2.5-8.61,2.58-.03,0-.07,0-.1,0h-10.22c-2.01,0-3.87-.74-5.21-2.09-1.32-1.32-2.02-3.03-2.02-4.93v-3.85c0-1.91.7-3.62,2.02-4.94,1.02-1.02,2.34-1.7,3.8-1.96-1.43-.33-2.71-1.06-3.69-2.14-1.35-1.4-2.06-3.14-2.06-5.04V12.55c0-1.84.69-3.49,2.06-4.9.97-1.06,2.68-2.26,5.45-2.26h6.37c.37,0,.73.02,1.08.07.25-.91.67-1.72,1.27-2.45.09-.1.18-.2.27-.3,1.2-1.2,2.81-1.81,4.79-1.81h39.41c1.98,0,3.59.61,4.79,1.81.1.1.19.2.28.3,1.06,1.28,1.6,2.81,1.6,4.56v28.93c.56.27,1.12.64,1.62,1.14.1.1.19.19.27.3,1.08,1.29,1.61,3.08,1.61,5.47v2.8c0,1.88-.47,3.49-1.4,4.79-.08.11-.16.21-.24.31-.75.87-2.04,1.88-4.17,2.22,1.31.3,2.5.95,3.44,1.89,1.32,1.32,2.02,3.03,2.02,4.93v3.85c0,1.9-.7,3.61-2.01,4.93-1.35,1.35-3.2,2.09-5.22,2.09ZM196.28,62.24h3.48c-1.47-.25-2.8-.93-3.85-1.98-1.33-1.33-2.07-3.14-2.09-5.12h-1.57v3.9c0,1.15.2,2,.56,2.33.14.13.97.8,3.47.87ZM157,62.24h3.46c1.94-.05,3.06-.48,3.47-.87.35-.33.56-1.19.56-2.33v-3.9h-1.57c-.02,1.98-.76,3.8-2.09,5.13-1.06,1.06-2.36,1.73-3.82,1.98ZM176.78,62.1h3.25v-12.93c0-2.15,1.5-3.94,3.51-4.39h-10.28c2.01.45,3.51,2.25,3.51,4.39v12.93ZM152.14,44.67h6.83c-2.01-.45-3.51-2.25-3.51-4.39V14.39h-3.32v30.27ZM197.49,34.23h4.03V9.91h-3.87c.35.64.55,1.37.55,2.15v2.17c0,1.3-.55,2.47-1.43,3.29.88.82,1.43,1.99,1.43,3.29v2.17c0,1.28-.54,2.44-1.39,3.26.86.82,1.39,1.98,1.39,3.26v2.31c0,.9-.26,1.73-.71,2.43ZM166.84,34.23h3.96c-.45-.7-.71-1.53-.71-2.43v-2.31c0-1.28.54-2.44,1.39-3.26-.86-.82-1.39-1.97-1.39-3.26v-2.17c0-1.3.55-2.47,1.43-3.29-.88-.82-1.43-1.99-1.43-3.29v-2.17c0-.78.2-1.51.55-2.15h-3.79v24.32ZM203.9,9.91h0,0Z"/><path class="cls-3" d="M56.24,69.74h-14.77c-2.01,0-3.21-.78-3.87-1.44-.08-.08-.16-.17-.23-.26-.76-.95-1.14-2.05-1.14-3.27v-2.45c0-.46.04-.91.12-1.34h-9.31v3.58c0,1.37-.32,2.47-.98,3.36-.53.76-1.69,1.81-4.05,1.81h-9.52c-1.61,0-2.96-.55-3.83-1.54-.89-.94-1.34-2.16-1.34-3.62v-27.37c0-.44.04-.84.11-1.2h-.05c-2,0-3.52-.59-4.52-1.75-.9-1.05-1.35-2.46-1.35-4.19v-1.12c0-2.15.49-3.7,1.51-4.71.14-.14.28-.26.42-.37-.26-.76-.39-1.62-.39-2.55v-1.12c0-1.7.29-3.02.89-4-.58-.98-.89-2.23-.89-3.63v-1.12c0-2.02.41-3.5,1.25-4.51.06-.07.12-.14.18-.2,1.27-1.28,3.04-1.44,4.43-1.44h15.35c.26-1.09.82-1.85,1.36-2.35.9-.95,2.15-1.43,3.73-1.43h9.8c1.48,0,2.7.42,3.7,1.28.78.65,1.33,1.52,1.58,2.5h15.16c1.46,0,3.3.16,4.57,1.44.06.06.12.13.18.2.85,1.01,1.26,2.49,1.26,4.51v1.12c0,1.41-.31,2.65-.89,3.63.6.98.89,2.29.89,4v1.12c0,.93-.13,1.79-.39,2.55.15.11.29.24.42.37,1.01,1.01,1.51,2.56,1.51,4.71v1.12c0,1.73-.46,3.14-1.35,4.19-1.41,1.64-3.59,1.74-4.5,1.75.07.36.11.76.11,1.2v27.37c0,1.46-.45,2.68-1.33,3.62-.88,1-2.23,1.54-3.83,1.54ZM42.22,63.74h13.18v-25.78s-42.09,0-42.09,0v25.78s7.72,0,7.72,0v-5.75c0-1.66,1.34-3,3-3h20.65c1.66,0,3,1.34,3,3v1.82c0,1.66-1.34,3-3,3h-2.46v.93ZM7.55,30.56h0,0ZM7.5,29.99h53.65v-1.06c0-.05,0-.1,0-.15h-19.54c-1.66,0-3-1.34-3-3v-1.54c0-1.66,1.34-3,3-3h18v-1.06c0-.05,0-.1,0-.15h-18c-1.66,0-3-1.34-3-3v-1.54c0-1.66,1.34-3,3-3h18v-1.06c0-.05,0-.1,0-.15h-18c-1.66,0-3-1.34-3-3v-.78h-8.49v.78c0,1.66-1.34,3-3,3H9.04s0,.1,0,.15v1.06h18.07c1.66,0,3,1.34,3,3v1.54c0,1.66-1.34,3-3,3H9.04s0,.1,0,.15v1.06h18.07c1.66,0,3,1.34,3,3v1.54c0,1.66-1.34,3-3,3H7.5s0,.1,0,.15v1.06ZM44.68,54.54h-20.65c-1.66,0-3-1.34-3-3v-1.68c0-1.66,1.34-3,3-3h20.65c1.66,0,3,1.34,3,3v1.68c0,1.66-1.34,3-3,3ZM44.68,46.35h-20.65c-1.66,0-3-1.34-3-3v-1.68c0-1.66,1.34-3,3-3h20.65c1.66,0,3,1.34,3,3v1.68c0,1.66-1.34,3-3,3Z"/><path class="cls-3" d="M122.8,69.74h-3.15c-1.68,0-3.17-.59-4.29-1.72-.09-.09-.17-.18-.24-.28-.73-.93-1.18-1.92-1.38-2.99l-2.22,1.89s-.1.08-.15.12c-2.38,1.78-4.6,1.15-5.86.01-1.26,1.13-3.48,1.77-5.86-.01-.05-.04-.1-.08-.15-.12l-2.25-1.92c-.17,1.15-.68,2.22-1.54,3.17-.08.09-.16.17-.25.25-1.21,1.08-2.55,1.6-4.09,1.6h-3.15c-1.69,0-3.17-.59-4.29-1.72-.09-.09-.17-.18-.25-.28-.73-.95-1.19-1.94-1.38-3.02l-2.3,1.94c-2.27,1.86-4.63,1.36-6.01.04-1.21-1.1-1.79-2.48-1.79-4.22v-4.83c0-1.39.17-3.12,1.4-4.33.17-.19.38-.42.66-.71-.29-.21-.54-.44-.77-.71-.9-1.04-1.35-2.48-1.35-4.26v-2.8c0-1.52.17-3.44,1.51-4.78.25-.25.52-.46.82-.65-.34-.75-.51-1.65-.51-2.69v-4.83c0-1.37.15-3.33,1.41-4.68.54-.61,1.28-1.17,2.38-1.99l.29-.22c.07-.05.13-.1.2-.14l2.88-1.81h-.23c-2.56,0-3.95-.99-4.66-1.82-.9-1.05-1.35-2.43-1.35-4.12v-2.87c0-1.44.16-3.5,1.51-4.85.06-.06.13-.12.2-.18,1-.83,2.45-1.26,4.3-1.26h15.69v-.43c0-.1,0-.2.01-.3.12-1.26.6-2.41,1.46-3.51.08-.1.16-.19.25-.28,1.12-1.12,2.61-1.72,4.29-1.72h5.88c1.64,0,3.1.59,4.22,1.72.04.04.08.08.12.13,1.06,1.19,1.6,2.52,1.6,3.95v.43h15.9c1.76,0,3.16.42,4.16,1.26.07.06.14.12.2.18,1.35,1.35,1.51,3.42,1.51,4.85v2.87c0,1.69-.46,3.08-1.35,4.12-.71.83-2.07,1.82-4.52,1.82h-.37l2.88,1.81c.07.04.14.09.2.14l.31.23c1.09.81,1.82,1.36,2.36,1.97,1.26,1.35,1.41,3.31,1.41,4.68v4.83c0,1.05-.17,1.95-.51,2.69.3.18.57.4.82.65,1.34,1.34,1.51,3.26,1.51,4.78v2.8c0,1.78-.46,3.22-1.35,4.26-.24.28-.5.51-.77.71.27.29.49.52.66.71,1.23,1.21,1.4,2.93,1.4,4.33v4.83c0,1.74-.59,3.13-1.79,4.22-1.38,1.32-3.74,1.82-5.98-.01l-2.37-2c-.16,1.16-.68,2.24-1.54,3.21-.04.04-.08.09-.12.13-1.12,1.12-2.58,1.72-4.22,1.72ZM119.65,63.74h3.09v-5.47c0-1.17.68-2.23,1.74-2.72,1.06-.49,2.31-.32,3.2.43l5.15,4.35v-2.68c0-.22,0-.38-.02-.49-.2-.22-.49-.52-.86-.9-.31-.32-.67-.7-1.08-1.13l-2.55-2.21c-.95-.82-1.28-2.14-.84-3.32.44-1.17,1.56-1.95,2.81-1.95h2.6v-2.81c0-.11,0-.2,0-.29h-7.15c-1.66,0-3-1.34-3-3v-3.23h-3.09s0,0,0,0c0,0,0,0,0,.01v3.22c0,1.66-1.34,3-3,3h-7.01c0,.09,0,.18,0,.29v2.8h0s2.53,0,2.53,0c1.24,0,2.36.77,2.8,1.93.44,1.16.12,2.48-.81,3.31l-2.5,2.23c-.58.61-1.08,1.11-1.48,1.51-.2.2-.37.37-.5.5,0,.09,0,.2.01.34,0,.06,0,.13,0,.19v2.67l5-4.25c.89-.76,2.14-.93,3.2-.44,1.06.49,1.74,1.55,1.74,2.72v5.35s0,.03.01.05ZM88.22,63.74h3.09v-5.47c0-1.17.68-2.23,1.74-2.72,1.06-.49,2.31-.32,3.2.44l5.06,4.32v-2.67c0-.06,0-.12,0-.19,0-.14.01-.25.01-.34-.13-.14-.3-.3-.51-.51-.4-.4-.89-.89-1.47-1.5l-2.5-2.23c-.93-.83-1.25-2.14-.81-3.31.44-1.16,1.56-1.93,2.8-1.93h2.53v-2.81c0-.11,0-.2,0-.29h-7.08c-1.66,0-3-1.34-3-3v-3.25l-3.09.02h0s0,0,0,.01v3.22c0,1.66-1.34,3-3,3h-7.08c0,.09,0,.18,0,.29v2.8h0s2.6,0,2.6,0c1.25,0,2.37.78,2.81,1.95.44,1.17.1,2.49-.84,3.32l-2.55,2.21c-.4.43-.76.79-1.06,1.11-.38.4-.67.7-.87.92,0,.11-.02.27-.02.49v2.69l5.08-4.28c.89-.75,2.14-.92,3.2-.43,1.06.49,1.74,1.55,1.74,2.72v5.35s0,.03.01.05ZM107.71,62s0,0-.01,0h0s0,0,0,0ZM133.34,57.7s0,0,0,0c0,0,0,0,0,0ZM77.67,57.7s0,0,0,0c0,0,0,0,0,0ZM105.31,52.61c.07.07.13.13.19.19.06-.06.12-.12.19-.19-.06-.05-.13-.09-.19-.15-.06.05-.13.1-.19.14ZM109.72,43.71h0,0ZM104.93,39.28c.21.11.4.24.58.37.18-.14.37-.26.57-.37h-1.15ZM111.4,38.53h2.24v-.5c0-.11,0-.22.02-.33.13-1.19.62-2.33,1.46-3.4.08-.1.16-.19.24-.28.48-.48,1.02-.86,1.61-1.14l-2.58-1.62v2.22c0,1.52-.61,2.97-1.72,4.08,0,0,0,0,0,0-.39.39-.81.71-1.27.97ZM97.3,38.53h2.25c-.47-.26-.9-.58-1.28-.97-.05-.05-.09-.1-.13-.14-.88-1-1.43-2.3-1.57-3.64,0-.1-.01-.2-.01-.3v-2.21l-2.58,1.62c.52.25,1.01.59,1.48,1.01.09.08.17.16.25.25,1.32,1.48,1.6,2.93,1.6,3.88v.5ZM108.42,33.33l2.12,2.12-2.12-2.12s0,0,0,0ZM111.39,22.85c.55,0,1.11.15,1.59.46l18.09,11.32v-2.75c0-.42-.03-.69-.05-.84-.26-.22-.81-.63-1.31-1l-.21-.16-11.59-7.29c-1.13-.71-1.66-2.09-1.29-3.37.37-1.28,1.55-2.17,2.88-2.17h10.65v-2.81c0-.11,0-.2,0-.29h-18.77c-1.66,0-3-1.34-3-3v-3.23h-5.82s0,0,0,0c0,0,0,.02,0,.03v3.2c0,1.66-1.34,3-3,3h-18.7c0,.09,0,.18,0,.29v2.81h10.65c1.34,0,2.51.88,2.88,2.17.37,1.28-.15,2.66-1.29,3.37l-11.78,7.43c-.5.37-1.04.78-1.33,1.02-.02.16-.05.43-.05.84v2.75l18.02-11.31c.92-.58,2.09-.61,3.05-.08.96.53,1.55,1.53,1.55,2.63v7.42s0,0,0,.01h5.83v-7.43c0-1.09.59-2.1,1.55-2.62.45-.25.95-.38,1.45-.38ZM131.32,31.33s0,0,0,0c0,0,0,0,0,0Z"/><path class="cls-3" d="M206.44,69.74h-10.22c-3.76-.09-6.62-1.07-8.57-2.92-.15-.15-.3-.29-.44-.45-.24.69-.62,1.3-1.12,1.79-.06.06-.13.13-.2.18-.97.81-2.23,1.26-3.53,1.26h-7.7c-1.29,0-2.57-.43-3.51-1.19-.72-.54-1.25-1.26-1.55-2.11-.16.18-.33.35-.5.52-1.96,1.85-4.82,2.84-8.5,2.92h-10.29c-1.61,0-3.09-.58-4.15-1.65-1.05-1.05-1.58-2.35-1.58-3.87v-3.85c0-1.52.53-2.83,1.58-3.87,1.06-1.06,2.54-1.65,4.15-1.65h5.12v-1.62c0-.36.04-.71.11-1.06h-4.87c-1.75,0-3.26-.64-4.36-1.86-1.08-1.11-1.65-2.5-1.65-4.01V12.55c0-1.45.56-2.75,1.65-3.88.76-.83,2.12-1.78,4.36-1.78h6.37c.83,0,1.61.15,2.32.45.02-.92.21-2.19,1.18-3.36.06-.07.12-.14.18-.2,1.37-1.37,3.15-1.37,3.73-1.37h39.41c.58,0,2.36,0,3.73,1.37.06.06.13.13.19.2.84,1.01,1.25,2.19,1.25,3.6v29.05c0,.3-.02.6-.06.89.76.2,1.5.56,2.13,1.19.06.06.12.13.18.2.85,1.01,1.26,2.49,1.26,4.51v2.8c0,1.56-.38,2.88-1.12,3.92-.05.07-.11.14-.16.21-.71.83-2.08,1.82-4.59,1.82h-5.43c.07.35.1.7.1,1.06v1.62h5.12c1.61,0,3.09.59,4.15,1.65s1.58,2.35,1.58,3.87v3.85c0,1.52-.53,2.82-1.58,3.87-1.06,1.06-2.54,1.65-4.15,1.65ZM190.75,53.63v5.4c0,1.63.34,2.78,1.02,3.42.82.78,2.42,1.23,4.52,1.28h9.88v-2.89h-5.12c-1.57,0-3.02-.59-4.08-1.66s-1.65-2.54-1.65-4.15v-1.41h-4.57ZM150.57,63.73h9.95c2.02-.04,3.63-.5,4.45-1.27.68-.64,1.02-1.8,1.02-3.42v-5.4h-4.57v1.41c0,1.62-.59,3.09-1.65,4.15-1.08,1.08-2.49,1.65-4.08,1.65h-5.12v2.88ZM175.28,63.6h6.25v-14.43c0-1.66,1.34-3,3-3h21.99v-2.74c0-.05,0-.1,0-.15h-46.56c-1.66,0-3-1.34-3-3V12.89h-6.31s0,0-.01,0v33.27h21.64c1.66,0,3,1.34,3,3v14.43ZM195.61,53.65h0,0ZM206.47,46.74h0s0,0,0,0ZM165.34,35.73h37.68V8.41s-37.68,0-37.68,0v27.32ZM204.04,8.42h0,0ZM193.7,34.8h-19.11c-1.66,0-3-1.34-3-3v-2.31c0-1.66,1.34-3,3-3h19.11c1.66,0,3,1.34,3,3v2.31c0,1.66-1.34,3-3,3ZM193.7,25.98h-19.11c-1.66,0-3-1.34-3-3v-2.17c0-1.66,1.34-3,3-3h19.11c1.66,0,3,1.34,3,3v2.17c0,1.66-1.34,3-3,3ZM193.7,17.23h-19.11c-1.66,0-3-1.34-3-3v-2.17c0-1.66,1.34-3,3-3h19.11c1.66,0,3,1.34,3,3v2.17c0,1.66-1.34,3-3,3Z"/><path class="cls-2" d="M5.13,32.29c-.42-.49-.63-1.26-.63-2.24v-1.12c0-1.26.21-2.17.63-2.59.42-.42,1.19-.56,2.24-.56h19.74v-1.54H8.91c-1.12,0-1.89-.21-2.31-.7-.35-.49-.56-1.26-.56-2.24v-1.12c0-1.26.21-2.17.56-2.59.42-.42,1.19-.56,2.31-.56h18.2v-1.54H8.91c-1.12,0-1.89-.21-2.31-.7-.35-.49-.56-1.26-.56-2.24v-1.12c0-1.26.21-2.17.56-2.59.42-.42,1.19-.56,2.31-.56h18.2v-1.68c0-.7.21-1.19.63-1.54.35-.42.91-.56,1.61-.56h9.8c.7,0,1.26.14,1.75.56.42.35.7.84.7,1.54v1.68h17.99c1.19,0,2.03.14,2.45.56.35.42.56,1.33.56,2.59v1.12c0,.98-.21,1.75-.56,2.24-.42.49-1.26.7-2.45.7h-17.99v1.54h17.99c1.19,0,2.03.14,2.45.56.35.42.56,1.33.56,2.59v1.12c0,.98-.21,1.75-.56,2.24-.42.49-1.26.7-2.45.7h-17.99v1.54h19.53c1.19,0,1.96.14,2.38.56.42.42.63,1.33.63,2.59v1.12c0,.98-.21,1.75-.63,2.24s-1.19.7-2.38.7H7.37c-1.05,0-1.82-.21-2.24-.7ZM57.85,35.51c.35.35.56.91.56,1.68v27.37c0,.77-.21,1.26-.56,1.61-.28.35-.84.56-1.61.56h-14.77c-.84,0-1.4-.21-1.75-.56-.28-.35-.49-.77-.49-1.4v-2.45c0-.84.21-1.47.49-1.89.35-.42.91-.63,1.75-.63h3.22v-1.82h-20.65v6.58c0,.77-.14,1.26-.42,1.61-.21.35-.77.56-1.61.56h-9.52c-.77,0-1.33-.21-1.61-.56-.35-.35-.56-.84-.56-1.61v-27.37c0-.77.21-1.33.56-1.68.28-.35.84-.56,1.61-.56h43.75c.77,0,1.33.21,1.61.56ZM44.68,43.35v-1.68h-20.65v1.68h20.65ZM44.68,51.54v-1.68h-20.65v1.68h20.65Z"/><path class="cls-2" d="M94.3,58.27v5.6c0,.77-.28,1.4-.84,2.03-.63.56-1.26.84-2.1.84h-3.15c-.91,0-1.61-.28-2.17-.84-.49-.63-.77-1.26-.84-2.03v-5.53l-7.14,6.02c-.77.63-1.47.7-2.03.14-.63-.56-.84-1.19-.84-2.03v-4.83c0-1.12.14-1.89.56-2.24.35-.42,1.12-1.19,2.31-2.45l2.66-2.31h-2.73c-1.05,0-1.82-.21-2.24-.7-.42-.49-.63-1.26-.63-2.31v-2.8c0-1.4.21-2.24.63-2.66s1.19-.63,2.24-.63h7.21v-3.5c.07-.63.35-1.26.84-1.89.56-.56,1.26-.84,2.17-.84h3.15c.84,0,1.47.28,2.1.84.56.63.84,1.26.84,1.89v3.5h7.07c1.19,0,2.03.21,2.45.63.35.42.56,1.26.56,2.66v2.8c0,1.05-.21,1.82-.56,2.31-.42.49-1.26.7-2.45.7h-2.52l2.59,2.31c1.19,1.26,2.03,2.03,2.38,2.45.42.35.56,1.12.49,2.24v4.83c.07.84-.21,1.47-.77,2.03-.56.56-1.26.49-2.1-.14l-7.14-6.09ZM110.55,35.44c-.56.56-1.26.84-2.1.84h-5.88c-.91,0-1.61-.28-2.17-.84-.49-.56-.77-1.26-.84-1.96v-7.63l-19.74,12.39c-1.12.49-1.89.63-2.31.35-.35-.28-.56-.91-.56-1.89v-4.83c0-1.33.21-2.24.63-2.66.35-.42,1.12-.98,2.24-1.82l11.69-7.35h-10.64c-1.12,0-1.96-.28-2.38-.77-.42-.49-.63-1.19-.63-2.17v-2.87c0-1.4.21-2.31.63-2.73.42-.35,1.26-.56,2.38-.56h18.69v-3.43c.07-.7.35-1.33.84-1.96.56-.56,1.26-.84,2.17-.84h5.88c.84,0,1.54.28,2.1.84.56.63.84,1.26.84,1.96v3.43h18.9c1.05,0,1.82.21,2.24.56.42.42.63,1.33.63,2.73v2.87c0,.98-.21,1.68-.63,2.17-.42.49-1.19.77-2.24.77h-10.78l11.69,7.35c1.12.84,1.89,1.4,2.24,1.82.42.42.63,1.33.63,2.66v4.83c0,.98-.21,1.61-.56,1.89-.42.28-1.19.14-2.31-.35l-19.81-12.39v7.63c0,.7-.28,1.4-.84,1.96ZM125.74,58.27v5.6c0,.77-.28,1.4-.84,2.03-.56.56-1.26.84-2.1.84h-3.15c-.91,0-1.61-.28-2.17-.84-.49-.63-.77-1.26-.84-2.03v-5.53l-7.07,6.02c-.84.63-1.54.7-2.1.14-.56-.56-.84-1.19-.77-2.03v-4.83c-.07-1.12.07-1.89.49-2.24.35-.42,1.19-1.19,2.38-2.45l2.59-2.31h-2.66c-1.12,0-1.89-.21-2.31-.7-.35-.49-.56-1.26-.56-2.31v-2.8c0-1.4.21-2.24.56-2.66.42-.42,1.19-.63,2.31-.63h7.14v-3.5c.07-.63.35-1.26.84-1.89.56-.56,1.26-.84,2.17-.84h3.15c.84,0,1.54.28,2.1.84.56.63.84,1.26.84,1.89v3.5h7.14c1.19,0,1.96.21,2.38.63s.63,1.26.63,2.66v2.8c0,1.05-.21,1.82-.63,2.31-.42.49-1.19.7-2.38.7h-2.59l2.66,2.31c1.19,1.26,1.96,2.03,2.31,2.45.42.35.56,1.12.56,2.24v4.83c0,.84-.21,1.47-.84,2.03-.56.56-1.26.49-2.03-.14l-7.21-6.09Z"/><path class="cls-2" d="M166.47,50.63c.7.07,1.33.28,1.75.77.49.49.77,1.12.77,1.82v5.81c0,2.45-.63,4.34-1.96,5.6-1.33,1.26-3.5,2.03-6.51,2.1h-10.22c-.84,0-1.54-.28-2.03-.77s-.7-1.05-.7-1.75v-3.85c0-.7.21-1.26.7-1.75.49-.49,1.19-.77,2.03-.77h5.39c.84,0,1.47-.28,1.96-.77.49-.49.77-1.19.77-2.03v-1.82c0-.7.28-1.33.77-1.82.49-.49,1.12-.7,1.82-.77h5.46ZM184.53,49.16v15.26c0,.7-.21,1.26-.56,1.61-.42.35-.98.56-1.61.56h-7.7c-.63,0-1.26-.21-1.68-.56-.49-.35-.7-.91-.7-1.61v-15.26h-21.63c-.98,0-1.68-.35-2.17-.91-.56-.56-.84-1.19-.84-1.96V12.55c0-.7.28-1.26.84-1.82.49-.56,1.19-.84,2.17-.84h6.37c.84,0,1.54.28,2.1.84.56.56.84,1.12.84,1.82v27.72h46.7c1.12,0,1.89.14,2.31.56.35.42.56,1.33.56,2.59v2.8c0,.98-.21,1.68-.56,2.17-.42.49-1.19.77-2.31.77h-22.12ZM205.46,5.9c.35.42.56.91.56,1.68v29.05c0,.7-.21,1.26-.56,1.61-.35.35-.84.49-1.61.49h-39.41c-.77,0-1.26-.14-1.61-.49-.35-.35-.49-.91-.49-1.61V7.58c0-.77.14-1.26.49-1.68.35-.35.84-.49,1.61-.49h39.41c.77,0,1.26.14,1.61.49ZM193.7,12.06h-19.11v2.17h19.11v-2.17ZM193.7,20.81h-19.11v2.17h19.11v-2.17ZM193.7,29.49h-19.11v2.31h19.11v-2.31ZM197.55,51.41c.49.49.77,1.12.77,1.82v1.82c0,.84.28,1.54.77,2.03s1.19.77,1.96.77h5.39c.84,0,1.54.28,2.03.77s.7,1.05.7,1.75v3.85c0,.7-.21,1.26-.7,1.75-.49.49-1.19.77-2.03.77h-10.22c-3.01-.07-5.18-.84-6.51-2.1-1.33-1.26-1.96-3.15-1.96-5.6v-5.81c0-.7.28-1.33.77-1.82.42-.49,1.05-.7,1.75-.77h5.46c.7.07,1.33.28,1.82.77Z"/></g></svg>