<?xml version="1.0" encoding="UTF-8"?><svg id="_レイヤー_2" xmlns="http://www.w3.org/2000/svg" viewBox="0 0 216.68 71.45"><defs><style>.cls-1,.cls-2,.cls-3{stroke-width:0px;}.cls-2{fill:#198caa;}.cls-3{fill:#fff;}</style></defs><g id="_レイヤー_4"><path class="cls-1" d="M5.06,65.97c-.42-.49-.56-1.19-.56-2.17v-6.58c0-1.33.14-2.17.56-2.59s1.19-.63,2.31-.63h55.59c1.19,0,1.96.21,2.38.63.35.42.56,1.26.63,2.59v6.58c0,.98-.14,1.68-.56,2.17s-1.26.77-2.45.77H7.37c-1.12,0-1.89-.28-2.31-.77ZM5.9,17.59c-.42-.49-.63-1.26-.63-2.24v-6.58c0-1.33.21-2.17.63-2.59s1.19-.63,2.24-.63h54.04c1.19,0,1.96.21,2.31.63s.56,1.26.7,2.59v6.58c0,.98-.21,1.75-.63,2.24s-1.19.7-2.38.7H8.14c-1.05,0-1.82-.21-2.24-.7ZM11.08,41.11c-.42-.49-.63-1.26-.63-2.24v-6.58c0-1.33.21-2.17.63-2.59s1.19-.63,2.31-.63h43.62c1.12,0,1.96.21,2.31.63.35.42.56,1.26.7,2.59v6.58c0,.98-.21,1.75-.63,2.24s-1.26.7-2.38.7H13.39c-1.12,0-1.89-.21-2.31-.7Z"/><path class="cls-1" d="M79.9,24.17c-.42-.49-.63-1.26-.63-2.24v-1.12c0-1.33.21-2.17.63-2.59.42-.42,1.12-.63,2.24-.63h19.25v-1.75h-14.56c-.7-.07-1.33-.28-1.82-.77-.49-.42-.77-1.05-.77-1.75v-2.17c0-.77.28-1.33.77-1.82.49-.42,1.12-.7,1.82-.77h28.49c1.26,0,2.17-.07,2.66-.35.49-.28.7-.63.7-1.19s.21-1.12.7-1.68,1.12-.84,1.82-.84h8.05c.7,0,1.33.28,1.82.84s.77,1.19.77,1.96v1.05c.07,2.73-.7,4.62-2.17,5.81-1.47,1.12-4.06,1.68-7.84,1.68h-6.93v1.75h19.04c1.19,0,1.96.21,2.31.63.42.42.63,1.26.7,2.59v1.12c0,.98-.21,1.75-.63,2.24-.42.42-1.19.7-2.38.7h-19.04v1.75h12.53c1.33,0,2.31.28,3.01.77.77.49,1.12,1.54,1.12,3.22v14.77c0,1.47-.35,2.52-1.05,3.15-.7.63-1.68.91-3.01.91h-12.6v1.54h15.12c1.12,0,1.89.21,2.31.63.35.42.56,1.26.63,2.59v1.05c0,1.05-.14,1.75-.56,2.24s-1.26.7-2.38.7h-15.12v1.54h20.93c1.19,0,1.96.21,2.38.63.35.42.56,1.26.63,2.59v1.05c0,1.05-.14,1.75-.56,2.24s-1.26.7-2.45.7h-55.59c-1.12,0-1.89-.21-2.31-.7s-.56-1.19-.56-2.24v-1.05c0-1.33.14-2.17.56-2.59s1.19-.63,2.31-.63h21.14v-1.54h-15.26c-1.12,0-1.89-.21-2.31-.7-.42-.49-.56-1.19-.56-2.24v-1.05c0-1.33.14-2.17.56-2.59.42-.42,1.19-.63,2.31-.63h15.26v-1.54h-13.44c-1.47,0-2.52-.28-3.15-.91-.7-.63-1.05-1.61-1.05-3.08v-14.98c0-1.54.35-2.52.98-3.08.63-.49,1.68-.77,3.15-.77h13.51v-1.75h-19.25c-1.12,0-1.82-.28-2.24-.7ZM96.7,34.74h4.69v-1.68h-4.69v1.68ZM96.7,43h4.69v-1.75h-4.69v1.75ZM119.59,33.06h-4.69v1.68h4.69v-1.68ZM119.59,41.25h-4.69v1.75h4.69v-1.75Z"/><path class="cls-1" d="M169.12,50.71c.7.07,1.33.28,1.75.77.49.49.77,1.12.77,1.82v5.81c0,2.45-.63,4.34-1.96,5.6-1.33,1.26-3.5,2.03-6.51,2.1h-10.22c-.84,0-1.54-.28-2.03-.77-.49-.49-.7-1.05-.7-1.75v-3.85c0-.7.21-1.26.7-1.75.49-.49,1.19-.77,2.03-.77h5.39c.84,0,1.47-.28,1.96-.77.49-.49.77-1.19.77-2.03v-1.82c0-.7.28-1.33.77-1.82s1.12-.7,1.82-.77h5.46ZM187.18,49.23v15.26c0,.7-.21,1.26-.56,1.61-.42.35-.98.56-1.61.56h-7.7c-.63,0-1.26-.21-1.68-.56-.49-.35-.7-.91-.7-1.61v-15.26h-21.63c-.98,0-1.68-.35-2.17-.91-.56-.56-.84-1.19-.84-1.96V12.62c0-.7.28-1.26.84-1.82.49-.56,1.19-.84,2.17-.84h6.37c.84,0,1.54.28,2.1.84.56.56.84,1.12.84,1.82v27.72h46.69c1.12,0,1.89.14,2.31.56.35.42.56,1.33.56,2.59v2.8c0,.98-.21,1.68-.56,2.17-.42.49-1.19.77-2.31.77h-22.12ZM208.12,5.97c.35.42.56.91.56,1.68v29.05c0,.7-.21,1.26-.56,1.61-.35.35-.84.49-1.61.49h-39.41c-.77,0-1.26-.14-1.61-.49-.35-.35-.49-.91-.49-1.61V7.65c0-.77.14-1.26.49-1.68.35-.35.84-.49,1.61-.49h39.41c.77,0,1.26.14,1.61.49ZM196.35,12.13h-19.11v2.17h19.11v-2.17ZM196.35,20.88h-19.11v2.17h19.11v-2.17ZM196.35,29.56h-19.11v2.31h19.11v-2.31ZM200.2,51.47c.49.49.77,1.12.77,1.82v1.82c0,.84.28,1.54.77,2.03.49.49,1.19.77,1.96.77h5.39c.84,0,1.54.28,2.03.77s.7,1.05.7,1.75v3.85c0,.7-.21,1.26-.7,1.75s-1.19.77-2.03.77h-10.22c-3.01-.07-5.18-.84-6.51-2.1-1.33-1.26-1.96-3.15-1.96-5.6v-5.81c0-.7.28-1.33.77-1.82.42-.49,1.05-.7,1.75-.77h5.46c.7.07,1.33.28,1.82.77Z"/><path class="cls-2" d="M62.96,71.24H7.37c-3.08,0-4.81-1.27-5.73-2.34-1.47-1.72-1.64-3.73-1.64-5.1v-6.58c0-1.93.22-4.12,1.88-5.77,1.29-1.29,3.14-1.95,5.49-1.95h55.59c.89,0,3.62,0,5.56,1.95.1.1.19.19.27.3,1.32,1.58,1.59,3.63,1.67,5.24,0,.08,0,.16,0,.24v6.58c0,1.36-.17,3.38-1.64,5.1-.92,1.07-2.68,2.34-5.87,2.34ZM9.01,64.08h0,0ZM9,62.24h52.47v-3.74H9v3.74ZM63.33,58.52h0,0ZM57.01,46.31H13.39c-2.51,0-4.44-.77-5.73-2.27-1.13-1.33-1.71-3.06-1.71-5.17v-6.58c0-1.64.2-4.03,1.95-5.77,1.29-1.29,3.14-1.95,5.49-1.95h43.62c2.58,0,4.52.76,5.77,2.25,1.2,1.44,1.53,3.25,1.72,5,.02.16.02.31.02.47v6.58c0,2.1-.58,3.84-1.71,5.17-1.29,1.51-3.24,2.27-5.8,2.27ZM14.96,39.04h0,0ZM14.95,37.31h40.56v-3.74H14.95v3.74ZM62.19,22.79H8.14c-2.46,0-4.37-.76-5.66-2.27-1.14-1.33-1.71-3.07-1.71-5.17v-6.58c0-1.64.2-4.02,1.95-5.77,1.29-1.29,3.12-1.95,5.42-1.95h54.04c.96,0,3.9,0,5.77,2.25,1.2,1.44,1.53,3.25,1.72,5,.02.16.02.31.02.47v6.58c0,2.1-.58,3.84-1.71,5.17-1.95,2.27-4.85,2.27-5.8,2.27ZM9.78,15.51h0,0ZM9.77,13.79h50.93v-3.74H9.77v3.74Z"/><path class="cls-2" d="M135.83,71.45h-55.59c-2.51,0-4.43-.77-5.73-2.27-1.47-1.72-1.64-3.77-1.64-5.17v-1.05c0-1.93.22-4.12,1.88-5.77,1-1.01,2.35-1.62,4-1.85v-1.13c0-1.62.16-3.42,1.19-4.94-.46-1.11-.7-2.38-.7-3.81v-14.98c0-.53.03-1.04.09-1.53-1.21-.4-2.06-1.03-2.62-1.59-.08-.08-.16-.17-.24-.26-1.13-1.33-1.71-3.06-1.71-5.17v-1.12c0-1.64.2-4.03,1.95-5.77.94-.94,2.04-1.43,3.02-1.68v-2.21c0-1.91.72-3.64,2.09-5,.08-.08.17-.16.25-.24,1.21-1.04,2.7-1.67,4.3-1.83.15-.02.3-.02.45-.02h28.04c.29-.59.66-1.16,1.12-1.68,1.34-1.53,3.19-2.38,5.21-2.38h8.05c2.02,0,3.87.84,5.21,2.38,1.23,1.41,1.88,3.11,1.88,4.92v1c.04,1.95-.25,3.57-.72,4.9,1.22.18,2.77.67,3.95,1.98,1.49,1.59,1.79,3.71,1.88,5.39,0,.08,0,.16,0,.24v1.12c0,2.1-.58,3.84-1.71,5.17-.08.09-.16.18-.24.26-.68.68-1.8,1.46-3.51,1.82.05.46.07.94.07,1.44v14.77c0,1.16-.15,2.21-.44,3.16.06.06.11.12.16.19,1.32,1.58,1.59,3.63,1.67,5.24,0,.08,0,.16,0,.24v1.13c1.19.17,2.71.63,3.93,1.85.1.1.19.19.27.3,1.32,1.58,1.59,3.63,1.67,5.24,0,.08,0,.16,0,.24v1.05c0,1.4-.17,3.45-1.64,5.17-1.95,2.27-4.9,2.27-5.87,2.27ZM104.98,62.45h6.33c-.57-.75-.91-1.69-.91-2.71v-1.54c0-1.48.71-2.78,1.81-3.61-1.1-.82-1.81-2.13-1.81-3.61v-1.54c0-1.26.52-2.4,1.36-3.22-.84-.82-1.36-1.96-1.36-3.22v-1.75c0-1.28.54-2.44,1.39-3.26-.86-.82-1.39-1.98-1.39-3.26v-1.68c0-1.26.52-2.4,1.36-3.22-.84-.82-1.36-1.96-1.36-3.22v-1.75c0-1.5.73-2.82,1.85-3.64-1.12-.82-1.85-2.14-1.85-3.64v-1.75c0-1.05.36-2.02.96-2.78h-6.43c.6.77.96,1.73.96,2.78v1.75c0,1.5-.73,2.82-1.85,3.64,1.12.82,1.85,2.14,1.85,3.64v1.75c0,1.26-.52,2.4-1.36,3.22.84.82,1.36,1.96,1.36,3.22v1.68c0,1.28-.54,2.44-1.39,3.26.86.82,1.39,1.98,1.39,3.26v1.75c0,1.26-.52,2.4-1.36,3.22.84.82,1.36,1.96,1.36,3.22v1.54c0,1.48-.71,2.78-1.81,3.61,1.1.82,1.81,2.13,1.81,3.61v1.54c0,1.02-.34,1.96-.91,2.71ZM81.91,62.21h0s0,0,0,0ZM123.65,44.95h3.41v-13.82h-3.41c.28.59.44,1.25.44,1.94v1.68c0,1.28-.54,2.44-1.39,3.26.86.82,1.39,1.98,1.39,3.26v1.75c0,.7-.16,1.35-.44,1.94ZM88.25,44.95h4.39c-.28-.59-.44-1.25-.44-1.94v-1.75c0-1.28.54-2.44,1.39-3.26-.86-.82-1.39-1.98-1.39-3.26v-1.68c0-.69.16-1.35.44-1.94h-4.39v13.82ZM134.17,20.36h0s0,0,0,0ZM121.29,11.34h.54c3.61,0,4.83-.59,5.07-.73.32-.33.42-1.05.44-1.61h-4.49c-.31.9-.84,1.69-1.56,2.34Z"/><path class="cls-2" d="M209.1,71.31h-10.22s-.07,0-.11,0c-3.51-.08-6.37-.93-8.52-2.51-.14.17-.29.34-.44.49-.09.09-.19.18-.29.27-1.24,1.04-2.84,1.61-4.5,1.61h-7.7c-1.62,0-3.22-.54-4.43-1.5-.37-.28-.7-.6-.99-.94-2.16,1.63-5.05,2.5-8.61,2.58-.04,0-.07,0-.11,0h-10.22c-2.01,0-3.87-.74-5.21-2.09-1.32-1.32-2.02-3.03-2.02-4.93v-3.85c0-1.9.7-3.61,2.01-4.93,1.03-1.03,2.35-1.7,3.81-1.97-1.43-.33-2.71-1.06-3.69-2.14-1.35-1.4-2.06-3.13-2.06-5.04V12.62c0-1.84.69-3.49,2.06-4.91.97-1.06,2.68-2.25,5.45-2.25h6.37c.37,0,.73.02,1.08.07.25-.91.67-1.72,1.27-2.44.08-.1.17-.2.27-.29,1.2-1.21,2.81-1.82,4.8-1.82h39.41c1.99,0,3.6.61,4.8,1.82.09.09.18.19.27.29,1.06,1.28,1.6,2.81,1.6,4.56v28.93c.56.27,1.12.64,1.62,1.14.1.1.19.2.28.3,1.08,1.29,1.6,3.08,1.6,5.47v2.8c0,1.87-.47,3.48-1.4,4.78-.08.11-.16.21-.25.31-.75.87-2.04,1.88-4.17,2.22,1.32.3,2.5.95,3.44,1.89,1.32,1.32,2.02,3.03,2.02,4.93v3.85c0,1.91-.7,3.61-2.02,4.93-1.35,1.35-3.2,2.09-5.21,2.09ZM198.93,62.31h3.48c-1.47-.25-2.8-.93-3.85-1.98-1.32-1.32-2.07-3.14-2.09-5.12h-1.57v3.9c0,1.15.2,2,.56,2.34.14.13.97.8,3.47.86ZM159.66,62.31h3.46c2.5-.07,3.33-.73,3.47-.87.35-.33.55-1.18.55-2.33v-3.9h-1.57c-.02,1.98-.76,3.8-2.09,5.13-1.05,1.05-2.36,1.72-3.82,1.97ZM179.43,62.17h3.25v-12.93c0-2.15,1.5-3.94,3.51-4.39h-10.27c2.01.45,3.51,2.25,3.51,4.39v12.93ZM154.79,44.73h6.83c-2.01-.45-3.51-2.25-3.51-4.39V14.46h-3.32v30.27ZM200.14,34.3h4.03V9.98h-3.87c.35.64.55,1.37.55,2.15v2.17c0,1.3-.55,2.47-1.43,3.29.88.82,1.43,1.99,1.43,3.29v2.17c0,1.28-.53,2.44-1.39,3.25.86.82,1.39,1.97,1.39,3.25v2.31c0,.9-.26,1.73-.71,2.43ZM169.49,34.3h3.96c-.45-.7-.71-1.53-.71-2.43v-2.31c0-1.28.53-2.44,1.39-3.25-.86-.82-1.39-1.97-1.39-3.25v-2.17c0-1.3.55-2.47,1.43-3.29-.88-.82-1.43-1.99-1.43-3.29v-2.17c0-.78.2-1.51.55-2.15h-3.8v24.32ZM206.55,9.98h.01-.01Z"/><path class="cls-3" d="M62.96,69.74H7.37c-2.5,0-3.88-.99-4.59-1.82-1.15-1.34-1.28-2.99-1.28-4.12v-6.58c0-1.7.17-3.45,1.44-4.71,1.01-1.01,2.46-1.51,4.43-1.51h55.59c.74,0,2.99,0,4.5,1.51.06.06.12.13.18.2.81.97,1.22,2.31,1.32,4.35,0,.05,0,.11,0,.16v6.58c0,1.13-.13,2.78-1.28,4.12-.71.83-2.11,1.82-4.73,1.82ZM7.54,64.35h.01-.01ZM7.5,63.74h55.47v-6.44c0-.11-.01-.21-.02-.3H7.5c0,.07,0,.14,0,.22v6.52ZM7.57,56.16h0ZM57.01,44.81H13.39c-.76,0-3.09,0-4.59-1.75-.9-1.05-1.35-2.46-1.35-4.19v-6.58c0-1.38.16-3.36,1.51-4.71,1.02-1.02,2.46-1.51,4.43-1.51h43.62c2.12,0,3.67.58,4.62,1.71.94,1.13,1.22,2.68,1.38,4.2.01.1.02.21.02.31v6.58c0,1.73-.46,3.15-1.35,4.19-.99,1.16-2.56,1.75-4.66,1.75ZM13.5,39.38h0,0ZM13.45,38.81h43.56v-6.36c-.02-.14-.03-.27-.05-.38H13.45c0,.07,0,.14,0,.22v6.52ZM13.53,31.35h0s0,0,0,0ZM62.19,21.29H8.14c-2,0-3.53-.59-4.52-1.75-.9-1.05-1.35-2.46-1.35-4.19v-6.58c0-1.37.16-3.36,1.51-4.71,1-1,2.47-1.51,4.36-1.51h54.04c.79,0,3.19,0,4.62,1.71.94,1.13,1.22,2.69,1.38,4.2.01.1.02.21.02.31v6.58c0,1.73-.46,3.15-1.35,4.19-1.5,1.75-3.88,1.75-4.66,1.75ZM8.32,15.86h0,0ZM8.27,15.29h53.93v-6.36c-.02-.14-.03-.27-.05-.38H8.27c0,.07,0,.14,0,.22v6.52ZM7.65,15.25h0Z"/><path class="cls-3" d="M135.83,69.95h-55.59c-.76,0-3.09,0-4.59-1.75-1.14-1.33-1.28-2.94-1.28-4.19v-1.05c0-1.7.17-3.45,1.44-4.71,1.01-1.01,2.46-1.51,4.43-1.51h.11c-.08-.52-.1-1.02-.1-1.48v-1.05c0-1.7.17-3.45,1.44-4.71,0,0,.02-.02.03-.03-.65-1.08-.97-2.42-.97-4.01v-14.98c0-.99.12-1.88.35-2.66-1.36-.17-2.48-.67-3.32-1.52-.05-.06-.11-.11-.16-.17-.9-1.05-1.35-2.46-1.35-4.19v-1.12c0-1.38.16-3.36,1.51-4.71,1.14-1.14,2.65-1.42,3.62-1.49-.1-.42-.15-.85-.15-1.29v-2.17c0-1.52.55-2.85,1.65-3.94.05-.05.11-.11.17-.16.97-.84,2.18-1.35,3.47-1.48.1-.01.2-.02.3-.02h28.49c.22,0,.41,0,.57,0,.23-.78.64-1.52,1.23-2.19,1.05-1.2,2.5-1.86,4.08-1.86h8.05c1.58,0,3.03.66,4.08,1.86,1,1.15,1.51,2.47,1.51,3.94v1.05c.06,2.48-.46,4.58-1.56,6.24h.66c.77,0,3.09,0,4.52,1.6,1.16,1.23,1.41,2.94,1.49,4.46,0,.05,0,.11,0,.16v1.12c0,1.73-.46,3.15-1.35,4.19-.05.06-.1.12-.16.17-1,1-2.42,1.52-4.22,1.57.34,1.14.34,2.22.34,2.74v14.77c0,1.39-.24,2.59-.72,3.6.22.15.42.32.61.51.06.06.12.13.18.2.81.97,1.22,2.31,1.32,4.35,0,.05,0,.11,0,.16v1.05c0,.46-.02.96-.1,1.48.77,0,2.98.02,4.47,1.51.06.06.12.13.18.2.81.97,1.22,2.31,1.32,4.36,0,.05,0,.11,0,.16v1.05c0,1.25-.15,2.87-1.28,4.19-1.5,1.75-3.93,1.75-4.73,1.75ZM80.38,63.95h55.47v-.91c0-.11-.01-.21-.02-.3h-20.92c-1.66,0-3-1.34-3-3v-1.54c0-1.66,1.34-3,3-3h15.06v-.91c0-.11-.01-.21-.02-.3h-15.04c-1.66,0-3-1.34-3-3v-1.54c0-1.66,1.34-3,3-3h12.6c.57,0,.84-.08.95-.12.04-.12.11-.4.11-.94v-14.77c0-.42-.03-.69-.06-.86-.22-.07-.58-.13-1.07-.13h-12.53c-1.66,0-3-1.34-3-3v-1.75c0-1.66,1.34-3,3-3h19.05v-.98c0-.11-.01-.21-.02-.3h-19.03c-1.66,0-3-1.34-3-3v-1.75c0-1.66,1.34-3,3-3h6.93c4.17,0,5.6-.75,6.02-1.07.21-.17,1.05-.85.99-3.35v-.93h-7.19c-.14,1.41-.9,2.58-2.18,3.31-1.09.62-2.4.75-4.15.75h-28.08v1.28h14.15c1.66,0,3,1.34,3,3v1.75c0,1.66-1.34,3-3,3h-19.12c0,.07,0,.14,0,.22v1.06h19.12c1.66,0,3,1.34,3,3v1.75c0,1.66-1.34,3-3,3h-13.51c-.52,0-.86.05-1.08.09-.03.16-.05.41-.05.76v14.98c0,.52.07.78.1.88.12.04.45.11,1.1.11h13.44c1.66,0,3,1.34,3,3v1.54c0,1.66-1.34,3-3,3h-15.13c0,.07,0,.14,0,.22v.99h15.13c1.66,0,3,1.34,3,3v1.54c0,1.66-1.34,3-3,3h-21.01c0,.07,0,.14,0,.22v.99ZM128.83,29.92s0,0,0,0c0,0,0,0,0,0ZM119.59,46h-4.69c-1.66,0-3-1.34-3-3v-1.75c0-1.66,1.34-3,3-3h4.69c1.66,0,3,1.34,3,3v1.75c0,1.66-1.34,3-3,3ZM101.39,46h-4.69c-1.66,0-3-1.34-3-3v-1.75c0-1.66,1.34-3,3-3h4.69c1.66,0,3,1.34,3,3v1.75c0,1.66-1.34,3-3,3ZM119.59,37.74h-4.69c-1.66,0-3-1.34-3-3v-1.68c0-1.66,1.34-3,3-3h4.69c1.66,0,3,1.34,3,3v1.68c0,1.66-1.34,3-3,3ZM101.39,37.74h-4.69c-1.66,0-3-1.34-3-3v-1.68c0-1.66,1.34-3,3-3h4.69c1.66,0,3,1.34,3,3v1.68c0,1.66-1.34,3-3,3Z"/><path class="cls-3" d="M209.1,69.81h-10.22c-3.76-.09-6.62-1.07-8.57-2.92-.15-.15-.3-.29-.44-.45-.24.69-.62,1.3-1.12,1.79-.06.06-.13.12-.2.18-.97.81-2.23,1.26-3.54,1.26h-7.7c-1.29,0-2.57-.43-3.52-1.19-.72-.54-1.24-1.26-1.55-2.11-.16.18-.33.35-.5.51-1.96,1.85-4.82,2.84-8.51,2.92h-10.29c-1.61,0-3.09-.58-4.15-1.65-1.05-1.05-1.58-2.35-1.58-3.87v-3.85c0-1.52.53-2.82,1.58-3.87,1.06-1.06,2.54-1.65,4.15-1.65h5.12v-1.62c0-.36.04-.71.11-1.06h-4.87c-1.75,0-3.26-.64-4.36-1.86-1.08-1.11-1.65-2.5-1.65-4.01V12.62c0-1.45.56-2.75,1.65-3.88.76-.83,2.12-1.78,4.36-1.78h6.37c.83,0,1.61.15,2.32.45.02-.92.21-2.19,1.18-3.36.06-.07.12-.13.18-.2,1.37-1.38,3.15-1.38,3.74-1.38h39.41c.59,0,2.37,0,3.74,1.38.06.06.12.13.18.2.84,1.01,1.25,2.19,1.25,3.6v29.05c0,.31-.02.6-.06.89.76.2,1.5.56,2.12,1.19.06.06.13.13.18.2.84,1.01,1.25,2.49,1.25,4.51v2.8c0,1.56-.38,2.87-1.12,3.91-.05.07-.11.14-.16.21-.71.83-2.08,1.82-4.59,1.82h-5.43c.07.35.1.7.1,1.06v1.62h5.12c1.61,0,3.09.59,4.15,1.65,1.05,1.05,1.58,2.35,1.58,3.87v3.85c0,1.52-.53,2.82-1.58,3.87-1.06,1.06-2.54,1.65-4.15,1.65ZM193.4,53.71v5.4c0,1.63.34,2.78,1.02,3.43.82.77,2.42,1.23,4.52,1.28h9.88v-2.89h-5.12c-1.57,0-3.02-.59-4.08-1.66-1.06-1.06-1.65-2.53-1.65-4.15v-1.41h-4.57ZM153.22,63.8h9.95c2.03-.04,3.63-.5,4.45-1.27.68-.64,1.02-1.79,1.02-3.42v-5.4h-4.57v1.41c0,1.62-.59,3.09-1.65,4.15-1.07,1.07-2.48,1.65-4.08,1.65h-5.12v2.88ZM177.93,63.67h6.25v-14.43c0-1.66,1.34-3,3-3h21.99v-2.74c0-.05,0-.1,0-.15h-46.56c-1.66,0-3-1.34-3-3V12.97h-6.31s0,0,0,0v33.27h21.64c1.66,0,3,1.34,3,3v14.43ZM167.99,35.8h37.68V8.48s-37.68,0-37.68,0v27.32ZM206.69,8.49h0,0ZM196.35,34.87h-19.11c-1.66,0-3-1.34-3-3v-2.31c0-1.66,1.34-3,3-3h19.11c1.66,0,3,1.34,3,3v2.31c0,1.66-1.34,3-3,3ZM196.35,26.05h-19.11c-1.66,0-3-1.34-3-3v-2.17c0-1.66,1.34-3,3-3h19.11c1.66,0,3,1.34,3,3v2.17c0,1.66-1.34,3-3,3ZM196.35,17.3h-19.11c-1.66,0-3-1.34-3-3v-2.17c0-1.66,1.34-3,3-3h19.11c1.66,0,3,1.34,3,3v2.17c0,1.66-1.34,3-3,3Z"/><path class="cls-2" d="M5.06,65.97c-.42-.49-.56-1.19-.56-2.17v-6.58c0-1.33.14-2.17.56-2.59s1.19-.63,2.31-.63h55.59c1.19,0,1.96.21,2.38.63.35.42.56,1.26.63,2.59v6.58c0,.98-.14,1.68-.56,2.17s-1.26.77-2.45.77H7.37c-1.12,0-1.89-.28-2.31-.77ZM5.9,17.59c-.42-.49-.63-1.26-.63-2.24v-6.58c0-1.33.21-2.17.63-2.59s1.19-.63,2.24-.63h54.04c1.19,0,1.96.21,2.31.63s.56,1.26.7,2.59v6.58c0,.98-.21,1.75-.63,2.24s-1.19.7-2.38.7H8.14c-1.05,0-1.82-.21-2.24-.7ZM11.08,41.11c-.42-.49-.63-1.26-.63-2.24v-6.58c0-1.33.21-2.17.63-2.59s1.19-.63,2.31-.63h43.62c1.12,0,1.96.21,2.31.63.35.42.56,1.26.7,2.59v6.58c0,.98-.21,1.75-.63,2.24s-1.26.7-2.38.7H13.39c-1.12,0-1.89-.21-2.31-.7Z"/><path class="cls-2" d="M79.9,24.17c-.42-.49-.63-1.26-.63-2.24v-1.12c0-1.33.21-2.17.63-2.59.42-.42,1.12-.63,2.24-.63h19.25v-1.75h-14.56c-.7-.07-1.33-.28-1.82-.77-.49-.42-.77-1.05-.77-1.75v-2.17c0-.77.28-1.33.77-1.82.49-.42,1.12-.7,1.82-.77h28.49c1.26,0,2.17-.07,2.66-.35.49-.28.7-.63.7-1.19s.21-1.12.7-1.68,1.12-.84,1.82-.84h8.05c.7,0,1.33.28,1.82.84s.77,1.19.77,1.96v1.05c.07,2.73-.7,4.62-2.17,5.81-1.47,1.12-4.06,1.68-7.84,1.68h-6.93v1.75h19.04c1.19,0,1.96.21,2.31.63.42.42.63,1.26.7,2.59v1.12c0,.98-.21,1.75-.63,2.24-.42.42-1.19.7-2.38.7h-19.04v1.75h12.53c1.33,0,2.31.28,3.01.77.77.49,1.12,1.54,1.12,3.22v14.77c0,1.47-.35,2.52-1.05,3.15-.7.63-1.68.91-3.01.91h-12.6v1.54h15.12c1.12,0,1.89.21,2.31.63.35.42.56,1.26.63,2.59v1.05c0,1.05-.14,1.75-.56,2.24s-1.26.7-2.38.7h-15.12v1.54h20.93c1.19,0,1.96.21,2.38.63.35.42.56,1.26.63,2.59v1.05c0,1.05-.14,1.75-.56,2.24s-1.26.7-2.45.7h-55.59c-1.12,0-1.89-.21-2.31-.7s-.56-1.19-.56-2.24v-1.05c0-1.33.14-2.17.56-2.59s1.19-.63,2.31-.63h21.14v-1.54h-15.26c-1.12,0-1.89-.21-2.31-.7-.42-.49-.56-1.19-.56-2.24v-1.05c0-1.33.14-2.17.56-2.59.42-.42,1.19-.63,2.31-.63h15.26v-1.54h-13.44c-1.47,0-2.52-.28-3.15-.91-.7-.63-1.05-1.61-1.05-3.08v-14.98c0-1.54.35-2.52.98-3.08.63-.49,1.68-.77,3.15-.77h13.51v-1.75h-19.25c-1.12,0-1.82-.28-2.24-.7ZM96.7,34.74h4.69v-1.68h-4.69v1.68ZM96.7,43h4.69v-1.75h-4.69v1.75ZM119.59,33.06h-4.69v1.68h4.69v-1.68ZM119.59,41.25h-4.69v1.75h4.69v-1.75Z"/><path class="cls-2" d="M169.12,50.71c.7.07,1.33.28,1.75.77.49.49.77,1.12.77,1.82v5.81c0,2.45-.63,4.34-1.96,5.6-1.33,1.26-3.5,2.03-6.51,2.1h-10.22c-.84,0-1.54-.28-2.03-.77-.49-.49-.7-1.05-.7-1.75v-3.85c0-.7.21-1.26.7-1.75.49-.49,1.19-.77,2.03-.77h5.39c.84,0,1.47-.28,1.96-.77.49-.49.77-1.19.77-2.03v-1.82c0-.7.28-1.33.77-1.82s1.12-.7,1.82-.77h5.46ZM187.18,49.23v15.26c0,.7-.21,1.26-.56,1.61-.42.35-.98.56-1.61.56h-7.7c-.63,0-1.26-.21-1.68-.56-.49-.35-.7-.91-.7-1.61v-15.26h-21.63c-.98,0-1.68-.35-2.17-.91-.56-.56-.84-1.19-.84-1.96V12.62c0-.7.28-1.26.84-1.82.49-.56,1.19-.84,2.17-.84h6.37c.84,0,1.54.28,2.1.84.56.56.84,1.12.84,1.82v27.72h46.69c1.12,0,1.89.14,2.31.56.35.42.56,1.33.56,2.59v2.8c0,.98-.21,1.68-.56,2.17-.42.49-1.19.77-2.31.77h-22.12ZM208.12,5.97c.35.42.56.91.56,1.68v29.05c0,.7-.21,1.26-.56,1.61-.35.35-.84.49-1.61.49h-39.41c-.77,0-1.26-.14-1.61-.49-.35-.35-.49-.91-.49-1.61V7.65c0-.77.14-1.26.49-1.68.35-.35.84-.49,1.61-.49h39.41c.77,0,1.26.14,1.61.49ZM196.35,12.13h-19.11v2.17h19.11v-2.17ZM196.35,20.88h-19.11v2.17h19.11v-2.17ZM196.35,29.56h-19.11v2.31h19.11v-2.31ZM200.2,51.47c.49.49.77,1.12.77,1.82v1.82c0,.84.28,1.54.77,2.03.49.49,1.19.77,1.96.77h5.39c.84,0,1.54.28,2.03.77s.7,1.05.7,1.75v3.85c0,.7-.21,1.26-.7,1.75s-1.19.77-2.03.77h-10.22c-3.01-.07-5.18-.84-6.51-2.1-1.33-1.26-1.96-3.15-1.96-5.6v-5.81c0-.7.28-1.33.77-1.82.42-.49,1.05-.7,1.75-.77h5.46c.7.07,1.33.28,1.82.77Z"/></g></svg>