<?xml version="1.0" encoding="UTF-8"?><svg id="_レイヤー_2" xmlns="http://www.w3.org/2000/svg" viewBox="0 0 217.23 70.47"><defs><style>.cls-1,.cls-2,.cls-3{stroke-width:0px;}.cls-2{fill:#198caa;}.cls-3{fill:#fff;}</style></defs><g id="_レイヤー_4"><path class="cls-1" d="M27.92,40.55c.42.49.63,1.19.63,2.03v7c0,1.12-.28,1.89-.7,2.38-.42.49-1.19.98-2.38,1.47l-17.85,6.58c-1.33.28-2.24.21-2.59-.35-.42-.49-.63-1.33-.49-2.45v-6.3c0-1.19.14-2.03.42-2.45.28-.35.91-.84,1.89-1.26l6.16-2.24v-14.63h-4.83c-1.05,0-1.82-.28-2.24-.77-.42-.42-.63-1.19-.63-2.17v-6.3c0-1.33.21-2.17.63-2.59s1.19-.63,2.24-.63h4.83V7.16c.07-.7.35-1.33.84-1.89.56-.56,1.26-.77,2.17-.77h3.15c.77,0,1.47.21,1.96.77.49.56.84,1.19.98,1.89v10.71h3.71c1.19,0,2.03.21,2.45.63.35.42.56,1.26.56,2.59v6.3c0,.98-.21,1.75-.56,2.17-.42.49-1.26.77-2.45.77h-3.71v11.2l3.36-1.26c1.19-.28,2.03-.21,2.45.28ZM50.4,4.57c.7,0,1.26.28,1.75.84.56.56.77,1.19.77,1.96v2.87h11.27c1.19,0,2.03.21,2.38.56.42.42.63,1.33.63,2.59v3.01c0,1.05-.21,1.75-.63,2.24-.35.49-1.19.7-2.38.7h-10.71c.35,1.19.84,2.1,1.47,2.73,1.47,1.26,4.34,1.89,8.75,1.89h.77c.77.07,1.33.28,1.89.77.49.42.7,1.05.7,1.75v4.06c0,.7-.21,1.33-.7,1.75-.56.49-1.12.7-1.89.77h-5.53c-4.69-.14-8.05-1.19-10.15-3.08-2.1,1.89-5.53,2.94-10.22,3.08h-5.53c-.7-.07-1.33-.28-1.82-.77-.56-.42-.77-1.05-.77-1.75v-4.06c0-.7.21-1.33.77-1.75.49-.49,1.12-.7,1.82-.77h.77c4.41,0,7.35-.63,8.75-1.89.63-.63,1.19-1.54,1.47-2.73h-10.57c-1.12,0-1.89-.21-2.24-.7-.42-.49-.63-1.19-.63-2.24v-3.01c0-1.26.21-2.17.63-2.59.35-.35,1.12-.56,2.24-.56h11.13v-2.87c0-.77.28-1.4.77-1.96.49-.56,1.05-.84,1.75-.84h3.29ZM31.21,43c-.42-.49-.63-1.26-.63-2.24v-3.01c0-1.33.21-2.17.63-2.59.35-.42,1.12-.63,2.24-.63h30.73c1.19,0,2.03.21,2.38.63.42.42.63,1.26.63,2.59v3.01c0,.98-.21,1.75-.63,2.24-.35.49-1.19.7-2.38.7h-.63v17.85c0,1.75-.28,2.87-.84,3.5-.56.56-1.68.91-3.29.91h-8.05c-1.96,0-2.94-.98-2.94-2.8v-3.08c0-.35,0-.63.07-.91h-13.09c-1.26,0-2.24-.28-3.01-.77-.7-.49-1.05-1.54-1.05-3.22v-5.74c0-1.47.35-2.52,1.05-3.15.7-.63,1.68-.91,2.94-.91h12.53c1.47,0,2.52.28,3.15.91.7.63.98,1.61.98,3.08v5.95c0,.77-.07,1.33-.14,1.82h2.17v-13.44h-20.58c-1.12,0-1.89-.21-2.24-.7ZM43.26,53.5v-2.52h-3.22v2.52h3.22Z"/><path class="cls-1" d="M78.5,65.13c-.42-.49-.56-1.26-.56-2.24v-6.58c0-1.33.14-2.17.56-2.59s1.19-.63,2.31-.63h20.65v-12.04h-14.63c-1.12,0-1.89-.21-2.31-.7-.42-.49-.63-1.26-.63-2.31v-6.65c0-1.33.21-2.17.63-2.59s1.19-.63,2.31-.63h14.63v-10.64h-19.88c-1.05,0-1.82-.21-2.24-.7-.42-.49-.63-1.26-.63-2.24v-6.65c0-1.33.21-2.17.63-2.59.42-.42,1.19-.7,2.24-.7h54.05c1.19,0,1.96.28,2.31.7.35.42.56,1.26.7,2.59v6.65c0,.98-.21,1.75-.63,2.24-.42.49-1.19.7-2.38.7h-19.67v10.64h14.49c1.12,0,1.96.21,2.31.63.35.42.56,1.26.7,2.59v6.65c0,1.05-.21,1.82-.63,2.31-.42.49-1.26.7-2.38.7h-14.49v12.04h5.39l-2.45-5.6c-.35-.77-.28-1.4.21-1.96.56-.56,1.4-.84,2.59-.77h6.09c1.12-.07,1.82.14,2.24.56.35.35.84,1.19,1.47,2.38l2.17,5.39h2.73c1.19,0,1.96.21,2.38.63.35.42.56,1.26.63,2.59v6.58c0,.98-.14,1.75-.56,2.24s-1.26.77-2.45.77h-55.59c-1.12,0-1.89-.28-2.31-.77Z"/><path class="cls-1" d="M169.68,49.86c.7.07,1.33.28,1.75.77.49.49.77,1.12.77,1.82v5.81c0,2.45-.63,4.34-1.96,5.6-1.33,1.26-3.5,2.03-6.51,2.1h-10.22c-.84,0-1.54-.28-2.03-.77s-.7-1.05-.7-1.75v-3.85c0-.7.21-1.26.7-1.75.49-.49,1.19-.77,2.03-.77h5.39c.84,0,1.47-.28,1.96-.77.49-.49.77-1.19.77-2.03v-1.82c0-.7.28-1.33.77-1.82.49-.49,1.12-.7,1.82-.77h5.46ZM187.74,48.39v15.26c0,.7-.21,1.26-.56,1.61-.42.35-.98.56-1.61.56h-7.7c-.63,0-1.26-.21-1.68-.56-.49-.35-.7-.91-.7-1.61v-15.26h-21.63c-.98,0-1.68-.35-2.17-.91-.56-.56-.84-1.19-.84-1.96V11.78c0-.7.28-1.26.84-1.82.49-.56,1.19-.84,2.17-.84h6.37c.84,0,1.54.28,2.1.84.56.56.84,1.12.84,1.82v27.72h46.7c1.12,0,1.89.14,2.31.56.35.42.56,1.33.56,2.59v2.8c0,.98-.21,1.68-.56,2.17-.42.49-1.19.77-2.31.77h-22.12ZM208.67,5.13c.35.42.56.91.56,1.68v29.05c0,.7-.21,1.26-.56,1.61-.35.35-.84.49-1.61.49h-39.41c-.77,0-1.26-.14-1.61-.49-.35-.35-.49-.91-.49-1.61V6.81c0-.77.14-1.26.49-1.68.35-.35.84-.49,1.61-.49h39.41c.77,0,1.26.14,1.61.49ZM196.91,11.29h-19.11v2.17h19.11v-2.17ZM196.91,20.04h-19.11v2.17h19.11v-2.17ZM196.91,28.72h-19.11v2.31h19.11v-2.31ZM200.76,50.63c.49.49.77,1.12.77,1.82v1.82c0,.84.28,1.54.77,2.03s1.19.77,1.96.77h5.39c.84,0,1.54.28,2.03.77s.7,1.05.7,1.75v3.85c0,.7-.21,1.26-.7,1.75-.49.49-1.19.77-2.03.77h-10.22c-3.01-.07-5.18-.84-6.51-2.1-1.33-1.26-1.96-3.15-1.96-5.6v-5.81c0-.7.28-1.33.77-1.82.42-.49,1.05-.7,1.75-.77h5.46c.7.07,1.33.28,1.82.77Z"/><path class="cls-2" d="M59.43,70.47h-8.05c-4.27,0-7.2-2.71-7.43-6.79h-8.54c-2.06,0-3.89-.5-5.43-1.47-.06-.04-.11-.07-.17-.11-1.42-1-2.34-2.49-2.74-4.45-.02,0-.03.01-.05.02l-17.85,6.58c-.21.08-.42.14-.63.18-4.15.87-6.2-.78-7.12-2.06-1.09-1.41-1.58-3.3-1.38-5.39v-6.06c0-2.2.36-3.73,1.17-4.95.07-.11.15-.22.23-.32.82-1.02,2.07-1.91,3.63-2.58.08-.03.16-.06.24-.09l3.2-1.16v-6.98h-.33c-2.29,0-4.25-.79-5.55-2.22-.86-.92-1.82-2.54-1.82-5.22v-6.3c0-1.64.2-4.03,1.95-5.77,1.29-1.29,3.12-1.95,5.42-1.95h.33v-6.21c0-.15,0-.3.02-.44.16-1.62.83-3.15,1.93-4.41.07-.08.14-.15.21-.22,1.38-1.39,3.19-2.09,5.35-2.09h3.15c2.15,0,4.05.82,5.35,2.31,1.04,1.19,1.72,2.53,2.01,3.97.06.29.09.58.09.88v2.74c.32-.9.79-1.65,1.42-2.28,1.24-1.25,3.07-1.88,5.42-1.88h6.81c.27-1.2.85-2.32,1.7-3.29,1.36-1.56,3.14-2.38,5.14-2.38h3.29c1.95,0,3.69.78,5.04,2.27.7.73,1.48,1.85,1.81,3.4h6.94c2.48,0,4.3.62,5.57,1.88,1.31,1.31,1.94,3.19,1.94,5.77v3.01c0,2.06-.52,3.71-1.6,5.03-.1.12-.2.24-.3.36,1.13,1.21,1.76,2.85,1.76,4.69v4.06c0,1.1-.23,2.14-.66,3.05.7,1.43.8,2.98.8,4.16v3.01c0,2.03-.54,3.72-1.6,5.03-.54.7-1.22,1.25-2.04,1.64v14.12c0,1.83-.21,4.49-1.98,6.49-.06.06-.12.13-.18.19-1.48,1.48-3.66,2.23-6.47,2.23ZM55.3,61.46h3.75s0-17.76,0-17.76c0-2.19,1.57-4.02,3.64-4.42v-.25h-27.61v.17h18.95c2.49,0,4.5,2.01,4.5,4.5v13.44c0,2.05-1.36,3.77-3.23,4.32ZM9.04,51.2v3.5l14.79-5.45c.08-.03.16-.07.22-.1v-3.54l-.36.14c-1.38.52-2.93.32-4.14-.52s-1.94-2.22-1.94-3.7v-11.2c0-2.49,2.01-4.5,4.5-4.5h2.22v-3.46h-2.22c-2.49,0-4.5-2.01-4.5-4.5v-8.87h-.1v8.87c0,2.49-2.01,4.5-4.5,4.5h-3.2v3.46h3.2c2.49,0,4.5,2.02,4.5,4.5v14.63c0,1.89-1.18,3.58-2.96,4.23l-5.51,2ZM59.01,28.56h3.55v-.11c-4.97-.12-8.34-1.07-10.54-2.96-.09-.07-.17-.15-.25-.23-1.17-1.16-2.04-2.73-2.61-4.64-.4-1.36-.14-2.83.71-3.97s2.18-1.8,3.6-1.8h9.22v-.1h-9.78c-1.88,0-3.49-1.15-4.17-2.79-.67,1.64-2.28,2.79-4.17,2.79h-9.5v.1h8.94c1.37,0,2.67.63,3.53,1.71.85,1.08,1.17,2.48.85,3.82-.44,1.89-1.37,3.58-2.67,4.88-.05.06-.11.11-.17.16-2.15,1.94-5.54,2.91-10.62,3.03v.11h3.55c4.63-.15,6.55-1.27,7.28-1.93,1.71-1.54,4.31-1.54,6.02,0,1.26,1.13,3.82,1.82,7.21,1.93ZM50.4,9.07h0,0Z"/><path class="cls-2" d="M136.39,70.4h-55.59c-3.08,0-4.81-1.27-5.73-2.34-1.64-1.92-1.64-4.36-1.64-5.17v-6.58c0-1.93.22-4.12,1.88-5.77,1.29-1.29,3.14-1.95,5.49-1.95h16.15v-3.04h-10.13c-2.51,0-4.43-.76-5.73-2.27-1.14-1.33-1.71-3.09-1.71-5.24v-6.65c0-1.64.2-4.03,1.95-5.77,1.29-1.29,3.14-1.95,5.49-1.95h10.13v-1.64h-15.38c-2.46,0-4.36-.76-5.65-2.27-1.14-1.33-1.72-3.07-1.72-5.17v-6.65c0-1.64.2-4.03,1.95-5.77,1.31-1.3,3.23-2.02,5.42-2.02h54.05c3.17,0,4.88,1.26,5.76,2.32,1.2,1.44,1.54,3.26,1.72,5,.02.16.02.31.02.47v6.65c0,2.1-.58,3.84-1.71,5.17-1.95,2.27-4.85,2.27-5.8,2.27h-15.17v1.64h9.99c2.58,0,4.52.76,5.76,2.25,1.2,1.44,1.54,3.26,1.72,5,.02.16.03.31.03.47v6.65c0,2.15-.58,3.91-1.71,5.24-.4.47-.86.86-1.39,1.19.2.35.4.72.62,1.13.07.14.14.28.2.42l1.04,2.57c1.11.02,3.49.19,5.25,1.95.1.1.19.2.28.3,1.32,1.58,1.58,3.63,1.67,5.23,0,.08,0,.16,0,.23v6.58c0,.8,0,3.25-1.64,5.17-.92,1.07-2.68,2.34-5.87,2.34ZM82.45,63.21h0,0ZM82.44,61.4h52.47v-3.81h-1.24c-1.84,0-3.49-1.12-4.17-2.82l-2.08-5.17c-.07-.12-.13-.24-.19-.34h-2.64l.89,2.03c.61,1.39.48,3-.36,4.27-.83,1.27-2.25,2.04-3.77,2.04h-5.39c-2.49,0-4.5-2.01-4.5-4.5v-12.04c0-2.49,2.01-4.5,4.5-4.5h13v-3.88h-13c-2.49,0-4.5-2.01-4.5-4.5v-10.64c0-2.49,2.01-4.5,4.5-4.5h18.18v-3.88h-50.93v3.88h18.25c2.49,0,4.5,2.01,4.5,4.5v10.64c0,2.49-2.01,4.5-4.5,4.5h-13.07v3.88h13.07c2.49,0,4.5,2.01,4.5,4.5v12.04c0,2.49-2.01,4.5-4.5,4.5h-19.02v3.81ZM122.99,45.62l.02.04s-.01-.03-.02-.04Z"/><path class="cls-2" d="M209.65,70.47h-10.22s-.07,0-.1,0c-3.51-.08-6.37-.93-8.52-2.51-.14.17-.29.34-.44.5-.1.1-.2.19-.3.28-1.24,1.03-2.84,1.6-4.49,1.6h-7.7c-1.62,0-3.22-.54-4.43-1.5-.37-.28-.71-.6-1-.94-2.16,1.63-5.05,2.5-8.61,2.58-.03,0-.07,0-.1,0h-10.22c-2.01,0-3.87-.74-5.21-2.09-1.32-1.32-2.02-3.03-2.02-4.93v-3.85c0-1.91.7-3.62,2.02-4.94,1.02-1.02,2.34-1.7,3.8-1.96-1.43-.33-2.71-1.06-3.69-2.14-1.35-1.4-2.06-3.14-2.06-5.04V11.78c0-1.84.69-3.49,2.06-4.9.97-1.06,2.68-2.26,5.45-2.26h6.37c.37,0,.73.02,1.08.07.25-.91.67-1.72,1.27-2.45.09-.1.18-.2.27-.3,1.2-1.2,2.81-1.81,4.79-1.81h39.41c1.98,0,3.59.61,4.79,1.81.1.1.19.2.28.3,1.06,1.28,1.6,2.81,1.6,4.56v28.93c.56.27,1.12.64,1.62,1.14.1.1.19.19.27.3,1.08,1.29,1.61,3.08,1.61,5.47v2.8c0,1.88-.47,3.49-1.4,4.79-.08.11-.16.21-.24.31-.75.87-2.04,1.88-4.17,2.22,1.31.3,2.5.95,3.44,1.89,1.32,1.32,2.02,3.03,2.02,4.93v3.85c0,1.9-.7,3.61-2.01,4.93-1.35,1.35-3.2,2.09-5.22,2.09ZM199.49,61.47h3.48c-1.47-.25-2.8-.93-3.85-1.98-1.33-1.33-2.07-3.14-2.09-5.12h-1.57v3.9c0,1.15.2,2,.56,2.33.14.13.97.8,3.47.87ZM160.22,61.47h3.46c1.94-.05,3.06-.48,3.47-.87.35-.33.56-1.19.56-2.33v-3.9h-1.57c-.02,1.98-.76,3.8-2.09,5.13-1.06,1.06-2.36,1.73-3.82,1.98ZM179.99,61.33h3.25v-12.93c0-2.15,1.5-3.94,3.51-4.39h-10.28c2.01.45,3.51,2.25,3.51,4.39v12.93ZM155.35,43.89h6.83c-2.01-.45-3.51-2.25-3.51-4.39V13.62h-3.32v30.27ZM200.7,33.46h4.03V9.14h-3.87c.35.64.55,1.37.55,2.15v2.17c0,1.3-.55,2.47-1.43,3.29.88.82,1.43,1.99,1.43,3.29v2.17c0,1.28-.54,2.44-1.39,3.26.86.82,1.39,1.98,1.39,3.26v2.31c0,.9-.26,1.73-.71,2.43ZM170.05,33.46h3.96c-.45-.7-.71-1.53-.71-2.43v-2.31c0-1.28.54-2.44,1.39-3.26-.86-.82-1.39-1.98-1.39-3.26v-2.17c0-1.3.55-2.47,1.43-3.29-.88-.82-1.43-1.99-1.43-3.29v-2.17c0-.78.2-1.51.55-2.15h-3.79v24.32ZM207.11,9.14h.01-.01Z"/><path class="cls-3" d="M59.43,68.97h-8.05c-3.61,0-5.94-2.28-5.94-5.8v-.99h-10.02c-1.77,0-3.33-.42-4.62-1.24-.04-.02-.08-.05-.11-.07-2.21-1.55-2.32-4.36-2.33-5.5-.5.3-1.08.58-1.74.85-.04.01-.07.03-.11.04l-17.85,6.58c-.14.05-.28.09-.42.12-3.23.68-4.83-.39-5.62-1.5-.87-1.12-1.25-2.67-1.08-4.41v-6.13c0-1.89.28-3.16.92-4.11.05-.07.1-.15.16-.21.66-.82,1.74-1.58,3.05-2.14.05-.02.1-.04.16-.06l4.19-1.52v-9.53h-1.83c-2.36,0-3.71-.92-4.44-1.73-.95-1-1.43-2.41-1.43-4.21v-6.3c0-1.38.16-3.36,1.51-4.71,1-1,2.47-1.51,4.36-1.51h1.83v-7.71c0-.1,0-.2.01-.3.13-1.33.66-2.53,1.57-3.57.04-.05.09-.1.14-.15,1.09-1.09,2.54-1.65,4.29-1.65h3.15c2.19,0,3.5.98,4.22,1.79.87.99,1.43,2.1,1.66,3.28.04.19.06.39.06.59v7.71h.71c.64,0,1.23.05,1.76.14v-1.62c0-2.15.49-3.7,1.51-4.71.95-.95,2.42-1.44,4.36-1.44h8.13c.03-1.41.54-2.69,1.51-3.8,1.07-1.22,2.45-1.87,4.01-1.87h3.29c1.52,0,2.88.62,3.94,1.79,1.02,1.05,1.55,2.36,1.58,3.88h8.27c2.06,0,3.54.47,4.5,1.44,1.01,1.01,1.51,2.55,1.51,4.71v3.01c0,1.71-.42,3.05-1.28,4.1-.45.58-1.01.98-1.58,1.25.35.2.68.44,1,.72,1.11.95,1.73,2.38,1.73,4.01v4.06c0,1.15-.31,2.21-.89,3.07.91,1.3,1.03,2.95,1.03,4.14v3.01c0,1.68-.43,3.06-1.27,4.1-.65.85-1.53,1.3-2.37,1.55v15.14c0,1.59-.17,3.88-1.6,5.49-.04.04-.08.09-.12.13-1.19,1.19-3.01,1.79-5.41,1.79ZM51.44,62.97h7.99c.49,0,.82-.04,1.04-.09.05-.25.1-.67.1-1.32v-17.85c0-1.66,1.34-3,3-3h.64v-2.95c0-.08,0-.15,0-.22h-30.61c0,.07,0,.14,0,.22v2.95h20.45c1.66,0,3,1.34,3,3v13.44c0,1.66-1.34,3-3,3h-2.17c-.15,0-.29-.01-.43-.03v2.85ZM60.78,62.79h0s0,0,0,0ZM7.57,50.19c-.02.17-.03.41-.03.72v5.93l16.84-6.21c.67-.28,1-.48,1.13-.58.02-.08.04-.23.04-.47v-6.14l-2.39.9c-.92.35-1.95.22-2.76-.34s-1.29-1.48-1.29-2.47v-11.2c0-1.66,1.34-3,3-3h3.72v-6.24c0-.08,0-.15,0-.22h-3.72c-1.66,0-3-1.34-3-3V7.59s-.03-.05-.04-.08h-3.05s0,0-.01,0v10.37c0,1.66-1.34,3-3,3h-4.7c0,.07,0,.14,0,.22v6.24h4.7c1.66,0,3,1.34,3,3v14.63c0,1.26-.79,2.39-1.97,2.82l-6.07,2.21c-.16.07-.29.14-.4.2ZM44.62,56.18h3.88c.15,0,.31.01.46.03.03-.26.04-.54.04-.89v-5.95c0-.48-.04-.75-.07-.89-.15-.04-.47-.1-1.06-.1h-3.12c.9.52,1.5,1.49,1.5,2.6v2.52c0,1.16-.66,2.17-1.63,2.67ZM34.41,56.05c.27.08.61.12,1,.12h3.25c-.97-.5-1.63-1.51-1.63-2.67v-2.52c0-1.11.6-2.08,1.5-2.6h-3.19c-.49,0-.77.07-.88.11-.04.12-.11.4-.11.95v5.74c0,.41.03.69.06.87ZM7.63,49.8h0ZM48.91,48.42s0,0,0,0c0,0,0,0,0,0ZM26.69,43.11h0,0ZM33.66,41.26h0,0ZM25.11,33.33v3.95c.97-.2,1.79-.21,2.48-.1.04-1.05.22-2.33.9-3.4-.18-.23-.34-.48-.47-.74-.62.17-1.34.28-2.2.28h-.71ZM48.79,26.98c.72,0,1.44.26,2.01.77,1.55,1.4,4.4,2.2,8.23,2.31h5.03s0-3.1,0-3.1h-.36c-5.22,0-8.62-.83-10.7-2.61-.06-.05-.11-.1-.17-.15-.99-.98-1.74-2.33-2.23-4.01-.27-.91-.09-1.89.48-2.64s1.46-1.2,2.4-1.2h10.72v-2.95c0-.05,0-.1,0-.15h-11.28c-1.66,0-3-1.34-3-3v-2.67h-2.36l.03,2.67c0,1.66-1.34,3-3,3h-11s0,.1,0,.15v2.95h10.44c.92,0,1.78.42,2.35,1.14.57.72.78,1.66.57,2.55-.38,1.62-1.17,3.06-2.27,4.17-.04.04-.07.07-.11.11-2.02,1.82-5.43,2.66-10.76,2.66h-.36v3.1h5.12c3.79-.11,6.66-.91,8.21-2.31.57-.51,1.29-.77,2.01-.77ZM64.38,26.99s.02.02.03.02c0,0-.01-.02-.03-.02ZM64.13,16.9s0,0,0,0c0,0,0,0,0,0ZM50.4,7.57h0,0Z"/><path class="cls-3" d="M136.39,68.9h-55.59c-2.5,0-3.88-.99-4.59-1.82-1.15-1.34-1.28-3.03-1.28-4.19v-6.58c0-1.7.17-3.45,1.44-4.71,1.01-1.02,2.46-1.51,4.43-1.51h17.65v-6.04h-11.63c-.76,0-3.09,0-4.59-1.75-.9-1.05-1.35-2.48-1.35-4.26v-6.65c0-1.38.16-3.36,1.51-4.71,1.01-1.02,2.46-1.51,4.43-1.51h11.63v-4.64h-16.88c-2,0-3.52-.59-4.52-1.75-.9-1.05-1.35-2.46-1.35-4.19v-6.65c0-1.38.16-3.36,1.51-4.71,1.02-1.02,2.57-1.58,4.36-1.58h54.05c2.59,0,3.94.97,4.61,1.78.95,1.13,1.22,2.69,1.38,4.2.01.1.02.21.02.31v6.65c0,1.74-.45,3.15-1.35,4.19-1.5,1.75-3.88,1.75-4.66,1.75h-16.67v4.64h11.49c2.12,0,3.67.57,4.61,1.71.94,1.13,1.22,2.69,1.38,4.2.01.1.02.21.02.32v6.65c0,1.78-.46,3.21-1.35,4.26-.61.71-1.43,1.2-2.45,1.48.41.54.86,1.3,1.5,2.51.05.09.09.19.13.28l1.41,3.51h.7c2.01,0,3.49.49,4.5,1.51.06.06.13.13.18.2.81.97,1.21,2.31,1.32,4.35,0,.05,0,.1,0,.16v6.58c0,1.16-.13,2.85-1.28,4.19-.71.83-2.11,1.82-4.73,1.82ZM80.94,62.9h55.47v-6.51c0-.11-.01-.21-.02-.3h-2.72c-1.22,0-2.33-.74-2.78-1.88l-2.11-5.24c-.32-.6-.54-.98-.68-1.22-.04,0-.07,0-.12,0-.06,0-.12,0-.19,0h-5.5l1.81,4.13c.41.93.32,2-.24,2.84-.55.85-1.5,1.36-2.51,1.36h-5.39c-1.66,0-3-1.34-3-3v-12.04c0-1.66,1.34-3,3-3h14.5v-6.5c-.02-.14-.03-.27-.05-.38h-14.45c-1.66,0-3-1.34-3-3v-10.64c0-1.66,1.34-3,3-3h19.68v-6.43c-.02-.17-.04-.32-.06-.45h-53.86c0,.09,0,.18,0,.29v6.59h19.75c1.66,0,3,1.34,3,3v10.64c0,1.66-1.34,3-3,3h-14.57c0,.07,0,.14,0,.22v6.65h0s14.57.01,14.57.01c1.66,0,3,1.34,3,3v12.04c0,1.66-1.34,3-3,3h-20.52c0,.07,0,.14,0,.22v6.58h0Z"/><path class="cls-3" d="M209.65,68.97h-10.22c-3.76-.09-6.62-1.07-8.57-2.92-.15-.15-.3-.29-.44-.45-.24.69-.62,1.3-1.12,1.79-.06.06-.13.13-.2.18-.97.81-2.23,1.26-3.53,1.26h-7.7c-1.29,0-2.57-.43-3.51-1.19-.72-.54-1.25-1.26-1.55-2.11-.16.18-.33.35-.5.52-1.96,1.85-4.82,2.84-8.5,2.92h-10.29c-1.61,0-3.09-.58-4.15-1.65-1.05-1.05-1.58-2.35-1.58-3.87v-3.85c0-1.52.53-2.83,1.58-3.87,1.06-1.06,2.54-1.65,4.15-1.65h5.12v-1.62c0-.36.04-.71.11-1.06h-4.87c-1.75,0-3.26-.64-4.36-1.86-1.08-1.11-1.65-2.5-1.65-4.01V11.78c0-1.45.56-2.75,1.65-3.88.76-.83,2.12-1.78,4.36-1.78h6.37c.83,0,1.61.15,2.32.45.02-.92.21-2.19,1.18-3.36.06-.07.12-.13.18-.2,1.37-1.37,3.15-1.37,3.73-1.37h39.41c.58,0,2.36,0,3.73,1.37.06.06.13.13.18.2.84,1.01,1.25,2.19,1.25,3.6v29.05c0,.3-.02.6-.06.89.76.2,1.5.56,2.13,1.19.06.06.12.13.18.2.85,1.01,1.26,2.49,1.26,4.51v2.8c0,1.56-.38,2.88-1.12,3.92-.05.07-.11.14-.16.21-.71.83-2.08,1.82-4.59,1.82h-5.43c.07.35.1.7.1,1.06v1.62h5.12c1.61,0,3.09.59,4.15,1.65s1.58,2.35,1.58,3.87v3.85c0,1.52-.53,2.82-1.58,3.87-1.06,1.06-2.54,1.65-4.15,1.65ZM193.96,52.86v5.4c0,1.63.34,2.78,1.02,3.42.82.78,2.42,1.23,4.52,1.28h9.88v-2.89h-5.12c-1.57,0-3.02-.59-4.08-1.66s-1.65-2.54-1.65-4.15v-1.41h-4.57ZM153.78,62.96h9.95c2.02-.04,3.63-.5,4.45-1.27.68-.64,1.02-1.8,1.02-3.42v-5.4h-4.57v1.41c0,1.62-.59,3.09-1.65,4.15-1.08,1.08-2.49,1.65-4.08,1.65h-5.12v2.88ZM178.49,62.83h6.25v-14.43c0-1.66,1.34-3,3-3h21.99v-2.74c0-.05,0-.1,0-.15h-46.56c-1.66,0-3-1.34-3-3V12.12h-6.31s0,0-.01,0v33.27h21.64c1.66,0,3,1.34,3,3v14.43ZM198.82,52.88h0,0ZM209.68,45.97h0s0,0,0,0ZM168.55,34.96h37.68V7.64s-37.68,0-37.68,0v27.32ZM207.25,7.65h0,0ZM196.91,34.03h-19.11c-1.66,0-3-1.34-3-3v-2.31c0-1.66,1.34-3,3-3h19.11c1.66,0,3,1.34,3,3v2.31c0,1.66-1.34,3-3,3ZM196.91,25.21h-19.11c-1.66,0-3-1.34-3-3v-2.17c0-1.66,1.34-3,3-3h19.11c1.66,0,3,1.34,3,3v2.17c0,1.66-1.34,3-3,3ZM196.91,16.46h-19.11c-1.66,0-3-1.34-3-3v-2.17c0-1.66,1.34-3,3-3h19.11c1.66,0,3,1.34,3,3v2.17c0,1.66-1.34,3-3,3Z"/><path class="cls-2" d="M27.92,40.55c.42.49.63,1.19.63,2.03v7c0,1.12-.28,1.89-.7,2.38-.42.49-1.19.98-2.38,1.47l-17.85,6.58c-1.33.28-2.24.21-2.59-.35-.42-.49-.63-1.33-.49-2.45v-6.3c0-1.19.14-2.03.42-2.45.28-.35.91-.84,1.89-1.26l6.16-2.24v-14.63h-4.83c-1.05,0-1.82-.28-2.24-.77-.42-.42-.63-1.19-.63-2.17v-6.3c0-1.33.21-2.17.63-2.59s1.19-.63,2.24-.63h4.83V7.16c.07-.7.35-1.33.84-1.89.56-.56,1.26-.77,2.17-.77h3.15c.77,0,1.47.21,1.96.77.49.56.84,1.19.98,1.89v10.71h3.71c1.19,0,2.03.21,2.45.63.35.42.56,1.26.56,2.59v6.3c0,.98-.21,1.75-.56,2.17-.42.49-1.26.77-2.45.77h-3.71v11.2l3.36-1.26c1.19-.28,2.03-.21,2.45.28ZM50.4,4.57c.7,0,1.26.28,1.75.84.56.56.77,1.19.77,1.96v2.87h11.27c1.19,0,2.03.21,2.38.56.42.42.63,1.33.63,2.59v3.01c0,1.05-.21,1.75-.63,2.24-.35.49-1.19.7-2.38.7h-10.71c.35,1.19.84,2.1,1.47,2.73,1.47,1.26,4.34,1.89,8.75,1.89h.77c.77.07,1.33.28,1.89.77.49.42.7,1.05.7,1.75v4.06c0,.7-.21,1.33-.7,1.75-.56.49-1.12.7-1.89.77h-5.53c-4.69-.14-8.05-1.19-10.15-3.08-2.1,1.89-5.53,2.94-10.22,3.08h-5.53c-.7-.07-1.33-.28-1.82-.77-.56-.42-.77-1.05-.77-1.75v-4.06c0-.7.21-1.33.77-1.75.49-.49,1.12-.7,1.82-.77h.77c4.41,0,7.35-.63,8.75-1.89.63-.63,1.19-1.54,1.47-2.73h-10.57c-1.12,0-1.89-.21-2.24-.7-.42-.49-.63-1.19-.63-2.24v-3.01c0-1.26.21-2.17.63-2.59.35-.35,1.12-.56,2.24-.56h11.13v-2.87c0-.77.28-1.4.77-1.96.49-.56,1.05-.84,1.75-.84h3.29ZM31.21,43c-.42-.49-.63-1.26-.63-2.24v-3.01c0-1.33.21-2.17.63-2.59.35-.42,1.12-.63,2.24-.63h30.73c1.19,0,2.03.21,2.38.63.42.42.63,1.26.63,2.59v3.01c0,.98-.21,1.75-.63,2.24-.35.49-1.19.7-2.38.7h-.63v17.85c0,1.75-.28,2.87-.84,3.5-.56.56-1.68.91-3.29.91h-8.05c-1.96,0-2.94-.98-2.94-2.8v-3.08c0-.35,0-.63.07-.91h-13.09c-1.26,0-2.24-.28-3.01-.77-.7-.49-1.05-1.54-1.05-3.22v-5.74c0-1.47.35-2.52,1.05-3.15.7-.63,1.68-.91,2.94-.91h12.53c1.47,0,2.52.28,3.15.91.7.63.98,1.61.98,3.08v5.95c0,.77-.07,1.33-.14,1.82h2.17v-13.44h-20.58c-1.12,0-1.89-.21-2.24-.7ZM43.26,53.5v-2.52h-3.22v2.52h3.22Z"/><path class="cls-2" d="M78.5,65.13c-.42-.49-.56-1.26-.56-2.24v-6.58c0-1.33.14-2.17.56-2.59s1.19-.63,2.31-.63h20.65v-12.04h-14.63c-1.12,0-1.89-.21-2.31-.7-.42-.49-.63-1.26-.63-2.31v-6.65c0-1.33.21-2.17.63-2.59s1.19-.63,2.31-.63h14.63v-10.64h-19.88c-1.05,0-1.82-.21-2.24-.7-.42-.49-.63-1.26-.63-2.24v-6.65c0-1.33.21-2.17.63-2.59.42-.42,1.19-.7,2.24-.7h54.05c1.19,0,1.96.28,2.31.7.35.42.56,1.26.7,2.59v6.65c0,.98-.21,1.75-.63,2.24-.42.49-1.19.7-2.38.7h-19.67v10.64h14.49c1.12,0,1.96.21,2.31.63.35.42.56,1.26.7,2.59v6.65c0,1.05-.21,1.82-.63,2.31-.42.49-1.26.7-2.38.7h-14.49v12.04h5.39l-2.45-5.6c-.35-.77-.28-1.4.21-1.96.56-.56,1.4-.84,2.59-.77h6.09c1.12-.07,1.82.14,2.24.56.35.35.84,1.19,1.47,2.38l2.17,5.39h2.73c1.19,0,1.96.21,2.38.63.35.42.56,1.26.63,2.59v6.58c0,.98-.14,1.75-.56,2.24s-1.26.77-2.45.77h-55.59c-1.12,0-1.89-.28-2.31-.77Z"/><path class="cls-2" d="M169.68,49.86c.7.07,1.33.28,1.75.77.49.49.77,1.12.77,1.82v5.81c0,2.45-.63,4.34-1.96,5.6-1.33,1.26-3.5,2.03-6.51,2.1h-10.22c-.84,0-1.54-.28-2.03-.77s-.7-1.05-.7-1.75v-3.85c0-.7.21-1.26.7-1.75.49-.49,1.19-.77,2.03-.77h5.39c.84,0,1.47-.28,1.96-.77.49-.49.77-1.19.77-2.03v-1.82c0-.7.28-1.33.77-1.82.49-.49,1.12-.7,1.82-.77h5.46ZM187.74,48.39v15.26c0,.7-.21,1.26-.56,1.61-.42.35-.98.56-1.61.56h-7.7c-.63,0-1.26-.21-1.68-.56-.49-.35-.7-.91-.7-1.61v-15.26h-21.63c-.98,0-1.68-.35-2.17-.91-.56-.56-.84-1.19-.84-1.96V11.78c0-.7.28-1.26.84-1.82.49-.56,1.19-.84,2.17-.84h6.37c.84,0,1.54.28,2.1.84.56.56.84,1.12.84,1.82v27.72h46.7c1.12,0,1.89.14,2.31.56.35.42.56,1.33.56,2.59v2.8c0,.98-.21,1.68-.56,2.17-.42.49-1.19.77-2.31.77h-22.12ZM208.67,5.13c.35.42.56.91.56,1.68v29.05c0,.7-.21,1.26-.56,1.61-.35.35-.84.49-1.61.49h-39.41c-.77,0-1.26-.14-1.61-.49-.35-.35-.49-.91-.49-1.61V6.81c0-.77.14-1.26.49-1.68.35-.35.84-.49,1.61-.49h39.41c.77,0,1.26.14,1.61.49ZM196.91,11.29h-19.11v2.17h19.11v-2.17ZM196.91,20.04h-19.11v2.17h19.11v-2.17ZM196.91,28.72h-19.11v2.31h19.11v-2.31ZM200.76,50.63c.49.49.77,1.12.77,1.82v1.82c0,.84.28,1.54.77,2.03s1.19.77,1.96.77h5.39c.84,0,1.54.28,2.03.77s.7,1.05.7,1.75v3.85c0,.7-.21,1.26-.7,1.75-.49.49-1.19.77-2.03.77h-10.22c-3.01-.07-5.18-.84-6.51-2.1-1.33-1.26-1.96-3.15-1.96-5.6v-5.81c0-.7.28-1.33.77-1.82.42-.49,1.05-.7,1.75-.77h5.46c.7.07,1.33.28,1.82.77Z"/></g></svg>