<?xml version="1.0" encoding="UTF-8"?><svg id="_レイヤー_2" xmlns="http://www.w3.org/2000/svg" viewBox="0 0 219.26 70.4"><defs><style>.cls-1,.cls-2,.cls-3{stroke-width:0px;}.cls-2{fill:#198caa;}.cls-3{fill:#fff;}</style></defs><g id="_レイヤー_4"><path class="cls-1" d="M5.13,32.5c-.42-.42-.63-1.19-.63-2.17v-1.68c0-1.33.21-2.17.63-2.59s1.12-.63,2.24-.63h7.42v-1.33h-5.95c-1.05,0-1.82-.28-2.24-.7-.42-.49-.63-1.26-.63-2.24v-1.68c0-1.26.21-2.17.63-2.59s1.19-.63,2.24-.63h5.95v-1.33h-5.95c-1.05,0-1.82-.21-2.24-.7s-.63-1.26-.63-2.24v-1.61c0-1.33.21-2.24.63-2.66.42-.35,1.19-.56,2.24-.56h5.95v-.56c0-.7.21-1.19.63-1.61.35-.35.91-.49,1.61-.49h4.9c.7,0,1.26.14,1.68.49.49.42.7.91.7,1.61v.56h5.74c1.19,0,2.03.21,2.38.56.42.42.63,1.33.63,2.66v1.61c0,.98-.21,1.75-.63,2.24-.35.49-1.19.7-2.38.7h-5.74v1.33h5.74c1.19,0,2.03.21,2.38.63.42.42.63,1.33.63,2.59v1.68c0,.98-.21,1.75-.63,2.24-.35.42-1.19.7-2.38.7h-5.74v1.33h7.28c1.19,0,1.96.21,2.38.63s.63,1.26.63,2.59v1.68c0,.98-.21,1.75-.63,2.17-.42.49-1.19.77-2.38.77H7.37c-1.12,0-1.82-.28-2.24-.77ZM32.15,35.23c.35.35.49.91.49,1.61v26.88c0,.77-.14,1.26-.49,1.61s-.91.56-1.61.56h-9.38c-.77,0-1.4-.21-1.68-.56-.35-.35-.49-.77-.49-1.4v-1.89c0-.91.14-1.54.49-1.96.28-.35.91-.56,1.68-.56h1.68v-1.82h-6.51v6.02c0,.77-.14,1.26-.35,1.61-.28.35-.84.56-1.61.56h-5.74c-.77,0-1.33-.21-1.61-.56-.35-.35-.56-.84-.56-1.61v-26.88c0-.7.21-1.26.56-1.61.28-.35.84-.56,1.61-.56h21.91c.7,0,1.26.21,1.61.56ZM22.84,43v-1.61h-6.51v1.61h6.51ZM22.84,51.27v-1.68h-6.51v1.68h6.51ZM35.3,30.19c.35-.42,1.12-.63,2.31-.63h7.49v-2.17h-5.6c-1.12,0-1.89-.21-2.45-.56-.49-.35-.77-.91-.77-1.75v-4.2c0-1.12.28-1.82.77-2.17.56-.42,1.33-.56,2.45-.56h6.86l3.64-5.39h-3.71l-.77,1.12c-.84,1.19-1.47,1.96-1.82,2.38-.42.42-1.12.56-2.31.49h-3.5c-.84.07-1.54-.21-2.1-.7-.56-.56-.49-1.26.14-2.17l5.25-7.91c.63-.77,1.54-1.19,2.66-1.33h17.36c1.05,0,1.82.21,2.17.63.42.35.28,1.12-.28,2.24l-7.21,10.64h6.02c1.26,0,2.17.14,2.59.56.42.35.63,1.05.49,2.17v8.68h.14c1.26,0,2.1.21,2.52.63.49.42.7,1.26.7,2.59v3.01c0,.98-.21,1.75-.7,2.24-.42.42-1.26.7-2.52.7h-.14v8.61c0,1.05-.21,1.82-.56,2.17-.42.35-1.26.56-2.52.56h-7.77v13.09c0,1.12-.21,1.82-.56,2.24-.35.35-1.19.49-2.52.49h-6.58c-1.05,0-1.89-.14-2.38-.49-.56-.42-.84-1.12-.84-2.24v-3.64c0-1.12.28-1.89.84-2.31.49-.35,1.33-.56,2.38-.56h.63v-6.58h-5.6c-1.12,0-1.89-.21-2.45-.56-.49-.35-.77-1.12-.77-2.17v-3.71c0-1.12.28-1.82.77-2.24.56-.42,1.33-.63,2.45-.63h5.6v-2.03h-7.49c-1.19,0-1.96-.28-2.31-.7-.35-.49-.49-1.26-.49-2.24v-3.01c0-1.33.14-2.17.49-2.59ZM54.14,27.39v2.17h1.82v-2.17h-1.82ZM55.96,38.73h-1.82v2.03h1.82v-2.03Z"/><path class="cls-1" d="M139.16,64.99c-.56.56-1.68.91-3.29.91h-12.18c-1.96,0-2.94-.98-2.94-2.8v-4.2c0-1.89.98-2.87,2.94-2.87h4.62V15.49h-37.38v47.68c0,.77-.28,1.4-.84,1.96-.56.56-1.26.77-2.1.77h-5.6c-.91,0-1.61-.21-2.1-.77-.56-.56-.84-1.19-.91-1.96V7.37c.07-.7.35-1.33.91-1.89.49-.56,1.19-.84,2.1-.84h54.54c1.26,0,2.1.21,2.45.63.42.35.63,1.12.63,2.24v53.98c0,1.75-.28,2.87-.84,3.5ZM122.01,23.82h.49c1.19,0,1.96.21,2.38.63s.63,1.26.63,2.59v2.73c0,.98-.21,1.75-.63,2.24-.42.42-1.19.7-2.38.7h-7.98v12.74h2.17v-7.77c0-.7.28-1.26.84-1.82s1.26-.84,2.1-.84h3.64c.91,0,1.68.28,2.17.84.56.56.84,1.12.84,1.82v13.65c0,1.05-.21,1.75-.56,2.24-.42.49-1.26.7-2.45.7h-27.16c-1.12,0-1.89-.21-2.31-.7-.35-.49-.56-1.19-.56-2.24v-13.65c0-.7.28-1.26.84-1.82.49-.56,1.26-.84,2.17-.84h3.64c.84,0,1.54.28,2.1.84.56.56.84,1.12.84,1.82v7.77h2.1v-12.74h-8.05c-1.05,0-1.82-.28-2.24-.7-.42-.49-.63-1.26-.63-2.24v-2.73c0-1.33.21-2.17.63-2.59.42-.42,1.19-.63,2.24-.63h.63l-1.54-3.64c-.35-.7-.28-1.33.21-1.89s1.33-.84,2.52-.77h3.71c1.05-.07,1.82.14,2.17.49.35.42.84,1.19,1.47,2.38l1.47,3.43h4.48l1.47-3.43c.63-1.19,1.12-1.96,1.47-2.38.35-.35,1.12-.56,2.17-.49h3.71c1.19-.07,2.03.21,2.52.77.49.56.56,1.19.21,1.89l-1.54,3.64Z"/><path class="cls-1" d="M171.7,49.79c.7.07,1.33.28,1.75.77.49.49.77,1.12.77,1.82v5.81c0,2.45-.63,4.34-1.96,5.6-1.33,1.26-3.5,2.03-6.51,2.1h-10.22c-.84,0-1.54-.28-2.03-.77s-.7-1.05-.7-1.75v-3.85c0-.7.21-1.26.7-1.75s1.19-.77,2.03-.77h5.39c.84,0,1.47-.28,1.96-.77.49-.49.77-1.19.77-2.03v-1.82c0-.7.28-1.33.77-1.82.49-.49,1.12-.7,1.82-.77h5.46ZM189.77,48.32v15.26c0,.7-.21,1.26-.56,1.61-.42.35-.98.56-1.61.56h-7.7c-.63,0-1.26-.21-1.68-.56-.49-.35-.7-.91-.7-1.61v-15.26h-21.63c-.98,0-1.68-.35-2.17-.91-.56-.56-.84-1.19-.84-1.96V11.71c0-.7.28-1.26.84-1.82.49-.56,1.19-.84,2.17-.84h6.37c.84,0,1.54.28,2.1.84s.84,1.12.84,1.82v27.72h46.69c1.12,0,1.89.14,2.31.56.35.42.56,1.33.56,2.59v2.8c0,.98-.21,1.68-.56,2.17-.42.49-1.19.77-2.31.77h-22.12ZM210.7,5.06c.35.42.56.91.56,1.68v29.05c0,.7-.21,1.26-.56,1.61-.35.35-.84.49-1.61.49h-39.41c-.77,0-1.26-.14-1.61-.49-.35-.35-.49-.91-.49-1.61V6.74c0-.77.14-1.26.49-1.68.35-.35.84-.49,1.61-.49h39.41c.77,0,1.26.14,1.61.49ZM198.94,11.22h-19.11v2.17h19.11v-2.17ZM198.94,19.97h-19.11v2.17h19.11v-2.17ZM198.94,28.65h-19.11v2.31h19.11v-2.31ZM202.79,50.56c.49.49.77,1.12.77,1.82v1.82c0,.84.28,1.54.77,2.03.49.49,1.19.77,1.96.77h5.39c.84,0,1.54.28,2.03.77.49.49.7,1.05.7,1.75v3.85c0,.7-.21,1.26-.7,1.75-.49.49-1.19.77-2.03.77h-10.22c-3.01-.07-5.18-.84-6.51-2.1-1.33-1.26-1.96-3.15-1.96-5.6v-5.81c0-.7.28-1.33.77-1.82.42-.49,1.05-.7,1.75-.77h5.46c.7.07,1.33.28,1.82.77Z"/><path class="cls-2" d="M51.06,70.4h-6.58c-2.14,0-3.73-.42-5-1.33-.03-.02-.05-.04-.08-.06-.9-.68-1.93-1.83-2.4-3.7-.25,1.27-.8,2.35-1.67,3.21-1.21,1.21-2.91,1.88-4.79,1.88h-9.38c-1.28,0-2.45-.27-3.42-.79-.97.52-2.11.79-3.37.79h-5.74c-2.04,0-3.79-.72-4.95-2.04-.82-.88-1.72-2.37-1.72-4.63v-26.88c0-.36.03-.72.07-1.07-.08-.08-.15-.15-.21-.23-.86-.92-1.82-2.54-1.82-5.22v-1.68c0-1.55.18-3.76,1.67-5.47-.13-.63-.2-1.3-.2-2.02v-1.68c0-1.55.23-2.85.7-3.92-.47-1.03-.7-2.23-.7-3.57v-1.61c0-2.62.64-4.53,1.95-5.84.1-.1.2-.19.3-.28,1.28-1.06,3-1.6,5.12-1.6h2.68c.21-.3.46-.58.72-.85.83-.83,2.33-1.81,4.79-1.81h4.9c1.8,0,3.34.52,4.56,1.53.35.3.72.68,1.06,1.13h2.5c2.48,0,4.3.61,5.56,1.88.23.23.44.48.63.74l1.19-1.8c.08-.12.17-.24.26-.35.94-1.15,2.67-2.59,5.6-2.95.18-.02.37-.03.55-.03h17.36c2.35,0,4.16.67,5.4,2,1.05,1.05,2.5,3.41.51,7.39-.09.18-.19.35-.3.51l-2.58,3.8c1.16.21,2.32.66,3.29,1.56.93.84,2.24,2.6,1.95,5.73v4.89c.42.23.83.52,1.21.87,1.92,1.74,2.15,4.19,2.15,5.9v3.01c0,2.26-.68,4.08-2.01,5.42-.34.33-.78.69-1.35,1.01v5.12c0,2.31-.63,4.11-1.88,5.35-.09.09-.19.18-.29.27-1.29,1.08-3.06,1.61-5.41,1.61h-3.27v8.59c0,2.15-.52,3.82-1.6,5.12-.09.1-.18.21-.28.3-1.59,1.59-3.78,1.81-5.7,1.81ZM45.75,61.4h3.88v-11.32c0-2.49,2.01-4.5,4.5-4.5h6.35v-6.84c0-2.09,1.43-3.85,3.36-4.35v-.46c-1.93-.5-3.36-2.26-3.36-4.35v-6.91h-4.6c-1.67,0-3.2-.92-3.98-2.39-.26-.49-.42-1.02-.49-1.55l-1.33,1.96c-.84,1.24-2.23,1.98-3.73,1.98h-5.58v.24h4.32c2.49,0,4.5,2.01,4.5,4.5v2.17c0,2.49-2.01,4.5-4.5,4.5h-5.79v.17h5.79c2.49,0,4.5,2.01,4.5,4.5v2.03c0,2.49-2.01,4.5-4.5,4.5h-4.32v.31h4.32c2.49,0,4.5,2.01,4.5,4.5v6.58c0,2.26-1.67,4.14-3.85,4.45v.29ZM26.94,61.4h1.21v-22.22s-1.38,0-1.38,0c.37.66.58,1.41.58,2.22v1.61c0,1.3-.55,2.47-1.43,3.29.88.82,1.43,1.99,1.43,3.29v1.68c0,1.26-.52,2.4-1.36,3.22.84.82,1.36,1.96,1.36,3.22v1.82c0,.67-.15,1.3-.41,1.87ZM10.96,61.4h.87v-3.69c0-1.26.52-2.4,1.36-3.22-.84-.82-1.36-1.96-1.36-3.22v-1.68c0-1.3.55-2.47,1.43-3.29-.88-.82-1.43-1.99-1.43-3.29v-1.61c0-.81.21-1.57.58-2.22h-1.46v22.22ZM37.14,54.33v2.5c.31-.97.77-1.73,1.27-2.31-.44-.04-.87-.1-1.27-.2ZM30.54,39.17h0,0ZM17.81,28.77h3.49c-.91-.82-1.49-2.02-1.49-3.34v-1.33c0-1.68.92-3.15,2.29-3.92-1.37-.77-2.29-2.24-2.29-3.92v-1.33c0-1.66.9-3.1,2.23-3.89-.81-.47-1.45-1.19-1.84-2.05h-1.31c-.38.86-1.03,1.57-1.84,2.05,1.33.78,2.23,2.23,2.23,3.89v1.33c0,1.68-.92,3.15-2.29,3.92,1.37.77,2.29,2.24,2.29,3.92v1.33c0,1.33-.57,2.52-1.49,3.34ZM52.68,9.14c.53.39.98.9,1.3,1.51.26.5.43,1.03.49,1.56l2.08-3.07h-3.88ZM55.96,45.26h-1.82c-2.49,0-4.5-2.01-4.5-4.5v-2.03c0-2.49,2.01-4.5,4.5-4.5h1.82c2.49,0,4.5,2.01,4.5,4.5v2.03c0,2.49-2.01,4.5-4.5,4.5ZM55.96,34.06h-1.82c-2.49,0-4.5-2.01-4.5-4.5v-2.17c0-2.49,2.01-4.5,4.5-4.5h1.82c2.49,0,4.5,2.01,4.5,4.5v2.17c0,2.49-2.01,4.5-4.5,4.5Z"/><path class="cls-2" d="M135.88,70.4h-12.18c-4.45,0-7.44-2.93-7.44-7.3v-4.2s0-.08,0-.12h-20.14c-.23,0-.46,0-.68-.02v4.41c0,1.95-.75,3.73-2.16,5.14-.96.96-2.65,2.09-5.29,2.09h-5.6c-2.75,0-4.43-1.16-5.38-2.18-1.24-1.28-1.95-2.84-2.12-4.64-.01-.13-.02-.27-.02-.4V7.37c0-.15,0-.3.02-.44.17-1.71.9-3.28,2.11-4.53,1.33-1.46,3.24-2.26,5.38-2.26h54.54c.95,0,3.74,0,5.62,1.93,1.3,1.24,1.96,3.07,1.96,5.44v53.98c0,1.83-.21,4.49-1.98,6.49-.06.07-.12.13-.18.19-1.48,1.48-3.66,2.23-6.47,2.23ZM139.17,64.99h0,0ZM135.42,62.61h0,0ZM125.25,61.39h10.25s0-52.25,0-52.25h-51.63v52.26h2.55V15.49c0-2.49,2.01-4.5,4.5-4.5h37.38c2.49,0,4.5,2.01,4.5,4.5v40.54c0,2.49-2.01,4.5-4.5,4.5h-3.06v.87ZM117.96,49.78h3.83v-10.25h-.59v5.93c0,2.05-1.37,3.77-3.24,4.32ZM106.2,49.78h7.06c-1.87-.55-3.24-2.27-3.24-4.32v-12.74c0-2.49,2.01-4.5,4.5-4.5h6.49c-1.12-.26-2.11-.93-2.75-1.9-.83-1.26-.98-2.85-.39-4.24l.02-.05h-.18c-.05.1-.11.2-.17.32l-1.39,3.26c-.71,1.66-2.34,2.73-4.14,2.73h-4.48c-1.8,0-3.43-1.07-4.14-2.73l-1.4-3.26c-.06-.11-.12-.22-.17-.32h-.18l.02.05c.59,1.39.44,2.98-.39,4.24-.65.97-1.64,1.65-2.75,1.9h6.42c2.49,0,4.5,2.02,4.5,4.5v12.74c0,2.05-1.37,3.77-3.24,4.32ZM97.74,49.78h3.83c-1.87-.55-3.24-2.27-3.24-4.32v-5.93h-.59v10.25ZM122.88,28.34h0,0Z"/><path class="cls-2" d="M211.68,70.4h-10.22s-.07,0-.11,0c-3.51-.08-6.37-.93-8.52-2.51-.14.17-.29.34-.44.49-.09.09-.19.18-.29.27-1.24,1.04-2.84,1.61-4.5,1.61h-7.7c-1.62,0-3.22-.54-4.43-1.5-.37-.28-.7-.6-.99-.94-2.16,1.63-5.05,2.5-8.61,2.58-.04,0-.07,0-.11,0h-10.22c-2.01,0-3.87-.74-5.21-2.09-1.32-1.32-2.02-3.03-2.02-4.93v-3.85c0-1.91.7-3.61,2.02-4.93,1.03-1.03,2.34-1.7,3.8-1.96-1.44-.33-2.71-1.06-3.7-2.14-1.35-1.4-2.06-3.13-2.06-5.04V11.71c0-1.84.69-3.49,2.06-4.9.97-1.06,2.68-2.26,5.45-2.26h6.37c.37,0,.73.02,1.08.07.25-.91.67-1.72,1.27-2.44.09-.1.18-.2.27-.3,1.2-1.2,2.81-1.81,4.8-1.81h39.41c1.99,0,3.6.61,4.8,1.82.09.09.18.19.26.29,1.07,1.28,1.61,2.81,1.61,4.56v28.93c.56.27,1.12.64,1.62,1.14.1.1.19.19.27.3,1.08,1.29,1.61,3.08,1.61,5.47v2.8c0,1.88-.47,3.49-1.4,4.79-.08.11-.16.21-.24.31-.75.87-2.04,1.88-4.17,2.22,1.32.3,2.5.95,3.44,1.89,1.32,1.32,2.02,3.03,2.02,4.93v3.85c0,1.9-.7,3.61-2.01,4.93-1.35,1.35-3.2,2.09-5.22,2.09ZM201.51,61.4h3.48c-1.47-.25-2.8-.93-3.85-1.98-1.32-1.32-2.06-3.13-2.08-5.12h-1.57v3.9c0,1.15.2,2,.56,2.34.14.13.97.8,3.47.86ZM162.24,61.4h3.46c2.5-.07,3.33-.73,3.47-.87.35-.33.55-1.19.55-2.33v-3.9h-1.57c-.02,1.98-.76,3.8-2.09,5.13-1.05,1.05-2.36,1.72-3.82,1.97ZM182.01,61.26h3.25v-12.93c0-2.15,1.5-3.94,3.51-4.39h-10.27c2.01.45,3.51,2.25,3.51,4.39v12.93ZM157.37,43.82h6.83c-2.01-.45-3.51-2.25-3.51-4.39V13.55h-3.32v30.27ZM202.73,33.39h4.03V9.07h-3.87c.35.64.55,1.37.55,2.15v2.17c0,1.3-.55,2.47-1.43,3.29.88.82,1.43,1.99,1.43,3.29v2.17c0,1.28-.53,2.44-1.39,3.25.86.82,1.39,1.97,1.39,3.25v2.31c0,.9-.26,1.73-.71,2.43ZM172.07,33.39h3.96c-.45-.7-.71-1.53-.71-2.43v-2.31c0-1.28.53-2.44,1.39-3.25-.86-.82-1.39-1.97-1.39-3.25v-2.17c0-1.3.55-2.47,1.43-3.29-.88-.82-1.43-1.99-1.43-3.29v-2.17c0-.78.2-1.51.55-2.15h-3.8v24.32ZM209.14,9.07h0,0Z"/><path class="cls-3" d="M51.06,68.9h-6.58c-1.81,0-3.12-.33-4.12-1.05-1.41-1.06-2.1-2.62-2.1-4.68v-3.64c0-2.63,1.11-4.01,2.04-4.71.52-.38,1.13-.66,1.81-.85v-.89h-2.6c-1.54,0-2.8-.3-3.86-.91v11.56c0,.58,0,2.36-1.37,3.73-.93.93-2.25,1.44-3.73,1.44h-9.38c-1.38,0-2.56-.38-3.43-1.09-.86.71-2.02,1.09-3.36,1.09h-5.74c-1.6,0-2.96-.55-3.83-1.54-.89-.94-1.34-2.16-1.34-3.63v-26.88c0-.57.08-1.11.22-1.62-.28-.2-.53-.43-.76-.68-.95-1-1.42-2.41-1.42-4.21v-1.68c0-1.38.16-3.36,1.51-4.71.11-.11.22-.21.34-.31-.25-.73-.38-1.56-.38-2.47v-1.68c0-1.66.29-2.96.89-3.93-.59-.96-.89-2.15-.89-3.56v-1.61c0-2.23.48-3.75,1.51-4.78.06-.06.13-.13.2-.18,1-.83,2.4-1.25,4.16-1.25h3.51c.24-.47.56-.9.95-1.29.91-.91,2.17-1.37,3.73-1.37h4.9c1.44,0,2.66.4,3.6,1.18.51.44.91.93,1.2,1.48h3.32c2.06,0,3.53.47,4.5,1.44.71.71,1.15,1.64,1.37,2.88l2.77-4.17c.05-.08.11-.16.17-.24.76-.93,2.18-2.11,4.62-2.41.12-.01.25-.02.37-.02h17.36c1.9,0,3.34.51,4.29,1.5,1.01.96,1.78,2.7.28,5.71-.06.12-.13.23-.2.34l-4.04,5.96h.36c1.58,0,3.35.16,4.61,1.34.84.74,1.72,2.12,1.47,4.56v5.93c.67.24,1.23.57,1.7,1.01,1.49,1.34,1.66,3.37,1.66,4.79v3.01c0,1.85-.53,3.31-1.58,4.36-.49.49-1.08.86-1.78,1.12v6.07c0,1.89-.48,3.34-1.44,4.29-.06.06-.13.12-.2.18-1.01.85-2.47,1.26-4.45,1.26h-4.77v10.09c0,1.78-.41,3.15-1.25,4.16-.06.07-.12.14-.18.2-1.2,1.2-2.94,1.37-4.64,1.37ZM44.25,62.89c.07,0,.14,0,.22,0h6.66v-12.82c0-1.66,1.34-3,3-3h7.77s.05,0,.08,0v-8.34c0-1.66,1.34-3,3-3h.14c.08,0,.15,0,.22,0v-2.95c0-.08,0-.15,0-.22-.07,0-.14,0-.22,0h-.14c-1.66,0-3-1.34-3-3v-8.41h-6.1c-1.11,0-2.13-.61-2.65-1.59-.52-.98-.46-2.17.17-3.09l5.98-8.83h-15.32c-.17.03-.38.08-.5.18l-3.94,5.93h1.77c.06,0,.11,0,.17,0,.12,0,.22.01.3.01.32-.41.73-.94,1.21-1.62l.75-1.09c.56-.81,1.48-1.3,2.47-1.3h3.71c1.11,0,2.13.61,2.65,1.59s.46,2.17-.16,3.09l-3.64,5.39c-.56.83-1.49,1.32-2.49,1.32h-6.86c-.08,0-.15,0-.22,0v3.24c.07,0,.14,0,.22,0h5.6c1.66,0,3,1.34,3,3v2.17c0,1.66-1.34,3-3,3h-7.29c0,.07,0,.14,0,.22v2.95h7.29c1.66,0,3,1.34,3,3v2.03c0,1.66-1.34,3-3,3h-5.6c-.08,0-.15,0-.22,0v3.3c.07,0,.14,0,.22,0h5.6c1.66,0,3,1.34,3,3v6.58c0,1.66-1.34,3-3,3h-.63c-.08,0-.15,0-.22,0v3.23ZM21.99,62.9h7.65v-25.22H9.46s0,25.22,0,25.22h3.87s0-5.19,0-5.19c0-1.66,1.34-3,3-3h6.51c1.66,0,3,1.34,3,3v1.82c0,1.66-1.34,3-3,3h-.85v.37ZM30.57,37.67h0,0ZM7.5,30.27h24.1v-1.62c0-.08,0-.15,0-.22h-7.29c-1.66,0-3-1.34-3-3v-1.33c0-1.66,1.34-3,3-3h5.75v-1.62c0-.08,0-.15,0-.22h-5.75c-1.66,0-3-1.34-3-3v-1.33c0-1.66,1.34-3,3-3h5.75v-1.55c0-.08,0-.15,0-.22h-5.75c-1.54,0-2.81-1.16-2.98-2.66h-3.56c-.17,1.5-1.44,2.66-2.98,2.66h-5.82c0,.07,0,.14,0,.22v1.55h5.82c1.66,0,3,1.34,3,3v1.33c0,1.66-1.34,3-3,3h-5.82c0,.07,0,.14,0,.22v1.62h5.82c1.66,0,3,1.34,3,3v1.33c0,1.66-1.34,3-3,3h-7.29c0,.07,0,.14,0,.22v1.62ZM22.84,54.27h-6.51c-1.66,0-3-1.34-3-3v-1.68c0-1.66,1.34-3,3-3h6.51c1.66,0,3,1.34,3,3v1.68c0,1.66-1.34,3-3,3ZM22.84,46h-6.51c-1.66,0-3-1.34-3-3v-1.61c0-1.66,1.34-3,3-3h6.51c1.66,0,3,1.34,3,3v1.61c0,1.66-1.34,3-3,3ZM55.96,43.76h-1.82c-1.66,0-3-1.34-3-3v-2.03c0-1.66,1.34-3,3-3h1.82c1.66,0,3,1.34,3,3v2.03c0,1.66-1.34,3-3,3ZM55.96,32.56h-1.82c-1.66,0-3-1.34-3-3v-2.17c0-1.66,1.34-3,3-3h1.82c1.66,0,3,1.34,3,3v2.17c0,1.66-1.34,3-3,3Z"/><path class="cls-3" d="M135.88,68.9h-12.18c-3.61,0-5.94-2.28-5.94-5.8v-4.2c0-.57.06-1.12.18-1.62h-21.82c-.41,0-1.25,0-2.18-.26v6.15c0,1.54-.59,2.96-1.72,4.08-1.1,1.1-2.52,1.65-4.22,1.65h-5.6c-1.81,0-3.25-.58-4.29-1.71-1-1.03-1.58-2.29-1.71-3.75,0-.09-.01-.18-.01-.27V7.37c0-.1,0-.2.01-.3.14-1.4.71-2.63,1.71-3.65.76-.83,2.1-1.79,4.29-1.79h54.54c1.36,0,3.29.16,4.57,1.5,1.02.96,1.51,2.39,1.51,4.37v53.98c0,1.59-.17,3.88-1.6,5.49-.04.04-.08.09-.12.13-1.19,1.19-3.01,1.79-5.41,1.79ZM139.17,64.99h0,0ZM136.82,63.13h0,0ZM123.75,62.9h12.12c.49,0,.82-.04,1.04-.09.05-.25.1-.67.1-1.32V7.64s-.05,0-.08,0h-54.54v55.26h5.55V15.49c0-1.66,1.34-3,3-3h37.38c1.66,0,3,1.34,3,3v40.54c0,1.66-1.34,3-3,3h-4.56v3.87ZM96.3,51.93h0s0,0,0,0ZM96.24,51.28h27.04v-13.25h-3.59v7.43c0,1.66-1.34,3-3,3h-2.17c-1.66,0-3-1.34-3-3v-12.74c0-1.66,1.34-3,3-3h7.99v-2.67c0-.08,0-.15,0-.22h-.5c-1.01,0-1.95-.5-2.5-1.34s-.65-1.9-.26-2.83l.9-2.13h-3.04c-.07,0-.13,0-.2,0-.02,0-.04,0-.06,0-.17.27-.39.65-.67,1.18l-1.42,3.32c-.47,1.1-1.56,1.82-2.76,1.82h-4.48c-1.2,0-2.29-.72-2.76-1.82l-1.42-3.32c-.28-.53-.5-.91-.67-1.18-.02,0-.04,0-.06,0-.07,0-.13,0-.2,0h-3.04l.9,2.13c.39.93.29,1.99-.26,2.83-.56.84-1.49,1.34-2.5,1.34h-.5c0,.07,0,.14,0,.22v2.67h7.92c1.66,0,3,1.34,3,3v12.74c0,1.66-1.34,3-3,3h-2.1c-1.66,0-3-1.34-3-3v-7.43h-3.58s0,0,0,0v13.25ZM109.5,20.82h.52l.69-1.61c.03-.08.07-.15.11-.22.09-.17.18-.34.27-.5h-2.65c.09.16.18.32.27.5.04.07.07.15.11.22l.69,1.61Z"/><path class="cls-3" d="M211.68,68.9h-10.22c-3.76-.09-6.62-1.07-8.57-2.92-.15-.15-.3-.29-.44-.45-.24.69-.62,1.29-1.12,1.79-.06.06-.13.12-.2.18-.97.81-2.23,1.26-3.54,1.26h-7.7c-1.29,0-2.57-.43-3.52-1.19-.72-.54-1.24-1.26-1.55-2.11-.16.18-.33.35-.5.51-1.96,1.85-4.82,2.84-8.5,2.92h-10.29c-1.61,0-3.09-.58-4.15-1.65-1.05-1.05-1.58-2.35-1.58-3.87v-3.85c0-1.52.53-2.82,1.58-3.87,1.06-1.06,2.54-1.65,4.15-1.65h5.12v-1.62c0-.36.04-.71.11-1.06h-4.87c-1.75,0-3.26-.64-4.36-1.86-1.08-1.11-1.65-2.5-1.65-4.01V11.71c0-1.45.56-2.75,1.65-3.88.76-.83,2.12-1.79,4.36-1.79h6.37c.83,0,1.61.15,2.32.45.02-.92.21-2.19,1.18-3.36.06-.07.12-.14.18-.2,1.37-1.37,3.15-1.37,3.74-1.37h39.41c.59,0,2.37,0,3.74,1.38.06.06.12.13.18.19.85,1.01,1.26,2.19,1.26,3.6v29.05c0,.31-.02.6-.06.89.76.2,1.5.56,2.12,1.19.06.06.12.13.18.2.85,1.01,1.26,2.49,1.26,4.51v2.8c0,1.56-.38,2.88-1.12,3.92-.05.07-.11.14-.16.21-.71.83-2.08,1.82-4.59,1.82h-5.43c.07.35.1.7.1,1.06v1.62h5.12c1.61,0,3.09.59,4.15,1.65,1.05,1.05,1.58,2.35,1.58,3.87v3.85c0,1.52-.53,2.82-1.58,3.87-1.06,1.06-2.54,1.65-4.15,1.65ZM195.99,52.79v5.4c0,1.63.34,2.78,1.02,3.43.82.77,2.42,1.23,4.52,1.28h9.88v-2.89h-5.12c-1.57,0-3.02-.59-4.08-1.66-1.06-1.06-1.65-2.53-1.65-4.15v-1.41h-4.57ZM155.8,62.89h9.95c2.02-.04,3.63-.5,4.45-1.27.68-.64,1.02-1.8,1.02-3.42v-5.4h-4.57v1.41c0,1.62-.59,3.09-1.65,4.15-1.08,1.08-2.49,1.65-4.08,1.65h-5.12v2.88ZM180.51,62.76h6.25v-14.43c0-1.66,1.34-3,3-3h21.99v-2.74c0-.05,0-.1,0-.15h-46.56c-1.66,0-3-1.34-3-3V12.06h-6.31s0,0-.01,0v33.27h21.64c1.66,0,3,1.34,3,3v14.43ZM170.57,34.89h37.68V7.57s-37.68,0-37.68,0v27.32ZM209.28,7.58h0,0ZM198.94,33.96h-19.11c-1.66,0-3-1.34-3-3v-2.31c0-1.66,1.34-3,3-3h19.11c1.66,0,3,1.34,3,3v2.31c0,1.66-1.34,3-3,3ZM198.94,25.14h-19.11c-1.66,0-3-1.34-3-3v-2.17c0-1.66,1.34-3,3-3h19.11c1.66,0,3,1.34,3,3v2.17c0,1.66-1.34,3-3,3ZM198.94,16.39h-19.11c-1.66,0-3-1.34-3-3v-2.17c0-1.66,1.34-3,3-3h19.11c1.66,0,3,1.34,3,3v2.17c0,1.66-1.34,3-3,3Z"/><path class="cls-2" d="M5.13,32.5c-.42-.42-.63-1.19-.63-2.17v-1.68c0-1.33.21-2.17.63-2.59s1.12-.63,2.24-.63h7.42v-1.33h-5.95c-1.05,0-1.82-.28-2.24-.7-.42-.49-.63-1.26-.63-2.24v-1.68c0-1.26.21-2.17.63-2.59s1.19-.63,2.24-.63h5.95v-1.33h-5.95c-1.05,0-1.82-.21-2.24-.7s-.63-1.26-.63-2.24v-1.61c0-1.33.21-2.24.63-2.66.42-.35,1.19-.56,2.24-.56h5.95v-.56c0-.7.21-1.19.63-1.61.35-.35.91-.49,1.61-.49h4.9c.7,0,1.26.14,1.68.49.49.42.7.91.7,1.61v.56h5.74c1.19,0,2.03.21,2.38.56.42.42.63,1.33.63,2.66v1.61c0,.98-.21,1.75-.63,2.24-.35.49-1.19.7-2.38.7h-5.74v1.33h5.74c1.19,0,2.03.21,2.38.63.42.42.63,1.33.63,2.59v1.68c0,.98-.21,1.75-.63,2.24-.35.42-1.19.7-2.38.7h-5.74v1.33h7.28c1.19,0,1.96.21,2.38.63s.63,1.26.63,2.59v1.68c0,.98-.21,1.75-.63,2.17-.42.49-1.19.77-2.38.77H7.37c-1.12,0-1.82-.28-2.24-.77ZM32.15,35.23c.35.35.49.91.49,1.61v26.88c0,.77-.14,1.26-.49,1.61s-.91.56-1.61.56h-9.38c-.77,0-1.4-.21-1.68-.56-.35-.35-.49-.77-.49-1.4v-1.89c0-.91.14-1.54.49-1.96.28-.35.91-.56,1.68-.56h1.68v-1.82h-6.51v6.02c0,.77-.14,1.26-.35,1.61-.28.35-.84.56-1.61.56h-5.74c-.77,0-1.33-.21-1.61-.56-.35-.35-.56-.84-.56-1.61v-26.88c0-.7.21-1.26.56-1.61.28-.35.84-.56,1.61-.56h21.91c.7,0,1.26.21,1.61.56ZM22.84,43v-1.61h-6.51v1.61h6.51ZM22.84,51.27v-1.68h-6.51v1.68h6.51ZM35.3,30.19c.35-.42,1.12-.63,2.31-.63h7.49v-2.17h-5.6c-1.12,0-1.89-.21-2.45-.56-.49-.35-.77-.91-.77-1.75v-4.2c0-1.12.28-1.82.77-2.17.56-.42,1.33-.56,2.45-.56h6.86l3.64-5.39h-3.71l-.77,1.12c-.84,1.19-1.47,1.96-1.82,2.38-.42.42-1.12.56-2.31.49h-3.5c-.84.07-1.54-.21-2.1-.7-.56-.56-.49-1.26.14-2.17l5.25-7.91c.63-.77,1.54-1.19,2.66-1.33h17.36c1.05,0,1.82.21,2.17.63.42.35.28,1.12-.28,2.24l-7.21,10.64h6.02c1.26,0,2.17.14,2.59.56.42.35.63,1.05.49,2.17v8.68h.14c1.26,0,2.1.21,2.52.63.49.42.7,1.26.7,2.59v3.01c0,.98-.21,1.75-.7,2.24-.42.42-1.26.7-2.52.7h-.14v8.61c0,1.05-.21,1.82-.56,2.17-.42.35-1.26.56-2.52.56h-7.77v13.09c0,1.12-.21,1.82-.56,2.24-.35.35-1.19.49-2.52.49h-6.58c-1.05,0-1.89-.14-2.38-.49-.56-.42-.84-1.12-.84-2.24v-3.64c0-1.12.28-1.89.84-2.31.49-.35,1.33-.56,2.38-.56h.63v-6.58h-5.6c-1.12,0-1.89-.21-2.45-.56-.49-.35-.77-1.12-.77-2.17v-3.71c0-1.12.28-1.82.77-2.24.56-.42,1.33-.63,2.45-.63h5.6v-2.03h-7.49c-1.19,0-1.96-.28-2.31-.7-.35-.49-.49-1.26-.49-2.24v-3.01c0-1.33.14-2.17.49-2.59ZM54.14,27.39v2.17h1.82v-2.17h-1.82ZM55.96,38.73h-1.82v2.03h1.82v-2.03Z"/><path class="cls-2" d="M139.16,64.99c-.56.56-1.68.91-3.29.91h-12.18c-1.96,0-2.94-.98-2.94-2.8v-4.2c0-1.89.98-2.87,2.94-2.87h4.62V15.49h-37.38v47.68c0,.77-.28,1.4-.84,1.96-.56.56-1.26.77-2.1.77h-5.6c-.91,0-1.61-.21-2.1-.77-.56-.56-.84-1.19-.91-1.96V7.37c.07-.7.35-1.33.91-1.89.49-.56,1.19-.84,2.1-.84h54.54c1.26,0,2.1.21,2.45.63.42.35.63,1.12.63,2.24v53.98c0,1.75-.28,2.87-.84,3.5ZM122.01,23.82h.49c1.19,0,1.96.21,2.38.63s.63,1.26.63,2.59v2.73c0,.98-.21,1.75-.63,2.24-.42.42-1.19.7-2.38.7h-7.98v12.74h2.17v-7.77c0-.7.28-1.26.84-1.82s1.26-.84,2.1-.84h3.64c.91,0,1.68.28,2.17.84.56.56.84,1.12.84,1.82v13.65c0,1.05-.21,1.75-.56,2.24-.42.49-1.26.7-2.45.7h-27.16c-1.12,0-1.89-.21-2.31-.7-.35-.49-.56-1.19-.56-2.24v-13.65c0-.7.28-1.26.84-1.82.49-.56,1.26-.84,2.17-.84h3.64c.84,0,1.54.28,2.1.84.56.56.84,1.12.84,1.82v7.77h2.1v-12.74h-8.05c-1.05,0-1.82-.28-2.24-.7-.42-.49-.63-1.26-.63-2.24v-2.73c0-1.33.21-2.17.63-2.59.42-.42,1.19-.63,2.24-.63h.63l-1.54-3.64c-.35-.7-.28-1.33.21-1.89s1.33-.84,2.52-.77h3.71c1.05-.07,1.82.14,2.17.49.35.42.84,1.19,1.47,2.38l1.47,3.43h4.48l1.47-3.43c.63-1.19,1.12-1.96,1.47-2.38.35-.35,1.12-.56,2.17-.49h3.71c1.19-.07,2.03.21,2.52.77.49.56.56,1.19.21,1.89l-1.54,3.64Z"/><path class="cls-2" d="M171.7,49.79c.7.07,1.33.28,1.75.77.49.49.77,1.12.77,1.82v5.81c0,2.45-.63,4.34-1.96,5.6-1.33,1.26-3.5,2.03-6.51,2.1h-10.22c-.84,0-1.54-.28-2.03-.77s-.7-1.05-.7-1.75v-3.85c0-.7.21-1.26.7-1.75s1.19-.77,2.03-.77h5.39c.84,0,1.47-.28,1.96-.77.49-.49.77-1.19.77-2.03v-1.82c0-.7.28-1.33.77-1.82.49-.49,1.12-.7,1.82-.77h5.46ZM189.77,48.32v15.26c0,.7-.21,1.26-.56,1.61-.42.35-.98.56-1.61.56h-7.7c-.63,0-1.26-.21-1.68-.56-.49-.35-.7-.91-.7-1.61v-15.26h-21.63c-.98,0-1.68-.35-2.17-.91-.56-.56-.84-1.19-.84-1.96V11.71c0-.7.28-1.26.84-1.82.49-.56,1.19-.84,2.17-.84h6.37c.84,0,1.54.28,2.1.84s.84,1.12.84,1.82v27.72h46.69c1.12,0,1.89.14,2.31.56.35.42.56,1.33.56,2.59v2.8c0,.98-.21,1.68-.56,2.17-.42.49-1.19.77-2.31.77h-22.12ZM210.7,5.06c.35.42.56.91.56,1.68v29.05c0,.7-.21,1.26-.56,1.61-.35.35-.84.49-1.61.49h-39.41c-.77,0-1.26-.14-1.61-.49-.35-.35-.49-.91-.49-1.61V6.74c0-.77.14-1.26.49-1.68.35-.35.84-.49,1.61-.49h39.41c.77,0,1.26.14,1.61.49ZM198.94,11.22h-19.11v2.17h19.11v-2.17ZM198.94,19.97h-19.11v2.17h19.11v-2.17ZM198.94,28.65h-19.11v2.31h19.11v-2.31ZM202.79,50.56c.49.49.77,1.12.77,1.82v1.82c0,.84.28,1.54.77,2.03.49.49,1.19.77,1.96.77h5.39c.84,0,1.54.28,2.03.77.49.49.7,1.05.7,1.75v3.85c0,.7-.21,1.26-.7,1.75-.49.49-1.19.77-2.03.77h-10.22c-3.01-.07-5.18-.84-6.51-2.1-1.33-1.26-1.96-3.15-1.96-5.6v-5.81c0-.7.28-1.33.77-1.82.42-.49,1.05-.7,1.75-.77h5.46c.7.07,1.33.28,1.82.77Z"/></g></svg>