<?xml version="1.0" encoding="UTF-8"?><svg id="_レイヤー_2" xmlns="http://www.w3.org/2000/svg" viewBox="0 0 218.17 70.75"><defs><style>.cls-1,.cls-2,.cls-3{stroke-width:0px;}.cls-2{fill:#198caa;}.cls-3{fill:#fff;}</style></defs><g id="_レイヤー_4"><path class="cls-1" d="M5.13,43.84c-.42-.49-.63-1.26-.63-2.24v-2.17c0-1.33.21-2.24.63-2.59.35-.42,1.12-.63,2.24-.63h9.94V8.21c0-1.33.21-2.17.63-2.59s1.19-.63,2.24-.63h35.98c1.19,0,1.96.21,2.38.63.42.42.63,1.26.63,2.59v2.24c0,.98-.21,1.75-.63,2.17-.42.49-1.19.77-2.38.77h-27.3v2.03h24.85c1.19,0,1.96.21,2.38.63s.63,1.26.63,2.59v2.17c0,.98-.21,1.75-.63,2.24s-1.19.7-2.38.7h-24.85v2.03h24.85c1.19,0,1.96.21,2.38.63s.63,1.26.63,2.59v2.17c0,1.05-.21,1.75-.63,2.24s-1.19.7-2.38.7h-24.85v2.1h35.21c1.19,0,2.03.21,2.38.63.42.35.63,1.26.63,2.59v2.17c0,.98-.21,1.75-.63,2.24-.35.49-1.19.7-2.38.7h-18.62v3.36c-.07,3.5.49,5.95,1.54,7.28l2.38-5.81c.56-1.12,1.05-1.89,1.47-2.24.42-.42,1.05-.63,1.89-.63h6.72c1.12,0,1.75.21,1.96.63.21.35.07,1.12-.35,2.24l-3.43,8.19h6.72c.77.07,1.33.35,1.89.77.49.49.7,1.05.7,1.82v3.43c0,.77-.21,1.33-.7,1.82-.56.42-1.12.7-1.89.77h-16.17c-4.97-.14-8.61-1.47-10.85-3.99-2.17-2.45-3.36-6.44-3.43-11.83v-5.81h-7.84v11.83c0,.98.49,1.47,1.4,1.47h3.01c1.05,0,1.82.21,2.24.56.42.35.63,1.12.63,2.17v3.43c0,.84-.21,1.4-.63,1.75s-1.19.49-2.24.49h-13.65c-1.19,0-2.03-.14-2.38-.49-.42-.35-.56-.91-.56-1.75v-19.46h-6.51c-1.12,0-1.89-.21-2.24-.7Z"/><path class="cls-1" d="M107.85,48.74c.42.56.63,1.19.63,2.03v4.83c0,1.12-.21,1.89-.63,2.38s-1.26.98-2.45,1.47l-24.36,6.02c-1.33.28-2.24.21-2.59-.35-.42-.49-.63-1.33-.49-2.38v-4.2c0-1.19.14-1.96.42-2.38.28-.42.91-.84,1.89-1.33l8.26-2.1v-5.74h-7.63c-1.12,0-1.89-.21-2.24-.7-.42-.49-.63-1.26-.63-2.24v-3.29c0-1.33.21-2.17.63-2.59.35-.42,1.12-.63,2.24-.63h7.63v-2.73h-6.58c-1.4,0-2.52-.28-3.15-.91-.63-.63-.98-1.68-.98-3.08V8.42c0-1.47.28-2.52.91-3.01.7-.56,1.75-.77,3.15-.77h22.12c1.26,0,2.24.21,3.01.7.7.56,1.05,1.61,1.05,3.22v22.19c0,1.4-.35,2.45-1.05,3.15-.7.63-1.68.91-2.94.91h-6.72v2.73h8.26c1.19,0,2.03.21,2.38.63.42.42.63,1.26.63,2.59v3.29c0,.98-.21,1.75-.63,2.24-.35.49-1.19.7-2.38.7h-8.26v3.57l8.05-2.03c1.26-.35,2.1-.28,2.45.21ZM86.57,15.77h1.96v-3.08h-1.96v3.08ZM86.57,26.69h1.96v-3.08h-1.96v3.08ZM99.31,12.69h-1.96v3.08h1.96v-3.08ZM99.31,23.61h-1.96v3.08h1.96v-3.08ZM116.32,66.25c-1.12,0-1.89-.14-2.31-.49-.35-.35-.56-.91-.56-1.75v-4.76c0-1.12.21-1.82.56-2.17.42-.42,1.19-.56,2.31-.56h.77c.91,0,1.4-.49,1.4-1.54v-16.94h-6.44c-1.19,0-1.96-.21-2.24-.56-.35-.42-.49-1.12-.49-2.24v-3.85c-.07-1.12.14-1.96.49-2.31.35-.42,1.05-.63,2.17-.63h5.88l-6.58-9.87c-.56-1.12-.63-1.89-.28-2.31.42-.35,1.12-.56,2.24-.56h5.88c1.05,0,1.75.21,2.1.63.35.35.98,1.19,1.75,2.31l.77,1.33,4.27-6.3h-15.82c-1.12,0-1.82-.28-2.24-.77-.42-.49-.63-1.19-.63-2.17v-3.01c0-1.33.21-2.24.63-2.66.42-.35,1.12-.56,2.24-.56h25.41c1.19,0,2.03.21,2.38.56.42.42.63,1.33.63,2.66v3.01c.14.56-.07,1.26-.49,2.1l-10.43,15.61h8.54c.84,0,1.4.21,1.75.56.35.35.56,1.12.56,2.24v12.39c0,1.12-.14,1.89-.49,2.31-.28.42-.84.63-1.68.63h-4.76c-1.12,0-1.89-.21-2.24-.63-.42-.35-.56-1.12-.56-2.24v-4.34c0-.91-.56-1.33-1.54-1.33h-1.05v25.97c0,.84-.14,1.4-.56,1.75-.35.35-1.19.49-2.38.49h-8.96Z"/><path class="cls-1" d="M170.61,50.14c.7.07,1.33.28,1.75.77.49.49.77,1.12.77,1.82v5.81c0,2.45-.63,4.34-1.96,5.6-1.33,1.26-3.5,2.03-6.51,2.1h-10.22c-.84,0-1.54-.28-2.03-.77-.49-.49-.7-1.05-.7-1.75v-3.85c0-.7.21-1.26.7-1.75.49-.49,1.19-.77,2.03-.77h5.39c.84,0,1.47-.28,1.96-.77.49-.49.77-1.19.77-2.03v-1.82c0-.7.28-1.33.77-1.82s1.12-.7,1.82-.77h5.46ZM188.67,48.67v15.26c0,.7-.21,1.26-.56,1.61-.42.35-.98.56-1.61.56h-7.7c-.63,0-1.26-.21-1.68-.56-.49-.35-.7-.91-.7-1.61v-15.26h-21.63c-.98,0-1.68-.35-2.17-.91-.56-.56-.84-1.19-.84-1.96V12.06c0-.7.28-1.26.84-1.82.49-.56,1.19-.84,2.17-.84h6.37c.84,0,1.54.28,2.1.84s.84,1.12.84,1.82v27.72h46.7c1.12,0,1.89.14,2.31.56.35.42.56,1.33.56,2.59v2.8c0,.98-.21,1.68-.56,2.17-.42.49-1.19.77-2.31.77h-22.12ZM209.61,5.41c.35.42.56.91.56,1.68v29.05c0,.7-.21,1.26-.56,1.61-.35.35-.84.49-1.61.49h-39.41c-.77,0-1.26-.14-1.61-.49-.35-.35-.49-.91-.49-1.61V7.09c0-.77.14-1.26.49-1.68.35-.35.84-.49,1.61-.49h39.41c.77,0,1.26.14,1.61.49ZM197.85,11.57h-19.11v2.17h19.11v-2.17ZM197.85,20.32h-19.11v2.17h19.11v-2.17ZM197.85,29h-19.11v2.31h19.11v-2.31ZM201.69,50.91c.49.49.77,1.12.77,1.82v1.82c0,.84.28,1.54.77,2.03.49.49,1.19.77,1.96.77h5.39c.84,0,1.54.28,2.03.77s.7,1.05.7,1.75v3.85c0,.7-.21,1.26-.7,1.75s-1.19.77-2.03.77h-10.22c-3.01-.07-5.18-.84-6.51-2.1-1.33-1.26-1.96-3.15-1.96-5.6v-5.81c0-.7.28-1.33.77-1.82.42-.49,1.05-.7,1.75-.77h5.46c.7.07,1.33.28,1.82.77Z"/><path class="cls-2" d="M30.47,70.75h-13.65c-1.69,0-3.81-.19-5.4-1.65-1.36-1.2-2.04-2.91-2.04-5.09v-14.96h-2.01c-2.6,0-4.54-.81-5.78-2.42-1.06-1.31-1.59-3-1.59-5.02v-2.17c0-.98,0-3.86,1.92-5.75,1.24-1.31,3.08-1.97,5.45-1.97h5.44V8.21c0-1.64.2-4.03,1.95-5.77,1.29-1.29,3.12-1.95,5.42-1.95h35.98c.89,0,3.62,0,5.56,1.95,1.75,1.74,1.95,4.13,1.95,5.77v2.24c0,2.69-.96,4.31-1.82,5.23-.22.25-.49.5-.81.74.15.8.18,1.57.18,2.22v2.17c0,1.49-.29,2.8-.87,3.91.76,1.46.87,3.07.87,4.28v2.17c0,.18,0,.36-.01.54h2.86c.94,0,3.71,0,5.59,1.97,1.92,1.89,1.92,4.77,1.92,5.75v2.17c0,2.03-.54,3.72-1.6,5.03-.94,1.22-2.32,1.98-4.11,2.27-.16.86-.43,1.58-.61,2.05-.02.05-.04.11-.06.16l-.82,1.95c.12,0,.24,0,.37.02,1.52.14,2.88.68,4.18,1.65.17.13.33.27.48.41,1.34,1.34,2.02,3.02,2.02,5.01v3.43c0,1.98-.68,3.66-2.01,5-.15.15-.31.29-.48.42-1.3.97-2.67,1.51-4.18,1.65-.14.01-.27.02-.41.02h-16.17s-.08,0-.13,0c-4.53-.13-8.27-1.13-11.15-2.99-.4.67-.88,1.17-1.31,1.53-1.65,1.37-3.71,1.53-5.12,1.53ZM18.38,61.75h6.37c-1.94-.94-3.19-2.92-3.19-5.37v-11.83c0-2.49,2.01-4.5,4.5-4.5h.44c-1.28-.79-2.14-2.21-2.14-3.83v-2.1c0-1.88,1.16-3.49,2.8-4.17-1.64-.67-2.8-2.28-2.8-4.17v-2.03c0-1.88,1.16-3.49,2.8-4.17-1.64-.67-2.8-2.28-2.8-4.17v-2.03c0-1.67.91-3.12,2.25-3.9h-4.81v26.72c0,2.49-2.01,4.5-4.5,4.5h-1.07c1.28.79,2.14,2.21,2.14,3.83v17.2ZM48.25,61.68h7.55c-.77-.34-1.44-.9-1.92-1.62-.83-1.25-.99-2.84-.4-4.23l2.02-4.82h-1.91c-.04.07-.08.15-.13.24l-2.31,5.65c-.61,1.48-1.95,2.53-3.54,2.75-1.58.22-3.17-.41-4.16-1.67-1.78-2.25-2.6-5.58-2.51-10.16v-3.27c0-1.62.85-3.04,2.14-3.83h-6.83c1.28.79,2.14,2.21,2.14,3.83v5.81c.05,4.07.87,7.23,2.3,8.85,1.69,1.9,5.02,2.39,7.55,2.47Z"/><path class="cls-2" d="M125.28,70.75h-8.96c-1.44,0-3.54-.16-5.19-1.53-.11-.09-.21-.18-.3-.28-.86-.86-1.88-2.41-1.88-4.93v-1.27c-.54.3-1.15.59-1.84.88-.21.08-.42.15-.63.21l-24.36,6.02c-.05.01-.1.02-.16.04-4.14.87-6.19-.78-7.12-2.05-1.1-1.41-1.59-3.29-1.39-5.34v-3.95c0-1.45.13-3.32,1.18-4.88.82-1.23,2.05-2.03,3.21-2.65-1.12-.4-2.03-1.04-2.72-1.94-1.06-1.31-1.6-3-1.6-5.03v-3.29c0-1.36.14-3.22,1.17-4.81-.74-1.13-1.38-2.79-1.38-5.13V8.42c0-2.99.89-5.19,2.65-6.56,1.92-1.54,4.3-1.72,5.91-1.72h22.12c1.58,0,2.95.24,4.15.74,1.11-.59,2.45-.88,4.04-.88h25.41c2.48,0,4.3.61,5.56,1.88,1.31,1.32,1.95,3.23,1.95,5.84v2.64c.22,1.82-.43,3.4-.96,4.48-.08.17-.18.33-.28.49l-5.75,8.61h.12c2.52,0,4.08,1.02,4.93,1.88,1.25,1.24,1.88,3.07,1.88,5.42v12.39c0,1.51-.16,3.42-1.39,5.02-.73.99-2.3,2.42-5.28,2.42h-4.76c-.31,0-.6-.01-.89-.03v12.96c0,2.18-.69,3.89-2.04,5.09-1.59,1.46-3.71,1.65-5.4,1.65ZM117.95,61.75h5.77v-23.71c0-2.49,2.02-4.5,4.5-4.5h1.05c3.5,0,6.04,2.45,6.04,5.83v2.71h.73v-9.13h-6.35c-1.66,0-3.19-.91-3.97-2.38-.78-1.46-.7-3.24.23-4.62l10.16-15.21h0v-1.73h-22.29v.17h14.19c1.67,0,3.2.92,3.98,2.39s.68,3.25-.25,4.63l-4.27,6.3c-.87,1.28-2.34,2.04-3.88,1.97-1.55-.05-2.96-.9-3.73-2.24l-.68-1.18c-.24-.35-.44-.63-.6-.85h-.79l3.83,5.74c.92,1.38,1.01,3.16.22,4.62-.78,1.46-2.31,2.38-3.97,2.38h-4.04v.59h4.67c2.49,0,4.5,2.01,4.5,4.5v16.94c0,3.2-2.07,5.6-5.04,5.99v.79ZM82.46,58.92v1.57l21.51-5.32s0,0,0,0v-1.64l-5.53,1.4c-1.34.34-2.77.04-3.87-.81-.75-.59-1.29-1.39-1.56-2.29v.91c0,2.06-1.4,3.85-3.39,4.36l-7.18,1.82ZM106.86,52.81h0s0,0,0,0ZM112.39,47.69c.39.95.59,1.98.59,3.08v1.76c.34-.13.68-.22,1.01-.3v-9.7h-.87v1.52c0,1.37-.25,2.59-.73,3.64ZM82.53,42.49h6c2.18,0,4,1.55,4.41,3.6.42-2.06,2.23-3.6,4.41-3.6h6.77v-.45h-6.77c-2.18,0-4-1.55-4.41-3.6-.42,2.06-2.23,3.6-4.41,3.6h-6v.45ZM90.47,30.75c1.25.6,2.19,1.76,2.47,3.16.28-1.4,1.22-2.56,2.47-3.16-1.25-.6-2.19-1.76-2.47-3.16-.28,1.4-1.21,2.56-2.47,3.16ZM101.98,30.31h1.58v-2.14c-.3.86-.86,1.61-1.58,2.14ZM82.32,30.31h1.58c-.72-.53-1.28-1.28-1.58-2.14v2.14ZM90.74,19.69c1.12.63,1.94,1.73,2.2,3.02.26-1.3,1.08-2.39,2.2-3.02-1.12-.63-1.94-1.73-2.2-3.02-.26,1.3-1.08,2.39-2.2,3.02ZM82.32,17.25v4.88c.36-1.04,1.09-1.91,2.04-2.44-.94-.53-1.68-1.4-2.04-2.44ZM101.52,19.69c.94.53,1.68,1.4,2.04,2.44v-4.88c-.36,1.04-1.09,1.91-2.04,2.44ZM91.29,9.14c.83.65,1.43,1.58,1.65,2.65.22-1.07.81-2.01,1.65-2.65h-3.29ZM82.32,9.14v2.07c.29-.83.81-1.54,1.49-2.07h-1.49ZM102.08,9.14c.68.53,1.2,1.24,1.49,2.07v-2.07h-1.49Z"/><path class="cls-2" d="M210.59,70.75h-10.22s-.07,0-.11,0c-3.51-.08-6.37-.93-8.52-2.51-.14.17-.29.34-.45.5-.09.09-.19.18-.29.26-1.24,1.04-2.84,1.61-4.5,1.61h-7.7c-1.62,0-3.22-.54-4.43-1.5-.37-.28-.7-.6-.99-.94-2.16,1.63-5.05,2.5-8.61,2.58-.04,0-.07,0-.11,0h-10.22c-2.02,0-3.87-.74-5.21-2.09-1.32-1.32-2.02-3.03-2.02-4.93v-3.85c0-1.9.7-3.61,2.01-4.93,1.03-1.03,2.35-1.7,3.81-1.97-1.43-.33-2.71-1.06-3.69-2.14-1.35-1.39-2.06-3.13-2.06-5.04V12.06c0-1.84.69-3.49,2.06-4.91.97-1.06,2.68-2.25,5.45-2.25h6.37c.37,0,.73.02,1.08.07.25-.91.67-1.72,1.27-2.45.08-.1.17-.2.26-.29,1.2-1.21,2.81-1.82,4.8-1.82h39.41c1.98,0,3.6.61,4.8,1.81.09.1.19.2.27.3,1.06,1.28,1.6,2.81,1.6,4.56v28.93c.56.27,1.12.64,1.62,1.14.1.1.19.2.28.3,1.08,1.29,1.6,3.08,1.6,5.47v2.8c0,1.88-.47,3.48-1.4,4.78-.08.11-.16.21-.25.31-.75.87-2.04,1.88-4.17,2.22,1.32.3,2.5.95,3.44,1.89,1.32,1.32,2.02,3.03,2.02,4.93v3.85c0,1.91-.7,3.61-2.02,4.93-1.35,1.35-3.2,2.09-5.21,2.09ZM200.42,61.75h3.48c-1.47-.25-2.8-.93-3.85-1.98-1.33-1.32-2.07-3.14-2.09-5.12h-1.57v3.9c0,1.15.2,2,.56,2.34.14.13.97.8,3.47.86ZM161.15,61.75h3.46c2.5-.07,3.33-.73,3.47-.87.35-.33.55-1.18.55-2.33v-3.9h-1.57c-.02,1.98-.76,3.8-2.09,5.12-1.06,1.06-2.36,1.73-3.82,1.98ZM180.92,61.61h3.25v-12.93c0-2.14,1.5-3.94,3.51-4.39h-10.27c2.01.45,3.51,2.25,3.51,4.39v12.93ZM156.28,44.17h6.83c-2.01-.45-3.51-2.25-3.51-4.39V13.9h-3.32v30.27ZM201.63,33.74h4.03V9.42h-3.87c.35.64.55,1.37.55,2.15v2.17c0,1.3-.55,2.47-1.43,3.29.88.82,1.43,1.99,1.43,3.29v2.17c0,1.28-.53,2.44-1.39,3.25.86.82,1.39,1.97,1.39,3.25v2.31c0,.89-.26,1.73-.71,2.43ZM170.98,33.74h3.96c-.45-.7-.71-1.53-.71-2.43v-2.31c0-1.28.53-2.44,1.39-3.25-.86-.82-1.39-1.97-1.39-3.25v-2.17c0-1.3.55-2.47,1.43-3.29-.88-.82-1.43-1.99-1.43-3.29v-2.17c0-.78.2-1.51.55-2.15h-3.8v24.32ZM208.04,9.42h.01-.01Z"/><path class="cls-3" d="M30.47,69.25h-13.65c-1.5,0-3.19-.15-4.4-1.27-1.55-1.36-1.55-3.32-1.55-3.97v-16.46h-3.51c-.8,0-3.19,0-4.6-1.84-.85-1.04-1.27-2.42-1.27-4.1v-2.17c0-1.42.16-3.41,1.49-4.7.96-1.02,2.4-1.52,4.38-1.52h6.94V8.21c0-1.38.16-3.36,1.51-4.71,1-1,2.47-1.51,4.36-1.51h35.98c2.01,0,3.49.49,4.5,1.51,1.35,1.35,1.51,3.33,1.51,4.71v2.24c0,1.8-.48,3.21-1.43,4.21-.4.45-.88.81-1.43,1.08.35,1.01.41,2.07.41,2.9v2.17c0,1.58-.38,2.9-1.13,3.91,1,1.32,1.13,3.04,1.13,4.28v2.17c0,.75-.08,1.43-.24,2.04h4.59c2.07,0,3.55.5,4.51,1.52,1.34,1.29,1.5,3.29,1.5,4.71v2.17c0,1.68-.43,3.06-1.27,4.1-1.22,1.58-3.23,1.8-4.3,1.83,0,.98-.3,1.98-.64,2.89-.01.04-.03.07-.04.11l-1.69,4.03h2.21c.09,0,.18,0,.27.01,1.64.15,2.74.85,3.42,1.36.11.08.22.18.32.28,1.05,1.05,1.58,2.37,1.58,3.94v3.43c0,1.57-.53,2.89-1.58,3.94-.1.1-.21.19-.32.28-.68.51-1.78,1.21-3.42,1.36-.09,0-.18.01-.27.01h-16.17c-5.17-.15-9.17-1.45-11.96-3.88-.28,1.39-.98,2.26-1.59,2.76-1.28,1.06-2.99,1.18-4.16,1.18ZM16.88,63.25h13.46v-2.4h-2.88c-2.59,0-4.4-1.84-4.4-4.47v-11.83c0-1.66,1.34-3,3-3h7.84c1.66,0,3,1.34,3,3v5.81c.06,4.51.99,7.93,2.68,9.84,1.65,1.86,4.58,2.86,8.69,2.98h15.67s0-2.61,0-2.61h-6.31c-1,0-1.94-.5-2.5-1.34-.56-.84-.66-1.9-.27-2.82l2.89-6.9h-5.02c-.12.17-.32.5-.64,1.12l-2.34,5.7c-.4.99-1.3,1.69-2.36,1.83-1.06.15-2.11-.28-2.77-1.11-1.53-1.94-2.27-5.04-2.18-9.2v-3.3c0-1.66,1.34-3,3-3h18.63v-2.11c0-.08,0-.15,0-.22H28.86c-1.66,0-3-1.34-3-3v-2.1c0-1.66,1.34-3,3-3h24.86v-2.11c0-.08,0-.15,0-.22h-24.86c-1.66,0-3-1.34-3-3v-2.03c0-1.66,1.34-3,3-3h24.86v-2.11c0-.08,0-.15,0-.22h-24.86c-1.66,0-3-1.34-3-3v-2.03c0-1.66,1.34-3,3-3h27.31v-2.18c0-.08,0-.15,0-.22H20.31c0,.07,0,.14,0,.22v28c0,1.66-1.34,3-3,3H7.5c0,.07,0,.14,0,.22v2.11h6.38c1.66,0,3,1.34,3,3v18.7ZM29.06,54.85h1.41c.26,0,.52,0,.76.03-.2-1.39-.31-2.89-.33-4.48v-2.85h-1.84v7.3ZM52.97,49.26s0,0,0,0c0,0,0,0,0,0ZM64.02,42.1s0,0,0,0c0,0,0,0,0,0ZM7.57,42.1h0,0Z"/><path class="cls-3" d="M125.28,69.25h-8.96c-1.31,0-2.97-.13-4.23-1.18-.07-.06-.14-.12-.2-.18-.66-.66-1.44-1.86-1.44-3.87v-4.49c-.1.15-.21.29-.32.42-.74.86-1.88,1.59-3.59,2.29-.14.06-.28.1-.42.14l-24.36,6.02s-.07.02-.1.02c-3.23.68-4.83-.39-5.62-1.49-.88-1.12-1.26-2.65-1.08-4.35v-4.02c0-1.84.29-3.09.92-4.05.72-1.09,1.89-1.77,3.04-2.35.19-.1.4-.17.6-.22l6-1.53v-.41h-4.63c-2.11,0-3.66-.62-4.59-1.84-.85-1.04-1.28-2.42-1.28-4.1v-3.29c0-1.34.15-3.27,1.41-4.61.06-.06.12-.13.18-.19-.83-.86-1.8-2.44-1.8-5.14V8.42c0-.93,0-3.77,2.07-5.38,1.57-1.26,3.6-1.4,4.99-1.4h22.12c1.69,0,3.08.31,4.24.95.99-.73,2.28-1.09,3.95-1.09h25.41c2.06,0,3.53.47,4.5,1.44,1.03,1.04,1.51,2.55,1.51,4.78v2.75c.2,1.46-.35,2.79-.81,3.71-.06.11-.12.22-.19.33l-7.31,10.94h2.93c2.01,0,3.21.78,3.87,1.44.95.95,1.44,2.42,1.44,4.36v12.39c0,1.26-.13,2.86-1.08,4.1-.63.87-1.83,1.84-4.09,1.84h-4.76c-.91,0-1.7-.11-2.39-.32v14.75c0,.65,0,2.61-1.55,3.97-1.2,1.11-2.89,1.27-4.39,1.27ZM116.45,63.25h8.77v-25.21c0-1.66,1.34-3,3-3h1.05c2.67,0,4.54,1.78,4.54,4.33v4.21h3.73v-12.13h-7.85c-1.11,0-2.12-.61-2.65-1.59-.52-.98-.46-2.16.15-3.08l10.32-15.44c.06-.12.09-.21.12-.27-.01-.11-.02-.22-.02-.33v-3.01c0-.08,0-.15,0-.22h-25.29c0,.07,0,.14,0,.22v2.95h15.69c1.11,0,2.13.61,2.65,1.59.52.98.46,2.17-.17,3.09l-4.27,6.3c-.58.86-1.56,1.36-2.59,1.31-1.03-.04-1.97-.6-2.49-1.49l-.71-1.23c-.57-.82-.92-1.29-1.12-1.54-.05,0-.12,0-.19,0h-4.15l5.38,8.08c.61.92.67,2.1.15,3.08-.52.98-1.54,1.58-2.65,1.58h-5.54v3.59h6.17c1.66,0,3,1.34,3,3v16.94c0,2.67-1.81,4.54-4.4,4.54h-.64v3.73ZM80.98,57.85c-.01.16-.03.38-.03.69v3.86l23.5-5.81c.52-.22.83-.4,1-.5.01-.11.03-.27.03-.49v-4l-7.4,1.87c-.9.22-1.85.03-2.58-.54-.73-.57-1.16-1.44-1.16-2.37v-3.57c0-1.66,1.34-3,3-3h8.27v-3.23c0-.08,0-.15,0-.22h-8.27c-1.66,0-3-1.34-3-3v-2.73c0-1.66,1.34-3,3-3h6.72c.46,0,.73-.06.86-.1.05-.12.13-.4.13-.96V8.56c0-.39-.03-.66-.06-.83-.22-.05-.54-.09-1-.09h-22.12c-.49,0-.82.03-1.02.07-.02.17-.04.4-.04.71v22.4c0,.44.05.73.1.89.17.04.49.1,1.03.1h6.58c1.66,0,3,1.34,3,3v2.73c0,1.66-1.34,3-3,3h-7.5c0,.07,0,.14,0,.22v3.23h7.5c1.66,0,3,1.34,3,3v5.74c0,1.37-.93,2.57-2.26,2.91l-7.93,2.02c-.15.08-.26.14-.35.2ZM110.71,47.65c.52.93.77,1.96.77,3.13v4.65c.12-.17.26-.32.4-.47,1.04-1.04,2.39-1.34,3.61-1.42v-12.51h-3.44c-.15,0-.29,0-.43,0v3.03c0,1.43-.31,2.63-.91,3.59ZM105.41,50.49s.04.05.05.07c0,0,0,0,0,0-.01-.02-.04-.05-.05-.07ZM111.06,23.65v1.83c.39-.04.71-.04.92-.04h.27l-1.2-1.79ZM118.92,18.25s.03.03.04.05c-.01-.02-.03-.03-.04-.05ZM113.77,16.77h0ZM99.31,29.69h-1.96c-1.66,0-3-1.34-3-3v-3.08c0-1.66,1.34-3,3-3h1.96c1.66,0,3,1.34,3,3v3.08c0,1.66-1.34,3-3,3ZM88.53,29.69h-1.96c-1.66,0-3-1.34-3-3v-3.08c0-1.66,1.34-3,3-3h1.96c1.66,0,3,1.34,3,3v3.08c0,1.66-1.34,3-3,3ZM99.31,18.77h-1.96c-1.66,0-3-1.34-3-3v-3.08c0-1.66,1.34-3,3-3h1.96c1.66,0,3,1.34,3,3v3.08c0,1.66-1.34,3-3,3ZM88.53,18.77h-1.96c-1.66,0-3-1.34-3-3v-3.08c0-1.66,1.34-3,3-3h1.96c1.66,0,3,1.34,3,3v3.08c0,1.66-1.34,3-3,3Z"/><path class="cls-3" d="M210.59,69.25h-10.22c-3.76-.09-6.62-1.07-8.57-2.92-.15-.14-.3-.29-.44-.45-.24.69-.62,1.3-1.12,1.79-.06.06-.13.12-.19.18-.97.81-2.23,1.26-3.54,1.26h-7.7c-1.29,0-2.57-.43-3.52-1.19-.72-.54-1.24-1.26-1.55-2.11-.16.18-.32.35-.5.52-1.96,1.85-4.82,2.84-8.5,2.92h-10.29c-1.62,0-3.09-.58-4.15-1.65-1.05-1.05-1.58-2.35-1.58-3.87v-3.85c0-1.52.53-2.82,1.58-3.87,1.06-1.07,2.54-1.65,4.15-1.65h5.12v-1.62c0-.36.04-.71.11-1.06h-4.87c-1.75,0-3.26-.64-4.36-1.86-1.08-1.11-1.65-2.5-1.65-4.01V12.06c0-1.45.56-2.75,1.65-3.88.76-.83,2.12-1.78,4.36-1.78h6.37c.83,0,1.61.15,2.32.45.02-.92.21-2.19,1.18-3.36.06-.07.11-.13.18-.19,1.37-1.38,3.15-1.38,3.74-1.38h39.41c.59,0,2.37,0,3.74,1.37.06.06.12.13.18.2.84,1.01,1.25,2.19,1.25,3.6v29.05c0,.3-.02.6-.06.89.76.2,1.5.56,2.13,1.19.06.06.13.13.18.2.84,1.01,1.25,2.49,1.25,4.51v2.8c0,1.56-.38,2.87-1.12,3.91-.05.07-.11.14-.16.21-.71.83-2.08,1.82-4.59,1.82h-5.43c.07.35.1.7.1,1.06v1.62h5.12c1.61,0,3.09.58,4.15,1.65,1.05,1.05,1.58,2.35,1.58,3.87v3.85c0,1.52-.53,2.82-1.58,3.87-1.06,1.06-2.54,1.65-4.15,1.65ZM194.89,53.14v5.4c0,1.63.34,2.78,1.03,3.42.82.77,2.42,1.23,4.52,1.28h9.88v-2.89h-5.12c-1.57,0-3.02-.59-4.08-1.66-1.06-1.06-1.65-2.53-1.65-4.15v-1.41h-4.57ZM154.71,63.24h9.95c2.02-.04,3.63-.5,4.45-1.27.68-.64,1.02-1.8,1.02-3.42v-5.4h-4.57v1.41c0,1.62-.59,3.09-1.65,4.15-1.08,1.08-2.49,1.65-4.08,1.65h-5.12v2.88ZM179.42,63.11h6.25v-14.43c0-1.66,1.34-3,3-3h21.99v-2.74c0-.05,0-.1,0-.15h-46.56c-1.66,0-3-1.34-3-3V12.4h-6.31s0,0,0,0v33.27h21.64c1.66,0,3,1.34,3,3v14.43ZM169.48,35.24h37.68V7.92s-37.68,0-37.68,0v27.32ZM208.18,7.93h0,0ZM197.85,34.31h-19.11c-1.66,0-3-1.34-3-3v-2.31c0-1.66,1.34-3,3-3h19.11c1.66,0,3,1.34,3,3v2.31c0,1.66-1.34,3-3,3ZM197.85,25.49h-19.11c-1.66,0-3-1.34-3-3v-2.17c0-1.66,1.34-3,3-3h19.11c1.66,0,3,1.34,3,3v2.17c0,1.66-1.34,3-3,3ZM197.85,16.74h-19.11c-1.66,0-3-1.34-3-3v-2.17c0-1.66,1.34-3,3-3h19.11c1.66,0,3,1.34,3,3v2.17c0,1.66-1.34,3-3,3Z"/><path class="cls-2" d="M5.13,43.84c-.42-.49-.63-1.26-.63-2.24v-2.17c0-1.33.21-2.24.63-2.59.35-.42,1.12-.63,2.24-.63h9.94V8.21c0-1.33.21-2.17.63-2.59s1.19-.63,2.24-.63h35.98c1.19,0,1.96.21,2.38.63.42.42.63,1.26.63,2.59v2.24c0,.98-.21,1.75-.63,2.17-.42.49-1.19.77-2.38.77h-27.3v2.03h24.85c1.19,0,1.96.21,2.38.63s.63,1.26.63,2.59v2.17c0,.98-.21,1.75-.63,2.24s-1.19.7-2.38.7h-24.85v2.03h24.85c1.19,0,1.96.21,2.38.63s.63,1.26.63,2.59v2.17c0,1.05-.21,1.75-.63,2.24s-1.19.7-2.38.7h-24.85v2.1h35.21c1.19,0,2.03.21,2.38.63.42.35.63,1.26.63,2.59v2.17c0,.98-.21,1.75-.63,2.24-.35.49-1.19.7-2.38.7h-18.62v3.36c-.07,3.5.49,5.95,1.54,7.28l2.38-5.81c.56-1.12,1.05-1.89,1.47-2.24.42-.42,1.05-.63,1.89-.63h6.72c1.12,0,1.75.21,1.96.63.21.35.07,1.12-.35,2.24l-3.43,8.19h6.72c.77.07,1.33.35,1.89.77.49.49.7,1.05.7,1.82v3.43c0,.77-.21,1.33-.7,1.82-.56.42-1.12.7-1.89.77h-16.17c-4.97-.14-8.61-1.47-10.85-3.99-2.17-2.45-3.36-6.44-3.43-11.83v-5.81h-7.84v11.83c0,.98.49,1.47,1.4,1.47h3.01c1.05,0,1.82.21,2.24.56.42.35.63,1.12.63,2.17v3.43c0,.84-.21,1.4-.63,1.75s-1.19.49-2.24.49h-13.65c-1.19,0-2.03-.14-2.38-.49-.42-.35-.56-.91-.56-1.75v-19.46h-6.51c-1.12,0-1.89-.21-2.24-.7Z"/><path class="cls-2" d="M107.85,48.74c.42.56.63,1.19.63,2.03v4.83c0,1.12-.21,1.89-.63,2.38s-1.26.98-2.45,1.47l-24.36,6.02c-1.33.28-2.24.21-2.59-.35-.42-.49-.63-1.33-.49-2.38v-4.2c0-1.19.14-1.96.42-2.38.28-.42.91-.84,1.89-1.33l8.26-2.1v-5.74h-7.63c-1.12,0-1.89-.21-2.24-.7-.42-.49-.63-1.26-.63-2.24v-3.29c0-1.33.21-2.17.63-2.59.35-.42,1.12-.63,2.24-.63h7.63v-2.73h-6.58c-1.4,0-2.52-.28-3.15-.91-.63-.63-.98-1.68-.98-3.08V8.42c0-1.47.28-2.52.91-3.01.7-.56,1.75-.77,3.15-.77h22.12c1.26,0,2.24.21,3.01.7.7.56,1.05,1.61,1.05,3.22v22.19c0,1.4-.35,2.45-1.05,3.15-.7.63-1.68.91-2.94.91h-6.72v2.73h8.26c1.19,0,2.03.21,2.38.63.42.42.63,1.26.63,2.59v3.29c0,.98-.21,1.75-.63,2.24-.35.49-1.19.7-2.38.7h-8.26v3.57l8.05-2.03c1.26-.35,2.1-.28,2.45.21ZM86.57,15.77h1.96v-3.08h-1.96v3.08ZM86.57,26.69h1.96v-3.08h-1.96v3.08ZM99.31,12.69h-1.96v3.08h1.96v-3.08ZM99.31,23.61h-1.96v3.08h1.96v-3.08ZM116.32,66.25c-1.12,0-1.89-.14-2.31-.49-.35-.35-.56-.91-.56-1.75v-4.76c0-1.12.21-1.82.56-2.17.42-.42,1.19-.56,2.31-.56h.77c.91,0,1.4-.49,1.4-1.54v-16.94h-6.44c-1.19,0-1.96-.21-2.24-.56-.35-.42-.49-1.12-.49-2.24v-3.85c-.07-1.12.14-1.96.49-2.31.35-.42,1.05-.63,2.17-.63h5.88l-6.58-9.87c-.56-1.12-.63-1.89-.28-2.31.42-.35,1.12-.56,2.24-.56h5.88c1.05,0,1.75.21,2.1.63.35.35.98,1.19,1.75,2.31l.77,1.33,4.27-6.3h-15.82c-1.12,0-1.82-.28-2.24-.77-.42-.49-.63-1.19-.63-2.17v-3.01c0-1.33.21-2.24.63-2.66.42-.35,1.12-.56,2.24-.56h25.41c1.19,0,2.03.21,2.38.56.42.42.63,1.33.63,2.66v3.01c.14.56-.07,1.26-.49,2.1l-10.43,15.61h8.54c.84,0,1.4.21,1.75.56.35.35.56,1.12.56,2.24v12.39c0,1.12-.14,1.89-.49,2.31-.28.42-.84.63-1.68.63h-4.76c-1.12,0-1.89-.21-2.24-.63-.42-.35-.56-1.12-.56-2.24v-4.34c0-.91-.56-1.33-1.54-1.33h-1.05v25.97c0,.84-.14,1.4-.56,1.75-.35.35-1.19.49-2.38.49h-8.96Z"/><path class="cls-2" d="M170.61,50.14c.7.07,1.33.28,1.75.77.49.49.77,1.12.77,1.82v5.81c0,2.45-.63,4.34-1.96,5.6-1.33,1.26-3.5,2.03-6.51,2.1h-10.22c-.84,0-1.54-.28-2.03-.77-.49-.49-.7-1.05-.7-1.75v-3.85c0-.7.21-1.26.7-1.75.49-.49,1.19-.77,2.03-.77h5.39c.84,0,1.47-.28,1.96-.77.49-.49.77-1.19.77-2.03v-1.82c0-.7.28-1.33.77-1.82s1.12-.7,1.82-.77h5.46ZM188.67,48.67v15.26c0,.7-.21,1.26-.56,1.61-.42.35-.98.56-1.61.56h-7.7c-.63,0-1.26-.21-1.68-.56-.49-.35-.7-.91-.7-1.61v-15.26h-21.63c-.98,0-1.68-.35-2.17-.91-.56-.56-.84-1.19-.84-1.96V12.06c0-.7.28-1.26.84-1.82.49-.56,1.19-.84,2.17-.84h6.37c.84,0,1.54.28,2.1.84s.84,1.12.84,1.82v27.72h46.7c1.12,0,1.89.14,2.31.56.35.42.56,1.33.56,2.59v2.8c0,.98-.21,1.68-.56,2.17-.42.49-1.19.77-2.31.77h-22.12ZM209.61,5.41c.35.42.56.91.56,1.68v29.05c0,.7-.21,1.26-.56,1.61-.35.35-.84.49-1.61.49h-39.41c-.77,0-1.26-.14-1.61-.49-.35-.35-.49-.91-.49-1.61V7.09c0-.77.14-1.26.49-1.68.35-.35.84-.49,1.61-.49h39.41c.77,0,1.26.14,1.61.49ZM197.85,11.57h-19.11v2.17h19.11v-2.17ZM197.85,20.32h-19.11v2.17h19.11v-2.17ZM197.85,29h-19.11v2.31h19.11v-2.31ZM201.69,50.91c.49.49.77,1.12.77,1.82v1.82c0,.84.28,1.54.77,2.03.49.49,1.19.77,1.96.77h5.39c.84,0,1.54.28,2.03.77s.7,1.05.7,1.75v3.85c0,.7-.21,1.26-.7,1.75s-1.19.77-2.03.77h-10.22c-3.01-.07-5.18-.84-6.51-2.1-1.33-1.26-1.96-3.15-1.96-5.6v-5.81c0-.7.28-1.33.77-1.82.42-.49,1.05-.7,1.75-.77h5.46c.7.07,1.33.28,1.82.77Z"/></g></svg>