<?xml version="1.0" encoding="UTF-8"?><svg id="_レイヤー_2" xmlns="http://www.w3.org/2000/svg" viewBox="0 0 214.57 70.54"><defs><style>.cls-1,.cls-2,.cls-3{stroke-width:0px;}.cls-2{fill:#198caa;}.cls-3{fill:#fff;}</style></defs><g id="_レイヤー_4"><path class="cls-1" d="M5.06,43c-.42-.49-.56-1.26-.56-2.24v-4.9c0-1.33.14-2.17.56-2.59s1.19-.63,2.31-.63h20.65v-11.34h-14.07c-.7-.07-1.33-.28-1.82-.77-.49-.42-.77-1.05-.77-1.75v-6.72c0-.7.28-1.33.77-1.75.49-.49,1.12-.77,1.82-.77h24.29c2.24,0,3.71-.35,4.34-1.05s1.05-1.26,1.12-1.68c.07-.35.42-.84.91-1.4.49-.56,1.05-.84,1.75-.84h9.17c.7,0,1.33.28,1.82.84.56.56.77,1.19.77,1.96v.84c0,3.78-1.47,6.86-4.34,9.24-2.94,2.38-6.72,3.64-11.27,3.85v11.34h20.44c1.19,0,1.96.21,2.38.63.35.42.56,1.26.63,2.59v4.9c0,.98-.14,1.75-.56,2.24s-1.26.7-2.45.7h-20.44v20.23c0,.7-.28,1.19-.7,1.61-.49.35-1.05.49-1.75.49h-9.8c-.7,0-1.26-.14-1.61-.49-.42-.42-.63-.91-.63-1.61v-20.23H7.37c-1.12,0-1.89-.21-2.31-.7Z"/><path class="cls-1" d="M99.39,47.97v-1.82h-15.19c-.91,0-1.61-.14-2.1-.56-.56-.42-.84-1.12-.91-2.24v-14.14h-3.36c-1.12,0-1.89-.21-2.31-.7-.42-.49-.56-1.4-.56-2.8,0-1.68.14-2.73.56-3.15s1.19-.56,2.31-.56h3.36v-2.03c.07-.7.35-1.26.91-1.82.49-.56,1.19-.84,2.1-.84h4.13c-.49-.56-.77-1.12-.84-1.82v-.77h-10.22c-1.12,0-1.89-.21-2.24-.7-.42-.49-.63-1.26-.63-2.24v-.84c0-1.33.21-2.17.63-2.59.35-.42,1.12-.63,2.24-.63h10.22v-.56c.07-.7.35-1.33.84-1.89.56-.56,1.26-.77,2.17-.77h7.56c.77,0,1.47.21,2.03.77.63.56.91,1.19.91,1.89v.56h9.45v-.56c.07-.7.35-1.33.91-1.89.49-.56,1.19-.77,2.1-.77h7.56c.77,0,1.47.21,2.1.77.56.56.84,1.19.84,1.89v.56h10.01c1.19,0,2.03.21,2.38.63.42.42.63,1.26.63,2.59v.84c0,.98-.21,1.75-.63,2.24-.35.49-1.19.7-2.38.7h-10.01v.77c0,.7-.28,1.26-.77,1.82h3.99c.91,0,1.61.28,2.1.84.56.56.84,1.12.91,1.82v2.03h3.22c1.19,0,2.03.14,2.45.56s.56,1.47.56,3.15c0,1.4-.14,2.31-.56,2.8-.42.49-1.26.7-2.45.7h-3.22v5.11c-.07.63-.35,1.26-.84,1.89-.42.63-1.26.91-2.45.91h-24.64c-.91,0-1.61-.28-2.17-.84-.49-.56-.77-1.19-.84-1.96v-5.11h-5.11v9.73h37.1c1.19,0,2.03.21,2.38.63.42.35.63,1.4.63,3.08,0,1.4-.21,2.31-.63,2.8-.35.49-1.19.7-2.38.7h-19.18v1.82h21.49c1.12,0,1.89.21,2.38.7.42.56.63,1.54.63,2.94,0,1.47-.21,2.52-.63,3.01-.49.56-1.26.84-2.38.84h-6.58c0,.98.21,1.61.7,1.89.56.35,1.19.49,2.03.49h4.27c.84.07,1.47.35,2.03.77.49.49.7,1.12.7,1.75v3.08c0,.7-.21,1.33-.7,1.82-.56.49-1.19.7-2.03.7h-10.22c-3.01,0-5.18-.56-6.51-1.75-1.33-1.26-1.96-3.22-1.96-5.95v-2.8h-3.08v8.47c0,.7-.21,1.19-.63,1.61-.35.35-.91.49-1.54.49h-8.26c-.63,0-1.26-.14-1.68-.49-.49-.42-.7-.91-.7-1.61v-8.47h-3.15v2.8c0,2.73-.63,4.69-1.96,5.95-1.33,1.19-3.5,1.75-6.51,1.75h-10.22c-.84,0-1.54-.21-2.03-.7-.49-.49-.7-1.12-.7-1.82v-3.08c0-.63.21-1.26.7-1.75.49-.42,1.19-.7,2.03-.77h4.27c.84,0,1.47-.14,2.03-.49.49-.28.7-.91.7-1.89h-6.58c-1.19,0-2.03-.28-2.45-.77-.42-.56-.63-1.54-.63-3.01s.21-2.45.63-2.94c.42-.56,1.26-.77,2.45-.77h21.42ZM100.09,17.38c-.56.56-1.26.84-2.03.84h-4.76c.49.56.77,1.12.84,1.75v2.03h5.11v-2.03c.07-.7.35-1.26.84-1.82.56-.56,1.26-.84,2.17-.84h6.93c.91,0,1.61.28,2.17.84.49.56.77,1.12.84,1.82v2.03h5.04v-2.03c.07-.63.35-1.19.84-1.75h-4.62c-.91,0-1.61-.28-2.1-.84-.56-.56-.84-1.19-.91-1.89v-.77h-9.45v.77c0,.7-.28,1.33-.91,1.89ZM112.2,29.21v1.75h5.04v-1.75h-5.04Z"/><path class="cls-1" d="M167.01,49.86c.7.07,1.33.28,1.75.77.49.49.77,1.12.77,1.82v5.81c0,2.45-.63,4.34-1.96,5.6-1.33,1.26-3.5,2.03-6.51,2.1h-10.22c-.84,0-1.54-.28-2.03-.77s-.7-1.05-.7-1.75v-3.85c0-.7.21-1.26.7-1.75.49-.49,1.19-.77,2.03-.77h5.39c.84,0,1.47-.28,1.96-.77.49-.49.77-1.19.77-2.03v-1.82c0-.7.28-1.33.77-1.82.49-.49,1.12-.7,1.82-.77h5.46ZM185.08,48.39v15.26c0,.7-.21,1.26-.56,1.61-.42.35-.98.56-1.61.56h-7.7c-.63,0-1.26-.21-1.68-.56-.49-.35-.7-.91-.7-1.61v-15.26h-21.63c-.98,0-1.68-.35-2.17-.91-.56-.56-.84-1.19-.84-1.96V11.78c0-.7.28-1.26.84-1.82.49-.56,1.19-.84,2.17-.84h6.37c.84,0,1.54.28,2.1.84.56.56.84,1.12.84,1.82v27.72h46.69c1.12,0,1.89.14,2.31.56.35.42.56,1.33.56,2.59v2.8c0,.98-.21,1.68-.56,2.17-.42.49-1.19.77-2.31.77h-22.12ZM206.01,5.13c.35.42.56.91.56,1.68v29.05c0,.7-.21,1.26-.56,1.61s-.84.49-1.61.49h-39.41c-.77,0-1.26-.14-1.61-.49-.35-.35-.49-.91-.49-1.61V6.81c0-.77.14-1.26.49-1.68.35-.35.84-.49,1.61-.49h39.41c.77,0,1.26.14,1.61.49ZM194.25,11.29h-19.11v2.17h19.11v-2.17ZM194.25,20.04h-19.11v2.17h19.11v-2.17ZM194.25,28.72h-19.11v2.31h19.11v-2.31ZM198.1,50.63c.49.49.77,1.12.77,1.82v1.82c0,.84.28,1.54.77,2.03.49.49,1.19.77,1.96.77h5.39c.84,0,1.54.28,2.03.77s.7,1.05.7,1.75v3.85c0,.7-.21,1.26-.7,1.75-.49.49-1.19.77-2.03.77h-10.22c-3.01-.07-5.18-.84-6.51-2.1-1.33-1.26-1.96-3.15-1.96-5.6v-5.81c0-.7.28-1.33.77-1.82.42-.49,1.05-.7,1.75-.77h5.46c.7.07,1.33.28,1.82.77Z"/><path class="cls-2" d="M40.06,70.54h-9.8c-2.47,0-3.97-.99-4.8-1.81-1.27-1.27-1.94-2.93-1.94-4.79v-15.73H7.37c-2.51,0-4.44-.76-5.73-2.27-1.64-1.92-1.64-4.36-1.64-5.17v-4.9c0-1.93.22-4.12,1.88-5.77,1.29-1.29,3.14-1.95,5.49-1.95h16.15v-2.34h-9.57c-.15,0-.3,0-.45-.02-1.77-.18-3.26-.83-4.43-1.95-1.41-1.27-2.21-3.1-2.21-5.05v-6.72c0-1.95.8-3.77,2.21-5.05,1.33-1.27,3.06-1.97,4.88-1.97h24.29c.62,0,1.05-.03,1.33-.07.4-1,1.04-1.83,1.65-2.53,1.35-1.55,3.13-2.38,5.13-2.38h9.17c1.97,0,3.77.8,5.11,2.27.93.97,1.98,2.6,1.98,5.04v.84c0,5.07-2.06,9.47-5.97,12.71-2.7,2.19-5.93,3.65-9.64,4.38v2.85h15.94c.89,0,3.61,0,5.56,1.95.1.1.19.19.27.3,1.32,1.58,1.58,3.63,1.67,5.24,0,.08,0,.16,0,.24v4.9c0,.8,0,3.25-1.64,5.17-1.95,2.27-4.9,2.27-5.87,2.27h-15.94v15.73c0,1.27-.35,3.12-2.02,4.79-.17.17-.36.33-.56.48-1.23.88-2.7,1.33-4.37,1.33ZM32.52,61.54h5.49v-17.83c0-2.49,2.01-4.5,4.5-4.5h18.95v-2.06h-18.95c-2.49,0-4.5-2.01-4.5-4.5v-11.34c0-2.4,1.89-4.38,4.29-4.5,3.66-.17,6.48-1.1,8.65-2.85,1.59-1.32,2.45-2.89,2.63-4.88h-5.93c-.44.91-1.07,1.7-1.73,2.43-2.05,2.28-5.37,2.54-7.69,2.54H15.86v2.76h12.16c2.49,0,4.5,2.01,4.5,4.5v11.34c0,2.49-2.01,4.5-4.5,4.5H9v2.06h19.02c2.49,0,4.5,2.01,4.5,4.5v17.83ZM9.01,41.09h0,0ZM48,8.37s0,0,0,0c0,0,0,0,0,0Z"/><path class="cls-2" d="M110.04,70.54h-8.26c-1.78,0-3.36-.53-4.56-1.54-.25-.22-.51-.47-.77-.76-2.12,1.5-4.96,2.23-8.67,2.23h-10.22c-2.64,0-4.29-1.1-5.21-2.02-1.3-1.3-2.02-3.07-2.02-5v-3.08c0-1.37.38-2.67,1.09-3.77-.9-1.67-1.02-3.56-1.02-4.91,0-2.53.53-4.41,1.61-5.75,1.07-1.36,2.64-2.16,4.69-2.39,0-.06,0-.13,0-.19v-9.7c-1.96-.2-3.5-.94-4.59-2.21-1.45-1.69-1.64-3.85-1.64-5.73,0-2.16.15-4.6,1.88-6.33.38-.38.78-.68,1.2-.92-.82-.4-1.5-.95-2.04-1.66-1.06-1.31-1.59-3-1.59-5.03v-.84c0-1.6.19-3.9,1.81-5.63,1.25-1.39,3.12-2.09,5.56-2.09h6.98c.21-.32.44-.62.69-.91.07-.08.14-.15.21-.23,1.39-1.38,3.19-2.08,5.35-2.08h7.56c2.5,0,4.15,1.06,5.11,1.99.41.38.77.79,1.08,1.23h2.99c.25-.36.53-.71.84-1.03.94-1.02,2.62-2.19,5.38-2.19h7.56c1.93,0,3.69.66,5.09,1.91.07.06.13.12.19.18.36.36.67.74.94,1.13h6.73c2.53,0,4.45.7,5.7,2.09,1.62,1.73,1.81,4.04,1.81,5.63v.84c0,2.03-.54,3.72-1.6,5.03-.54.7-1.23,1.25-2.05,1.65.42.24.83.55,1.21.92,1.73,1.73,1.88,4.18,1.88,6.33,0,1.88-.2,4.04-1.64,5.73-1.38,1.61-3.26,2.08-4.59,2.22v.67c0,.17,0,.33-.03.5,0,.06-.01.11-.02.17.86.32,1.58.79,2.17,1.4,1.7,1.65,1.94,4.08,1.94,6.26,0,.68-.03,1.5-.19,2.35.19.15.37.31.55.49.15.15.29.31.42.48,1.04,1.39,1.53,3.18,1.53,5.64,0,2.06-.32,3.65-1,4.9.74,1.12,1.14,2.45,1.14,3.85v3.08c0,1.93-.72,3.7-2.02,5-.07.07-.14.14-.21.2-1.38,1.2-3.06,1.82-5,1.82h-10.22c-3.66,0-6.49-.71-8.6-2.18-.13.15-.26.3-.4.44-.82.82-2.31,1.81-4.72,1.81ZM103.89,61.54h3.81v-6.07c0-1.53.77-2.89,1.94-3.7-1.25-.8-2.08-2.2-2.08-3.79v-1.82c0-1.02.34-1.96.91-2.71h-5.49c.57.75.91,1.69.91,2.71v1.82c0,1.56-.8,2.94-2,3.75,1.21.81,2,2.18,2,3.75v6.07ZM120.29,60.89c.19.12,1.04.57,3.47.57h2.05c-.15-.08-.3-.16-.45-.25-1.33-.79-2.88-2.43-2.88-5.75,0-1.15.43-2.2,1.14-2.99h-4.96c.71.79,1.14,1.84,1.14,2.99v2.8c0,1.49.25,2.32.5,2.63ZM85.72,61.47h2.05c2.43,0,3.28-.45,3.47-.57.25-.31.5-1.14.5-2.63v-2.8c0-1.15.43-2.2,1.14-2.99h-4.96c.71.79,1.14,1.84,1.14,2.99,0,3.32-1.54,4.95-2.88,5.75-.15.09-.3.17-.45.25ZM85.69,41.65h4.86c-.57-.75-.91-1.69-.91-2.71v-9.73c0-1.48.71-2.78,1.81-3.6-1.1-.82-1.81-2.13-1.81-3.6v-.39c-.42.13-.86.2-1.31.2h-2.64v.19c0,1.48-.71,2.78-1.81,3.6,1.1.82,1.81,2.13,1.81,3.6v12.44ZM121.43,32.62h4.27v-3.41c0-1.48.71-2.78,1.81-3.6-1.1-.82-1.81-2.13-1.81-3.6v-.19h-2.5c-.5,0-.99-.08-1.45-.24v.43c0,1.48-.71,2.78-1.81,3.6,1.1.82,1.81,2.13,1.81,3.6v1.75c0,.59-.11,1.15-.32,1.66ZM103.75,32.62h4.27c-.2-.51-.32-1.07-.32-1.66v-1.75c0-1.48.71-2.78,1.81-3.6-1.1-.82-1.81-2.13-1.81-3.6v-.19h-3.95v.19c0,1.48-.71,2.78-1.81,3.6,1.1.82,1.81,2.13,1.81,3.6v3.41ZM114.84,13.72h3.24c.5,0,.99.08,1.45.24.19-1.1.78-2.07,1.61-2.74-.7-.57-1.23-1.34-1.49-2.22h-4.88c-.26.88-.79,1.65-1.49,2.22.77.62,1.33,1.5,1.56,2.5ZM90.32,11.22c.83.67,1.41,1.63,1.6,2.72.44-.14.9-.22,1.38-.22h3.31c.23-1,.79-1.88,1.56-2.5-.7-.57-1.23-1.34-1.49-2.22h-4.88c-.26.88-.79,1.65-1.49,2.22Z"/><path class="cls-2" d="M206.99,70.47h-10.22s-.07,0-.1,0c-3.51-.08-6.37-.92-8.52-2.51-.14.17-.29.34-.44.5-.09.1-.19.19-.3.27-1.24,1.04-2.84,1.61-4.49,1.61h-7.7c-1.62,0-3.22-.54-4.43-1.5-.37-.28-.71-.6-1-.94-2.17,1.63-5.05,2.5-8.61,2.58-.03,0-.07,0-.1,0h-10.22c-2.01,0-3.87-.74-5.21-2.09-1.32-1.32-2.02-3.03-2.02-4.93v-3.85c0-1.91.7-3.62,2.02-4.94,1.02-1.02,2.34-1.7,3.8-1.96-1.43-.33-2.71-1.06-3.69-2.14-1.35-1.4-2.06-3.14-2.06-5.04V11.78c0-1.84.69-3.49,2.06-4.9.97-1.06,2.68-2.26,5.45-2.26h6.37c.37,0,.73.02,1.08.07.25-.91.67-1.72,1.27-2.44.09-.1.18-.21.28-.3,1.2-1.2,2.81-1.81,4.79-1.81h39.41c1.98,0,3.6.61,4.8,1.81.09.09.18.19.27.29,1.07,1.28,1.61,2.81,1.61,4.56v28.93c.56.27,1.12.64,1.62,1.14.1.1.19.19.27.3,1.08,1.29,1.61,3.08,1.61,5.47v2.8c0,1.88-.47,3.49-1.4,4.79-.08.11-.16.21-.24.31-.75.87-2.04,1.88-4.17,2.22,1.31.3,2.5.95,3.44,1.89,1.32,1.32,2.02,3.03,2.02,4.93v3.85c0,1.9-.7,3.61-2.01,4.93-1.35,1.35-3.2,2.09-5.22,2.09ZM196.82,61.47h3.48c-1.47-.25-2.81-.93-3.85-1.98-1.32-1.32-2.06-3.14-2.08-5.12h-1.57v3.9c0,1.15.2,2,.55,2.33.14.13.97.8,3.47.87ZM157.55,61.47h3.46c1.94-.05,3.06-.48,3.47-.87.35-.33.55-1.18.55-2.33v-3.9h-1.57c-.02,1.98-.76,3.8-2.09,5.13-1.06,1.06-2.36,1.73-3.82,1.98ZM177.32,61.33h3.25v-12.93c0-2.15,1.5-3.94,3.51-4.39h-10.28c2.01.45,3.51,2.25,3.51,4.39v12.93ZM152.68,43.89h6.84c-2.01-.45-3.51-2.25-3.51-4.39V13.62h-3.32v30.27ZM198.04,33.46h4.03V9.14h-3.87c.35.64.55,1.37.55,2.15v2.17c0,1.3-.55,2.47-1.43,3.29.88.82,1.43,1.99,1.43,3.29v2.17c0,1.28-.54,2.44-1.39,3.26.86.82,1.39,1.98,1.39,3.26v2.31c0,.9-.26,1.73-.71,2.43ZM167.38,33.46h3.96c-.45-.7-.71-1.53-.71-2.43v-2.31c0-1.28.54-2.44,1.39-3.26-.86-.82-1.39-1.98-1.39-3.26v-2.17c0-1.3.55-2.47,1.43-3.29-.88-.82-1.43-1.99-1.43-3.29v-2.17c0-.78.2-1.51.55-2.15h-3.8v24.32ZM204.44,9.14h.01-.01Z"/><path class="cls-3" d="M40.06,69.04h-9.8c-1.57,0-2.83-.46-3.73-1.37-1-1-1.51-2.25-1.51-3.73v-17.23H7.37c-.76,0-3.09,0-4.59-1.75-1.15-1.34-1.28-3.04-1.28-4.19v-4.9c0-1.7.17-3.45,1.44-4.71,1.01-1.02,2.46-1.51,4.43-1.51h17.65v-5.34h-11.07c-.1,0-.2,0-.3-.02-1.44-.14-2.64-.67-3.56-1.56-1.1-.99-1.73-2.42-1.73-3.95v-6.72c0-1.53.63-2.96,1.73-3.95,1.05-1.01,2.42-1.57,3.86-1.57h24.29c1.39,0,2.04-.16,2.27-.23.18-.21.28-.34.34-.41.24-.8.7-1.54,1.51-2.46,1.06-1.22,2.45-1.86,4.01-1.86h9.17c1.54,0,2.96.63,4.01,1.79,1.05,1.08,1.58,2.43,1.58,4.01v.84c0,4.68-1.83,8.57-5.42,11.55-2.79,2.25-6.2,3.68-10.19,4.27v5.62h17.44c2.01,0,3.49.49,4.5,1.51.06.06.12.13.18.2.81.97,1.22,2.31,1.32,4.36,0,.05,0,.11,0,.16v4.9c0,1.16-.13,2.85-1.28,4.19-1.5,1.75-3.93,1.75-4.73,1.75h-17.44v17.23c0,1.43-.53,2.68-1.58,3.73-.12.12-.24.22-.38.32-.99.71-2.13,1.05-3.5,1.05ZM31.02,63.04h8.49v-19.33c0-1.66,1.34-3,3-3h20.45v-4.76c0-.11-.01-.21-.02-.3h-20.43c-1.66,0-3-1.34-3-3v-11.34c0-1.6,1.26-2.92,2.86-3,3.93-.18,7.13-1.25,9.52-3.19,2.16-1.79,3.23-4.06,3.23-6.91v-.64h-8.41c-.07.08-.11.14-.15.19-.26.93-.89,1.79-1.75,2.74-1.25,1.39-3.34,2.04-6.57,2.04H14.36v5.76h13.66c1.66,0,3,1.34,3,3v11.34c0,1.66-1.34,3-3,3H7.5c0,.07,0,.14,0,.22v4.84h20.52c1.66,0,3,1.34,3,3v19.33ZM40.79,6.11c-.02.06-.03.13-.05.21.01-.07.03-.14.05-.21Z"/><path class="cls-3" d="M110.04,69.04h-8.26c-1.43,0-2.67-.41-3.6-1.19-.64-.55-1.1-1.18-1.4-1.89-.14.15-.28.3-.43.44-1.95,1.75-4.74,2.57-8.57,2.57h-10.22c-2.13,0-3.43-.86-4.15-1.58-1.03-1.03-1.58-2.39-1.58-3.94v-3.08c0-1.4.5-2.71,1.43-3.71h0c-.04-.05-.08-.11-.12-.16-.84-1.12-1.23-2.65-1.23-4.81s.42-3.75,1.29-4.81c1.48-1.9,3.97-1.9,4.79-1.9h.42c-.15-.62-.18-1.14-.2-1.43,0-.06,0-.13,0-.19v-11.14h-.36c-.76,0-3.09,0-4.59-1.75-1.13-1.32-1.28-3.06-1.28-4.75,0-2.37.24-4.07,1.44-5.27,1.27-1.27,3.04-1.44,4.43-1.44h.48c.1-.45.24-.87.44-1.28h-1.48c-2.11,0-3.66-.62-4.6-1.84-.85-1.04-1.27-2.41-1.27-4.1v-.84c0-1.34.15-3.26,1.41-4.61.96-1.08,2.42-1.61,4.46-1.61h7.85c.25-.5.57-.98.96-1.42.04-.05.09-.1.14-.15,1.09-1.09,2.54-1.65,4.29-1.65h7.56c2.01,0,3.32.85,4.09,1.58.54.49.96,1.04,1.27,1.64h4.67c.28-.54.64-1.04,1.09-1.5,1.04-1.14,2.48-1.72,4.29-1.72h7.56c1.58,0,2.95.51,4.09,1.53.04.04.09.08.13.12.48.48.86,1.01,1.15,1.57h7.58c2.12,0,3.63.53,4.59,1.6,1.27,1.35,1.42,3.27,1.42,4.62v.84c0,1.69-.43,3.06-1.28,4.1-1.42,1.84-3.91,1.84-4.73,1.84h-1.34c.2.41.34.83.44,1.28h.34c1.46,0,3.3.16,4.57,1.44,1.2,1.2,1.44,2.9,1.44,5.27,0,1.69-.16,3.44-1.28,4.75-1.5,1.75-3.93,1.75-4.73,1.75h-.22v2.11c0,.11,0,.22-.02.33-.05.48-.16.94-.33,1.4,1.26.2,2.22.67,2.92,1.4,1.31,1.28,1.49,3.33,1.49,5.19,0,.86-.06,1.97-.4,3.02.42.22.83.5,1.2.88.1.1.19.21.28.32.84,1.12,1.23,2.62,1.23,4.74,0,2.31-.43,3.89-1.35,4.96,0,0,0,0,0,0,.96,1.01,1.5,2.35,1.5,3.78v3.08c0,1.55-.55,2.91-1.58,3.94-.05.05-.09.09-.14.13-1.11.97-2.42,1.44-4.01,1.44h-10.22c-3.84,0-6.62-.82-8.51-2.51-.15-.14-.29-.29-.43-.44-.25.61-.62,1.16-1.12,1.65-.62.62-1.77,1.37-3.66,1.37ZM102.39,63.04h6.81v-7.57c0-1.66,1.34-3,3-3h3.08c1.66,0,3,1.34,3,3v2.8c0,1.86.34,3.13,1.02,3.77.35.31,1.48.93,4.45.93h9.95v-2.12s-4,0-4,0c-1.42,0-2.55-.29-3.58-.92-1-.59-2.15-1.84-2.15-4.46,0-1.66,1.34-3,3-3h6.55c.02-.21.04-.49.04-.85,0-.26,0-.47-.02-.64h-21.48c-1.66,0-3-1.34-3-3v-1.82c0-1.66,1.34-3,3-3h19.18c0-.14.01-.31.01-.5,0-.28,0-.52-.02-.71h-37.1c-1.66,0-3-1.34-3-3v-9.73c0-1.66,1.34-3,3-3h5.11c1.66,0,3,1.34,3,3v4.91h24.65c.1,0,.19,0,.25,0,.02-.03.03-.05.04-.07v-4.83c0-1.66,1.34-3,3-3h3.22c0-.14,0-.31,0-.5,0-.28,0-.51-.01-.71h-3.22c-1.66,0-3-1.34-3-3v-1.69h-4c-.9,0-1.73-.4-2.29-1.06-.12.34-.31.66-.56.95-.04.05-.08.09-.1.12v1.68c0,1.66-1.34,3-3,3h-5.04c-1.66,0-3-1.34-3-3v-1.69h-6.95v1.69c0,1.66-1.34,3-3,3h-5.11c-1.66,0-3-1.34-3-3v-1.69s-.05-.07-.1-.12c-.22-.25-.4-.54-.52-.84-.56.6-1.35.95-2.19.95h-4.14v1.69c0,1.66-1.34,3-3,3h-3.22c0,.2-.01.43-.01.71,0,.19,0,.36,0,.5h3.22c1.66,0,3,1.34,3,3v13.94h15.2c1.66,0,3,1.34,3,3v1.82c0,1.66-1.34,3-3,3h-21.48c-.02.19-.03.42-.03.71,0,.33.01.58.03.78.02,0,.03,0,.05,0h6.58c1.66,0,3,1.34,3,3,0,2.62-1.16,3.87-2.15,4.46-1.02.63-2.16.92-3.58.92h-4v2.12h9.95c2.96,0,4.1-.62,4.51-.99.62-.59.96-1.85.96-3.71v-2.8c0-1.66,1.34-3,3-3h3.15c1.66,0,3,1.34,3,3v7.57ZM82.36,54.75s-.06.04-.09.05c0,0,0,0,0,0,.03-.02.05-.04.09-.05ZM113.47,15.22h4.62c.9,0,1.73.4,2.29,1.06.12-.34.31-.66.56-.95,0-.01.02-.02.03-.03v-.58c0-1.66,1.34-3,3-3h10.02v-.78c0-.08,0-.15,0-.22h-10.02c-1.66,0-3-1.34-3-3v-.22h-7.51v.22c0,1.66-1.34,3-3,3h-9.45c-1.66,0-3-1.34-3-3v-.22h-7.51v.22c0,1.66-1.34,3-3,3h-10.09c0,.07,0,.14,0,.22v.78h10.09c1.66,0,3,1.34,3,3v.49s.05.07.1.12c.22.25.39.54.52.84.56-.6,1.35-.95,2.19-.95h4.7v-.5c0-1.66,1.34-3,3-3h9.45c1.66,0,3,1.34,3,3v.49s0,0,.01.01ZM133.92,12.27s0,0,0,0c0,0,0,0,0,0ZM121.14,7.51h0s0,0,0,0ZM113.46,7.39h0s0,0,.01,0h-.01ZM113.62,7.25s0,0,0,0c0,0,0,0,0,0ZM117.25,33.96h-5.04c-1.66,0-3-1.34-3-3v-1.75c0-1.66,1.34-3,3-3h5.04c1.66,0,3,1.34,3,3v1.75c0,1.66-1.34,3-3,3Z"/><path class="cls-3" d="M206.99,68.97h-10.22c-3.76-.09-6.62-1.07-8.57-2.92-.15-.14-.3-.29-.44-.45-.24.69-.62,1.29-1.12,1.79-.06.06-.13.12-.2.18-.97.81-2.23,1.26-3.53,1.26h-7.7c-1.29,0-2.57-.43-3.51-1.19-.72-.54-1.25-1.26-1.55-2.11-.16.18-.33.35-.5.52-1.96,1.85-4.82,2.84-8.5,2.92h-10.29c-1.61,0-3.09-.58-4.15-1.65-1.05-1.05-1.58-2.35-1.58-3.87v-3.85c0-1.52.53-2.83,1.58-3.87,1.06-1.06,2.54-1.65,4.15-1.65h5.12v-1.62c0-.36.04-.71.11-1.06h-4.87c-1.75,0-3.26-.64-4.36-1.86-1.08-1.11-1.65-2.5-1.65-4.01V11.78c0-1.45.56-2.75,1.65-3.88.76-.83,2.12-1.78,4.36-1.78h6.37c.83,0,1.61.15,2.32.45.02-.92.21-2.19,1.18-3.36.06-.07.12-.14.18-.2,1.37-1.37,3.15-1.37,3.73-1.37h39.41c.58,0,2.37,0,3.73,1.37.06.06.12.13.18.2.85,1.01,1.26,2.19,1.26,3.6v29.05c0,.3-.02.6-.06.89.76.2,1.5.56,2.12,1.19.06.06.12.13.18.2.85,1.01,1.26,2.49,1.26,4.51v2.8c0,1.56-.38,2.88-1.12,3.92-.05.07-.11.14-.16.21-.71.83-2.08,1.82-4.59,1.82h-5.43c.07.35.1.7.1,1.06v1.62h5.12c1.61,0,3.09.59,4.15,1.65,1.05,1.05,1.58,2.35,1.58,3.87v3.85c0,1.52-.53,2.82-1.58,3.87-1.06,1.06-2.54,1.65-4.15,1.65ZM191.3,52.86v5.4c0,1.63.34,2.78,1.02,3.42.82.78,2.42,1.23,4.52,1.28h9.88v-2.89h-5.12c-1.57,0-3.02-.59-4.08-1.66-1.06-1.06-1.65-2.53-1.65-4.15v-1.41h-4.57ZM151.11,62.96h9.95c2.02-.04,3.63-.5,4.45-1.27.68-.64,1.02-1.79,1.02-3.42v-5.4h-4.57v1.41c0,1.62-.59,3.09-1.65,4.15-1.08,1.08-2.49,1.65-4.08,1.65h-5.12v2.88ZM175.82,62.83h6.25v-14.43c0-1.66,1.34-3,3-3h21.99v-2.74c0-.05,0-.1,0-.15h-46.56c-1.66,0-3-1.34-3-3V12.12h-6.31s0,0-.01,0v33.27h21.64c1.66,0,3,1.34,3,3v14.43ZM165.88,34.96h37.68V7.64s-37.68,0-37.68,0v27.32ZM204.58,7.65h0,0ZM194.25,34.03h-19.11c-1.66,0-3-1.34-3-3v-2.31c0-1.66,1.34-3,3-3h19.11c1.66,0,3,1.34,3,3v2.31c0,1.66-1.34,3-3,3ZM194.25,25.21h-19.11c-1.66,0-3-1.34-3-3v-2.17c0-1.66,1.34-3,3-3h19.11c1.66,0,3,1.34,3,3v2.17c0,1.66-1.34,3-3,3ZM194.25,16.46h-19.11c-1.66,0-3-1.34-3-3v-2.17c0-1.66,1.34-3,3-3h19.11c1.66,0,3,1.34,3,3v2.17c0,1.66-1.34,3-3,3Z"/><path class="cls-2" d="M5.06,43c-.42-.49-.56-1.26-.56-2.24v-4.9c0-1.33.14-2.17.56-2.59s1.19-.63,2.31-.63h20.65v-11.34h-14.07c-.7-.07-1.33-.28-1.82-.77-.49-.42-.77-1.05-.77-1.75v-6.72c0-.7.28-1.33.77-1.75.49-.49,1.12-.77,1.82-.77h24.29c2.24,0,3.71-.35,4.34-1.05s1.05-1.26,1.12-1.68c.07-.35.42-.84.91-1.4.49-.56,1.05-.84,1.75-.84h9.17c.7,0,1.33.28,1.82.84.56.56.77,1.19.77,1.96v.84c0,3.78-1.47,6.86-4.34,9.24-2.94,2.38-6.72,3.64-11.27,3.85v11.34h20.44c1.19,0,1.96.21,2.38.63.35.42.56,1.26.63,2.59v4.9c0,.98-.14,1.75-.56,2.24s-1.26.7-2.45.7h-20.44v20.23c0,.7-.28,1.19-.7,1.61-.49.35-1.05.49-1.75.49h-9.8c-.7,0-1.26-.14-1.61-.49-.42-.42-.63-.91-.63-1.61v-20.23H7.37c-1.12,0-1.89-.21-2.31-.7Z"/><path class="cls-2" d="M99.39,47.97v-1.82h-15.19c-.91,0-1.61-.14-2.1-.56-.56-.42-.84-1.12-.91-2.24v-14.14h-3.36c-1.12,0-1.89-.21-2.31-.7-.42-.49-.56-1.4-.56-2.8,0-1.68.14-2.73.56-3.15s1.19-.56,2.31-.56h3.36v-2.03c.07-.7.35-1.26.91-1.82.49-.56,1.19-.84,2.1-.84h4.13c-.49-.56-.77-1.12-.84-1.82v-.77h-10.22c-1.12,0-1.89-.21-2.24-.7-.42-.49-.63-1.26-.63-2.24v-.84c0-1.33.21-2.17.63-2.59.35-.42,1.12-.63,2.24-.63h10.22v-.56c.07-.7.35-1.33.84-1.89.56-.56,1.26-.77,2.17-.77h7.56c.77,0,1.47.21,2.03.77.63.56.91,1.19.91,1.89v.56h9.45v-.56c.07-.7.35-1.33.91-1.89.49-.56,1.19-.77,2.1-.77h7.56c.77,0,1.47.21,2.1.77.56.56.84,1.19.84,1.89v.56h10.01c1.19,0,2.03.21,2.38.63.42.42.63,1.26.63,2.59v.84c0,.98-.21,1.75-.63,2.24-.35.49-1.19.7-2.38.7h-10.01v.77c0,.7-.28,1.26-.77,1.82h3.99c.91,0,1.61.28,2.1.84.56.56.84,1.12.91,1.82v2.03h3.22c1.19,0,2.03.14,2.45.56s.56,1.47.56,3.15c0,1.4-.14,2.31-.56,2.8-.42.49-1.26.7-2.45.7h-3.22v5.11c-.07.63-.35,1.26-.84,1.89-.42.63-1.26.91-2.45.91h-24.64c-.91,0-1.61-.28-2.17-.84-.49-.56-.77-1.19-.84-1.96v-5.11h-5.11v9.73h37.1c1.19,0,2.03.21,2.38.63.42.35.63,1.4.63,3.08,0,1.4-.21,2.31-.63,2.8-.35.49-1.19.7-2.38.7h-19.18v1.82h21.49c1.12,0,1.89.21,2.38.7.42.56.63,1.54.63,2.94,0,1.47-.21,2.52-.63,3.01-.49.56-1.26.84-2.38.84h-6.58c0,.98.21,1.61.7,1.89.56.35,1.19.49,2.03.49h4.27c.84.07,1.47.35,2.03.77.49.49.7,1.12.7,1.75v3.08c0,.7-.21,1.33-.7,1.82-.56.49-1.19.7-2.03.7h-10.22c-3.01,0-5.18-.56-6.51-1.75-1.33-1.26-1.96-3.22-1.96-5.95v-2.8h-3.08v8.47c0,.7-.21,1.19-.63,1.61-.35.35-.91.49-1.54.49h-8.26c-.63,0-1.26-.14-1.68-.49-.49-.42-.7-.91-.7-1.61v-8.47h-3.15v2.8c0,2.73-.63,4.69-1.96,5.95-1.33,1.19-3.5,1.75-6.51,1.75h-10.22c-.84,0-1.54-.21-2.03-.7-.49-.49-.7-1.12-.7-1.82v-3.08c0-.63.21-1.26.7-1.75.49-.42,1.19-.7,2.03-.77h4.27c.84,0,1.47-.14,2.03-.49.49-.28.7-.91.7-1.89h-6.58c-1.19,0-2.03-.28-2.45-.77-.42-.56-.63-1.54-.63-3.01s.21-2.45.63-2.94c.42-.56,1.26-.77,2.45-.77h21.42ZM100.09,17.38c-.56.56-1.26.84-2.03.84h-4.76c.49.56.77,1.12.84,1.75v2.03h5.11v-2.03c.07-.7.35-1.26.84-1.82.56-.56,1.26-.84,2.17-.84h6.93c.91,0,1.61.28,2.17.84.49.56.77,1.12.84,1.82v2.03h5.04v-2.03c.07-.63.35-1.19.84-1.75h-4.62c-.91,0-1.61-.28-2.1-.84-.56-.56-.84-1.19-.91-1.89v-.77h-9.45v.77c0,.7-.28,1.33-.91,1.89ZM112.2,29.21v1.75h5.04v-1.75h-5.04Z"/><path class="cls-2" d="M167.01,49.86c.7.07,1.33.28,1.75.77.49.49.77,1.12.77,1.82v5.81c0,2.45-.63,4.34-1.96,5.6-1.33,1.26-3.5,2.03-6.51,2.1h-10.22c-.84,0-1.54-.28-2.03-.77s-.7-1.05-.7-1.75v-3.85c0-.7.21-1.26.7-1.75.49-.49,1.19-.77,2.03-.77h5.39c.84,0,1.47-.28,1.96-.77.49-.49.77-1.19.77-2.03v-1.82c0-.7.28-1.33.77-1.82.49-.49,1.12-.7,1.82-.77h5.46ZM185.08,48.39v15.26c0,.7-.21,1.26-.56,1.61-.42.35-.98.56-1.61.56h-7.7c-.63,0-1.26-.21-1.68-.56-.49-.35-.7-.91-.7-1.61v-15.26h-21.63c-.98,0-1.68-.35-2.17-.91-.56-.56-.84-1.19-.84-1.96V11.78c0-.7.28-1.26.84-1.82.49-.56,1.19-.84,2.17-.84h6.37c.84,0,1.54.28,2.1.84.56.56.84,1.12.84,1.82v27.72h46.69c1.12,0,1.89.14,2.31.56.35.42.56,1.33.56,2.59v2.8c0,.98-.21,1.68-.56,2.17-.42.49-1.19.77-2.31.77h-22.12ZM206.01,5.13c.35.42.56.91.56,1.68v29.05c0,.7-.21,1.26-.56,1.61s-.84.49-1.61.49h-39.41c-.77,0-1.26-.14-1.61-.49-.35-.35-.49-.91-.49-1.61V6.81c0-.77.14-1.26.49-1.68.35-.35.84-.49,1.61-.49h39.41c.77,0,1.26.14,1.61.49ZM194.25,11.29h-19.11v2.17h19.11v-2.17ZM194.25,20.04h-19.11v2.17h19.11v-2.17ZM194.25,28.72h-19.11v2.31h19.11v-2.31ZM198.1,50.63c.49.49.77,1.12.77,1.82v1.82c0,.84.28,1.54.77,2.03.49.49,1.19.77,1.96.77h5.39c.84,0,1.54.28,2.03.77s.7,1.05.7,1.75v3.85c0,.7-.21,1.26-.7,1.75-.49.49-1.19.77-2.03.77h-10.22c-3.01-.07-5.18-.84-6.51-2.1-1.33-1.26-1.96-3.15-1.96-5.6v-5.81c0-.7.28-1.33.77-1.82.42-.49,1.05-.7,1.75-.77h5.46c.7.07,1.33.28,1.82.77Z"/></g></svg>