<?xml version="1.0" encoding="UTF-8"?><svg id="_レイヤー_2" xmlns="http://www.w3.org/2000/svg" viewBox="0 0 215.95 70.54"><defs><style>.cls-1,.cls-2,.cls-3{stroke-width:0px;}.cls-2{fill:#198caa;}.cls-3{fill:#fff;}</style></defs><g id="_レイヤー_4"><path class="cls-1" d="M5.2,24.1c-.42-.49-.63-1.19-.63-2.17v-3.01c0-1.33.21-2.24.63-2.59.35-.42,1.12-.63,2.24-.63h4.9v-1.96h-2.87c-1.05,0-1.82-.14-2.31-.49-.49-.35-.77-.91-.77-1.75v-3.92c0-1.12.28-1.89.77-2.24.49-.35,1.26-.56,2.31-.56h21.84c1.26,0,2.1.21,2.52.56.42.35.63,1.12.56,2.24v8.12h.21c.98,0,1.68.14,2.17.42.07-.42.28-.77.56-1.12.28-.28.98-.42,2.1-.42h.56l-2.94-7.14c-.42-.77-.35-1.4.21-1.96.49-.56,1.33-.77,2.52-.77h3.15c1.05,0,1.82.14,2.17.56.35.35.84,1.19,1.47,2.31l2.87,7h4.27l2.87-7c.63-1.12,1.12-1.96,1.47-2.31.42-.42,1.12-.56,2.24-.56h3.15c1.19,0,2.03.21,2.52.77.49.56.56,1.19.21,1.96l-2.94,7.14h.42c1.12,0,1.96.21,2.38.63s.63,1.26.63,2.59v3.01c0,.98-.21,1.75-.63,2.24s-1.26.7-2.38.7h-6.37v2.87h6.37c1.12,0,1.96.21,2.38.63s.63,1.26.63,2.59v3.01c0,.98-.21,1.75-.63,2.24-.42.42-1.26.7-2.38.7h-6.37v2.87h7.42c1.19,0,2.03.21,2.38.63.42.35.63,1.26.63,2.59v3.01c0,.98-.21,1.75-.63,2.17-.35.49-1.19.77-2.38.77h-7.42v15.47c0,.77-.28,1.4-.84,1.96-.63.56-1.33.77-2.1.77h-5.32c-.91,0-1.68-.21-2.17-.77-.56-.56-.84-1.19-.84-1.96v-15.47h-7.7c-1.05,0-1.75-.21-2.03-.49-.28-.35-.49-.63-.56-.84v15.26c0,1.47-.28,2.52-.98,3.01-.63.56-1.68.84-3.08.84h-15.26c-1.26,0-2.31-.28-3.01-.77-.63-.42-1.05-1.26-1.12-2.52-1.96,1.96-3.71,3.01-5.18,3.01-.7-.07-1.33-.35-1.82-.77-.56-.49-.77-1.05-.77-1.75v-7.7c0-.7.21-1.26.56-1.68.42-.42,1.19-1.26,2.38-2.59,1.26-1.26,2.38-3.08,3.43-5.32.98-2.1,1.47-5.18,1.47-9.17h-2.87c-1.05,0-1.82-.21-2.31-.56s-.77-1.12-.77-2.17v-3.99c0-1.12.28-1.82.77-2.24.49-.42,1.26-.63,2.31-.63h2.87v-1.89h-4.9c-1.12,0-1.89-.28-2.24-.77ZM21.72,13.74v1.96h3.15v-1.96h-3.15ZM33.76,35.79c-.35.35-1.19.56-2.45.56h-9.59v2.31h9.87c1.4,0,2.38.21,2.94.7.49.49.84.98.98,1.54.07-.77.28-1.33.63-1.68.35-.42,1.12-.56,2.17-.56h7.7v-2.87h-6.58c-1.12,0-1.89-.28-2.24-.7-.42-.49-.63-1.26-.63-2.24v-3.01c0-1.33.21-2.17.63-2.59.35-.42,1.12-.63,2.24-.63h6.58v-2.87h-6.58c-.91,0-1.54-.14-1.96-.49-.14.35-.35.7-.63,1.05-.28.35-1.05.56-2.24.56h-.21v8.75c0,1.05-.21,1.82-.63,2.17ZM24.87,24.87h-3.15v1.89h3.15v-1.89ZM26.13,56.94v-9.66h-4.34v9.66h4.34Z"/><path class="cls-1" d="M96.91,51.19c.42.42.91,1.19,1.54,2.38l2.66,5.95c.35,1.12.21,1.89-.28,2.17-.56.35-1.33.49-2.45.49h-5.25c-1.12,0-1.82-.21-2.1-.63-.28-.35-.7-1.12-1.19-2.24l-1.47-3.29-1.4,3.29c-.49,1.12-.91,1.89-1.19,2.24-.35.42-.98.63-2.1.63h-5.25c-1.12,0-1.89-.14-2.45-.49-.49-.28-.63-1.05-.28-2.17l2.66-5.95c.63-1.19,1.12-1.96,1.47-2.38.35-.35,1.12-.56,2.17-.49h12.74c1.12-.07,1.82.14,2.17.49ZM134.71,23.96c0,.7-.14,1.26-.56,1.61-.35.35-.98.49-1.89.49h-16.24v2.24h16.24c.98,0,1.61.21,1.96.7.35.42.49.91.49,1.54v4.13c0,1.26-.14,2.1-.49,2.52-.35.35-.98.56-1.96.56h-16.24v2.1h16.1c2.24,0,3.85.49,4.83,1.33.91.91,1.4,2.52,1.4,4.83v14.63c0,2.1-.49,3.43-1.54,4.2-.98.7-2.59,1.12-4.69,1.12h-7.63c-1.12,0-1.89-.28-2.38-.77s-.7-1.33-.7-2.52v-.49h-3.15c-1.12,0-1.75-.21-2.1-.63-.28-.35-.7-1.12-1.19-2.24l-2.59-5.95c-.35-.77-.28-1.4.21-1.96.49-.49,1.33-.77,2.52-.7h4.83c1.05-.07,1.82.14,2.17.49.35.42.84,1.19,1.47,2.38l1.05,2.31h.42c1.26,0,1.89-.91,1.89-2.66v-2.73c-.21-.91-.84-1.4-1.89-1.54h-41.58c-.84,0-1.4-.14-1.82-.49-.35-.28-.56-.77-.56-1.47V6.46c0-.7.21-1.19.56-1.54.42-.28.98-.42,1.82-.42h48.79c.91,0,1.54.14,1.89.42.42.35.56.84.56,1.54v5.39c0,.98-.14,1.61-.56,1.89-.35.21-.98.35-1.89.35h-16.24v2.24h16.24c.91,0,1.54.21,1.96.56.35.42.56.98.49,1.75v5.32ZM94.11,16.33h8.68v-2.24h-8.68v2.24ZM94.11,28.3h8.68v-2.24h-8.68v2.24ZM94.11,39.85h8.68v-2.1h-8.68v2.1ZM99.99,51.4c.49-.49,1.4-.77,2.52-.7h4.83c1.05-.07,1.82.14,2.17.49.35.42.84,1.19,1.54,2.38l2.66,5.95c.28,1.12.21,1.89-.35,2.17-.49.35-1.33.49-2.38.49h-5.32c-1.05,0-1.75-.21-2.03-.63-.35-.35-.7-1.12-1.19-2.24l-2.66-5.95c-.35-.77-.28-1.4.21-1.96Z"/><path class="cls-1" d="M168.39,49.86c.7.07,1.33.28,1.75.77.49.49.77,1.12.77,1.82v5.81c0,2.45-.63,4.34-1.96,5.6-1.33,1.26-3.5,2.03-6.51,2.1h-10.22c-.84,0-1.54-.28-2.03-.77s-.7-1.05-.7-1.75v-3.85c0-.7.21-1.26.7-1.75.49-.49,1.19-.77,2.03-.77h5.39c.84,0,1.47-.28,1.96-.77.49-.49.77-1.19.77-2.03v-1.82c0-.7.28-1.33.77-1.82.49-.49,1.12-.7,1.82-.77h5.46ZM186.46,48.39v15.26c0,.7-.21,1.26-.56,1.61-.42.35-.98.56-1.61.56h-7.7c-.63,0-1.26-.21-1.68-.56-.49-.35-.7-.91-.7-1.61v-15.26h-21.63c-.98,0-1.68-.35-2.17-.91-.56-.56-.84-1.19-.84-1.96V11.78c0-.7.28-1.26.84-1.82.49-.56,1.19-.84,2.17-.84h6.37c.84,0,1.54.28,2.1.84.56.56.84,1.12.84,1.82v27.72h46.69c1.12,0,1.89.14,2.31.56.35.42.56,1.33.56,2.59v2.8c0,.98-.21,1.68-.56,2.17-.42.49-1.19.77-2.31.77h-22.12ZM207.39,5.13c.35.42.56.91.56,1.68v29.05c0,.7-.21,1.26-.56,1.61s-.84.49-1.61.49h-39.41c-.77,0-1.26-.14-1.61-.49-.35-.35-.49-.91-.49-1.61V6.81c0-.77.14-1.26.49-1.68.35-.35.84-.49,1.61-.49h39.41c.77,0,1.26.14,1.61.49ZM195.63,11.29h-19.11v2.17h19.11v-2.17ZM195.63,20.04h-19.11v2.17h19.11v-2.17ZM195.63,28.72h-19.11v2.31h19.11v-2.31ZM199.48,50.63c.49.49.77,1.12.77,1.82v1.82c0,.84.28,1.54.77,2.03.49.49,1.19.77,1.96.77h5.39c.84,0,1.54.28,2.03.77s.7,1.05.7,1.75v3.85c0,.7-.21,1.26-.7,1.75-.49.49-1.19.77-2.03.77h-10.22c-3.01-.07-5.18-.84-6.51-2.1-1.33-1.26-1.96-3.15-1.96-5.6v-5.81c0-.7.28-1.33.77-1.82.42-.49,1.05-.7,1.75-.77h5.46c.7.07,1.33.28,1.82.77Z"/><path class="cls-2" d="M54.34,70.54h-5.32c-2.81,0-4.5-1.16-5.45-2.18-1.35-1.4-2.06-3.14-2.06-5.05v-10.97h-1.29v9.43c0,2.98-.9,5.18-2.68,6.54-1.46,1.2-3.43,1.81-5.88,1.81h-15.26c-2,0-3.8-.46-5.22-1.34-1.53.79-3.04,1.18-4.54,1.04-1.6-.16-3.09-.79-4.3-1.83-1.54-1.35-2.34-3.13-2.34-5.17v-7.7c0-1.72.55-3.3,1.6-4.56.09-.11.18-.21.28-.31.5-.5,1.78-1.93,2.2-2.4.06-.06.11-.12.17-.18.8-.8,1.65-2.16,2.54-4.05.23-.49.54-1.39.77-2.93-1.15-.21-2.16-.62-3.02-1.23-.99-.71-2.66-2.41-2.66-5.83v-3.99c0-.83.1-1.56.26-2.2-.18-.18-.34-.36-.47-.53-1.07-1.31-1.61-2.98-1.61-4.97v-3.01c0-.98,0-3.86,1.92-5.75.02-.02.04-.04.06-.06-.11-.51-.17-1.05-.17-1.6v-3.92c0-3.49,1.67-5.2,2.66-5.9,1.29-.93,2.95-1.4,4.92-1.4h21.84c1.72,0,3.13.28,4.27.86,1.7-.93,3.48-.93,4.2-.93h3.15c1.02,0,3.67,0,5.49,2.02.7.75,1.29,1.75,2.07,3.14.09.16.17.33.24.5l.84,2.05.84-2.05c.07-.17.15-.34.24-.5.83-1.48,1.44-2.51,2.21-3.28,1.67-1.67,3.78-1.88,5.43-1.88h3.15c.96,0,3.89,0,5.91,2.3,1.63,1.87,1.99,4.36.96,6.7l-1.14,2.77s.03.03.05.05c1.75,1.75,1.95,4.13,1.95,5.77v3.01c0,1.68-.37,3.14-1.1,4.33.97,1.57,1.1,3.38,1.1,4.7v3.01c0,1.31-.22,2.48-.67,3.49,1.72,1.89,1.72,4.59,1.72,5.54v3.01c0,2.55-.87,4.15-1.7,5.08-.93,1.14-2.67,2.36-5.81,2.36h-2.92v10.97c0,1.96-.75,3.73-2.16,5.14-.06.06-.13.12-.19.18-1.4,1.25-3.16,1.91-5.09,1.91ZM50.51,61.54h2.27s0-13.7,0-13.7c0-2.49,2.01-4.5,4.5-4.5h5.93v-.17h-5.93c-2.49,0-4.5-2.01-4.5-4.5v-2.87c0-2.49,2.01-4.5,4.5-4.5h4.88v-.17h-4.88c-2.49,0-4.5-2.01-4.5-4.5v-2.87c0-2.49,2.01-4.5,4.5-4.5h4.88v-.3c-1.08-.26-2.04-.92-2.67-1.87-.59-.88-.84-1.92-.74-2.94l-.88,2.14c-.69,1.69-2.34,2.79-4.16,2.79h-4.27c-1.83,0-3.47-1.1-4.16-2.79l-.79-1.93c.05.96-.21,1.92-.75,2.73-.8,1.2-2.13,1.94-3.57,1.99-.05.06-.11.12-.16.17h6.01c2.49,0,4.5,2.01,4.5,4.5v2.87c0,2.49-2.01,4.5-4.5,4.5h-4.95v.17h4.95c2.49,0,4.5,2.01,4.5,4.5v2.87c0,2.49-2.01,4.5-4.5,4.5h-6.62c-.03.06-.07.12-.11.17h6.73c2.49,0,4.5,2.01,4.5,4.5v13.7ZM27.8,61.12h3.42v-14.61c0-.99.32-1.92.88-2.67-.18-.21-.34-.43-.48-.67h-3.66c1.57.7,2.67,2.28,2.67,4.11v9.66c0,1.9-1.17,3.52-2.83,4.18ZM16.61,61.12h3.52c-1.66-.66-2.83-2.29-2.83-4.18v-9.66c0-2.02,1.33-3.72,3.15-4.29-1.86-.55-3.22-2.27-3.22-4.32v-2.31c0-2.49,2.01-4.5,4.5-4.5h8.17v-6.98c0-2.36,1.81-4.29,4.12-4.48.05-.07.11-.13.17-.19-2.39-.11-4.29-2.08-4.29-4.5v-6.42h-4.42c2.2.29,3.9,2.18,3.9,4.46v1.96c0,2.49-2.01,4.5-4.5,4.5h-3.15c-2.49,0-4.5-2.01-4.5-4.5v-1.96c0-2.28,1.7-4.17,3.9-4.46h-8.19c2.2.29,3.9,2.18,3.9,4.46v1.96c0,2.49-2.01,4.5-4.5,4.5h-3.27v.17h3.27c2.49,0,4.5,2.01,4.5,4.5v1.89c0,2.49-2.01,4.5-4.5,4.5h-1.45v.59h1.45c2.49,0,4.5,2.01,4.5,4.5,0,4.72-.62,8.35-1.89,11.08-1.32,2.82-2.71,4.95-4.23,6.5-.73.82-1.29,1.43-1.72,1.89v3.41s.06-.06.09-.09c1.25-1.25,3.13-1.66,4.79-1.02,1.35.52,2.35,1.64,2.73,2.99ZM32.16,61.09s0,0,0,0h0s0,0,0,0ZM39.99,45.07s0,0,0,0c0,0,0,0,0,0ZM31.15,41.99s0,0,0,0c0,0,0,0,0,0ZM33.29,21.59h0ZM41,5.29s0,0,0,0c0,0,0,0,0,0ZM24.87,31.26h-3.15c-2.49,0-4.5-2.01-4.5-4.5v-1.89c0-2.49,2.01-4.5,4.5-4.5h3.15c2.49,0,4.5,2.01,4.5,4.5v1.89c0,2.49-2.01,4.5-4.5,4.5Z"/><path class="cls-2" d="M132.12,70.47h-7.63c-2.87,0-4.61-1.13-5.56-2.09-.53-.53-.92-1.11-1.21-1.7-.72-.03-1.82-.15-2.93-.65-1.05.45-2.29.66-3.81.66h-5.32c-1.43,0-2.55-.27-3.43-.66-1.36.58-2.74.66-3.85.66h-5.25c-1.99,0-3.58-.48-4.75-1.43-1.8,1.43-3.93,1.43-4.7,1.43h-5.25c-1.36,0-3.14-.13-4.79-1.14-1.79-1.08-3.41-3.62-2.24-7.36.05-.17.12-.33.19-.49l2.66-5.95c.04-.09.08-.18.13-.27.76-1.44,1.4-2.44,1.99-3.16.09-.11.18-.21.28-.3,0,0,0,0,0,0-.04-.33-.07-.66-.07-1.01V6.46c0-2.36,1.02-3.87,1.88-4.73.21-.21.44-.39.68-.56,1.19-.79,2.6-1.18,4.32-1.18h48.79c1.98,0,3.52.46,4.7,1.41,1.06.88,2.25,2.42,2.25,5.05v5.39c0,.62,0,2.06-.68,3.47.52,1.05.75,2.23.68,3.49v5.16c0,1.39-.32,2.48-.76,3.31.51.97.76,2.06.76,3.27v4.13c0,.75-.04,1.59-.2,2.44.3.2.59.42.87.65.09.08.17.15.25.24,1.8,1.8,2.72,4.5,2.72,8.01v14.63c0,3.55-1.14,6.19-3.38,7.83-1.86,1.33-4.32,1.99-7.35,1.99ZM125.85,61.47h6.27c.79,0,1.35-.08,1.7-.17.02-.16.03-.37.03-.65v-14.63c0-.74-.07-1.22-.13-1.5-.29-.07-.8-.16-1.6-.16h-16.1c-2.49,0-4.5-2.01-4.5-4.5v-2.1c0-2.49,2.01-4.5,4.5-4.5h14.19v-.45h-14.19c-2.49,0-4.5-2.02-4.5-4.5v-2.24c0-2.49,2.01-4.5,4.5-4.5h14.19v-.73h-14.19c-2.49,0-4.5-2.02-4.5-4.5v-2.24c0-2.49,2.01-4.5,4.5-4.5h14.19v-.59h-44.62v35.45h39.46c.2,0,.4.01.6.04,2.92.39,5.05,2.26,5.68,4.99.08.33.12.67.12,1.01v2.73c0,4.7-2.9,6.93-5.91,7.14.15.34.26.71.32,1.1ZM107.37,59.05s0,0,0,0c0,0,0,0,0,0ZM94.77,59.05s0,0,0,0c0,0,0,0,0,0ZM119.17,57.69h1.34l-.96-2.12c-.07-.13-.14-.25-.2-.36h-1.26l1.01,2.32c.03.06.05.11.07.17ZM106.64,57.69h1.32l-.91-2.04c-.1-.16-.18-.31-.26-.44h-1.25l1.02,2.27c.03.06.06.13.09.21ZM94.04,57.69h1.32l-.95-2.13c-.07-.13-.13-.24-.19-.35h-1.28l1.02,2.28c.03.07.06.14.09.21ZM81.45,57.69h1.32c.02-.05.05-.11.08-.17l.98-2.31h-1.24c-.06.11-.12.22-.19.35l-.95,2.13ZM132.5,9.01h0,0ZM102.79,44.35h-8.68c-2.49,0-4.5-2.01-4.5-4.5v-2.1c0-2.49,2.01-4.5,4.5-4.5h8.68c2.49,0,4.5,2.01,4.5,4.5v2.1c0,2.49-2.01,4.5-4.5,4.5ZM102.79,32.8h-8.68c-2.49,0-4.5-2.01-4.5-4.5v-2.24c0-2.49,2.01-4.5,4.5-4.5h8.68c2.49,0,4.5,2.01,4.5,4.5v2.24c0,2.49-2.01,4.5-4.5,4.5ZM102.79,20.83h-8.68c-2.49,0-4.5-2.01-4.5-4.5v-2.24c0-2.49,2.01-4.5,4.5-4.5h8.68c2.49,0,4.5,2.01,4.5,4.5v2.24c0,2.49-2.01,4.5-4.5,4.5Z"/><path class="cls-2" d="M208.37,70.47h-10.22s-.07,0-.1,0c-3.51-.08-6.37-.92-8.52-2.51-.14.17-.29.34-.44.5-.09.1-.19.19-.3.27-1.24,1.04-2.84,1.61-4.49,1.61h-7.7c-1.62,0-3.22-.54-4.43-1.5-.37-.28-.71-.6-1-.94-2.17,1.63-5.05,2.5-8.61,2.58-.03,0-.07,0-.1,0h-10.22c-2.01,0-3.87-.74-5.21-2.09-1.32-1.32-2.02-3.03-2.02-4.93v-3.85c0-1.91.7-3.62,2.02-4.94,1.02-1.02,2.34-1.7,3.8-1.96-1.43-.33-2.71-1.06-3.69-2.14-1.35-1.4-2.06-3.13-2.06-5.04V11.78c0-1.84.69-3.49,2.06-4.91.97-1.06,2.68-2.25,5.45-2.25h6.37c.37,0,.73.02,1.08.07.25-.91.67-1.72,1.27-2.44.09-.11.18-.21.28-.3,1.2-1.2,2.81-1.81,4.79-1.81h39.41c1.98,0,3.6.61,4.8,1.81.09.09.18.19.27.29,1.07,1.28,1.61,2.81,1.61,4.56v28.93c.56.27,1.12.64,1.62,1.14.1.09.19.19.27.3,1.08,1.29,1.61,3.08,1.61,5.47v2.8c0,1.88-.47,3.49-1.4,4.79-.08.11-.16.21-.24.31-.75.87-2.04,1.88-4.17,2.22,1.31.3,2.5.95,3.44,1.89,1.32,1.32,2.02,3.03,2.02,4.93v3.85c0,1.9-.7,3.61-2.01,4.93-1.35,1.35-3.2,2.09-5.22,2.09ZM198.2,61.47h3.48c-1.47-.25-2.81-.93-3.85-1.98-1.32-1.32-2.06-3.14-2.08-5.12h-1.57v3.9c0,1.15.2,2,.55,2.33.14.13.97.8,3.47.87ZM158.93,61.47h3.46c1.94-.05,3.06-.48,3.47-.87.35-.33.55-1.18.55-2.33v-3.9h-1.57c-.02,1.98-.76,3.8-2.09,5.13-1.06,1.05-2.36,1.73-3.82,1.98ZM178.7,61.33h3.25v-12.93c0-2.15,1.5-3.94,3.51-4.39h-10.28c2.01.45,3.51,2.25,3.51,4.39v12.93ZM154.06,43.89h6.84c-2.01-.45-3.51-2.25-3.51-4.39V13.62h-3.32v30.27ZM199.41,33.46h4.03V9.14h-3.87c.35.64.55,1.37.55,2.15v2.17c0,1.3-.55,2.47-1.43,3.29.88.82,1.43,1.99,1.43,3.29v2.17c0,1.28-.54,2.44-1.39,3.25.86.82,1.39,1.98,1.39,3.26v2.31c0,.9-.26,1.73-.71,2.43ZM168.76,33.46h3.96c-.45-.7-.71-1.53-.71-2.43v-2.31c0-1.28.54-2.44,1.39-3.26-.86-.82-1.39-1.97-1.39-3.25v-2.17c0-1.3.55-2.47,1.43-3.29-.88-.82-1.43-1.99-1.43-3.29v-2.17c0-.78.2-1.51.55-2.15h-3.8v24.32ZM205.82,9.14h.01-.01Z"/><path class="cls-3" d="M54.34,69.04h-5.32c-2.28,0-3.62-.91-4.36-1.71-1.08-1.11-1.65-2.5-1.65-4.02v-12.47h-4.29v10.93c0,.94,0,3.76-2.11,5.36-1.19.99-2.85,1.49-4.95,1.49h-15.26c-1.87,0-3.5-.45-4.73-1.31-.12-.08-.26-.18-.4-.3-1.44.9-2.83,1.34-4.18,1.34-.1,0-.2,0-.3-.01-1.3-.13-2.5-.64-3.47-1.48-1.21-1.06-1.82-2.41-1.82-4.03v-7.7c0-1.37.43-2.62,1.25-3.6.06-.07.12-.14.19-.2.36-.36,1.1-1.16,2.26-2.47.04-.04.08-.08.12-.12.92-.92,1.88-2.43,2.83-4.47.4-.86.86-2.36,1.07-4.9-1.54-.04-2.82-.41-3.81-1.11-1.31-.93-2.03-2.57-2.03-4.61v-3.99c0-1.02.17-1.92.49-2.7-.45-.3-.79-.65-1.04-.97-.84-1.04-1.27-2.39-1.27-4.03v-3.01c0-1.42.16-3.41,1.5-4.7.21-.23.45-.43.72-.61-.26-.64-.39-1.35-.39-2.11v-3.92c0-2.67,1.1-4.02,2.03-4.68,1.04-.74,2.4-1.12,4.05-1.12h21.84c1.89,0,3.29.38,4.3,1.14,1.53-1.21,3.47-1.21,4.17-1.21h3.15c.83,0,3.01,0,4.38,1.53.6.63,1.14,1.55,1.88,2.87.06.11.11.22.16.33l2.11,5.14h.25l2.11-5.14c.05-.11.1-.23.16-.33.89-1.57,1.38-2.37,1.96-2.96,1.28-1.28,3-1.44,4.36-1.44h3.15c.79,0,3.21,0,4.78,1.79,1.26,1.44,1.51,3.3.71,5.12l-1.58,3.83c.3.18.56.39.8.63,1.35,1.35,1.51,3.34,1.51,4.71v3.01c0,1.73-.46,3.14-1.35,4.19-.04.05-.09.1-.13.15,1.33,1.35,1.49,3.32,1.49,4.69v3.01c0,1.53-.35,2.81-1.05,3.8.22.16.42.33.6.52,1.34,1.29,1.5,3.29,1.5,4.71v3.01c0,2.12-.7,3.39-1.34,4.12-.71.88-2.08,1.82-4.67,1.82h-4.42v12.47c0,1.55-.59,2.96-1.72,4.08-.04.04-.08.08-.13.12-1.14,1.01-2.52,1.53-4.09,1.53ZM49.01,63.04h5.27v-15.2c0-1.66,1.34-3,3-3h7.43v-2.95c0-.08,0-.15,0-.22h-7.43c-1.66,0-3-1.34-3-3v-2.87c0-1.66,1.34-3,3-3h6.38v-2.95c0-.08,0-.15,0-.22h-6.38c-1.66,0-3-1.34-3-3v-2.87c0-1.66,1.34-3,3-3h6.38v-2.95c0-.08,0-.15,0-.22h-.43c-1,0-1.94-.5-2.49-1.33-.56-.83-.66-1.89-.28-2.81l2.36-5.73h-2.53c-.13,0-.24,0-.33,0-.2.34-.49.85-.68,1.17l-2.8,6.83c-.46,1.13-1.56,1.86-2.78,1.86h-4.27c-1.22,0-2.31-.74-2.78-1.86l-2.8-6.83c-.18-.32-.46-.82-.69-1.18-.07,0-.15,0-.25,0h-2.53l2.36,5.73c.38.93.28,1.98-.28,2.81-.56.83-1.49,1.33-2.49,1.33h-.6c-.3.54-.76.98-1.34,1.25-.88.42-1.91.38-2.76-.1.03.02-.19-.03-.7-.03h-.21c-1.66,0-3-1.34-3-3v-7.92H9.47s-.05,0-.08,0v2.96h2.95c1.66,0,3,1.34,3,3v1.96c0,1.66-1.34,3-3,3h-4.77c0,.07,0,.14,0,.22v2.95h4.77c1.66,0,3,1.34,3,3v1.89c0,1.66-1.34,3-3,3h-2.87s-.05,0-.08,0v3.59s.05,0,.08,0h2.87c1.66,0,3,1.34,3,3,0,4.5-.57,7.92-1.75,10.44-1.25,2.68-2.55,4.68-3.97,6.11-1,1.11-1.66,1.84-2.12,2.32v6.99c.46-.19,1.33-.69,2.65-2.01.84-.84,2.08-1.11,3.19-.68,1.11.42,1.86,1.46,1.92,2.64,0,.13.02.23.03.3.23.08.58.15,1.1.15h15.26c.52,0,.84-.05,1.02-.1.02-.16.04-.4.04-.75v-15.26c0-1.22.74-2.3,1.82-2.76-.91-.31-1.64-1.04-1.92-2.01-.17-.03-.49-.07-1.04-.07h-9.87c-1.66,0-3-1.34-3-3v-2.31c0-1.66,1.34-3,3-3h9.67v-8.48c0-1.66,1.34-3,3-3h.21c.08,0,.15,0,.21,0,.39-.75,1.09-1.3,1.92-1.51.81-.2,1.67-.06,2.36.39.07,0,.18.01.34.01h6.58c1.66,0,3,1.34,3,3v2.87c0,1.66-1.34,3-3,3h-6.45c0,.07,0,.14,0,.22v2.95h6.45c1.66,0,3,1.34,3,3v2.87c0,1.66-1.34,3-3,3h-7.6c-.24.9-.88,1.64-1.73,2,.62.21,1.16.62,1.53,1.17.03,0,.06,0,.1,0h7.7c1.66,0,3,1.34,3,3v15.2ZM15.05,62.35s0,0,0,0c0,0,0,0,0,0ZM33.02,62.32s0,0,0,0c0,0,0,0,0,0ZM38.57,45.55s0,0,0,0c0,0,0,0,0,0ZM64.65,45.32s0,0,0,0c0,0,0,0,0,0ZM65.46,41.72h0,0ZM7.64,22.35h0s0,0,0,0ZM39.39,20.96s0,0,0,0c0,0,0,0,0,0ZM39.73,16.62s0,0,0,0c0,0,0,0,0,0ZM26.13,59.94h-4.34c-1.66,0-3-1.34-3-3v-9.66c0-1.66,1.34-3,3-3h4.34c1.66,0,3,1.34,3,3v9.66c0,1.66-1.34,3-3,3ZM24.87,29.76h-3.15c-1.66,0-3-1.34-3-3v-1.89c0-1.66,1.34-3,3-3h3.15c1.66,0,3,1.34,3,3v1.89c0,1.66-1.34,3-3,3ZM24.87,18.7h-3.15c-1.66,0-3-1.34-3-3v-1.96c0-1.66,1.34-3,3-3h3.15c1.66,0,3,1.34,3,3v1.96c0,1.66-1.34,3-3,3Z"/><path class="cls-3" d="M132.12,68.97h-7.63c-1.89,0-3.41-.55-4.5-1.65-.64-.64-1.02-1.4-1.25-2.13h-.48c-.59,0-2.12,0-3.45-.86-.96.58-2.19.86-3.84.86h-5.32c-1.4,0-2.54-.29-3.4-.85-1.3.75-2.75.85-3.88.85h-5.25c-.79,0-3.17,0-4.5-1.83-.06-.07-.13-.17-.22-.31-.13.2-.23.32-.28.39-1.46,1.75-3.7,1.75-4.44,1.75h-5.25c-1.17,0-2.67-.11-4-.92-1.38-.82-2.5-2.72-1.59-5.64.04-.11.08-.22.12-.33l2.66-5.95c.03-.06.06-.12.09-.18.7-1.33,1.3-2.28,1.82-2.9.06-.07.12-.14.18-.2.18-.18.38-.35.6-.49-.14-.49-.22-1.02-.22-1.58V6.46c0-1.84.78-3.01,1.44-3.66.14-.14.29-.26.45-.37.94-.63,2.05-.92,3.49-.92h48.79c1.65,0,2.85.34,3.77,1.08,1.13.94,1.68,2.24,1.68,3.88v5.39c0,.67,0,2.22-.92,3.46.69.98,1.01,2.16.92,3.44v5.21c0,1.34-.35,2.45-1.04,3.3.69.91,1.04,2.01,1.04,3.28v4.13c0,1.03-.07,2.16-.45,3.17.61.29,1.16.64,1.65,1.06.06.05.12.1.17.16,1.51,1.51,2.28,3.85,2.28,6.95v14.63c0,1.14,0,4.59-2.77,6.62-1.56,1.12-3.79,1.7-6.46,1.7ZM124.42,62.96s.05,0,.07,0h7.63c2.1,0,2.86-.5,2.94-.56.05-.04.29-.49.29-1.76v-14.63c0-1.73-.33-2.43-.47-2.63-.28-.18-1.05-.53-2.76-.53h-16.1c-1.66,0-3-1.34-3-3v-2.1c0-1.66,1.34-3,3-3h15.69v-3.45h-15.69c-1.66,0-3-1.34-3-3v-2.24c0-1.66,1.34-3,3-3h15.69v-3.73h-15.69c-1.66,0-3-1.34-3-3v-2.24c0-1.66,1.34-3,3-3h15.69v-3.59h-47.62v38.45h40.96c.13,0,.27,0,.4.03,2.31.31,3.92,1.71,4.42,3.84.05.22.08.45.08.67v2.73c0,4.18-2.63,5.66-4.89,5.66h-.42c-1.18,0-2.24-.69-2.73-1.76l-1.01-2.22c-.29-.54-.52-.93-.69-1.21-.02,0-.04,0-.06,0-.07,0-.13,0-.2,0h-4.14l1.92,4.41c.21.48.38.82.5,1.07h3.19c1.66,0,3,1.34,3,3v.49c0,.11,0,.21,0,.29ZM105.67,59.19h4.6l-1.89-4.23c-.34-.57-.59-.98-.77-1.26-.02,0-.05,0-.07,0-.07,0-.13,0-.2,0h-4.12l1.96,4.39c.12.28.33.75.49,1.09ZM93.09,59.19h4.58l-1.92-4.29c-.31-.59-.54-.96-.69-1.2-.04,0-.09,0-.14,0-.06,0-.12,0-.19,0h-4.47c.35.29.64.66.84,1.1l1.47,3.29c.21.49.39.84.51,1.09ZM79.14,59.19h4.58c.12-.24.29-.59.5-1.07l1.39-3.26c.19-.46.49-.85.86-1.15h-4.47c-.07,0-.13,0-.2,0-.02,0-.04,0-.06,0-.17.27-.39.66-.68,1.2l-1.92,4.29ZM102.79,42.85h-8.68c-1.66,0-3-1.34-3-3v-2.1c0-1.66,1.34-3,3-3h8.68c1.66,0,3,1.34,3,3v2.1c0,1.66-1.34,3-3,3ZM102.79,31.3h-8.68c-1.66,0-3-1.34-3-3v-2.24c0-1.66,1.34-3,3-3h8.68c1.66,0,3,1.34,3,3v2.24c0,1.66-1.34,3-3,3ZM102.79,19.33h-8.68c-1.66,0-3-1.34-3-3v-2.24c0-1.66,1.34-3,3-3h8.68c1.66,0,3,1.34,3,3v2.24c0,1.66-1.34,3-3,3Z"/><path class="cls-3" d="M208.37,68.97h-10.22c-3.76-.09-6.62-1.07-8.57-2.92-.15-.14-.3-.29-.44-.45-.24.69-.62,1.29-1.12,1.79-.06.06-.13.12-.2.18-.97.81-2.23,1.26-3.53,1.26h-7.7c-1.29,0-2.57-.43-3.51-1.19-.72-.54-1.25-1.26-1.55-2.11-.16.18-.33.35-.5.52-1.96,1.85-4.82,2.84-8.5,2.92h-10.29c-1.61,0-3.09-.58-4.15-1.65-1.05-1.05-1.58-2.35-1.58-3.87v-3.85c0-1.52.53-2.83,1.58-3.87,1.06-1.06,2.54-1.65,4.15-1.65h5.12v-1.62c0-.36.04-.71.11-1.06h-4.87c-1.75,0-3.26-.64-4.36-1.86-1.08-1.11-1.65-2.5-1.65-4.01V11.78c0-1.45.56-2.75,1.65-3.88.76-.83,2.12-1.78,4.36-1.78h6.37c.83,0,1.61.15,2.32.45.02-.92.21-2.19,1.18-3.36.06-.07.12-.14.18-.2,1.37-1.37,3.15-1.37,3.73-1.37h39.41c.58,0,2.37,0,3.73,1.37.06.06.12.13.18.2.85,1.01,1.26,2.19,1.26,3.6v29.05c0,.3-.02.6-.06.89.76.2,1.5.56,2.12,1.19.06.06.12.13.18.2.85,1.01,1.26,2.49,1.26,4.51v2.8c0,1.56-.38,2.88-1.12,3.92-.05.07-.11.14-.16.21-.71.83-2.08,1.82-4.59,1.82h-5.43c.07.35.1.7.1,1.06v1.62h5.12c1.61,0,3.09.59,4.15,1.65s1.58,2.35,1.58,3.87v3.85c0,1.52-.53,2.82-1.58,3.87-1.06,1.07-2.54,1.65-4.15,1.65ZM192.68,52.86v5.4c0,1.63.34,2.78,1.02,3.42.82.78,2.42,1.23,4.52,1.28h9.88v-2.89h-5.12c-1.57,0-3.02-.59-4.08-1.66-1.06-1.06-1.65-2.53-1.65-4.15v-1.41h-4.57ZM152.49,62.96h9.95c2.02-.04,3.63-.5,4.45-1.27.68-.64,1.02-1.79,1.02-3.42v-5.4h-4.57v1.41c0,1.62-.59,3.09-1.65,4.15-1.08,1.08-2.49,1.65-4.08,1.65h-5.12v2.88ZM177.2,62.83h6.25v-14.43c0-1.66,1.34-3,3-3h21.99v-2.74c0-.05,0-.1,0-.15h-46.56c-1.66,0-3-1.34-3-3V12.12h-6.31s0,0-.01,0v33.27h21.64c1.66,0,3,1.34,3,3v14.43ZM167.26,34.96h37.68V7.64s-37.68,0-37.68,0v27.32ZM205.96,7.65h0,0ZM195.63,34.03h-19.11c-1.66,0-3-1.34-3-3v-2.31c0-1.66,1.34-3,3-3h19.11c1.66,0,3,1.34,3,3v2.31c0,1.66-1.34,3-3,3ZM195.63,25.21h-19.11c-1.66,0-3-1.34-3-3v-2.17c0-1.66,1.34-3,3-3h19.11c1.66,0,3,1.34,3,3v2.17c0,1.66-1.34,3-3,3ZM195.63,16.46h-19.11c-1.66,0-3-1.34-3-3v-2.17c0-1.66,1.34-3,3-3h19.11c1.66,0,3,1.34,3,3v2.17c0,1.66-1.34,3-3,3Z"/><path class="cls-2" d="M5.2,24.1c-.42-.49-.63-1.19-.63-2.17v-3.01c0-1.33.21-2.24.63-2.59.35-.42,1.12-.63,2.24-.63h4.9v-1.96h-2.87c-1.05,0-1.82-.14-2.31-.49-.49-.35-.77-.91-.77-1.75v-3.92c0-1.12.28-1.89.77-2.24.49-.35,1.26-.56,2.31-.56h21.84c1.26,0,2.1.21,2.52.56.42.35.63,1.12.56,2.24v8.12h.21c.98,0,1.68.14,2.17.42.07-.42.28-.77.56-1.12.28-.28.98-.42,2.1-.42h.56l-2.94-7.14c-.42-.77-.35-1.4.21-1.96.49-.56,1.33-.77,2.52-.77h3.15c1.05,0,1.82.14,2.17.56.35.35.84,1.19,1.47,2.31l2.87,7h4.27l2.87-7c.63-1.12,1.12-1.96,1.47-2.31.42-.42,1.12-.56,2.24-.56h3.15c1.19,0,2.03.21,2.52.77.49.56.56,1.19.21,1.96l-2.94,7.14h.42c1.12,0,1.96.21,2.38.63s.63,1.26.63,2.59v3.01c0,.98-.21,1.75-.63,2.24s-1.26.7-2.38.7h-6.37v2.87h6.37c1.12,0,1.96.21,2.38.63s.63,1.26.63,2.59v3.01c0,.98-.21,1.75-.63,2.24-.42.42-1.26.7-2.38.7h-6.37v2.87h7.42c1.19,0,2.03.21,2.38.63.42.35.63,1.26.63,2.59v3.01c0,.98-.21,1.75-.63,2.17-.35.49-1.19.77-2.38.77h-7.42v15.47c0,.77-.28,1.4-.84,1.96-.63.56-1.33.77-2.1.77h-5.32c-.91,0-1.68-.21-2.17-.77-.56-.56-.84-1.19-.84-1.96v-15.47h-7.7c-1.05,0-1.75-.21-2.03-.49-.28-.35-.49-.63-.56-.84v15.26c0,1.47-.28,2.52-.98,3.01-.63.56-1.68.84-3.08.84h-15.26c-1.26,0-2.31-.28-3.01-.77-.63-.42-1.05-1.26-1.12-2.52-1.96,1.96-3.71,3.01-5.18,3.01-.7-.07-1.33-.35-1.82-.77-.56-.49-.77-1.05-.77-1.75v-7.7c0-.7.21-1.26.56-1.68.42-.42,1.19-1.26,2.38-2.59,1.26-1.26,2.38-3.08,3.43-5.32.98-2.1,1.47-5.18,1.47-9.17h-2.87c-1.05,0-1.82-.21-2.31-.56s-.77-1.12-.77-2.17v-3.99c0-1.12.28-1.82.77-2.24.49-.42,1.26-.63,2.31-.63h2.87v-1.89h-4.9c-1.12,0-1.89-.28-2.24-.77ZM21.72,13.74v1.96h3.15v-1.96h-3.15ZM33.76,35.79c-.35.35-1.19.56-2.45.56h-9.59v2.31h9.87c1.4,0,2.38.21,2.94.7.49.49.84.98.98,1.54.07-.77.28-1.33.63-1.68.35-.42,1.12-.56,2.17-.56h7.7v-2.87h-6.58c-1.12,0-1.89-.28-2.24-.7-.42-.49-.63-1.26-.63-2.24v-3.01c0-1.33.21-2.17.63-2.59.35-.42,1.12-.63,2.24-.63h6.58v-2.87h-6.58c-.91,0-1.54-.14-1.96-.49-.14.35-.35.7-.63,1.05-.28.35-1.05.56-2.24.56h-.21v8.75c0,1.05-.21,1.82-.63,2.17ZM24.87,24.87h-3.15v1.89h3.15v-1.89ZM26.13,56.94v-9.66h-4.34v9.66h4.34Z"/><path class="cls-2" d="M96.91,51.19c.42.42.91,1.19,1.54,2.38l2.66,5.95c.35,1.12.21,1.89-.28,2.17-.56.35-1.33.49-2.45.49h-5.25c-1.12,0-1.82-.21-2.1-.63-.28-.35-.7-1.12-1.19-2.24l-1.47-3.29-1.4,3.29c-.49,1.12-.91,1.89-1.19,2.24-.35.42-.98.63-2.1.63h-5.25c-1.12,0-1.89-.14-2.45-.49-.49-.28-.63-1.05-.28-2.17l2.66-5.95c.63-1.19,1.12-1.96,1.47-2.38.35-.35,1.12-.56,2.17-.49h12.74c1.12-.07,1.82.14,2.17.49ZM134.71,23.96c0,.7-.14,1.26-.56,1.61-.35.35-.98.49-1.89.49h-16.24v2.24h16.24c.98,0,1.61.21,1.96.7.35.42.49.91.49,1.54v4.13c0,1.26-.14,2.1-.49,2.52-.35.35-.98.56-1.96.56h-16.24v2.1h16.1c2.24,0,3.85.49,4.83,1.33.91.91,1.4,2.52,1.4,4.83v14.63c0,2.1-.49,3.43-1.54,4.2-.98.7-2.59,1.12-4.69,1.12h-7.63c-1.12,0-1.89-.28-2.38-.77s-.7-1.33-.7-2.52v-.49h-3.15c-1.12,0-1.75-.21-2.1-.63-.28-.35-.7-1.12-1.19-2.24l-2.59-5.95c-.35-.77-.28-1.4.21-1.96.49-.49,1.33-.77,2.52-.7h4.83c1.05-.07,1.82.14,2.17.49.35.42.84,1.19,1.47,2.38l1.05,2.31h.42c1.26,0,1.89-.91,1.89-2.66v-2.73c-.21-.91-.84-1.4-1.89-1.54h-41.58c-.84,0-1.4-.14-1.82-.49-.35-.28-.56-.77-.56-1.47V6.46c0-.7.21-1.19.56-1.54.42-.28.98-.42,1.82-.42h48.79c.91,0,1.54.14,1.89.42.42.35.56.84.56,1.54v5.39c0,.98-.14,1.61-.56,1.89-.35.21-.98.35-1.89.35h-16.24v2.24h16.24c.91,0,1.54.21,1.96.56.35.42.56.98.49,1.75v5.32ZM94.11,16.33h8.68v-2.24h-8.68v2.24ZM94.11,28.3h8.68v-2.24h-8.68v2.24ZM94.11,39.85h8.68v-2.1h-8.68v2.1ZM99.99,51.4c.49-.49,1.4-.77,2.52-.7h4.83c1.05-.07,1.82.14,2.17.49.35.42.84,1.19,1.54,2.38l2.66,5.95c.28,1.12.21,1.89-.35,2.17-.49.35-1.33.49-2.38.49h-5.32c-1.05,0-1.75-.21-2.03-.63-.35-.35-.7-1.12-1.19-2.24l-2.66-5.95c-.35-.77-.28-1.4.21-1.96Z"/><path class="cls-2" d="M168.39,49.86c.7.07,1.33.28,1.75.77.49.49.77,1.12.77,1.82v5.81c0,2.45-.63,4.34-1.96,5.6-1.33,1.26-3.5,2.03-6.51,2.1h-10.22c-.84,0-1.54-.28-2.03-.77s-.7-1.05-.7-1.75v-3.85c0-.7.21-1.26.7-1.75.49-.49,1.19-.77,2.03-.77h5.39c.84,0,1.47-.28,1.96-.77.49-.49.77-1.19.77-2.03v-1.82c0-.7.28-1.33.77-1.82.49-.49,1.12-.7,1.82-.77h5.46ZM186.46,48.39v15.26c0,.7-.21,1.26-.56,1.61-.42.35-.98.56-1.61.56h-7.7c-.63,0-1.26-.21-1.68-.56-.49-.35-.7-.91-.7-1.61v-15.26h-21.63c-.98,0-1.68-.35-2.17-.91-.56-.56-.84-1.19-.84-1.96V11.78c0-.7.28-1.26.84-1.82.49-.56,1.19-.84,2.17-.84h6.37c.84,0,1.54.28,2.1.84.56.56.84,1.12.84,1.82v27.72h46.69c1.12,0,1.89.14,2.31.56.35.42.56,1.33.56,2.59v2.8c0,.98-.21,1.68-.56,2.17-.42.49-1.19.77-2.31.77h-22.12ZM207.39,5.13c.35.42.56.91.56,1.68v29.05c0,.7-.21,1.26-.56,1.61s-.84.49-1.61.49h-39.41c-.77,0-1.26-.14-1.61-.49-.35-.35-.49-.91-.49-1.61V6.81c0-.77.14-1.26.49-1.68.35-.35.84-.49,1.61-.49h39.41c.77,0,1.26.14,1.61.49ZM195.63,11.29h-19.11v2.17h19.11v-2.17ZM195.63,20.04h-19.11v2.17h19.11v-2.17ZM195.63,28.72h-19.11v2.31h19.11v-2.31ZM199.48,50.63c.49.49.77,1.12.77,1.82v1.82c0,.84.28,1.54.77,2.03.49.49,1.19.77,1.96.77h5.39c.84,0,1.54.28,2.03.77s.7,1.05.7,1.75v3.85c0,.7-.21,1.26-.7,1.75-.49.49-1.19.77-2.03.77h-10.22c-3.01-.07-5.18-.84-6.51-2.1-1.33-1.26-1.96-3.15-1.96-5.6v-5.81c0-.7.28-1.33.77-1.82.42-.49,1.05-.7,1.75-.77h5.46c.7.07,1.33.28,1.82.77Z"/></g></svg>