<?xml version="1.0" encoding="UTF-8"?><svg id="_レイヤー_2" xmlns="http://www.w3.org/2000/svg" viewBox="0 0 218.46 70.68"><defs><style>.cls-1,.cls-2,.cls-3{stroke-width:0px;}.cls-2{fill:#198caa;}.cls-3{fill:#fff;}</style></defs><g id="_レイヤー_4"><path class="cls-1" d="M64.29,65.27c-.56.56-1.68.91-3.29.91h-12.18c-1.96,0-2.94-.98-2.94-2.8v-4.2c0-1.89.98-2.87,2.94-2.87h4.62V15.77H16.05v47.68c0,.77-.28,1.4-.84,1.96-.56.56-1.26.77-2.1.77h-5.6c-.91,0-1.61-.21-2.1-.77-.56-.56-.84-1.19-.91-1.96V7.65c.07-.7.35-1.33.91-1.89.49-.56,1.19-.84,2.1-.84h54.54c1.26,0,2.1.21,2.45.63.42.35.63,1.12.63,2.24v53.98c0,1.75-.28,2.87-.84,3.5ZM47.13,24.1h.49c1.19,0,1.96.21,2.38.63.42.42.63,1.26.63,2.59v2.73c0,.98-.21,1.75-.63,2.24-.42.42-1.19.7-2.38.7h-7.98v12.74h2.17v-7.77c0-.7.28-1.26.84-1.82s1.26-.84,2.1-.84h3.64c.91,0,1.68.28,2.17.84.56.56.84,1.12.84,1.82v13.65c0,1.05-.21,1.75-.56,2.24-.42.49-1.26.7-2.45.7h-27.16c-1.12,0-1.89-.21-2.31-.7-.35-.49-.56-1.19-.56-2.24v-13.65c0-.7.28-1.26.84-1.82.49-.56,1.26-.84,2.17-.84h3.64c.84,0,1.54.28,2.1.84.56.56.84,1.12.84,1.82v7.77h2.1v-12.74h-8.05c-1.05,0-1.82-.28-2.24-.7-.42-.49-.63-1.26-.63-2.24v-2.73c0-1.33.21-2.17.63-2.59s1.19-.63,2.24-.63h.63l-1.54-3.64c-.35-.7-.28-1.33.21-1.89.49-.56,1.33-.84,2.52-.77h3.71c1.05-.07,1.82.14,2.17.49.35.42.84,1.19,1.47,2.38l1.47,3.43h4.48l1.47-3.43c.63-1.19,1.12-1.96,1.47-2.38.35-.35,1.12-.56,2.17-.49h3.71c1.19-.07,2.03.21,2.52.77s.56,1.19.21,1.89l-1.54,3.64Z"/><path class="cls-1" d="M78.76,65.34c-.42-.49-.56-1.19-.56-2.17V19.48c0-.7.14-1.26.56-1.61s.98-.56,1.68-.56h9.87c.7,0,1.26.21,1.75.56.42.35.7.91.7,1.61v33.88h8.82V6.6c0-.7.21-1.19.63-1.61.35-.35.91-.49,1.61-.49h9.8c.7,0,1.26.14,1.75.49.42.42.7.91.7,1.61v46.77h8.89V19.48c0-.7.28-1.26.7-1.61.49-.35,1.05-.56,1.75-.56h9.87c.7,0,1.26.21,1.61.56.42.35.56.91.56,1.61v43.69c0,.98-.14,1.68-.56,2.17s-1.26.77-2.38.77h-55.45c-1.12,0-1.89-.28-2.31-.77Z"/><path class="cls-1" d="M170.91,50.07c.7.07,1.33.28,1.75.77.49.49.77,1.12.77,1.82v5.81c0,2.45-.63,4.34-1.96,5.6-1.33,1.26-3.5,2.03-6.51,2.1h-10.22c-.84,0-1.54-.28-2.03-.77-.49-.49-.7-1.05-.7-1.75v-3.85c0-.7.21-1.26.7-1.75.49-.49,1.19-.77,2.03-.77h5.39c.84,0,1.47-.28,1.96-.77.49-.49.77-1.19.77-2.03v-1.82c0-.7.28-1.33.77-1.82s1.12-.7,1.82-.77h5.46ZM188.97,48.6v15.26c0,.7-.21,1.26-.56,1.61-.42.35-.98.56-1.61.56h-7.7c-.63,0-1.26-.21-1.68-.56-.49-.35-.7-.91-.7-1.61v-15.26h-21.63c-.98,0-1.68-.35-2.17-.91-.56-.56-.84-1.19-.84-1.96V11.99c0-.7.28-1.26.84-1.82.49-.56,1.19-.84,2.17-.84h6.37c.84,0,1.54.28,2.1.84.56.56.84,1.12.84,1.82v27.72h46.69c1.12,0,1.89.14,2.31.56.35.42.56,1.33.56,2.59v2.8c0,.98-.21,1.68-.56,2.17-.42.49-1.19.77-2.31.77h-22.12ZM209.9,5.34c.35.42.56.91.56,1.68v29.05c0,.7-.21,1.26-.56,1.61-.35.35-.84.49-1.61.49h-39.41c-.77,0-1.26-.14-1.61-.49-.35-.35-.49-.91-.49-1.61V7.02c0-.77.14-1.26.49-1.68.35-.35.84-.49,1.61-.49h39.41c.77,0,1.26.14,1.61.49ZM198.14,11.5h-19.11v2.17h19.11v-2.17ZM198.14,20.25h-19.11v2.17h19.11v-2.17ZM198.14,28.93h-19.11v2.31h19.11v-2.31ZM201.99,50.84c.49.49.77,1.12.77,1.82v1.82c0,.84.28,1.54.77,2.03.49.49,1.19.77,1.96.77h5.39c.84,0,1.54.28,2.03.77s.7,1.05.7,1.75v3.85c0,.7-.21,1.26-.7,1.75s-1.19.77-2.03.77h-10.22c-3.01-.07-5.18-.84-6.51-2.1-1.33-1.26-1.96-3.15-1.96-5.6v-5.81c0-.7.28-1.33.77-1.82.42-.49,1.05-.7,1.75-.77h5.46c.7.07,1.33.28,1.82.77Z"/><path class="cls-2" d="M61,70.68h-12.18c-4.45,0-7.44-2.93-7.44-7.3v-4.2s0-.08,0-.12h-20.14c-.23,0-.46,0-.68-.02v4.41c0,1.95-.75,3.73-2.16,5.14-.96.95-2.64,2.09-5.28,2.09h-5.6c-2.76,0-4.43-1.16-5.38-2.18-1.24-1.28-1.95-2.84-2.12-4.64-.01-.14-.02-.27-.02-.41V7.65c0-.15,0-.3.02-.45.17-1.71.9-3.27,2.11-4.52C3.46,1.22,5.37.42,7.51.42h54.54c.95,0,3.74,0,5.62,1.93,1.3,1.24,1.96,3.07,1.96,5.44v53.98c0,1.83-.2,4.49-1.97,6.49-.06.07-.12.13-.18.2-1.48,1.48-3.66,2.23-6.47,2.23ZM64.29,65.27h0,0ZM50.38,61.67h10.25s0-52.25,0-52.25H9v52.26h2.55V15.77c0-2.49,2.01-4.5,4.5-4.5h37.38c2.49,0,4.5,2.01,4.5,4.5v40.54c0,2.49-2.01,4.5-4.5,4.5h-3.06v.87ZM43.08,50.05h3.83v-10.25h-.59v5.93c0,2.05-1.37,3.77-3.24,4.32ZM31.32,50.05h7.07c-1.87-.55-3.24-2.27-3.24-4.32v-12.74c0-2.49,2.01-4.5,4.5-4.5h6.49c-1.12-.26-2.11-.93-2.75-1.9-.83-1.26-.98-2.85-.39-4.24l.02-.05h-.18c-.05.1-.11.2-.17.32l-1.39,3.25c-.71,1.66-2.34,2.73-4.14,2.73h-4.48c-1.8,0-3.43-1.07-4.14-2.73l-1.39-3.25c-.06-.11-.12-.22-.17-.32h-.18l.02.05c.59,1.39.44,2.98-.39,4.24-.65.97-1.64,1.65-2.75,1.9h6.42c2.49,0,4.5,2.02,4.5,4.5v12.74c0,2.05-1.37,3.77-3.24,4.32ZM22.86,50.05h3.83c-1.87-.55-3.24-2.27-3.24-4.32v-5.93h-.59v10.25ZM48,28.62h0,0Z"/><path class="cls-2" d="M136.51,70.61h-55.45c-3.08,0-4.81-1.27-5.73-2.34-1.47-1.72-1.64-3.73-1.64-5.1V19.48c0-2.69,1.19-4.24,2.18-5.07,1.26-1.05,2.84-1.6,4.56-1.6h9.87c1.6,0,3.06.47,4.36,1.4.09.06.18.13.27.21,1.08.9,1.82,2.13,2.14,3.5V6.6c0-1.85.67-3.51,1.94-4.79.83-.83,2.33-1.81,4.8-1.81h9.8c1.66,0,3.13.45,4.36,1.32.21.15.4.31.58.49,1.66,1.67,2.01,3.52,2.01,4.79v11.65c.27-1.51,1.05-2.87,2.21-3.84.09-.07.17-.14.27-.21,1.3-.93,2.77-1.4,4.36-1.4h9.87c1.81,0,3.45.62,4.65,1.74.96.86,2.02,2.38,2.02,4.93v43.69c0,1.36-.17,3.38-1.64,5.1-.92,1.07-2.66,2.34-5.8,2.34ZM82.71,63.45h0,0ZM82.7,61.61h52.26V21.81h-5.49v31.55c0,2.49-2.01,4.5-4.5,4.5h-8.89c-2.49,0-4.5-2.01-4.5-4.5V9h-5.49v44.37c0,2.49-2.01,4.5-4.5,4.5h-8.82c-2.49,0-4.5-2.01-4.5-4.5v-31.55h-5.56v39.79Z"/><path class="cls-2" d="M210.88,70.68h-10.22s-.07,0-.11,0c-3.51-.08-6.37-.93-8.52-2.51-.14.17-.29.34-.44.49-.09.09-.19.18-.29.27-1.24,1.04-2.84,1.61-4.5,1.61h-7.7c-1.62,0-3.22-.54-4.43-1.5-.37-.28-.7-.6-.99-.94-2.16,1.63-5.05,2.5-8.61,2.58-.04,0-.07,0-.11,0h-10.22c-2.01,0-3.87-.74-5.21-2.09-1.32-1.32-2.02-3.03-2.02-4.93v-3.85c0-1.9.7-3.61,2.01-4.93,1.03-1.03,2.35-1.7,3.81-1.97-1.43-.33-2.71-1.06-3.69-2.14-1.35-1.4-2.06-3.13-2.06-5.04V11.99c0-1.84.69-3.49,2.06-4.91.97-1.06,2.68-2.25,5.45-2.25h6.37c.37,0,.73.02,1.08.07.25-.91.67-1.72,1.27-2.44.08-.1.17-.2.27-.29,1.2-1.21,2.81-1.82,4.8-1.82h39.41c1.99,0,3.6.61,4.8,1.82.09.09.18.19.27.29,1.06,1.28,1.6,2.81,1.6,4.56v28.93c.56.27,1.12.64,1.62,1.14.1.1.19.2.28.3,1.08,1.29,1.6,3.08,1.6,5.47v2.8c0,1.87-.47,3.48-1.4,4.78-.08.11-.16.21-.25.31-.75.87-2.04,1.88-4.17,2.22,1.32.3,2.5.95,3.44,1.89,1.32,1.32,2.02,3.03,2.02,4.93v3.85c0,1.91-.7,3.61-2.02,4.93-1.35,1.35-3.2,2.09-5.21,2.09ZM200.71,61.68h3.48c-1.47-.25-2.8-.93-3.85-1.98-1.32-1.32-2.07-3.14-2.09-5.12h-1.57v3.9c0,1.15.2,2,.56,2.34.14.13.97.8,3.47.86ZM161.44,61.68h3.46c2.5-.07,3.33-.73,3.47-.87.35-.33.55-1.18.55-2.33v-3.9h-1.57c-.02,1.98-.76,3.8-2.09,5.13-1.05,1.05-2.36,1.72-3.82,1.97ZM181.22,61.54h3.25v-12.93c0-2.15,1.5-3.94,3.51-4.39h-10.27c2.01.45,3.51,2.25,3.51,4.39v12.93ZM156.57,44.1h6.83c-2.01-.45-3.51-2.25-3.51-4.39V13.83h-3.32v30.27ZM201.93,33.67h4.03V9.35h-3.87c.35.64.55,1.37.55,2.15v2.17c0,1.3-.55,2.47-1.43,3.29.88.82,1.43,1.99,1.43,3.29v2.17c0,1.28-.53,2.44-1.39,3.25.86.82,1.39,1.97,1.39,3.25v2.31c0,.9-.26,1.73-.71,2.43ZM171.28,33.67h3.96c-.45-.7-.71-1.53-.71-2.43v-2.31c0-1.28.53-2.44,1.39-3.25-.86-.82-1.39-1.97-1.39-3.25v-2.17c0-1.3.55-2.47,1.43-3.29-.88-.82-1.43-1.99-1.43-3.29v-2.17c0-.78.2-1.51.55-2.15h-3.8v24.32ZM208.34,9.35h.01-.01Z"/><path class="cls-3" d="M61,69.18h-12.18c-3.61,0-5.94-2.28-5.94-5.8v-4.2c0-.57.06-1.12.18-1.62h-21.82c-.41,0-1.25,0-2.18-.26v6.15c0,1.55-.59,2.96-1.72,4.08-1.1,1.09-2.52,1.65-4.22,1.65h-5.6c-1.81,0-3.25-.58-4.29-1.71-1-1.03-1.58-2.29-1.71-3.74,0-.09-.01-.18-.01-.27V7.65c0-.1,0-.2.01-.3.14-1.4.71-2.62,1.71-3.64.76-.83,2.1-1.79,4.29-1.79h54.54c1.36,0,3.29.16,4.57,1.5,1.02.96,1.51,2.39,1.51,4.37v53.98c0,1.58-.17,3.88-1.6,5.49-.04.04-.08.09-.12.13-1.19,1.19-3.01,1.79-5.41,1.79ZM64.29,65.27h0,0ZM48.88,63.18h12.12c.49,0,.82-.04,1.04-.09.05-.25.1-.67.1-1.32V7.92s-.05,0-.08,0H7.5v55.26h5.55V15.77c0-1.66,1.34-3,3-3h37.38c1.66,0,3,1.34,3,3v40.54c0,1.66-1.34,3-3,3h-4.56v3.87ZM48.9,58.9h0ZM21.36,51.55h27.04v-13.25h-3.59v7.43c0,1.66-1.34,3-3,3h-2.17c-1.66,0-3-1.34-3-3v-12.74c0-1.66,1.34-3,3-3h7.99v-2.67c0-.08,0-.15,0-.22h-.5c-1.01,0-1.95-.5-2.5-1.34s-.65-1.9-.26-2.83l.9-2.13h-3.04c-.07,0-.13,0-.2,0-.02,0-.04,0-.06,0-.17.27-.39.65-.67,1.18l-1.42,3.31c-.47,1.1-1.56,1.82-2.76,1.82h-4.48c-1.2,0-2.29-.72-2.76-1.82l-1.42-3.31c-.28-.53-.5-.91-.67-1.18-.02,0-.04,0-.06,0-.07,0-.13,0-.2,0h-3.04l.9,2.13c.39.93.29,1.99-.26,2.83-.56.84-1.5,1.34-2.5,1.34h-.5c0,.07,0,.14,0,.22v2.67h7.92c1.66,0,3,1.34,3,3v12.74c0,1.66-1.34,3-3,3h-2.1c-1.66,0-3-1.34-3-3v-7.43h-3.58s0,0-.01,0v13.25ZM21.46,38.12s0,0,0,0c0,0,0,0,0,0ZM34.62,21.1h.52l.69-1.61c.03-.08.07-.15.11-.22.09-.17.18-.34.27-.49h-2.65c.09.16.18.32.27.49.04.07.07.15.11.22l.69,1.61Z"/><path class="cls-3" d="M136.51,69.11h-55.45c-2.51,0-3.88-.99-4.59-1.82-1.15-1.34-1.28-2.99-1.28-4.12V19.48c0-1.69.55-3.01,1.64-3.92.99-.82,2.23-1.25,3.6-1.25h9.87c1.28,0,2.45.38,3.49,1.12.06.04.12.09.18.14,1.13.94,1.78,2.37,1.78,3.92v30.88h2.82V6.6c0-1.47.51-2.72,1.5-3.73.91-.91,2.17-1.37,3.74-1.37h9.8c1.36,0,2.51.34,3.49,1.05.14.1.27.21.38.33,1.04,1.05,1.57,2.3,1.57,3.73v43.77h2.89v-30.88c0-1.55.65-2.97,1.78-3.92.06-.05.12-.09.18-.14,1.04-.74,2.22-1.12,3.49-1.12h9.87c1.43,0,2.71.48,3.63,1.34,1.02.9,1.54,2.19,1.54,3.83v43.69c0,1.13-.13,2.78-1.28,4.12-.71.83-2.1,1.82-4.66,1.82ZM81.2,63.11h55.26V20.31h-8.49s0,33.05,0,33.05c0,1.66-1.34,3-3,3h-8.89c-1.66,0-3-1.34-3-3V7.5h-8.49v45.87c0,1.66-1.34,3-3,3h-8.82c-1.66,0-3-1.34-3-3V20.31h-8.56s0,42.79,0,42.79Z"/><path class="cls-3" d="M210.88,69.18h-10.22c-3.76-.09-6.62-1.07-8.57-2.92-.15-.15-.3-.29-.44-.45-.24.69-.62,1.3-1.12,1.79-.06.06-.13.12-.2.18-.97.81-2.23,1.26-3.54,1.26h-7.7c-1.29,0-2.57-.43-3.52-1.19-.72-.54-1.24-1.26-1.55-2.11-.16.18-.33.35-.5.51-1.96,1.85-4.82,2.84-8.51,2.92h-10.29c-1.61,0-3.09-.58-4.15-1.65-1.05-1.05-1.58-2.35-1.58-3.87v-3.85c0-1.52.53-2.82,1.58-3.87,1.06-1.06,2.54-1.65,4.15-1.65h5.12v-1.62c0-.36.04-.71.11-1.06h-4.87c-1.75,0-3.26-.64-4.36-1.86-1.08-1.11-1.65-2.5-1.65-4.01V11.99c0-1.45.56-2.75,1.65-3.88.76-.83,2.12-1.78,4.36-1.78h6.37c.83,0,1.61.15,2.32.45.02-.92.21-2.19,1.18-3.36.06-.07.12-.13.18-.2,1.37-1.38,3.15-1.38,3.74-1.38h39.41c.59,0,2.37,0,3.74,1.38.06.06.12.13.18.2.84,1.01,1.25,2.19,1.25,3.6v29.05c0,.31-.02.6-.06.89.76.2,1.5.56,2.12,1.19.06.06.13.13.18.2.84,1.01,1.25,2.49,1.25,4.51v2.8c0,1.56-.38,2.87-1.12,3.91-.05.07-.11.14-.16.21-.71.83-2.08,1.82-4.59,1.82h-5.43c.07.35.1.7.1,1.06v1.62h5.12c1.61,0,3.09.59,4.15,1.65,1.05,1.05,1.58,2.35,1.58,3.87v3.85c0,1.52-.53,2.82-1.58,3.87-1.06,1.06-2.54,1.65-4.15,1.65ZM195.19,53.07v5.4c0,1.63.34,2.78,1.02,3.43.82.77,2.42,1.23,4.52,1.28h9.88v-2.89h-5.12c-1.57,0-3.02-.59-4.08-1.66-1.06-1.06-1.65-2.53-1.65-4.15v-1.41h-4.57ZM155,63.17h9.95c2.03-.04,3.63-.5,4.45-1.27.68-.64,1.02-1.79,1.02-3.42v-5.4h-4.57v1.41c0,1.62-.59,3.09-1.65,4.15-1.07,1.07-2.48,1.65-4.08,1.65h-5.12v2.88ZM179.72,63.04h6.25v-14.43c0-1.66,1.34-3,3-3h21.99v-2.74c0-.05,0-.1,0-.15h-46.56c-1.66,0-3-1.34-3-3V12.33h-6.31s0,0,0,0v33.27h21.64c1.66,0,3,1.34,3,3v14.43ZM169.78,35.17h37.68V7.85s-37.68,0-37.68,0v27.32ZM208.48,7.86h0,0ZM198.14,34.24h-19.11c-1.66,0-3-1.34-3-3v-2.31c0-1.66,1.34-3,3-3h19.11c1.66,0,3,1.34,3,3v2.31c0,1.66-1.34,3-3,3ZM198.14,25.42h-19.11c-1.66,0-3-1.34-3-3v-2.17c0-1.66,1.34-3,3-3h19.11c1.66,0,3,1.34,3,3v2.17c0,1.66-1.34,3-3,3ZM198.14,16.67h-19.11c-1.66,0-3-1.34-3-3v-2.17c0-1.66,1.34-3,3-3h19.11c1.66,0,3,1.34,3,3v2.17c0,1.66-1.34,3-3,3Z"/><path class="cls-2" d="M64.29,65.27c-.56.56-1.68.91-3.29.91h-12.18c-1.96,0-2.94-.98-2.94-2.8v-4.2c0-1.89.98-2.87,2.94-2.87h4.62V15.77H16.05v47.68c0,.77-.28,1.4-.84,1.96-.56.56-1.26.77-2.1.77h-5.6c-.91,0-1.61-.21-2.1-.77-.56-.56-.84-1.19-.91-1.96V7.65c.07-.7.35-1.33.91-1.89.49-.56,1.19-.84,2.1-.84h54.54c1.26,0,2.1.21,2.45.63.42.35.63,1.12.63,2.24v53.98c0,1.75-.28,2.87-.84,3.5ZM47.13,24.1h.49c1.19,0,1.96.21,2.38.63.42.42.63,1.26.63,2.59v2.73c0,.98-.21,1.75-.63,2.24-.42.42-1.19.7-2.38.7h-7.98v12.74h2.17v-7.77c0-.7.28-1.26.84-1.82s1.26-.84,2.1-.84h3.64c.91,0,1.68.28,2.17.84.56.56.84,1.12.84,1.82v13.65c0,1.05-.21,1.75-.56,2.24-.42.49-1.26.7-2.45.7h-27.16c-1.12,0-1.89-.21-2.31-.7-.35-.49-.56-1.19-.56-2.24v-13.65c0-.7.28-1.26.84-1.82.49-.56,1.26-.84,2.17-.84h3.64c.84,0,1.54.28,2.1.84.56.56.84,1.12.84,1.82v7.77h2.1v-12.74h-8.05c-1.05,0-1.82-.28-2.24-.7-.42-.49-.63-1.26-.63-2.24v-2.73c0-1.33.21-2.17.63-2.59s1.19-.63,2.24-.63h.63l-1.54-3.64c-.35-.7-.28-1.33.21-1.89.49-.56,1.33-.84,2.52-.77h3.71c1.05-.07,1.82.14,2.17.49.35.42.84,1.19,1.47,2.38l1.47,3.43h4.48l1.47-3.43c.63-1.19,1.12-1.96,1.47-2.38.35-.35,1.12-.56,2.17-.49h3.71c1.19-.07,2.03.21,2.52.77s.56,1.19.21,1.89l-1.54,3.64Z"/><path class="cls-2" d="M78.76,65.34c-.42-.49-.56-1.19-.56-2.17V19.48c0-.7.14-1.26.56-1.61s.98-.56,1.68-.56h9.87c.7,0,1.26.21,1.75.56.42.35.7.91.7,1.61v33.88h8.82V6.6c0-.7.21-1.19.63-1.61.35-.35.91-.49,1.61-.49h9.8c.7,0,1.26.14,1.75.49.42.42.7.91.7,1.61v46.77h8.89V19.48c0-.7.28-1.26.7-1.61.49-.35,1.05-.56,1.75-.56h9.87c.7,0,1.26.21,1.61.56.42.35.56.91.56,1.61v43.69c0,.98-.14,1.68-.56,2.17s-1.26.77-2.38.77h-55.45c-1.12,0-1.89-.28-2.31-.77Z"/><path class="cls-2" d="M170.91,50.07c.7.07,1.33.28,1.75.77.49.49.77,1.12.77,1.82v5.81c0,2.45-.63,4.34-1.96,5.6-1.33,1.26-3.5,2.03-6.51,2.1h-10.22c-.84,0-1.54-.28-2.03-.77-.49-.49-.7-1.05-.7-1.75v-3.85c0-.7.21-1.26.7-1.75.49-.49,1.19-.77,2.03-.77h5.39c.84,0,1.47-.28,1.96-.77.49-.49.77-1.19.77-2.03v-1.82c0-.7.28-1.33.77-1.82s1.12-.7,1.82-.77h5.46ZM188.97,48.6v15.26c0,.7-.21,1.26-.56,1.61-.42.35-.98.56-1.61.56h-7.7c-.63,0-1.26-.21-1.68-.56-.49-.35-.7-.91-.7-1.61v-15.26h-21.63c-.98,0-1.68-.35-2.17-.91-.56-.56-.84-1.19-.84-1.96V11.99c0-.7.28-1.26.84-1.82.49-.56,1.19-.84,2.17-.84h6.37c.84,0,1.54.28,2.1.84.56.56.84,1.12.84,1.82v27.72h46.69c1.12,0,1.89.14,2.31.56.35.42.56,1.33.56,2.59v2.8c0,.98-.21,1.68-.56,2.17-.42.49-1.19.77-2.31.77h-22.12ZM209.9,5.34c.35.42.56.91.56,1.68v29.05c0,.7-.21,1.26-.56,1.61-.35.35-.84.49-1.61.49h-39.41c-.77,0-1.26-.14-1.61-.49-.35-.35-.49-.91-.49-1.61V7.02c0-.77.14-1.26.49-1.68.35-.35.84-.49,1.61-.49h39.41c.77,0,1.26.14,1.61.49ZM198.14,11.5h-19.11v2.17h19.11v-2.17ZM198.14,20.25h-19.11v2.17h19.11v-2.17ZM198.14,28.93h-19.11v2.31h19.11v-2.31ZM201.99,50.84c.49.49.77,1.12.77,1.82v1.82c0,.84.28,1.54.77,2.03.49.49,1.19.77,1.96.77h5.39c.84,0,1.54.28,2.03.77s.7,1.05.7,1.75v3.85c0,.7-.21,1.26-.7,1.75s-1.19.77-2.03.77h-10.22c-3.01-.07-5.18-.84-6.51-2.1-1.33-1.26-1.96-3.15-1.96-5.6v-5.81c0-.7.28-1.33.77-1.82.42-.49,1.05-.7,1.75-.77h5.46c.7.07,1.33.28,1.82.77Z"/></g></svg>