<?xml version="1.0" encoding="UTF-8"?><svg id="_レイヤー_2" xmlns="http://www.w3.org/2000/svg" viewBox="0 0 217.26 70.75"><defs><style>.cls-1,.cls-2,.cls-3{stroke-width:0px;}.cls-2{fill:#198caa;}.cls-3{fill:#fff;}</style></defs><g id="_レイヤー_4"><path class="cls-1" d="M11.78,14.02v-6.86c.07-.7.35-1.33.84-1.89.56-.49,1.26-.77,2.17-.77h5.88c.84,0,1.47.28,1.96.77.56.56.84,1.19.98,1.89v6.86h3.85c.7.07,1.33.35,1.82.91.49.56.77,1.19.84,1.89v2.94c.07,7.07-1.33,13.09-4.2,17.99l1.75.84c1.19.63,1.96,1.12,2.31,1.47.42.42.56,1.12.56,2.24v5.88c0,.77-.21,1.47-.77,2.03-.63.56-1.33.77-2.1.7l-4.06-1.96v14.35c-.14.77-.42,1.4-.98,1.96-.49.56-1.12.84-1.96.84h-5.88c-.91,0-1.61-.28-2.17-.84-.49-.56-.77-1.19-.84-1.96v-14.14c-.77.49-1.82.77-3.08.84h-1.61c-.77-.07-1.33-.28-1.89-.77-.49-.42-.7-1.05-.7-1.75v-7.28c0-.7.21-1.26.7-1.75.56-.42,1.12-.7,1.89-.77h1.26c3.36,0,5.81-.98,7.49-3.01,1.61-2.03,2.59-4.76,2.94-8.19H7.02c-.7,0-1.26-.21-1.82-.7-.49-.49-.7-1.12-.7-1.82v-7.14c0-.7.21-1.33.7-1.89.56-.56,1.12-.84,1.82-.91h4.76ZM33.13,12.9c-.42-.49-.63-1.19-.63-2.17v-3.01c0-1.33.21-2.24.63-2.66.42-.35,1.12-.56,2.24-.56h28.35c1.19,0,2.03.21,2.45.56.35.42.56,1.33.56,2.66v3.01c0,.98-.21,1.68-.56,2.17-.42.49-1.26.77-2.45.77h-28.35c-1.12,0-1.82-.28-2.24-.77ZM65.83,15.98c.49.56.77,1.12.91,1.82v13.02c-.14.7-.42,1.33-.91,1.89s-1.19.84-2.03.84h-28.28c-.91,0-1.61-.28-2.17-.84-.49-.56-.77-1.19-.84-1.89v-13.02c.07-.7.35-1.26.84-1.82.56-.56,1.26-.84,2.17-.84h28.28c.84,0,1.54.28,2.03.84ZM65.97,35.93c.56.56.84,1.12.84,1.82v25.55c0,.77-.28,1.4-.84,1.96-.56.56-1.26.84-2.1.84h-28.35c-.91,0-1.61-.28-2.17-.84s-.84-1.19-.84-1.96v-25.55c0-.7.28-1.26.84-1.82.56-.56,1.26-.84,2.17-.84h28.35c.84,0,1.54.28,2.1.84ZM57.21,22.98h-14.98v2.66h14.98v-2.66ZM44.89,46.08v-1.82h-2.66v1.82h2.66ZM44.89,57.07v-1.89h-2.66v1.89h2.66ZM57.21,44.26h-2.66v1.82h2.66v-1.82ZM57.21,55.19h-2.66v1.89h2.66v-1.89Z"/><path class="cls-1" d="M80.65,15.14c.63-.49,1.33-.77,2.17-.77h8.96v-6.58c0-.84.28-1.47.77-2.1.49-.56,1.12-.84,1.82-.84h9.8c.7,0,1.33.21,1.89.77.63.56.91,1.26.91,2.17v6.65h4.76v-6.65c0-.84.35-1.54.91-2.1.63-.56,1.33-.84,2.1-.84h9.31c.7,0,1.26.28,1.82.84.49.63.77,1.26.77,2.1v6.65h9.45c.91,0,1.54.21,2.03.7.42.42.63,1.05.63,1.82v8.82c0,.84-.21,1.47-.63,1.96-.49.42-1.12.63-2.03.63h-9.45v4.41h9.45c.77,0,1.4.21,1.89.63s.77,1.12.77,2.17v8.75c0,.7-.28,1.26-.77,1.75-.56.56-1.19.77-1.89.77h-9.38v16.73c0,.77-.28,1.33-.77,1.82-.56.49-1.26.77-2.1.84h-9.1c-.77,0-1.47-.21-2.1-.77-.56-.49-.91-1.12-.91-1.89v-16.73h-4.76v11.76c-.14,2.59-.84,4.48-2.03,5.74-1.19,1.26-3.36,1.89-6.37,1.89h-15.96c-.84-.07-1.54-.35-2.03-.84s-.77-1.05-.77-1.82v-8.96c0-.7.28-1.33.77-1.75.49-.49,1.19-.77,2.03-.84h6.37c.84,0,1.54-.21,2.03-.77.49-.49.77-1.19.77-2.1v-2.24h-8.96c-1.12-.07-1.89-.28-2.38-.84-.42-.49-.7-1.05-.7-1.75v-8.75c0-1.05.28-1.75.7-2.17.49-.42,1.26-.63,2.38-.63h8.96v-4.41h-8.96c-.84,0-1.54-.21-2.17-.77-.63-.49-.91-1.12-.91-1.82v-8.82c0-.7.28-1.33.91-1.82ZM111.73,32.78v-4.41h-4.76v4.41h4.76Z"/><path class="cls-1" d="M169.71,50.14c.7.07,1.33.28,1.75.77.49.49.77,1.12.77,1.82v5.81c0,2.45-.63,4.34-1.96,5.6-1.33,1.26-3.5,2.03-6.51,2.1h-10.22c-.84,0-1.54-.28-2.03-.77-.49-.49-.7-1.05-.7-1.75v-3.85c0-.7.21-1.26.7-1.75.49-.49,1.19-.77,2.03-.77h5.39c.84,0,1.47-.28,1.96-.77.49-.49.77-1.19.77-2.03v-1.82c0-.7.28-1.33.77-1.82s1.12-.7,1.82-.77h5.46ZM187.77,48.67v15.26c0,.7-.21,1.26-.56,1.61-.42.35-.98.56-1.61.56h-7.7c-.63,0-1.26-.21-1.68-.56-.49-.35-.7-.91-.7-1.61v-15.26h-21.63c-.98,0-1.68-.35-2.17-.91-.56-.56-.84-1.19-.84-1.96V12.06c0-.7.28-1.26.84-1.82.49-.56,1.19-.84,2.17-.84h6.37c.84,0,1.54.28,2.1.84.56.56.84,1.12.84,1.82v27.72h46.69c1.12,0,1.89.14,2.31.56.35.42.56,1.33.56,2.59v2.8c0,.98-.21,1.68-.56,2.17-.42.49-1.19.77-2.31.77h-22.12ZM208.7,5.41c.35.42.56.91.56,1.68v29.05c0,.7-.21,1.26-.56,1.61-.35.35-.84.49-1.61.49h-39.41c-.77,0-1.26-.14-1.61-.49-.35-.35-.49-.91-.49-1.61V7.09c0-.77.14-1.26.49-1.68.35-.35.84-.49,1.61-.49h39.41c.77,0,1.26.14,1.61.49ZM196.94,11.57h-19.11v2.17h19.11v-2.17ZM196.94,20.32h-19.11v2.17h19.11v-2.17ZM196.94,29h-19.11v2.31h19.11v-2.31ZM200.79,50.91c.49.49.77,1.12.77,1.82v1.82c0,.84.28,1.54.77,2.03.49.49,1.19.77,1.96.77h5.39c.84,0,1.54.28,2.03.77s.7,1.05.7,1.75v3.85c0,.7-.21,1.26-.7,1.75s-1.19.77-2.03.77h-10.22c-3.01-.07-5.18-.84-6.51-2.1-1.33-1.26-1.96-3.15-1.96-5.6v-5.81c0-.7.28-1.33.77-1.82.42-.49,1.05-.7,1.75-.77h5.46c.7.07,1.33.28,1.82.77Z"/><path class="cls-2" d="M63.87,70.61h-28.35c-2.09,0-3.94-.75-5.36-2.16-1.22-1.22-1.94-2.72-2.12-4.36,0,0,0,.01,0,.02-.3,1.69-1,3.07-2.12,4.24-1.35,1.48-3.16,2.26-5.24,2.26h-5.88c-2.09,0-3.94-.75-5.35-2.16-.07-.07-.14-.14-.2-.22-1.13-1.29-1.78-2.81-1.93-4.52-.01-.13-.02-.27-.02-.4v-8.8h-.19c-.14,0-.27,0-.41-.02-1.74-.16-3.19-.77-4.44-1.86-1.43-1.23-2.24-3.06-2.24-5.14v-7.28c0-1.9.7-3.61,2.01-4.93.15-.15.32-.29.49-.42,1.3-.97,2.66-1.51,4.18-1.65.14-.01.27-.02.41-.02h1.26c2.55,0,3.49-.74,4.02-1.38.2-.25.38-.52.55-.82h-5.9c-1.8,0-3.41-.61-4.78-1.81-.08-.07-.15-.14-.22-.21-1.3-1.3-2.01-3.08-2.01-5v-7.14c0-1.82.63-3.49,1.81-4.85.07-.08.14-.16.21-.23,1.29-1.29,2.82-2.03,4.55-2.2.15-.01.3-.02.45-.02h.26v-2.36c0-.15,0-.3.02-.44.16-1.62.83-3.15,1.93-4.41.13-.15.27-.29.42-.42,1.41-1.23,3.18-1.88,5.14-1.88h5.88c2,0,3.78.72,5.14,2.09,1.14,1.14,1.88,2.55,2.21,4.19.01.06.02.12.03.18.18-1.98.8-3.49,1.89-4.58.1-.1.2-.19.31-.28,1.29-1.08,2.97-1.6,5.12-1.6h28.35c2.26,0,4.05.54,5.33,1.6.21.18.41.37.58.58,1.08,1.29,1.6,3.11,1.6,5.54v3.01c0,1.49-.3,2.81-.88,3.94.37.7.63,1.44.79,2.25.06.29.09.59.09.89v13.02c0,.3-.03.59-.09.89-.18.88-.47,1.69-.87,2.44.69,1.09,1.03,2.3,1.03,3.6v25.55c0,1.95-.75,3.73-2.16,5.14-1.41,1.41-3.24,2.16-5.29,2.16ZM37,61.61h25.3v-22.01h-25.3v22.01ZM16.28,61.61h2.83v-12.65c0-1.55.8-2.99,2.11-3.81s2.95-.91,4.35-.24l.48.23v-2.3c-.12-.07-.25-.14-.4-.22l-1.67-.8c-1.13-.54-1.99-1.54-2.36-2.74-.37-1.2-.21-2.5.42-3.59,2.44-4.17,3.65-9.44,3.58-15.67v-1.29h-2.01c-2.49,0-4.5-2.01-4.5-4.5v-5.02h-2.83v5.02c0,2.49-2.01,4.5-4.5,4.5h-2.78v3.46h9.78c1.27,0,2.49.54,3.34,1.48.85.95,1.27,2.21,1.14,3.47-.44,4.28-1.75,7.83-3.89,10.53-2.49,3.01-5.96,4.57-10.37,4.71v3.28c.28-.05.4-.1.4-.1,1.39-.88,3.12-.93,4.56-.14,1.44.79,2.32,2.31,2.32,3.96v12.44ZM63.87,39.59h0,0ZM62.79,39.12h0s1.06-1.07,1.06-1.07h0l-1.06,1.06h0ZM60.15,29.05h2.08v-9.41h-2.01c.91.82,1.48,2.01,1.48,3.34v2.66c0,1.36-.61,2.58-1.56,3.41ZM37,29.05h2.29c-.96-.83-1.56-2.05-1.56-3.41v-2.66c0-1.33.57-2.52,1.48-3.34h-2.22v9.41ZM37,9.17h25.23v-.17h-25.23v.17ZM57.21,61.57h-2.66c-2.49,0-4.5-2.01-4.5-4.5v-1.89c0-2.49,2.01-4.5,4.5-4.5h2.66c2.49,0,4.5,2.01,4.5,4.5v1.89c0,2.49-2.01,4.5-4.5,4.5ZM44.89,61.57h-2.66c-2.49,0-4.5-2.01-4.5-4.5v-1.89c0-2.49,2.01-4.5,4.5-4.5h2.66c2.49,0,4.5,2.01,4.5,4.5v1.89c0,2.49-2.01,4.5-4.5,4.5ZM57.21,50.58h-2.66c-2.49,0-4.5-2.01-4.5-4.5v-1.82c0-2.49,2.01-4.5,4.5-4.5h2.66c2.49,0,4.5,2.01,4.5,4.5v1.82c0,2.49-2.01,4.5-4.5,4.5ZM44.89,50.58h-2.66c-2.49,0-4.5-2.01-4.5-4.5v-1.82c0-2.49,2.01-4.5,4.5-4.5h2.66c2.49,0,4.5,2.01,4.5,4.5v1.82c0,2.49-2.01,4.5-4.5,4.5Z"/><path class="cls-2" d="M123.84,70.75h-9.1c-1.92,0-3.68-.66-5.09-1.9-.52-.46-.96-.97-1.32-1.53-.04.04-.08.08-.12.13-2.07,2.19-5.32,3.3-9.64,3.3h-15.96c-.12,0-.25,0-.38-.02-1.92-.16-3.6-.9-4.84-2.14-1.37-1.37-2.09-3.09-2.09-5v-8.96c0-1.95.8-3.78,2.21-5.05,0,0,.02-.02.03-.03-.17-.15-.33-.32-.49-.5-1.5-1.75-1.81-3.53-1.81-4.71v-8.75c0-2.58.96-4.21,1.84-5.16-1.19-1.26-1.84-2.87-1.84-4.64v-8.82c0-2.14.94-4.04,2.65-5.37h0c1.46-1.14,3.12-1.72,4.93-1.72h4.46v-2.08c0-1.78.56-3.37,1.71-4.86.05-.07.11-.14.17-.21,1.34-1.53,3.19-2.38,5.21-2.38h9.8c1.91,0,3.63.69,4.98,2,.08.07.16.15.24.23.02-.02.04-.05.07-.07.06-.06.13-.12.19-.18,1.45-1.29,3.21-1.98,5.09-1.98h9.31c1.89,0,3.57.73,5,2.16.13.13.26.27.37.42,1.15,1.49,1.72,3.08,1.72,4.86v2.15h4.95c2.12,0,3.88.68,5.22,2.02.88.88,1.94,2.47,1.94,5v8.82c0,1.91-.57,3.54-1.69,4.86.87,1,1.69,2.57,1.69,4.94v8.75c0,1.86-.72,3.57-2.09,4.93-1.37,1.37-3.12,2.09-5.07,2.09h-4.88v12.23c0,1.91-.72,3.64-2.09,5-.07.07-.14.14-.22.21-1.28,1.12-2.9,1.79-4.69,1.94-.12.01-.25.02-.38.02ZM116.23,61.75h5.98v-14.89c0-2.49,2.01-4.5,4.5-4.5h7.54v-5.07h-7.61c-2.49,0-4.5-2.01-4.5-4.5v-4.41c0-2.49,2.01-4.5,4.5-4.5h7.61v-4.93h-7.61c-2.49,0-4.5-2.02-4.5-4.5v-5.09h-5.91v5.09c0,2.49-2.01,4.5-4.5,4.5h-4.76c-2.49,0-4.5-2.01-4.5-4.5v-5.09h-6.19v5.02c0,2.49-2.01,4.5-4.5,4.5h-7.54v5h7.54c2.49,0,4.5,2.01,4.5,4.5v4.41c0,2.49-2.01,4.5-4.5,4.5h-7.54v5.14s7.54,0,7.54,0c2.49,0,4.5,2.01,4.5,4.5v2.24c0,2.04-.69,3.82-1.99,5.18-.94,1.03-2.61,2.19-5.31,2.19h-4.67v5.21h14.26c2.03,0,2.95-.37,3.14-.51.39-.42.68-1.43.76-2.75v-11.63c0-2.49,2.01-4.5,4.5-4.5h4.76c2.49,0,4.5,2.01,4.5,4.5v14.89ZM80.65,15.14l2.76,3.55h0s0,0,0,0l-2.76-3.55ZM80.65,15.14h0,0ZM111.73,37.28h-4.76c-2.49,0-4.5-2.01-4.5-4.5v-4.41c0-2.49,2.01-4.5,4.5-4.5h4.76c2.49,0,4.5,2.01,4.5,4.5v4.41c0,2.49-2.01,4.5-4.5,4.5Z"/><path class="cls-2" d="M209.68,70.75h-10.22s-.07,0-.11,0c-3.51-.08-6.37-.93-8.52-2.51-.14.17-.29.34-.44.49-.09.09-.19.18-.29.27-1.24,1.04-2.84,1.61-4.5,1.61h-7.7c-1.62,0-3.22-.54-4.43-1.5-.37-.28-.7-.59-.99-.94-2.16,1.63-5.05,2.5-8.61,2.58-.04,0-.07,0-.11,0h-10.22c-2.01,0-3.87-.74-5.21-2.09-1.32-1.32-2.02-3.03-2.02-4.93v-3.85c0-1.9.7-3.61,2.01-4.93,1.03-1.03,2.35-1.7,3.81-1.97-1.43-.33-2.71-1.06-3.69-2.14-1.35-1.39-2.06-3.13-2.06-5.04V12.06c0-1.84.69-3.49,2.06-4.91.97-1.06,2.68-2.25,5.45-2.25h6.37c.37,0,.73.02,1.08.07.25-.91.67-1.72,1.27-2.44.08-.1.17-.2.27-.29,1.2-1.21,2.81-1.82,4.8-1.82h39.41c1.99,0,3.6.61,4.8,1.82.09.09.18.19.27.29,1.06,1.28,1.6,2.81,1.6,4.56v28.93c.56.27,1.12.64,1.62,1.14.1.1.19.2.28.3,1.08,1.29,1.6,3.08,1.6,5.47v2.8c0,1.87-.47,3.48-1.4,4.78-.08.11-.16.21-.25.31-.75.87-2.04,1.88-4.17,2.22,1.32.3,2.5.95,3.44,1.89,1.32,1.32,2.02,3.03,2.02,4.93v3.85c0,1.91-.7,3.61-2.02,4.93-1.35,1.35-3.2,2.09-5.21,2.09ZM199.52,61.75h3.48c-1.47-.25-2.8-.93-3.85-1.98-1.32-1.32-2.07-3.14-2.09-5.12h-1.57v3.9c0,1.15.2,2,.56,2.34.14.13.97.8,3.47.86ZM160.24,61.75h3.46c2.5-.07,3.33-.73,3.47-.87.35-.33.55-1.18.55-2.33v-3.9h-1.57c-.02,1.98-.76,3.8-2.09,5.13-1.05,1.05-2.36,1.72-3.82,1.97ZM180.02,61.61h3.25v-12.93c0-2.14,1.5-3.94,3.51-4.39h-10.27c2.01.45,3.51,2.25,3.51,4.39v12.93ZM155.38,44.17h6.83c-2.01-.45-3.51-2.25-3.51-4.39V13.9h-3.32v30.27ZM200.73,33.74h4.03V9.42h-3.87c.35.64.55,1.37.55,2.15v2.17c0,1.3-.55,2.47-1.43,3.29.88.82,1.43,1.99,1.43,3.29v2.17c0,1.28-.53,2.44-1.39,3.25.86.82,1.39,1.97,1.39,3.25v2.31c0,.89-.26,1.73-.71,2.43ZM170.08,33.74h3.96c-.45-.7-.71-1.53-.71-2.43v-2.31c0-1.28.53-2.44,1.39-3.25-.86-.82-1.39-1.97-1.39-3.25v-2.17c0-1.3.55-2.47,1.43-3.29-.88-.82-1.43-1.99-1.43-3.29v-2.17c0-.78.2-1.51.55-2.15h-3.8v24.32ZM207.14,9.42h.01-.01Z"/><path class="cls-3" d="M63.87,69.11h-28.35c-1.69,0-3.17-.59-4.29-1.72-1.12-1.12-1.72-2.54-1.72-4.08v-9.59c-.67.19-1.37.26-2.1.19-.27-.02-.54-.09-.79-.18v9.58c0,.18-.02.36-.05.53-.25,1.39-.82,2.53-1.74,3.48-1.06,1.17-2.49,1.79-4.15,1.79h-5.88c-1.68,0-3.17-.59-4.29-1.72-.05-.05-.09-.09-.13-.14-.92-1.05-1.45-2.28-1.57-3.67,0-.09-.01-.18-.01-.27v-10.3s-.05,0-.08,0h-1.61c-.09,0-.18,0-.27-.01-1.43-.13-2.57-.61-3.59-1.5-1.1-.95-1.72-2.38-1.72-4.01v-7.28c0-1.52.53-2.82,1.58-3.87.1-.1.21-.2.32-.28.68-.51,1.78-1.21,3.42-1.36.09,0,.18-.01.27-.01h1.26c3.22,0,4.5-1.1,5.18-1.92.69-.87,1.23-1.97,1.63-3.28H7.02c-1.42,0-2.7-.49-3.79-1.44-.05-.04-.1-.09-.15-.14-1.03-1.03-1.58-2.4-1.58-3.94v-7.14c0-1.45.5-2.79,1.44-3.86.04-.05.09-.1.14-.15,1.05-1.05,2.24-1.63,3.64-1.77.1,0,.2-.01.3-.01h1.76v-3.86c0-.1,0-.2.01-.29.13-1.33.66-2.53,1.57-3.57.09-.1.18-.19.28-.28,1.15-1,2.54-1.51,4.15-1.51h5.88c1.59,0,3,.57,4.08,1.65.94.94,1.53,2.06,1.8,3.43.04.19.06.39.06.59v3.86h.85c.1,0,.2,0,.3.01.63.06,1.22.22,1.77.45-.02-.25-.03-.5-.03-.76v-3.01c0-1.4.16-3.42,1.5-4.78.07-.07.13-.13.21-.19,1.01-.84,2.37-1.25,4.16-1.25h28.35c1.93,0,3.36.41,4.37,1.25.14.12.27.25.39.39.84,1.01,1.25,2.51,1.25,4.58v3.01c0,1.56-.38,2.88-1.12,3.92,0,0,0,.01-.02.02.54.77.89,1.61,1.08,2.54.04.2.06.39.06.59v13.02c0,.2-.02.4-.06.59-.21,1.04-.62,1.98-1.22,2.8.89,1.04,1.34,2.23,1.34,3.54v25.55c0,1.54-.59,2.96-1.72,4.08-1.13,1.13-2.59,1.72-4.22,1.72ZM35.5,63.11h28.3v-25.01h-28.29s0,0-.01,0v25.01ZM14.78,63.11h5.77s.04-.06.06-.13v-14.02c0-1.03.53-1.99,1.41-2.54.87-.55,1.97-.61,2.9-.16l2.63,1.27v-5.22c0-.14,0-.25,0-.34-.24-.15-.62-.38-1.22-.69l-1.7-.81c-.76-.36-1.33-1.03-1.57-1.83s-.14-1.67.28-2.39c2.58-4.4,3.85-9.94,3.79-16.45v-2.74s0-.02-.02-.03h-3.5c-1.66,0-3-1.34-3-3v-6.48s-.01-.03-.02-.04h-5.8s0,0,0,0v6.52c0,1.66-1.34,3-3,3h-4.28v6.46s11.28,0,11.28,0c.85,0,1.66.36,2.23.99.57.63.84,1.47.76,2.32-.41,3.99-1.61,7.27-3.58,9.75-2.29,2.77-5.59,4.15-9.84,4.15h-.85v6.32h1.11c1.01-.07,1.45-.3,1.56-.37.92-.59,2.1-.62,3.05-.1.96.53,1.56,1.54,1.56,2.63v13.94ZM7.15,46.96s.01.02.03.02c0,0-.02-.01-.03-.02ZM63.92,38.14h.01-.01ZM35.5,30.55h28.19s.03-.07.04-.1v-12.25s-.02-.03-.03-.05h-28.2s0,0-.01,0v12.41ZM35.5,10.67h28.23v-2.95c0-.08,0-.15,0-.22h-28.23c0,.07,0,.14,0,.22v2.95ZM57.21,60.07h-2.66c-1.66,0-3-1.34-3-3v-1.89c0-1.66,1.34-3,3-3h2.66c1.66,0,3,1.34,3,3v1.89c0,1.66-1.34,3-3,3ZM44.89,60.07h-2.66c-1.66,0-3-1.34-3-3v-1.89c0-1.66,1.34-3,3-3h2.66c1.66,0,3,1.34,3,3v1.89c0,1.66-1.34,3-3,3ZM57.21,49.08h-2.66c-1.66,0-3-1.34-3-3v-1.82c0-1.66,1.34-3,3-3h2.66c1.66,0,3,1.34,3,3v1.82c0,1.66-1.34,3-3,3ZM44.89,49.08h-2.66c-1.66,0-3-1.34-3-3v-1.82c0-1.66,1.34-3,3-3h2.66c1.66,0,3,1.34,3,3v1.82c0,1.66-1.34,3-3,3ZM57.21,28.64h-14.98c-1.66,0-3-1.34-3-3v-2.66c0-1.66,1.34-3,3-3h14.98c1.66,0,3,1.34,3,3v2.66c0,1.66-1.34,3-3,3Z"/><path class="cls-3" d="M123.84,69.25h-9.1c-1.57,0-2.95-.51-4.09-1.53-1.12-.98-1.79-2.29-1.9-3.7-.43.91-.97,1.71-1.63,2.4-1.78,1.88-4.65,2.83-8.55,2.83h-15.96c-.08,0-.17,0-.25-.01-1.57-.13-2.92-.72-3.9-1.71-1.09-1.09-1.65-2.42-1.65-3.94v-8.96c0-1.53.63-2.96,1.73-3.95.52-.5,1.13-.89,1.82-1.17-.77-.27-1.53-.71-2.18-1.45-.96-1.12-1.44-2.37-1.44-3.72v-8.75c0-2.24.86-3.57,1.58-4.29.05-.05.11-.11.17-.16.3-.26.64-.48,1-.67-.26-.16-.52-.35-.76-.56-1.28-1.03-1.99-2.5-1.99-4.13v-8.82c0-1.66.74-3.15,2.07-4.19,1.2-.93,2.54-1.4,4.01-1.4h5.96v-3.58c0-1.44.46-2.72,1.4-3.94.04-.05.07-.09.11-.14,1.05-1.2,2.5-1.87,4.08-1.87h9.8c1.52,0,2.88.55,3.95,1.59.43.4.9.95,1.26,1.68.29-.55.67-1.07,1.14-1.54.04-.04.08-.08.13-.12,1.17-1.05,2.59-1.6,4.09-1.6h9.31c1.48,0,2.8.58,3.94,1.72.09.09.17.18.25.28.94,1.21,1.4,2.5,1.4,3.94v3.65h6.45c1.73,0,3.09.52,4.15,1.58.69.68,1.51,1.93,1.51,3.94v8.82c0,1.55-.46,2.87-1.35,3.92-.1.12-.21.22-.32.32-.27.23-.55.43-.85.6.25.15.49.32.71.51.83.71,1.82,2.06,1.82,4.45v8.75c0,1.01-.29,2.51-1.65,3.87-1.08,1.08-2.47,1.65-4.01,1.65h-6.38v13.73c0,1.52-.55,2.85-1.65,3.94-.05.05-.1.09-.15.14-1.05.92-2.34,1.45-3.83,1.57-.08,0-.17.01-.25.01ZM114.73,63.25h8.96s.02,0,.03,0v-16.39c0-1.66,1.34-3,3-3h9.04v-8.07h-9.11c-1.66,0-3-1.34-3-3v-4.41c0-1.66,1.34-3,3-3h9.11v-7.93h-9.11c-1.66,0-3-1.34-3-3v-6.59h-8.88l-.03,6.59c0,1.66-1.34,3-3,3h-4.76c-1.66,0-3-1.34-3-3v-6.59h-9.19s0,6.52,0,6.52c0,1.66-1.34,3-3,3h-8.96s-.05,0-.08,0v7.99s.05,0,.08,0h8.96c1.66,0,3,1.34,3,3v4.41c0,1.66-1.34,3-3,3h-8.96s-.05,0-.08,0v8.12c.05,0,.11.01.18.02h8.86c1.66,0,3,1.34,3,3v2.24c0,2.06-.84,3.39-1.58,4.15-.73.8-2.04,1.72-4.22,1.72h-6.17v8.21h15.76c2.43,0,3.76-.49,4.19-.95.86-.91,1.14-2.54,1.21-3.76v-11.68c0-1.66,1.34-3,3-3h4.76c1.66,0,3,1.34,3,3v16.39ZM114.6,63.21s0,0,.01.01c0,0,0,0-.01-.01ZM80.65,15.14h0,0ZM111.73,35.78h-4.76c-1.66,0-3-1.34-3-3v-4.41c0-1.66,1.34-3,3-3h4.76c1.66,0,3,1.34,3,3v4.41c0,1.66-1.34,3-3,3Z"/><path class="cls-3" d="M209.68,69.25h-10.22c-3.76-.09-6.62-1.07-8.57-2.92-.15-.14-.3-.29-.44-.45-.24.69-.62,1.3-1.12,1.79-.06.06-.13.12-.2.18-.97.81-2.23,1.26-3.54,1.26h-7.7c-1.29,0-2.57-.43-3.52-1.19-.72-.54-1.24-1.26-1.55-2.11-.16.18-.33.35-.5.51-1.96,1.85-4.82,2.84-8.51,2.92h-10.29c-1.61,0-3.09-.58-4.15-1.65-1.05-1.05-1.58-2.35-1.58-3.87v-3.85c0-1.52.53-2.82,1.58-3.87,1.06-1.07,2.54-1.65,4.15-1.65h5.12v-1.62c0-.36.04-.71.11-1.06h-4.87c-1.75,0-3.26-.64-4.36-1.86-1.08-1.11-1.65-2.5-1.65-4.01V12.06c0-1.45.56-2.75,1.65-3.88.76-.83,2.12-1.78,4.36-1.78h6.37c.83,0,1.61.15,2.32.45.02-.92.21-2.19,1.18-3.36.06-.07.12-.13.18-.2,1.37-1.38,3.15-1.38,3.74-1.38h39.41c.59,0,2.37,0,3.74,1.38.06.06.12.13.18.2.84,1.01,1.25,2.19,1.25,3.6v29.05c0,.31-.02.6-.06.89.76.2,1.5.56,2.12,1.19.06.06.13.13.18.2.84,1.01,1.25,2.49,1.25,4.51v2.8c0,1.56-.38,2.87-1.12,3.91-.05.07-.11.14-.16.21-.71.83-2.08,1.82-4.59,1.82h-5.43c.07.35.1.7.1,1.06v1.62h5.12c1.61,0,3.09.59,4.15,1.65,1.05,1.05,1.58,2.35,1.58,3.87v3.85c0,1.52-.53,2.82-1.58,3.87-1.06,1.06-2.54,1.65-4.15,1.65ZM193.99,53.14v5.4c0,1.63.34,2.78,1.02,3.42.82.77,2.42,1.23,4.52,1.28h9.88v-2.89h-5.12c-1.57,0-3.02-.59-4.08-1.66-1.06-1.06-1.65-2.53-1.65-4.15v-1.41h-4.57ZM153.81,63.24h9.95c2.03-.04,3.63-.5,4.45-1.27.68-.64,1.02-1.8,1.02-3.42v-5.4h-4.57v1.41c0,1.62-.59,3.09-1.65,4.16-1.07,1.07-2.48,1.65-4.08,1.65h-5.12v2.88ZM178.52,63.11h6.25v-14.43c0-1.66,1.34-3,3-3h21.99v-2.74c0-.05,0-.1,0-.15h-46.56c-1.66,0-3-1.34-3-3V12.4h-6.31s0,0,0,0v33.27h21.64c1.66,0,3,1.34,3,3v14.43ZM168.58,35.24h37.68V7.92s-37.68,0-37.68,0v27.32ZM207.28,7.93h0,0ZM196.94,34.31h-19.11c-1.66,0-3-1.34-3-3v-2.31c0-1.66,1.34-3,3-3h19.11c1.66,0,3,1.34,3,3v2.31c0,1.66-1.34,3-3,3ZM196.94,25.49h-19.11c-1.66,0-3-1.34-3-3v-2.17c0-1.66,1.34-3,3-3h19.11c1.66,0,3,1.34,3,3v2.17c0,1.66-1.34,3-3,3ZM196.94,16.74h-19.11c-1.66,0-3-1.34-3-3v-2.17c0-1.66,1.34-3,3-3h19.11c1.66,0,3,1.34,3,3v2.17c0,1.66-1.34,3-3,3Z"/><path class="cls-2" d="M11.78,14.02v-6.86c.07-.7.35-1.33.84-1.89.56-.49,1.26-.77,2.17-.77h5.88c.84,0,1.47.28,1.96.77.56.56.84,1.19.98,1.89v6.86h3.85c.7.07,1.33.35,1.82.91.49.56.77,1.19.84,1.89v2.94c.07,7.07-1.33,13.09-4.2,17.99l1.75.84c1.19.63,1.96,1.12,2.31,1.47.42.42.56,1.12.56,2.24v5.88c0,.77-.21,1.47-.77,2.03-.63.56-1.33.77-2.1.7l-4.06-1.96v14.35c-.14.77-.42,1.4-.98,1.96-.49.56-1.12.84-1.96.84h-5.88c-.91,0-1.61-.28-2.17-.84-.49-.56-.77-1.19-.84-1.96v-14.14c-.77.49-1.82.77-3.08.84h-1.61c-.77-.07-1.33-.28-1.89-.77-.49-.42-.7-1.05-.7-1.75v-7.28c0-.7.21-1.26.7-1.75.56-.42,1.12-.7,1.89-.77h1.26c3.36,0,5.81-.98,7.49-3.01,1.61-2.03,2.59-4.76,2.94-8.19H7.02c-.7,0-1.26-.21-1.82-.7-.49-.49-.7-1.12-.7-1.82v-7.14c0-.7.21-1.33.7-1.89.56-.56,1.12-.84,1.82-.91h4.76ZM33.13,12.9c-.42-.49-.63-1.19-.63-2.17v-3.01c0-1.33.21-2.24.63-2.66.42-.35,1.12-.56,2.24-.56h28.35c1.19,0,2.03.21,2.45.56.35.42.56,1.33.56,2.66v3.01c0,.98-.21,1.68-.56,2.17-.42.49-1.26.77-2.45.77h-28.35c-1.12,0-1.82-.28-2.24-.77ZM65.83,15.98c.49.56.77,1.12.91,1.82v13.02c-.14.7-.42,1.33-.91,1.89s-1.19.84-2.03.84h-28.28c-.91,0-1.61-.28-2.17-.84-.49-.56-.77-1.19-.84-1.89v-13.02c.07-.7.35-1.26.84-1.82.56-.56,1.26-.84,2.17-.84h28.28c.84,0,1.54.28,2.03.84ZM65.97,35.93c.56.56.84,1.12.84,1.82v25.55c0,.77-.28,1.4-.84,1.96-.56.56-1.26.84-2.1.84h-28.35c-.91,0-1.61-.28-2.17-.84s-.84-1.19-.84-1.96v-25.55c0-.7.28-1.26.84-1.82.56-.56,1.26-.84,2.17-.84h28.35c.84,0,1.54.28,2.1.84ZM57.21,22.98h-14.98v2.66h14.98v-2.66ZM44.89,46.08v-1.82h-2.66v1.82h2.66ZM44.89,57.07v-1.89h-2.66v1.89h2.66ZM57.21,44.26h-2.66v1.82h2.66v-1.82ZM57.21,55.19h-2.66v1.89h2.66v-1.89Z"/><path class="cls-2" d="M80.65,15.14c.63-.49,1.33-.77,2.17-.77h8.96v-6.58c0-.84.28-1.47.77-2.1.49-.56,1.12-.84,1.82-.84h9.8c.7,0,1.33.21,1.89.77.63.56.91,1.26.91,2.17v6.65h4.76v-6.65c0-.84.35-1.54.91-2.1.63-.56,1.33-.84,2.1-.84h9.31c.7,0,1.26.28,1.82.84.49.63.77,1.26.77,2.1v6.65h9.45c.91,0,1.54.21,2.03.7.42.42.63,1.05.63,1.82v8.82c0,.84-.21,1.47-.63,1.96-.49.42-1.12.63-2.03.63h-9.45v4.41h9.45c.77,0,1.4.21,1.89.63s.77,1.12.77,2.17v8.75c0,.7-.28,1.26-.77,1.75-.56.56-1.19.77-1.89.77h-9.38v16.73c0,.77-.28,1.33-.77,1.82-.56.49-1.26.77-2.1.84h-9.1c-.77,0-1.47-.21-2.1-.77-.56-.49-.91-1.12-.91-1.89v-16.73h-4.76v11.76c-.14,2.59-.84,4.48-2.03,5.74-1.19,1.26-3.36,1.89-6.37,1.89h-15.96c-.84-.07-1.54-.35-2.03-.84s-.77-1.05-.77-1.82v-8.96c0-.7.28-1.33.77-1.75.49-.49,1.19-.77,2.03-.84h6.37c.84,0,1.54-.21,2.03-.77.49-.49.77-1.19.77-2.1v-2.24h-8.96c-1.12-.07-1.89-.28-2.38-.84-.42-.49-.7-1.05-.7-1.75v-8.75c0-1.05.28-1.75.7-2.17.49-.42,1.26-.63,2.38-.63h8.96v-4.41h-8.96c-.84,0-1.54-.21-2.17-.77-.63-.49-.91-1.12-.91-1.82v-8.82c0-.7.28-1.33.91-1.82ZM111.73,32.78v-4.41h-4.76v4.41h4.76Z"/><path class="cls-2" d="M169.71,50.14c.7.07,1.33.28,1.75.77.49.49.77,1.12.77,1.82v5.81c0,2.45-.63,4.34-1.96,5.6-1.33,1.26-3.5,2.03-6.51,2.1h-10.22c-.84,0-1.54-.28-2.03-.77-.49-.49-.7-1.05-.7-1.75v-3.85c0-.7.21-1.26.7-1.75.49-.49,1.19-.77,2.03-.77h5.39c.84,0,1.47-.28,1.96-.77.49-.49.77-1.19.77-2.03v-1.82c0-.7.28-1.33.77-1.82s1.12-.7,1.82-.77h5.46ZM187.77,48.67v15.26c0,.7-.21,1.26-.56,1.61-.42.35-.98.56-1.61.56h-7.7c-.63,0-1.26-.21-1.68-.56-.49-.35-.7-.91-.7-1.61v-15.26h-21.63c-.98,0-1.68-.35-2.17-.91-.56-.56-.84-1.19-.84-1.96V12.06c0-.7.28-1.26.84-1.82.49-.56,1.19-.84,2.17-.84h6.37c.84,0,1.54.28,2.1.84.56.56.84,1.12.84,1.82v27.72h46.69c1.12,0,1.89.14,2.31.56.35.42.56,1.33.56,2.59v2.8c0,.98-.21,1.68-.56,2.17-.42.49-1.19.77-2.31.77h-22.12ZM208.7,5.41c.35.42.56.91.56,1.68v29.05c0,.7-.21,1.26-.56,1.61-.35.35-.84.49-1.61.49h-39.41c-.77,0-1.26-.14-1.61-.49-.35-.35-.49-.91-.49-1.61V7.09c0-.77.14-1.26.49-1.68.35-.35.84-.49,1.61-.49h39.41c.77,0,1.26.14,1.61.49ZM196.94,11.57h-19.11v2.17h19.11v-2.17ZM196.94,20.32h-19.11v2.17h19.11v-2.17ZM196.94,29h-19.11v2.31h19.11v-2.31ZM200.79,50.91c.49.49.77,1.12.77,1.82v1.82c0,.84.28,1.54.77,2.03.49.49,1.19.77,1.96.77h5.39c.84,0,1.54.28,2.03.77s.7,1.05.7,1.75v3.85c0,.7-.21,1.26-.7,1.75s-1.19.77-2.03.77h-10.22c-3.01-.07-5.18-.84-6.51-2.1-1.33-1.26-1.96-3.15-1.96-5.6v-5.81c0-.7.28-1.33.77-1.82.42-.49,1.05-.7,1.75-.77h5.46c.7.07,1.33.28,1.82.77Z"/></g></svg>