<?xml version="1.0" encoding="UTF-8"?><svg id="_レイヤー_2" xmlns="http://www.w3.org/2000/svg" viewBox="0 0 217.24 70.96"><defs><style>.cls-1,.cls-2,.cls-3{stroke-width:0px;}.cls-2{fill:#198caa;}.cls-3{fill:#fff;}</style></defs><g id="_レイヤー_4"><path class="cls-1" d="M28.86,21.58v-2.59H7.44c-1.12,0-1.89-.28-2.31-.77-.35-.42-.56-1.12-.56-1.89v-4.13c0-1.33.21-2.17.56-2.59.42-.42,1.19-.63,2.31-.63h21.42v-2.03c0-.7.21-1.19.63-1.61.42-.35.98-.49,1.68-.49h8.89c.63,0,1.26.14,1.68.49.49.42.77.91.77,1.61v2.03h21.35c1.19,0,1.96.21,2.38.63.35.42.56,1.26.63,2.59v3.85c0,.98-.21,1.75-.56,2.17-.42.49-1.26.77-2.45.77h-21.35v2.59h18.76c1.26,0,2.31.21,3.01.77.77.49,1.12,1.54,1.12,3.15v20.02c0,1.4-.35,2.45-1.05,3.15-.7.63-1.75.91-3.01.91h-3.36v3.22c0,.84.28,1.47.77,1.96.49.56,1.19.77,1.96.77h3.5c.84.07,1.47.35,2.03.77.49.49.7,1.12.7,1.75v5.81c0,.7-.21,1.33-.7,1.82-.56.49-1.19.7-2.03.7h-10.22c-3.01,0-5.18-.56-6.51-1.82-1.33-1.26-1.96-3.15-1.96-5.6v-9.38h-3.01v14.77c0,.7-.21,1.19-.63,1.61-.35.35-.91.49-1.61.49h-8.96c-.7,0-1.26-.14-1.75-.49-.42-.42-.7-.91-.7-1.61v-14.77h-2.94v9.38c0,2.45-.63,4.34-1.96,5.6-1.33,1.26-3.5,1.82-6.51,1.82H7.23c-.84,0-1.47-.21-2.03-.7-.49-.49-.7-1.12-.7-1.82v-5.81c0-.63.21-1.26.7-1.75.56-.42,1.19-.7,2.03-.77h3.5c.77,0,1.47-.21,1.96-.77.49-.49.77-1.12.77-1.96v-3.22h-3.15c-1.47,0-2.52-.28-3.22-.91-.63-.63-.98-1.68-.98-3.08v-20.16c0-1.54.35-2.52.98-3.08.63-.49,1.68-.77,3.15-.77h18.62ZM19.34,31.87h9.52v-1.96h-9.52v1.96ZM19.34,40.9h9.52v-1.96h-9.52v1.96ZM42.51,31.87h9.52v-1.96h-9.52v1.96ZM42.51,40.9h9.52v-1.96h-9.52v1.96Z"/><path class="cls-1" d="M96.82,46.71c.77.07,1.33.35,1.82.77.42.49.7,1.12.7,1.82v9.66c0,2.45-.63,4.27-1.96,5.46-1.33,1.19-3.5,1.89-6.51,1.96h-10.22c-.84,0-1.47-.28-2.03-.77-.49-.49-.7-1.05-.7-1.75v-5.81c0-.63.21-1.26.7-1.75.56-.42,1.19-.7,2.03-.77h3.5c.77,0,1.47-.21,1.96-.77.49-.49.77-1.12.77-1.96v-3.5c0-.7.28-1.33.77-1.82.49-.42,1.05-.7,1.82-.77h7.35ZM78.55,19.34c-.35-.49-.56-1.12-.56-1.96v-4.06c0-1.33.21-2.24.56-2.59.42-.42,1.19-.63,2.31-.63h21.49v-3.15c0-.7.21-1.19.63-1.61.42-.35.98-.49,1.68-.49h8.89c.63,0,1.19.14,1.61.49.49.42.7.91.7,1.61v3.15h21.42c1.19,0,1.96.21,2.38.63.35.35.56,1.26.63,2.59v3.78c0,1.05-.21,1.75-.56,2.24-.42.49-1.26.7-2.45.7h-56.43c-1.12,0-1.89-.21-2.31-.7ZM131.96,22.63c1.26,0,2.31.28,3.01.77.77.49,1.12,1.61,1.12,3.22v13.65c0,1.47-.35,2.52-1.05,3.15s-1.75.98-3.01.98h-16.1v19.95c0,.7-.21,1.19-.63,1.61-.35.35-.91.49-1.61.49h-8.96c-.7,0-1.26-.14-1.75-.49-.42-.42-.7-.91-.7-1.61v-19.95h-15.82c-1.47,0-2.52-.28-3.22-.91-.63-.63-.98-1.68-.98-3.15v-13.86c0-1.47.35-2.52.98-3.01.63-.56,1.68-.84,3.15-.84h45.58ZM96.12,34.88h26.04v-2.8h-26.04v2.8ZM130.63,47.48c.49.49.77,1.12.77,1.82v3.5c0,.84.28,1.47.77,1.96.49.56,1.19.77,1.96.77h3.5c.84.07,1.47.35,2.03.77.49.49.7,1.12.7,1.75v5.81c0,.7-.21,1.26-.7,1.75-.56.49-1.19.77-2.03.77h-10.22c-3.01-.07-5.18-.77-6.51-1.96s-1.96-3.01-1.96-5.46v-9.66c0-.7.28-1.33.7-1.82.49-.42,1.05-.7,1.82-.77h7.35c.77.07,1.33.35,1.82.77Z"/><path class="cls-1" d="M155.75,66.39c-.77,0-1.4-.28-1.89-.84-.49-.49-.7-1.12-.7-1.89v-8.4c-.63.42-1.05.42-1.47.14-.42-.28-.56-.91-.56-1.89v-6.16c-.07-.56-.07-.98,0-1.33,0-.35.21-.7.63-1.05l1.4-1.54v-7.77c0-.7.21-1.33.7-1.82.49-.56,1.12-.77,1.89-.77h6.86l1.61-1.82h-9.73c-.63-.07-1.26-.35-1.75-.84-.49-.49-.77-1.05-.77-1.82v-3.22c0-1.05.28-1.82.7-2.24.49-.42,1.12-.63,1.82-.63h5.74v-2.1h-5.74c-.84,0-1.47-.21-1.89-.7-.42-.42-.63-1.05-.63-1.89v-3.43c0-.77.21-1.4.63-1.82.42-.42,1.05-.63,1.89-.63h5.74v-4.48c0-.77.28-1.4.84-1.96.49-.49,1.12-.84,1.82-.98h6.09c.77.14,1.33.49,1.82.98.49.56.77,1.19.77,1.96v4.41h5.46c.7,0,1.33.21,1.82.7.49.42.7.98.77,1.61l2.73-3.08c.49-.49,1.12-.77,1.82-.84.77,0,1.33.28,1.89.77l2.38,2.59v-5.88c0-.91.21-1.61.7-2.1.42-.42,1.12-.63,2.03-.63h18.83c.91,0,1.61.21,2.1.63.42.49.63,1.19.63,2.1v4.34c0,1.05-.14,1.89-.35,2.45l-4.34,11.48h1.96c.91,0,1.61.28,2.1.7.42.49.63,1.12.63,2.03v23.94c0,.91-.14,1.61-.49,2.03-.42.49-1.12.7-2.24.7h-10.92v8.19c0,.91-.21,1.61-.7,2.1-.42.42-1.12.7-2.03.7h-5.18c-.91,0-1.61-.28-2.03-.7-.49-.49-.7-1.19-.7-2.1V16.54l-5.39,5.95h1.61c.7,0,1.33.21,1.82.7.49.49.7,1.26.7,2.17v3.22c0,.77-.21,1.33-.7,1.82-.49.49-1.12.77-1.82.84h-9.59l-1.61,1.82h8.89c.77,0,1.4.21,1.89.77.49.49.77,1.12.77,1.82v28c0,.77-.28,1.4-.77,1.89-.49.56-1.12.84-1.89.84h-26.6ZM172.97,42.44h-7.84v2.45h7.84v-2.45ZM172.97,54.21h-7.84v2.45h7.84v-2.45ZM172.06,22.49l1.96-2.1h-2.45v2.1h.49ZM199.08,16.19v6.65l2.52-6.65h-2.52ZM199.08,44.19h1.68c.91,0,1.33-.42,1.33-1.33v-5.67h-3.01v7Z"/><path class="cls-2" d="M40.27,70.96h-8.96c-1.66,0-3.13-.45-4.37-1.33-.2-.14-.39-.3-.56-.48-.14-.14-.28-.29-.4-.44-2.09,1.46-4.9,2.17-8.53,2.17H7.23c-1.94,0-3.62-.61-5-1.82-.07-.06-.14-.13-.21-.2-1.3-1.3-2.02-3.08-2.02-5v-5.81c0-1.88.72-3.63,2.02-4.93.15-.15.31-.29.48-.42.45-.33.91-.62,1.4-.86-1.05-1.05-2.29-2.99-2.29-6.26v-20.16c0-1.41.21-2.66.63-3.74-.2-.18-.38-.37-.53-.54-1.07-1.28-1.64-2.98-1.64-4.82v-4.13c0-2.42.51-4.16,1.61-5.47.09-.1.18-.2.27-.3,1.29-1.29,3.14-1.95,5.49-1.95h17.36c.33-.86.83-1.65,1.51-2.32.09-.1.19-.19.3-.27,1.22-1.02,2.76-1.54,4.56-1.54h8.89c1.78,0,3.36.53,4.56,1.54.97.83,1.56,1.73,1.91,2.6h17.33c.89,0,3.61,0,5.56,1.95.1.1.19.19.27.3,1.32,1.58,1.59,3.63,1.67,5.24,0,.08,0,.16,0,.24v3.85c0,2.04-.55,3.79-1.6,5.05-.15.18-.33.37-.53.55.44,1.09.66,2.38.66,3.85v20.02c0,3.27-1.28,5.24-2.36,6.33.49.24.96.52,1.4.86.17.13.33.27.48.42,1.3,1.3,2.02,3.05,2.02,4.93v5.81c0,1.93-.72,3.7-2.02,5-.07.07-.14.14-.21.2-1.38,1.2-3.06,1.82-5,1.82h-10.22c-3.63,0-6.44-.71-8.53-2.17-.13.15-.26.3-.4.44-.82.82-2.32,1.8-4.79,1.8ZM33.36,61.96h4.65v-12.37c0-2.07,1.4-3.82,3.31-4.34-1.91-.52-3.31-2.27-3.31-4.34v-1.96c0-1.43.67-2.71,1.72-3.54-1.04-.82-1.72-2.1-1.72-3.54v-1.96c0-1.88,1.16-3.49,2.79-4.17-1.64-.67-2.79-2.28-2.79-4.17v-2.59c0-2.49,2.01-4.5,4.5-4.5h19.86v-1.01h-19.86c-2.36,0-4.3-1.82-4.49-4.13h-4.68c-.19,2.31-2.12,4.13-4.49,4.13H9.07v1.01h19.79c2.49,0,4.5,2.01,4.5,4.5v2.59c0,1.88-1.16,3.49-2.79,4.17,1.64.67,2.79,2.28,2.79,4.17v1.96c0,1.43-.67,2.71-1.72,3.54,1.04.82,1.72,2.1,1.72,3.54v1.96c0,2.07-1.4,3.82-3.31,4.34,1.91.52,3.31,2.27,3.31,4.34v12.37ZM47.19,45.4c1.66.66,2.83,2.28,2.83,4.18v9.38c0,1.13.21,2,.55,2.33,0,0,.65.59,3.42.59h8.45v-1.85h-1.73c-2.09,0-3.94-.78-5.24-2.19-1.3-1.35-1.99-3.09-1.99-5.04v-3.22c0-2.49,2.01-4.5,4.5-4.5h2.92v-19h-6.51c1.28.79,2.14,2.21,2.14,3.83v1.96c0,1.43-.67,2.71-1.72,3.54,1.04.82,1.72,2.1,1.72,3.54v1.96c0,2.49-2.01,4.5-4.5,4.5h-4.84ZM9,61.89h8.45c2.76,0,3.41-.58,3.42-.59.35-.33.56-1.2.56-2.33v-9.38c0-1.9,1.17-3.52,2.83-4.18h-4.91c-2.49,0-4.5-2.01-4.5-4.5v-1.96c0-1.43.67-2.71,1.72-3.54-1.04-.82-1.72-2.1-1.72-3.54v-1.96c0-1.62.86-3.04,2.14-3.83h-6.37v19h2.85c2.49,0,4.5,2.01,4.5,4.5v3.22c0,1.95-.69,3.69-1.99,5.04-1.3,1.41-3.15,2.19-5.24,2.19h-1.73v1.85Z"/><path class="cls-2" d="M113.69,70.96h-8.96c-1.66,0-3.13-.45-4.37-1.33-.2-.14-.39-.3-.56-.48-.18-.18-.34-.36-.49-.54-2.11,1.43-4.91,2.19-8.34,2.27-.03,0-.07,0-.1,0h-10.22c-1.89,0-3.57-.63-5-1.88-.07-.07-.15-.13-.22-.2-1.32-1.32-2.02-3.03-2.02-4.93v-5.81c0-1.88.72-3.63,2.02-4.93.15-.15.31-.29.48-.42,1.29-.97,2.75-1.52,4.36-1.66.12-.01.25-.02.37-.02h1.73v-1.73c0-.37.03-.73.08-1.08-.84-.34-1.58-.8-2.24-1.39-.06-.05-.12-.11-.17-.16-1.05-1.05-2.3-3-2.3-6.33v-13.86c0-.88.08-1.66.23-2.35-1.16-.37-2.11-.99-2.86-1.86-.08-.1-.17-.2-.24-.31-.93-1.3-1.4-2.84-1.4-4.58v-4.06c0-2.62.62-4.51,1.88-5.78,1.29-1.29,3.14-1.94,5.49-1.94h17.12c.25-1.31.87-2.49,1.82-3.44.09-.1.19-.19.3-.27,1.22-1.02,2.76-1.54,4.56-1.54h8.89c2.19,0,3.66.84,4.49,1.54.88.75,1.85,1.94,2.19,3.72h17.05c.89,0,3.61,0,5.56,1.95,1.54,1.54,1.85,3.77,1.94,5.53,0,.08,0,.16,0,.24v3.78c0,1.92-.47,3.55-1.4,4.85-.08.11-.16.21-.25.31-.83.97-1.84,1.53-2.81,1.84.16.73.25,1.56.25,2.51v13.65c0,2.79-.85,4.98-2.54,6.5-.66.59-1.41,1.06-2.24,1.41.06.37.09.74.09,1.12v1.73h1.73c.12,0,.25,0,.37.02,1.61.13,3.07.69,4.36,1.66.17.13.33.27.48.42,1.3,1.3,2.02,3.05,2.02,4.93v5.81c0,1.91-.7,3.61-2.02,4.93-.07.07-.14.14-.22.2-1.43,1.25-3.11,1.88-5,1.88h-10.22s-.07,0-.1,0c-3.43-.08-6.23-.84-8.34-2.27-.15.19-.31.37-.49.54-.82.82-2.32,1.8-4.79,1.8ZM106.78,61.96h4.65v-17.55c0-2.49,2.01-4.5,4.5-4.5h15.66v-12.77h-44.83v12.77h15.52c2.49,0,4.5,2.01,4.5,4.5v17.55ZM127.47,61.89h8.4v-1.85h-1.73c-2.09,0-3.94-.78-5.24-2.19-1.3-1.35-1.99-3.09-1.99-5.04v-1.59h-3.46v7.75c0,1.25.24,1.91.46,2.11.08.08.91.74,3.56.81ZM82.42,61.89h8.4c2.66-.07,3.48-.74,3.56-.81.22-.2.46-.86.46-2.11v-7.75h-3.46v1.59c0,1.95-.69,3.69-1.99,5.04-1.3,1.41-3.15,2.19-5.24,2.19h-1.73v1.85ZM85.76,39.85h0,0ZM82.49,15.54h53.31v-.94h-19.93c-2.49,0-4.5-2.01-4.5-4.5v-.75h-4.51v.75c0,2.49-2.01,4.5-4.5,4.5h-19.86v.94ZM122.16,39.38h-26.04c-2.49,0-4.5-2.01-4.5-4.5v-2.8c0-2.49,2.01-4.5,4.5-4.5h26.04c2.49,0,4.5,2.01,4.5,4.5v2.8c0,2.49-2.01,4.5-4.5,4.5Z"/><path class="cls-2" d="M196.35,70.89h-5.18c-1.73,0-3.31-.5-4.54-1.44-1.21.93-2.69,1.44-4.28,1.44h-26.6c-2.01,0-3.85-.8-5.18-2.27-.9-.94-1.91-2.54-1.91-4.96v-4.92c-2.03-1.73-2.03-4.33-2.03-5.23v-5.91c-.08-.78-.07-1.47.03-2.13.1-.98.53-2.41,1.94-3.71l.07-.07v-6.03c0-.9.15-1.76.45-2.56-1.08-1.28-1.64-2.83-1.64-4.52v-3.22c0-1.44.31-2.77.9-3.88-.51-.9-.9-2.11-.9-3.68v-3.43c0-1.97.69-3.74,1.95-5,.88-.89,2.49-1.95,5.07-1.95h1.24c0-1.94.75-3.72,2.16-5.12,1.13-1.13,2.56-1.9,4.12-2.21.29-.06.58-.09.88-.09h6.09c.27,0,.54.02.8.07,1.6.29,3.02,1.04,4.2,2.23.07.07.14.14.2.22,1.21,1.39,1.86,3.06,1.88,4.83h.96c.81,0,1.59.13,2.32.37,1.19-1.11,2.7-1.79,4.37-1.96.15-.01.29-.02.44-.02.37-1.57,1.13-2.64,1.8-3.31.88-.88,2.51-1.95,5.21-1.95h18.83c2.01,0,3.7.58,5.03,1.72.17.15.33.31.48.48.78.91,1.72,2.53,1.72,5.03v4.34c0,1.55-.21,2.9-.64,4.03l-2.47,6.53c.32.2.62.42.91.66.17.15.33.31.48.48,1.14,1.33,1.72,3,1.72,4.96v23.94c0,2.06-.5,3.67-1.53,4.91-1.99,2.32-4.78,2.32-5.7,2.32h-6.42v3.69c0,2.7-1.1,4.36-2.02,5.28-1.29,1.3-3.15,2.02-5.21,2.02ZM192.94,61.89h1.64v-6.49c0-2.49,2.02-4.5,4.5-4.5h9.15v-20.4h-.19c-1.48,0-2.86-.73-3.7-1.94-.84-1.22-1.03-2.77-.51-4.15l4.34-11.48s0,0,0,0c0,0,.06-.29.06-.87v-2.57h-15.29s0,4.11,0,4.11c0,.51-.09,1.01-.25,1.47.16.46.25.96.25,1.47v45.34ZM157.66,61.89h22.85v-24.32h-7.05c-1.77,0-3.38-1.04-4.1-2.65-.73-1.61-.44-3.5.73-4.83l1.61-1.82c.85-.97,2.08-1.52,3.37-1.52h6.5c-1.16-.4-2.12-1.27-2.64-2.43-.72-1.63-.42-3.53.78-4.85l.82-.9c-.74.15-1.53.12-2.28-.12-.07-.02-.14-.05-.21-.07.04.07.07.15.1.22.71,1.64.39,3.55-.84,4.86l-1.96,2.1c-.85.91-2.04,1.43-3.29,1.43h-.49c-2.49,0-4.5-2.01-4.5-4.5v-2.1c0-1.99,1.29-3.68,3.08-4.27-1.79-.6-3.08-2.28-3.08-4.27v-2.85h-2.34v2.92c0,1.95-1.24,3.61-2.98,4.24,1.74.62,2.98,2.29,2.98,4.24v2.1c0,1.97-1.26,3.64-3.02,4.25h2.51c1.77,0,3.38,1.04,4.1,2.65.73,1.61.44,3.5-.73,4.83l-1.61,1.82c-.85.97-2.08,1.52-3.37,1.52h-4.95v5.86c0,1.12-.42,2.2-1.17,3.03l-.86.95v4.1c1.26.83,2.03,2.24,2.03,3.76v6.63ZM154.64,48.42s0,0,0,0c0,0,0,0,0,0ZM155.63,46.01h0s0,0,0,0ZM172.97,61.16h-7.84c-2.49,0-4.5-2.01-4.5-4.5v-2.45c0-2.49,2.01-4.5,4.5-4.5h7.84c2.49,0,4.5,2.01,4.5,4.5v2.45c0,2.49-2.01,4.5-4.5,4.5ZM172.97,49.39h-7.84c-2.49,0-4.5-2.01-4.5-4.5v-2.45c0-2.49,2.01-4.5,4.5-4.5h7.84c2.49,0,4.5,2.01,4.5,4.5v2.45c0,2.49-2.01,4.5-4.5,4.5ZM200.76,48.69h-1.68c-2.49,0-4.5-2.01-4.5-4.5v-7c0-2.49,2.01-4.5,4.5-4.5h3.01c2.49,0,4.5,2.01,4.5,4.5v5.67c0,3.38-2.45,5.83-5.83,5.83ZM199.09,27.34c-.27,0-.54-.02-.81-.07-2.14-.39-3.69-2.25-3.69-4.43v-6.65c0-2.49,2.01-4.5,4.5-4.5h2.52c1.48,0,2.86.73,3.7,1.94s1.03,2.77.5,4.15l-2.52,6.65c-.67,1.77-2.37,2.91-4.21,2.91Z"/><path class="cls-3" d="M40.27,69.46h-8.96c-1.36,0-2.51-.34-3.5-1.05-.13-.1-.26-.2-.38-.32-.5-.49-.88-1.04-1.14-1.62-.09.09-.18.19-.28.28-1.88,1.78-4.68,2.64-8.57,2.64H7.23c-1.59,0-2.9-.47-4.01-1.44-.05-.04-.1-.09-.14-.13-1.03-1.03-1.58-2.4-1.58-3.94v-5.81c0-1.48.56-2.85,1.58-3.87.1-.1.21-.19.32-.28,1.07-.8,2.24-1.25,3.58-1.36.08,0,.17-.01.25-.01h1.96c-1.72-.16-3.07-.69-4.11-1.63-.04-.04-.08-.07-.12-.11-.85-.85-1.86-2.44-1.86-5.2v-20.16c0-1.71.35-3.11,1.04-4.21-.58-.32-1-.7-1.3-1.05-.84-1-1.28-2.35-1.28-3.84v-4.13c0-2.05.4-3.48,1.26-4.51.06-.07.12-.13.18-.2,1.01-1.02,2.46-1.51,4.43-1.51h18.5c.18-1.06.66-1.99,1.43-2.76.06-.06.13-.12.2-.18.94-.79,2.16-1.19,3.6-1.19h8.89c1.43,0,2.67.41,3.6,1.19,1.11.95,1.58,2.02,1.76,2.94h18.44c2.01,0,3.49.49,4.5,1.51.06.06.12.13.18.2.81.97,1.22,2.31,1.32,4.35,0,.05,0,.11,0,.16v3.85c0,1.69-.43,3.1-1.25,4.09-.31.36-.73.74-1.31,1.06.72,1.08,1.09,2.51,1.09,4.3v20.02c0,2.22-.65,3.99-1.93,5.27-.04.04-.07.07-.11.11-1.03.93-2.37,1.47-3.99,1.63h1.84c.08,0,.17,0,.25.01,1.34.11,2.51.56,3.58,1.36.11.08.22.18.32.28,1.02,1.02,1.58,2.39,1.58,3.87v5.81c0,1.55-.55,2.91-1.58,3.94-.05.05-.09.09-.14.13-1.11.97-2.42,1.44-4.01,1.44h-10.22c-3.89,0-6.7-.86-8.57-2.64-.1-.1-.21-.2-.3-.3-.25.61-.62,1.16-1.12,1.65-.9.91-2.16,1.37-3.73,1.37ZM31.86,63.46h7.65v-13.87c0-1.66,1.34-3,3-3h3.01c1.66,0,3,1.34,3,3v9.38c0,1.63.34,2.78,1.02,3.42.39.37,1.5,1,4.45,1h9.95v-4.85s-3.23,0-3.23,0c-2.12,0-3.42-.92-4.15-1.72-1.03-1.07-1.58-2.45-1.58-4.01v-3.22c0-1.66,1.34-3,3-3h3.36c.49,0,.79-.07.93-.12.05-.13.13-.41.13-.94v-20.02c0-.4-.03-.66-.06-.82-.13-.03-.46-.1-1.07-.1h-18.76c-1.66,0-3-1.34-3-3v-2.59c0-1.66,1.34-3,3-3h21.36v-3.71c0-.11-.01-.21-.02-.3h-21.34c-1.66,0-3-1.34-3-3v-1.13h-7.65v1.13c0,1.66-1.34,3-3,3H7.57c0,.07,0,.14,0,.22v3.79h21.29c1.66,0,3,1.34,3,3v2.59c0,1.66-1.34,3-3,3H10.24c-.52,0-.86.05-1.08.09-.03.16-.05.41-.05.76v20.16c0,.43.05.72.1.88.16.04.49.11,1.1.11h3.15c1.66,0,3,1.34,3,3v3.22c0,1.56-.55,2.94-1.58,4.01-.73.8-2.03,1.72-4.15,1.72h-3.23v4.85h9.95c2.95,0,4.05-.62,4.45-1,.68-.64,1.02-1.79,1.02-3.42v-9.38c0-1.66,1.34-3,3-3h2.94c1.66,0,3,1.34,3,3v13.87ZM61.01,52.79s0,0,0,0t0,0ZM10.43,52.79s0,0,0,0t0,0ZM62.67,24.88s0,0,0,0c0,0,0,0,0,0ZM52.04,43.9h-9.52c-1.66,0-3-1.34-3-3v-1.96c0-1.66,1.34-3,3-3h9.52c1.66,0,3,1.34,3,3v1.96c0,1.66-1.34,3-3,3ZM28.86,43.9h-9.52c-1.66,0-3-1.34-3-3v-1.96c0-1.66,1.34-3,3-3h9.52c1.66,0,3,1.34,3,3v1.96c0,1.66-1.34,3-3,3ZM52.04,34.87h-9.52c-1.66,0-3-1.34-3-3v-1.96c0-1.66,1.34-3,3-3h9.52c1.66,0,3,1.34,3,3v1.96c0,1.66-1.34,3-3,3ZM28.86,34.87h-9.52c-1.66,0-3-1.34-3-3v-1.96c0-1.66,1.34-3,3-3h9.52c1.66,0,3,1.34,3,3v1.96c0,1.66-1.34,3-3,3Z"/><path class="cls-3" d="M113.69,69.46h-8.96c-1.36,0-2.51-.34-3.5-1.05-.13-.1-.26-.2-.38-.32-.52-.52-.91-1.09-1.18-1.71-.1.1-.2.19-.3.29-1.92,1.72-4.76,2.64-8.44,2.72h-10.29c-1.51,0-2.86-.51-4.01-1.51-.05-.04-.1-.09-.14-.14-1.05-1.05-1.58-2.35-1.58-3.87v-5.81c0-1.48.56-2.85,1.58-3.87.1-.1.21-.19.32-.28,1.07-.8,2.24-1.25,3.58-1.36.08,0,.17-.01.25-.01h3.23v-3.23c0-.73.14-1.44.42-2.1-1.23-.25-2.25-.74-3.06-1.48-.04-.04-.08-.07-.11-.11-1.23-1.23-1.86-3.01-1.86-5.27v-13.86c0-1.49.27-2.62.67-3.48-1.05-.1-2.57-.44-3.65-1.71-.06-.07-.11-.14-.16-.21-.74-1.04-1.12-2.29-1.12-3.71v-4.06c0-2.23.46-3.73,1.44-4.71,1.01-1.01,2.46-1.51,4.43-1.51h18.49v-.15c0-1.48.51-2.73,1.51-3.73.06-.06.13-.12.2-.18.94-.79,2.16-1.19,3.6-1.19h8.89c1.75,0,2.88.65,3.53,1.19,1.19,1.02,1.78,2.33,1.78,3.91v.15h18.42c2.01,0,3.49.49,4.5,1.51.92.92,1.39,2.32,1.51,4.55,0,.05,0,.11,0,.16v3.78c0,1.62-.37,2.93-1.12,3.98-.05.07-.11.14-.16.21-1.04,1.21-2.52,1.58-3.6,1.7.45.98.68,2.2.68,3.63v13.65c0,2.35-.69,4.16-2.04,5.38-.84.75-1.88,1.27-3.07,1.54.28.66.42,1.38.42,2.11v3.23h3.23c.08,0,.17,0,.25.01,1.34.11,2.51.56,3.58,1.36.11.08.22.18.32.28,1.02,1.02,1.58,2.39,1.58,3.87v5.81c0,1.52-.53,2.82-1.58,3.87-.05.05-.09.09-.14.14-1.15,1-2.49,1.51-4.01,1.51h-10.22c-3.75-.09-6.59-1-8.51-2.72-.11-.1-.22-.2-.33-.31-.25.64-.64,1.23-1.15,1.74-.9.91-2.16,1.37-3.73,1.37ZM105.28,63.46h7.65v-19.05c0-1.66,1.34-3,3-3h16.1c.52,0,.82-.1.95-.17.04-.11.11-.4.11-.96v-13.65c0-.41-.03-.68-.06-.86-.21-.07-.56-.13-1.07-.13h-45.58c-.55,0-.89.05-1.07.1-.03.16-.06.4-.06.75v13.86c0,.5.06.8.1.95.16.04.5.11,1.1.11h15.82c1.66,0,3,1.34,3,3v19.05ZM121.94,49.71v9.25c0,1.57.32,2.65.96,3.23.47.42,1.68,1.13,4.58,1.2h9.88v-4.85h-3.23c-2.12,0-3.42-.92-4.15-1.72-1.03-1.07-1.58-2.45-1.58-4.01v-3.09h-6.46ZM80.92,63.36l9.95.03c2.83-.07,4.04-.78,4.51-1.2.64-.57.96-1.66.96-3.23v-9.25h-6.46v3.09c0,1.56-.55,2.94-1.58,4.01-.73.8-2.03,1.72-4.15,1.72h-3.23v4.83ZM134.43,52.79s0,0,0,0t0,0ZM83.85,52.79s0,0,0,0t0,0ZM133.36,25.93h.01-.01ZM85.08,25.84s0,0,0,0c0,0,0,0,0,0ZM80.99,17.04h56.31v-3.64c0-.11-.01-.21-.02-.3h-21.41c-1.66,0-3-1.34-3-3v-2.25h-7.51s0,2.25,0,2.25c0,1.66-1.34,3-3,3h-21.36c0,.07,0,.14,0,.22v3.72ZM122.16,37.88h-26.04c-1.66,0-3-1.34-3-3v-2.8c0-1.66,1.34-3,3-3h26.04c1.66,0,3,1.34,3,3v2.8c0,1.66-1.34,3-3,3Z"/><path class="cls-3" d="M196.35,69.39h-5.18c-1.66,0-3.14-.56-4.15-1.58-.14-.14-.26-.28-.38-.43-.06.07-.13.15-.2.22-1.06,1.17-2.47,1.79-4.08,1.79h-26.6c-1.61,0-3.03-.62-4.08-1.79-.7-.73-1.5-1.99-1.5-3.94v-5.68s-.09-.06-.14-.09c-1.9-1.26-1.9-3.53-1.9-4.38v-5.99c-.07-.69-.07-1.29.01-1.84.07-.81.42-1.87,1.51-2.86l.5-.55v-6.61c0-1.06.25-2.03.74-2.86-.1-.09-.19-.17-.29-.27-1.1-1.1-1.65-2.42-1.65-3.94v-3.22c0-1.55.42-2.91,1.18-3.91-.6-.73-1.18-1.9-1.18-3.65v-3.43c0-2.01.82-3.25,1.51-3.94.69-.69,1.94-1.51,4.01-1.51h2.74v-1.48c0-1.55.59-2.96,1.72-4.08.92-.92,2.08-1.55,3.35-1.8.19-.04.39-.06.59-.06h6.09c.18,0,.36.02.54.05,1.31.24,2.43.83,3.41,1.81.05.05.09.09.13.14,1,1.15,1.51,2.47,1.51,3.94v1.41h2.46c.99,0,1.91.22,2.71.66l.37-.42s.08-.09.12-.13c.97-.97,2.23-1.56,3.64-1.7.54-.05,1.07,0,1.58.13.06-1.6.59-2.91,1.57-3.88.68-.69,1.96-1.51,4.15-1.51h18.83c1.64,0,3.01.46,4.05,1.35.12.1.22.21.32.32.9,1.05,1.35,2.41,1.35,4.05v4.34c0,1.35-.19,2.56-.54,3.5l-2.95,7.8c.67.24,1.28.59,1.81,1.05.12.1.22.21.32.32.91,1.06,1.35,2.36,1.35,3.98v23.94c0,1.7-.39,2.99-1.18,3.95-1.53,1.78-3.8,1.78-4.55,1.78h-7.92v5.19c0,1.76-.53,3.18-1.58,4.22-1.01,1.02-2.49,1.58-4.15,1.58ZM191.44,63.39h4.64v-7.99c0-1.66,1.34-3,3-3h10.65v-23.4h-1.69c-.99,0-1.91-.48-2.47-1.29-.56-.81-.69-1.84-.34-2.77l4.34-11.48s.16-.43.16-1.39v-4.07h-18.29v5.61c0,.53-.14,1.03-.38,1.47.25.44.38.94.38,1.47v46.84ZM156.16,63.39h25.85v-27.32h-8.55c-1.18,0-2.25-.69-2.74-1.77-.48-1.08-.29-2.34.49-3.22l1.61-1.82c.57-.64,1.39-1.01,2.25-1.01h9.11v-2.75s-1.13,0-1.13,0c-1.19,0-2.26-.7-2.74-1.78-.48-1.08-.28-2.35.52-3.23l4.89-5.4-1.48-1.61-2.38,2.68c-.79.89-2.03,1.23-3.15.87-1.01-.32-1.77-1.15-2.01-2.17h-5.13c-1.66,0-3-1.34-3-3v-4.35s0,0,0,0h-5.24s-.06.04-.09.06v4.35c0,1.66-1.34,3-3,3h-5.26v2.47h5.26c1.66,0,3,1.34,3,3v2.1c0,1.66-1.34,3-3,3h-5.26v2.75h9.25c1.18,0,2.25.69,2.74,1.77.48,1.08.29,2.34-.49,3.22l-1.61,1.82c-.57.64-1.39,1.01-2.25,1.01h-6.45v7.36c0,.75-.28,1.47-.78,2.02l-1.29,1.42s0,.07.01.12c.01.12.02.25.02.37v5.08c.15.05.3.12.44.19.98.52,1.59,1.53,1.59,2.64v8.13ZM172.97,59.66h-7.84c-1.66,0-3-1.34-3-3v-2.45c0-1.66,1.34-3,3-3h7.84c1.66,0,3,1.34,3,3v2.45c0,1.66-1.34,3-3,3ZM172.97,47.89h-7.84c-1.66,0-3-1.34-3-3v-2.45c0-1.66,1.34-3,3-3h7.84c1.66,0,3,1.34,3,3v2.45c0,1.66-1.34,3-3,3ZM200.76,47.19h-1.68c-1.66,0-3-1.34-3-3v-7c0-1.66,1.34-3,3-3h3.01c1.66,0,3,1.34,3,3v5.67c0,2.55-1.78,4.33-4.33,4.33ZM199.09,25.84c-.18,0-.36-.02-.54-.05-1.42-.26-2.46-1.5-2.46-2.95v-6.65c0-1.66,1.34-3,3-3h2.52c.99,0,1.91.48,2.47,1.3s.69,1.85.34,2.77l-2.52,6.65c-.45,1.18-1.58,1.94-2.8,1.94ZM172.06,25.49h-.49c-1.66,0-3-1.34-3-3v-2.1c0-1.66,1.34-3,3-3h2.45c1.19,0,2.28.71,2.75,1.8.48,1.1.26,2.37-.56,3.24l-1.96,2.1c-.57.61-1.36.95-2.19.95Z"/><path class="cls-2" d="M28.86,21.58v-2.59H7.44c-1.12,0-1.89-.28-2.31-.77-.35-.42-.56-1.12-.56-1.89v-4.13c0-1.33.21-2.17.56-2.59.42-.42,1.19-.63,2.31-.63h21.42v-2.03c0-.7.21-1.19.63-1.61.42-.35.98-.49,1.68-.49h8.89c.63,0,1.26.14,1.68.49.49.42.77.91.77,1.61v2.03h21.35c1.19,0,1.96.21,2.38.63.35.42.56,1.26.63,2.59v3.85c0,.98-.21,1.75-.56,2.17-.42.49-1.26.77-2.45.77h-21.35v2.59h18.76c1.26,0,2.31.21,3.01.77.77.49,1.12,1.54,1.12,3.15v20.02c0,1.4-.35,2.45-1.05,3.15-.7.63-1.75.91-3.01.91h-3.36v3.22c0,.84.28,1.47.77,1.96.49.56,1.19.77,1.96.77h3.5c.84.07,1.47.35,2.03.77.49.49.7,1.12.7,1.75v5.81c0,.7-.21,1.33-.7,1.82-.56.49-1.19.7-2.03.7h-10.22c-3.01,0-5.18-.56-6.51-1.82-1.33-1.26-1.96-3.15-1.96-5.6v-9.38h-3.01v14.77c0,.7-.21,1.19-.63,1.61-.35.35-.91.49-1.61.49h-8.96c-.7,0-1.26-.14-1.75-.49-.42-.42-.7-.91-.7-1.61v-14.77h-2.94v9.38c0,2.45-.63,4.34-1.96,5.6-1.33,1.26-3.5,1.82-6.51,1.82H7.23c-.84,0-1.47-.21-2.03-.7-.49-.49-.7-1.12-.7-1.82v-5.81c0-.63.21-1.26.7-1.75.56-.42,1.19-.7,2.03-.77h3.5c.77,0,1.47-.21,1.96-.77.49-.49.77-1.12.77-1.96v-3.22h-3.15c-1.47,0-2.52-.28-3.22-.91-.63-.63-.98-1.68-.98-3.08v-20.16c0-1.54.35-2.52.98-3.08.63-.49,1.68-.77,3.15-.77h18.62ZM19.34,31.87h9.52v-1.96h-9.52v1.96ZM19.34,40.9h9.52v-1.96h-9.52v1.96ZM42.51,31.87h9.52v-1.96h-9.52v1.96ZM42.51,40.9h9.52v-1.96h-9.52v1.96Z"/><path class="cls-2" d="M96.82,46.71c.77.07,1.33.35,1.82.77.42.49.7,1.12.7,1.82v9.66c0,2.45-.63,4.27-1.96,5.46-1.33,1.19-3.5,1.89-6.51,1.96h-10.22c-.84,0-1.47-.28-2.03-.77-.49-.49-.7-1.05-.7-1.75v-5.81c0-.63.21-1.26.7-1.75.56-.42,1.19-.7,2.03-.77h3.5c.77,0,1.47-.21,1.96-.77.49-.49.77-1.12.77-1.96v-3.5c0-.7.28-1.33.77-1.82.49-.42,1.05-.7,1.82-.77h7.35ZM78.55,19.34c-.35-.49-.56-1.12-.56-1.96v-4.06c0-1.33.21-2.24.56-2.59.42-.42,1.19-.63,2.31-.63h21.49v-3.15c0-.7.21-1.19.63-1.61.42-.35.98-.49,1.68-.49h8.89c.63,0,1.19.14,1.61.49.49.42.7.91.7,1.61v3.15h21.42c1.19,0,1.96.21,2.38.63.35.35.56,1.26.63,2.59v3.78c0,1.05-.21,1.75-.56,2.24-.42.49-1.26.7-2.45.7h-56.43c-1.12,0-1.89-.21-2.31-.7ZM131.96,22.63c1.26,0,2.31.28,3.01.77.77.49,1.12,1.61,1.12,3.22v13.65c0,1.47-.35,2.52-1.05,3.15s-1.75.98-3.01.98h-16.1v19.95c0,.7-.21,1.19-.63,1.61-.35.35-.91.49-1.61.49h-8.96c-.7,0-1.26-.14-1.75-.49-.42-.42-.7-.91-.7-1.61v-19.95h-15.82c-1.47,0-2.52-.28-3.22-.91-.63-.63-.98-1.68-.98-3.15v-13.86c0-1.47.35-2.52.98-3.01.63-.56,1.68-.84,3.15-.84h45.58ZM96.12,34.88h26.04v-2.8h-26.04v2.8ZM130.63,47.48c.49.49.77,1.12.77,1.82v3.5c0,.84.28,1.47.77,1.96.49.56,1.19.77,1.96.77h3.5c.84.07,1.47.35,2.03.77.49.49.7,1.12.7,1.75v5.81c0,.7-.21,1.26-.7,1.75-.56.49-1.19.77-2.03.77h-10.22c-3.01-.07-5.18-.77-6.51-1.96s-1.96-3.01-1.96-5.46v-9.66c0-.7.28-1.33.7-1.82.49-.42,1.05-.7,1.82-.77h7.35c.77.07,1.33.35,1.82.77Z"/><path class="cls-2" d="M155.75,66.39c-.77,0-1.4-.28-1.89-.84-.49-.49-.7-1.12-.7-1.89v-8.4c-.63.42-1.05.42-1.47.14-.42-.28-.56-.91-.56-1.89v-6.16c-.07-.56-.07-.98,0-1.33,0-.35.21-.7.63-1.05l1.4-1.54v-7.77c0-.7.21-1.33.7-1.82.49-.56,1.12-.77,1.89-.77h6.86l1.61-1.82h-9.73c-.63-.07-1.26-.35-1.75-.84-.49-.49-.77-1.05-.77-1.82v-3.22c0-1.05.28-1.82.7-2.24.49-.42,1.12-.63,1.82-.63h5.74v-2.1h-5.74c-.84,0-1.47-.21-1.89-.7-.42-.42-.63-1.05-.63-1.89v-3.43c0-.77.21-1.4.63-1.82.42-.42,1.05-.63,1.89-.63h5.74v-4.48c0-.77.28-1.4.84-1.96.49-.49,1.12-.84,1.82-.98h6.09c.77.14,1.33.49,1.82.98.49.56.77,1.19.77,1.96v4.41h5.46c.7,0,1.33.21,1.82.7.49.42.7.98.77,1.61l2.73-3.08c.49-.49,1.12-.77,1.82-.84.77,0,1.33.28,1.89.77l2.38,2.59v-5.88c0-.91.21-1.61.7-2.1.42-.42,1.12-.63,2.03-.63h18.83c.91,0,1.61.21,2.1.63.42.49.63,1.19.63,2.1v4.34c0,1.05-.14,1.89-.35,2.45l-4.34,11.48h1.96c.91,0,1.61.28,2.1.7.42.49.63,1.12.63,2.03v23.94c0,.91-.14,1.61-.49,2.03-.42.49-1.12.7-2.24.7h-10.92v8.19c0,.91-.21,1.61-.7,2.1-.42.42-1.12.7-2.03.7h-5.18c-.91,0-1.61-.28-2.03-.7-.49-.49-.7-1.19-.7-2.1V16.54l-5.39,5.95h1.61c.7,0,1.33.21,1.82.7.49.49.7,1.26.7,2.17v3.22c0,.77-.21,1.33-.7,1.82-.49.49-1.12.77-1.82.84h-9.59l-1.61,1.82h8.89c.77,0,1.4.21,1.89.77.49.49.77,1.12.77,1.82v28c0,.77-.28,1.4-.77,1.89-.49.56-1.12.84-1.89.84h-26.6ZM172.97,42.44h-7.84v2.45h7.84v-2.45ZM172.97,54.21h-7.84v2.45h7.84v-2.45ZM172.06,22.49l1.96-2.1h-2.45v2.1h.49ZM199.08,16.19v6.65l2.52-6.65h-2.52ZM199.08,44.19h1.68c.91,0,1.33-.42,1.33-1.33v-5.67h-3.01v7Z"/></g></svg>