<?xml version="1.0" encoding="UTF-8"?><svg id="_レイヤー_2" xmlns="http://www.w3.org/2000/svg" viewBox="0 0 218.14 70.4"><defs><style>.cls-1,.cls-2,.cls-3{stroke-width:0px;}.cls-2{fill:#198caa;}.cls-3{fill:#fff;}</style></defs><g id="_レイヤー_4"><path class="cls-1" d="M19.2,5.2c.42-.35,1.05-.56,1.82-.56h9.59c.77,0,1.4.21,1.82.56.35.35.56,1.05.56,2.1v55.73c0,1.12-.21,1.82-.56,2.17-.42.35-1.05.56-1.82.7h-9.59c-.77-.07-1.4-.28-1.82-.63s-.63-1.12-.63-2.24v-9.31l-11.2,4.76c-.7.28-1.33.21-1.96-.21-.63-.42-.91-1.26-.91-2.52v-7.28c0-.91.21-1.61.56-2.1.42-.56,1.19-1.05,2.31-1.54l11.2-4.97v-6.72h-10.29c-.7,0-1.33-.28-1.82-.77-.42-.42-.7-1.05-.7-1.82v-8.12c0-.63.28-1.26.7-1.75.49-.56,1.12-.84,1.82-.84h10.29V7.3c0-1.05.21-1.75.63-2.1ZM51.61,5.48c.49.49.77,1.05.77,1.89v12.46h9.38c.7,0,1.33.28,1.82.84.56.49.77,1.12.77,1.75v8.12c0,.77-.21,1.4-.77,1.82-.49.49-1.12.77-1.82.77h-9.38v16.59c0,.84.28,1.54.77,2.03.56.49,1.26.77,2.03.77h8.75c.84.07,1.47.28,2.03.77.49.49.7,1.05.7,1.75v8.33c0,.91-.28,1.54-.77,1.96-.49.35-1.12.56-1.96.56h-20.3c-2.24,0-3.71-.42-4.55-1.19-.77-.77-1.19-2.31-1.19-4.69V7.37c0-.84.28-1.4.7-1.89.49-.49,1.12-.77,1.82-.84h9.38c.77.07,1.33.35,1.82.84Z"/><path class="cls-1" d="M78.31,63.8c-.42-.35-.56-.91-.49-1.75v-7c-.07-1.05.07-1.89.49-2.38.35-.49.98-1.19,1.82-2.1l10.64-9.31c.91-.28,1.61-.21,1.96.14.42.35.63,1.12.63,2.17v7c0,.77-.21,1.4-.63,1.75-.35.35-1.12,1.12-2.24,2.31l-9.8,9.03c-1.19.42-2.03.49-2.38.14ZM80.97,33.62c-1.12-.7-1.89-1.26-2.31-1.54-.42-.35-.56-.98-.56-1.75v-7c0-1.12.14-1.82.56-2.17.42-.35,1.19-.56,2.31-.56l9.24,5.04c1.19.63,2.03,1.19,2.38,1.54.42.35.56,1.05.49,2.17v6.44c.07.84-.21,1.47-.77,2.03-.56.56-1.26.77-2.1.7l-9.24-4.9ZM81.19,18.01c-1.05-.7-1.82-1.19-2.24-1.54-.42-.35-.63-.91-.63-1.75v-7c0-1.05.21-1.82.63-2.17.42-.35,1.19-.56,2.24-.56l9.31,5.11c1.19.63,1.96,1.12,2.38,1.47.35.35.56,1.12.49,2.17v6.44c.07.84-.21,1.54-.77,2.03-.56.56-1.26.84-2.1.7l-9.31-4.9ZM136.07,45.73v4.06h.63c1.19,0,2.03.21,2.38.56.42.35.56,1.05.56,2.17v4.55c0,.84-.14,1.47-.56,1.75-.35.35-1.19.56-2.38.56h-.63v3.71c-.14.77-.49,1.4-.98,1.96-.49.56-1.19.84-1.96.84h-4.55c-.91,0-1.61-.28-2.17-.84-.49-.56-.77-1.19-.84-1.96v-3.71h-23.87c-.91,0-1.61-.28-2.1-.84-.56-.56-.84-1.19-.91-1.89v-10.92h-1.33c-1.12,0-1.82-.14-2.24-.49-.42-.35-.63-.91-.63-1.75v-4.62c0-1.12.21-1.82.63-2.17.42-.42,1.12-.56,2.24-.56h1.33v-7.77h-.84c-.91,0-1.61-.21-2.1-.7-.56-.49-.77-1.26-.77-2.31v-5.25c0-1.05.14-1.82.42-2.31.28-.49.63-.77,1.05-.91.91-.07,1.75-.42,2.38-.98.7-.56,1.05-1.68,1.05-3.36v-5.04c0-.98.21-1.75.63-2.24.49-.49,1.26-.7,2.52-.7h2.17c.91,0,1.61.21,2.03.7.35.49.56,1.26.56,2.31v2.31h28.91c1.19,0,2.03.14,2.38.56.42.35.56,1.05.56,2.17v4.48c0,.84-.14,1.4-.56,1.75-.35.35-1.19.49-2.38.49h-28.98c-.07,1.12-.28,2.1-.56,3.01h25.97c.77,0,1.47.28,1.96.84.49.56.84,1.19.98,1.82v11.13h1.19c1.19,0,1.96.14,2.38.56.35.35.56,1.05.56,2.17v4.62c0,.84-.21,1.4-.56,1.75-.42.35-1.19.49-2.38.49h-1.19ZM109.26,32.08v4.06h2.94v-4.06h-2.94ZM112.2,45.73h-2.94v4.06h2.94v-4.06ZM122.35,36.14h3.22v-4.06h-3.22v4.06ZM125.57,49.79v-4.06h-3.22v4.06h3.22Z"/><path class="cls-1" d="M151.33,15.91c-.42-.49-.63-1.33-.63-2.59v-5.81c-.14-1.12.07-1.89.49-2.24s1.26-.28,2.59.28l10.92,4.69c1.26.42,2.1.84,2.59,1.26.42.42.56,1.12.49,2.1v6.72c0,.84-.21,1.4-.63,1.75-.49.35-1.26.21-2.45-.28l-10.92-4.76c-1.19-.28-2.03-.7-2.45-1.12ZM167.64,49.86c-.07,1.68.28,2.87.91,3.5.63.63,1.82.91,3.5.91h39.06c.84,0,1.47.28,1.89.77.42.49.63,1.12.63,1.82v7c0,.7-.28,1.19-.77,1.54-.42.35-1.05.49-1.75.35h-42.56c-2.52,0-4.34-.42-5.46-1.12-1.19-.7-2.1-1.89-2.8-3.43l-4.06,3.15c-.84.84-1.61,1.26-2.38,1.4-1.05-.14-1.75-.35-2.1-.7-.28-.35-.42-.98-.42-1.82v-6.65c0-1.33.77-2.52,2.45-3.64l4.62-3.64c.77-.63,1.19-1.4,1.4-2.31v-8.12c0-.98-.42-1.47-1.26-1.47h-5.11c-.77,0-1.33-.28-1.82-.77-.49-.49-.7-1.12-.7-1.96v-6.72c0-.63.21-1.26.7-1.68.49-.49,1.05-.77,1.82-.77h11.69c.7,0,1.26.28,1.75.77.49.42.7,1.05.77,1.68v21.91ZM196.98,19.2v2.45h13.58c.77,0,1.26.14,1.61.49.35.42.56.91.56,1.68v26.32c0,.77-.21,1.33-.56,1.68s-.84.49-1.61.49h-38.36c-.7,0-1.26-.14-1.61-.49-.28-.35-.49-.91-.49-1.68v-26.32c0-.77.21-1.26.49-1.68.35-.35.91-.49,1.61-.49h13.37v-2.45h-13.93c-.7,0-1.26-.21-1.68-.56-.42-.35-.63-.84-.63-1.61v-3.29c0-.84.21-1.47.63-1.82.42-.42.98-.63,1.68-.63h5.95l-2.31-3.57c-.49-1.05-.63-1.89-.35-2.45.28-.56.77-.77,1.54-.77h4.48c.91,0,1.68.07,2.24.35.56.21,1.05.63,1.4,1.19l3.08,5.25h6.86l2.17-4.48c.63-1.54,1.75-2.31,3.29-2.31h4.9c1.12.35,1.82.91,1.96,1.61.14.7.07,1.33-.21,1.89l-1.47,3.29h6.02c.63,0,1.19.21,1.61.63.49.35.7,1.05.7,2.1v2.73c0,.91-.21,1.54-.7,1.89-.42.35-.98.56-1.61.56h-14.21ZM201.46,28.09h-20.16v2.24h20.16v-2.24ZM201.46,35.93h-20.16v2.17h20.16v-2.17ZM201.46,43.49h-20.16v2.38h20.16v-2.38Z"/><path class="cls-2" d="M63.94,70.4h-20.3c-3.36,0-5.85-.78-7.59-2.37-.02-.02-.04-.04-.06-.06-.12.14-.24.28-.37.41-.1.1-.2.19-.31.28-1.32,1.1-2.86,1.48-3.89,1.67-.27.05-.54.07-.81.07h-9.59c-.14,0-.27,0-.41-.02-1.72-.16-3.16-.71-4.29-1.66-1.49-1.24-2.25-3.16-2.25-5.7v-2.51l-4.94,2.1c-2.17.87-4.34.64-6.22-.61-1.33-.88-2.91-2.69-2.91-6.26v-7.28c0-1.81.48-3.44,1.4-4.72.02-.03.04-.05.06-.08,1.17-1.56,2.9-2.44,4.11-2.96l6.92-3.07h-4.2c-1.88,0-3.66-.74-5-2.09-1.3-1.29-2.01-3.07-2.01-5v-8.12c0-1.68.63-3.34,1.79-4.68,1.37-1.56,3.21-2.41,5.23-2.41h5.79V7.3c0-2.44.76-4.31,2.25-5.56h0c1.26-1.05,2.88-1.6,4.7-1.6h9.59c1.81,0,3.44.55,4.7,1.6.11.09.21.18.3.28.01.01.03.03.04.04,1.18-1.08,2.66-1.74,4.31-1.9.15-.02.3-.02.45-.02h9.38c.14,0,.27,0,.41.02,1.79.16,3.34.88,4.6,2.14,1.38,1.39,2.08,3.09,2.08,5.07v7.96h4.88c1.92,0,3.69.77,5.01,2.16,1.34,1.29,2.08,3.02,2.08,4.93v8.12c0,2.76-1.33,4.39-2.29,5.2-1.32,1.22-3.01,1.89-4.8,1.89h-4.88v10.39h7.05c.12,0,.25,0,.37.02,1.85.15,3.36.77,4.62,1.87.07.07.15.13.22.2,1.32,1.32,2.02,3.03,2.02,4.93v8.33c0,2.17-.83,4.08-2.34,5.37-.1.09-.21.17-.32.25-1.3.93-2.84,1.4-4.58,1.4ZM42.46,61.33c.28.04.66.07,1.17.07h18.53v-4.37h-6.98c-1.83,0-3.6-.67-4.99-1.88-.08-.07-.15-.13-.22-.21-1.35-1.35-2.09-3.2-2.09-5.21v-16.59c0-2.49,2.01-4.5,4.5-4.5h7.47v-4.3h-7.47c-2.49,0-4.5-2.01-4.5-4.5v-10.69h-5.49v50.88c0,.58.03,1.01.07,1.31ZM23.07,61.4h5.42V9.14h-5.42v10.69c0,2.49-2.01,4.5-4.5,4.5h-8.31v4.3h8.31c2.49,0,4.5,2.01,4.5,4.5v6.72c0,1.78-1.05,3.39-2.67,4.11l-11.2,4.97c-.07.03-.13.06-.19.09v3.87s7.81-3.32,7.81-3.32c1.39-.59,2.98-.45,4.24.39,1.26.83,2.02,2.24,2.02,3.75v7.68ZM19.2,5.2h0,0Z"/><path class="cls-2" d="M133.13,70.4h-4.55c-2.09,0-3.94-.75-5.35-2.16-.07-.07-.14-.14-.2-.22-1.04-1.19-1.68-2.58-1.89-4.13h-19.43c-2.14,0-4.04-.8-5.38-2.26-1.18-1.22-1.9-2.73-2.09-4.39-.14.15-.29.31-.45.48-.07.08-.15.15-.23.22l-9.8,9.03c-.45.41-.98.73-1.55.93-2.92,1.03-5.25.77-6.91-.78-1.03-.91-2.12-2.54-1.96-5.24v-6.71c-.12-2.15.36-3.92,1.42-5.26.47-.63,1.1-1.35,2.08-2.41.11-.12.22-.23.34-.33l7.46-6.52-5.76-3.06c-.09-.05-.19-.1-.28-.16-.88-.55-1.56-1.02-2.05-1.36l-.37-.25c-.13-.09-.27-.19-.39-.29-1.45-1.21-2.18-2.96-2.18-5.21v-7c0-.88,0-2.98,1.3-4.7-.61-.92-1.09-2.19-1.09-3.91v-7c0-2.49.76-4.39,2.25-5.63,1.28-1.06,3-1.6,5.12-1.6.76,0,1.5.19,2.17.56l9.31,5.11c1.13.6,2.04,1.15,2.72,1.66v-.3c0-2.1.58-3.84,1.71-5.17.07-.09.15-.17.23-.25,1.81-1.81,4.12-2.02,5.7-2.02h2.17c2.89,0,4.56,1.24,5.45,2.27.08.1.17.2.24.31.56.78.96,1.7,1.18,2.74h24.63c1.14,0,3.74,0,5.56,1.87,1.88,1.81,1.88,4.37,1.88,5.36v4.48c0,2.18-.69,3.89-2.04,5.09-.56.51-1.19.87-1.84,1.12.08.24.15.49.2.73.07.32.11.65.11.97v7.1c.79.28,1.57.72,2.25,1.4,1.25,1.24,1.88,3.05,1.88,5.35v4.62c0,2.28-.83,3.76-1.63,4.66,1.07,1.65,1.07,3.55,1.07,4.37v4.55c0,2.8-1.12,4.37-2.19,5.22-.41.35-.87.64-1.38.87,0,.24-.03.49-.07.73-.27,1.51-.95,2.9-2.02,4.12-1.34,1.54-3.24,2.38-5.35,2.38ZM130.07,61.4h1.5v-2.01c0-2.17,1.53-3.98,3.57-4.4v-.78c-2.04-.43-3.57-2.24-3.57-4.4v-4.06c0-2.36,1.82-4.3,4.13-4.48v-.62c-2.31-.19-4.13-2.12-4.13-4.48v-9.29h-24.41c-1.43,0-2.77-.68-3.62-1.83-.85-1.15-1.1-2.63-.68-4,.21-.69.33-1.32.37-1.97.15-2.37,2.12-4.22,4.49-4.22h27.42v-.45h-27.35c-1.36,0-2.59-.61-3.41-1.57-.05,2.91-.94,5.11-2.64,6.52-.67.58-1.43,1.05-2.26,1.39v3.21c2.11.37,3.71,2.21,3.71,4.43v7.77c0,2.38-1.85,4.34-4.2,4.49v.61c2.35.15,4.2,2.11,4.2,4.49v9.15h22.38c2.49,0,4.5,2.01,4.5,4.5v2.01ZM82.32,54.86c0,.06,0,.12,0,.19v.99l5.01-4.61c.63-.66,1.14-1.2,1.54-1.6v-.92l-5.59,4.89c-.27.3-.67.73-.96,1.07ZM81.73,55.59h0s0,0,0,0ZM89.85,48.86s0,0-.01.01c0,0,0,0,.01-.01ZM89.85,48.86s0,0,0,0c0,0,0,0,0,0ZM83.23,29.73l5.36,2.84v-2.69c-.14-.08-.3-.17-.47-.26l-5.51-3v2.71c.19.13.4.26.62.4ZM89.71,30.64h0s0,0,0,0ZM83.48,14.14l5.38,2.83v-2.63c-.14-.08-.3-.16-.48-.26l-5.58-3.06v2.67c.08.05.15.1.23.15l.44.29ZM125.57,54.29h-3.22c-2.49,0-4.5-2.01-4.5-4.5v-4.06c0-2.49,2.01-4.5,4.5-4.5h3.22c2.49,0,4.5,2.01,4.5,4.5v4.06c0,2.49-2.01,4.5-4.5,4.5ZM112.2,54.29h-2.94c-2.49,0-4.5-2.01-4.5-4.5v-4.06c0-2.49,2.01-4.5,4.5-4.5h2.94c2.49,0,4.5,2.01,4.5,4.5v4.06c0,2.49-2.01,4.5-4.5,4.5ZM125.57,40.64h-3.22c-2.49,0-4.5-2.01-4.5-4.5v-4.06c0-2.49,2.01-4.5,4.5-4.5h3.22c2.49,0,4.5,2.01,4.5,4.5v4.06c0,2.49-2.01,4.5-4.5,4.5ZM112.2,40.64h-2.94c-2.49,0-4.5-2.01-4.5-4.5v-4.06c0-2.49,2.01-4.5,4.5-4.5h2.94c2.49,0,4.5,2.01,4.5,4.5v4.06c0,2.49-2.01,4.5-4.5,4.5Z"/><path class="cls-2" d="M211.64,70.31c-.29,0-.58-.02-.87-.05h-42.22c-3.26,0-5.88-.6-7.79-1.77-.46-.27-.89-.58-1.31-.93l-.26.21c-1.4,1.33-2.88,2.13-4.53,2.43-.46.08-.93.1-1.4.03-1.46-.19-3.3-.6-4.69-1.98-.12-.12-.23-.24-.33-.37-.95-1.18-1.41-2.7-1.41-4.63v-6.65c0-1.98.75-4.84,4.29-7.28l4.18-3.29v-4.11h-1.87c-1.91,0-3.63-.72-5-2.09-1.34-1.34-2.02-3.07-2.02-5.14v-6.72c0-1.94.77-3.74,2.13-4.97.96-.92,2.09-1.53,3.32-1.81-1.56-.48-2.81-1.17-3.71-2.08-.08-.08-.16-.17-.24-.25-1.15-1.35-1.71-3.15-1.71-5.52v-5.57c-.32-3.36,1.17-5.16,2.11-5.94,1.83-1.52,4.25-1.66,7.22-.41l10.79,4.63c1.09.37,1.99.77,2.74,1.22.41-.16.85-.28,1.3-.35-.19-1.31,0-2.53.55-3.64.49-.98,2.02-3.26,5.57-3.26h4.48c1.22,0,2.65.09,4.04.72,1.38.57,2.59,1.61,3.42,2.93.02.04.04.07.07.11l1.78,3.03h1.46l.89-1.83c1.33-3.11,4.08-4.96,7.39-4.96h4.9c.46,0,.91.07,1.34.2,3.87,1.21,4.81,3.91,5.03,5.02.11.53.16,1.05.16,1.57,1.62.05,3.13.65,4.31,1.7,1.51,1.23,2.28,3.09,2.28,5.53v2.73c0,1.96-.57,3.33-1.29,4.29.35.85.52,1.78.52,2.78v26.32c0,.97-.16,1.79-.4,2.49.86,1.21,1.31,2.66,1.31,4.23v7c0,2.08-.9,3.89-2.53,5.11-1.11.87-2.5,1.33-3.97,1.33ZM160.29,56.71c.36,0,.72.04,1.08.13,1.34.33,2.45,1.25,3.02,2.51.48,1.05.87,1.35.98,1.41.04.02.07.04.1.06,0,0,.76.44,3.07.44h40.59v-2.48h-37.08c-3,0-5.18-.73-6.68-2.23-1-1.01-2.15-2.83-2.23-5.93-.49.82-1.12,1.54-1.88,2.16l-4.69,3.69c-.09.07-.19.14-.29.21-.21.14-.35.25-.45.34v1.95l1.7-1.32c.8-.62,1.77-.94,2.76-.94ZM205.52,47.81h2.71v-21.66h-2.71c.28.59.44,1.25.44,1.94v2.24c0,1.06-.37,2.03-.98,2.8.61.77.98,1.74.98,2.8v2.17c0,1.01-.33,1.94-.9,2.7.56.75.9,1.68.9,2.7v2.38c0,.69-.16,1.35-.44,1.94ZM174.59,47.81h2.64c-.28-.59-.44-1.25-.44-1.94v-2.38c0-1.01.33-1.94.9-2.7-.56-.75-.9-1.68-.9-2.7v-2.17c0-1.06.37-2.03.98-2.8-.61-.77-.98-1.74-.98-2.8v-2.24c0-.69.16-1.35.44-1.94h-2.64v21.66ZM155.41,32.9h3.13c1.94,0,3.58.85,4.6,2.24v-5.14h-7.73v2.9ZM210.6,26.15h0,0ZM189.63,23.59h3.29c-.28-.59-.44-1.25-.44-1.94v-2.45c0-1.36.61-2.59,1.56-3.41h-5.54c.96.83,1.56,2.05,1.56,3.41v2.45c0,.69-.16,1.35-.44,1.94ZM155.2,12.76c.13.04.25.09.38.15l7.7,3.36v-1.75s0,0,0,0c-.12-.04-.24-.08-.35-.13l-7.73-3.32v1.7ZM197.46,14.7h4.77c-.32-.28-.6-.6-.84-.96-.83-1.28-.96-2.89-.33-4.28l.2-.46h-.63l-2.06,4.25c-.27.56-.66,1.05-1.11,1.45ZM180.52,14.7h4.21c-.37-.32-.69-.7-.95-1.13l-1.76-3c.16.97,0,1.98-.49,2.87-.26.49-.61.91-1.02,1.26ZM202.62,5.98s0,0,0,0c0,0,0,0,0,0Z"/><path class="cls-3" d="M63.94,68.9h-20.3c-2.97,0-5.12-.65-6.58-1.98-.03-.03-.06-.06-.09-.09-.48-.48-.88-1.07-1.19-1.76-.23.92-.63,1.66-1.21,2.25-.07.07-.13.13-.21.19-.8.67-1.82,1.09-3.2,1.35-.18.03-.36.05-.54.05h-9.59c-.09,0-.18,0-.27-.01-1.41-.13-2.58-.57-3.47-1.31-1.15-.96-1.71-2.45-1.71-4.54v-4.78l-7.03,2.99c-1.67.67-3.35.49-4.8-.48-1.49-.99-2.24-2.68-2.24-5.02v-7.28c0-1.51.38-2.81,1.12-3.85.78-1.04,1.86-1.8,3.55-2.54l9.4-4.17v-1.77h-7.29c-1.48,0-2.88-.59-3.94-1.65-1.02-1.01-1.58-2.41-1.58-3.94v-8.12c0-1.32.51-2.64,1.42-3.7,1.07-1.22,2.52-1.89,4.1-1.89h7.29V7.3c0-1.98.58-3.46,1.71-4.4h0c.99-.82,2.28-1.26,3.74-1.26h9.59c1.46,0,2.75.43,3.74,1.25.07.06.14.12.2.19.43.43.76.95,1,1.56.21-.39.46-.76.77-1.11.05-.06.1-.11.15-.17.97-.97,2.23-1.56,3.64-1.71.1-.01.2-.02.3-.02h9.38c.09,0,.18,0,.27.01,1.43.13,2.67.71,3.67,1.71,1.09,1.09,1.65,2.44,1.65,4.01v9.46h6.38c1.51,0,2.91.61,3.95,1.72,1.06,1,1.64,2.37,1.64,3.87v8.12c0,2.12-.94,3.38-1.79,4.08-1.04.97-2.38,1.51-3.8,1.51h-6.38v13.36l8.55.03c.08,0,.17,0,.25.01.97.08,2.41.32,3.76,1.5.05.04.1.09.14.14,1.05,1.05,1.58,2.35,1.58,3.87v8.33c0,2.21-.99,3.52-1.81,4.24-.07.06-.14.11-.21.17-1.04.74-2.29,1.12-3.7,1.12ZM41.21,62.55c.23.11.9.34,2.42.34h20.03v-7.37h-8.48c-1.47,0-2.89-.54-4-1.51-.05-.04-.1-.09-.15-.14-1.06-1.06-1.65-2.54-1.65-4.15v-16.59c0-1.66,1.34-3,3-3h8.97v-7.3s-8.97,0-8.97,0c-1.66,0-3-1.34-3-3V7.64h-8.49v52.38c0,1.59.22,2.3.32,2.54ZM21.57,62.9h8.42V7.64h-8.42v12.19c0,1.66-1.34,3-3,3h-9.81v7.3h9.81c1.66,0,3,1.34,3,3v6.72c0,1.19-.7,2.26-1.78,2.74l-11.2,4.97c-.62.27-.93.46-1.07.56,0,.06-.02.17-.02.33v6.7l9.9-4.21c.93-.39,1.99-.3,2.83.26.84.56,1.34,1.5,1.34,2.5v9.18ZM19.2,5.2h0,0Z"/><path class="cls-3" d="M133.13,68.9h-4.55c-1.68,0-3.17-.59-4.29-1.72-.05-.05-.09-.1-.14-.14-.92-1.05-1.44-2.28-1.57-3.66,0-.09-.01-.18-.01-.27v-.71h-20.87c-2.18,0-3.53-.95-4.29-1.79-.99-1.02-1.57-2.25-1.71-3.64,0-.1-.01-.2-.01-.3v-3.28c-.24.43-.54.81-.9,1.13-.39.39-1.11,1.11-2.11,2.18-.05.05-.1.1-.15.15l-9.8,9.03c-.3.28-.65.49-1.04.62-.89.31-3.54,1.25-5.39-.46-1.1-.96-1.59-2.34-1.48-4.09v-6.8c-.1-1.8.27-3.25,1.11-4.3.43-.58,1.04-1.27,1.99-2.3.07-.08.15-.15.23-.22l9.09-7.96-7.68-4.08c-.06-.03-.12-.07-.19-.11-.86-.54-1.52-.99-1.99-1.32l-.39-.27c-.09-.06-.18-.12-.26-.19-1.09-.91-1.64-2.27-1.64-4.05v-7c0-.93,0-3.11,1.64-4.47.06-.05.13-.1.2-.15-.76-.67-1.62-1.88-1.62-3.98v-7c0-2.03.58-3.53,1.71-4.48,1-.83,2.4-1.25,4.16-1.25.5,0,1,.13,1.44.37l9.31,5.11c1.28.68,2.23,1.27,2.86,1.8.07.06.14.12.2.18,1,1,1.47,2.51,1.37,4.38v.05c.15-.03.29-.08.39-.15.04-.16.12-.51.12-1.17v-5.04c0-1.74.46-3.15,1.35-4.19.05-.06.1-.11.16-.17,1.42-1.42,3.33-1.58,4.64-1.58h2.17c2.32,0,3.62.95,4.31,1.75.06.07.11.13.16.21.64.89,1,2.02,1.1,3.37h25.94c1.47,0,3.28.17,4.5,1.43,1.44,1.37,1.44,3.41,1.44,4.3v4.48c0,.65,0,2.61-1.54,3.97-.83.77-1.89,1.08-2.96,1.2.42.67.71,1.38.87,2.09.05.21.07.43.07.65v8.26c.97.17,1.91.53,2.69,1.31.97.97,1.44,2.37,1.44,4.29v4.62c0,2.01-.78,3.22-1.44,3.87-.06.06-.13.12-.2.18-.2.17-.41.31-.63.44.06.05.12.1.17.15,1.54,1.37,1.54,3.48,1.54,4.39v4.55c0,1.85-.56,3.22-1.66,4.08-.51.44-1.15.76-1.91.96v.98c0,.18-.02.36-.05.54-.23,1.24-.79,2.39-1.67,3.4-1.05,1.2-2.55,1.87-4.22,1.87ZM128.57,62.9h4.41c.04-.06.07-.12.09-.17v-3.34c0-1.66,1.34-3,3-3h.57v-3.59h-.57c-1.66,0-3-1.34-3-3v-4.06c0-1.66,1.34-3,3-3h1.13v-3.59h-1.13c-1.66,0-3-1.34-3-3v-10.64s-.05-.09-.09-.15h-25.82c-.95,0-1.85-.45-2.41-1.22-.57-.77-.74-1.75-.46-2.66.25-.81.38-1.54.43-2.32.1-1.58,1.41-2.81,2.99-2.81h28.92v-3.45h-28.85c-1.66,0-3-1.34-3-3v-2.31h0s-1.76-.01-1.76-.01c-.05,0-.1,0-.15,0v4.98c0,2.63-.69,4.48-2.11,5.65-.79.68-1.74,1.18-2.77,1.46,0,.12-.01.27-.01.45v5.25h0s.71.01.71.01c1.66,0,3,1.34,3,3v7.77c0,1.66-1.34,3-3,3h-1.2v3.59h1.2c1.66,0,3,1.34,3,3v10.64s0,0,.01.01h23.87c1.66,0,3,1.34,3,3v3.51ZM80.82,54.33c0,.1-.01.27,0,.52,0,.07,0,.13,0,.2v4.41l7.56-6.97c.9-.95,1.57-1.63,1.98-2.05v-4.84l-8.13,7.12c-.44.47-1.11,1.21-1.42,1.61ZM80.59,54.62s0,0,0,0c0,0,0,0,0,0ZM137.53,52.87h.01-.01ZM82.48,31.02l7.61,4.04v-5.71c0-.06,0-.13,0-.19,0-.04,0-.09,0-.13-.27-.18-.7-.43-1.29-.74l-7.71-4.2v6.03c.36.25.82.56,1.37.9ZM90.09,28.61h0s0,0,0,0ZM82.72,15.43l7.65,4.03v-5.71c0-.07,0-.13,0-.2,0-.02,0-.04,0-.06-.29-.18-.7-.42-1.28-.73l-7.78-4.27v6.01c.26.18.58.39.9.6l.5.33ZM125.57,52.79h-3.22c-1.66,0-3-1.34-3-3v-4.06c0-1.66,1.34-3,3-3h3.22c1.66,0,3,1.34,3,3v4.06c0,1.66-1.34,3-3,3ZM112.2,52.79h-2.94c-1.66,0-3-1.34-3-3v-4.06c0-1.66,1.34-3,3-3h2.94c1.66,0,3,1.34,3,3v4.06c0,1.66-1.34,3-3,3ZM125.57,39.14h-3.22c-1.66,0-3-1.34-3-3v-4.06c0-1.66,1.34-3,3-3h3.22c1.66,0,3,1.34,3,3v4.06c0,1.66-1.34,3-3,3ZM112.2,39.14h-2.94c-1.66,0-3-1.34-3-3v-4.06c0-1.66,1.34-3,3-3h2.94c1.66,0,3,1.34,3,3v4.06c0,1.66-1.34,3-3,3Z"/><path class="cls-3" d="M211.64,68.81c-.25,0-.51-.02-.77-.05h-42.32c-3,0-5.38-.53-7.05-1.58-.7-.41-1.35-.95-1.95-1.61l-1.35,1.05c-1.2,1.16-2.45,1.84-3.82,2.09-.31.06-.63.06-.93.02-1.3-.17-2.77-.49-3.83-1.55-.08-.08-.15-.16-.22-.24-.73-.91-1.08-2.11-1.08-3.7v-6.65c0-2.36,1.24-4.4,3.68-6.07l4.53-3.57c.1-.08.18-.18.26-.37v-6.17h-3.37c-1.52,0-2.85-.55-3.94-1.65-1.05-1.05-1.58-2.42-1.58-4.08v-6.72c0-1.52.6-2.92,1.65-3.87,1.08-1.05,2.38-1.58,3.87-1.58h5.39l-6.01-2.62c-1.14-.3-2.6-.85-3.6-1.85-.05-.05-.11-.11-.16-.17-1.21-1.42-1.35-3.27-1.35-4.54v-5.64c-.28-2.72.86-4.12,1.57-4.71,2.05-1.71,4.78-.56,5.67-.18l10.83,4.65c1.37.46,2.38.96,3.15,1.53.79-.45,1.71-.68,2.71-.68h.63c-.63-1.66-.64-3.13-.02-4.36.46-.91,1.61-2.43,4.22-2.43h4.48c1.07,0,2.3.07,3.44.6,1.12.46,2.07,1.27,2.75,2.35l2.25,3.84h3.26l1.31-2.71c1.1-2.59,3.29-4.08,6.03-4.08h4.9c.3,0,.6.05.89.14,3,.94,3.8,2.83,4.01,3.88.19.96.17,1.9-.07,2.77h1.47c1.35,0,2.61.48,3.56,1.35,1.16.94,1.75,2.41,1.75,4.38v2.73c0,2.11-.8,3.34-1.6,4.05.56.88.83,1.87.83,3.02v26.32c0,1.16-.28,2.06-.64,2.73.07.07.13.14.2.22.89,1.03,1.35,2.34,1.35,3.77v7c0,1.6-.69,2.98-1.94,3.92-.85.67-1.92,1.02-3.06,1.02ZM160.29,58.21c.24,0,.48.03.72.09.89.22,1.63.84,2.01,1.67.47,1.04,1.01,1.74,1.59,2.08.32.2,1.33.71,3.94.71h42.09v-5.48h-38.58c-1.64,0-4.02-.19-5.62-1.79-.88-.89-1.9-2.58-1.79-5.68v-21.31h-10.73v5.9h4.63c2.51,0,4.26,1.84,4.26,4.47v8.12c0,.23-.03.46-.08.68-.37,1.61-1.19,2.94-2.42,3.95l-4.67,3.68c-.06.05-.13.1-.19.14-.77.51-1.11.94-1.11,1.14v5.45s.04-.03.06-.05l4.06-3.15c.53-.41,1.18-.63,1.84-.63ZM173.09,49.31h36.63v-24.66s-12.75,0-12.75,0c-1.66,0-3-1.34-3-3v-2.45c0-1.66,1.34-3,3-3h13.52v-1.91h-5.33c-1.02,0-1.96-.51-2.52-1.37-.55-.85-.64-1.93-.22-2.86l1.15-2.57h-3.59c-.27,0-.33,0-.51.45-.02.06-.05.12-.08.17l-2.17,4.48c-.5,1.03-1.55,1.69-2.7,1.69h-6.86c-1.06,0-2.05-.56-2.59-1.48l-3.04-5.19c-.07-.03-.13-.06-.19-.09.04.02-.18-.03-.9-.03h-2.24l1.4,2.16c.6.92.64,2.1.12,3.06-.53.97-1.54,1.57-2.64,1.57h-5.26v1.91h13.24c1.66,0,3,1.34,3,3v2.45c0,1.66-1.34,3-3,3h-12.48v24.66ZM153.73,13.89c.18.07.43.15.74.23.17.04.35.1.51.17l9.8,4.27v-4.95s0-.08,0-.12c-.24-.11-.58-.24-1.03-.39-.08-.03-.16-.06-.23-.09l-9.82-4.22v4.54c0,.24.01.43.02.56ZM182,7.56s0,0,0,0h0ZM201.46,48.87h-20.16c-1.66,0-3-1.34-3-3v-2.38c0-1.18.69-2.21,1.68-2.7-1-.49-1.68-1.51-1.68-2.7v-2.17c0-1.28.8-2.37,1.92-2.8-1.12-.43-1.92-1.52-1.92-2.8v-2.24c0-1.66,1.34-3,3-3h20.16c1.66,0,3,1.34,3,3v2.24c0,1.28-.8,2.37-1.92,2.8,1.12.43,1.92,1.52,1.92,2.8v2.17c0,1.18-.69,2.21-1.68,2.7,1,.49,1.68,1.51,1.68,2.7v2.38c0,1.66-1.34,3-3,3Z"/><path class="cls-2" d="M19.2,5.2c.42-.35,1.05-.56,1.82-.56h9.59c.77,0,1.4.21,1.82.56.35.35.56,1.05.56,2.1v55.73c0,1.12-.21,1.82-.56,2.17-.42.35-1.05.56-1.82.7h-9.59c-.77-.07-1.4-.28-1.82-.63s-.63-1.12-.63-2.24v-9.31l-11.2,4.76c-.7.28-1.33.21-1.96-.21-.63-.42-.91-1.26-.91-2.52v-7.28c0-.91.21-1.61.56-2.1.42-.56,1.19-1.05,2.31-1.54l11.2-4.97v-6.72h-10.29c-.7,0-1.33-.28-1.82-.77-.42-.42-.7-1.05-.7-1.82v-8.12c0-.63.28-1.26.7-1.75.49-.56,1.12-.84,1.82-.84h10.29V7.3c0-1.05.21-1.75.63-2.1ZM51.61,5.48c.49.49.77,1.05.77,1.89v12.46h9.38c.7,0,1.33.28,1.82.84.56.49.77,1.12.77,1.75v8.12c0,.77-.21,1.4-.77,1.82-.49.49-1.12.77-1.82.77h-9.38v16.59c0,.84.28,1.54.77,2.03.56.49,1.26.77,2.03.77h8.75c.84.07,1.47.28,2.03.77.49.49.7,1.05.7,1.75v8.33c0,.91-.28,1.54-.77,1.96-.49.35-1.12.56-1.96.56h-20.3c-2.24,0-3.71-.42-4.55-1.19-.77-.77-1.19-2.31-1.19-4.69V7.37c0-.84.28-1.4.7-1.89.49-.49,1.12-.77,1.82-.84h9.38c.77.07,1.33.35,1.82.84Z"/><path class="cls-2" d="M78.31,63.8c-.42-.35-.56-.91-.49-1.75v-7c-.07-1.05.07-1.89.49-2.38.35-.49.98-1.19,1.82-2.1l10.64-9.31c.91-.28,1.61-.21,1.96.14.42.35.63,1.12.63,2.17v7c0,.77-.21,1.4-.63,1.75-.35.35-1.12,1.12-2.24,2.31l-9.8,9.03c-1.19.42-2.03.49-2.38.14ZM80.97,33.62c-1.12-.7-1.89-1.26-2.31-1.54-.42-.35-.56-.98-.56-1.75v-7c0-1.12.14-1.82.56-2.17.42-.35,1.19-.56,2.31-.56l9.24,5.04c1.19.63,2.03,1.19,2.38,1.54.42.35.56,1.05.49,2.17v6.44c.07.84-.21,1.47-.77,2.03-.56.56-1.26.77-2.1.7l-9.24-4.9ZM81.19,18.01c-1.05-.7-1.82-1.19-2.24-1.54-.42-.35-.63-.91-.63-1.75v-7c0-1.05.21-1.82.63-2.17.42-.35,1.19-.56,2.24-.56l9.31,5.11c1.19.63,1.96,1.12,2.38,1.47.35.35.56,1.12.49,2.17v6.44c.07.84-.21,1.54-.77,2.03-.56.56-1.26.84-2.1.7l-9.31-4.9ZM136.07,45.73v4.06h.63c1.19,0,2.03.21,2.38.56.42.35.56,1.05.56,2.17v4.55c0,.84-.14,1.47-.56,1.75-.35.35-1.19.56-2.38.56h-.63v3.71c-.14.77-.49,1.4-.98,1.96-.49.56-1.19.84-1.96.84h-4.55c-.91,0-1.61-.28-2.17-.84-.49-.56-.77-1.19-.84-1.96v-3.71h-23.87c-.91,0-1.61-.28-2.1-.84-.56-.56-.84-1.19-.91-1.89v-10.92h-1.33c-1.12,0-1.82-.14-2.24-.49-.42-.35-.63-.91-.63-1.75v-4.62c0-1.12.21-1.82.63-2.17.42-.42,1.12-.56,2.24-.56h1.33v-7.77h-.84c-.91,0-1.61-.21-2.1-.7-.56-.49-.77-1.26-.77-2.31v-5.25c0-1.05.14-1.82.42-2.31.28-.49.63-.77,1.05-.91.91-.07,1.75-.42,2.38-.98.7-.56,1.05-1.68,1.05-3.36v-5.04c0-.98.21-1.75.63-2.24.49-.49,1.26-.7,2.52-.7h2.17c.91,0,1.61.21,2.03.7.35.49.56,1.26.56,2.31v2.31h28.91c1.19,0,2.03.14,2.38.56.42.35.56,1.05.56,2.17v4.48c0,.84-.14,1.4-.56,1.75-.35.35-1.19.49-2.38.49h-28.98c-.07,1.12-.28,2.1-.56,3.01h25.97c.77,0,1.47.28,1.96.84.49.56.84,1.19.98,1.82v11.13h1.19c1.19,0,1.96.14,2.38.56.35.35.56,1.05.56,2.17v4.62c0,.84-.21,1.4-.56,1.75-.42.35-1.19.49-2.38.49h-1.19ZM109.26,32.08v4.06h2.94v-4.06h-2.94ZM112.2,45.73h-2.94v4.06h2.94v-4.06ZM122.35,36.14h3.22v-4.06h-3.22v4.06ZM125.57,49.79v-4.06h-3.22v4.06h3.22Z"/><path class="cls-2" d="M151.33,15.91c-.42-.49-.63-1.33-.63-2.59v-5.81c-.14-1.12.07-1.89.49-2.24s1.26-.28,2.59.28l10.92,4.69c1.26.42,2.1.84,2.59,1.26.42.42.56,1.12.49,2.1v6.72c0,.84-.21,1.4-.63,1.75-.49.35-1.26.21-2.45-.28l-10.92-4.76c-1.19-.28-2.03-.7-2.45-1.12ZM167.64,49.86c-.07,1.68.28,2.87.91,3.5.63.63,1.82.91,3.5.91h39.06c.84,0,1.47.28,1.89.77.42.49.63,1.12.63,1.82v7c0,.7-.28,1.19-.77,1.54-.42.35-1.05.49-1.75.35h-42.56c-2.52,0-4.34-.42-5.46-1.12-1.19-.7-2.1-1.89-2.8-3.43l-4.06,3.15c-.84.84-1.61,1.26-2.38,1.4-1.05-.14-1.75-.35-2.1-.7-.28-.35-.42-.98-.42-1.82v-6.65c0-1.33.77-2.52,2.45-3.64l4.62-3.64c.77-.63,1.19-1.4,1.4-2.31v-8.12c0-.98-.42-1.47-1.26-1.47h-5.11c-.77,0-1.33-.28-1.82-.77-.49-.49-.7-1.12-.7-1.96v-6.72c0-.63.21-1.26.7-1.68.49-.49,1.05-.77,1.82-.77h11.69c.7,0,1.26.28,1.75.77.49.42.7,1.05.77,1.68v21.91ZM196.98,19.2v2.45h13.58c.77,0,1.26.14,1.61.49.35.42.56.91.56,1.68v26.32c0,.77-.21,1.33-.56,1.68s-.84.49-1.61.49h-38.36c-.7,0-1.26-.14-1.61-.49-.28-.35-.49-.91-.49-1.68v-26.32c0-.77.21-1.26.49-1.68.35-.35.91-.49,1.61-.49h13.37v-2.45h-13.93c-.7,0-1.26-.21-1.68-.56-.42-.35-.63-.84-.63-1.61v-3.29c0-.84.21-1.47.63-1.82.42-.42.98-.63,1.68-.63h5.95l-2.31-3.57c-.49-1.05-.63-1.89-.35-2.45.28-.56.77-.77,1.54-.77h4.48c.91,0,1.68.07,2.24.35.56.21,1.05.63,1.4,1.19l3.08,5.25h6.86l2.17-4.48c.63-1.54,1.75-2.31,3.29-2.31h4.9c1.12.35,1.82.91,1.96,1.61.14.7.07,1.33-.21,1.89l-1.47,3.29h6.02c.63,0,1.19.21,1.61.63.49.35.7,1.05.7,2.1v2.73c0,.91-.21,1.54-.7,1.89-.42.35-.98.56-1.61.56h-14.21ZM201.46,28.09h-20.16v2.24h20.16v-2.24ZM201.46,35.93h-20.16v2.17h20.16v-2.17ZM201.46,43.49h-20.16v2.38h20.16v-2.38Z"/></g></svg>