<?xml version="1.0" encoding="UTF-8"?><svg id="_レイヤー_2" xmlns="http://www.w3.org/2000/svg" viewBox="0 0 217.65 70.92"><defs><style>.cls-1,.cls-2,.cls-3{stroke-width:0px;}.cls-2{fill:#198caa;}.cls-3{fill:#fff;}</style></defs><g id="_レイヤー_4"><path class="cls-1" d="M5.06,65.34c-.42-.49-.56-1.19-.56-2.17V19.48c0-.7.14-1.26.56-1.61.42-.35.98-.56,1.68-.56h9.87c.7,0,1.26.21,1.75.56.42.35.7.91.7,1.61v33.88h8.82V6.6c0-.7.21-1.19.63-1.61.35-.35.91-.49,1.61-.49h9.8c.7,0,1.26.14,1.75.49.42.42.7.91.7,1.61v46.77h8.89V19.48c0-.7.28-1.26.7-1.61.49-.35,1.05-.56,1.75-.56h9.87c.7,0,1.26.21,1.61.56.42.35.56.91.56,1.61v43.68c0,.98-.14,1.68-.56,2.17s-1.26.77-2.38.77H7.37c-1.12,0-1.89-.28-2.31-.77Z"/><path class="cls-1" d="M78.49,16.4c-.42-.49-.56-1.19-.56-2.24v-6.02c0-1.33.14-2.17.56-2.59.42-.42,1.19-.63,2.31-.63h30.73c1.19,0,1.96.21,2.38.63.42.42.63,1.26.63,2.59v6.02c0,1.05-.21,1.75-.63,2.24-.42.49-1.19.7-2.38.7h-3.22v9.45h3.22c1.19,0,1.96.21,2.38.63.42.42.63,1.26.63,2.59v6.02c0,.98-.21,1.75-.63,2.24-.42.42-1.19.7-2.38.7h-3.22v24.78c0,.77-.28,1.4-.84,1.96-.56.56-1.26.77-2.1.77h-4.76c-.91,0-1.68-.21-2.17-.77-.56-.56-.84-1.19-.84-1.96v-24.78h-2.8v1.4c0,7.07-1.82,13.16-5.39,18.41-3.57,5.18-6.58,7.77-8.96,7.77-.77,0-1.4-.28-1.89-.7-.49-.49-.7-1.05-.7-1.82v-7.63c0-.7.14-1.33.56-1.68.35-.42,1.05-1.33,1.96-2.59.91-1.33,1.82-3.08,2.73-5.39.7-1.82,1.12-4.48,1.19-7.77h-3.5c-1.12,0-1.89-.28-2.31-.7-.42-.49-.56-1.26-.56-2.24v-6.02c0-1.33.14-2.17.56-2.59.42-.42,1.19-.63,2.31-.63h3.5v-9.45h-3.5c-1.12,0-1.89-.21-2.31-.7ZM94.8,26.55h2.8v-9.45h-2.8v9.45ZM117.13,22.77c-.63-.49-.84-1.19-.84-2.03v-5.88c0-1.19.14-2.03.56-2.45.42-.49,1.19-.91,2.31-1.4l17.29-5.6c1.19-.42,1.96-.49,2.31-.28.42.21.56.84.56,1.96v7.56c0,.91-.14,1.54-.56,1.89-.35.42-1.12.91-2.31,1.47l-17.29,5.46c-.77.07-1.47-.14-2.03-.7ZM117.13,44.4c-.63-.56-.84-1.26-.84-2.03v-5.88c0-1.19.14-2.03.56-2.45.42-.49,1.19-.98,2.31-1.4l17.29-5.6c1.19-.42,1.96-.49,2.31-.28.42.14.56.84.56,1.89v7.63c0,.84-.14,1.47-.56,1.89-.35.42-1.12.91-2.31,1.47l-17.29,5.46c-.77.07-1.47-.14-2.03-.7ZM117.13,65.76c-.63-.56-.84-1.26-.84-2.1v-5.88c0-1.19.14-1.96.56-2.45.42-.42,1.19-.91,2.31-1.33l17.29-5.6c1.19-.42,1.96-.56,2.31-.35.42.21.56.84.56,1.96v7.56c0,.91-.14,1.54-.56,1.96-.35.42-1.12.84-2.31,1.4l-17.29,5.46c-.77.14-1.47-.14-2.03-.63Z"/><path class="cls-1" d="M170.1,50.07c.7.07,1.33.28,1.75.77.49.49.77,1.12.77,1.82v5.81c0,2.45-.63,4.34-1.96,5.6-1.33,1.26-3.5,2.03-6.51,2.1h-10.22c-.84,0-1.54-.28-2.03-.77s-.7-1.05-.7-1.75v-3.85c0-.7.21-1.26.7-1.75.49-.49,1.19-.77,2.03-.77h5.39c.84,0,1.47-.28,1.96-.77.49-.49.77-1.19.77-2.03v-1.82c0-.7.28-1.33.77-1.82.49-.49,1.12-.7,1.82-.77h5.46ZM188.16,48.6v15.26c0,.7-.21,1.26-.56,1.61-.42.35-.98.56-1.61.56h-7.7c-.63,0-1.26-.21-1.68-.56-.49-.35-.7-.91-.7-1.61v-15.26h-21.63c-.98,0-1.68-.35-2.17-.91-.56-.56-.84-1.19-.84-1.96V11.99c0-.7.28-1.26.84-1.82.49-.56,1.19-.84,2.17-.84h6.37c.84,0,1.54.28,2.1.84.56.56.84,1.12.84,1.82v27.72h46.7c1.12,0,1.89.14,2.31.56.35.42.56,1.33.56,2.59v2.8c0,.98-.21,1.68-.56,2.17-.42.49-1.19.77-2.31.77h-22.12ZM209.09,5.34c.35.42.56.91.56,1.68v29.05c0,.7-.21,1.26-.56,1.61-.35.35-.84.49-1.61.49h-39.41c-.77,0-1.26-.14-1.61-.49-.35-.35-.49-.91-.49-1.61V7.02c0-.77.14-1.26.49-1.68.35-.35.84-.49,1.61-.49h39.41c.77,0,1.26.14,1.61.49ZM197.33,11.5h-19.11v2.17h19.11v-2.17ZM197.33,20.25h-19.11v2.17h19.11v-2.17ZM197.33,28.93h-19.11v2.31h19.11v-2.31ZM201.18,50.84c.49.49.77,1.12.77,1.82v1.82c0,.84.28,1.54.77,2.03s1.19.77,1.96.77h5.39c.84,0,1.54.28,2.03.77s.7,1.05.7,1.75v3.85c0,.7-.21,1.26-.7,1.75-.49.49-1.19.77-2.03.77h-10.22c-3.01-.07-5.18-.84-6.51-2.1-1.33-1.26-1.96-3.15-1.96-5.6v-5.81c0-.7.28-1.33.77-1.82.42-.49,1.05-.7,1.75-.77h5.46c.7.07,1.33.28,1.82.77Z"/><path class="cls-2" d="M62.82,70.61H7.37c-3.07,0-4.81-1.27-5.72-2.34h0c-1.47-1.72-1.65-3.73-1.65-5.1V19.48c0-2.69,1.19-4.24,2.18-5.07,1.25-1.04,2.83-1.6,4.56-1.6h9.87c1.6,0,3.06.47,4.36,1.4.09.07.18.13.27.21,1.08.9,1.82,2.13,2.14,3.5V6.6c0-1.86.67-3.51,1.94-4.79.83-.83,2.33-1.81,4.8-1.81h9.8c1.66,0,3.13.45,4.36,1.33.2.15.4.31.57.49,1.66,1.67,2.01,3.53,2.01,4.79v11.65c.27-1.51,1.05-2.87,2.21-3.84.08-.07.17-.14.26-.2,1.3-.93,2.77-1.4,4.37-1.4h9.87c1.81,0,3.45.62,4.65,1.74.96.86,2.02,2.39,2.02,4.93v43.68c0,1.37-.17,3.38-1.64,5.1-.92,1.07-2.67,2.34-5.8,2.34ZM9,61.61h52.26V21.81h-5.49v31.55c0,2.49-2.01,4.5-4.5,4.5h-8.89c-2.49,0-4.5-2.01-4.5-4.5V9h-5.49v44.37c0,2.49-2.01,4.5-4.5,4.5h-8.82c-2.49,0-4.5-2.01-4.5-4.5v-31.55h-5.56v39.8Z"/><path class="cls-2" d="M118.78,70.92c-1.66,0-3.29-.62-4.61-1.78,0,0-.01-.01-.02-.02-.68-.6-1.43-1.5-1.9-2.79-.36.85-.9,1.63-1.59,2.33-.95.95-2.64,2.09-5.28,2.09h-4.76c-2.81,0-4.5-1.16-5.45-2.18-1.35-1.4-2.06-3.14-2.06-5.05v-2.4c-4.57,6.62-8.59,9.7-12.65,9.7-1.79,0-3.46-.62-4.82-1.78-.09-.08-.17-.15-.25-.24-1.34-1.34-2.02-3.02-2.02-5v-7.63c0-2.35.87-3.83,1.74-4.73.28-.35.83-1.06,1.59-2.12.75-1.1,1.5-2.6,2.23-4.45.13-.33.3-.89.46-1.72-2.03-.29-3.32-1.17-4.08-1.92-.08-.08-.16-.16-.23-.25-1.65-1.92-1.65-4.37-1.65-5.17v-6.02c0-1.93.22-4.12,1.88-5.78,1.1-1.1,2.61-1.74,4.49-1.9v-.54c-2.02-.18-3.61-.93-4.72-2.22h0c-1.48-1.72-1.65-3.78-1.65-5.17v-6.02c0-1.93.22-4.12,1.88-5.78,1.29-1.29,3.14-1.94,5.49-1.94h30.73c.89,0,3.61,0,5.56,1.95,1.18,1.18,1.66,2.65,1.84,3.99l16.08-5.21c1.57-.55,3.84-1.11,5.9.03,2.91,1.56,2.91,4.83,2.91,5.91v7.56c0,.83,0,3.26-1.86,5.06-.8.84-1.92,1.59-3.6,2.37-.05.02-.09.04-.14.06h0c.79,0,1.6.14,2.39.51,1.55.67,3.2,2.26,3.2,6v7.63c0,.77,0,3.07-1.74,4.92-.72.81-1.74,1.53-3.22,2.27.67.06,1.37.24,2.04.61,2.92,1.55,2.92,4.83,2.92,5.92v7.56c0,.79,0,3.14-1.74,5-.97,1.09-2.31,1.77-3.71,2.43-.18.09-.37.16-.56.22l-17.29,5.46c-.18.06-.36.1-.55.14-.4.07-.79.11-1.19.11ZM102.1,61.75h1.71v-23.01c0-2.49,2.01-4.5,4.5-4.5h1.73v-3.18h-1.73c-2.49,0-4.5-2.01-4.5-4.5v-9.45c0-2.49,2.01-4.5,4.5-4.5h1.73v-3.18h-27.61v3.18h1.87c2.49,0,4.5,2.01,4.5,4.5v9.45c0,2.49-2.01,4.5-4.5,4.5h-1.87v3.18h1.87c1.21,0,2.37.49,3.22,1.35.85.86,1.31,2.03,1.28,3.24-.08,3.81-.58,6.93-1.49,9.29-1.01,2.57-2.06,4.62-3.21,6.31-.02.03-.04.06-.07.09-.62.86-1.21,1.64-1.67,2.23v3.43c.85-.87,1.96-2.19,3.35-4.2,3.09-4.54,4.6-9.73,4.6-15.86v-1.4c0-2.49,2.01-4.5,4.5-4.5h2.8c2.49,0,4.5,2.01,4.5,4.5v23.01ZM120.79,58.2v2.96l14.01-4.42s.01,0,.02-.01v-3.07l-14.03,4.54ZM81.31,57.94s0,0,0,0c0,0,0,0,0,0ZM112.81,46.18v7.09c.18-.3.38-.59.62-.87.08-.09.15-.17.24-.25.94-.94,2.29-1.75,3.91-2.36.06-.02.13-.05.19-.07l.4-.13c-1.56-.15-2.99-.8-4.14-1.91-.42-.38-.85-.88-1.23-1.5ZM120.79,36.84v3.03l14-4.42s.02-.01.03-.02v-3.13l-14.03,4.54ZM120.04,37.22s0,0,0,0c0,0,0,0,0,0ZM118.93,27.98h0s0,0,0,0h0ZM120.79,15.21v3.03l14-4.42s.02,0,.03-.01v-3.13l-14.03,4.54ZM120.04,15.59s0,0,0,0c0,0,0,0,0,0ZM135.88,13.09s0,0,0,0c0,0,0,0,0,0ZM97.6,31.05h-2.8c-2.49,0-4.5-2.01-4.5-4.5v-9.45c0-2.49,2.01-4.5,4.5-4.5h2.8c2.49,0,4.5,2.01,4.5,4.5v9.45c0,2.49-2.01,4.5-4.5,4.5Z"/><path class="cls-2" d="M210.07,70.68h-10.22s-.07,0-.1,0c-3.51-.08-6.37-.92-8.52-2.51-.14.17-.29.34-.44.5-.1.1-.2.19-.3.28-1.24,1.03-2.84,1.6-4.49,1.6h-7.7c-1.62,0-3.22-.54-4.43-1.5-.37-.28-.71-.6-1-.94-2.16,1.63-5.05,2.5-8.61,2.58-.03,0-.07,0-.1,0h-10.22c-2.01,0-3.87-.74-5.21-2.09-1.32-1.32-2.02-3.03-2.02-4.93v-3.85c0-1.91.7-3.62,2.02-4.94,1.02-1.02,2.34-1.7,3.8-1.96-1.43-.33-2.71-1.06-3.69-2.14-1.35-1.4-2.06-3.13-2.06-5.04V11.99c0-1.84.69-3.49,2.06-4.91.97-1.06,2.68-2.25,5.45-2.25h6.37c.37,0,.73.02,1.08.07.25-.91.67-1.72,1.27-2.45.09-.1.18-.2.27-.3,1.2-1.2,2.81-1.81,4.79-1.81h39.41c1.98,0,3.59.61,4.79,1.81.1.1.19.2.28.3,1.06,1.28,1.6,2.81,1.6,4.56v28.93c.56.27,1.12.64,1.62,1.14.1.09.19.19.27.3,1.08,1.29,1.61,3.08,1.61,5.47v2.8c0,1.88-.47,3.49-1.4,4.79-.08.11-.16.21-.24.31-.75.87-2.04,1.88-4.17,2.22,1.31.3,2.5.95,3.44,1.89,1.32,1.32,2.02,3.02,2.02,4.93v3.85c0,1.9-.7,3.61-2.01,4.93-1.35,1.35-3.2,2.09-5.22,2.09ZM199.91,61.68h3.48c-1.47-.25-2.8-.93-3.85-1.98-1.33-1.33-2.07-3.14-2.09-5.12h-1.57v3.9c0,1.15.2,2,.56,2.33.14.13.97.8,3.47.87ZM160.64,61.68h3.46c1.94-.05,3.06-.48,3.47-.87.35-.33.56-1.18.56-2.33v-3.9h-1.57c-.02,1.98-.76,3.8-2.09,5.13-1.06,1.05-2.36,1.73-3.82,1.98ZM180.41,61.54h3.25v-12.93c0-2.15,1.5-3.94,3.51-4.39h-10.28c2.01.45,3.51,2.25,3.51,4.39v12.93ZM155.77,44.1h6.83c-2.01-.45-3.51-2.25-3.51-4.39V13.83h-3.32v30.27ZM201.12,33.67h4.03V9.35h-3.87c.35.64.55,1.37.55,2.15v2.17c0,1.3-.55,2.47-1.43,3.29.88.82,1.43,1.99,1.43,3.29v2.17c0,1.28-.54,2.44-1.39,3.25.86.82,1.39,1.98,1.39,3.26v2.31c0,.9-.26,1.73-.71,2.43ZM170.47,33.67h3.96c-.45-.7-.71-1.53-.71-2.43v-2.31c0-1.28.54-2.44,1.39-3.26-.86-.82-1.39-1.97-1.39-3.25v-2.17c0-1.3.55-2.47,1.43-3.29-.88-.82-1.43-1.99-1.43-3.29v-2.17c0-.78.2-1.51.55-2.15h-3.79v24.32ZM207.53,9.35h.01-.01Z"/><path class="cls-3" d="M62.82,69.11H7.37c-2.5,0-3.87-.99-4.59-1.82h0c-1.15-1.34-1.28-3-1.28-4.12V19.48c0-1.69.55-3.01,1.64-3.92.98-.82,2.23-1.25,3.6-1.25h9.87c1.28,0,2.45.38,3.49,1.12.06.04.12.09.18.14,1.13.94,1.78,2.37,1.78,3.92v30.88h2.82V6.6c0-1.47.51-2.73,1.51-3.73.91-.91,2.17-1.37,3.73-1.37h9.8c1.36,0,2.5.34,3.49,1.05.14.1.26.21.38.32,1.04,1.05,1.58,2.3,1.58,3.73v43.77h2.89v-30.88c0-1.55.65-2.97,1.78-3.92.06-.05.12-.09.18-.13,1.04-.74,2.21-1.12,3.49-1.12h9.87c1.43,0,2.71.48,3.63,1.34,1.02.9,1.54,2.19,1.54,3.83v43.68c0,1.13-.13,2.78-1.28,4.12-.71.83-2.1,1.82-4.66,1.82ZM7.34,63.38s0,0,0,0c0,0,0,0,0,0ZM7.5,63.11h55.26V20.31h-8.49s0,33.05,0,33.05c0,1.66-1.34,3-3,3h-8.89c-1.66,0-3-1.34-3-3V7.5h-8.49v45.87c0,1.66-1.34,3-3,3h-8.82c-1.66,0-3-1.34-3-3V20.31H7.5s0,42.79,0,42.79Z"/><path class="cls-3" d="M118.76,69.42c-1.29,0-2.54-.49-3.6-1.41,0,0-.01,0-.02-.01-1.23-1.09-1.85-2.55-1.85-4.34v-5.88c0-1.44.15-3.08,1.28-4.4.05-.06.1-.12.16-.17.79-.79,1.95-1.48,3.38-2.02.04-.02.08-.03.13-.04l17.29-5.6c1.53-.54,3.2-.94,4.67-.13,2.12,1.13,2.12,3.64,2.12,4.59v7.56c0,1.11-.14,2.71-1.34,3.98-.71.8-1.7,1.36-3.25,2.09-.12.06-.25.11-.38.15l-17.29,5.46c-.12.04-.24.07-.36.09-.32.06-.63.09-.95.09ZM119.31,57.22c0,.13-.02.31-.02.55v5.42l16.06-5.07c.48-.23.78-.39.97-.49v-6.04l-16.17,5.24c-.37.14-.65.28-.85.39ZM136.64,57.4s0,0,0,0c0,0,0,0,0,0ZM80.45,69.32c-1.43,0-2.76-.49-3.84-1.42-.06-.05-.12-.1-.17-.16-1.05-1.05-1.58-2.37-1.58-3.94v-7.63c0-1.9.69-3.06,1.36-3.73.32-.4.92-1.18,1.73-2.3.78-1.14,1.59-2.75,2.37-4.73.35-.91.62-2.17.79-3.67h-.31c-2.36,0-3.71-.86-4.43-1.58-.05-.05-.11-.11-.16-.17-1.15-1.34-1.28-3.04-1.28-4.19v-6.02c0-1.7.17-3.45,1.44-4.71,1.01-1.01,2.46-1.51,4.43-1.51h.5v-3.45h-.5c-.76,0-3.09,0-4.58-1.74-1.14-1.33-1.29-2.94-1.29-4.2v-6.02c0-1.7.17-3.45,1.44-4.71,1.01-1.01,2.46-1.51,4.43-1.51h30.73c2.01,0,3.49.49,4.5,1.51,1.35,1.35,1.51,3.33,1.51,4.71v.31c.14-.06.28-.12.42-.19.09-.04.18-.07.28-.11l17.29-5.6c1.22-.43,3.1-.93,4.67-.06,2.13,1.13,2.13,3.64,2.13,4.6v7.56c0,.67,0,2.63-1.42,4-.66.71-1.65,1.36-3.17,2.07-.12.06-.25.11-.37.15l-17.29,5.46c-.21.07-.42.11-.63.13-.93.09-1.83-.05-2.64-.38.66,1.21.75,2.63.75,3.69v.29c.18-.08.37-.15.57-.23.04-.02.08-.03.13-.04l17.29-5.6c1.28-.45,2.97-.88,4.48-.16,1.54.66,2.32,2.21,2.32,4.63v7.63c0,.62,0,2.48-1.34,3.91-.66.75-1.67,1.42-3.25,2.16-.12.06-.25.11-.38.15l-17.29,5.46c-.21.07-.42.11-.63.13-1.66.16-3.21-.38-4.36-1.5-.83-.76-1.78-2.1-1.78-4.21v-.81c-.54.11-1.13.17-1.76.17h-.22v21.78c0,1.55-.59,2.96-1.72,4.08-1.09,1.09-2.51,1.65-4.22,1.65h-4.76c-2.28,0-3.62-.91-4.36-1.71-1.08-1.11-1.65-2.5-1.65-4.02v-8.08c-.77,1.67-1.67,3.26-2.71,4.79-4.27,6.2-7.91,9.08-11.44,9.08ZM100.6,63.25h4.71v-24.51c0-1.66,1.34-3,3-3h3.23v-5.96c0-.08,0-.15,0-.22h-3.23c-1.66,0-3-1.34-3-3v-9.45c0-1.66,1.34-3,3-3h3.23v-5.96c0-.08,0-.15,0-.22h-30.61c0,.07,0,.14,0,.22v5.96h3.37c1.66,0,3,1.34,3,3v9.45c0,1.66-1.34,3-3,3h-3.37c0,.07,0,.14,0,.22v5.96h3.37c.81,0,1.58.33,2.14.9s.87,1.36.86,2.16c-.08,3.63-.55,6.59-1.39,8.78-.96,2.45-1.96,4.41-3.05,6.01-.81,1.12-1.53,2.07-2,2.65v6.99c.75-.3,2.71-1.49,6.08-6.39,3.27-4.8,4.86-10.28,4.86-16.71v-1.4c0-1.66,1.34-3,3-3h2.8c1.66,0,3,1.34,3,3v24.51ZM119.31,35.87c-.01.14-.02.34-.02.62v5.42l16.06-5.07c.49-.24.8-.41.97-.53v-6.08l-16.17,5.24c-.42.16-.68.3-.84.4ZM136.64,36.05s0,0,0,0c0,0,0,0,0,0ZM111.31,23.55h.22c1.01,0,1.89.12,2.64.38-.5-.76-.88-1.8-.88-3.19v-.79c-.76.15-1.41.15-1.76.15h-.22v3.45ZM119.31,14.27c-.01.14-.02.33-.02.59v5.42l16.06-5.07c.49-.24.79-.41.97-.53v-6.08l-16.09,5.21c-.46.21-.75.35-.92.45ZM119.08,14.42s0,0,0,0c-.03.03-.04.04-.05.05.02-.02.04-.04.05-.06ZM97.6,29.55h-2.8c-1.66,0-3-1.34-3-3v-9.45c0-1.66,1.34-3,3-3h2.8c1.66,0,3,1.34,3,3v9.45c0,1.66-1.34,3-3,3Z"/><path class="cls-3" d="M210.07,69.18h-10.22c-3.76-.09-6.62-1.07-8.57-2.92-.15-.14-.3-.29-.44-.45-.24.69-.62,1.29-1.12,1.79-.06.06-.13.13-.2.18-.97.81-2.23,1.26-3.53,1.26h-7.7c-1.29,0-2.57-.43-3.51-1.19-.72-.54-1.25-1.26-1.55-2.11-.16.18-.33.35-.5.52-1.96,1.85-4.82,2.84-8.5,2.92h-10.29c-1.61,0-3.09-.58-4.15-1.65-1.05-1.05-1.58-2.35-1.58-3.87v-3.85c0-1.52.53-2.83,1.58-3.87,1.06-1.06,2.54-1.65,4.15-1.65h5.12v-1.62c0-.36.04-.71.11-1.06h-4.87c-1.75,0-3.26-.64-4.36-1.86-1.08-1.11-1.65-2.5-1.65-4.01V11.99c0-1.45.56-2.75,1.65-3.88.76-.83,2.12-1.78,4.36-1.78h6.37c.83,0,1.61.15,2.32.45.02-.92.21-2.19,1.18-3.36.06-.07.12-.13.18-.2,1.37-1.37,3.15-1.37,3.73-1.37h39.41c.58,0,2.36,0,3.73,1.37.06.06.13.13.18.2.84,1.01,1.25,2.19,1.25,3.6v29.05c0,.3-.02.6-.06.89.76.2,1.5.56,2.13,1.19.06.06.12.13.18.2.85,1.01,1.26,2.49,1.26,4.51v2.8c0,1.56-.38,2.88-1.12,3.92-.05.07-.11.14-.16.21-.71.83-2.08,1.82-4.59,1.82h-5.43c.07.35.1.7.1,1.06v1.62h5.12c1.61,0,3.09.59,4.15,1.65s1.58,2.35,1.58,3.87v3.85c0,1.52-.53,2.82-1.58,3.87-1.06,1.07-2.54,1.65-4.15,1.65ZM194.38,53.07v5.4c0,1.63.34,2.78,1.02,3.42.82.78,2.42,1.23,4.52,1.28h9.88v-2.89h-5.12c-1.57,0-3.02-.59-4.08-1.66s-1.65-2.54-1.65-4.15v-1.41h-4.57ZM154.2,63.17h9.95c2.02-.04,3.63-.49,4.45-1.27.68-.64,1.02-1.8,1.02-3.42v-5.4h-4.57v1.41c0,1.62-.59,3.09-1.65,4.15-1.08,1.08-2.49,1.65-4.08,1.65h-5.12v2.88ZM178.91,63.04h6.25v-14.43c0-1.66,1.34-3,3-3h21.99v-2.74c0-.05,0-.1,0-.15h-46.56c-1.66,0-3-1.34-3-3V12.33h-6.31s0,0-.01,0v33.27h21.64c1.66,0,3,1.34,3,3v14.43ZM199.24,53.09h0,0ZM168.97,35.17h37.68V7.85s-37.68,0-37.68,0v27.32ZM207.67,7.86h0,0ZM197.33,34.24h-19.11c-1.66,0-3-1.34-3-3v-2.31c0-1.66,1.34-3,3-3h19.11c1.66,0,3,1.34,3,3v2.31c0,1.66-1.34,3-3,3ZM197.33,25.42h-19.11c-1.66,0-3-1.34-3-3v-2.17c0-1.66,1.34-3,3-3h19.11c1.66,0,3,1.34,3,3v2.17c0,1.66-1.34,3-3,3ZM197.33,16.67h-19.11c-1.66,0-3-1.34-3-3v-2.17c0-1.66,1.34-3,3-3h19.11c1.66,0,3,1.34,3,3v2.17c0,1.66-1.34,3-3,3Z"/><path class="cls-2" d="M5.06,65.34c-.42-.49-.56-1.19-.56-2.17V19.48c0-.7.14-1.26.56-1.61.42-.35.98-.56,1.68-.56h9.87c.7,0,1.26.21,1.75.56.42.35.7.91.7,1.61v33.88h8.82V6.6c0-.7.21-1.19.63-1.61.35-.35.91-.49,1.61-.49h9.8c.7,0,1.26.14,1.75.49.42.42.7.91.7,1.61v46.77h8.89V19.48c0-.7.28-1.26.7-1.61.49-.35,1.05-.56,1.75-.56h9.87c.7,0,1.26.21,1.61.56.42.35.56.91.56,1.61v43.68c0,.98-.14,1.68-.56,2.17s-1.26.77-2.38.77H7.37c-1.12,0-1.89-.28-2.31-.77Z"/><path class="cls-2" d="M78.49,16.4c-.42-.49-.56-1.19-.56-2.24v-6.02c0-1.33.14-2.17.56-2.59.42-.42,1.19-.63,2.31-.63h30.73c1.19,0,1.96.21,2.38.63.42.42.63,1.26.63,2.59v6.02c0,1.05-.21,1.75-.63,2.24-.42.49-1.19.7-2.38.7h-3.22v9.45h3.22c1.19,0,1.96.21,2.38.63.42.42.63,1.26.63,2.59v6.02c0,.98-.21,1.75-.63,2.24-.42.42-1.19.7-2.38.7h-3.22v24.78c0,.77-.28,1.4-.84,1.96-.56.56-1.26.77-2.1.77h-4.76c-.91,0-1.68-.21-2.17-.77-.56-.56-.84-1.19-.84-1.96v-24.78h-2.8v1.4c0,7.07-1.82,13.16-5.39,18.41-3.57,5.18-6.58,7.77-8.96,7.77-.77,0-1.4-.28-1.89-.7-.49-.49-.7-1.05-.7-1.82v-7.63c0-.7.14-1.33.56-1.68.35-.42,1.05-1.33,1.96-2.59.91-1.33,1.82-3.08,2.73-5.39.7-1.82,1.12-4.48,1.19-7.77h-3.5c-1.12,0-1.89-.28-2.31-.7-.42-.49-.56-1.26-.56-2.24v-6.02c0-1.33.14-2.17.56-2.59.42-.42,1.19-.63,2.31-.63h3.5v-9.45h-3.5c-1.12,0-1.89-.21-2.31-.7ZM94.8,26.55h2.8v-9.45h-2.8v9.45ZM117.13,22.77c-.63-.49-.84-1.19-.84-2.03v-5.88c0-1.19.14-2.03.56-2.45.42-.49,1.19-.91,2.31-1.4l17.29-5.6c1.19-.42,1.96-.49,2.31-.28.42.21.56.84.56,1.96v7.56c0,.91-.14,1.54-.56,1.89-.35.42-1.12.91-2.31,1.47l-17.29,5.46c-.77.07-1.47-.14-2.03-.7ZM117.13,44.4c-.63-.56-.84-1.26-.84-2.03v-5.88c0-1.19.14-2.03.56-2.45.42-.49,1.19-.98,2.31-1.4l17.29-5.6c1.19-.42,1.96-.49,2.31-.28.42.14.56.84.56,1.89v7.63c0,.84-.14,1.47-.56,1.89-.35.42-1.12.91-2.31,1.47l-17.29,5.46c-.77.07-1.47-.14-2.03-.7ZM117.13,65.76c-.63-.56-.84-1.26-.84-2.1v-5.88c0-1.19.14-1.96.56-2.45.42-.42,1.19-.91,2.31-1.33l17.29-5.6c1.19-.42,1.96-.56,2.31-.35.42.21.56.84.56,1.96v7.56c0,.91-.14,1.54-.56,1.96-.35.42-1.12.84-2.31,1.4l-17.29,5.46c-.77.14-1.47-.14-2.03-.63Z"/><path class="cls-2" d="M170.1,50.07c.7.07,1.33.28,1.75.77.49.49.77,1.12.77,1.82v5.81c0,2.45-.63,4.34-1.96,5.6-1.33,1.26-3.5,2.03-6.51,2.1h-10.22c-.84,0-1.54-.28-2.03-.77s-.7-1.05-.7-1.75v-3.85c0-.7.21-1.26.7-1.75.49-.49,1.19-.77,2.03-.77h5.39c.84,0,1.47-.28,1.96-.77.49-.49.77-1.19.77-2.03v-1.82c0-.7.28-1.33.77-1.82.49-.49,1.12-.7,1.82-.77h5.46ZM188.16,48.6v15.26c0,.7-.21,1.26-.56,1.61-.42.35-.98.56-1.61.56h-7.7c-.63,0-1.26-.21-1.68-.56-.49-.35-.7-.91-.7-1.61v-15.26h-21.63c-.98,0-1.68-.35-2.17-.91-.56-.56-.84-1.19-.84-1.96V11.99c0-.7.28-1.26.84-1.82.49-.56,1.19-.84,2.17-.84h6.37c.84,0,1.54.28,2.1.84.56.56.84,1.12.84,1.82v27.72h46.7c1.12,0,1.89.14,2.31.56.35.42.56,1.33.56,2.59v2.8c0,.98-.21,1.68-.56,2.17-.42.49-1.19.77-2.31.77h-22.12ZM209.09,5.34c.35.42.56.91.56,1.68v29.05c0,.7-.21,1.26-.56,1.61-.35.35-.84.49-1.61.49h-39.41c-.77,0-1.26-.14-1.61-.49-.35-.35-.49-.91-.49-1.61V7.02c0-.77.14-1.26.49-1.68.35-.35.84-.49,1.61-.49h39.41c.77,0,1.26.14,1.61.49ZM197.33,11.5h-19.11v2.17h19.11v-2.17ZM197.33,20.25h-19.11v2.17h19.11v-2.17ZM197.33,28.93h-19.11v2.31h19.11v-2.31ZM201.18,50.84c.49.49.77,1.12.77,1.82v1.82c0,.84.28,1.54.77,2.03s1.19.77,1.96.77h5.39c.84,0,1.54.28,2.03.77s.7,1.05.7,1.75v3.85c0,.7-.21,1.26-.7,1.75-.49.49-1.19.77-2.03.77h-10.22c-3.01-.07-5.18-.84-6.51-2.1-1.33-1.26-1.96-3.15-1.96-5.6v-5.81c0-.7.28-1.33.77-1.82.42-.49,1.05-.7,1.75-.77h5.46c.7.07,1.33.28,1.82.77Z"/></g></svg>