<?xml version="1.0" encoding="UTF-8"?><svg id="_レイヤー_2" xmlns="http://www.w3.org/2000/svg" viewBox="0 0 216.38 70.89"><defs><style>.cls-1,.cls-2,.cls-3{stroke-width:0px;}.cls-2{fill:#198caa;}.cls-3{fill:#fff;}</style></defs><g id="_レイヤー_4"><path class="cls-1" d="M17.02,63.45c-.49,1.19-.84,1.96-1.19,2.38-.28.42-.98.56-2.03.56h-6.37c-1.12,0-1.89-.14-2.45-.49-.49-.35-.63-1.05-.28-2.24l2.66-5.95c.63-1.12,1.12-1.96,1.47-2.31.35-.35,1.12-.56,2.17-.56h5.88c1.19,0,2.03.28,2.59.84.49.49.56,1.12.21,1.82l-2.66,5.95ZM7.29,20.95c-.42-.49-.63-1.26-.63-2.24v-3.01c0-.91.07-1.54.21-2.03l3.78-5.88c.77-1.26,1.4-2.1,1.75-2.45.35-.42,1.12-.56,2.17-.49h4.83c1.19-.07,2.03.14,2.52.7.49.56.56,1.19.21,1.96l-3.08,4.97h4.2l-.98-1.68c-.42-.77-.35-1.4.21-1.96.49-.56,1.33-.77,2.52-.77h4.76c1.12,0,1.82.14,2.17.56.42.35.98,1.19,1.82,2.38l1.54,2.38c.21.63.28,1.4.28,2.31v3.01c0,.98-.21,1.75-.63,2.24-.42.42-1.19.7-2.38.7H9.53c-1.12,0-1.82-.28-2.24-.7ZM35.08,23.89c.35.35.49.91.49,1.61v25.34c0,.7-.14,1.26-.49,1.61s-.91.49-1.61.49h-11.41c-.84,0-1.4-.14-1.75-.49-.28-.35-.49-.84-.49-1.4v-2.03c0-.84.21-1.47.49-1.89.35-.42.91-.63,1.75-.63h1.61v-1.75h-5.11v6.09c0,.7-.14,1.26-.35,1.61-.28.35-.84.49-1.61.49h-7.84c-.7,0-1.26-.14-1.61-.49-.35-.35-.49-.91-.49-1.61v-25.34c0-.7.14-1.26.49-1.61.35-.35.91-.56,1.61-.56h24.71c.7,0,1.26.21,1.61.56ZM23.67,31.17v-1.68h-5.11v1.68h5.11ZM23.67,38.8v-1.68h-5.11v1.68h5.11ZM22.2,55.68c.49-.56,1.33-.84,2.52-.84h5.88c1.05,0,1.82.21,2.17.56.35.35.84,1.19,1.54,2.31l2.66,5.95c.28,1.19.21,1.89-.35,2.24-.49.35-1.33.49-2.38.49h-6.37c-1.12,0-1.82-.14-2.1-.56-.28-.42-.7-1.19-1.19-2.38l-2.59-5.95c-.35-.7-.28-1.33.21-1.82ZM37.25,55.68c.49-.56,1.33-.84,2.52-.84h5.88c1.05,0,1.82.21,2.17.56.35.35.84,1.19,1.47,2.31l2.66,5.95c.35,1.19.28,1.89-.28,2.24-.49.35-1.33.49-2.45.49h-6.3c-1.12,0-1.82-.14-2.1-.56-.28-.42-.7-1.19-1.19-2.38l-2.59-5.95c-.42-.7-.35-1.33.21-1.82ZM38.02,27.53c-.42-.35-.63-.91-.63-1.75V7.51c0-1.12.21-1.82.63-2.24.35-.35,1.19-.49,2.31-.49h6.02c1.12,0,1.82.14,2.24.42.35.35.49,1.12.49,2.31v1.89h12.88c1.19,0,1.96.21,2.38.63.42.42.63,1.26.63,2.59v2.24c0,.98-.21,1.75-.63,2.24-.42.49-1.19.7-2.38.7h-12.88v.35c0,.98.49,1.47,1.4,1.47h11.48c1.12,0,1.82.21,2.24.56.42.42.63,1.12.63,2.24v3.36c0,.84-.21,1.4-.63,1.75-.42.35-1.12.56-2.24.56h-21.63c-1.12,0-1.96-.21-2.31-.56ZM38.02,52.46c-.42-.35-.63-.91-.63-1.75v-18.34c0-1.12.21-1.82.63-2.17.35-.35,1.19-.56,2.31-.56h6.02c1.12,0,1.82.14,2.24.49.35.28.49,1.05.49,2.24v1.89h12.88c1.19,0,1.96.21,2.38.63.42.42.63,1.26.63,2.59v2.31c0,.98-.21,1.68-.63,2.17-.42.49-1.19.77-2.38.77h-12.88v.28c0,1.05.49,1.54,1.4,1.54h11.48c1.12,0,1.82.21,2.24.56s.63,1.05.63,2.17v3.43c0,.84-.21,1.4-.63,1.75s-1.12.49-2.24.49h-21.63c-1.12,0-1.96-.14-2.31-.49ZM51.74,55.68c.49-.56,1.33-.84,2.52-.84h5.88c1.05,0,1.82.21,2.17.56.35.35.84,1.19,1.47,2.31l2.66,5.95c.35,1.19.28,1.89-.28,2.24-.49.35-1.33.49-2.45.49h-6.3c-1.12,0-1.82-.14-2.1-.56-.28-.42-.7-1.19-1.19-2.38l-2.59-5.95c-.42-.7-.35-1.33.21-1.82Z"/><path class="cls-1" d="M78.22,25.01c-.42-.49-.63-1.19-.63-2.24v-4.9c0-1.33.21-2.17.63-2.59s1.19-.63,2.24-.63h20.23v-7.42c.07-.77.35-1.4.91-1.96.49-.49,1.19-.77,2.1-.77h8.33c.77,0,1.47.28,2.03.77.56.56.91,1.19.91,1.96v7.42h20.09c1.19,0,1.96.21,2.31.63s.56,1.26.7,2.59v4.9c0,1.05-.21,1.75-.63,2.24s-1.19.7-2.38.7h-15.26l15.61,15.12c1.05,1.05,1.82,1.82,2.24,2.31.42.56.63,1.47.63,2.73v10.85c0,1.05-.28,1.75-.77,1.96-.49.21-1.19-.07-2.1-.98l-6.86-6.58v4.48c0,.98-.21,1.75-.63,2.24s-1.19.7-2.38.7h-10.57v5.11c0,.77-.35,1.4-.91,1.96-.56.56-1.26.77-2.03.77h-8.33c-.91,0-1.61-.21-2.1-.77-.56-.56-.84-1.19-.91-1.96v-5.11h-10.71c-1.12,0-1.82-.21-2.24-.7s-.63-1.26-.63-2.24v-4.48l-6.86,6.58c-.91.91-1.61,1.19-2.1.98-.49-.21-.77-.91-.77-1.96v-10.85c0-1.26.21-2.17.63-2.73.42-.49,1.19-1.26,2.24-2.31l15.61-15.12h-15.4c-1.05,0-1.82-.21-2.24-.7ZM90.89,47.48h9.8v-9.59l-9.8,9.59ZM114.97,47.48h9.8l-9.8-9.59v9.59Z"/><path class="cls-1" d="M168.83,50.21c.7.07,1.33.28,1.75.77.49.49.77,1.12.77,1.82v5.81c0,2.45-.63,4.34-1.96,5.6-1.33,1.26-3.5,2.03-6.51,2.1h-10.22c-.84,0-1.54-.28-2.03-.77-.49-.49-.7-1.05-.7-1.75v-3.85c0-.7.21-1.26.7-1.75.49-.49,1.19-.77,2.03-.77h5.39c.84,0,1.47-.28,1.96-.77.49-.49.77-1.19.77-2.03v-1.82c0-.7.28-1.33.77-1.82s1.12-.7,1.82-.77h5.46ZM186.89,48.74v15.26c0,.7-.21,1.26-.56,1.61-.42.35-.98.56-1.61.56h-7.7c-.63,0-1.26-.21-1.68-.56-.49-.35-.7-.91-.7-1.61v-15.26h-21.63c-.98,0-1.68-.35-2.17-.91-.56-.56-.84-1.19-.84-1.96V12.13c0-.7.28-1.26.84-1.82.49-.56,1.19-.84,2.17-.84h6.37c.84,0,1.54.28,2.1.84.56.56.84,1.12.84,1.82v27.72h46.69c1.12,0,1.89.14,2.31.56.35.42.56,1.33.56,2.59v2.8c0,.98-.21,1.68-.56,2.17-.42.49-1.19.77-2.31.77h-22.12ZM207.82,5.48c.35.42.56.91.56,1.68v29.05c0,.7-.21,1.26-.56,1.61-.35.35-.84.49-1.61.49h-39.41c-.77,0-1.26-.14-1.61-.49-.35-.35-.49-.91-.49-1.61V7.16c0-.77.14-1.26.49-1.68.35-.35.84-.49,1.61-.49h39.41c.77,0,1.26.14,1.61.49ZM196.06,11.64h-19.11v2.17h19.11v-2.17ZM196.06,20.39h-19.11v2.17h19.11v-2.17ZM196.06,29.07h-19.11v2.31h19.11v-2.31ZM199.91,50.98c.49.49.77,1.12.77,1.82v1.82c0,.84.28,1.54.77,2.03.49.49,1.19.77,1.96.77h5.39c.84,0,1.54.28,2.03.77s.7,1.05.7,1.75v3.85c0,.7-.21,1.26-.7,1.75s-1.19.77-2.03.77h-10.22c-3.01-.07-5.18-.84-6.51-2.1-1.33-1.26-1.96-3.15-1.96-5.6v-5.81c0-.7.28-1.33.77-1.82.42-.49,1.05-.7,1.75-.77h5.46c.7.07,1.33.28,1.82.77Z"/><path class="cls-2" d="M63.71,70.89h-6.3c-.78,0-2.44,0-3.96-.83-1.47.73-3.08.83-4.24.83h-6.3c-.82,0-2.63,0-4.22-.99-1.17.67-2.61.99-4.46.99h-6.37c-1.13,0-4.14,0-5.85-2.57-.39-.59-.81-1.36-1.22-2.27-.42.96-.83,1.78-1.39,2.49-1.73,2.34-4.64,2.34-5.62,2.34h-6.37c-1.27,0-3.15-.12-4.83-1.17-.08-.05-.16-.1-.23-.15-1.02-.73-3.25-2.88-1.98-7.18.06-.19.13-.38.21-.56l2.66-5.95c.06-.13.12-.25.19-.37.05-.09.1-.18.16-.27-.72-.88-1.43-2.28-1.43-4.38v-25.34c0-1.35.29-2.41.7-3.23-.46-1.03-.7-2.22-.7-3.56v-3.01c0-1.34.12-2.35.38-3.27.12-.42.3-.82.54-1.19l3.75-5.84c.6-.98,1.45-2.27,2.26-3.11C10.37.87,12.24.22,14.7.35h4.58c2.58-.12,4.62.63,6.03,2.24.27.31.51.64.71.98h3.74c.71,0,2.21,0,3.67.68.29-.74.73-1.49,1.41-2.17,1.62-1.62,3.91-1.8,5.49-1.8h6.02c1.38,0,3.17.13,4.73,1.17.25.17.49.36.7.57.85.85,1.3,1.86,1.54,2.87h8.64c.9,0,3.62,0,5.57,1.96,1.74,1.73,1.94,4.12,1.94,5.76v2.24c0,1.49-.29,2.79-.86,3.9.72,1.53.72,3.05.72,3.66v3.36c0,2.76-1.22,4.35-2.25,5.21-.06.05-.13.11-.2.16.22.16.43.35.64.55,1.75,1.74,1.95,4.13,1.95,5.77v2.31c0,1.46-.29,2.75-.86,3.84.48,1.02.72,2.24.72,3.65v3.43c0,2.27-.83,3.75-1.69,4.68.02.04.04.07.06.11.07.12.13.25.19.37l2.66,5.95c.08.18.15.37.21.57,1.28,4.36-.93,6.47-2.08,7.24-1.65,1.13-3.62,1.26-4.97,1.26ZM59.05,63.33s0,0,0,0c0,0,0,0,0,0ZM12.09,63.32s0,0,0,0c0,0,0,0,0,0ZM29.51,63.32s0,0,0,0c0,0,0,0,0,0ZM58.35,61.89h2.38l-.96-2.15c-.07-.12-.14-.25-.23-.4h-2.29l1.01,2.31c.03.08.07.16.1.24ZM43.85,61.89h2.38l-.96-2.15c-.06-.11-.14-.25-.23-.4h-2.29l1.01,2.31c.03.08.07.16.1.24ZM28.8,61.89h2.45l-.92-2.06-.22-.35s-.06-.09-.09-.14h-2.33l1.01,2.31c.03.08.07.16.1.24ZM10.41,61.89h2.38s.04-.1.06-.15c.02-.04.03-.08.05-.12l1.02-2.27h-2.32c-.08.15-.16.28-.23.4l-.96,2.15ZM41.89,48.45h5.9c-1.95-.95-3.21-2.95-3.21-5.44v-.28c0-1.95,1.24-3.61,2.98-4.24-1.74-.62-2.98-2.29-2.98-4.24v-.12h-2.69v14.31ZM27.73,48.45h3.34v-20.61h-3.22c.2.51.32,1.07.32,1.66v1.68c0,1.14-.42,2.18-1.12,2.98.7.79,1.12,1.83,1.12,2.98v1.68c0,1.14-.42,2.18-1.12,2.98.7.79,1.12,1.83,1.12,2.98v1.75c0,.7-.16,1.35-.44,1.94ZM11.16,48.45h2.9v-3.69c0-1.14.43-2.18,1.12-2.98-.7-.79-1.12-1.83-1.12-2.98v-1.68c0-1.14.42-2.18,1.12-2.98-.7-.79-1.12-1.83-1.12-2.98v-1.68c0-.59.11-1.15.32-1.66h-3.22v20.61ZM41.89,23.59h6.03c-2.03-.91-3.34-2.93-3.34-5.44v-.35c0-1.91,1.2-3.55,2.88-4.2-1.69-.65-2.88-2.29-2.88-4.2v-.12h-2.69v14.31ZM11.16,17.15h19.91v-1.45c0-.25,0-.44-.02-.57l-1.33-2.02c-.12-.17-.25-.36-.38-.54h-1.6c-.01.74-.21,1.48-.6,2.15-.8,1.4-2.29,2.26-3.9,2.26h-4.2c-1.63,0-3.14-.88-3.93-2.31-.79-1.43-.75-3.17.11-4.56l.47-.76h-.71c-.15.22-.31.48-.5.79-.02.03-.04.06-.06.09l-3.27,5.08c0,.11,0,.24,0,.39v1.45ZM15.85,8.22s0,0,0,0c0,0,0,0,0,0Z"/><path class="cls-2" d="M112.03,70.89h-8.33c-2.75,0-4.43-1.16-5.38-2.18-1.24-1.28-1.95-2.84-2.12-4.64-.01-.14-.02-.27-.02-.41v-.61h-6.21c-.92,0-3.71,0-5.66-2.27-.12-.14-.23-.28-.33-.42l-.63.6c-2.95,2.95-5.64,2.44-6.98,1.87-1.07-.46-3.51-1.96-3.51-6.1v-10.85c0-2.28.5-4.06,1.53-5.43.06-.08.12-.15.18-.22.52-.6,1.28-1.37,2.48-2.57l7.68-7.44h-4.29c-2.46,0-4.37-.77-5.66-2.27-1.15-1.34-1.71-3.04-1.71-5.17v-4.9c0-1.64.2-4.03,1.95-5.77,1.29-1.29,3.12-1.95,5.42-1.95h15.73v-2.92c0-.14,0-.27.02-.41.17-1.84.91-3.43,2.21-4.73,1.37-1.37,3.2-2.09,5.29-2.09h8.33c1.83,0,3.61.67,5,1.88.08.07.15.13.22.21,1.84,1.84,2.23,3.81,2.23,5.14v2.92h15.59c.96,0,3.89,0,5.76,2.25,1.2,1.44,1.54,3.25,1.72,5,.02.16.03.31.03.47v4.9c0,2.13-.56,3.82-1.71,5.17-1.95,2.27-4.85,2.27-5.8,2.27h-4.15l7.63,7.39c1.25,1.25,2.01,2.01,2.53,2.62.06.07.12.15.18.22,1.03,1.37,1.53,3.15,1.53,5.43v10.85c0,4.14-2.44,5.64-3.49,6.09-1.35.57-4.05,1.08-7.06-1.93l-.56-.54c-.1.15-.22.29-.33.42-1.95,2.27-4.85,2.27-5.8,2.27h-6.07v.61c0,1.33-.39,3.3-2.23,5.14-.95.95-2.63,2.09-5.21,2.09ZM105.19,61.89h5.28s0-3.34,0-3.34c0-2.49,2.01-4.5,4.5-4.5h9.08v-2.06h-9.08c-2.49,0-4.5-2.01-4.5-4.5v-9.59c0-1.81,1.09-3.45,2.76-4.15,1.67-.7,3.6-.33,4.89.93l9.8,9.59c.68.67,1.11,1.51,1.28,2.4.91.13,1.78.54,2.47,1.21l2.12,2.03v-4.03c0-.12,0-.22,0-.3-.41-.43-.98-1-1.54-1.56l-15.56-15.07c-1.32-1.28-1.73-3.22-1.04-4.92.69-1.7,2.34-2.81,4.17-2.81h13.77v-2.06h-18.6c-2.49,0-4.5-2.01-4.5-4.5v-5.65h-5.28v5.65c0,2.49-2.01,4.5-4.5,4.5h-18.6v2.06h13.77c1.83,0,3.48,1.11,4.17,2.81.69,1.7.28,3.65-1.04,4.92l-15.61,15.12c-.5.5-1.08,1.08-1.49,1.51,0,.08,0,.18,0,.3v4.03l2.12-2.03c.69-.66,1.56-1.07,2.47-1.21.16-.89.6-1.74,1.28-2.4l9.8-9.59c1.29-1.27,3.22-1.63,4.89-.93,1.67.7,2.76,2.34,2.76,4.15v9.59c0,2.49-2.01,4.5-4.5,4.5h-9.08v2.06h9.08c2.49,0,4.5,2.01,4.5,4.5v3.34ZM82.09,22.97h0,0ZM133.45,17.37h0s0,0,0,0Z"/><path class="cls-2" d="M208.8,70.82h-10.22s-.07,0-.11,0c-3.51-.08-6.37-.93-8.52-2.51-.14.17-.29.34-.44.49-.09.09-.19.18-.29.27-1.24,1.04-2.84,1.61-4.5,1.61h-7.7c-1.62,0-3.22-.54-4.43-1.5-.37-.28-.7-.6-.99-.94-2.16,1.63-5.05,2.5-8.61,2.58-.04,0-.07,0-.11,0h-10.22c-2.01,0-3.87-.74-5.21-2.09-1.32-1.32-2.02-3.03-2.02-4.93v-3.85c0-1.9.7-3.61,2.01-4.93,1.03-1.03,2.35-1.7,3.81-1.97-1.43-.33-2.71-1.06-3.69-2.14-1.35-1.4-2.06-3.13-2.06-5.04V12.13c0-1.84.69-3.49,2.06-4.91.97-1.06,2.68-2.25,5.45-2.25h6.37c.37,0,.73.02,1.08.07.25-.91.67-1.72,1.27-2.44.08-.1.17-.2.27-.29,1.2-1.21,2.81-1.82,4.8-1.82h39.41c1.99,0,3.6.61,4.8,1.82.09.09.18.19.27.29,1.06,1.28,1.6,2.81,1.6,4.56v28.93c.56.27,1.12.64,1.62,1.14.1.1.19.2.28.3,1.08,1.29,1.6,3.08,1.6,5.47v2.8c0,1.87-.47,3.48-1.4,4.78-.08.11-.16.21-.25.31-.75.87-2.04,1.88-4.17,2.22,1.32.3,2.5.95,3.44,1.89,1.32,1.32,2.02,3.03,2.02,4.93v3.85c0,1.91-.7,3.61-2.02,4.93-1.35,1.35-3.2,2.09-5.21,2.09ZM198.63,61.82h3.48c-1.47-.25-2.8-.93-3.85-1.98-1.32-1.32-2.07-3.14-2.09-5.12h-1.57v3.9c0,1.15.2,2,.56,2.34.14.13.97.8,3.47.86ZM159.36,61.82h3.46c2.5-.07,3.33-.73,3.47-.87.35-.33.55-1.18.55-2.33v-3.9h-1.57c-.02,1.98-.76,3.8-2.09,5.13-1.05,1.05-2.36,1.72-3.82,1.97ZM179.14,61.68h3.25v-12.93c0-2.15,1.5-3.94,3.51-4.39h-10.27c2.01.45,3.51,2.25,3.51,4.39v12.93ZM154.49,44.24h6.83c-2.01-.45-3.51-2.25-3.51-4.39V13.97h-3.32v30.27ZM199.85,33.81h4.03V9.49h-3.87c.35.64.55,1.37.55,2.15v2.17c0,1.3-.55,2.47-1.43,3.29.88.82,1.43,1.99,1.43,3.29v2.17c0,1.28-.53,2.44-1.39,3.25.86.82,1.39,1.97,1.39,3.25v2.31c0,.9-.26,1.73-.71,2.43ZM169.2,33.81h3.96c-.45-.7-.71-1.53-.71-2.43v-2.31c0-1.28.53-2.44,1.39-3.25-.86-.82-1.39-1.97-1.39-3.25v-2.17c0-1.3.55-2.47,1.43-3.29-.88-.82-1.43-1.99-1.43-3.29v-2.17c0-.78.2-1.51.55-2.15h-3.8v24.32ZM206.26,9.49h.01-.01Z"/><path class="cls-3" d="M63.71,69.39h-6.3c-.83,0-2.61,0-3.9-1.11-.06.04-.11.08-.17.12-1.31.89-2.97,1-4.12,1h-6.3c-.89,0-2.85,0-4.16-1.35-.16.14-.31.25-.47.36-.99.68-2.28,1-4.05,1h-6.37c-1,0-3.33,0-4.6-1.9-.46-.69-.97-1.7-1.47-2.9l-.99-2.28-1.04,2.32c-.59,1.43-1.01,2.32-1.56,3.01-1.29,1.75-3.55,1.75-4.42,1.75h-6.37c-1.17,0-2.7-.11-4.04-.94-.05-.03-.1-.07-.15-.1-.94-.67-2.37-2.28-1.42-5.53.04-.13.08-.25.14-.38l2.66-5.95c.04-.08.08-.17.12-.25.26-.47.5-.89.73-1.27-.16-.12-.3-.25-.44-.39-.91-.91-1.37-2.17-1.37-3.74v-25.34c0-1.28.31-2.35.91-3.2-.61-.97-.91-2.17-.91-3.6v-3.01c0-1.19.1-2.07.33-2.86.08-.28.2-.55.36-.8l3.78-5.88c.53-.87,1.35-2.11,2.07-2.87.97-1.08,2.47-1.56,4.46-1.45h4.66c2.13-.1,3.77.47,4.86,1.73.4.46.7.96.9,1.49h4.68c.89,0,2.91,0,4.28,1.42.12.12.25.24.37.38.06-.97.31-2.54,1.5-3.72,1.21-1.21,3-1.37,4.43-1.37h6.02c1.74,0,2.94.28,3.9.92.17.11.32.24.47.38.91.92,1.23,2.13,1.32,3.32h9.92c.74,0,3,0,4.51,1.51,1.35,1.34,1.5,3.33,1.5,4.71v2.24c0,1.56-.37,2.86-1.1,3.87.96,1.42.96,3.09.96,3.69v3.36c0,2.17-.93,3.41-1.71,4.06-1.01.84-2.37,1.25-4.16,1.25h-9.94c0,.05.01.11.01.16h9.92c2.01,0,3.49.49,4.5,1.51,1.35,1.35,1.51,3.33,1.51,4.71v2.31c0,1.53-.37,2.81-1.11,3.82.97,1.37.97,3.05.97,3.67v3.43c0,2.17-.93,3.41-1.71,4.06-.13.11-.26.21-.4.3.21.35.43.74.67,1.17.05.08.09.16.13.25l2.66,5.95c.05.12.1.25.14.38.98,3.33-.47,4.91-1.49,5.58-1.31.89-2.97,1-4.12,1ZM57.8,64.16s0,0,0,0c0,0,0,0,0,0ZM28.26,64.15s0,0,0,0c0,0,0,0,0,0ZM57.38,63.39h5.66l-1.94-4.33c-.18-.32-.48-.84-.71-1.21-.07,0-.16,0-.25,0h-5.19l1.92,4.41c.2.48.37.85.51,1.14ZM42.89,63.39h5.65l-1.94-4.33c-.18-.32-.47-.84-.71-1.21-.07,0-.16,0-.25,0h-5.19l1.92,4.41c.2.48.37.85.51,1.14ZM27.84,63.39h5.73l-1.91-4.27-.27-.43c-.17-.28-.37-.59-.53-.84-.07,0-.16,0-.26,0h-5.19l1.92,4.41c.2.48.37.85.51,1.14ZM8.1,63.39h5.68c.12-.27.28-.63.46-1.08.01-.03.02-.06.04-.08l1.96-4.38h-5.24c-.1,0-.19,0-.26,0-.21.35-.52.89-.7,1.21l-1.94,4.33ZM53.72,57.93s0,0,0,0c0,0,0,0,0,0ZM39.22,57.93s0,0,0,0c0,0,0,0,0,0ZM37.25,55.68h0,0ZM40.39,49.95h21.44v-2.4h-11.35c-2.59,0-4.4-1.87-4.4-4.54v-.28c0-1.66,1.34-3,3-3h12.89v-2.25c0-.08,0-.15,0-.22h-12.89c-1.66,0-3-1.34-3-3v-1.62h-5.69v17.31ZM22.82,49.95h9.75v-23.61H9.66s0,23.61,0,23.61h5.9v-5.19c0-1.53,1.14-2.79,2.62-2.98-1.47-.19-2.62-1.45-2.62-2.98v-1.68c0-1.53,1.14-2.79,2.62-2.98-1.47-.19-2.62-1.45-2.62-2.98v-1.68c0-1.66,1.34-3,3-3h5.11c1.66,0,3,1.34,3,3v1.68c0,1.53-1.14,2.79-2.62,2.98,1.47.19,2.62,1.45,2.62,2.98v1.68c0,1.53-1.14,2.79-2.62,2.98,1.47.19,2.62,1.45,2.62,2.98v1.75c0,1.66-1.34,3-3,3h-.85v.44ZM40.39,25.09h21.44v-2.47h-11.35c-2.59,0-4.4-1.84-4.4-4.47v-.35c0-1.66,1.34-3,3-3h12.89v-2.18c0-.08,0-.15,0-.22h-12.89c-1.66,0-3-1.34-3-3v-1.62h-5.69v17.31ZM9.66,18.65h22.91v-2.95c0-.53-.03-.88-.07-1.09l-1.55-2.36c-.28-.4-.62-.89-.84-1.17-.09,0-.21,0-.35,0h-3.86c.48.91.47,2.01-.05,2.9-.54.93-1.53,1.51-2.6,1.51h-4.2c-1.09,0-2.09-.59-2.62-1.54-.53-.95-.5-2.11.07-3.04l1.89-3.05h-3.82c-.07,0-.13,0-.2,0-.05,0-.11,0-.15,0-.23.31-.57.8-1.01,1.52l-3.51,5.46c-.02.19-.04.47-.04.88v2.95ZM14.7,7.26s0,0,0,0c0,0,0,0,0,0Z"/><path class="cls-3" d="M112.03,69.39h-8.33c-1.81,0-3.25-.58-4.29-1.72-1-1.03-1.58-2.29-1.71-3.74,0-.09-.01-.18-.01-.27v-2.11h-7.71c-.75,0-3.02,0-4.52-1.75-.47-.55-.82-1.19-1.04-1.93l-2.09,2.01c-2.23,2.23-4.14,2.09-5.35,1.58-.79-.34-2.59-1.47-2.59-4.72v-10.85c0-1.95.4-3.43,1.23-4.53.04-.05.08-.1.12-.15.48-.56,1.23-1.31,2.4-2.48l10.32-10h-7.99c-2,0-3.52-.59-4.52-1.75-.91-1.06-1.35-2.43-1.35-4.19v-4.9c0-1.38.16-3.36,1.51-4.71,1-1,2.47-1.51,4.36-1.51h17.23v-4.42c0-.09,0-.18.01-.27.13-1.48.73-2.76,1.77-3.81.75-.75,2.1-1.65,4.22-1.65h8.33c1.47,0,2.89.54,4.01,1.51.05.04.1.09.15.14,1.19,1.19,1.79,2.56,1.79,4.08v4.42h17.09c.79,0,3.19,0,4.61,1.71.94,1.13,1.22,2.68,1.38,4.2.01.1.02.21.02.32v4.9c0,1.76-.44,3.13-1.35,4.19-1.5,1.75-3.88,1.75-4.66,1.75h-7.85l10.29,9.97c1.21,1.2,1.95,1.95,2.43,2.51.04.05.08.1.12.15.83,1.1,1.23,2.59,1.23,4.53v10.85c0,3.25-1.81,4.38-2.58,4.72-1.22.52-3.14.66-5.41-1.62l-2.05-1.96c-.23.74-.57,1.39-1.04,1.94-1.5,1.75-3.88,1.75-4.66,1.75h-7.57v2.11c0,1.05-.31,2.6-1.79,4.08-.75.75-2.08,1.65-4.15,1.65ZM103.69,63.39h8.28v-4.84c0-1.66,1.34-3,3-3h10.58v-4.42c0-.27.04-.52.1-.77-.28.09-.58.13-.88.13h-9.8c-1.66,0-3-1.34-3-3v-9.59c0-1.21.72-2.3,1.84-2.77,1.11-.47,2.4-.22,3.26.62l9.8,9.59c.78.76,1.08,1.88.8,2.92,1.03-.32,2.17-.06,2.96.7l4.66,4.46v-7.55c0-.54-.05-.85-.09-.98-.41-.45-1.14-1.18-1.9-1.94l-15.58-15.09c-.88-.85-1.15-2.15-.69-3.28.46-1.13,1.56-1.87,2.78-1.87h15.27v-4.68c-.02-.14-.03-.27-.05-.38h-20.05c-1.66,0-3-1.34-3-3v-7.12l-8.27-.03h-.01v7.15c0,1.66-1.34,3-3,3h-20.1c0,.07,0,.14,0,.22v4.84h15.27c1.22,0,2.32.74,2.78,1.87.46,1.13.18,2.43-.69,3.28l-15.61,15.12c-.7.7-1.45,1.44-1.87,1.91-.03.13-.09.43-.09.98v7.55l4.66-4.47c.79-.76,1.93-1.02,2.96-.7-.28-1.04.02-2.15.8-2.92l9.8-9.59c.86-.84,2.15-1.09,3.26-.62,1.11.47,1.84,1.56,1.84,2.77v9.59c0,1.66-1.34,3-3,3h-9.8c-.3,0-.6-.05-.88-.13.07.25.1.51.1.77v4.42h10.58c1.66,0,3,1.34,3,3v4.84ZM80.63,23.28h0,0ZM103.69,7.39v.03s.02-.02.03-.03h-.03Z"/><path class="cls-3" d="M208.8,69.32h-10.22c-3.76-.09-6.62-1.07-8.57-2.92-.15-.15-.3-.29-.44-.45-.24.69-.62,1.3-1.12,1.79-.06.06-.13.12-.2.18-.97.81-2.23,1.26-3.54,1.26h-7.7c-1.29,0-2.57-.43-3.52-1.19-.72-.54-1.24-1.26-1.55-2.11-.16.18-.33.35-.5.51-1.96,1.85-4.82,2.84-8.51,2.92h-10.29c-1.61,0-3.09-.58-4.15-1.65-1.05-1.05-1.58-2.35-1.58-3.87v-3.85c0-1.52.53-2.82,1.58-3.87,1.06-1.06,2.54-1.65,4.15-1.65h5.12v-1.62c0-.36.04-.71.11-1.06h-4.87c-1.75,0-3.26-.64-4.36-1.86-1.08-1.11-1.65-2.5-1.65-4.01V12.13c0-1.45.56-2.75,1.65-3.88.76-.83,2.12-1.78,4.36-1.78h6.37c.83,0,1.61.15,2.32.45.02-.92.21-2.19,1.18-3.36.06-.07.12-.13.18-.2,1.37-1.38,3.15-1.38,3.74-1.38h39.41c.59,0,2.37,0,3.74,1.38.06.06.12.13.18.2.84,1.01,1.25,2.19,1.25,3.6v29.05c0,.31-.02.6-.06.89.76.2,1.5.56,2.12,1.19.06.06.13.13.18.2.84,1.01,1.25,2.49,1.25,4.51v2.8c0,1.56-.38,2.87-1.12,3.91-.05.07-.11.14-.16.21-.71.83-2.08,1.82-4.59,1.82h-5.43c.07.35.1.7.1,1.06v1.62h5.12c1.61,0,3.09.59,4.15,1.65,1.05,1.05,1.58,2.35,1.58,3.87v3.85c0,1.52-.53,2.82-1.58,3.87-1.06,1.06-2.54,1.65-4.15,1.65ZM193.11,53.21v5.4c0,1.63.34,2.78,1.02,3.43.82.77,2.42,1.23,4.52,1.28h9.88v-2.89h-5.12c-1.57,0-3.02-.59-4.08-1.66-1.06-1.06-1.65-2.53-1.65-4.15v-1.41h-4.57ZM152.92,63.31h9.95c2.03-.04,3.63-.5,4.45-1.27.68-.64,1.02-1.79,1.02-3.42v-5.4h-4.57v1.41c0,1.62-.59,3.09-1.65,4.15-1.07,1.07-2.48,1.65-4.08,1.65h-5.12v2.88ZM177.64,63.18h6.25v-14.43c0-1.66,1.34-3,3-3h21.99v-2.74c0-.05,0-.1,0-.15h-46.56c-1.66,0-3-1.34-3-3V12.48h-6.31s0,0,0,0v33.27h21.64c1.66,0,3,1.34,3,3v14.43ZM167.7,35.31h37.68V7.99s-37.68,0-37.68,0v27.32ZM206.4,8h0,0ZM196.06,34.38h-19.11c-1.66,0-3-1.34-3-3v-2.31c0-1.66,1.34-3,3-3h19.11c1.66,0,3,1.34,3,3v2.31c0,1.66-1.34,3-3,3ZM196.06,25.56h-19.11c-1.66,0-3-1.34-3-3v-2.17c0-1.66,1.34-3,3-3h19.11c1.66,0,3,1.34,3,3v2.17c0,1.66-1.34,3-3,3ZM196.06,16.81h-19.11c-1.66,0-3-1.34-3-3v-2.17c0-1.66,1.34-3,3-3h19.11c1.66,0,3,1.34,3,3v2.17c0,1.66-1.34,3-3,3Z"/><path class="cls-2" d="M17.02,63.45c-.49,1.19-.84,1.96-1.19,2.38-.28.42-.98.56-2.03.56h-6.37c-1.12,0-1.89-.14-2.45-.49-.49-.35-.63-1.05-.28-2.24l2.66-5.95c.63-1.12,1.12-1.96,1.47-2.31.35-.35,1.12-.56,2.17-.56h5.88c1.19,0,2.03.28,2.59.84.49.49.56,1.12.21,1.82l-2.66,5.95ZM7.29,20.95c-.42-.49-.63-1.26-.63-2.24v-3.01c0-.91.07-1.54.21-2.03l3.78-5.88c.77-1.26,1.4-2.1,1.75-2.45.35-.42,1.12-.56,2.17-.49h4.83c1.19-.07,2.03.14,2.52.7.49.56.56,1.19.21,1.96l-3.08,4.97h4.2l-.98-1.68c-.42-.77-.35-1.4.21-1.96.49-.56,1.33-.77,2.52-.77h4.76c1.12,0,1.82.14,2.17.56.42.35.98,1.19,1.82,2.38l1.54,2.38c.21.63.28,1.4.28,2.31v3.01c0,.98-.21,1.75-.63,2.24-.42.42-1.19.7-2.38.7H9.53c-1.12,0-1.82-.28-2.24-.7ZM35.08,23.89c.35.35.49.91.49,1.61v25.34c0,.7-.14,1.26-.49,1.61s-.91.49-1.61.49h-11.41c-.84,0-1.4-.14-1.75-.49-.28-.35-.49-.84-.49-1.4v-2.03c0-.84.21-1.47.49-1.89.35-.42.91-.63,1.75-.63h1.61v-1.75h-5.11v6.09c0,.7-.14,1.26-.35,1.61-.28.35-.84.49-1.61.49h-7.84c-.7,0-1.26-.14-1.61-.49-.35-.35-.49-.91-.49-1.61v-25.34c0-.7.14-1.26.49-1.61.35-.35.91-.56,1.61-.56h24.71c.7,0,1.26.21,1.61.56ZM23.67,31.17v-1.68h-5.11v1.68h5.11ZM23.67,38.8v-1.68h-5.11v1.68h5.11ZM22.2,55.68c.49-.56,1.33-.84,2.52-.84h5.88c1.05,0,1.82.21,2.17.56.35.35.84,1.19,1.54,2.31l2.66,5.95c.28,1.19.21,1.89-.35,2.24-.49.35-1.33.49-2.38.49h-6.37c-1.12,0-1.82-.14-2.1-.56-.28-.42-.7-1.19-1.19-2.38l-2.59-5.95c-.35-.7-.28-1.33.21-1.82ZM37.25,55.68c.49-.56,1.33-.84,2.52-.84h5.88c1.05,0,1.82.21,2.17.56.35.35.84,1.19,1.47,2.31l2.66,5.95c.35,1.19.28,1.89-.28,2.24-.49.35-1.33.49-2.45.49h-6.3c-1.12,0-1.82-.14-2.1-.56-.28-.42-.7-1.19-1.19-2.38l-2.59-5.95c-.42-.7-.35-1.33.21-1.82ZM38.02,27.53c-.42-.35-.63-.91-.63-1.75V7.51c0-1.12.21-1.82.63-2.24.35-.35,1.19-.49,2.31-.49h6.02c1.12,0,1.82.14,2.24.42.35.35.49,1.12.49,2.31v1.89h12.88c1.19,0,1.96.21,2.38.63.42.42.63,1.26.63,2.59v2.24c0,.98-.21,1.75-.63,2.24-.42.49-1.19.7-2.38.7h-12.88v.35c0,.98.49,1.47,1.4,1.47h11.48c1.12,0,1.82.21,2.24.56.42.42.63,1.12.63,2.24v3.36c0,.84-.21,1.4-.63,1.75-.42.35-1.12.56-2.24.56h-21.63c-1.12,0-1.96-.21-2.31-.56ZM38.02,52.46c-.42-.35-.63-.91-.63-1.75v-18.34c0-1.12.21-1.82.63-2.17.35-.35,1.19-.56,2.31-.56h6.02c1.12,0,1.82.14,2.24.49.35.28.49,1.05.49,2.24v1.89h12.88c1.19,0,1.96.21,2.38.63.42.42.63,1.26.63,2.59v2.31c0,.98-.21,1.68-.63,2.17-.42.49-1.19.77-2.38.77h-12.88v.28c0,1.05.49,1.54,1.4,1.54h11.48c1.12,0,1.82.21,2.24.56s.63,1.05.63,2.17v3.43c0,.84-.21,1.4-.63,1.75s-1.12.49-2.24.49h-21.63c-1.12,0-1.96-.14-2.31-.49ZM51.74,55.68c.49-.56,1.33-.84,2.52-.84h5.88c1.05,0,1.82.21,2.17.56.35.35.84,1.19,1.47,2.31l2.66,5.95c.35,1.19.28,1.89-.28,2.24-.49.35-1.33.49-2.45.49h-6.3c-1.12,0-1.82-.14-2.1-.56-.28-.42-.7-1.19-1.19-2.38l-2.59-5.95c-.42-.7-.35-1.33.21-1.82Z"/><path class="cls-2" d="M78.22,25.01c-.42-.49-.63-1.19-.63-2.24v-4.9c0-1.33.21-2.17.63-2.59s1.19-.63,2.24-.63h20.23v-7.42c.07-.77.35-1.4.91-1.96.49-.49,1.19-.77,2.1-.77h8.33c.77,0,1.47.28,2.03.77.56.56.91,1.19.91,1.96v7.42h20.09c1.19,0,1.96.21,2.31.63s.56,1.26.7,2.59v4.9c0,1.05-.21,1.75-.63,2.24s-1.19.7-2.38.7h-15.26l15.61,15.12c1.05,1.05,1.82,1.82,2.24,2.31.42.56.63,1.47.63,2.73v10.85c0,1.05-.28,1.75-.77,1.96-.49.21-1.19-.07-2.1-.98l-6.86-6.58v4.48c0,.98-.21,1.75-.63,2.24s-1.19.7-2.38.7h-10.57v5.11c0,.77-.35,1.4-.91,1.96-.56.56-1.26.77-2.03.77h-8.33c-.91,0-1.61-.21-2.1-.77-.56-.56-.84-1.19-.91-1.96v-5.11h-10.71c-1.12,0-1.82-.21-2.24-.7s-.63-1.26-.63-2.24v-4.48l-6.86,6.58c-.91.91-1.61,1.19-2.1.98-.49-.21-.77-.91-.77-1.96v-10.85c0-1.26.21-2.17.63-2.73.42-.49,1.19-1.26,2.24-2.31l15.61-15.12h-15.4c-1.05,0-1.82-.21-2.24-.7ZM90.89,47.48h9.8v-9.59l-9.8,9.59ZM114.97,47.48h9.8l-9.8-9.59v9.59Z"/><path class="cls-2" d="M168.83,50.21c.7.07,1.33.28,1.75.77.49.49.77,1.12.77,1.82v5.81c0,2.45-.63,4.34-1.96,5.6-1.33,1.26-3.5,2.03-6.51,2.1h-10.22c-.84,0-1.54-.28-2.03-.77-.49-.49-.7-1.05-.7-1.75v-3.85c0-.7.21-1.26.7-1.75.49-.49,1.19-.77,2.03-.77h5.39c.84,0,1.47-.28,1.96-.77.49-.49.77-1.19.77-2.03v-1.82c0-.7.28-1.33.77-1.82s1.12-.7,1.82-.77h5.46ZM186.89,48.74v15.26c0,.7-.21,1.26-.56,1.61-.42.35-.98.56-1.61.56h-7.7c-.63,0-1.26-.21-1.68-.56-.49-.35-.7-.91-.7-1.61v-15.26h-21.63c-.98,0-1.68-.35-2.17-.91-.56-.56-.84-1.19-.84-1.96V12.13c0-.7.28-1.26.84-1.82.49-.56,1.19-.84,2.17-.84h6.37c.84,0,1.54.28,2.1.84.56.56.84,1.12.84,1.82v27.72h46.69c1.12,0,1.89.14,2.31.56.35.42.56,1.33.56,2.59v2.8c0,.98-.21,1.68-.56,2.17-.42.49-1.19.77-2.31.77h-22.12ZM207.82,5.48c.35.42.56.91.56,1.68v29.05c0,.7-.21,1.26-.56,1.61-.35.35-.84.49-1.61.49h-39.41c-.77,0-1.26-.14-1.61-.49-.35-.35-.49-.91-.49-1.61V7.16c0-.77.14-1.26.49-1.68.35-.35.84-.49,1.61-.49h39.41c.77,0,1.26.14,1.61.49ZM196.06,11.64h-19.11v2.17h19.11v-2.17ZM196.06,20.39h-19.11v2.17h19.11v-2.17ZM196.06,29.07h-19.11v2.31h19.11v-2.31ZM199.91,50.98c.49.49.77,1.12.77,1.82v1.82c0,.84.28,1.54.77,2.03.49.49,1.19.77,1.96.77h5.39c.84,0,1.54.28,2.03.77s.7,1.05.7,1.75v3.85c0,.7-.21,1.26-.7,1.75s-1.19.77-2.03.77h-10.22c-3.01-.07-5.18-.84-6.51-2.1-1.33-1.26-1.96-3.15-1.96-5.6v-5.81c0-.7.28-1.33.77-1.82.42-.49,1.05-.7,1.75-.77h5.46c.7.07,1.33.28,1.82.77Z"/></g></svg>