<?xml version="1.0" encoding="UTF-8"?><svg id="_レイヤー_2" xmlns="http://www.w3.org/2000/svg" viewBox="0 0 216.94 70.82"><defs><style>.cls-1,.cls-2,.cls-3{stroke-width:0px;}.cls-2{fill:#198caa;}.cls-3{fill:#fff;}</style></defs><g id="_レイヤー_4"><path class="cls-1" d="M12.97,38.24c-1.19,0-2.03-.21-2.38-.7-.42-.49-.63-1.26-.63-2.24v-2.8h-2.87c-.77-.07-1.33-.28-1.89-.77-.49-.42-.7-1.05-.7-1.75v-3.99c0-.7.21-1.33.7-1.75.56-.49,1.12-.7,1.89-.77h4.55c5.18,0,9.66-1.19,13.44-3.57h-15.4c-1.19,0-1.96-.21-2.38-.7-.42-.49-.63-1.19-.63-2.24v-2.73c.07-1.33.28-2.17.7-2.59.35-.42,1.12-.63,2.31-.63h19.32v-3.36c0-.77.28-1.4.77-1.96s1.12-.84,1.89-.84h7.7c.77,0,1.4.28,1.89.84.49.56.77,1.19.77,1.96v3.36h19.46c1.12,0,1.82.21,2.24.63.42.42.63,1.26.63,2.59v2.73c0,1.05-.21,1.75-.63,2.24-.42.49-1.12.7-2.24.7h-15.54c3.78,2.38,8.26,3.57,13.44,3.57h4.55c.77.07,1.33.28,1.89.77.49.42.7,1.05.7,1.75v3.99c0,.7-.21,1.33-.7,1.75-.56.49-1.12.7-1.89.77h-2.87v2.8c0,.98-.21,1.75-.63,2.24-.35.49-1.12.7-2.24.7H12.97ZM23.61,50.98c.7,0,1.33.28,1.75.77.49.49.77,1.05.77,1.82v4.97c0,2.45-.63,4.34-1.96,5.6-1.33,1.26-3.5,2.03-6.51,2.1h-9.45c-.77,0-1.47-.28-1.96-.77-.49-.49-.77-1.05-.77-1.75v-3.85c0-.7.28-1.26.77-1.75.49-.49,1.19-.77,1.96-.77h4.62c.84,0,1.47-.28,1.96-.77.49-.49.77-1.19.77-2.03v-.98c0-.77.28-1.33.77-1.82s1.12-.77,1.82-.77h5.46ZM41.88,49.16v15.05c0,.7-.21,1.19-.56,1.61-.42.35-.98.49-1.61.49h-8.19c-.63,0-1.26-.14-1.68-.49-.49-.42-.7-.91-.7-1.61v-15.05H10.66c-1.19,0-2.03-.21-2.45-.7-.42-.49-.56-1.19-.56-2.24v-2.73c.07-1.33.28-2.17.63-2.59.42-.42,1.19-.63,2.38-.63h49.84c1.12,0,1.89.21,2.31.63.42.42.56,1.26.56,2.59v2.73c0,1.05-.14,1.75-.56,2.24s-1.19.7-2.31.7h-18.62ZM26.62,29.35h17.78c-3.15-.77-6.09-1.89-8.89-3.36-2.8,1.47-5.74,2.59-8.89,3.36ZM54.7,51.75c.49.49.77,1.05.77,1.82v.98c0,.84.28,1.54.77,2.03.49.49,1.19.77,1.96.77h4.62c.77,0,1.47.28,1.96.77s.77,1.05.77,1.75v3.85c0,.7-.28,1.26-.77,1.75s-1.19.77-1.96.77h-9.45c-3.01-.07-5.18-.84-6.51-2.1-1.33-1.26-1.96-3.15-1.96-5.6v-4.97c0-.77.28-1.33.77-1.82.42-.49,1.05-.77,1.75-.77h5.46c.7,0,1.33.28,1.82.77Z"/><path class="cls-1" d="M78.71,10.1c.42-.42,1.19-.63,2.24-.63h20.3v-2.17c0-.77.35-1.4.91-1.96.56-.56,1.26-.84,2.03-.84h8.61c.91,0,1.61.28,2.1.84.56.56.84,1.19.91,1.96v2.17h17.5c1.19,0,2.03.21,2.45.63.42.42.56,1.26.56,2.59v27.86c0,.77-.28,1.4-.84,1.96-.56.49-1.26.77-2.1.77h-18.13v2.59c.28,3.57.98,5.95,2.1,7.35l2.1-4.97c.56-1.19,1.05-1.96,1.47-2.31.42-.42,1.05-.56,1.89-.56h8.05c1.12,0,1.75.14,1.96.56.21.35.14,1.12-.28,2.31l-3.22,7.35h7c.77.07,1.4.28,1.89.77.49.42.77,1.05.77,1.75v5.6c0,.77-.28,1.33-.77,1.82-.49.42-1.12.7-1.89.7h-21.07c-4.97-.07-8.61-1.68-10.92-4.69-2.24-3.01-3.36-7.42-3.36-13.16v-5.11h-8.4v10.85c0,.98.49,1.47,1.4,1.47h3.57c1.05,0,1.82.21,2.24.56.42.35.63,1.12.63,2.17v5.53c0,.84-.21,1.4-.63,1.82-.42.35-1.19.56-2.24.56h-16.52c-1.19,0-1.96-.21-2.31-.56-.42-.42-.63-.98-.63-1.82V12.69c0-1.33.21-2.17.63-2.59ZM92.57,21.51h29.26v-2.31h-29.26v2.31ZM92.57,33.62h29.26v-2.38h-29.26v2.38Z"/><path class="cls-1" d="M169.39,50.14c.7.07,1.33.28,1.75.77.49.49.77,1.12.77,1.82v5.81c0,2.45-.63,4.34-1.96,5.6-1.33,1.26-3.5,2.03-6.51,2.1h-10.22c-.84,0-1.54-.28-2.03-.77-.49-.49-.7-1.05-.7-1.75v-3.85c0-.7.21-1.26.7-1.75.49-.49,1.19-.77,2.03-.77h5.39c.84,0,1.47-.28,1.96-.77.49-.49.77-1.19.77-2.03v-1.82c0-.7.28-1.33.77-1.82s1.12-.7,1.82-.77h5.46ZM187.45,48.67v15.26c0,.7-.21,1.26-.56,1.61-.42.35-.98.56-1.61.56h-7.7c-.63,0-1.26-.21-1.68-.56-.49-.35-.7-.91-.7-1.61v-15.26h-21.63c-.98,0-1.68-.35-2.17-.91-.56-.56-.84-1.19-.84-1.96V12.06c0-.7.28-1.26.84-1.82.49-.56,1.19-.84,2.17-.84h6.37c.84,0,1.54.28,2.1.84s.84,1.12.84,1.82v27.72h46.7c1.12,0,1.89.14,2.31.56.35.42.56,1.33.56,2.59v2.8c0,.98-.21,1.68-.56,2.17-.42.49-1.19.77-2.31.77h-22.12ZM208.38,5.41c.35.42.56.91.56,1.68v29.05c0,.7-.21,1.26-.56,1.61-.35.35-.84.49-1.61.49h-39.41c-.77,0-1.26-.14-1.61-.49-.35-.35-.49-.91-.49-1.61V7.09c0-.77.14-1.26.49-1.68.35-.35.84-.49,1.61-.49h39.41c.77,0,1.26.14,1.61.49ZM196.62,11.57h-19.11v2.17h19.11v-2.17ZM196.62,20.32h-19.11v2.17h19.11v-2.17ZM196.62,29h-19.11v2.31h19.11v-2.31ZM200.47,50.91c.49.49.77,1.12.77,1.82v1.82c0,.84.28,1.54.77,2.03.49.49,1.19.77,1.96.77h5.39c.84,0,1.54.28,2.03.77s.7,1.05.7,1.75v3.85c0,.7-.21,1.26-.7,1.75s-1.19.77-2.03.77h-10.22c-3.01-.07-5.18-.84-6.51-2.1-1.33-1.26-1.96-3.15-1.96-5.6v-5.81c0-.7.28-1.33.77-1.82.42-.49,1.05-.7,1.75-.77h5.46c.7.07,1.33.28,1.82.77Z"/><path class="cls-2" d="M39.71,70.82h-8.19c-1.78,0-3.36-.53-4.56-1.53-.29-.25-.6-.55-.88-.9-2.13,1.49-4.92,2.28-8.31,2.36-.04,0-.07,0-.11,0h-9.45c-1.97,0-3.8-.74-5.14-2.09-1.36-1.36-2.08-3.07-2.08-4.93v-3.85c0-1.86.72-3.57,2.09-4.93,1.04-1.04,2.37-1.72,3.84-1.98-.74-.34-1.48-.83-2.11-1.57-1.48-1.72-1.65-3.78-1.65-5.17v-2.73c0-.08,0-.16,0-.24.08-1.6.35-3.65,1.66-5.23.09-.11.18-.21.28-.31.18-.18.36-.34.54-.48-.03-.14-.05-.28-.08-.43-1.26-.28-2.36-.84-3.33-1.69-1.43-1.23-2.24-3.06-2.24-5.14v-3.99c0-2.08.81-3.91,2.27-5.17.17-.15.35-.29.53-.43-.43-1-.63-2.13-.63-3.44v-2.73c0-.08,0-.16,0-.23.09-1.68.38-3.8,1.87-5.4,1.88-2.09,4.69-2.09,5.63-2.09h14.91c.22-1.38.83-2.67,1.79-3.78,1.34-1.53,3.22-2.38,5.28-2.38h7.7c2.06,0,3.94.85,5.28,2.38.97,1.11,1.58,2.4,1.79,3.78h15.05c.86,0,3.47,0,5.42,1.95,1.75,1.75,1.95,4.13,1.95,5.78v2.73c0,1.3-.21,2.44-.64,3.44.2.14.38.29.57.45,1.43,1.23,2.24,3.06,2.24,5.14v3.99c0,2.08-.81,3.91-2.27,5.17-.95.83-2.04,1.38-3.3,1.66-.02.13-.04.25-.07.38.21.16.42.34.61.53,1.66,1.66,1.88,3.85,1.88,5.77v2.73c0,1.4-.17,3.45-1.64,5.17-.58.67-1.28,1.2-2.11,1.57,1.46.25,2.79.93,3.83,1.98,1.37,1.37,2.09,3.07,2.09,4.93v3.85c0,1.86-.72,3.57-2.09,4.93-1.35,1.35-3.17,2.09-5.14,2.09h-9.45s-.07,0-.11,0c-3.37-.08-6.13-.86-8.25-2.32-.07.1-.15.19-.22.28-.18.21-.37.41-.58.58-.84.7-2.3,1.53-4.49,1.53ZM33.64,61.82h3.74v-12.65c0-2.14,1.5-3.94,3.51-4.39h-10.76c2.01.45,3.51,2.25,3.51,4.39v12.65ZM53.42,61.75h3.48c-1.47-.25-2.8-.93-3.85-1.98-1.13-1.13-1.84-2.63-2.03-4.28h-1.62v3.06c0,1.15.2,2,.56,2.34.14.13.97.8,3.47.86ZM14.15,61.75h3.46c2.5-.07,3.33-.73,3.47-.87.35-.33.55-1.18.55-2.33v-3.06h-1.62c-.19,1.65-.9,3.15-2.04,4.29-1.05,1.05-2.36,1.72-3.82,1.97ZM23.61,55.48h0,0ZM45.39,33.74h11.17v-1.24c0-2.49,2.01-4.5,4.5-4.5l.96-.03h-2.64c-6.02,0-11.35-1.43-15.84-4.26-1.7-1.07-2.48-3.13-1.93-5.06.46-1.6,1.76-2.79,3.34-3.14h-2.93c-2.49,0-4.5-2.01-4.5-4.5v-1.66h-4.02v1.66c0,2.49-2.01,4.5-4.5,4.5h-2.93c1.58.35,2.87,1.54,3.34,3.14.56,1.93-.23,3.99-1.93,5.06-4.49,2.83-9.82,4.26-15.84,4.26l-2.64.03h.96c2.49,0,4.5,2.01,4.5,4.5v1.24h11.17c-1.82-.41-3.25-1.93-3.48-3.85-.27-2.26,1.19-4.37,3.4-4.91,2.77-.68,5.34-1.65,7.87-2.97,1.31-.69,2.87-.69,4.18,0,2.52,1.32,5.1,2.3,7.87,2.97,2.21.54,3.67,2.65,3.4,4.91-.23,1.92-1.66,3.44-3.48,3.85Z"/><path class="cls-2" d="M136.32,70.75h-21.07c-5.11-.07-8.7-1.51-11.21-3.29-.29.51-.65.99-1.08,1.42-.1.1-.2.19-.31.28-1.28,1.06-3,1.6-5.12,1.6h-16.52c-2.43,0-4.23-.61-5.49-1.88-1.29-1.29-1.95-2.97-1.95-5V12.69c0-1.64.2-4.03,1.95-5.78,1.29-1.29,3.12-1.94,5.42-1.94h16.21c.32-.9.88-1.87,1.82-2.81,1.39-1.39,3.25-2.16,5.22-2.16h8.61c2.14,0,4.04.8,5.38,2.26.77.8,1.34,1.71,1.7,2.71h13.44c2.48,0,4.32.64,5.63,1.95,1.66,1.65,1.88,3.84,1.88,5.77v27.86c0,1.95-.75,3.73-2.16,5.14-.07.07-.14.14-.22.21-.32.28-.66.53-1.01.75-.03,1.15-.35,2.24-.65,3.1-.04.1-.08.21-.12.31l-.46,1.05h.12c.14,0,.27,0,.41.02,1.83.17,3.36.82,4.54,1.95,1.41,1.27,2.21,3.1,2.21,5.05v5.6c0,1.91-.72,3.64-2.09,5.01-.08.08-.16.15-.24.22-1.36,1.17-3.03,1.79-4.83,1.79ZM92.57,38.78h8.4c2.49,0,4.5,2.01,4.5,4.5v5.11c0,4.68.85,8.3,2.47,10.47,1.44,1.87,3.86,2.83,7.38,2.88h19.17v-1.64h-5.16c-1.52,0-2.94-.77-3.77-2.04-.83-1.27-.96-2.88-.36-4.27l1.72-3.92h-3.25c-.03.07-.07.13-.1.21l-2.06,4.88c-.62,1.46-1.96,2.49-3.53,2.71-1.57.22-3.14-.41-4.13-1.65-1.74-2.18-2.72-5.29-3.07-9.81,0-.12-.01-.24-.01-.35v-2.59c0-2.49,2.01-4.5,4.5-4.5h16.57V13.97h-16.01c-2.49,0-4.5-2.01-4.5-4.5v-.47h-5.56v.47c0,2.49-2.01,4.5-4.5,4.5h-18.67v47.78h13.33v-1.64h-1.94c-3.42,0-5.9-2.51-5.9-5.97v-10.85c0-2.49,2.01-4.5,4.5-4.5ZM78.71,10.1h0,0ZM121.83,38.12h-29.26c-2.49,0-4.5-2.01-4.5-4.5v-2.38c0-2.49,2.01-4.5,4.5-4.5h29.26c2.49,0,4.5,2.01,4.5,4.5v2.38c0,2.49-2.01,4.5-4.5,4.5ZM121.83,26.01h-29.26c-2.49,0-4.5-2.01-4.5-4.5v-2.31c0-2.49,2.01-4.5,4.5-4.5h29.26c2.49,0,4.5,2.01,4.5,4.5v2.31c0,2.49-2.01,4.5-4.5,4.5Z"/><path class="cls-2" d="M209.36,70.75h-10.22s-.07,0-.11,0c-3.51-.08-6.37-.93-8.52-2.51-.14.17-.29.34-.45.5-.09.09-.19.18-.29.26-1.24,1.04-2.84,1.61-4.5,1.61h-7.7c-1.62,0-3.22-.54-4.43-1.5-.37-.28-.7-.6-.99-.94-2.16,1.63-5.05,2.5-8.61,2.58-.04,0-.07,0-.11,0h-10.22c-2.02,0-3.87-.74-5.21-2.09-1.32-1.32-2.02-3.03-2.02-4.93v-3.85c0-1.9.7-3.61,2.01-4.93,1.03-1.03,2.35-1.7,3.81-1.97-1.43-.33-2.71-1.06-3.69-2.14-1.35-1.39-2.06-3.13-2.06-5.04V12.06c0-1.84.69-3.49,2.06-4.91.97-1.06,2.68-2.25,5.45-2.25h6.37c.37,0,.73.02,1.08.07.25-.91.67-1.72,1.27-2.45.08-.1.17-.2.26-.29,1.2-1.21,2.81-1.82,4.8-1.82h39.41c1.98,0,3.6.61,4.8,1.81.09.1.19.2.27.3,1.06,1.28,1.6,2.81,1.6,4.56v28.93c.56.27,1.12.64,1.62,1.14.1.1.19.2.28.3,1.08,1.29,1.6,3.08,1.6,5.47v2.8c0,1.88-.47,3.48-1.4,4.78-.08.11-.16.21-.25.31-.75.87-2.04,1.88-4.17,2.22,1.32.3,2.5.95,3.44,1.89,1.32,1.32,2.02,3.03,2.02,4.93v3.85c0,1.91-.7,3.61-2.02,4.93-1.35,1.35-3.2,2.09-5.21,2.09ZM199.2,61.75h3.48c-1.47-.25-2.8-.93-3.85-1.98-1.33-1.32-2.07-3.14-2.09-5.12h-1.57v3.9c0,1.15.2,2,.56,2.34.14.13.97.8,3.47.86ZM159.92,61.75h3.46c2.5-.07,3.33-.73,3.47-.87.35-.33.55-1.18.55-2.33v-3.9h-1.57c-.02,1.98-.76,3.8-2.09,5.12-1.06,1.06-2.36,1.73-3.82,1.98ZM179.7,61.61h3.25v-12.93c0-2.14,1.5-3.94,3.51-4.39h-10.27c2.01.45,3.51,2.25,3.51,4.39v12.93ZM155.06,44.17h6.83c-2.01-.45-3.51-2.25-3.51-4.39V13.9h-3.32v30.27ZM200.41,33.74h4.03V9.42h-3.87c.35.64.55,1.37.55,2.15v2.17c0,1.3-.55,2.47-1.43,3.29.88.82,1.43,1.99,1.43,3.29v2.17c0,1.28-.53,2.44-1.39,3.25.86.82,1.39,1.97,1.39,3.25v2.31c0,.89-.26,1.73-.71,2.43ZM169.76,33.74h3.96c-.45-.7-.71-1.53-.71-2.43v-2.31c0-1.28.53-2.44,1.39-3.25-.86-.82-1.39-1.97-1.39-3.25v-2.17c0-1.3.55-2.47,1.43-3.29-.88-.82-1.43-1.99-1.43-3.29v-2.17c0-.78.2-1.51.55-2.15h-3.8v24.32ZM206.82,9.42h.01-.01Z"/><path class="cls-3" d="M39.71,69.32h-8.19c-1.42,0-2.67-.41-3.6-1.18-.68-.58-1.17-1.26-1.46-2.03-.08.08-.15.15-.23.23-1.96,1.85-4.82,2.84-8.51,2.92h-9.52c-1.57,0-3.02-.58-4.08-1.65-1.36-1.36-1.65-2.86-1.65-3.87v-3.85c0-1.01.29-2.51,1.65-3.87,1.06-1.06,2.51-1.65,4.08-1.65h4.35v-.78c0-.49.06-.96.18-1.41h-2.07c-.8,0-3.23,0-4.73-1.75-1.14-1.33-1.28-2.94-1.28-4.19v-2.73c0-.05,0-.11,0-.16.11-2.04.51-3.38,1.32-4.35.06-.07.12-.14.19-.21.35-.35.76-.64,1.23-.87-.27-.71-.41-1.52-.43-2.41-.05,0-.1,0-.14,0-1.43-.13-2.57-.61-3.59-1.5-1.1-.95-1.73-2.38-1.73-4.01v-3.99c0-1.63.62-3.06,1.75-4.03.49-.43,1.03-.77,1.61-1.01-.8-1.03-1.19-2.34-1.19-3.99v-2.73c0-.05,0-.1,0-.16.08-1.52.32-3.23,1.48-4.46,1.44-1.6,3.75-1.6,4.52-1.6h16.32v-.36c0-1.46.51-2.79,1.51-3.94,1.07-1.22,2.5-1.87,4.15-1.87h7.7c1.65,0,3.08.65,4.15,1.87,1,1.15,1.51,2.47,1.51,3.93v.36h16.46c.7,0,2.85,0,4.36,1.51,1.35,1.35,1.51,3.34,1.51,4.71v2.73c0,1.65-.39,2.96-1.19,3.99.59.25,1.12.59,1.63,1.03,1.1.95,1.72,2.38,1.72,4.01v3.99c0,1.63-.62,3.06-1.75,4.03-1,.87-2.14,1.35-3.57,1.48-.05,0-.1,0-.15,0-.02.88-.16,1.68-.41,2.38.49.23.92.53,1.29.9,1.26,1.27,1.44,3.02,1.44,4.71v2.73c0,1.25-.15,2.87-1.28,4.19-1.5,1.75-3.82,1.75-4.59,1.75h-2.21c.12.45.17.92.17,1.41v.78h4.35c1.57,0,3.02.59,4.08,1.65,1.36,1.36,1.65,2.86,1.65,3.87v3.85c0,1.01-.29,2.51-1.65,3.87-1.06,1.06-2.51,1.65-4.08,1.65h-9.45c-3.76-.09-6.62-1.07-8.57-2.92-.08-.07-.15-.14-.22-.22-.21.59-.52,1.14-.94,1.64-.12.14-.25.27-.39.39-.65.54-1.79,1.18-3.53,1.18ZM32.14,63.32h6.74v-14.15c0-1.66,1.34-3,3-3h18.49v-2.67c0-.08,0-.15,0-.22H10.67c0,.09-.02.19-.02.3v2.59h18.49c1.66,0,3,1.34,3,3v14.15ZM47.89,53.98v4.56c0,1.63.34,2.78,1.02,3.42.82.77,2.42,1.23,4.52,1.28h9.11v-2.89h-4.35c-1.57,0-3.02-.59-4.08-1.65-1.06-1.06-1.65-2.53-1.65-4.15v-.57h-4.57ZM8.48,63.25h9.18c2.03-.05,3.63-.5,4.45-1.28.68-.64,1.02-1.8,1.02-3.42v-4.56h-4.57v.57c0,1.62-.59,3.09-1.65,4.16-1.07,1.07-2.48,1.65-4.08,1.65h-4.35v2.89ZM23.61,53.98h0,0ZM13.03,35.8s0,0,0,0c0,0,0,0,0,0ZM12.96,35.24h45.1v-2.74c0-1.66,1.34-3,3-3h2.46v-3.03s-4.14,0-4.14,0c-5.73,0-10.79-1.36-15.04-4.03-1.13-.71-1.65-2.09-1.28-3.37.37-1.28,1.55-2.17,2.88-2.17h15.41v-2.67c0-.08,0-.15,0-.22h-19.33c-1.66,0-3-1.34-3-3v-3.16h-7l-.03,3.16c0,1.66-1.34,3-3,3H9.69c0,.09-.01.19-.02.3v2.59h15.41c1.34,0,2.51.88,2.88,2.17.37,1.28-.15,2.66-1.28,3.37-4.25,2.67-9.31,4.03-15.04,4.03h-4.14v3.03s2.46,0,2.46,0c1.66,0,3,1.34,3,3v2.74ZM7.15,29.45s.02.02.03.02c0,0-.02-.02-.03-.02ZM63.85,26.5l.03.02s-.01-.02-.03-.02ZM44.4,32.35h-17.78c-1.52,0-2.8-1.13-2.98-2.64-.18-1.51.79-2.91,2.27-3.27,2.89-.71,5.58-1.72,8.21-3.1.87-.46,1.91-.46,2.79,0,2.63,1.38,5.32,2.39,8.21,3.1,1.47.36,2.45,1.77,2.27,3.27-.18,1.51-1.46,2.64-2.98,2.64Z"/><path class="cls-3" d="M136.32,69.25h-21.07c-5.05-.07-9.04-1.52-11.92-4.31-.18,1.14-.66,2.1-1.43,2.87-.07.07-.13.13-.2.19-1,.83-2.4,1.25-4.16,1.25h-16.52c-2.01,0-3.46-.47-4.43-1.44-1-1-1.51-2.33-1.51-3.94V12.69c0-1.38.16-3.36,1.51-4.71,1-1,2.47-1.5,4.36-1.5h17.36c.18-1.19.76-2.28,1.72-3.25,1.11-1.11,2.58-1.72,4.15-1.72h8.61c2.19,0,3.53.95,4.29,1.79.87.9,1.42,1.97,1.64,3.18h14.59c2.06,0,3.56.49,4.57,1.51,1.26,1.26,1.44,3.01,1.44,4.71v27.86c0,1.55-.59,2.96-1.72,4.08-.05.05-.1.09-.15.14-.48.42-1.01.75-1.58,1,.19,1.24-.17,2.52-.51,3.48-.02.07-.05.14-.08.2l-1.38,3.15h2.41c.09,0,.18,0,.27.01,1.51.14,2.71.65,3.66,1.56,1.1.99,1.73,2.42,1.73,3.95v5.6c0,1.52-.56,2.85-1.65,3.94-.05.05-.11.1-.16.15-1.08.93-2.42,1.43-3.85,1.43ZM92.57,40.28h8.4c1.66,0,3,1.34,3,3v5.11c0,5.08.93,8.9,2.77,11.37,1.75,2.28,4.55,3.43,8.56,3.48h20.69v-4.64h-6.66c-1.01,0-1.96-.51-2.51-1.36-.55-.85-.64-1.92-.24-2.84l2.64-6.02h-6.43c-.12.19-.32.53-.59,1.1l-2.08,4.91c-.41.97-1.31,1.66-2.35,1.8-1.05.14-2.09-.27-2.75-1.1-1.54-1.93-2.42-4.79-2.75-8.99,0-.08,0-.16,0-.23v-2.59c0-1.66,1.34-3,3-3h18.07V12.69c0-.08,0-.15,0-.22h-17.51c-1.66,0-3-1.34-3-3v-1.91s-.03-.04-.04-.06h-8.52v1.97c0,1.66-1.34,3-3,3h-20.17c0,.07,0,.14,0,.22v50.56h16.33v-4.64h-3.44c-2.59,0-4.4-1.84-4.4-4.47v-10.85c0-1.66,1.34-3,3-3ZM95.57,52.61h1.97c.22,0,.44,0,.64.02-.14-1.34-.21-2.75-.21-4.23v-2.11h-2.4v6.32ZM123.04,48.06s0,0,0,0c0,0,0,0,0,0ZM78.71,10.1h0,0ZM121.83,36.62h-29.26c-1.66,0-3-1.34-3-3v-2.38c0-1.66,1.34-3,3-3h29.26c1.66,0,3,1.34,3,3v2.38c0,1.66-1.34,3-3,3ZM121.83,24.51h-29.26c-1.66,0-3-1.34-3-3v-2.31c0-1.66,1.34-3,3-3h29.26c1.66,0,3,1.34,3,3v2.31c0,1.66-1.34,3-3,3Z"/><path class="cls-3" d="M209.36,69.25h-10.22c-3.76-.09-6.62-1.07-8.57-2.92-.15-.14-.3-.29-.44-.45-.24.69-.62,1.3-1.12,1.79-.06.06-.13.12-.19.18-.97.81-2.23,1.26-3.54,1.26h-7.7c-1.29,0-2.57-.43-3.52-1.19-.72-.54-1.24-1.26-1.55-2.11-.16.18-.32.35-.5.52-1.96,1.85-4.82,2.84-8.5,2.92h-10.29c-1.62,0-3.09-.58-4.15-1.65-1.05-1.05-1.58-2.35-1.58-3.87v-3.85c0-1.52.53-2.82,1.58-3.87,1.06-1.07,2.54-1.65,4.15-1.65h5.12v-1.62c0-.36.04-.71.11-1.06h-4.87c-1.75,0-3.26-.64-4.36-1.86-1.08-1.11-1.65-2.5-1.65-4.01V12.06c0-1.45.56-2.75,1.65-3.88.76-.83,2.12-1.78,4.36-1.78h6.37c.83,0,1.61.15,2.32.45.02-.92.21-2.19,1.18-3.36.06-.07.11-.13.18-.19,1.37-1.38,3.15-1.38,3.74-1.38h39.41c.59,0,2.37,0,3.74,1.37.06.06.12.13.18.2.84,1.01,1.25,2.19,1.25,3.6v29.05c0,.3-.02.6-.06.89.76.2,1.5.56,2.13,1.19.06.06.13.13.18.2.84,1.01,1.25,2.49,1.25,4.51v2.8c0,1.56-.38,2.87-1.12,3.91-.05.07-.11.14-.16.21-.71.83-2.08,1.82-4.59,1.82h-5.43c.07.35.1.7.1,1.06v1.62h5.12c1.61,0,3.09.58,4.15,1.65,1.05,1.05,1.58,2.35,1.58,3.87v3.85c0,1.52-.53,2.82-1.58,3.87-1.06,1.06-2.54,1.65-4.15,1.65ZM193.67,53.14v5.4c0,1.63.34,2.78,1.03,3.42.82.77,2.42,1.23,4.52,1.28h9.88v-2.89h-5.12c-1.57,0-3.02-.59-4.08-1.66-1.06-1.06-1.65-2.53-1.65-4.15v-1.41h-4.57ZM153.49,63.24h9.95c2.02-.04,3.63-.5,4.45-1.27.68-.64,1.02-1.8,1.02-3.42v-5.4h-4.57v1.41c0,1.62-.59,3.09-1.65,4.15-1.08,1.08-2.49,1.65-4.08,1.65h-5.12v2.88ZM178.2,63.11h6.25v-14.43c0-1.66,1.34-3,3-3h21.99v-2.74c0-.05,0-.1,0-.15h-46.56c-1.66,0-3-1.34-3-3V12.4h-6.31s0,0,0,0v33.27h21.64c1.66,0,3,1.34,3,3v14.43ZM168.26,35.24h37.68V7.92s-37.68,0-37.68,0v27.32ZM206.96,7.93h0,0ZM196.62,34.31h-19.11c-1.66,0-3-1.34-3-3v-2.31c0-1.66,1.34-3,3-3h19.11c1.66,0,3,1.34,3,3v2.31c0,1.66-1.34,3-3,3ZM196.62,25.49h-19.11c-1.66,0-3-1.34-3-3v-2.17c0-1.66,1.34-3,3-3h19.11c1.66,0,3,1.34,3,3v2.17c0,1.66-1.34,3-3,3ZM196.62,16.74h-19.11c-1.66,0-3-1.34-3-3v-2.17c0-1.66,1.34-3,3-3h19.11c1.66,0,3,1.34,3,3v2.17c0,1.66-1.34,3-3,3Z"/><path class="cls-2" d="M12.97,38.24c-1.19,0-2.03-.21-2.38-.7-.42-.49-.63-1.26-.63-2.24v-2.8h-2.87c-.77-.07-1.33-.28-1.89-.77-.49-.42-.7-1.05-.7-1.75v-3.99c0-.7.21-1.33.7-1.75.56-.49,1.12-.7,1.89-.77h4.55c5.18,0,9.66-1.19,13.44-3.57h-15.4c-1.19,0-1.96-.21-2.38-.7-.42-.49-.63-1.19-.63-2.24v-2.73c.07-1.33.28-2.17.7-2.59.35-.42,1.12-.63,2.31-.63h19.32v-3.36c0-.77.28-1.4.77-1.96s1.12-.84,1.89-.84h7.7c.77,0,1.4.28,1.89.84.49.56.77,1.19.77,1.96v3.36h19.46c1.12,0,1.82.21,2.24.63.42.42.63,1.26.63,2.59v2.73c0,1.05-.21,1.75-.63,2.24-.42.49-1.12.7-2.24.7h-15.54c3.78,2.38,8.26,3.57,13.44,3.57h4.55c.77.07,1.33.28,1.89.77.49.42.7,1.05.7,1.75v3.99c0,.7-.21,1.33-.7,1.75-.56.49-1.12.7-1.89.77h-2.87v2.8c0,.98-.21,1.75-.63,2.24-.35.49-1.12.7-2.24.7H12.97ZM23.61,50.98c.7,0,1.33.28,1.75.77.49.49.77,1.05.77,1.82v4.97c0,2.45-.63,4.34-1.96,5.6-1.33,1.26-3.5,2.03-6.51,2.1h-9.45c-.77,0-1.47-.28-1.96-.77-.49-.49-.77-1.05-.77-1.75v-3.85c0-.7.28-1.26.77-1.75.49-.49,1.19-.77,1.96-.77h4.62c.84,0,1.47-.28,1.96-.77.49-.49.77-1.19.77-2.03v-.98c0-.77.28-1.33.77-1.82s1.12-.77,1.82-.77h5.46ZM41.88,49.16v15.05c0,.7-.21,1.19-.56,1.61-.42.35-.98.49-1.61.49h-8.19c-.63,0-1.26-.14-1.68-.49-.49-.42-.7-.91-.7-1.61v-15.05H10.66c-1.19,0-2.03-.21-2.45-.7-.42-.49-.56-1.19-.56-2.24v-2.73c.07-1.33.28-2.17.63-2.59.42-.42,1.19-.63,2.38-.63h49.84c1.12,0,1.89.21,2.31.63.42.42.56,1.26.56,2.59v2.73c0,1.05-.14,1.75-.56,2.24s-1.19.7-2.31.7h-18.62ZM26.62,29.35h17.78c-3.15-.77-6.09-1.89-8.89-3.36-2.8,1.47-5.74,2.59-8.89,3.36ZM54.7,51.75c.49.49.77,1.05.77,1.82v.98c0,.84.28,1.54.77,2.03.49.49,1.19.77,1.96.77h4.62c.77,0,1.47.28,1.96.77s.77,1.05.77,1.75v3.85c0,.7-.28,1.26-.77,1.75s-1.19.77-1.96.77h-9.45c-3.01-.07-5.18-.84-6.51-2.1-1.33-1.26-1.96-3.15-1.96-5.6v-4.97c0-.77.28-1.33.77-1.82.42-.49,1.05-.77,1.75-.77h5.46c.7,0,1.33.28,1.82.77Z"/><path class="cls-2" d="M78.71,10.1c.42-.42,1.19-.63,2.24-.63h20.3v-2.17c0-.77.35-1.4.91-1.96.56-.56,1.26-.84,2.03-.84h8.61c.91,0,1.61.28,2.1.84.56.56.84,1.19.91,1.96v2.17h17.5c1.19,0,2.03.21,2.45.63.42.42.56,1.26.56,2.59v27.86c0,.77-.28,1.4-.84,1.96-.56.49-1.26.77-2.1.77h-18.13v2.59c.28,3.57.98,5.95,2.1,7.35l2.1-4.97c.56-1.19,1.05-1.96,1.47-2.31.42-.42,1.05-.56,1.89-.56h8.05c1.12,0,1.75.14,1.96.56.21.35.14,1.12-.28,2.31l-3.22,7.35h7c.77.07,1.4.28,1.89.77.49.42.77,1.05.77,1.75v5.6c0,.77-.28,1.33-.77,1.82-.49.42-1.12.7-1.89.7h-21.07c-4.97-.07-8.61-1.68-10.92-4.69-2.24-3.01-3.36-7.42-3.36-13.16v-5.11h-8.4v10.85c0,.98.49,1.47,1.4,1.47h3.57c1.05,0,1.82.21,2.24.56.42.35.63,1.12.63,2.17v5.53c0,.84-.21,1.4-.63,1.82-.42.35-1.19.56-2.24.56h-16.52c-1.19,0-1.96-.21-2.31-.56-.42-.42-.63-.98-.63-1.82V12.69c0-1.33.21-2.17.63-2.59ZM92.57,21.51h29.26v-2.31h-29.26v2.31ZM92.57,33.62h29.26v-2.38h-29.26v2.38Z"/><path class="cls-2" d="M169.39,50.14c.7.07,1.33.28,1.75.77.49.49.77,1.12.77,1.82v5.81c0,2.45-.63,4.34-1.96,5.6-1.33,1.26-3.5,2.03-6.51,2.1h-10.22c-.84,0-1.54-.28-2.03-.77-.49-.49-.7-1.05-.7-1.75v-3.85c0-.7.21-1.26.7-1.75.49-.49,1.19-.77,2.03-.77h5.39c.84,0,1.47-.28,1.96-.77.49-.49.77-1.19.77-2.03v-1.82c0-.7.28-1.33.77-1.82s1.12-.7,1.82-.77h5.46ZM187.45,48.67v15.26c0,.7-.21,1.26-.56,1.61-.42.35-.98.56-1.61.56h-7.7c-.63,0-1.26-.21-1.68-.56-.49-.35-.7-.91-.7-1.61v-15.26h-21.63c-.98,0-1.68-.35-2.17-.91-.56-.56-.84-1.19-.84-1.96V12.06c0-.7.28-1.26.84-1.82.49-.56,1.19-.84,2.17-.84h6.37c.84,0,1.54.28,2.1.84s.84,1.12.84,1.82v27.72h46.7c1.12,0,1.89.14,2.31.56.35.42.56,1.33.56,2.59v2.8c0,.98-.21,1.68-.56,2.17-.42.49-1.19.77-2.31.77h-22.12ZM208.38,5.41c.35.42.56.91.56,1.68v29.05c0,.7-.21,1.26-.56,1.61-.35.35-.84.49-1.61.49h-39.41c-.77,0-1.26-.14-1.61-.49-.35-.35-.49-.91-.49-1.61V7.09c0-.77.14-1.26.49-1.68.35-.35.84-.49,1.61-.49h39.41c.77,0,1.26.14,1.61.49ZM196.62,11.57h-19.11v2.17h19.11v-2.17ZM196.62,20.32h-19.11v2.17h19.11v-2.17ZM196.62,29h-19.11v2.31h19.11v-2.31ZM200.47,50.91c.49.49.77,1.12.77,1.82v1.82c0,.84.28,1.54.77,2.03.49.49,1.19.77,1.96.77h5.39c.84,0,1.54.28,2.03.77s.7,1.05.7,1.75v3.85c0,.7-.21,1.26-.7,1.75s-1.19.77-2.03.77h-10.22c-3.01-.07-5.18-.84-6.51-2.1-1.33-1.26-1.96-3.15-1.96-5.6v-5.81c0-.7.28-1.33.77-1.82.42-.49,1.05-.7,1.75-.77h5.46c.7.07,1.33.28,1.82.77Z"/></g></svg>