<?xml version="1.0" encoding="UTF-8"?><svg id="_レイヤー_2" xmlns="http://www.w3.org/2000/svg" viewBox="0 0 217.98 71.1"><defs><style>.cls-1,.cls-2,.cls-3{stroke-width:0px;}.cls-2{fill:#198caa;}.cls-3{fill:#fff;}</style></defs><g id="_レイヤー_4"><path class="cls-1" d="M11.78,14.37v-6.86c.07-.7.35-1.33.84-1.89.56-.49,1.26-.77,2.17-.77h5.88c.84,0,1.47.28,1.96.77.56.56.84,1.19.98,1.89v6.86h3.85c.7.07,1.33.35,1.82.91.49.56.77,1.19.84,1.89v2.94c.07,7.07-1.33,13.09-4.2,17.99l1.75.84c1.19.63,1.96,1.12,2.31,1.47.42.42.56,1.12.56,2.24v5.88c0,.77-.21,1.47-.77,2.03-.63.56-1.33.77-2.1.7l-4.06-1.96v14.35c-.14.77-.42,1.4-.98,1.96-.49.56-1.12.84-1.96.84h-5.88c-.91,0-1.61-.28-2.17-.84-.49-.56-.77-1.19-.84-1.96v-14.14c-.77.49-1.82.77-3.08.84h-1.61c-.77-.07-1.33-.28-1.89-.77-.49-.42-.7-1.05-.7-1.75v-7.28c0-.7.21-1.26.7-1.75.56-.42,1.12-.7,1.89-.77h1.26c3.36,0,5.81-.98,7.49-3.01,1.61-2.03,2.59-4.76,2.94-8.19H7.02c-.7,0-1.26-.21-1.82-.7-.49-.49-.7-1.12-.7-1.82v-7.14c0-.7.21-1.33.7-1.89.56-.56,1.12-.84,1.82-.91h4.76ZM33.13,13.25c-.42-.49-.63-1.19-.63-2.17v-3.01c0-1.33.21-2.24.63-2.66.42-.35,1.12-.56,2.24-.56h28.35c1.19,0,2.03.21,2.45.56.35.42.56,1.33.56,2.66v3.01c0,.98-.21,1.68-.56,2.17-.42.49-1.26.77-2.45.77h-28.35c-1.12,0-1.82-.28-2.24-.77ZM65.83,16.33c.49.56.77,1.12.91,1.82v13.02c-.14.7-.42,1.33-.91,1.89s-1.19.84-2.03.84h-28.28c-.91,0-1.61-.28-2.17-.84-.49-.56-.77-1.19-.84-1.89v-13.02c.07-.7.35-1.26.84-1.82.56-.56,1.26-.84,2.17-.84h28.28c.84,0,1.54.28,2.03.84ZM65.97,36.28c.56.56.84,1.12.84,1.82v25.55c0,.77-.28,1.4-.84,1.96-.56.56-1.26.84-2.1.84h-28.35c-.91,0-1.61-.28-2.17-.84-.56-.56-.84-1.19-.84-1.96v-25.55c0-.7.28-1.26.84-1.82.56-.56,1.26-.84,2.17-.84h28.35c.84,0,1.54.28,2.1.84ZM57.21,23.33h-14.98v2.66h14.98v-2.66ZM44.89,46.43v-1.82h-2.66v1.82h2.66ZM44.89,57.42v-1.89h-2.66v1.89h2.66ZM57.21,44.61h-2.66v1.82h2.66v-1.82ZM57.21,55.53h-2.66v1.89h2.66v-1.89Z"/><path class="cls-1" d="M119.08,64.57h-39.06c-.77,0-1.33-.14-1.68-.49-.42-.35-.56-.84-.56-1.47v-13.37c0-.84.21-1.47.63-1.89.42-.49,1.05-.77,1.89-.98h3.57V11.71c0-.63.14-1.19.56-1.47.35-.35.98-.49,1.82-.49h11.76l1.47-2.8c.49-.98.98-1.61,1.47-1.96.42-.35,1.12-.49,2.03-.49h9.45c1.05,0,1.89.28,2.31.77.49.49.35,1.26-.28,2.24l-1.33,2.24h20.58c.84,0,1.47.14,1.82.49.42.28.63.84.63,1.47v17.99c0,.77-.21,1.26-.63,1.61-.35.35-.98.49-1.82.49h-35.98v1.82h40.67c.7,0,1.19.21,1.54.63s.49,1.33.49,2.73-.14,2.38-.49,2.73c-.35.42-.84.56-1.54.56h-40.67v1.89h35.56c2.24,0,3.78.42,4.76,1.33.98.91,1.47,2.52,1.47,4.83v12.95c0,2.1-.56,3.43-1.54,4.2-1.05.7-2.59,1.12-4.69,1.12h-9.87c-.63,0-1.19-.28-1.68-.7-.49-.49-.77-1.05-.84-1.82-.35.35-.98.49-1.82.49ZM92.9,55.46v-5.88h-2.73v5.88h2.73ZM124.12,15.84h-26.39v1.89h26.39v-1.89ZM124.12,23.82h-26.39v1.89h26.39v-1.89ZM106.41,55.46h2.66v-5.88h-2.66v5.88ZM123.49,56.45h1.89c1.26.07,1.89-.84,1.89-2.59v-2.73c-.21-.91-.91-1.4-1.96-1.54h-3.85v7.63c.21-.28.42-.42.7-.49.35-.14.77-.21,1.33-.28Z"/><path class="cls-1" d="M170.43,50.49c.7.07,1.33.28,1.75.77.49.49.77,1.12.77,1.82v5.81c0,2.45-.63,4.34-1.96,5.6-1.33,1.26-3.5,2.03-6.51,2.1h-10.22c-.84,0-1.54-.28-2.03-.77s-.7-1.05-.7-1.75v-3.85c0-.7.21-1.26.7-1.75.49-.49,1.19-.77,2.03-.77h5.39c.84,0,1.47-.28,1.96-.77.49-.49.77-1.19.77-2.03v-1.82c0-.7.28-1.33.77-1.82.49-.49,1.12-.7,1.82-.77h5.46ZM188.49,49.02v15.26c0,.7-.21,1.26-.56,1.61-.42.35-.98.56-1.61.56h-7.7c-.63,0-1.26-.21-1.68-.56-.49-.35-.7-.91-.7-1.61v-15.26h-21.63c-.98,0-1.68-.35-2.17-.91-.56-.56-.84-1.19-.84-1.96V12.41c0-.7.28-1.26.84-1.82.49-.56,1.19-.84,2.17-.84h6.37c.84,0,1.54.28,2.1.84.56.56.84,1.12.84,1.82v27.72h46.69c1.12,0,1.89.14,2.31.56.35.42.56,1.33.56,2.59v2.8c0,.98-.21,1.68-.56,2.17-.42.49-1.19.77-2.31.77h-22.12ZM209.42,5.76c.35.42.56.91.56,1.68v29.05c0,.7-.21,1.26-.56,1.61s-.84.49-1.61.49h-39.41c-.77,0-1.26-.14-1.61-.49-.35-.35-.49-.91-.49-1.61V7.44c0-.77.14-1.26.49-1.68.35-.35.84-.49,1.61-.49h39.41c.77,0,1.26.14,1.61.49ZM197.66,11.92h-19.11v2.17h19.11v-2.17ZM197.66,20.67h-19.11v2.17h19.11v-2.17ZM197.66,29.35h-19.11v2.31h19.11v-2.31ZM201.51,51.26c.49.49.77,1.12.77,1.82v1.82c0,.84.28,1.54.77,2.03.49.49,1.19.77,1.96.77h5.39c.84,0,1.54.28,2.03.77s.7,1.05.7,1.75v3.85c0,.7-.21,1.26-.7,1.75-.49.49-1.19.77-2.03.77h-10.22c-3.01-.07-5.18-.84-6.51-2.1-1.33-1.26-1.96-3.15-1.96-5.6v-5.81c0-.7.28-1.33.77-1.82.42-.49,1.05-.7,1.75-.77h5.46c.7.07,1.33.28,1.82.77Z"/><path class="cls-2" d="M63.87,70.96h-28.35c-2.09,0-3.94-.75-5.35-2.16-1.22-1.22-1.95-2.72-2.12-4.36,0,0,0,.02,0,.02-.31,1.69-1,3.08-2.12,4.24-1.35,1.48-3.16,2.26-5.24,2.26h-5.88c-2.09,0-3.94-.75-5.35-2.16-.07-.07-.14-.14-.21-.22-1.13-1.29-1.78-2.81-1.93-4.52-.01-.13-.02-.27-.02-.4v-8.8h-.19c-.14,0-.27,0-.41-.02-1.74-.16-3.19-.77-4.44-1.86-1.43-1.23-2.24-3.06-2.24-5.14v-7.28c0-1.91.7-3.61,2.01-4.93.15-.15.32-.29.49-.42,1.3-.97,2.66-1.51,4.18-1.65.14-.01.27-.02.41-.02h1.26c2.55,0,3.49-.74,4.02-1.38.2-.25.38-.52.55-.82h-5.9c-1.8,0-3.41-.61-4.78-1.81-.08-.07-.15-.14-.22-.21-1.3-1.3-2.01-3.08-2.01-5v-7.14c0-1.82.63-3.49,1.81-4.85.07-.08.14-.15.21-.23,1.29-1.29,2.82-2.03,4.55-2.2.15-.01.3-.02.45-.02h.26v-2.36c0-.15,0-.3.02-.44.16-1.62.83-3.15,1.93-4.41.13-.15.27-.29.43-.42,1.41-1.23,3.18-1.88,5.13-1.88h5.88c2,0,3.77.72,5.14,2.08,1.14,1.15,1.89,2.56,2.21,4.2.01.06.02.12.03.18.18-1.98.8-3.49,1.89-4.58.1-.1.2-.19.31-.28,1.29-1.08,2.97-1.6,5.12-1.6h28.35c2.26,0,4.05.54,5.33,1.6.21.17.4.37.58.58,1.08,1.29,1.6,3.11,1.6,5.54v3.01c0,1.49-.3,2.81-.88,3.94.37.7.63,1.44.79,2.25.06.29.09.59.09.89v13.02c0,.3-.03.59-.09.89-.18.88-.47,1.69-.87,2.44.69,1.09,1.03,2.3,1.03,3.6v25.55c0,1.95-.75,3.73-2.16,5.14-1.42,1.42-3.24,2.16-5.29,2.16ZM37,61.96h25.3v-22.01h-25.3v22.01ZM16.28,61.96h2.83v-12.65c0-1.55.8-2.99,2.11-3.81,1.31-.82,2.95-.91,4.35-.24l.48.23v-2.3c-.12-.07-.25-.14-.4-.22l-1.67-.8c-1.13-.54-1.99-1.54-2.36-2.74-.37-1.2-.21-2.5.42-3.59,2.44-4.17,3.65-9.44,3.58-15.67v-1.29h-2.01c-2.49,0-4.5-2.01-4.5-4.5v-5.02h-2.83v5.02c0,2.49-2.01,4.5-4.5,4.5h-2.78v3.46h9.78c1.27,0,2.49.54,3.34,1.48.85.95,1.27,2.21,1.14,3.47-.44,4.28-1.75,7.83-3.89,10.53-2.49,3.01-5.96,4.57-10.37,4.7v3.28c.28-.05.4-.1.4-.11,1.39-.88,3.12-.93,4.56-.13,1.44.79,2.32,2.31,2.32,3.95v12.44ZM63.87,39.94h0,0ZM62.79,39.47h0l1.06-1.06h0l-1.06,1.06h0ZM60.15,29.4h2.08v-9.41h-2.01c.91.82,1.49,2.02,1.49,3.34v2.66c0,1.36-.61,2.58-1.56,3.41ZM37,29.4h2.29c-.96-.83-1.56-2.05-1.56-3.41v-2.66c0-1.33.57-2.52,1.49-3.34h-2.22v9.41ZM37,9.52h25.23v-.17h-25.23v.17ZM57.21,61.92h-2.66c-2.49,0-4.5-2.01-4.5-4.5v-1.89c0-2.49,2.01-4.5,4.5-4.5h2.66c2.49,0,4.5,2.01,4.5,4.5v1.89c0,2.49-2.01,4.5-4.5,4.5ZM44.89,61.92h-2.66c-2.49,0-4.5-2.01-4.5-4.5v-1.89c0-2.49,2.01-4.5,4.5-4.5h2.66c2.49,0,4.5,2.01,4.5,4.5v1.89c0,2.49-2.01,4.5-4.5,4.5ZM57.21,50.93h-2.66c-2.49,0-4.5-2.01-4.5-4.5v-1.82c0-2.49,2.01-4.5,4.5-4.5h2.66c2.49,0,4.5,2.01,4.5,4.5v1.82c0,2.49-2.01,4.5-4.5,4.5ZM44.89,50.93h-2.66c-2.49,0-4.5-2.01-4.5-4.5v-1.82c0-2.49,2.01-4.5,4.5-4.5h2.66c2.49,0,4.5,2.01,4.5,4.5v1.82c0,2.49-2.01,4.5-4.5,4.5Z"/><path class="cls-2" d="M133.29,71.1h-9.87c-1.66,0-3.25-.62-4.61-1.79-.08-.07-.17-.15-.25-.23,0,0-.01-.01-.02-.02h-38.53c-1.94,0-3.53-.56-4.71-1.67-.96-.85-2.03-2.35-2.03-4.79v-13.37c0-2.46.96-4.03,1.82-4.94,1.32-1.46,2.97-2.01,4.11-2.29.05-.01.11-.03.16-.04V11.71c0-2.67,1.23-4.17,2.18-4.94,1.17-1.01,2.75-1.52,4.7-1.52h9.04l.21-.39c.74-1.49,1.64-2.64,2.71-3.44,1.22-.96,2.78-1.42,4.77-1.42h9.45c2.34,0,4.33.79,5.63,2.23.71.76,1.26,1.8,1.42,3.02h14.23c1.93,0,3.5.5,4.67,1.5,1.46,1.14,2.28,2.92,2.28,4.96v17.78c1.07.37,2,1,2.73,1.88,1.35,1.62,1.54,3.75,1.54,5.61,0,2.06-.21,4.18-1.66,5.76-.07.08-.14.16-.22.24.64,1.49.97,3.27.97,5.35v12.95c0,3.44-1.1,6.04-3.26,7.74-.09.07-.19.14-.28.21-1.87,1.24-4.29,1.88-7.19,1.88ZM124.94,62.1h8.35c.81,0,1.35-.09,1.7-.18.02-.16.04-.37.04-.64v-12.95c0-.79-.08-1.26-.14-1.52-.25-.06-.75-.14-1.59-.14h-3.73c1.04.86,1.77,2.04,2.09,3.45.08.33.12.67.12,1.02v2.73c0,2.33-.7,4.17-2.07,5.46-1.17,1.11-2.72,1.67-4.41,1.63h-1.16c.33.34.6.73.81,1.15ZM117.72,60.89s0,0,0,0c0,0,0,0,0,0ZM82.28,60.06h35.7c-.64-.79-1.02-1.78-1.02-2.85v-7.63c0-1.12.41-2.13,1.08-2.92h-5.55c.67.79,1.08,1.81,1.08,2.92v5.88c0,2.49-2.01,4.5-4.5,4.5h-2.66c-2.49,0-4.5-2.01-4.5-4.5v-5.88c0-1.12.41-2.13,1.08-2.92h-5.26c-.62,0-1.2-.12-1.74-.35.87.82,1.41,1.98,1.41,3.27v5.88c0,2.49-2.01,4.5-4.5,4.5h-2.73c-2.49,0-4.5-2.01-4.5-4.5v-4.98c-.55.24-1.16.38-1.8.38h-1.59v9.2ZM88.37,14.25v31.21c.55-.24,1.16-.38,1.8-.38h2.73c.62,0,1.2.12,1.74.35-.87-.82-1.41-1.98-1.41-3.27v-1.89c0-1.32.57-2.5,1.47-3.33-.9-.82-1.47-2.01-1.47-3.33v-1.82c0-1.17.45-2.24,1.19-3.04-.74-.8-1.19-1.87-1.19-3.05v-1.89c0-1.17.45-2.24,1.19-3.05-.74-.8-1.19-1.87-1.19-3.04v-1.89c0-.56.1-1.1.29-1.59h-5.15ZM128.33,27.3h3.33v-13.05h-3.33c.19.49.29,1.03.29,1.59v1.89c0,1.17-.45,2.24-1.19,3.04.74.8,1.19,1.87,1.19,3.05v1.89c0,.56-.1,1.1-.29,1.59ZM102.25,11.34h6.66c-.28-.75-.36-1.56-.23-2.34h-5.21s-1.23,2.34-1.23,2.34Z"/><path class="cls-2" d="M210.4,71.1h-10.22s-.07,0-.1,0c-3.51-.08-6.37-.92-8.52-2.51-.14.17-.29.34-.44.5-.09.1-.19.19-.3.27-1.24,1.04-2.84,1.61-4.49,1.61h-7.7c-1.62,0-3.22-.54-4.43-1.5-.37-.28-.71-.6-1-.94-2.17,1.63-5.05,2.5-8.61,2.58-.03,0-.07,0-.1,0h-10.22c-2.01,0-3.87-.74-5.21-2.09-1.32-1.32-2.02-3.03-2.02-4.93v-3.85c0-1.91.7-3.62,2.02-4.94,1.02-1.02,2.34-1.7,3.8-1.96-1.43-.33-2.71-1.06-3.69-2.14-1.35-1.4-2.06-3.13-2.06-5.04V12.41c0-1.84.69-3.49,2.06-4.91.97-1.06,2.68-2.25,5.45-2.25h6.37c.37,0,.73.02,1.08.07.25-.91.67-1.72,1.27-2.44.09-.11.18-.21.28-.3,1.2-1.2,2.81-1.81,4.79-1.81h39.41c1.98,0,3.6.61,4.8,1.81.09.09.18.19.27.29,1.07,1.28,1.61,2.81,1.61,4.56v28.93c.56.27,1.12.64,1.62,1.14.1.09.19.19.27.3,1.08,1.29,1.61,3.08,1.61,5.47v2.8c0,1.88-.47,3.49-1.4,4.79-.08.11-.16.21-.24.31-.75.87-2.04,1.88-4.17,2.22,1.31.3,2.5.95,3.44,1.89,1.32,1.32,2.02,3.03,2.02,4.93v3.85c0,1.9-.7,3.61-2.01,4.93-1.35,1.35-3.2,2.09-5.22,2.09ZM200.24,62.1h3.48c-1.47-.25-2.81-.93-3.85-1.98-1.32-1.32-2.06-3.14-2.08-5.12h-1.57v3.9c0,1.15.2,2,.55,2.33.14.13.97.8,3.47.87ZM160.96,62.1h3.46c1.94-.05,3.06-.48,3.47-.87.35-.33.55-1.18.55-2.33v-3.9h-1.57c-.02,1.98-.76,3.8-2.09,5.13-1.06,1.05-2.36,1.73-3.82,1.98ZM180.74,61.96h3.25v-12.93c0-2.15,1.5-3.94,3.51-4.39h-10.28c2.01.45,3.51,2.25,3.51,4.39v12.93ZM156.1,44.52h6.84c-2.01-.45-3.51-2.25-3.51-4.39V14.25h-3.32v30.27ZM201.45,34.09h4.03V9.77h-3.87c.35.64.55,1.37.55,2.15v2.17c0,1.3-.55,2.47-1.43,3.29.88.82,1.43,1.99,1.43,3.29v2.17c0,1.28-.54,2.44-1.39,3.25.86.82,1.39,1.98,1.39,3.26v2.31c0,.9-.26,1.73-.71,2.43ZM170.8,34.09h3.96c-.45-.7-.71-1.53-.71-2.43v-2.31c0-1.28.54-2.44,1.39-3.26-.86-.82-1.39-1.97-1.39-3.25v-2.17c0-1.3.55-2.47,1.43-3.29-.88-.82-1.43-1.99-1.43-3.29v-2.17c0-.78.2-1.51.55-2.15h-3.8v24.32ZM207.86,9.77h.01-.01Z"/><path class="cls-3" d="M63.87,69.46h-28.35c-1.68,0-3.17-.59-4.29-1.72-1.12-1.13-1.72-2.54-1.72-4.08v-9.59c-.67.19-1.37.25-2.1.19-.27-.02-.54-.09-.79-.18v9.58c0,.18-.02.36-.05.54-.25,1.39-.82,2.53-1.74,3.48-1.06,1.17-2.49,1.79-4.15,1.79h-5.88c-1.68,0-3.17-.59-4.29-1.72-.05-.05-.09-.1-.14-.15-.92-1.05-1.45-2.28-1.57-3.67,0-.09-.01-.18-.01-.27v-10.3s-.05,0-.08,0h-1.61c-.09,0-.18,0-.27-.01-1.43-.13-2.57-.61-3.59-1.5-1.1-.95-1.72-2.38-1.72-4.01v-7.28c0-1.52.53-2.82,1.58-3.87.1-.1.21-.2.32-.28.68-.51,1.78-1.21,3.42-1.36.09,0,.18-.01.27-.01h1.26c3.22,0,4.5-1.1,5.18-1.92.69-.87,1.23-1.97,1.63-3.28H7.02c-1.42,0-2.7-.49-3.79-1.44-.05-.04-.1-.09-.15-.14-1.03-1.03-1.58-2.4-1.58-3.94v-7.14c0-1.45.5-2.79,1.44-3.86.04-.05.09-.1.14-.15,1.05-1.05,2.24-1.63,3.64-1.77.1,0,.2-.01.3-.01h1.76v-3.86c0-.1,0-.2.01-.3.13-1.33.66-2.53,1.57-3.57.09-.1.18-.2.28-.28,1.15-1,2.54-1.51,4.14-1.51h5.88c1.59,0,3,.57,4.08,1.65.94.94,1.53,2.06,1.8,3.43.04.19.06.39.06.59v3.86h.85c.1,0,.2,0,.3.01.63.06,1.22.22,1.77.45-.02-.25-.03-.5-.03-.76v-3.01c0-1.4.16-3.43,1.51-4.78.07-.07.13-.13.2-.19,1.01-.84,2.38-1.25,4.16-1.25h28.35c1.93,0,3.36.41,4.37,1.25.14.12.27.25.38.39.84,1.01,1.26,2.51,1.26,4.58v3.01c0,1.56-.38,2.88-1.12,3.92,0,0,0,.01-.01.02.54.77.89,1.61,1.08,2.54.04.19.06.39.06.59v13.02c0,.2-.02.4-.06.59-.21,1.04-.62,1.99-1.22,2.8.89,1.05,1.34,2.23,1.34,3.54v25.55c0,1.54-.59,2.96-1.72,4.08-1.13,1.13-2.59,1.72-4.22,1.72ZM35.5,63.46h28.3v-25.01h-28.29s0,0-.01,0v25.01ZM14.78,63.46h5.77s.04-.06.06-.13v-14.02c0-1.03.53-1.99,1.41-2.54.87-.55,1.97-.61,2.9-.16l2.63,1.27v-5.22c0-.14,0-.25,0-.34-.24-.15-.62-.38-1.22-.69l-1.7-.81c-.76-.36-1.33-1.03-1.57-1.83s-.14-1.67.28-2.39c2.58-4.4,3.85-9.94,3.79-16.45v-2.74s0-.02-.01-.03h-3.5c-1.66,0-3-1.34-3-3v-6.48s-.01-.03-.02-.04h-5.8s0,0,0,0v6.52c0,1.66-1.34,3-3,3h-4.28v6.46s11.28,0,11.28,0c.85,0,1.66.36,2.23.99.57.63.84,1.47.76,2.32-.41,3.99-1.61,7.27-3.57,9.75-2.29,2.77-5.59,4.15-9.84,4.15h-.85v6.32h1.11c1.01-.07,1.45-.3,1.56-.37.93-.59,2.09-.62,3.05-.1s1.55,1.53,1.55,2.63v13.94ZM7.15,47.31s.01.02.03.02c0,0-.02-.01-.03-.02ZM63.92,38.49h0,0ZM35.5,30.9h28.19s.03-.06.04-.1v-12.25s-.02-.03-.03-.05h-28.2s0,0-.01,0v12.41ZM35.5,11.02h28.23v-2.95c0-.08,0-.15,0-.22h-28.23c0,.07,0,.14,0,.22v2.95ZM57.21,60.42h-2.66c-1.66,0-3-1.34-3-3v-1.89c0-1.66,1.34-3,3-3h2.66c1.66,0,3,1.34,3,3v1.89c0,1.66-1.34,3-3,3ZM44.89,60.42h-2.66c-1.66,0-3-1.34-3-3v-1.89c0-1.66,1.34-3,3-3h2.66c1.66,0,3,1.34,3,3v1.89c0,1.66-1.34,3-3,3ZM57.21,49.43h-2.66c-1.66,0-3-1.34-3-3v-1.82c0-1.66,1.34-3,3-3h2.66c1.66,0,3,1.34,3,3v1.82c0,1.66-1.34,3-3,3ZM44.89,49.43h-2.66c-1.66,0-3-1.34-3-3v-1.82c0-1.66,1.34-3,3-3h2.66c1.66,0,3,1.34,3,3v1.82c0,1.66-1.34,3-3,3ZM57.21,28.99h-14.98c-1.66,0-3-1.34-3-3v-2.66c0-1.66,1.34-3,3-3h14.98c1.66,0,3,1.34,3,3v2.66c0,1.66-1.34,3-3,3Z"/><path class="cls-3" d="M133.29,69.6h-9.87c-.9,0-2.26-.25-3.63-1.42-.06-.05-.11-.1-.17-.15-.15-.15-.28-.3-.41-.45h-39.19c-.59,0-2.35,0-3.7-1.27-.72-.64-1.54-1.79-1.54-3.69v-13.37c0-1.99.76-3.22,1.43-3.93,1.04-1.17,2.42-1.62,3.37-1.85.24-.06.48-.09.73-.09h.57V11.71c0-2.09.94-3.22,1.64-3.78,1.35-1.18,3.13-1.18,3.74-1.18h9.95l.63-1.2c.65-1.31,1.42-2.29,2.3-2.95.95-.75,2.21-1.11,3.86-1.11h9.45c1.92,0,3.52.62,4.53,1.75.46.5,1.31,1.7,1,3.5h15.75c.6,0,2.37,0,3.72,1.17,1.1.85,1.73,2.22,1.73,3.79v17.99c0,.33-.02.65-.07.96,1.59.18,2.58.98,3.15,1.67,1.04,1.25,1.19,2.97,1.19,4.65s-.16,3.54-1.26,4.74c-.3.34-.64.62-1.01.85.92,1.44,1.36,3.34,1.36,5.75v12.95c0,2.95-.9,5.16-2.69,6.56-.06.05-.12.09-.19.14-1.62,1.08-3.75,1.62-6.35,1.62ZM123.86,63.6h9.43c1.62,0,2.48-.3,2.89-.53.15-.18.34-.71.34-1.79v-12.95c0-2.13-.51-2.63-.51-2.63-.13-.12-.72-.53-2.72-.53h-35.56c-1.66,0-3-1.34-3-3v-1.89c0-1.66,1.34-3,3-3h39.7c0-.09,0-.19,0-.29,0-.13,0-.25,0-.36h-39.7c-1.66,0-3-1.34-3-3v-1.82c0-1.66,1.34-3,3-3h35.43V12.75s-20.03,0-20.03,0c-1.08,0-2.07-.58-2.61-1.52-.53-.94-.52-2.09.03-3.02l.43-.72h-8c-.15,0-.27,0-.35.01-.09.11-.25.35-.46.78l-1.5,2.85c-.52.99-1.54,1.6-2.66,1.6h-11.14v33.61c0,1.66-1.34,3-3,3h-3.09v12.2h38.3c.07,0,.14,0,.18,0,.78-.51,1.76-.63,2.66-.31,1.03.37,1.77,1.27,1.94,2.34ZM118.78,61.95s0,0,0,0c0,0,0,0,0,0ZM80.53,49.46s0,0,0,0c0,0,0,0,0,0ZM102.87,7.29s0,0,0,0c0,0,0,0,0,0ZM121.46,60.21c-.32,0-.63-.05-.94-.15-1.23-.41-2.06-1.55-2.06-2.85v-7.63c0-1.66,1.34-3,3-3h3.85c.13,0,.27,0,.4.03,2.32.31,4,1.75,4.49,3.84.05.22.08.45.08.68v2.73c0,1.9-.54,3.37-1.6,4.38-.88.83-2.05,1.26-3.36,1.22h-1.63c-.11.01-.2.03-.26.04-.55.47-1.25.73-1.96.73ZM123.87,59.01s0,0,0,0t0,0ZM109.07,58.46h-2.66c-1.66,0-3-1.34-3-3v-5.88c0-1.66,1.34-3,3-3h2.66c1.66,0,3,1.34,3,3v5.88c0,1.66-1.34,3-3,3ZM92.9,58.46h-2.73c-1.66,0-3-1.34-3-3v-5.88c0-1.66,1.34-3,3-3h2.73c1.66,0,3,1.34,3,3v5.88c0,1.66-1.34,3-3,3ZM124.12,28.71h-26.39c-1.66,0-3-1.34-3-3v-1.89c0-1.66,1.34-3,3-3h26.39c1.66,0,3,1.34,3,3v1.89c0,1.66-1.34,3-3,3ZM124.12,20.73h-26.39c-1.66,0-3-1.34-3-3v-1.89c0-1.66,1.34-3,3-3h26.39c1.66,0,3,1.34,3,3v1.89c0,1.66-1.34,3-3,3Z"/><path class="cls-3" d="M210.4,69.6h-10.22c-3.76-.09-6.62-1.07-8.57-2.92-.15-.14-.3-.29-.44-.45-.24.69-.62,1.29-1.12,1.79-.06.06-.13.12-.2.18-.97.81-2.23,1.26-3.53,1.26h-7.7c-1.29,0-2.57-.43-3.51-1.19-.72-.54-1.25-1.26-1.55-2.11-.16.18-.33.35-.5.52-1.96,1.85-4.82,2.84-8.5,2.92h-10.29c-1.61,0-3.09-.58-4.15-1.65-1.05-1.05-1.58-2.35-1.58-3.87v-3.85c0-1.52.53-2.83,1.58-3.87,1.06-1.06,2.54-1.65,4.15-1.65h5.12v-1.62c0-.36.04-.71.11-1.06h-4.87c-1.75,0-3.26-.64-4.36-1.86-1.08-1.11-1.65-2.5-1.65-4.01V12.41c0-1.45.56-2.75,1.65-3.88.76-.83,2.12-1.78,4.36-1.78h6.37c.83,0,1.61.15,2.32.45.02-.92.21-2.19,1.18-3.36.06-.07.12-.14.18-.2,1.37-1.37,3.15-1.37,3.73-1.37h39.41c.58,0,2.37,0,3.73,1.37.06.06.12.13.18.2.85,1.01,1.26,2.19,1.26,3.6v29.05c0,.3-.02.6-.06.89.76.2,1.5.56,2.12,1.19.06.06.12.13.18.2.85,1.01,1.26,2.49,1.26,4.51v2.8c0,1.56-.38,2.88-1.12,3.92-.05.07-.11.14-.16.21-.71.83-2.08,1.82-4.59,1.82h-5.43c.07.35.1.7.1,1.06v1.62h5.12c1.61,0,3.09.59,4.15,1.65s1.58,2.35,1.58,3.87v3.85c0,1.52-.53,2.82-1.58,3.87-1.06,1.07-2.54,1.65-4.15,1.65ZM194.71,53.49v5.4c0,1.63.34,2.78,1.02,3.42.82.78,2.42,1.23,4.52,1.28h9.88v-2.89h-5.12c-1.57,0-3.02-.59-4.08-1.66-1.06-1.06-1.65-2.53-1.65-4.15v-1.41h-4.57ZM154.53,63.59h9.95c2.02-.04,3.63-.5,4.45-1.27.68-.64,1.02-1.79,1.02-3.42v-5.4h-4.57v1.41c0,1.62-.59,3.09-1.65,4.15-1.08,1.08-2.49,1.65-4.08,1.65h-5.12v2.88ZM179.24,63.46h6.25v-14.43c0-1.66,1.34-3,3-3h21.99v-2.74c0-.05,0-.1,0-.15h-46.56c-1.66,0-3-1.34-3-3V12.75h-6.31s0,0-.01,0v33.27h21.64c1.66,0,3,1.34,3,3v14.43ZM169.3,35.59h37.68V8.27s-37.68,0-37.68,0v27.32ZM208,8.28h0,0ZM197.66,34.66h-19.11c-1.66,0-3-1.34-3-3v-2.31c0-1.66,1.34-3,3-3h19.11c1.66,0,3,1.34,3,3v2.31c0,1.66-1.34,3-3,3ZM197.66,25.84h-19.11c-1.66,0-3-1.34-3-3v-2.17c0-1.66,1.34-3,3-3h19.11c1.66,0,3,1.34,3,3v2.17c0,1.66-1.34,3-3,3ZM197.66,17.09h-19.11c-1.66,0-3-1.34-3-3v-2.17c0-1.66,1.34-3,3-3h19.11c1.66,0,3,1.34,3,3v2.17c0,1.66-1.34,3-3,3Z"/><path class="cls-2" d="M11.78,14.37v-6.86c.07-.7.35-1.33.84-1.89.56-.49,1.26-.77,2.17-.77h5.88c.84,0,1.47.28,1.96.77.56.56.84,1.19.98,1.89v6.86h3.85c.7.07,1.33.35,1.82.91.49.56.77,1.19.84,1.89v2.94c.07,7.07-1.33,13.09-4.2,17.99l1.75.84c1.19.63,1.96,1.12,2.31,1.47.42.42.56,1.12.56,2.24v5.88c0,.77-.21,1.47-.77,2.03-.63.56-1.33.77-2.1.7l-4.06-1.96v14.35c-.14.77-.42,1.4-.98,1.96-.49.56-1.12.84-1.96.84h-5.88c-.91,0-1.61-.28-2.17-.84-.49-.56-.77-1.19-.84-1.96v-14.14c-.77.49-1.82.77-3.08.84h-1.61c-.77-.07-1.33-.28-1.89-.77-.49-.42-.7-1.05-.7-1.75v-7.28c0-.7.21-1.26.7-1.75.56-.42,1.12-.7,1.89-.77h1.26c3.36,0,5.81-.98,7.49-3.01,1.61-2.03,2.59-4.76,2.94-8.19H7.02c-.7,0-1.26-.21-1.82-.7-.49-.49-.7-1.12-.7-1.82v-7.14c0-.7.21-1.33.7-1.89.56-.56,1.12-.84,1.82-.91h4.76ZM33.13,13.25c-.42-.49-.63-1.19-.63-2.17v-3.01c0-1.33.21-2.24.63-2.66.42-.35,1.12-.56,2.24-.56h28.35c1.19,0,2.03.21,2.45.56.35.42.56,1.33.56,2.66v3.01c0,.98-.21,1.68-.56,2.17-.42.49-1.26.77-2.45.77h-28.35c-1.12,0-1.82-.28-2.24-.77ZM65.83,16.33c.49.56.77,1.12.91,1.82v13.02c-.14.7-.42,1.33-.91,1.89s-1.19.84-2.03.84h-28.28c-.91,0-1.61-.28-2.17-.84-.49-.56-.77-1.19-.84-1.89v-13.02c.07-.7.35-1.26.84-1.82.56-.56,1.26-.84,2.17-.84h28.28c.84,0,1.54.28,2.03.84ZM65.97,36.28c.56.56.84,1.12.84,1.82v25.55c0,.77-.28,1.4-.84,1.96-.56.56-1.26.84-2.1.84h-28.35c-.91,0-1.61-.28-2.17-.84-.56-.56-.84-1.19-.84-1.96v-25.55c0-.7.28-1.26.84-1.82.56-.56,1.26-.84,2.17-.84h28.35c.84,0,1.54.28,2.1.84ZM57.21,23.33h-14.98v2.66h14.98v-2.66ZM44.89,46.43v-1.82h-2.66v1.82h2.66ZM44.89,57.42v-1.89h-2.66v1.89h2.66ZM57.21,44.61h-2.66v1.82h2.66v-1.82ZM57.21,55.53h-2.66v1.89h2.66v-1.89Z"/><path class="cls-2" d="M119.08,64.57h-39.06c-.77,0-1.33-.14-1.68-.49-.42-.35-.56-.84-.56-1.47v-13.37c0-.84.21-1.47.63-1.89.42-.49,1.05-.77,1.89-.98h3.57V11.71c0-.63.14-1.19.56-1.47.35-.35.98-.49,1.82-.49h11.76l1.47-2.8c.49-.98.98-1.61,1.47-1.96.42-.35,1.12-.49,2.03-.49h9.45c1.05,0,1.89.28,2.31.77.49.49.35,1.26-.28,2.24l-1.33,2.24h20.58c.84,0,1.47.14,1.82.49.42.28.63.84.63,1.47v17.99c0,.77-.21,1.26-.63,1.61-.35.35-.98.49-1.82.49h-35.98v1.82h40.67c.7,0,1.19.21,1.54.63s.49,1.33.49,2.73-.14,2.38-.49,2.73c-.35.42-.84.56-1.54.56h-40.67v1.89h35.56c2.24,0,3.78.42,4.76,1.33.98.91,1.47,2.52,1.47,4.83v12.95c0,2.1-.56,3.43-1.54,4.2-1.05.7-2.59,1.12-4.69,1.12h-9.87c-.63,0-1.19-.28-1.68-.7-.49-.49-.77-1.05-.84-1.82-.35.35-.98.49-1.82.49ZM92.9,55.46v-5.88h-2.73v5.88h2.73ZM124.12,15.84h-26.39v1.89h26.39v-1.89ZM124.12,23.82h-26.39v1.89h26.39v-1.89ZM106.41,55.46h2.66v-5.88h-2.66v5.88ZM123.49,56.45h1.89c1.26.07,1.89-.84,1.89-2.59v-2.73c-.21-.91-.91-1.4-1.96-1.54h-3.85v7.63c.21-.28.42-.42.7-.49.35-.14.77-.21,1.33-.28Z"/><path class="cls-2" d="M170.43,50.49c.7.07,1.33.28,1.75.77.49.49.77,1.12.77,1.82v5.81c0,2.45-.63,4.34-1.96,5.6-1.33,1.26-3.5,2.03-6.51,2.1h-10.22c-.84,0-1.54-.28-2.03-.77s-.7-1.05-.7-1.75v-3.85c0-.7.21-1.26.7-1.75.49-.49,1.19-.77,2.03-.77h5.39c.84,0,1.47-.28,1.96-.77.49-.49.77-1.19.77-2.03v-1.82c0-.7.28-1.33.77-1.82.49-.49,1.12-.7,1.82-.77h5.46ZM188.49,49.02v15.26c0,.7-.21,1.26-.56,1.61-.42.35-.98.56-1.61.56h-7.7c-.63,0-1.26-.21-1.68-.56-.49-.35-.7-.91-.7-1.61v-15.26h-21.63c-.98,0-1.68-.35-2.17-.91-.56-.56-.84-1.19-.84-1.96V12.41c0-.7.28-1.26.84-1.82.49-.56,1.19-.84,2.17-.84h6.37c.84,0,1.54.28,2.1.84.56.56.84,1.12.84,1.82v27.72h46.69c1.12,0,1.89.14,2.31.56.35.42.56,1.33.56,2.59v2.8c0,.98-.21,1.68-.56,2.17-.42.49-1.19.77-2.31.77h-22.12ZM209.42,5.76c.35.42.56.91.56,1.68v29.05c0,.7-.21,1.26-.56,1.61s-.84.49-1.61.49h-39.41c-.77,0-1.26-.14-1.61-.49-.35-.35-.49-.91-.49-1.61V7.44c0-.77.14-1.26.49-1.68.35-.35.84-.49,1.61-.49h39.41c.77,0,1.26.14,1.61.49ZM197.66,11.92h-19.11v2.17h19.11v-2.17ZM197.66,20.67h-19.11v2.17h19.11v-2.17ZM197.66,29.35h-19.11v2.31h19.11v-2.31ZM201.51,51.26c.49.49.77,1.12.77,1.82v1.82c0,.84.28,1.54.77,2.03.49.49,1.19.77,1.96.77h5.39c.84,0,1.54.28,2.03.77s.7,1.05.7,1.75v3.85c0,.7-.21,1.26-.7,1.75-.49.49-1.19.77-2.03.77h-10.22c-3.01-.07-5.18-.84-6.51-2.1-1.33-1.26-1.96-3.15-1.96-5.6v-5.81c0-.7.28-1.33.77-1.82.42-.49,1.05-.7,1.75-.77h5.46c.7.07,1.33.28,1.82.77Z"/></g></svg>