<?xml version="1.0" encoding="UTF-8"?><svg id="_レイヤー_2" xmlns="http://www.w3.org/2000/svg" viewBox="0 0 218.57 70.4"><defs><style>.cls-1,.cls-2,.cls-3{stroke-width:0px;}.cls-2{fill:#198caa;}.cls-3{fill:#fff;}</style></defs><g id="_レイヤー_4"><path class="cls-1" d="M5.13,43.49c-.42-.49-.63-1.26-.63-2.24v-2.17c0-1.33.21-2.24.63-2.59.35-.42,1.12-.63,2.24-.63h9.94V7.86c0-1.33.21-2.17.63-2.59s1.19-.63,2.24-.63h35.98c1.19,0,1.96.21,2.38.63.42.42.63,1.26.63,2.59v2.24c0,.98-.21,1.75-.63,2.17-.42.49-1.19.77-2.38.77h-27.3v2.03h24.85c1.19,0,1.96.21,2.38.63s.63,1.26.63,2.59v2.17c0,.98-.21,1.75-.63,2.24s-1.19.7-2.38.7h-24.85v2.03h24.85c1.19,0,1.96.21,2.38.63s.63,1.26.63,2.59v2.17c0,1.05-.21,1.75-.63,2.24s-1.19.7-2.38.7h-24.85v2.1h35.21c1.19,0,2.03.21,2.38.63.42.35.63,1.26.63,2.59v2.17c0,.98-.21,1.75-.63,2.24-.35.49-1.19.7-2.38.7h-18.62v3.36c-.07,3.5.49,5.95,1.54,7.28l2.38-5.81c.56-1.12,1.05-1.89,1.47-2.24.42-.42,1.05-.63,1.89-.63h6.72c1.12,0,1.75.21,1.96.63.21.35.07,1.12-.35,2.24l-3.43,8.19h6.72c.77.07,1.33.35,1.89.77.49.49.7,1.05.7,1.82v3.43c0,.77-.21,1.33-.7,1.82-.56.42-1.12.7-1.89.77h-16.17c-4.97-.14-8.61-1.47-10.85-3.99-2.17-2.45-3.36-6.44-3.43-11.83v-5.81h-7.84v11.83c0,.98.49,1.47,1.4,1.47h3.01c1.05,0,1.82.21,2.24.56.42.35.63,1.12.63,2.17v3.43c0,.84-.21,1.4-.63,1.75s-1.19.49-2.24.49h-13.65c-1.19,0-2.03-.14-2.38-.49-.42-.35-.56-.91-.56-1.75v-19.46h-6.51c-1.12,0-1.89-.21-2.24-.7Z"/><path class="cls-1" d="M85.41,15.63c.56.56.84,1.12.84,1.82v30.94h1.26V7.58c.07-.63.35-1.26.91-1.82.49-.56,1.19-.84,2.1-.84h2.38c.77,0,1.47.28,1.96.84s.84,1.19.98,1.82v40.81h1.26v-30.94c.07-.7.35-1.26.84-1.82.56-.56,1.26-.84,2.17-.84h2.31c.84,0,1.54.28,2.1.84s.84,1.12.84,1.82v38.71c-.14.77-.42,1.4-.91,1.96-.49.56-1.19.84-2.03.84h-21.42c-.91,0-1.68-.28-2.17-.84-.56-.56-.84-1.19-.84-1.89V17.45c0-.7.28-1.26.84-1.82.49-.56,1.26-.84,2.17-.84h2.31c.84,0,1.54.28,2.1.84ZM125.18,4.5c.63,0,1.26.28,1.75.84s.77,1.19.77,1.96v2.87h9.87c1.19,0,2.03.21,2.38.56.42.42.63,1.33.63,2.59v3.01c0,1.05-.21,1.75-.63,2.24-.35.49-1.19.7-2.38.7h-9.31c.28,1.19.77,2.1,1.47,2.73,1.4,1.26,3.85,1.89,7.35,1.89h.77c.77.07,1.33.28,1.89.77.49.42.7,1.05.7,1.75v4.06c0,.7-.21,1.33-.7,1.75-.56.49-1.12.7-1.89.77h-4.13c-4.69-.14-8.12-1.19-10.22-3.08-2.1,1.89-5.46,2.94-10.15,3.08h-4.2c-.7-.07-1.33-.28-1.82-.77-.49-.42-.77-1.05-.77-1.75v-4.06c0-.7.28-1.33.77-1.75.49-.49,1.12-.7,1.82-.77h.77c3.5,0,5.95-.63,7.35-1.89.7-.63,1.19-1.54,1.54-2.73h-9.24c-1.12,0-1.82-.21-2.24-.7-.42-.49-.63-1.19-.63-2.24v-3.01c0-1.26.21-2.17.63-2.59.42-.35,1.12-.56,2.24-.56h9.8v-2.87c0-.77.21-1.4.7-1.96s1.12-.84,1.82-.84h3.29ZM107.33,42.93c-.42-.49-.63-1.26-.63-2.24v-3.01c0-1.33.21-2.17.63-2.59s1.12-.63,2.24-.63h28c1.19,0,2.03.21,2.38.63.42.42.63,1.26.63,2.59v3.01c0,.98-.21,1.75-.63,2.24-.35.49-1.19.7-2.38.7h-.63v17.85c0,1.75-.28,2.87-.84,3.5-.56.56-1.68.91-3.29.91h-6.44c-1.96,0-2.94-.98-2.94-2.8v-3.08c0-.35,0-.63.07-.91h-11.97c-1.26,0-2.24-.28-3.01-.77-.7-.49-1.05-1.54-1.05-3.22v-5.74c0-1.47.35-2.52,1.05-3.15.7-.63,1.68-.91,2.94-.91h11.41c1.47,0,2.52.28,3.22.91.63.63.98,1.61.98,3.08v5.95c0,.77-.07,1.33-.21,1.82h2.17v-13.44h-19.46c-1.12,0-1.82-.21-2.24-.7ZM118.88,53.44v-2.52h-3.29v2.52h3.29Z"/><path class="cls-1" d="M171.01,49.79c.7.07,1.33.28,1.75.77.49.49.77,1.12.77,1.82v5.81c0,2.45-.63,4.34-1.96,5.6-1.33,1.26-3.5,2.03-6.51,2.1h-10.22c-.84,0-1.54-.28-2.03-.77-.49-.49-.7-1.05-.7-1.75v-3.85c0-.7.21-1.26.7-1.75.49-.49,1.19-.77,2.03-.77h5.39c.84,0,1.47-.28,1.96-.77.49-.49.77-1.19.77-2.03v-1.82c0-.7.28-1.33.77-1.82s1.12-.7,1.82-.77h5.46ZM189.07,48.32v15.26c0,.7-.21,1.26-.56,1.61-.42.35-.98.56-1.61.56h-7.7c-.63,0-1.26-.21-1.68-.56-.49-.35-.7-.91-.7-1.61v-15.26h-21.63c-.98,0-1.68-.35-2.17-.91-.56-.56-.84-1.19-.84-1.96V11.71c0-.7.28-1.26.84-1.82.49-.56,1.19-.84,2.17-.84h6.37c.84,0,1.54.28,2.1.84.56.56.84,1.12.84,1.82v27.72h46.69c1.12,0,1.89.14,2.31.56.35.42.56,1.33.56,2.59v2.8c0,.98-.21,1.68-.56,2.17-.42.49-1.19.77-2.31.77h-22.12ZM210.01,5.06c.35.42.56.91.56,1.68v29.05c0,.7-.21,1.26-.56,1.61-.35.35-.84.49-1.61.49h-39.41c-.77,0-1.26-.14-1.61-.49-.35-.35-.49-.91-.49-1.61V6.74c0-.77.14-1.26.49-1.68.35-.35.84-.49,1.61-.49h39.41c.77,0,1.26.14,1.61.49ZM198.24,11.22h-19.11v2.17h19.11v-2.17ZM198.24,19.97h-19.11v2.17h19.11v-2.17ZM198.24,28.65h-19.11v2.31h19.11v-2.31ZM202.09,50.56c.49.49.77,1.12.77,1.82v1.82c0,.84.28,1.54.77,2.03.49.49,1.19.77,1.96.77h5.39c.84,0,1.54.28,2.03.77s.7,1.05.7,1.75v3.85c0,.7-.21,1.26-.7,1.75s-1.19.77-2.03.77h-10.22c-3.01-.07-5.18-.84-6.51-2.1-1.33-1.26-1.96-3.15-1.96-5.6v-5.81c0-.7.28-1.33.77-1.82.42-.49,1.05-.7,1.75-.77h5.46c.7.07,1.33.28,1.82.77Z"/><path class="cls-2" d="M30.47,70.4h-13.65c-1.69,0-3.81-.19-5.4-1.65-1.36-1.2-2.04-2.91-2.04-5.09v-14.96h-2.01c-2.6,0-4.54-.81-5.78-2.42-1.06-1.31-1.59-3-1.59-5.02v-2.17c0-.98,0-3.86,1.92-5.75,1.24-1.31,3.08-1.97,5.45-1.97h5.44V7.86c0-1.64.2-4.03,1.95-5.77,1.29-1.29,3.12-1.95,5.42-1.95h35.98c.89,0,3.62,0,5.56,1.95,1.75,1.74,1.95,4.13,1.95,5.77v2.24c0,2.69-.96,4.31-1.82,5.23-.22.25-.49.5-.81.74.15.8.18,1.57.18,2.22v2.17c0,1.49-.29,2.8-.87,3.91.76,1.46.87,3.07.87,4.28v2.17c0,.18,0,.36-.01.54h2.86c.94,0,3.71,0,5.59,1.97,1.92,1.89,1.92,4.77,1.92,5.75v2.17c0,2.03-.54,3.72-1.6,5.03-.94,1.22-2.32,1.98-4.11,2.27-.16.86-.43,1.58-.61,2.05-.02.05-.04.11-.06.16l-.82,1.95c.12,0,.24,0,.37.02,1.52.14,2.88.68,4.18,1.65.17.13.33.27.48.41,1.34,1.34,2.02,3.02,2.02,5.01v3.43c0,1.98-.68,3.66-2.01,5-.15.15-.31.29-.48.42-1.3.97-2.67,1.51-4.18,1.65-.14.01-.27.02-.41.02h-16.17s-.08,0-.13,0c-4.53-.13-8.27-1.13-11.15-2.99-.4.67-.88,1.17-1.31,1.53-1.65,1.37-3.71,1.53-5.12,1.53ZM18.38,61.4h6.37c-1.94-.94-3.19-2.92-3.19-5.37v-11.83c0-2.49,2.01-4.5,4.5-4.5h.44c-1.28-.79-2.14-2.21-2.14-3.83v-2.1c0-1.88,1.16-3.49,2.8-4.17-1.64-.67-2.8-2.28-2.8-4.17v-2.03c0-1.88,1.16-3.49,2.8-4.17-1.64-.67-2.8-2.28-2.8-4.17v-2.03c0-1.67.91-3.12,2.25-3.9h-4.81v26.72c0,2.49-2.01,4.5-4.5,4.5h-1.07c1.28.79,2.14,2.21,2.14,3.83v17.2ZM48.25,61.33h7.55c-.77-.34-1.44-.9-1.92-1.62-.83-1.25-.99-2.84-.4-4.23l2.02-4.82h-1.91c-.04.07-.08.15-.13.24l-2.31,5.65c-.61,1.48-1.95,2.53-3.54,2.75-1.59.22-3.17-.41-4.16-1.67-1.78-2.25-2.6-5.58-2.51-10.16v-3.27c0-1.62.85-3.04,2.14-3.83h-6.83c1.28.79,2.14,2.21,2.14,3.83v5.81c.05,4.07.87,7.23,2.3,8.85,1.69,1.9,5.02,2.4,7.55,2.47Z"/><path class="cls-2" d="M132.81,70.4h-6.44c-4.28,0-7.2-2.71-7.43-6.79h-7.41c-1.92,0-3.64-.43-5.11-1.28-1.15.74-2.52,1.14-3.99,1.14h-21.42c-2.18,0-4.11-.8-5.45-2.25-1.35-1.39-2.06-3.11-2.06-4.98V17.45c0-1.85.69-3.5,2.06-4.91,1.34-1.45,3.26-2.25,5.45-2.25h2.01v-2.71c0-.16,0-.33.03-.49.18-1.65.91-3.17,2.1-4.41,1.34-1.46,3.24-2.26,5.38-2.26h2.38c2.11,0,4.01.84,5.35,2.38,1,1.14,1.68,2.46,1.99,3.8.07.32.11.65.11.98v2.71h2.08s.1,0,.15,0c.32-1.11.84-2.01,1.57-2.74.1-.1.2-.19.3-.28,1.29-1.08,2.97-1.6,5.12-1.6h5.46c.25-1.23.81-2.33,1.65-3.29,1.34-1.53,3.19-2.38,5.21-2.38h3.29c1.94,0,3.82.87,5.14,2.38.85.98,1.43,2.09,1.7,3.29h5.55c2.47,0,4.29.61,5.56,1.87,1.32,1.32,1.95,3.2,1.95,5.78v3.01c0,2.06-.52,3.71-1.6,5.04-.1.12-.2.24-.3.36,1.13,1.2,1.76,2.85,1.76,4.69v4.06c0,1.1-.23,2.14-.66,3.05.7,1.43.8,2.98.8,4.16v3.01c0,2.03-.54,3.72-1.6,5.03-.54.7-1.22,1.25-2.04,1.64v14.12c0,1.83-.21,4.5-1.98,6.49-.06.07-.12.13-.18.19-1.48,1.48-3.66,2.23-6.47,2.23ZM130.29,61.4h2.14s0-1.38,0-1.38c-.56.65-1.3,1.14-2.14,1.38ZM82.49,54.46h18.37v-3.6c-.8,1.22-2.19,2.03-3.76,2.03h-1.26c-1.88,0-3.49-1.15-4.17-2.79-.67,1.64-2.28,2.79-4.17,2.79h-1.26c-1.57,0-2.96-.81-3.76-2.03v3.6ZM111.2,39.13h17.83c1.71,0,3.19.95,3.96,2.35.63-1.16,1.76-2.01,3.1-2.27v-.25h-24.88v.17ZM133.79,28.49h2.15v-.12c-4.11-.15-7.13-1.15-9.22-3.02-1.39-1.26-2.35-2.95-2.84-5.04-.32-1.34,0-2.75.85-3.83s2.15-1.71,3.53-1.71h7.82v-.1h-8.38c-1.88,0-3.49-1.15-4.17-2.79-.67,1.64-2.28,2.79-4.17,2.79h-8.17v.1h7.61c1.42,0,2.75.67,3.6,1.8s1.11,2.6.71,3.97c-.6,2.05-1.53,3.62-2.85,4.8-2.09,1.88-5.12,2.88-9.22,3.03v.12h2.22c3.39-.11,5.95-.79,7.21-1.92,1.71-1.54,4.31-1.54,6.02,0,.73.66,2.64,1.78,7.28,1.92ZM82.49,18.55h0s.52-.52.52-.52l-.52.52ZM125.18,9h0,0Z"/><path class="cls-2" d="M210.99,70.4h-10.22s-.07,0-.11,0c-3.51-.08-6.37-.93-8.52-2.51-.14.17-.29.34-.44.49-.09.09-.19.18-.29.27-1.24,1.04-2.84,1.61-4.5,1.61h-7.7c-1.62,0-3.22-.54-4.43-1.5-.37-.28-.7-.6-.99-.94-2.16,1.63-5.05,2.5-8.61,2.58-.04,0-.07,0-.11,0h-10.22c-2.01,0-3.87-.74-5.21-2.09-1.32-1.32-2.02-3.03-2.02-4.93v-3.85c0-1.9.7-3.61,2.01-4.93,1.03-1.03,2.35-1.7,3.81-1.97-1.43-.33-2.71-1.06-3.69-2.14-1.35-1.4-2.06-3.13-2.06-5.04V11.71c0-1.84.69-3.49,2.06-4.91.97-1.06,2.68-2.25,5.45-2.25h6.37c.37,0,.73.02,1.08.07.25-.91.67-1.72,1.27-2.44.08-.1.17-.2.27-.29,1.2-1.21,2.81-1.82,4.8-1.82h39.41c1.99,0,3.6.61,4.8,1.82.09.09.18.19.27.29,1.06,1.28,1.6,2.81,1.6,4.56v28.93c.56.27,1.12.64,1.62,1.14.1.1.19.2.28.3,1.08,1.29,1.6,3.08,1.6,5.47v2.8c0,1.87-.47,3.48-1.4,4.78-.08.11-.16.21-.25.31-.75.87-2.04,1.88-4.17,2.22,1.32.3,2.5.95,3.44,1.89,1.32,1.32,2.02,3.03,2.02,4.93v3.85c0,1.91-.7,3.61-2.02,4.93-1.35,1.35-3.2,2.09-5.21,2.09ZM200.82,61.4h3.48c-1.47-.25-2.8-.93-3.85-1.98-1.32-1.32-2.07-3.14-2.09-5.12h-1.57v3.9c0,1.15.2,2,.56,2.34.14.13.97.8,3.47.86ZM161.55,61.4h3.46c2.5-.07,3.33-.73,3.47-.87.35-.33.55-1.18.55-2.33v-3.9h-1.57c-.02,1.98-.76,3.8-2.09,5.13-1.05,1.05-2.36,1.72-3.82,1.97ZM181.32,61.26h3.25v-12.93c0-2.15,1.5-3.94,3.51-4.39h-10.27c2.01.45,3.51,2.25,3.51,4.39v12.93ZM156.68,43.82h6.83c-2.01-.45-3.51-2.25-3.51-4.39V13.55h-3.32v30.27ZM202.03,33.39h4.03V9.07h-3.87c.35.64.55,1.37.55,2.15v2.17c0,1.3-.55,2.47-1.43,3.29.88.82,1.43,1.99,1.43,3.29v2.17c0,1.28-.53,2.44-1.39,3.25.86.82,1.39,1.97,1.39,3.25v2.31c0,.9-.26,1.73-.71,2.43ZM171.38,33.39h3.96c-.45-.7-.71-1.53-.71-2.43v-2.31c0-1.28.53-2.44,1.39-3.25-.86-.82-1.39-1.97-1.39-3.25v-2.17c0-1.3.55-2.47,1.43-3.29-.88-.82-1.43-1.99-1.43-3.29v-2.17c0-.78.2-1.51.55-2.15h-3.8v24.32ZM208.44,9.07h.01-.01Z"/><path class="cls-3" d="M30.47,68.9h-13.65c-1.5,0-3.19-.15-4.4-1.27-1.55-1.36-1.55-3.32-1.55-3.97v-16.46h-3.51c-.8,0-3.19,0-4.6-1.84-.85-1.04-1.27-2.42-1.27-4.1v-2.17c0-1.42.16-3.41,1.49-4.7.96-1.02,2.4-1.52,4.38-1.52h6.94V7.86c0-1.38.16-3.36,1.51-4.71,1-1,2.47-1.51,4.36-1.51h35.98c2.01,0,3.49.49,4.5,1.51,1.35,1.35,1.51,3.33,1.51,4.71v2.24c0,1.8-.48,3.21-1.43,4.21-.4.45-.88.81-1.43,1.08.35,1.01.41,2.07.41,2.9v2.17c0,1.58-.38,2.9-1.13,3.91,1,1.32,1.13,3.04,1.13,4.28v2.17c0,.75-.08,1.43-.24,2.04h4.59c2.07,0,3.55.5,4.51,1.52,1.34,1.29,1.5,3.29,1.5,4.71v2.17c0,1.68-.43,3.06-1.27,4.1-1.22,1.58-3.23,1.8-4.3,1.83,0,.98-.3,1.98-.64,2.89-.01.04-.03.07-.04.11l-1.69,4.03h2.21c.09,0,.18,0,.27.01,1.64.15,2.74.85,3.42,1.36.11.08.22.18.32.28,1.05,1.05,1.58,2.37,1.58,3.94v3.43c0,1.57-.53,2.89-1.58,3.94-.1.1-.21.19-.32.28-.68.51-1.78,1.21-3.42,1.36-.09,0-.18.01-.27.01h-16.17c-5.17-.15-9.17-1.45-11.96-3.88-.28,1.39-.98,2.26-1.59,2.76-1.28,1.06-2.99,1.18-4.16,1.18ZM16.88,62.9h13.46v-2.4h-2.88c-2.59,0-4.4-1.84-4.4-4.47v-11.83c0-1.66,1.34-3,3-3h7.84c1.66,0,3,1.34,3,3v5.81c.06,4.51.99,7.93,2.68,9.84,1.65,1.86,4.58,2.86,8.69,2.98h15.67s0-2.61,0-2.61h-6.31c-1,0-1.94-.5-2.5-1.34-.56-.84-.66-1.89-.27-2.82l2.89-6.9h-5.02c-.12.17-.32.5-.64,1.12l-2.34,5.7c-.4.99-1.3,1.69-2.36,1.83-1.06.15-2.11-.27-2.77-1.11-1.53-1.94-2.27-5.04-2.18-9.2v-3.3c0-1.66,1.34-3,3-3h18.63v-2.11c0-.08,0-.15,0-.22H28.86c-1.66,0-3-1.34-3-3v-2.1c0-1.66,1.34-3,3-3h24.86v-2.11c0-.08,0-.15,0-.22h-24.86c-1.66,0-3-1.34-3-3v-2.03c0-1.66,1.34-3,3-3h24.86v-2.11c0-.08,0-.15,0-.22h-24.86c-1.66,0-3-1.34-3-3v-2.03c0-1.66,1.34-3,3-3h27.31v-2.18c0-.08,0-.15,0-.22H20.31c0,.07,0,.14,0,.22v28c0,1.66-1.34,3-3,3H7.5c0,.07,0,.14,0,.22v2.11h6.38c1.66,0,3,1.34,3,3v18.7ZM29.06,54.5h1.41c.26,0,.52,0,.76.03-.2-1.39-.31-2.89-.33-4.48v-2.85h-1.84v7.3ZM52.97,48.91s0,0,0,0c0,0,0,0,0,0ZM64.02,41.75s0,0,0,0c0,0,0,0,0,0ZM7.57,41.75h0,0Z"/><path class="cls-3" d="M132.81,68.9h-6.44c-3.61,0-5.94-2.28-5.94-5.8v-.99h-8.9c-1.77,0-3.33-.42-4.62-1.24-.04-.02-.07-.05-.11-.07-.15-.11-.29-.22-.42-.33-1.03.97-2.41,1.51-3.95,1.51h-21.42c-1.76,0-3.3-.63-4.35-1.78-1.08-1.11-1.66-2.47-1.66-3.95V17.45c0-1.45.56-2.75,1.65-3.88,1.05-1.15,2.59-1.78,4.36-1.78h2.31c.41,0,.81.04,1.2.11v-4.32c0-.11,0-.22.02-.33.15-1.32.73-2.55,1.7-3.54.76-.83,2.1-1.79,4.29-1.79h2.38c1.67,0,3.17.66,4.22,1.86.83.95,1.41,2.04,1.65,3.14.05.21.07.43.07.65v4.33c.41-.08.83-.12,1.27-.12h2.31c.47,0,.92.05,1.35.14.18-1.45.65-2.54,1.43-3.32.06-.06.13-.13.2-.18,1.01-.84,2.38-1.25,4.16-1.25h6.8c.03-1.46.51-2.74,1.44-3.81,1.05-1.2,2.5-1.86,4.08-1.86h3.29c1.51,0,2.97.68,4.01,1.86.97,1.11,1.48,2.39,1.51,3.81h6.87c2.06,0,3.53.47,4.5,1.44,1.02,1.02,1.51,2.56,1.51,4.71v3.01c0,1.71-.42,3.06-1.28,4.1-.45.58-1.01.98-1.58,1.25.35.2.68.44,1,.72,1.1.95,1.72,2.38,1.72,4.01v4.06c0,1.15-.31,2.21-.89,3.07.91,1.3,1.03,2.95,1.03,4.14v3.01c0,1.68-.43,3.06-1.28,4.1-.65.85-1.53,1.3-2.37,1.55v15.14c0,1.59-.17,3.88-1.6,5.49-.04.04-.08.09-.12.13-1.19,1.19-3.01,1.79-5.41,1.79ZM126.43,62.9h6.38c.49,0,.82-.04,1.04-.09.05-.25.09-.67.09-1.32v-17.85c0-1.66,1.34-3,3-3h.64v-2.95c0-.08,0-.15,0-.22h-27.88c0,.07,0,.14,0,.22v2.95h19.33c1.66,0,3,1.34,3,3v13.44c0,1.66-1.34,3-3,3h-2.17c-.15,0-.29-.01-.43-.03v2.85ZM120.25,56.11h3.25c.17,0,.34.01.5.04.05-.22.07-.51.07-.89v-5.95c0-.47-.05-.74-.09-.88-.15-.04-.49-.11-1.11-.11h-2.49c.9.52,1.5,1.49,1.5,2.6v2.52c0,1.16-.66,2.17-1.63,2.67ZM110.52,55.98c.27.08.61.12,1,.12h2.69c-.97-.5-1.63-1.51-1.63-2.67v-2.52c0-1.11.6-2.08,1.5-2.6h-2.63c-.49,0-.77.07-.88.11-.04.12-.11.4-.11.95v5.74c0,.41.03.68.06.87ZM80.99,55.96h21.33s.03-.08.05-.13V17.79h-2.25s0,0,0,0v30.6c0,1.66-1.34,3-3,3h-1.26c-1.66,0-3-1.34-3-3V8.07s-.05-.09-.09-.15h-2.24v40.47c0,1.66-1.34,3-3,3h-1.26c-1.66,0-3-1.34-3-3v-30.6h-2.25s0,0,0,0v38.17ZM109.75,41.21h0,0ZM137.51,41.19s0,0,0,0c0,0,0,0,0,0ZM123.5,26.91c.72,0,1.44.26,2.01.77,1.55,1.4,4.42,2.2,8.3,2.31h3.63s0-3.1,0-3.1h-.36c-4.31,0-7.37-.87-9.36-2.66-1.16-1.05-1.96-2.48-2.38-4.27-.21-.89,0-1.83.57-2.55.57-.72,1.43-1.14,2.35-1.14h9.32v-2.95c0-.05,0-.1,0-.15h-9.88c-1.66,0-3-1.34-3-3v-2.67h-2.33v2.67c0,1.66-1.35,3-3,3h-9.67s0,.1,0,.15v2.95h9.11c.95,0,1.83.45,2.4,1.2.57.76.74,1.74.48,2.64-.52,1.78-1.31,3.12-2.41,4.11-1.99,1.79-5.05,2.66-9.36,2.66h-.36v3.1h3.79c3.74-.11,6.59-.91,8.14-2.31.57-.51,1.29-.77,2.01-.77ZM137.76,26.92s.02.02.03.02c0,0-.02-.02-.03-.02ZM83.37,17.83h0,0ZM125.18,7.5h0,0Z"/><path class="cls-3" d="M210.99,68.9h-10.22c-3.76-.09-6.62-1.07-8.57-2.92-.15-.15-.3-.29-.44-.45-.24.69-.62,1.3-1.12,1.79-.06.06-.13.12-.2.18-.97.81-2.23,1.26-3.54,1.26h-7.7c-1.29,0-2.57-.43-3.52-1.19-.72-.54-1.24-1.26-1.55-2.11-.16.18-.33.35-.5.51-1.96,1.85-4.82,2.84-8.51,2.92h-10.29c-1.61,0-3.09-.58-4.15-1.65-1.05-1.05-1.58-2.35-1.58-3.87v-3.85c0-1.52.53-2.82,1.58-3.87,1.06-1.06,2.54-1.65,4.15-1.65h5.12v-1.62c0-.36.04-.71.11-1.06h-4.87c-1.75,0-3.26-.64-4.36-1.86-1.08-1.11-1.65-2.5-1.65-4.01V11.71c0-1.45.56-2.75,1.65-3.88.76-.83,2.12-1.78,4.36-1.78h6.37c.83,0,1.61.15,2.32.45.02-.92.21-2.19,1.18-3.36.06-.07.12-.13.18-.2,1.37-1.38,3.15-1.38,3.74-1.38h39.41c.59,0,2.37,0,3.74,1.38.06.06.12.13.18.2.84,1.01,1.25,2.19,1.25,3.6v29.05c0,.31-.02.6-.06.89.76.2,1.5.56,2.12,1.19.06.06.13.13.18.2.84,1.01,1.25,2.49,1.25,4.51v2.8c0,1.56-.38,2.87-1.12,3.91-.05.07-.11.14-.16.21-.71.83-2.08,1.82-4.59,1.82h-5.43c.07.35.1.7.1,1.06v1.62h5.12c1.61,0,3.09.59,4.15,1.65,1.05,1.05,1.58,2.35,1.58,3.87v3.85c0,1.52-.53,2.82-1.58,3.87-1.06,1.06-2.54,1.65-4.15,1.65ZM195.29,52.79v5.4c0,1.63.34,2.78,1.02,3.43.82.77,2.42,1.23,4.52,1.28h9.88v-2.89h-5.12c-1.57,0-3.02-.59-4.08-1.66-1.06-1.06-1.65-2.53-1.65-4.15v-1.41h-4.57ZM155.11,62.89h9.95c2.03-.04,3.63-.5,4.45-1.27.68-.64,1.02-1.79,1.02-3.42v-5.4h-4.57v1.41c0,1.62-.59,3.09-1.65,4.15-1.07,1.07-2.48,1.65-4.08,1.65h-5.12v2.88ZM179.82,62.76h6.25v-14.43c0-1.66,1.34-3,3-3h21.99v-2.74c0-.05,0-.1,0-.15h-46.56c-1.66,0-3-1.34-3-3V12.06h-6.31s0,0,0,0v33.27h21.64c1.66,0,3,1.34,3,3v14.43ZM169.88,34.89h37.68V7.57s-37.68,0-37.68,0v27.32ZM208.58,7.58h0,0ZM198.24,33.96h-19.11c-1.66,0-3-1.34-3-3v-2.31c0-1.66,1.34-3,3-3h19.11c1.66,0,3,1.34,3,3v2.31c0,1.66-1.34,3-3,3ZM198.24,25.14h-19.11c-1.66,0-3-1.34-3-3v-2.17c0-1.66,1.34-3,3-3h19.11c1.66,0,3,1.34,3,3v2.17c0,1.66-1.34,3-3,3ZM198.24,16.39h-19.11c-1.66,0-3-1.34-3-3v-2.17c0-1.66,1.34-3,3-3h19.11c1.66,0,3,1.34,3,3v2.17c0,1.66-1.34,3-3,3Z"/><path class="cls-2" d="M5.13,43.49c-.42-.49-.63-1.26-.63-2.24v-2.17c0-1.33.21-2.24.63-2.59.35-.42,1.12-.63,2.24-.63h9.94V7.86c0-1.33.21-2.17.63-2.59s1.19-.63,2.24-.63h35.98c1.19,0,1.96.21,2.38.63.42.42.63,1.26.63,2.59v2.24c0,.98-.21,1.75-.63,2.17-.42.49-1.19.77-2.38.77h-27.3v2.03h24.85c1.19,0,1.96.21,2.38.63s.63,1.26.63,2.59v2.17c0,.98-.21,1.75-.63,2.24s-1.19.7-2.38.7h-24.85v2.03h24.85c1.19,0,1.96.21,2.38.63s.63,1.26.63,2.59v2.17c0,1.05-.21,1.75-.63,2.24s-1.19.7-2.38.7h-24.85v2.1h35.21c1.19,0,2.03.21,2.38.63.42.35.63,1.26.63,2.59v2.17c0,.98-.21,1.75-.63,2.24-.35.49-1.19.7-2.38.7h-18.62v3.36c-.07,3.5.49,5.95,1.54,7.28l2.38-5.81c.56-1.12,1.05-1.89,1.47-2.24.42-.42,1.05-.63,1.89-.63h6.72c1.12,0,1.75.21,1.96.63.21.35.07,1.12-.35,2.24l-3.43,8.19h6.72c.77.07,1.33.35,1.89.77.49.49.7,1.05.7,1.82v3.43c0,.77-.21,1.33-.7,1.82-.56.42-1.12.7-1.89.77h-16.17c-4.97-.14-8.61-1.47-10.85-3.99-2.17-2.45-3.36-6.44-3.43-11.83v-5.81h-7.84v11.83c0,.98.49,1.47,1.4,1.47h3.01c1.05,0,1.82.21,2.24.56.42.35.63,1.12.63,2.17v3.43c0,.84-.21,1.4-.63,1.75s-1.19.49-2.24.49h-13.65c-1.19,0-2.03-.14-2.38-.49-.42-.35-.56-.91-.56-1.75v-19.46h-6.51c-1.12,0-1.89-.21-2.24-.7Z"/><path class="cls-2" d="M85.41,15.63c.56.56.84,1.12.84,1.82v30.94h1.26V7.58c.07-.63.35-1.26.91-1.82.49-.56,1.19-.84,2.1-.84h2.38c.77,0,1.47.28,1.96.84s.84,1.19.98,1.82v40.81h1.26v-30.94c.07-.7.35-1.26.84-1.82.56-.56,1.26-.84,2.17-.84h2.31c.84,0,1.54.28,2.1.84s.84,1.12.84,1.82v38.71c-.14.77-.42,1.4-.91,1.96-.49.56-1.19.84-2.03.84h-21.42c-.91,0-1.68-.28-2.17-.84-.56-.56-.84-1.19-.84-1.89V17.45c0-.7.28-1.26.84-1.82.49-.56,1.26-.84,2.17-.84h2.31c.84,0,1.54.28,2.1.84ZM125.18,4.5c.63,0,1.26.28,1.75.84s.77,1.19.77,1.96v2.87h9.87c1.19,0,2.03.21,2.38.56.42.42.63,1.33.63,2.59v3.01c0,1.05-.21,1.75-.63,2.24-.35.49-1.19.7-2.38.7h-9.31c.28,1.19.77,2.1,1.47,2.73,1.4,1.26,3.85,1.89,7.35,1.89h.77c.77.07,1.33.28,1.89.77.49.42.7,1.05.7,1.75v4.06c0,.7-.21,1.33-.7,1.75-.56.49-1.12.7-1.89.77h-4.13c-4.69-.14-8.12-1.19-10.22-3.08-2.1,1.89-5.46,2.94-10.15,3.08h-4.2c-.7-.07-1.33-.28-1.82-.77-.49-.42-.77-1.05-.77-1.75v-4.06c0-.7.28-1.33.77-1.75.49-.49,1.12-.7,1.82-.77h.77c3.5,0,5.95-.63,7.35-1.89.7-.63,1.19-1.54,1.54-2.73h-9.24c-1.12,0-1.82-.21-2.24-.7-.42-.49-.63-1.19-.63-2.24v-3.01c0-1.26.21-2.17.63-2.59.42-.35,1.12-.56,2.24-.56h9.8v-2.87c0-.77.21-1.4.7-1.96s1.12-.84,1.82-.84h3.29ZM107.33,42.93c-.42-.49-.63-1.26-.63-2.24v-3.01c0-1.33.21-2.17.63-2.59s1.12-.63,2.24-.63h28c1.19,0,2.03.21,2.38.63.42.42.63,1.26.63,2.59v3.01c0,.98-.21,1.75-.63,2.24-.35.49-1.19.7-2.38.7h-.63v17.85c0,1.75-.28,2.87-.84,3.5-.56.56-1.68.91-3.29.91h-6.44c-1.96,0-2.94-.98-2.94-2.8v-3.08c0-.35,0-.63.07-.91h-11.97c-1.26,0-2.24-.28-3.01-.77-.7-.49-1.05-1.54-1.05-3.22v-5.74c0-1.47.35-2.52,1.05-3.15.7-.63,1.68-.91,2.94-.91h11.41c1.47,0,2.52.28,3.22.91.63.63.98,1.61.98,3.08v5.95c0,.77-.07,1.33-.21,1.82h2.17v-13.44h-19.46c-1.12,0-1.82-.21-2.24-.7ZM118.88,53.44v-2.52h-3.29v2.52h3.29Z"/><path class="cls-2" d="M171.01,49.79c.7.07,1.33.28,1.75.77.49.49.77,1.12.77,1.82v5.81c0,2.45-.63,4.34-1.96,5.6-1.33,1.26-3.5,2.03-6.51,2.1h-10.22c-.84,0-1.54-.28-2.03-.77-.49-.49-.7-1.05-.7-1.75v-3.85c0-.7.21-1.26.7-1.75.49-.49,1.19-.77,2.03-.77h5.39c.84,0,1.47-.28,1.96-.77.49-.49.77-1.19.77-2.03v-1.82c0-.7.28-1.33.77-1.82s1.12-.7,1.82-.77h5.46ZM189.07,48.32v15.26c0,.7-.21,1.26-.56,1.61-.42.35-.98.56-1.61.56h-7.7c-.63,0-1.26-.21-1.68-.56-.49-.35-.7-.91-.7-1.61v-15.26h-21.63c-.98,0-1.68-.35-2.17-.91-.56-.56-.84-1.19-.84-1.96V11.71c0-.7.28-1.26.84-1.82.49-.56,1.19-.84,2.17-.84h6.37c.84,0,1.54.28,2.1.84.56.56.84,1.12.84,1.82v27.72h46.69c1.12,0,1.89.14,2.31.56.35.42.56,1.33.56,2.59v2.8c0,.98-.21,1.68-.56,2.17-.42.49-1.19.77-2.31.77h-22.12ZM210.01,5.06c.35.42.56.91.56,1.68v29.05c0,.7-.21,1.26-.56,1.61-.35.35-.84.49-1.61.49h-39.41c-.77,0-1.26-.14-1.61-.49-.35-.35-.49-.91-.49-1.61V6.74c0-.77.14-1.26.49-1.68.35-.35.84-.49,1.61-.49h39.41c.77,0,1.26.14,1.61.49ZM198.24,11.22h-19.11v2.17h19.11v-2.17ZM198.24,19.97h-19.11v2.17h19.11v-2.17ZM198.24,28.65h-19.11v2.31h19.11v-2.31ZM202.09,50.56c.49.49.77,1.12.77,1.82v1.82c0,.84.28,1.54.77,2.03.49.49,1.19.77,1.96.77h5.39c.84,0,1.54.28,2.03.77s.7,1.05.7,1.75v3.85c0,.7-.21,1.26-.7,1.75s-1.19.77-2.03.77h-10.22c-3.01-.07-5.18-.84-6.51-2.1-1.33-1.26-1.96-3.15-1.96-5.6v-5.81c0-.7.28-1.33.77-1.82.42-.49,1.05-.7,1.75-.77h5.46c.7.07,1.33.28,1.82.77Z"/></g></svg>