<?xml version="1.0" encoding="UTF-8"?><svg id="_レイヤー_2" xmlns="http://www.w3.org/2000/svg" viewBox="0 0 217.39 70.96"><defs><style>.cls-1,.cls-2,.cls-3{stroke-width:0px;}.cls-2{fill:#198caa;}.cls-3{fill:#fff;}</style></defs><g id="_レイヤー_4"><path class="cls-1" d="M26.2,15.63c.35-.07.7-.07,1.05-.07h4.48v-7.56c0-.7.28-1.33.77-1.89.49-.56,1.12-.91,1.75-.91h3.71c.77,0,1.33.35,1.89.91.49.56.7,1.19.7,1.89v7.56h22.89c1.19,0,2.03.21,2.45.63.35.42.56,1.26.56,2.59v6.02c0,.98-.21,1.75-.56,2.17-.42.49-1.26.77-2.45.77h-22.89v6.44h21c1.19,0,1.96.14,2.38.56.42.42.63,1.33.63,2.59v5.74c0,1.05-.21,1.75-.63,2.24s-1.19.7-2.38.7h-5.95v8.4h7.84c1.19,0,2.03.21,2.45.56.35.42.56,1.33.56,2.59v5.81c0,.98-.21,1.68-.56,2.17-.42.49-1.26.77-2.45.77h-29.89c-1.12,0-1.89-.28-2.31-.7-.21-.28-.35-.63-.42-1.12-1.4,1.19-2.66,1.82-3.78,1.82-.77-.07-1.33-.35-1.82-.77-.56-.49-.77-1.05-.77-1.82v-7.63c0-.7.21-1.33.56-1.68.42-.42,1.19-1.26,2.38-2.59,1.26-1.33,2.24-3.08,3.15-5.32.84-2.24,1.26-5.6,1.19-9.94v-8.82h-4.48c-1.12,0-1.89-.28-2.24-.77-.42-.49-.63-1.19-.63-2.17-.49,1.61-1.12,3.15-1.75,4.48v34.3c0,1.12-.14,1.82-.56,2.17-.35.35-.98.56-1.82.63h-4.62c-.77,0-1.4-.21-1.82-.56-.42-.42-.63-1.12-.63-2.24v-21.28c-1.68,1.61-3.57,2.31-5.81,2.24-1.05.07-1.75-.07-2.24-.56-.42-.42-.63-1.33-.63-2.73v-5.6c0-1.19.21-2.1.7-2.87.49-.7,1.19-1.26,2.17-1.61,3.08-.42,5.6-3.22,7.49-8.47,1.89-5.18,2.8-10.15,2.87-14.77.07-.7.35-1.33.84-1.82.56-.49,1.19-.77,1.89-.77h3.36c.84,0,1.47.28,1.96.77.49.49.77,1.12.84,1.82v3.5c-.07,1.47-.21,2.87-.42,4.2ZM37.75,54.42h8.75v-8.4h-6.37c-.42,3.01-1.26,5.74-2.38,8.4Z"/><path class="cls-1" d="M107.65,26.41c-.49.63-1.61.91-3.29.91h-8.05c-1.96,0-2.94-.91-2.94-2.8v-1.89c0-1.96.98-2.94,2.94-2.94h1.61v-4.55h-3.64c-.21,4.27-1.4,7.35-3.57,9.38-2.17,1.96-5.18,3.01-9.1,3.01h-1.4c-.77-.07-1.33-.28-1.89-.77-.49-.42-.7-1.05-.7-1.82v-2.73c0-.77.21-1.33.7-1.82.56-.49,1.12-.77,1.89-.77h.49c.91,0,1.75-.35,2.45-.91.7-.56,1.12-1.75,1.26-3.57h-3.78c-1.19,0-2.03-.21-2.45-.56-.42-.35-.63-.91-.63-1.75v-2.1c0-1.12.21-1.82.63-2.24.42-.35,1.26-.49,2.45-.49h3.99v-.56c0-.77.28-1.4.77-2.03s1.12-.91,1.75-.91h4.55c.7,0,1.33.28,1.82.91s.77,1.26.77,2.03v.56h11.13c1.26,0,2.1.14,2.52.49.35.42.56,1.12.56,2.24v12.04c0,1.82-.28,3.08-.84,3.64ZM132.15,29.28c.35.35.56.91.56,1.68v25.76c0,.7-.21,1.26-.56,1.61-.28.35-.84.56-1.61.56h-1.26l2.1,4.69c.35,1.19.21,1.96-.28,2.31-.56.42-1.33.56-2.45.56h-6.65c-1.05,0-1.75-.21-2.03-.63-.35-.49-.7-1.26-1.19-2.38l-2.03-4.55h-16.24l-2.03,4.55c-.49,1.12-.84,1.89-1.19,2.38-.28.42-.98.63-2.03.63h-6.65c-1.12,0-1.89-.14-2.45-.56-.49-.35-.63-1.12-.28-2.31l2.1-4.69h-1.19c-.77,0-1.33-.21-1.61-.56-.35-.35-.56-.91-.56-1.61v-25.76c0-.77.21-1.33.56-1.68.28-.35.84-.56,1.61-.56h43.75c.77,0,1.33.21,1.61.56ZM120.39,36.7v-1.75h-23.45v1.75h23.45ZM120.39,44.47v-1.68h-23.45v1.68h23.45ZM120.39,52.38v-1.82h-23.45v1.82h23.45ZM114.72,27.32c-1.26,0-2.31-.28-3.01-.77-.7-.49-1.12-1.61-1.12-3.36v-13.23c0-1.54.35-2.59,1.05-3.22.77-.63,1.75-.98,3.01-.98h21c1.47,0,2.52.35,3.15.91.7.63.98,1.68.98,3.22v13.44c0,1.61-.28,2.66-.91,3.22-.63.49-1.68.77-3.15.77h-21ZM129,19.76v-6.58h-7.63v6.58h7.63Z"/><path class="cls-1" d="M169.83,50.29c.7.07,1.33.28,1.75.77.49.49.77,1.12.77,1.82v5.81c0,2.45-.63,4.34-1.96,5.6-1.33,1.26-3.5,2.03-6.51,2.1h-10.22c-.84,0-1.54-.28-2.03-.77-.49-.49-.7-1.05-.7-1.75v-3.85c0-.7.21-1.26.7-1.75.49-.49,1.19-.77,2.03-.77h5.39c.84,0,1.47-.28,1.96-.77.49-.49.77-1.19.77-2.03v-1.82c0-.7.28-1.33.77-1.82s1.12-.7,1.82-.77h5.46ZM187.9,48.81v15.26c0,.7-.21,1.26-.56,1.61-.42.35-.98.56-1.61.56h-7.7c-.63,0-1.26-.21-1.68-.56-.49-.35-.7-.91-.7-1.61v-15.26h-21.63c-.98,0-1.68-.35-2.17-.91-.56-.56-.84-1.19-.84-1.96V12.2c0-.7.28-1.26.84-1.82.49-.56,1.19-.84,2.17-.84h6.37c.84,0,1.54.28,2.1.84.56.56.84,1.12.84,1.82v27.72h46.69c1.12,0,1.89.14,2.31.56.35.42.56,1.33.56,2.59v2.8c0,.98-.21,1.68-.56,2.17-.42.49-1.19.77-2.31.77h-22.12ZM208.83,5.55c.35.42.56.91.56,1.68v29.05c0,.7-.21,1.26-.56,1.61-.35.35-.84.49-1.61.49h-39.41c-.77,0-1.26-.14-1.61-.49-.35-.35-.49-.91-.49-1.61V7.23c0-.77.14-1.26.49-1.68.35-.35.84-.49,1.61-.49h39.41c.77,0,1.26.14,1.61.49ZM197.07,11.71h-19.11v2.17h19.11v-2.17ZM197.07,20.46h-19.11v2.17h19.11v-2.17ZM197.07,29.14h-19.11v2.31h19.11v-2.31ZM200.92,51.05c.49.49.77,1.12.77,1.82v1.82c0,.84.28,1.54.77,2.03.49.49,1.19.77,1.96.77h5.39c.84,0,1.54.28,2.03.77s.7,1.05.7,1.75v3.85c0,.7-.21,1.26-.7,1.75s-1.19.77-2.03.77h-10.22c-3.01-.07-5.18-.84-6.51-2.1-1.33-1.26-1.96-3.15-1.96-5.6v-5.81c0-.7.28-1.33.77-1.82.42-.49,1.05-.7,1.75-.77h5.46c.7.07,1.33.28,1.82.77Z"/><path class="cls-2" d="M20.25,70.89h-4.62c-1.81,0-3.44-.55-4.7-1.6-.1-.09-.2-.18-.3-.27-1.95-1.95-1.95-4.57-1.95-5.43v-14.57c-.4.03-.81.04-1.22.04-1.06.06-3.55.08-5.51-1.88-1.75-1.75-1.95-4.21-1.95-5.91v-5.6c0-2.07.46-3.81,1.41-5.29.03-.05.07-.11.11-.16,1.06-1.52,2.53-2.62,4.35-3.27.29-.1.59-.18.9-.22.95-.13,2.47-1.65,3.87-5.54,1.67-4.57,2.54-9.04,2.61-13.32,0-.13,0-.25.02-.38.18-1.76.92-3.33,2.14-4.55.07-.07.15-.14.23-.21,1.41-1.23,3.08-1.88,4.85-1.88h3.36c1.99,0,3.77.72,5.14,2.08.06.06.13.13.19.19,1.36-1.54,3.22-2.42,5.11-2.42h3.71c1.88,0,3.59.75,5.07,2.23.07.07.14.15.21.22,1.19,1.36,1.81,3.03,1.81,4.85v3.06h18.39c2.48,0,4.32.64,5.63,1.95.1.1.19.2.28.31,1.09,1.31,1.6,3.05,1.6,5.47v6.02c0,2.04-.55,3.79-1.6,5.05-.5.59-1.23,1.22-2.26,1.68.01.01.02.02.04.04,1.3,1.3,1.94,3.19,1.94,5.76v5.74c0,2.13-.56,3.82-1.71,5.17-.75.88-1.65,1.42-2.52,1.75,1.61.18,2.93.69,3.94,1.52.21.18.41.37.58.58,1.08,1.29,1.6,3.08,1.6,5.47v5.81c0,1.88-.47,3.48-1.4,4.78-.08.11-.16.22-.25.32-.92,1.07-2.68,2.34-5.86,2.34h-29.89c-1.39,0-2.51-.26-3.4-.63-1.18.48-2.36.72-3.52.61-1.01-.09-1.95-.36-2.81-.8-.9.48-1.97.77-3.2.88-.12.01-.25.02-.38.02ZM17.68,61.89h.45V29.28c0-.67.15-1.32.43-1.93.61-1.3,1.14-2.63,1.51-3.87.65-2.13,2.75-3.48,4.97-3.14,1.66.25,3,1.39,3.56,2.89h3.13c2.18,0,3.99,1.55,4.41,3.6.42-2.05,2.23-3.6,4.41-3.6h21.4v-3.18h-21.4c-2.18,0-3.99-1.55-4.41-3.6-.42,2.05-2.23,3.6-4.41,3.6h-4.48c-.09,0-.18,0-.26,0-1.42.25-2.86-.19-3.9-1.18-1.06-1.02-1.56-2.49-1.33-3.95.18-1.13.3-2.34.37-3.61v-.84c-.32,4.51-1.34,9.12-3.03,13.76-2.3,6.39-5.69,10.16-10.08,11.2,0,.06,0,.13,0,.21v4.15c.37-.16.71-.4,1.07-.74,1.3-1.25,3.22-1.6,4.88-.89s2.73,2.34,2.73,4.14v19.58ZM34.44,61.82h27.52v-2.9h-6.35c-2.49,0-4.5-2.01-4.5-4.5v-8.4c0-2.49,2.01-4.5,4.5-4.5h4.46v-2.83h-19.51c-2.05,0-3.77-1.37-4.32-3.24v1.12c.08,4.8-.42,8.7-1.48,11.52-.01.04-.03.08-.04.11-1.17,2.89-2.45,5.01-4,6.67-.76.85-1.32,1.47-1.75,1.94v3.6c1.08-.49,2.33-.55,3.47-.11.82.31,1.51.85,2.02,1.53ZM28.2,57.59s0,0,0,0c0,0,0,0,0,0ZM27.13,32.24v8.31c.08-1.08.13-2.38.1-3.92v-4.39s-.07,0-.1,0ZM27.09,20.04s0,0,0,0c0,0,0,0,0,0ZM46.5,58.92h-8.75c-1.51,0-2.92-.76-3.75-2.01-.83-1.26-.98-2.85-.4-4.24,1.08-2.56,1.73-4.87,2.07-7.28.31-2.22,2.21-3.88,4.46-3.88h6.37c2.49,0,4.5,2.01,4.5,4.5v8.4c0,2.49-2.01,4.5-4.5,4.5Z"/><path class="cls-2" d="M128.65,70.96h-6.65c-3.25,0-4.9-1.37-5.72-2.56-.59-.84-1.05-1.84-1.62-3.15l-.83-1.85h-10.4l-.84,1.88c-.56,1.28-1.01,2.27-1.61,3.12-.82,1.19-2.47,2.56-5.72,2.56h-6.65c-1.49,0-3.42-.17-5.15-1.46-.87-.65-3.17-2.86-1.9-7.18.06-.2.13-.39.21-.57l.14-.31s-.05-.05-.07-.08c-1.11-1.2-1.72-2.83-1.72-4.63v-24.69c-.11,0-.21,0-.32-.02-1.74-.16-3.19-.77-4.45-1.87-1.43-1.22-2.24-3.08-2.24-5.21v-2.73c0-1.81.57-3.37,1.68-4.64-.89-.93-1.75-2.43-1.75-4.74v-2.1c0-.86,0-3.47,1.95-5.42.1-.1.2-.19.3-.28,1.63-1.36,3.7-1.53,5.33-1.53h.62c.18-.29.37-.57.59-.85,1.31-1.68,3.24-2.65,5.3-2.65h4.55c2.14,0,4.05.94,5.37,2.65.22.28.41.56.59.85h7.76c.86,0,1.85.05,2.82.28.13-.13.26-.26.4-.39.05-.05.11-.09.16-.14,1.62-1.33,3.59-2,5.86-2h21c3.17,0,5.09,1.11,6.14,2.05,2.49,2.25,2.49,5.51,2.49,6.58v13.44c0,1.1,0,4.43-2.42,6.58-.07.07-.15.13-.23.19-1.16.9-2.64,1.45-4.42,1.64v24.98c0,1.8-.61,3.43-1.72,4.63-.04.04-.08.09-.12.13l.12.26c.08.18.15.37.21.57,1.27,4.32-1.02,6.53-1.9,7.18h0c-1.73,1.29-3.66,1.46-5.15,1.46ZM123.65,63.23s0,0,0,0c0,.01.01.02.02.03,0-.01-.01-.02-.02-.03ZM123.04,61.96h2.68l-.55-1.22c-.62-1.39-.5-3.01.33-4.29.63-.97,1.61-1.65,2.71-1.92v-21.3h-3.67c.22.53.34,1.12.34,1.73v1.75c0,1.17-.45,2.24-1.19,3.05.74.8,1.19,1.87,1.19,3.05v1.68c0,1.17-.45,2.24-1.19,3.04.74.8,1.19,1.87,1.19,3.04v1.82c0,2.36-1.81,4.29-4.12,4.48.03.06.06.13.09.19l2.03,4.55c.04.09.09.21.15.35ZM91.54,61.96h2.68c.05-.12.1-.23.14-.31l2.04-4.58c.03-.07.06-.13.09-.2-2.28-.22-4.06-2.14-4.06-4.48v-1.82c0-1.17.45-2.24,1.19-3.04-.74-.8-1.19-1.87-1.19-3.04v-1.68c0-1.17.45-2.24,1.19-3.05-.74-.8-1.19-1.87-1.19-3.05v-1.75c0-.61.12-1.2.34-1.73h-3.67v21.32c1.07.28,2.02.95,2.64,1.91.83,1.28.95,2.89.33,4.29l-.55,1.22ZM132.3,22.82h2.98v-12.56h-2.86c.67.79,1.08,1.81,1.08,2.92v6.58c0,1.18-.46,2.26-1.2,3.06ZM115.09,22.82h2.98c-.75-.8-1.2-1.88-1.2-3.06v-6.58c0-1.12.41-2.14,1.08-2.92h-2.86v12.56ZM101.15,22.82h2.84v-10.32h-2.43c.54.74.86,1.65.86,2.64v4.55c0,1.22-.48,2.32-1.27,3.13ZM87.25,11.65c.16.13.32.28.46.43.85.92,1.28,2.15,1.18,3.4-.24,3.15-1.2,5.36-2.94,6.74-.04.03-.08.07-.12.1.72-.29,1.34-.67,1.86-1.14,1.22-1.14,1.95-3.27,2.09-6.26.07-1.37.74-2.57,1.75-3.35-.82-.63-1.41-1.53-1.65-2.57h-.88c-.25,1.08-.88,2.02-1.76,2.65Z"/><path class="cls-2" d="M209.81,70.89h-10.22s-.07,0-.11,0c-3.51-.08-6.37-.93-8.52-2.51-.14.17-.29.34-.44.49-.09.09-.19.18-.29.27-1.24,1.04-2.84,1.61-4.5,1.61h-7.7c-1.62,0-3.22-.54-4.43-1.5-.37-.28-.7-.6-.99-.94-2.16,1.63-5.05,2.5-8.61,2.58-.04,0-.07,0-.11,0h-10.22c-2.01,0-3.87-.74-5.21-2.09-1.32-1.32-2.02-3.03-2.02-4.93v-3.85c0-1.9.7-3.61,2.01-4.93,1.03-1.03,2.35-1.7,3.81-1.97-1.43-.33-2.71-1.06-3.69-2.14-1.35-1.4-2.06-3.13-2.06-5.04V12.2c0-1.84.69-3.49,2.06-4.91.97-1.06,2.68-2.25,5.45-2.25h6.37c.37,0,.73.02,1.08.07.25-.91.67-1.72,1.27-2.44.08-.1.17-.2.27-.29,1.2-1.21,2.81-1.82,4.8-1.82h39.41c1.99,0,3.6.61,4.8,1.82.09.09.18.19.27.29,1.06,1.28,1.6,2.81,1.6,4.56v28.93c.56.27,1.12.64,1.62,1.14.1.1.19.2.28.3,1.08,1.29,1.6,3.08,1.6,5.47v2.8c0,1.87-.47,3.48-1.4,4.78-.08.11-.16.21-.25.31-.75.87-2.04,1.88-4.17,2.22,1.32.3,2.5.95,3.44,1.89,1.32,1.32,2.02,3.03,2.02,4.93v3.85c0,1.91-.7,3.61-2.02,4.93-1.35,1.35-3.2,2.09-5.21,2.09ZM199.64,61.89h3.48c-1.47-.25-2.8-.93-3.85-1.98-1.32-1.32-2.07-3.14-2.09-5.12h-1.57v3.9c0,1.15.2,2,.56,2.34.14.13.97.8,3.47.86ZM160.37,61.89h3.46c2.5-.07,3.33-.73,3.47-.87.35-.33.55-1.18.55-2.33v-3.9h-1.57c-.02,1.98-.76,3.8-2.09,5.13-1.05,1.05-2.36,1.72-3.82,1.97ZM180.15,61.75h3.25v-12.93c0-2.15,1.5-3.94,3.51-4.39h-10.27c2.01.45,3.51,2.25,3.51,4.39v12.93ZM155.5,44.31h6.83c-2.01-.45-3.51-2.25-3.51-4.39V14.04h-3.32v30.27ZM200.86,33.88h4.03V9.56h-3.87c.35.64.55,1.37.55,2.15v2.17c0,1.3-.55,2.47-1.43,3.29.88.82,1.43,1.99,1.43,3.29v2.17c0,1.28-.53,2.44-1.39,3.25.86.82,1.39,1.97,1.39,3.25v2.31c0,.9-.26,1.73-.71,2.43ZM170.2,33.88h3.96c-.45-.7-.71-1.53-.71-2.43v-2.31c0-1.28.53-2.44,1.39-3.25-.86-.82-1.39-1.97-1.39-3.25v-2.17c0-1.3.55-2.47,1.43-3.29-.88-.82-1.43-1.99-1.43-3.29v-2.17c0-.78.2-1.51.55-2.15h-3.8v24.32ZM207.27,9.56h.01-.01Z"/><path class="cls-3" d="M20.25,69.39h-4.62c-1.46,0-2.75-.43-3.74-1.25-.07-.06-.13-.12-.2-.18-1.51-1.51-1.51-3.66-1.51-4.36v-16.31c-.88.2-1.8.3-2.76.28-1.25.07-3.01-.04-4.42-1.44-1.35-1.35-1.51-3.42-1.51-4.85v-5.6c0-1.81.37-3.23,1.17-4.48.02-.04.05-.07.07-.11.88-1.26,2.1-2.17,3.62-2.72.19-.07.4-.12.6-.15,2.37-.33,4.07-3.72,5.07-6.52,1.72-4.72,2.63-9.36,2.69-13.8,0-.09,0-.17.01-.25.14-1.41.73-2.67,1.7-3.64.05-.05.1-.1.15-.14,1.13-.99,2.47-1.51,3.86-1.51h3.36c1.59,0,3,.57,4.08,1.64.54.54.97,1.18,1.26,1.88.25-.61.62-1.19,1.08-1.72,1.08-1.23,2.54-1.94,4.01-1.94h3.71c2.22,0,3.57,1.35,4.01,1.79.05.05.09.1.14.15.94,1.08,1.44,2.42,1.44,3.87v4.56h19.89c2.06,0,3.55.49,4.57,1.51.07.07.13.13.19.2.86,1.03,1.25,2.46,1.25,4.51v6.02c0,1.69-.43,3.1-1.25,4.09-.74.86-2.14,1.85-4.76,1.85h-19.89v.44h18c1.52,0,3.24.17,4.51,1.44,1.01,1.01,1.5,2.55,1.5,4.71v5.74c0,1.76-.44,3.13-1.35,4.19-1.5,1.75-3.88,1.75-4.66,1.75h-2.95v2.4h4.84c1.92,0,3.35.41,4.37,1.25.14.12.27.25.39.39.84,1.01,1.25,2.49,1.25,4.51v5.81c0,1.56-.38,2.87-1.12,3.91-.05.07-.11.14-.17.21-.71.83-2.11,1.82-4.73,1.82h-29.89c-1.5,0-2.59-.35-3.38-.78-1.16.57-2.29.87-3.41.77-1.11-.1-2.09-.45-2.98-1.07-.83.65-1.93,1.03-3.29,1.15-.08,0-.17.01-.25.01ZM16.18,63.39h3.45V29.28c0-.44.1-.88.29-1.28.64-1.36,1.19-2.77,1.59-4.07.43-1.42,1.84-2.31,3.31-2.09,1.45.22,2.53,1.45,2.56,2.91h4.35c1.66,0,3,1.34,3,3v8.82c.07,4.64-.39,8.35-1.38,11-1.14,2.82-2.33,4.8-3.78,6.33-.98,1.1-1.65,1.84-2.11,2.32v6.98c.3-.14.77-.41,1.42-.97.83-.71,1.99-.91,3.01-.52.77.29,1.38.89,1.69,1.62h29.87v-5.75c0-.05,0-.1,0-.15h-7.85c-1.66,0-3-1.34-3-3v-8.4c0-1.66,1.34-3,3-3h5.96v-5.68c0-.05,0-.1,0-.15h-21.01c-1.66,0-3-1.34-3-3v-6.44c0-1.66,1.34-3,3-3h22.9v-5.96c0-.08,0-.15,0-.22h-22.9c-1.66,0-3-1.34-3-3v-7.36h-2.82v7.36c0,1.66-1.34,3-3,3h-4.48c-.16,0-.39,0-.46.01-.96.19-1.96-.1-2.67-.78-.71-.68-1.04-1.66-.88-2.63.19-1.19.32-2.47.38-3.8v-3.02h-2.9c-.12,5-1.14,10.18-3.04,15.39-2.2,6.12-5.4,9.61-9.5,10.35-.25.12-.39.25-.48.37-.07.13-.2.44-.2,1.21v5.6c0,.11,0,.2,0,.29,1.44.03,2.53-.39,3.6-1.41.87-.83,2.14-1.07,3.25-.59,1.11.47,1.82,1.56,1.82,2.76v21.08ZM27.14,56.53s0,0,0,0c0,0,0,0,0,0ZM25.63,30.59v18.69c.77-.97,1.45-2.21,2.13-3.9.47-1.26,1.05-3.87.97-8.76v-5.87h-1.48c-.61,0-1.14-.06-1.62-.15ZM27.45,25.23s0,0,0,0c0,0,0,0,0,0ZM46.5,57.42h-8.75c-1,0-1.94-.5-2.5-1.34-.56-.84-.66-1.9-.26-2.82,1.13-2.68,1.82-5.11,2.17-7.65.21-1.48,1.47-2.59,2.97-2.59h6.37c1.66,0,3,1.34,3,3v8.4c0,1.66-1.34,3-3,3ZM42.02,51.42h1.49v-2.4h-.87c-.18.8-.38,1.6-.62,2.4Z"/><path class="cls-3" d="M128.65,69.46h-6.65c-2.11,0-3.62-.65-4.49-1.92-.52-.73-.92-1.62-1.47-2.89l-1.23-2.75h-12.35l-1.24,2.77c-.55,1.27-.96,2.17-1.49,2.9-.82,1.22-2.34,1.89-4.47,1.89h-6.65c-1.26,0-2.88-.13-4.25-1.16-.71-.5-2.36-2.13-1.36-5.56.04-.13.08-.26.14-.38l.59-1.32c-.29-.2-.55-.43-.78-.69-.86-.92-1.33-2.2-1.33-3.62v-25.76c0-.15,0-.29.01-.43h-1.42c-.09,0-.18,0-.27-.01-1.43-.13-2.57-.61-3.59-1.5-.77-.66-1.72-1.93-1.72-4.08v-2.73c0-1.57.53-2.9,1.58-3.95.05-.05.09-.09.14-.13.28-.25.57-.46.86-.65-.35-.17-.66-.37-.94-.6-.78-.66-1.71-1.89-1.71-4.06v-2.1c0-.71,0-2.85,1.51-4.36.06-.06.13-.13.2-.18,1.26-1.05,3-1.18,4.37-1.18h1.52c.22-.49.51-.96.88-1.43,1.02-1.31,2.52-2.07,4.12-2.07h4.55c1.66,0,3.15.73,4.19,2.07.36.47.65.94.88,1.43h8.66c1.09,0,2.29.08,3.34.52.25-.37.54-.71.88-1.01.04-.03.07-.06.11-.09,1.34-1.1,3-1.66,4.91-1.66h21c2.7,0,4.29.91,5.14,1.67,1.78,1.61,1.99,3.89,1.99,5.46v13.44c0,1.61-.2,3.93-1.92,5.46-.05.04-.1.09-.15.13-1.2.93-2.88,1.4-4.99,1.4h-.04c.02.2.03.42.03.64v25.76c0,1.42-.47,2.7-1.33,3.62-.24.28-.52.52-.83.73l.58,1.29c.05.12.1.25.14.38,1.01,3.42-.65,5.06-1.42,5.6-1.32.99-2.93,1.12-4.19,1.12ZM94.82,64.12s-.02.03-.03.04c0-.01.02-.03.03-.04ZM122.08,63.46h5.96l-1.49-3.33c-.42-.93-.33-2,.22-2.86s1.5-1.37,2.52-1.37h.43v-24.17s-42.09,0-42.09,0v24.17s.35,0,.35,0c1.02,0,1.96.52,2.52,1.37s.64,1.93.22,2.86l-1.49,3.33h5.96c.2-.41.4-.88.55-1.21l2.04-4.57c.48-1.08,1.56-1.78,2.74-1.78h16.24c1.18,0,2.26.7,2.74,1.78l2.03,4.55c.16.35.37.84.56,1.23ZM105.28,24.57s0,0,0,0c0,0,0,0,0,0ZM80.61,24.53h.99c3.06,0,5.45-.75,7.09-2.24,1.56-1.46,2.42-3.86,2.59-7.3.08-1.6,1.4-2.85,3-2.85h3.64c1.66,0,3,1.34,3,3v4.55c0,1.66-1.34,3-3,3h-1.55v1.63h7.99c.48,0,.81-.03,1.02-.06.05-.28.11-.75.11-1.49v-11.77s-.05,0-.08,0h-11.13c-1.66,0-3-1.34-3-3v-.5h-3.67v.5c0,1.66-1.33,3-2.99,3h-3.99s-.05,0-.08,0v1.14s.05,0,.08,0h3.78c.84,0,1.63.35,2.2.96.57.61.85,1.44.79,2.27-.21,2.71-.99,4.57-2.38,5.69-1.28,1.02-2.77,1.56-4.32,1.56h-.08v1.91ZM80.27,24.48s.02.02.03.03c0,0-.02-.02-.03-.03ZM113.68,24.2c.21.06.56.13,1.04.13h21c.46,0,.79-.04,1.01-.08.03-.2.05-.49.05-.91v-13.44c0-.55-.05-.86-.08-1.02-.16-.04-.5-.11-1.05-.11h-21c-.49,0-.77.09-.95.19-.04.13-.11.43-.11,1.01v13.23c0,.5.05.82.09,1ZM120.39,55.38h-23.45c-1.66,0-3-1.34-3-3v-1.82c0-1.66,1.34-3,3-3h23.45c1.66,0,3,1.34,3,3v1.82c0,1.66-1.34,3-3,3ZM120.39,47.47h-23.45c-1.66,0-3-1.34-3-3v-1.68c0-1.66,1.34-3,3-3h23.45c1.66,0,3,1.34,3,3v1.68c0,1.66-1.34,3-3,3ZM120.39,39.7h-23.45c-1.66,0-3-1.34-3-3v-1.75c0-1.66,1.34-3,3-3h23.45c1.66,0,3,1.34,3,3v1.75c0,1.66-1.34,3-3,3ZM129,22.76h-7.63c-1.66,0-3-1.34-3-3v-6.58c0-1.66,1.34-3,3-3h7.63c1.66,0,3,1.34,3,3v6.58c0,1.66-1.34,3-3,3ZM124.37,16.76h1.63v-.58h-1.63v.58Z"/><path class="cls-3" d="M209.81,69.39h-10.22c-3.76-.09-6.62-1.07-8.57-2.92-.15-.15-.3-.29-.44-.45-.24.69-.62,1.3-1.12,1.79-.06.06-.13.12-.2.18-.97.81-2.23,1.26-3.54,1.26h-7.7c-1.29,0-2.57-.43-3.52-1.19-.72-.54-1.24-1.26-1.55-2.11-.16.18-.33.35-.5.51-1.96,1.85-4.82,2.84-8.51,2.92h-10.29c-1.61,0-3.09-.58-4.15-1.65-1.05-1.05-1.58-2.35-1.58-3.87v-3.85c0-1.52.53-2.82,1.58-3.87,1.06-1.06,2.54-1.65,4.15-1.65h5.12v-1.62c0-.36.04-.71.11-1.06h-4.87c-1.75,0-3.26-.64-4.36-1.86-1.08-1.11-1.65-2.5-1.65-4.01V12.2c0-1.45.56-2.75,1.65-3.88.76-.83,2.12-1.78,4.36-1.78h6.37c.83,0,1.61.15,2.32.45.02-.92.21-2.19,1.18-3.36.06-.07.12-.13.18-.2,1.37-1.38,3.15-1.38,3.74-1.38h39.41c.59,0,2.37,0,3.74,1.38.06.06.12.13.18.2.84,1.01,1.25,2.19,1.25,3.6v29.05c0,.31-.02.6-.06.89.76.2,1.5.56,2.12,1.19.06.06.13.13.18.2.84,1.01,1.25,2.49,1.25,4.51v2.8c0,1.56-.38,2.87-1.12,3.91-.05.07-.11.14-.16.21-.71.83-2.08,1.82-4.59,1.82h-5.43c.07.35.1.7.1,1.06v1.62h5.12c1.61,0,3.09.59,4.15,1.65,1.05,1.05,1.58,2.35,1.58,3.87v3.85c0,1.52-.53,2.82-1.58,3.87-1.06,1.06-2.54,1.65-4.15,1.65ZM194.12,53.29v5.4c0,1.63.34,2.78,1.02,3.43.82.77,2.42,1.23,4.52,1.28h9.88v-2.89h-5.12c-1.57,0-3.02-.59-4.08-1.66-1.06-1.06-1.65-2.53-1.65-4.15v-1.41h-4.57ZM153.93,63.38h9.95c2.03-.04,3.63-.5,4.45-1.27.68-.64,1.02-1.79,1.02-3.42v-5.4h-4.57v1.41c0,1.62-.59,3.09-1.65,4.15-1.07,1.07-2.48,1.65-4.08,1.65h-5.12v2.88ZM178.65,63.25h6.25v-14.43c0-1.66,1.34-3,3-3h21.99v-2.74c0-.05,0-.1,0-.15h-46.56c-1.66,0-3-1.34-3-3V12.55h-6.31s0,0,0,0v33.27h21.64c1.66,0,3,1.34,3,3v14.43ZM168.7,35.38h37.68V8.06s-37.68,0-37.68,0v27.32ZM207.41,8.07h0,0ZM197.07,34.45h-19.11c-1.66,0-3-1.34-3-3v-2.31c0-1.66,1.34-3,3-3h19.11c1.66,0,3,1.34,3,3v2.31c0,1.66-1.34,3-3,3ZM197.07,25.63h-19.11c-1.66,0-3-1.34-3-3v-2.17c0-1.66,1.34-3,3-3h19.11c1.66,0,3,1.34,3,3v2.17c0,1.66-1.34,3-3,3ZM197.07,16.88h-19.11c-1.66,0-3-1.34-3-3v-2.17c0-1.66,1.34-3,3-3h19.11c1.66,0,3,1.34,3,3v2.17c0,1.66-1.34,3-3,3Z"/><path class="cls-2" d="M26.2,15.63c.35-.07.7-.07,1.05-.07h4.48v-7.56c0-.7.28-1.33.77-1.89.49-.56,1.12-.91,1.75-.91h3.71c.77,0,1.33.35,1.89.91.49.56.7,1.19.7,1.89v7.56h22.89c1.19,0,2.03.21,2.45.63.35.42.56,1.26.56,2.59v6.02c0,.98-.21,1.75-.56,2.17-.42.49-1.26.77-2.45.77h-22.89v6.44h21c1.19,0,1.96.14,2.38.56.42.42.63,1.33.63,2.59v5.74c0,1.05-.21,1.75-.63,2.24s-1.19.7-2.38.7h-5.95v8.4h7.84c1.19,0,2.03.21,2.45.56.35.42.56,1.33.56,2.59v5.81c0,.98-.21,1.68-.56,2.17-.42.49-1.26.77-2.45.77h-29.89c-1.12,0-1.89-.28-2.31-.7-.21-.28-.35-.63-.42-1.12-1.4,1.19-2.66,1.82-3.78,1.82-.77-.07-1.33-.35-1.82-.77-.56-.49-.77-1.05-.77-1.82v-7.63c0-.7.21-1.33.56-1.68.42-.42,1.19-1.26,2.38-2.59,1.26-1.33,2.24-3.08,3.15-5.32.84-2.24,1.26-5.6,1.19-9.94v-8.82h-4.48c-1.12,0-1.89-.28-2.24-.77-.42-.49-.63-1.19-.63-2.17-.49,1.61-1.12,3.15-1.75,4.48v34.3c0,1.12-.14,1.82-.56,2.17-.35.35-.98.56-1.82.63h-4.62c-.77,0-1.4-.21-1.82-.56-.42-.42-.63-1.12-.63-2.24v-21.28c-1.68,1.61-3.57,2.31-5.81,2.24-1.05.07-1.75-.07-2.24-.56-.42-.42-.63-1.33-.63-2.73v-5.6c0-1.19.21-2.1.7-2.87.49-.7,1.19-1.26,2.17-1.61,3.08-.42,5.6-3.22,7.49-8.47,1.89-5.18,2.8-10.15,2.87-14.77.07-.7.35-1.33.84-1.82.56-.49,1.19-.77,1.89-.77h3.36c.84,0,1.47.28,1.96.77.49.49.77,1.12.84,1.82v3.5c-.07,1.47-.21,2.87-.42,4.2ZM37.75,54.42h8.75v-8.4h-6.37c-.42,3.01-1.26,5.74-2.38,8.4Z"/><path class="cls-2" d="M107.65,26.41c-.49.63-1.61.91-3.29.91h-8.05c-1.96,0-2.94-.91-2.94-2.8v-1.89c0-1.96.98-2.94,2.94-2.94h1.61v-4.55h-3.64c-.21,4.27-1.4,7.35-3.57,9.38-2.17,1.96-5.18,3.01-9.1,3.01h-1.4c-.77-.07-1.33-.28-1.89-.77-.49-.42-.7-1.05-.7-1.82v-2.73c0-.77.21-1.33.7-1.82.56-.49,1.12-.77,1.89-.77h.49c.91,0,1.75-.35,2.45-.91.7-.56,1.12-1.75,1.26-3.57h-3.78c-1.19,0-2.03-.21-2.45-.56-.42-.35-.63-.91-.63-1.75v-2.1c0-1.12.21-1.82.63-2.24.42-.35,1.26-.49,2.45-.49h3.99v-.56c0-.77.28-1.4.77-2.03s1.12-.91,1.75-.91h4.55c.7,0,1.33.28,1.82.91s.77,1.26.77,2.03v.56h11.13c1.26,0,2.1.14,2.52.49.35.42.56,1.12.56,2.24v12.04c0,1.82-.28,3.08-.84,3.64ZM132.15,29.28c.35.35.56.91.56,1.68v25.76c0,.7-.21,1.26-.56,1.61-.28.35-.84.56-1.61.56h-1.26l2.1,4.69c.35,1.19.21,1.96-.28,2.31-.56.42-1.33.56-2.45.56h-6.65c-1.05,0-1.75-.21-2.03-.63-.35-.49-.7-1.26-1.19-2.38l-2.03-4.55h-16.24l-2.03,4.55c-.49,1.12-.84,1.89-1.19,2.38-.28.42-.98.63-2.03.63h-6.65c-1.12,0-1.89-.14-2.45-.56-.49-.35-.63-1.12-.28-2.31l2.1-4.69h-1.19c-.77,0-1.33-.21-1.61-.56-.35-.35-.56-.91-.56-1.61v-25.76c0-.77.21-1.33.56-1.68.28-.35.84-.56,1.61-.56h43.75c.77,0,1.33.21,1.61.56ZM120.39,36.7v-1.75h-23.45v1.75h23.45ZM120.39,44.47v-1.68h-23.45v1.68h23.45ZM120.39,52.38v-1.82h-23.45v1.82h23.45ZM114.72,27.32c-1.26,0-2.31-.28-3.01-.77-.7-.49-1.12-1.61-1.12-3.36v-13.23c0-1.54.35-2.59,1.05-3.22.77-.63,1.75-.98,3.01-.98h21c1.47,0,2.52.35,3.15.91.7.63.98,1.68.98,3.22v13.44c0,1.61-.28,2.66-.91,3.22-.63.49-1.68.77-3.15.77h-21ZM129,19.76v-6.58h-7.63v6.58h7.63Z"/><path class="cls-2" d="M169.83,50.29c.7.07,1.33.28,1.75.77.49.49.77,1.12.77,1.82v5.81c0,2.45-.63,4.34-1.96,5.6-1.33,1.26-3.5,2.03-6.51,2.1h-10.22c-.84,0-1.54-.28-2.03-.77-.49-.49-.7-1.05-.7-1.75v-3.85c0-.7.21-1.26.7-1.75.49-.49,1.19-.77,2.03-.77h5.39c.84,0,1.47-.28,1.96-.77.49-.49.77-1.19.77-2.03v-1.82c0-.7.28-1.33.77-1.82s1.12-.7,1.82-.77h5.46ZM187.9,48.81v15.26c0,.7-.21,1.26-.56,1.61-.42.35-.98.56-1.61.56h-7.7c-.63,0-1.26-.21-1.68-.56-.49-.35-.7-.91-.7-1.61v-15.26h-21.63c-.98,0-1.68-.35-2.17-.91-.56-.56-.84-1.19-.84-1.96V12.2c0-.7.28-1.26.84-1.82.49-.56,1.19-.84,2.17-.84h6.37c.84,0,1.54.28,2.1.84.56.56.84,1.12.84,1.82v27.72h46.69c1.12,0,1.89.14,2.31.56.35.42.56,1.33.56,2.59v2.8c0,.98-.21,1.68-.56,2.17-.42.49-1.19.77-2.31.77h-22.12ZM208.83,5.55c.35.42.56.91.56,1.68v29.05c0,.7-.21,1.26-.56,1.61-.35.35-.84.49-1.61.49h-39.41c-.77,0-1.26-.14-1.61-.49-.35-.35-.49-.91-.49-1.61V7.23c0-.77.14-1.26.49-1.68.35-.35.84-.49,1.61-.49h39.41c.77,0,1.26.14,1.61.49ZM197.07,11.71h-19.11v2.17h19.11v-2.17ZM197.07,20.46h-19.11v2.17h19.11v-2.17ZM197.07,29.14h-19.11v2.31h19.11v-2.31ZM200.92,51.05c.49.49.77,1.12.77,1.82v1.82c0,.84.28,1.54.77,2.03.49.49,1.19.77,1.96.77h5.39c.84,0,1.54.28,2.03.77s.7,1.05.7,1.75v3.85c0,.7-.21,1.26-.7,1.75s-1.19.77-2.03.77h-10.22c-3.01-.07-5.18-.84-6.51-2.1-1.33-1.26-1.96-3.15-1.96-5.6v-5.81c0-.7.28-1.33.77-1.82.42-.49,1.05-.7,1.75-.77h5.46c.7.07,1.33.28,1.82.77Z"/></g></svg>