<?xml version="1.0" encoding="UTF-8"?><svg id="_レイヤー_2" xmlns="http://www.w3.org/2000/svg" viewBox="0 0 216.94 71.03"><defs><style>.cls-1,.cls-2,.cls-3{stroke-width:0px;}.cls-2{fill:#198caa;}.cls-3{fill:#fff;}</style></defs><g id="_レイヤー_4"><path class="cls-1" d="M5.06,25.43c-.35-.49-.56-1.19-.56-2.24v-4.9c0-1.33.21-2.17.56-2.59.42-.42,1.19-.63,2.31-.63h7.21v-7.42c.07-.7.35-1.33.84-1.89.56-.56,1.26-.77,2.17-.77h3.15c.84,0,1.54.21,2.1.77.56.56.84,1.19.84,1.89v7.42h3.22c1.19,0,1.96.21,2.38.63s.63,1.26.63,2.59v4.9c0,1.05-.21,1.75-.63,2.24-.42.49-1.19.7-2.38.7h-3.22l3.22,2.8c1.19,1.19,1.96,1.96,2.38,2.38.35.35.56,1.05.49,2.17v7.49c.07.84-.21,1.54-.77,2.1-.56.49-1.26.49-2.1-.14l-3.22-2.8v23.38c0,.77-.28,1.4-.84,1.96-.56.56-1.26.84-2.1.84h-3.15c-.91,0-1.61-.28-2.17-.84-.49-.56-.77-1.19-.84-1.96v-19.95l-7.07,12.18c-.84,1.26-1.54,1.68-2.03,1.4-.56-.28-.84-.77-.84-1.4v-10.22c-.07-1.12.07-2.03.49-2.73.35-.77.84-1.61,1.4-2.66l8.05-14h-7.21c-1.12,0-1.89-.21-2.31-.7ZM65.2,65.97c-.35.35-1.19.49-2.45.49h-6.23c-1.05,0-1.82-.14-2.31-.49-.56-.42-.77-1.12-.77-2.24v-5.46c0-1.05.21-1.82.77-2.24.49-.42,1.26-.63,2.31-.63h.91v-7.49h-5.25c.14,5.04-1.12,9.59-3.85,13.65-2.73,3.22-6.16,4.83-10.29,4.83h-.35c-.7-.07-1.33-.35-1.82-.77-.49-.49-.77-1.05-.77-1.82v-3.22c-2.59,3.85-4.9,5.81-6.93,5.81-.77-.07-1.4-.35-1.89-.77-.49-.49-.77-1.05-.77-1.82v-7.63c0-.7.21-1.33.63-1.68.35-.42,1.19-1.26,2.38-2.59s2.24-3.08,3.08-5.32c.91-2.24,1.33-5.6,1.26-9.94V11.64c0-.7.21-1.33.77-1.75.49-.49,1.12-.7,1.82-.77h18.62c1.33,0,2.17-.14,2.66-.35.49-.28.7-.7.7-1.4,0-.77.21-1.47.7-2.03.49-.56,1.12-.84,1.82-.84h3.92c.77,0,1.33.28,1.89.84.49.56.7,1.19.7,1.96v2.94c.07,3.08-.63,5.53-2.1,7.28-1.54,1.75-4.13,2.59-7.84,2.59h-15.4v2.87h22.33c1.19,0,2.03.21,2.45.63.35.42.56,1.26.56,2.59v4.97c0,.98-.21,1.68-.56,2.17-.42.49-1.26.77-2.45.77h-11.13v2.66h10.43c1.26,0,2.1.14,2.52.49.42.42.63,1.12.56,2.24v24.22c0,1.12-.21,1.82-.63,2.24ZM37.89,55.67c1.54,0,2.94-.84,4.27-2.31,1.26-1.54,1.89-3.92,1.89-7.21v-12.04h-2.94v6.02c0,5.81-1.05,10.99-3.22,15.54Z"/><path class="cls-1" d="M78.78,25.15c-.42-.49-.63-1.19-.63-2.24v-4.9c0-1.33.21-2.17.63-2.59s1.19-.63,2.24-.63h20.23v-7.42c.07-.77.35-1.4.91-1.96.49-.49,1.19-.77,2.1-.77h8.33c.77,0,1.47.28,2.03.77.56.56.91,1.19.91,1.96v7.42h20.09c1.19,0,1.96.21,2.31.63s.56,1.26.7,2.59v4.9c0,1.05-.21,1.75-.63,2.24-.42.49-1.19.7-2.38.7h-15.26l15.61,15.12c1.05,1.05,1.82,1.82,2.24,2.31.42.56.63,1.47.63,2.73v10.85c0,1.05-.28,1.75-.77,1.96s-1.19-.07-2.1-.98l-20.44-19.81v25.76c0,.77-.35,1.4-.91,1.96-.56.56-1.26.77-2.03.77h-8.33c-.91,0-1.61-.21-2.1-.77-.56-.56-.84-1.19-.91-1.96v-25.76l-20.44,19.81c-.91.91-1.61,1.19-2.1.98-.49-.21-.77-.91-.77-1.96v-10.85c0-1.26.21-2.17.63-2.73.42-.49,1.19-1.26,2.24-2.31l15.61-15.12h-15.4c-1.05,0-1.82-.21-2.24-.7Z"/><path class="cls-1" d="M169.39,50.35c.7.07,1.33.28,1.75.77.49.49.77,1.12.77,1.82v5.81c0,2.45-.63,4.34-1.96,5.6-1.33,1.26-3.5,2.03-6.51,2.1h-10.22c-.84,0-1.54-.28-2.03-.77-.49-.49-.7-1.05-.7-1.75v-3.85c0-.7.21-1.26.7-1.75s1.19-.77,2.03-.77h5.39c.84,0,1.47-.28,1.96-.77s.77-1.19.77-2.03v-1.82c0-.7.28-1.33.77-1.82s1.12-.7,1.82-.77h5.46ZM187.45,48.88v15.26c0,.7-.21,1.26-.56,1.61-.42.35-.98.56-1.61.56h-7.7c-.63,0-1.26-.21-1.68-.56-.49-.35-.7-.91-.7-1.61v-15.26h-21.63c-.98,0-1.68-.35-2.17-.91-.56-.56-.84-1.19-.84-1.96V12.27c0-.7.28-1.26.84-1.82.49-.56,1.19-.84,2.17-.84h6.37c.84,0,1.54.28,2.1.84.56.56.84,1.12.84,1.82v27.72h46.7c1.12,0,1.89.14,2.31.56.35.42.56,1.33.56,2.59v2.8c0,.98-.21,1.68-.56,2.17-.42.49-1.19.77-2.31.77h-22.12ZM208.38,5.62c.35.42.56.91.56,1.68v29.05c0,.7-.21,1.26-.56,1.61-.35.35-.84.49-1.61.49h-39.41c-.77,0-1.26-.14-1.61-.49s-.49-.91-.49-1.61V7.3c0-.77.14-1.26.49-1.68.35-.35.84-.49,1.61-.49h39.41c.77,0,1.26.14,1.61.49ZM196.62,11.78h-19.11v2.17h19.11v-2.17ZM196.62,20.53h-19.11v2.17h19.11v-2.17ZM196.62,29.21h-19.11v2.31h19.11v-2.31ZM200.47,51.12c.49.49.77,1.12.77,1.82v1.82c0,.84.28,1.54.77,2.03.49.49,1.19.77,1.96.77h5.39c.84,0,1.54.28,2.03.77.49.49.7,1.05.7,1.75v3.85c0,.7-.21,1.26-.7,1.75s-1.19.77-2.03.77h-10.22c-3.01-.07-5.18-.84-6.51-2.1-1.33-1.26-1.96-3.15-1.96-5.6v-5.81c0-.7.28-1.33.77-1.82.42-.49,1.05-.7,1.75-.77h5.46c.7.07,1.33.28,1.82.77Z"/><path class="cls-2" d="M62.75,70.96h-6.23c-1.32,0-3.26-.14-4.93-1.33-1-.75-1.71-1.7-2.14-2.84-3.2,2.7-7.09,4.1-11.41,4.1h-.35c-.15,0-.3,0-.45-.02-1.5-.15-2.89-.71-4.06-1.63-1.48,1-3.15,1.65-5.02,1.65-.14,0-.27,0-.41-.02-1.18-.11-2.29-.46-3.27-1.03-1.11.64-2.38.97-3.74.97h-3.15c-2.09,0-3.94-.75-5.35-2.16-.07-.07-.14-.15-.21-.22-1.13-1.29-1.78-2.81-1.93-4.51-.01-.14-.02-.27-.02-.41v-3.79c-2.8,2.93-5.65,1.93-6.62,1.44h0c-2.08-1.04-3.33-3.07-3.33-5.42v-10.09c-.1-1.92.23-3.53.99-4.92.29-.62.62-1.22.97-1.86l.46-.86s.04-.08.07-.12l4.18-7.27c-2.23-.11-3.97-.87-5.17-2.26-.09-.1-.17-.21-.25-.32-.93-1.3-1.4-2.93-1.4-4.86v-4.9c0-2.42.51-4.16,1.6-5.47.09-.11.18-.21.28-.31,1.29-1.29,3.14-1.94,5.49-1.94h2.71v-2.92c0-.15,0-.3.02-.45.16-1.62.83-3.15,1.93-4.4.07-.08.14-.15.21-.22,1.39-1.38,3.19-2.08,5.35-2.08h3.15c2.64,0,4.33,1.13,5.28,2.08,1.42,1.42,2.16,3.17,2.16,5.08v2.98c.08,0,.15.02.23.03.22-1.67,1-3.12,2.25-4.16,1.15-1.06,2.61-1.68,4.33-1.85.15-.01.3-.02.45-.02h17.96c.3-.82.75-1.58,1.33-2.24,1.34-1.53,3.19-2.38,5.21-2.38h3.92c1.93,0,3.64.72,5.07,2.16.07.07.14.15.21.22,1.2,1.38,1.81,3.03,1.81,4.92v2.89c.08,3.86-.81,7.08-2.65,9.59.28.2.54.42.78.66.09.09.18.19.27.29,1.1,1.31,1.61,3.05,1.61,5.47v4.97c0,1.81-.43,3.36-1.29,4.63.51,1.08.73,2.36.66,3.82v24.1c0,.86,0,3.47-1.94,5.42h0c-1.59,1.6-3.74,1.81-5.64,1.81ZM57.94,61.96h3.39v-4.32c-.7,1.21-1.94,2.06-3.39,2.23v2.09ZM19.08,61.82h.1v-21.68c0-1.76,1.03-3.36,2.63-4.09,1.11-.51,2.35-.53,3.46-.12v-2.26l-1.44-1.44-3.1-2.7c-1.42-1.23-1.92-3.21-1.26-4.97.66-1.76,2.34-2.92,4.21-2.92h1.73v-2.06h-1.73c-2.49,0-4.5-2.01-4.5-4.5v-5.58h-.1v5.58c0,2.49-2.01,4.5-4.5,4.5h-5.58v2.06h5.58c1.61,0,3.09.86,3.9,2.25.8,1.39.81,3.1,0,4.5l-6.71,11.67c1.1-.87,2.57-1.21,3.98-.83,1.96.53,3.33,2.31,3.33,4.35v18.25ZM39.56,60.02c.02.18.04.37.04.56v1.19c2-.31,3.67-1.27,5.14-2.94.91-1.4,1.61-2.86,2.1-4.4-.34.64-.74,1.24-1.19,1.79-.05.06-.1.11-.15.17-1.81,2-3.81,3.22-5.94,3.63ZM30,56.92v3c.4-.49.85-1.1,1.36-1.85.52-.78,1.26-1.35,2.09-1.68-.14-.89-.02-1.81.38-2.65.77-1.62,1.39-3.37,1.84-5.23-.98,2.52-2.26,4.67-3.81,6.39-.67.75-1.24,1.35-1.67,1.81-.07.07-.13.14-.19.21ZM52.17,43.4h5.25c1.67,0,3.12.91,3.9,2.26v-4.39h-9.01c-1.57,0-2.96-.81-3.76-2.03v5.99c.12-.16.25-.32.4-.47.85-.87,2.01-1.36,3.23-1.36ZM41.11,29.61h2.94c1.85,0,3.44,1.12,4.13,2.71.69-1.6,2.28-2.71,4.13-2.71h9.64v-2.13h-20.84c-1.57,0-2.96-.81-3.76-2.03v6.19c.8-1.22,2.19-2.03,3.76-2.03ZM27.24,21.62h0,0ZM37.35,13.62v4.02c.8-1.22,2.19-2.03,3.76-2.03h15.4c2.21,0,3.82-.38,4.43-1.03.89-1.1,1.04-2.91,1.01-4.24,0-.03,0-.07,0-.1v-1.24h-.22c-.5,2.06-1.88,3.17-2.78,3.68-.15.09-.3.16-.46.23-1.14.49-2.54.71-4.43.71h-16.71Z"/><path class="cls-2" d="M112.59,71.03h-8.33c-2.76,0-4.43-1.16-5.38-2.18-1.24-1.28-1.95-2.84-2.12-4.64-.01-.14-.02-.27-.02-.41v-15.13l-12.81,12.42c-2.97,2.97-5.67,2.46-7,1.88-1.05-.45-3.5-1.95-3.5-6.1v-10.85c0-2.28.5-4.06,1.53-5.43.06-.08.12-.15.18-.23.52-.6,1.24-1.33,2.48-2.57l7.68-7.44h-4.29c-2.46,0-4.36-.76-5.66-2.27h0c-1.15-1.35-1.71-3.04-1.71-5.17v-4.9c0-1.64.2-4.03,1.95-5.77,1.29-1.29,3.12-1.95,5.42-1.95h15.73v-2.92c0-.14,0-.27.02-.41.17-1.84.91-3.43,2.21-4.73,1.37-1.37,3.19-2.09,5.28-2.09h8.33c1.83,0,3.61.67,5,1.89.07.07.15.13.22.2,1.84,1.84,2.23,3.81,2.23,5.14v2.92h15.59c.96,0,3.89,0,5.76,2.25,1.2,1.44,1.54,3.25,1.72,5,.02.16.03.31.03.47v4.9c0,2.13-.56,3.82-1.71,5.17-1.95,2.27-4.85,2.27-5.8,2.27h-4.15l7.63,7.39c1.22,1.22,1.99,1.99,2.53,2.62.06.07.12.15.18.23,1.03,1.37,1.53,3.15,1.53,5.43v10.85c0,4.15-2.45,5.65-3.5,6.1-1.34.57-4.03,1.09-7.05-1.93l-12.76-12.37v15.13c0,1.33-.39,3.3-2.23,5.14-.95.95-2.63,2.09-5.21,2.09ZM105.75,62.03h5.28s0-23.99,0-23.99c0-1.81,1.08-3.44,2.75-4.14,1.67-.71,3.59-.35,4.89.91l15.68,15.2v-3.98c0-.12,0-.22,0-.3-.39-.41-.94-.96-1.54-1.56l-15.56-15.07c-1.32-1.28-1.73-3.22-1.04-4.92.69-1.7,2.34-2.81,4.17-2.81h13.77v-2.06h-18.6c-2.49,0-4.5-2.01-4.5-4.5v-5.65h-5.28v5.65c0,2.49-2.01,4.5-4.5,4.5h-18.6v2.06h13.77c1.83,0,3.48,1.11,4.17,2.81.69,1.7.28,3.65-1.04,4.92l-15.61,15.12c-.53.53-1.09,1.09-1.49,1.51,0,.08,0,.18,0,.3v3.99l15.68-15.2c1.3-1.26,3.22-1.62,4.89-.91,1.66.7,2.75,2.34,2.75,4.14v23.99Z"/><path class="cls-2" d="M209.36,70.96h-10.22s-.07,0-.1,0c-3.51-.08-6.37-.92-8.52-2.51-.14.17-.29.34-.45.5-.09.09-.19.18-.29.27-1.24,1.04-2.84,1.61-4.49,1.61h-7.7c-1.62,0-3.22-.54-4.43-1.5-.37-.28-.71-.6-1-.94-2.17,1.63-5.05,2.5-8.61,2.58-.03,0-.07,0-.1,0h-10.22c-2.02,0-3.87-.74-5.21-2.09-1.32-1.32-2.02-3.03-2.02-4.93v-3.85c0-1.91.7-3.61,2.02-4.93,1.03-1.03,2.34-1.7,3.8-1.96-1.43-.33-2.71-1.06-3.69-2.13-1.35-1.4-2.06-3.13-2.06-5.04V12.27c0-1.85.69-3.5,2.06-4.91.97-1.06,2.68-2.25,5.45-2.25h6.37c.37,0,.73.02,1.08.07.25-.91.67-1.72,1.27-2.45.08-.1.17-.2.27-.29,1.2-1.2,2.81-1.81,4.8-1.81h39.41c1.98,0,3.59.61,4.79,1.81.1.1.19.2.28.3,1.06,1.28,1.6,2.81,1.6,4.56v28.93c.56.27,1.12.64,1.62,1.14.1.1.19.2.28.3,1.08,1.29,1.6,3.08,1.6,5.47v2.8c0,1.88-.47,3.48-1.4,4.78-.08.11-.16.21-.25.31-.75.87-2.04,1.88-4.17,2.22,1.32.3,2.5.95,3.44,1.89,1.32,1.32,2.02,3.02,2.02,4.93v3.85c0,1.91-.7,3.61-2.02,4.93-1.35,1.35-3.2,2.09-5.21,2.09ZM199.2,61.96h3.48c-1.47-.25-2.8-.93-3.85-1.98-1.33-1.32-2.07-3.14-2.09-5.12h-1.57v3.9c0,1.15.2,2,.56,2.33.41.38,1.53.81,3.47.87ZM159.92,61.96h3.46c2.5-.07,3.33-.73,3.47-.87.35-.33.55-1.18.55-2.33v-3.9h-1.57c-.02,1.98-.76,3.8-2.09,5.12-1.06,1.06-2.36,1.73-3.83,1.98ZM179.7,61.82h3.25v-12.93c0-2.15,1.5-3.94,3.51-4.39h-10.28c2.01.45,3.51,2.25,3.51,4.39v12.93ZM155.06,44.38h6.83c-2.01-.45-3.51-2.25-3.51-4.39V14.11h-3.32v30.27ZM200.41,33.95h4.03V9.63h-3.87c.35.64.55,1.37.55,2.15v2.17c0,1.3-.55,2.47-1.43,3.29.88.82,1.43,1.99,1.43,3.29v2.17c0,1.28-.54,2.44-1.39,3.25.86.82,1.39,1.98,1.39,3.26v2.31c0,.9-.26,1.73-.71,2.43ZM169.76,33.95h3.96c-.45-.7-.71-1.53-.71-2.43v-2.31c0-1.28.54-2.44,1.39-3.26-.86-.82-1.39-1.97-1.39-3.25v-2.17c0-1.3.55-2.47,1.43-3.29-.88-.82-1.43-1.99-1.43-3.29v-2.17c0-.78.2-1.51.55-2.15h-3.8v24.32ZM206.82,9.63h0,0Z"/><path class="cls-3" d="M62.75,69.46h-6.23c-1.11,0-2.74-.11-4.06-1.05-2.02-1.51-2.02-3.9-2.02-4.68v-.02c-3.29,3.77-7.46,5.68-12.4,5.68h-.35c-.1,0-.2,0-.3-.01-1.29-.13-2.5-.64-3.47-1.48-.06-.05-.12-.1-.17-.16-.15-.15-.3-.31-.43-.48-1.72,1.44-3.41,2.13-5.15,2.13-.09,0-.18,0-.27-.01-1.28-.12-2.45-.58-3.41-1.34-1.05.84-2.33,1.29-3.74,1.29h-3.15c-1.68,0-3.17-.59-4.29-1.72-.05-.05-.09-.1-.14-.15-.92-1.05-1.44-2.28-1.57-3.66,0-.09-.01-.18-.01-.27v-8.81l-1.48,2.54c-.03.05-.06.11-.1.16-2.49,3.73-5.05,2.85-5.92,2.39-1.53-.79-2.45-2.3-2.45-4.06v-10.13c-.09-1.67.18-3.04.82-4.2.28-.59.6-1.19.95-1.82l.47-.87,5.51-9.59h-2.03c-.76,0-3.09,0-4.59-1.75-.06-.07-.11-.14-.16-.21-.75-1.05-1.12-2.36-1.12-3.98v-4.9c0-2.05.4-3.48,1.25-4.51.06-.07.12-.14.19-.2,1.02-1.01,2.46-1.51,4.43-1.51h4.21v-4.42c0-.1,0-.2.01-.3.13-1.33.66-2.53,1.57-3.57.04-.05.09-.1.14-.15,1.09-1.09,2.54-1.65,4.29-1.65h3.15c1.71,0,3.13.55,4.22,1.65,1.13,1.13,1.72,2.52,1.72,4.01v4.42h.22c1.16,0,2.13.16,2.95.49v-.92c0-1.64.64-3.06,1.8-4.01.92-.85,2.09-1.35,3.49-1.49.1,0,.2-.01.3-.01h18.62c.18,0,.34,0,.48,0,.2-1.04.65-1.97,1.33-2.75,1.05-1.2,2.5-1.87,4.08-1.87h3.92c1.54,0,2.85.56,4.01,1.72.05.05.09.1.14.15.96,1.09,1.44,2.42,1.44,3.93v2.94c.09,3.77-.86,6.89-2.8,9.21-.26.29-.53.56-.81.82.89.25,1.61.65,2.18,1.22.06.06.12.13.18.2.86,1.03,1.26,2.46,1.26,4.51v4.97c0,1.56-.38,2.88-1.12,3.92-.05.07-.11.14-.16.21-.1.12-.22.24-.35.36.75,1.01,1.08,2.33,1,3.93v24.14c0,.71,0,2.85-1.51,4.36h0c-1.21,1.21-2.99,1.37-4.57,1.37ZM56.44,63.46h6.39v-23.68h-10.51c-1.66,0-3-1.34-3-3v-2.66c0-1.66,1.34-3,3-3h11.14v-4.91c0-.08,0-.15,0-.22h-22.34c-1.66,0-3-1.34-3-3v-2.87c0-1.66,1.34-3,3-3h15.4c2.79,0,4.67-.53,5.59-1.57.94-1.12,1.41-2.89,1.35-5.23v-2.81h-3.03c-.05,2.3-1.4,3.41-2.21,3.88-.1.06-.2.11-.31.15-.94.4-2.16.59-3.84.59h-18.21v24.51c.08,4.79-.41,8.43-1.48,11.07-.91,2.42-2.13,4.53-3.62,6.19-.66.74-1.22,1.33-1.65,1.79-.26.27-.46.49-.6.64v6.96c.58-.26,1.94-1.17,4.1-4.38.67-.99,1.86-1.48,3.01-1.28-.09-.11-.18-.22-.25-.35-.55-.87-.61-1.96-.17-2.89,1.94-4.08,2.93-8.87,2.93-14.25v-6.02c0-1.66,1.34-3,3-3h2.94c1.66,0,3,1.34,3,3v12.04c0,4.02-.84,7-2.57,9.11-.03.04-.06.08-.1.11-1.98,2.19-4.17,3.3-6.5,3.3-.17,0-.35-.02-.52-.04.45.53.72,1.21.72,1.95v2.81c3.15-.01,5.72-1.21,7.84-3.65,2.31-3.49,3.37-7.34,3.25-11.75-.02-.81.28-1.59.85-2.18.56-.58,1.34-.91,2.15-.91h5.25c1.66,0,3,1.34,3,3v7.49c0,1.66-1.34,3-3,3h-.91s-.05,0-.08,0v5.06ZM17.58,63.32h3.1v-23.18c0-1.18.69-2.24,1.76-2.73,1.07-.49,2.33-.3,3.21.47l1.12.97v-5.36c0-.06,0-.12,0-.19,0-.09,0-.17,0-.24l-1.93-1.93-3.14-2.73c-.94-.82-1.28-2.14-.84-3.31.44-1.17,1.56-1.95,2.81-1.95h3.23v-4.84c0-.08,0-.15,0-.22h-3.23c-1.66,0-3-1.34-3-3v-7.08h-3.1v7.08c0,1.66-1.34,3-3,3h-7.08c0,.07,0,.14,0,.22v4.84h7.08c1.07,0,2.06.57,2.6,1.5.54.93.54,2.07,0,3l-8.05,14c-.13.24-.29.55-.45.84-.33.61-.62,1.13-.82,1.57-.05.1-.1.2-.16.3h0s-.12.24-.07,1c0,.06,0,.12,0,.19v4.02l4.35-7.49c.68-1.17,2.06-1.75,3.37-1.39,1.31.35,2.22,1.54,2.22,2.9v19.75ZM26.68,46.19v3.22c.65-.83,1.24-1.83,1.74-2.99-.55.04-1.13-.02-1.74-.23ZM26.84,17.35h0s0,0,0,0Z"/><path class="cls-3" d="M112.59,69.53h-8.33c-1.81,0-3.25-.58-4.29-1.72-1-1.03-1.58-2.29-1.71-3.74,0-.09-.01-.18-.01-.27v-18.68l-15.35,14.88c-2.24,2.24-4.16,2.1-5.37,1.58-.78-.33-2.59-1.46-2.59-4.72v-10.85c0-1.95.4-3.43,1.23-4.53.04-.05.08-.1.12-.15.48-.56,1.22-1.31,2.4-2.48l10.32-10h-7.99c-2,0-3.52-.59-4.52-1.75,0,0,0,0,0,0-.91-1.06-1.35-2.43-1.35-4.19v-4.9c0-1.38.16-3.36,1.51-4.71,1-1,2.47-1.51,4.36-1.51h17.23v-4.42c0-.09,0-.18.01-.27.14-1.48.73-2.76,1.78-3.81.75-.75,2.1-1.65,4.22-1.65h8.33c1.47,0,2.89.54,4.01,1.51.05.04.1.09.14.14,1.19,1.19,1.79,2.56,1.79,4.08v4.42h17.09c.79,0,3.19,0,4.61,1.71.94,1.13,1.22,2.69,1.38,4.2.01.1.02.21.02.32v4.9c0,1.76-.44,3.13-1.35,4.19-1.5,1.75-3.88,1.75-4.66,1.75h-7.85l10.29,9.97c1.14,1.14,1.94,1.94,2.43,2.51.04.05.08.1.12.15.83,1.1,1.23,2.59,1.23,4.53v10.85c0,3.26-1.81,4.38-2.59,4.72-1.21.52-3.13.66-5.4-1.62l-15.32-14.85v18.68c0,1.52-.6,2.89-1.79,4.08-.75.75-2.08,1.65-4.15,1.65ZM104.25,63.53h8.28v-25.49c0-1.21.72-2.29,1.83-2.76,1.12-.47,2.39-.23,3.26.61l18.22,17.66v-7.53c0-.54-.05-.85-.09-.98-.4-.43-1.08-1.11-1.9-1.94l-15.58-15.09c-.88-.85-1.15-2.15-.69-3.28.46-1.13,1.56-1.87,2.78-1.87h15.27v-4.68c-.02-.14-.03-.27-.05-.38h-20.05c-1.66,0-3-1.34-3-3v-7.12l-8.27-.03h-.01v7.15c0,1.66-1.34,3-3,3h-20.1c0,.07,0,.14,0,.22v4.84h15.27c1.22,0,2.32.74,2.78,1.87.46,1.13.18,2.43-.69,3.28l-15.61,15.12c-.73.73-1.46,1.46-1.87,1.91-.03.13-.09.43-.09.98v7.53l18.22-17.66c.87-.84,2.15-1.08,3.26-.61,1.11.47,1.83,1.56,1.83,2.76v25.49ZM104.25,7.53v.03s.02-.02.03-.03h-.03Z"/><path class="cls-3" d="M209.36,69.46h-10.22c-3.75-.09-6.62-1.07-8.57-2.92-.15-.14-.3-.29-.44-.45-.24.69-.62,1.3-1.12,1.79-.06.06-.13.12-.2.18-.97.81-2.23,1.26-3.53,1.26h-7.7c-1.29,0-2.57-.43-3.52-1.19-.72-.54-1.25-1.26-1.55-2.11-.16.18-.33.35-.5.52-1.96,1.85-4.82,2.84-8.5,2.92h-10.29c-1.62,0-3.09-.58-4.15-1.65-1.05-1.05-1.58-2.35-1.58-3.87v-3.85c0-1.52.53-2.82,1.58-3.87s2.54-1.65,4.15-1.65h5.12v-1.62c0-.36.04-.71.11-1.06h-4.87c-1.75,0-3.26-.64-4.36-1.86-1.08-1.11-1.65-2.5-1.65-4.01V12.27c0-1.45.56-2.75,1.65-3.88.76-.83,2.12-1.78,4.36-1.78h6.37c.83,0,1.61.15,2.32.45.02-.92.21-2.19,1.18-3.36.06-.07.12-.13.18-.2,1.37-1.37,3.15-1.37,3.73-1.37h39.41c.58,0,2.36,0,3.73,1.37.06.06.13.13.18.2.84,1.01,1.25,2.19,1.25,3.6v29.05c0,.3-.02.6-.06.89.76.2,1.5.56,2.13,1.19.06.06.13.13.18.2.84,1.01,1.25,2.49,1.25,4.51v2.8c0,1.56-.38,2.87-1.12,3.91-.05.07-.11.14-.16.21-.71.83-2.08,1.82-4.59,1.82h-5.43c.07.35.1.7.1,1.06v1.62h5.12c1.61,0,3.09.59,4.15,1.65,1.05,1.04,1.58,2.35,1.58,3.87v3.85c0,1.52-.53,2.82-1.58,3.87-1.06,1.06-2.54,1.65-4.15,1.65ZM193.67,53.35v5.4c0,1.63.34,2.78,1.02,3.42.82.78,2.42,1.23,4.52,1.28h9.88v-2.89h-5.12c-1.57,0-3.02-.59-4.08-1.66-1.06-1.06-1.65-2.54-1.65-4.15v-1.41h-4.57ZM153.49,63.45h9.95c2.02-.04,3.63-.5,4.45-1.27.68-.64,1.02-1.79,1.02-3.42v-5.4h-4.57v1.41c0,1.61-.59,3.09-1.65,4.15s-2.49,1.65-4.08,1.65h-5.12v2.88ZM178.2,63.32h6.25v-14.43c0-1.66,1.34-3,3-3h21.99v-2.74c0-.05,0-.1,0-.15h-46.56c-1.66,0-3-1.34-3-3V12.61h-6.31s0,0,0,0v33.27h21.64c1.66,0,3,1.34,3,3v14.43ZM168.26,35.45h37.68V8.13s-37.68,0-37.68,0v27.32ZM206.96,8.14h0,0ZM196.62,34.52h-19.11c-1.66,0-3-1.34-3-3v-2.31c0-1.66,1.34-3,3-3h19.11c1.66,0,3,1.34,3,3v2.31c0,1.66-1.34,3-3,3ZM196.62,25.7h-19.11c-1.66,0-3-1.34-3-3v-2.17c0-1.66,1.34-3,3-3h19.11c1.66,0,3,1.34,3,3v2.17c0,1.66-1.34,3-3,3ZM196.62,16.95h-19.11c-1.66,0-3-1.34-3-3v-2.17c0-1.66,1.34-3,3-3h19.11c1.66,0,3,1.34,3,3v2.17c0,1.66-1.34,3-3,3Z"/><path class="cls-2" d="M5.06,25.43c-.35-.49-.56-1.19-.56-2.24v-4.9c0-1.33.21-2.17.56-2.59.42-.42,1.19-.63,2.31-.63h7.21v-7.42c.07-.7.35-1.33.84-1.89.56-.56,1.26-.77,2.17-.77h3.15c.84,0,1.54.21,2.1.77.56.56.84,1.19.84,1.89v7.42h3.22c1.19,0,1.96.21,2.38.63s.63,1.26.63,2.59v4.9c0,1.05-.21,1.75-.63,2.24-.42.49-1.19.7-2.38.7h-3.22l3.22,2.8c1.19,1.19,1.96,1.96,2.38,2.38.35.35.56,1.05.49,2.17v7.49c.07.84-.21,1.54-.77,2.1-.56.49-1.26.49-2.1-.14l-3.22-2.8v23.38c0,.77-.28,1.4-.84,1.96-.56.56-1.26.84-2.1.84h-3.15c-.91,0-1.61-.28-2.17-.84-.49-.56-.77-1.19-.84-1.96v-19.95l-7.07,12.18c-.84,1.26-1.54,1.68-2.03,1.4-.56-.28-.84-.77-.84-1.4v-10.22c-.07-1.12.07-2.03.49-2.73.35-.77.84-1.61,1.4-2.66l8.05-14h-7.21c-1.12,0-1.89-.21-2.31-.7ZM65.2,65.97c-.35.35-1.19.49-2.45.49h-6.23c-1.05,0-1.82-.14-2.31-.49-.56-.42-.77-1.12-.77-2.24v-5.46c0-1.05.21-1.82.77-2.24.49-.42,1.26-.63,2.31-.63h.91v-7.49h-5.25c.14,5.04-1.12,9.59-3.85,13.65-2.73,3.22-6.16,4.83-10.29,4.83h-.35c-.7-.07-1.33-.35-1.82-.77-.49-.49-.77-1.05-.77-1.82v-3.22c-2.59,3.85-4.9,5.81-6.93,5.81-.77-.07-1.4-.35-1.89-.77-.49-.49-.77-1.05-.77-1.82v-7.63c0-.7.21-1.33.63-1.68.35-.42,1.19-1.26,2.38-2.59s2.24-3.08,3.08-5.32c.91-2.24,1.33-5.6,1.26-9.94V11.64c0-.7.21-1.33.77-1.75.49-.49,1.12-.7,1.82-.77h18.62c1.33,0,2.17-.14,2.66-.35.49-.28.7-.7.7-1.4,0-.77.21-1.47.7-2.03.49-.56,1.12-.84,1.82-.84h3.92c.77,0,1.33.28,1.89.84.49.56.7,1.19.7,1.96v2.94c.07,3.08-.63,5.53-2.1,7.28-1.54,1.75-4.13,2.59-7.84,2.59h-15.4v2.87h22.33c1.19,0,2.03.21,2.45.63.35.42.56,1.26.56,2.59v4.97c0,.98-.21,1.68-.56,2.17-.42.49-1.26.77-2.45.77h-11.13v2.66h10.43c1.26,0,2.1.14,2.52.49.42.42.63,1.12.56,2.24v24.22c0,1.12-.21,1.82-.63,2.24ZM37.89,55.67c1.54,0,2.94-.84,4.27-2.31,1.26-1.54,1.89-3.92,1.89-7.21v-12.04h-2.94v6.02c0,5.81-1.05,10.99-3.22,15.54Z"/><path class="cls-2" d="M78.78,25.15c-.42-.49-.63-1.19-.63-2.24v-4.9c0-1.33.21-2.17.63-2.59s1.19-.63,2.24-.63h20.23v-7.42c.07-.77.35-1.4.91-1.96.49-.49,1.19-.77,2.1-.77h8.33c.77,0,1.47.28,2.03.77.56.56.91,1.19.91,1.96v7.42h20.09c1.19,0,1.96.21,2.31.63s.56,1.26.7,2.59v4.9c0,1.05-.21,1.75-.63,2.24-.42.49-1.19.7-2.38.7h-15.26l15.61,15.12c1.05,1.05,1.82,1.82,2.24,2.31.42.56.63,1.47.63,2.73v10.85c0,1.05-.28,1.75-.77,1.96s-1.19-.07-2.1-.98l-20.44-19.81v25.76c0,.77-.35,1.4-.91,1.96-.56.56-1.26.77-2.03.77h-8.33c-.91,0-1.61-.21-2.1-.77-.56-.56-.84-1.19-.91-1.96v-25.76l-20.44,19.81c-.91.91-1.61,1.19-2.1.98-.49-.21-.77-.91-.77-1.96v-10.85c0-1.26.21-2.17.63-2.73.42-.49,1.19-1.26,2.24-2.31l15.61-15.12h-15.4c-1.05,0-1.82-.21-2.24-.7Z"/><path class="cls-2" d="M169.39,50.35c.7.07,1.33.28,1.75.77.49.49.77,1.12.77,1.82v5.81c0,2.45-.63,4.34-1.96,5.6-1.33,1.26-3.5,2.03-6.51,2.1h-10.22c-.84,0-1.54-.28-2.03-.77-.49-.49-.7-1.05-.7-1.75v-3.85c0-.7.21-1.26.7-1.75s1.19-.77,2.03-.77h5.39c.84,0,1.47-.28,1.96-.77s.77-1.19.77-2.03v-1.82c0-.7.28-1.33.77-1.82s1.12-.7,1.82-.77h5.46ZM187.45,48.88v15.26c0,.7-.21,1.26-.56,1.61-.42.35-.98.56-1.61.56h-7.7c-.63,0-1.26-.21-1.68-.56-.49-.35-.7-.91-.7-1.61v-15.26h-21.63c-.98,0-1.68-.35-2.17-.91-.56-.56-.84-1.19-.84-1.96V12.27c0-.7.28-1.26.84-1.82.49-.56,1.19-.84,2.17-.84h6.37c.84,0,1.54.28,2.1.84.56.56.84,1.12.84,1.82v27.72h46.7c1.12,0,1.89.14,2.31.56.35.42.56,1.33.56,2.59v2.8c0,.98-.21,1.68-.56,2.17-.42.49-1.19.77-2.31.77h-22.12ZM208.38,5.62c.35.42.56.91.56,1.68v29.05c0,.7-.21,1.26-.56,1.61-.35.35-.84.49-1.61.49h-39.41c-.77,0-1.26-.14-1.61-.49s-.49-.91-.49-1.61V7.3c0-.77.14-1.26.49-1.68.35-.35.84-.49,1.61-.49h39.41c.77,0,1.26.14,1.61.49ZM196.62,11.78h-19.11v2.17h19.11v-2.17ZM196.62,20.53h-19.11v2.17h19.11v-2.17ZM196.62,29.21h-19.11v2.31h19.11v-2.31ZM200.47,51.12c.49.49.77,1.12.77,1.82v1.82c0,.84.28,1.54.77,2.03.49.49,1.19.77,1.96.77h5.39c.84,0,1.54.28,2.03.77.49.49.7,1.05.7,1.75v3.85c0,.7-.21,1.26-.7,1.75s-1.19.77-2.03.77h-10.22c-3.01-.07-5.18-.84-6.51-2.1-1.33-1.26-1.96-3.15-1.96-5.6v-5.81c0-.7.28-1.33.77-1.82.42-.49,1.05-.7,1.75-.77h5.46c.7.07,1.33.28,1.82.77Z"/></g></svg>