<?xml version="1.0" encoding="UTF-8"?><svg id="_レイヤー_2" xmlns="http://www.w3.org/2000/svg" viewBox="0 0 217.99 71.1"><defs><style>.cls-1,.cls-2,.cls-3{stroke-width:0px;}.cls-2{fill:#198caa;}.cls-3{fill:#fff;}</style></defs><g id="_レイヤー_4"><path class="cls-1" d="M7.62,21.79c-1.26.21-2.1.07-2.52-.35-.35-.49-.56-1.12-.56-1.89v-6.86c-.14-.98.07-1.68.49-2.1.42-.42,1.26-.84,2.59-1.33l11.48-3.29c1.19-.21,2.03-.14,2.52.28.42.35.63,1.12.56,2.17v6.44c0,1.19-.21,2.03-.7,2.45-.42.49-1.19.84-2.38,1.19l-11.48,3.29ZM19.52,63.79c0,.91-.21,1.61-.56,2.1-.35.42-1.05.7-2.24.7h-3.15c-1.05,0-1.82-.28-2.24-.7-.42-.49-.56-1.19-.56-2.1v-27.86l-3.15.77c-1.19.21-2.03.07-2.45-.35-.42-.49-.63-1.12-.63-1.89v-6.72c0-1.12.21-1.89.63-2.38.42-.56,1.26-.91,2.45-1.19l11.48-3.15c1.26-.14,2.1,0,2.52.42.42.49.63,1.26.56,2.31v5.88c0,1.4-.14,2.38-.35,2.94-.21.63-.98,1.05-2.31,1.47v29.75ZM32.27,64.71c-1.61,1.26-4.13,1.89-7.42,1.89h-1.05c-.98,0-1.68-.14-2.17-.42-.49-.28-.7-.98-.7-2.1v-4.41c0-1.12.21-1.89.7-2.31.42-.35,1.19-.56,2.17-.56h.63c1.05,0,1.75-.21,2.1-.56.35-.42.56-1.12.7-2.03v-7.49c0-.77.21-1.47.77-2.03.49-.63,1.26-.84,2.31-.84h1.33c1.05,0,1.75.21,2.31.77.49.56.7,1.26.7,2.1v10.36c.07,3.78-.7,6.37-2.38,7.63ZM24.71,24.45c.42-.42,1.12-.63,2.24-.63h12.81v-2.17h-12.81c-1.12,0-1.82-.28-2.24-.7-.35-.49-.56-1.26-.56-2.24v-3.01c0-1.33.21-2.17.56-2.59.42-.42,1.12-.63,2.24-.63h12.81v-4.41c0-.7.28-1.33.84-1.89.49-.56,1.26-.84,2.17-.84h5.32c.77,0,1.47.28,2.1.84.56.56.84,1.19.84,1.89v4.41h12.67c1.19,0,1.96.21,2.38.63.35.42.49,1.26.49,2.59v3.01c0,.98-.14,1.75-.49,2.24-.42.42-1.19.7-2.38.7h-12.67v2.17h12.67c1.19,0,1.96.21,2.38.63.35.49.49,1.26.49,2.31v12.18c0,1.12-.14,1.82-.49,2.31-.42.42-1.19.63-2.38.63H26.95c-1.12,0-1.82-.21-2.24-.63-.35-.49-.56-1.19-.56-2.31v-12.18c0-1.05.21-1.82.56-2.31ZM33.04,31.24v3.22h2.17v-3.22h-2.17ZM43.54,55.88c0,.84.35,1.26,1.05,1.26h14.14c.7,0,1.12-.42,1.12-1.26v-5.04c0-.98.21-1.75.63-2.17s1.05-.63,1.96-.63h1.82c.91,0,1.61.21,2.03.7.35.49.56,1.26.56,2.24v12.32c0,1.26-.21,2.1-.56,2.52-.42.42-1.26.7-2.45.7h-24.64c-1.12,0-1.89-.21-2.24-.63-.42-.42-.63-1.26-.63-2.59v-16.59c0-1.05.21-1.75.56-2.24.42-.42,1.12-.63,2.17-.63h1.61c1.19,0,1.89.21,2.31.7.42.42.56,1.19.56,2.17v9.17ZM44.24,31.24v3.22h2.24v-3.22h-2.24ZM50.19,55.18c-.63.56-1.33.84-2.1.84-1.05,0-1.75-.28-2.31-.84-.49-.49-.84-1.19-.84-1.89v-6.72c0-.63.35-1.26.84-1.82.56-.56,1.26-.84,2.17-.84s1.61.28,2.24.84c.56.56.84,1.19.84,1.82v6.72c0,.7-.28,1.4-.84,1.89ZM57.82,55.18c-.56.56-1.26.84-2.1.84-.98,0-1.75-.28-2.31-.84-.49-.49-.77-1.19-.84-1.89v-6.72c.07-.63.35-1.26.84-1.82.56-.56,1.26-.84,2.17-.84s1.68.28,2.24.84c.56.56.84,1.19.84,1.82v6.72c0,.7-.28,1.4-.84,1.89ZM55.44,31.24v3.22h2.17v-3.22h-2.17Z"/><path class="cls-1" d="M119.09,64.56h-39.06c-.77,0-1.33-.14-1.68-.49-.42-.35-.56-.84-.56-1.47v-13.37c0-.84.21-1.47.63-1.89.42-.49,1.05-.77,1.89-.98h3.57V11.71c0-.63.14-1.19.56-1.47.35-.35.98-.49,1.82-.49h11.76l1.47-2.8c.49-.98.98-1.61,1.47-1.96.42-.35,1.12-.49,2.03-.49h9.45c1.05,0,1.89.28,2.31.77.49.49.35,1.26-.28,2.24l-1.33,2.24h20.58c.84,0,1.47.14,1.82.49.42.28.63.84.63,1.47v17.99c0,.77-.21,1.26-.63,1.61-.35.35-.98.49-1.82.49h-35.98v1.82h40.67c.7,0,1.19.21,1.54.63s.49,1.33.49,2.73-.14,2.38-.49,2.73c-.35.42-.84.56-1.54.56h-40.67v1.89h35.56c2.24,0,3.78.42,4.76,1.33.98.91,1.47,2.52,1.47,4.83v12.95c0,2.1-.56,3.43-1.54,4.2-1.05.7-2.59,1.12-4.69,1.12h-9.87c-.63,0-1.19-.28-1.68-.7-.49-.49-.77-1.05-.84-1.82-.35.35-.98.49-1.82.49ZM92.91,55.46v-5.88h-2.73v5.88h2.73ZM124.13,15.84h-26.39v1.89h26.39v-1.89ZM124.13,23.82h-26.39v1.89h26.39v-1.89ZM106.42,55.46h2.66v-5.88h-2.66v5.88ZM123.5,56.45h1.89c1.26.07,1.89-.84,1.89-2.59v-2.73c-.21-.91-.91-1.4-1.96-1.54h-3.85v7.63c.21-.28.42-.42.7-.49.35-.14.77-.21,1.33-.28Z"/><path class="cls-1" d="M170.44,50.49c.7.07,1.33.28,1.75.77.49.49.77,1.12.77,1.82v5.81c0,2.45-.63,4.34-1.96,5.6-1.33,1.26-3.5,2.03-6.51,2.1h-10.22c-.84,0-1.54-.28-2.03-.77-.49-.49-.7-1.05-.7-1.75v-3.85c0-.7.21-1.26.7-1.75.49-.49,1.19-.77,2.03-.77h5.39c.84,0,1.47-.28,1.96-.77.49-.49.77-1.19.77-2.03v-1.82c0-.7.28-1.33.77-1.82s1.12-.7,1.82-.77h5.46ZM188.5,49.02v15.26c0,.7-.21,1.26-.56,1.61-.42.35-.98.56-1.61.56h-7.7c-.63,0-1.26-.21-1.68-.56-.49-.35-.7-.91-.7-1.61v-15.26h-21.63c-.98,0-1.68-.35-2.17-.91-.56-.56-.84-1.19-.84-1.96V12.41c0-.7.28-1.26.84-1.82.49-.56,1.19-.84,2.17-.84h6.37c.84,0,1.54.28,2.1.84.56.56.84,1.12.84,1.82v27.72h46.69c1.12,0,1.89.14,2.31.56.35.42.56,1.33.56,2.59v2.8c0,.98-.21,1.68-.56,2.17-.42.49-1.19.77-2.31.77h-22.12ZM209.43,5.76c.35.42.56.91.56,1.68v29.05c0,.7-.21,1.26-.56,1.61-.35.35-.84.49-1.61.49h-39.41c-.77,0-1.26-.14-1.61-.49-.35-.35-.49-.91-.49-1.61V7.44c0-.77.14-1.26.49-1.68.35-.35.84-.49,1.61-.49h39.41c.77,0,1.26.14,1.61.49ZM197.67,11.92h-19.11v2.17h19.11v-2.17ZM197.67,20.67h-19.11v2.17h19.11v-2.17ZM197.67,29.35h-19.11v2.31h19.11v-2.31ZM201.52,51.26c.49.49.77,1.12.77,1.82v1.82c0,.84.28,1.54.77,2.03.49.49,1.19.77,1.96.77h5.39c.84,0,1.54.28,2.03.77s.7,1.05.7,1.75v3.85c0,.7-.21,1.26-.7,1.75s-1.19.77-2.03.77h-10.22c-3.01-.07-5.18-.84-6.51-2.1-1.33-1.26-1.96-3.15-1.96-5.6v-5.81c0-.7.28-1.33.77-1.82.42-.49,1.05-.7,1.75-.77h5.46c.7.07,1.33.28,1.82.77Z"/><path class="cls-2" d="M24.84,71.1h-1.05c-1.41,0-2.61-.21-3.65-.64-.89.38-2.01.64-3.42.64h-3.15c-2.2,0-4.12-.72-5.43-2.02-.08-.08-.15-.16-.23-.24-1.65-1.92-1.65-4.26-1.65-5.03v-22.5c-2.11-.08-3.47-.94-4.28-1.75-.08-.08-.16-.17-.23-.25-1.12-1.31-1.72-2.97-1.72-4.82v-6.72c0-1.71.33-3.13,1-4.3C.39,22.29.04,20.96.04,19.55v-6.59c-.22-2.2.42-4.16,1.81-5.55.92-.92,2.14-1.6,4.21-2.37.1-.04.21-.07.32-.1l11.48-3.29c.15-.04.31-.08.46-.11.97-.17,3.92-.69,6.23,1.3.79.66,2.12,2.22,2.14,5.15.09,0,.18,0,.25,0h8.31c.02-1.83.73-3.51,2.06-4.88,1.34-1.46,3.27-2.26,5.45-2.26h5.32c1.88,0,3.63.68,5.09,1.98.07.06.13.12.2.18,1.39,1.39,2.13,3.11,2.15,4.98h8.17c.89,0,3.61,0,5.56,1.94.1.1.19.2.28.31,1.35,1.62,1.53,3.67,1.53,5.47v3.01c0,1.58-.27,2.89-.81,3.99.71,1.44.81,2.97.81,4.06v12.18c0,1.43-.15,3.28-1.33,4.93-.14.2-.3.38-.47.56-.17.17-.35.33-.53.47.4.3.72.61.97.91.09.1.17.21.25.31.91,1.28,1.4,2.96,1.4,4.85v12.32c0,2.34-.52,4.11-1.6,5.4-.09.11-.18.21-.28.3-1.32,1.32-3.27,2.02-5.63,2.02h-24.64c-2.35,0-4.17-.65-5.41-1.93-2.3,1.33-5.3,2-8.94,2ZM25.42,61.25v.84c2.77-.08,3.81-.72,4.07-.93.01-.01.03-.02.04-.04.05-.07.41-.6.55-2.14-.03.04-.07.09-.1.13-.09.11-.18.21-.28.31-1.06,1.05-2.49,1.67-4.28,1.83ZM40.83,62.03h21.52v-1.67c-.96.81-2.22,1.29-3.62,1.29h-14.14c-1.49,0-2.79-.52-3.76-1.41v1.79ZM61.03,37.38h1.04v-2.32c-.12.88-.49,1.68-1.04,2.32ZM49.9,37.38h2.11c-.59-.69-.97-1.55-1.06-2.5-.09.95-.47,1.81-1.06,2.5ZM38.63,37.38h2.18c-.67-.79-1.08-1.81-1.08-2.92v-3.22c0-1.19.46-2.28,1.22-3.08-.38.11-.79.16-1.2.16h-1.13c.67.79,1.08,1.81,1.08,2.92v3.22c0,1.11-.41,2.13-1.08,2.92ZM28.64,37.38h.97c-.47-.55-.8-1.21-.97-1.93v1.93ZM10.77,31.43c1,0,1.98.33,2.78.96.69.54,1.19,1.26,1.47,2.06v-.41c0-1.79,1.06-3.39,2.66-4.11,0-.09,0-.2,0-.31v-3.55l-8.64,2.37v3.27l.66-.16c.35-.09.71-.13,1.07-.13ZM49.73,28.13c.68.71,1.13,1.65,1.23,2.69.09-.95.47-1.81,1.06-2.5h-.99c-.45,0-.89-.07-1.3-.19ZM61.03,28.32c.55.64.92,1.45,1.04,2.33v-2.33h-1.04ZM28.64,28.32v1.93c.16-.73.5-1.39.97-1.93h-.97ZM44.24,26.74h2.24c.45,0,.89.07,1.3.19-.77-.81-1.25-1.91-1.25-3.11v-2.17c0-2.49,2.01-4.5,4.5-4.5h11.04v-.17h-11.04c-2.49,0-4.5-2.01-4.5-4.5v-2.64h-2.27v2.64c0,2.49-2.01,4.5-4.5,4.5h-11.11v.17h11.11c2.49,0,4.5,2.01,4.5,4.5v2.17c0,1.19-.46,2.28-1.22,3.08.38-.11.79-.16,1.2-.16ZM9.04,13.53v3.17l8.64-2.48v-3.17l-8.64,2.48Z"/><path class="cls-2" d="M133.3,71.1h-9.87c-1.66,0-3.25-.62-4.62-1.79-.08-.07-.16-.15-.24-.22,0,0-.01-.01-.02-.02h-38.53c-1.95,0-3.53-.56-4.72-1.67-.96-.85-2.02-2.35-2.02-4.79v-13.37c0-2.46.96-4.03,1.82-4.94,1.31-1.46,2.96-2.01,4.1-2.29.05-.01.11-.03.17-.04V11.71c0-2.67,1.23-4.17,2.18-4.93,1.17-1.01,2.75-1.52,4.7-1.52h9.04l.21-.39c.74-1.49,1.64-2.64,2.71-3.44,1.22-.95,2.78-1.42,4.77-1.42h9.45c2.34,0,4.33.79,5.63,2.23.71.76,1.26,1.8,1.42,3.02h14.23c1.93,0,3.5.5,4.67,1.5,1.46,1.14,2.28,2.92,2.28,4.96v17.78c1.07.37,2,1,2.73,1.88,1.35,1.62,1.54,3.75,1.54,5.61,0,2.06-.21,4.18-1.66,5.76-.07.08-.14.16-.22.24.65,1.49.97,3.27.97,5.35v12.95c0,3.44-1.1,6.04-3.26,7.74-.09.07-.18.14-.28.2-1.87,1.25-4.29,1.88-7.19,1.88ZM124.95,62.1h8.35c.81,0,1.35-.09,1.7-.18.02-.16.04-.37.04-.64v-12.95c0-.79-.08-1.26-.14-1.52-.26-.06-.75-.15-1.59-.15h-3.73c1.04.86,1.77,2.04,2.09,3.45.08.33.12.67.12,1.02v2.73c0,2.33-.7,4.16-2.07,5.46-1.17,1.11-2.73,1.68-4.41,1.63h-1.16c.33.34.6.73.81,1.15ZM117.73,60.89s0,0,0,0c0,0,0,0,0,0ZM82.28,60.06h35.7c-.64-.78-1.02-1.78-1.02-2.85v-7.63c0-1.12.41-2.14,1.08-2.92h-5.55c.67.79,1.08,1.81,1.08,2.92v5.88c0,2.49-2.01,4.5-4.5,4.5h-2.66c-2.49,0-4.5-2.01-4.5-4.5v-5.88c0-1.12.41-2.14,1.08-2.92h-5.26c-.62,0-1.21-.12-1.74-.35.87.82,1.41,1.98,1.41,3.27v5.88c0,2.49-2.01,4.5-4.5,4.5h-2.73c-2.49,0-4.5-2.01-4.5-4.5v-4.98c-.55.24-1.16.38-1.8.38h-1.59v9.2ZM88.37,14.25v31.21c.55-.24,1.16-.38,1.8-.38h2.73c.62,0,1.21.12,1.74.35-.87-.82-1.41-1.98-1.41-3.27v-1.89c0-1.32.57-2.5,1.47-3.33-.9-.82-1.47-2.01-1.47-3.33v-1.82c0-1.17.45-2.24,1.19-3.05-.74-.8-1.19-1.87-1.19-3.05v-1.89c0-1.17.45-2.24,1.19-3.04-.74-.8-1.19-1.87-1.19-3.04v-1.89c0-.56.1-1.1.29-1.59h-5.15ZM128.34,27.3h3.33v-13.05h-3.33c.19.49.29,1.03.29,1.59v1.89c0,1.17-.45,2.24-1.19,3.04.74.8,1.19,1.87,1.19,3.04v1.89c0,.56-.1,1.1-.29,1.59ZM102.26,11.34h6.66c-.28-.75-.36-1.56-.23-2.34h-5.21s-1.23,2.34-1.23,2.34Z"/><path class="cls-2" d="M210.41,71.1h-10.22s-.07,0-.11,0c-3.51-.08-6.37-.93-8.52-2.51-.14.17-.29.34-.44.49-.09.09-.19.18-.29.27-1.24,1.04-2.84,1.61-4.5,1.61h-7.7c-1.62,0-3.22-.54-4.43-1.5-.37-.28-.7-.59-.99-.94-2.16,1.63-5.05,2.5-8.61,2.58-.04,0-.07,0-.11,0h-10.22c-2.01,0-3.87-.74-5.21-2.09-1.32-1.32-2.02-3.03-2.02-4.93v-3.85c0-1.9.7-3.61,2.01-4.93,1.03-1.03,2.35-1.7,3.81-1.97-1.43-.33-2.71-1.06-3.69-2.14-1.35-1.39-2.06-3.13-2.06-5.04V12.41c0-1.84.69-3.49,2.06-4.91.97-1.06,2.68-2.25,5.45-2.25h6.37c.37,0,.73.02,1.08.07.25-.91.67-1.72,1.27-2.44.08-.1.17-.2.27-.29,1.2-1.21,2.81-1.82,4.8-1.82h39.41c1.99,0,3.6.61,4.8,1.82.09.09.18.19.27.29,1.06,1.28,1.6,2.81,1.6,4.56v28.93c.56.27,1.12.64,1.62,1.14.1.1.19.2.28.3,1.08,1.29,1.6,3.08,1.6,5.47v2.8c0,1.87-.47,3.48-1.4,4.78-.08.11-.16.21-.25.31-.75.87-2.04,1.88-4.17,2.22,1.32.3,2.5.95,3.44,1.89,1.32,1.32,2.02,3.03,2.02,4.93v3.85c0,1.91-.7,3.61-2.02,4.93-1.35,1.35-3.2,2.09-5.21,2.09ZM200.25,62.1h3.48c-1.47-.25-2.8-.93-3.85-1.98-1.32-1.32-2.07-3.14-2.09-5.12h-1.57v3.9c0,1.15.2,2,.56,2.34.14.13.97.8,3.47.86ZM160.97,62.1h3.46c2.5-.07,3.33-.73,3.47-.87.35-.33.55-1.18.55-2.33v-3.9h-1.57c-.02,1.98-.76,3.8-2.09,5.13-1.05,1.05-2.36,1.72-3.82,1.97ZM180.75,61.96h3.25v-12.93c0-2.14,1.5-3.94,3.51-4.39h-10.27c2.01.45,3.51,2.25,3.51,4.39v12.93ZM156.11,44.52h6.83c-2.01-.45-3.51-2.25-3.51-4.39V14.25h-3.32v30.27ZM201.46,34.09h4.03V9.77h-3.87c.35.64.55,1.37.55,2.15v2.17c0,1.3-.55,2.47-1.43,3.29.88.82,1.43,1.99,1.43,3.29v2.17c0,1.28-.53,2.44-1.39,3.25.86.82,1.39,1.97,1.39,3.25v2.31c0,.89-.26,1.73-.71,2.43ZM170.81,34.09h3.96c-.45-.7-.71-1.53-.71-2.43v-2.31c0-1.28.53-2.44,1.39-3.25-.86-.82-1.39-1.97-1.39-3.25v-2.17c0-1.3.55-2.47,1.43-3.29-.88-.82-1.43-1.99-1.43-3.29v-2.17c0-.78.2-1.51.55-2.15h-3.8v24.32ZM207.87,9.77h.01-.01Z"/><path class="cls-3" d="M24.84,69.6h-1.05c-1.52,0-2.68-.26-3.66-.81h0c-.9.54-2.04.81-3.41.81h-3.15c-1.82,0-3.33-.55-4.36-1.58-.05-.05-.1-.11-.15-.16-1.15-1.34-1.29-2.96-1.29-4.06v-24.08c-2.51.34-3.95-.47-4.72-1.24-.05-.05-.11-.11-.16-.17-.89-1.03-1.35-2.36-1.35-3.84v-6.72c0-1.81.42-3.21,1.29-4.26l.03-.04c-.07-.08-.14-.17-.2-.25-.73-1.02-1.12-2.28-1.12-3.64v-6.67c-.26-2.38.74-3.78,1.37-4.41.75-.75,1.82-1.34,3.67-2.02.07-.03.14-.05.21-.07l11.48-3.29c.1-.03.2-.05.31-.07.8-.14,3.22-.57,4.99.96.79.66,1.74,2.01,1.61,4.54v1.13c.76-.16,1.42-.16,1.76-.16h9.81v-1.41c0-1.47.57-2.83,1.65-3.94,1.05-1.15,2.59-1.79,4.36-1.79h5.32c1.5,0,2.92.55,4.09,1.6.04.04.09.08.13.12,1.12,1.12,1.72,2.51,1.72,4.01v1.41h9.67c2.01,0,3.48.49,4.5,1.5.07.07.13.13.19.2,1.04,1.25,1.18,2.91,1.18,4.51v3.01c0,1.72-.33,2.98-1.05,3.98,0,0,0,0,0,0,0,0,0,0,0,0,.94,1.32,1.05,2.94,1.05,4.05v12.18c0,1.21-.12,2.75-1.05,4.05-.09.13-.2.26-.32.37-1.51,1.51-3.76,1.51-4.5,1.51h-2.33c.03.07.05.15.07.22.32-.04.65-.06,1-.06h1.82c2.32,0,3.62.95,4.31,1.75.06.07.11.14.16.21.73,1.03,1.12,2.4,1.12,3.98v12.32c0,1.97-.41,3.43-1.25,4.44-.06.07-.12.14-.18.2-1.03,1.03-2.61,1.58-4.57,1.58h-24.64c-2.04,0-3.5-.53-4.46-1.61-.25-.26-.45-.55-.62-.85,0,0-.02.01-.03.02-2.14,1.67-5.25,2.51-9.25,2.51ZM23.92,63.6h.92c2.56,0,4.54-.45,5.57-1.25.02-.01.03-.02.05-.04.29-.22,1.25-1.25,1.18-5.17v-10.29h-1.34s-.05,0-.08,0v7.36c0,.15-.01.3-.04.46-.24,1.58-.66,2.66-1.36,3.49-.06.07-.12.14-.19.2-.96.95-2.38,1.44-4.22,1.44h-.5v3.8ZM13.77,63.6h2.75v-29.55c0-1.31.85-2.47,2.1-2.86.21-.07.37-.12.5-.17.04-.3.07-.75.07-1.38v-5.52l-10.77,2.95s-.07.02-.11.03c-.36.08-.59.16-.75.21-.01.1-.02.25-.02.44v5.89l2.52-.62c.89-.22,1.84-.02,2.57.55s1.15,1.44,1.15,2.36v27.66ZM39.33,63.53h24.52c0-.07,0-.14,0-.22v-12.26h-1v4.84c0,2.47-1.73,4.26-4.12,4.26h-14.14c-2.38,0-4.05-1.75-4.05-4.26v-9.04h-1.21v16.46c0,.08,0,.15,0,.22ZM22.52,43.31v10.57c.4-.06.83-.09,1.27-.09h.43v-7.08c0-.83.15-1.54.37-2.15-.68-.22-1.4-.58-2.01-1.2-.02-.02-.04-.04-.06-.06ZM47.94,53.02s.06,0,.09,0v-6.11s-.06,0-.09,0v6.11ZM55.57,53.02s.06,0,.09,0v-6.11s-.06,0-.09,0v6.11ZM30.37,46.52s0,0,0,0c0,0,0,0,0,0ZM27.14,38.88h36.42v-12.06h-12.54c-1.66,0-3-1.34-3-3v-2.17c0-1.66,1.34-3,3-3h12.54v-2.95c0-.08,0-.15,0-.22h-12.54c-1.66,0-3-1.34-3-3v-4.15h-5.26s0,0-.01,0v4.14c0,1.66-1.34,3-3,3h-12.61c0,.07,0,.14,0,.22v2.95h12.61c1.66,0,3,1.34,3,3v2.17c0,1.66-1.34,3-3,3h-12.61v12.06ZM7.54,12.53c0,.05,0,.11,0,.16v6l10.73-3.08c.46-.13.73-.24.89-.31,0-.11.02-.26.02-.45v-5.79l-10.62,3.05c-.47.17-.79.31-1.02.42ZM57.61,37.46h-2.17c-1.66,0-3-1.34-3-3v-3.22c0-1.66,1.34-3,3-3h2.17c1.66,0,3,1.34,3,3v3.22c0,1.66-1.34,3-3,3ZM46.48,37.46h-2.24c-1.66,0-3-1.34-3-3v-3.22c0-1.66,1.34-3,3-3h2.24c1.66,0,3,1.34,3,3v3.22c0,1.66-1.34,3-3,3ZM35.21,37.46h-2.17c-1.66,0-3-1.34-3-3v-3.22c0-1.66,1.34-3,3-3h2.17c1.66,0,3,1.34,3,3v3.22c0,1.66-1.34,3-3,3Z"/><path class="cls-3" d="M133.3,69.6h-9.87c-.9,0-2.27-.25-3.64-1.43-.05-.05-.11-.1-.16-.15-.15-.15-.29-.3-.42-.46h-39.19c-.59,0-2.35,0-3.7-1.27-.72-.64-1.54-1.79-1.54-3.69v-13.37c0-1.99.76-3.22,1.43-3.93,1.04-1.17,2.41-1.62,3.36-1.85.24-.06.48-.09.73-.09h.57V11.71c0-2.09.93-3.22,1.64-3.78,1.35-1.18,3.13-1.18,3.74-1.18h9.95l.63-1.2c.65-1.31,1.41-2.29,2.3-2.95.95-.75,2.21-1.11,3.86-1.11h9.45c1.92,0,3.52.62,4.53,1.75.46.5,1.31,1.7,1,3.5h15.75c.6,0,2.37,0,3.72,1.17,1.1.85,1.73,2.22,1.73,3.79v17.99c0,.33-.02.65-.07.96,1.59.18,2.58.98,3.15,1.67,1.04,1.25,1.19,2.98,1.19,4.65s-.16,3.54-1.26,4.74c-.3.34-.64.62-1.01.85.92,1.44,1.36,3.34,1.36,5.75v12.95c0,2.95-.9,5.16-2.69,6.56-.06.05-.12.09-.19.13-1.62,1.08-3.75,1.63-6.36,1.63ZM123.87,63.6h9.43c1.62,0,2.48-.3,2.89-.53.15-.18.34-.71.34-1.79v-12.95c0-2.13-.51-2.63-.51-2.63-.13-.12-.72-.53-2.72-.53h-35.56c-1.66,0-3-1.34-3-3v-1.89c0-1.66,1.34-3,3-3h39.7c0-.09,0-.19,0-.29,0-.13,0-.25,0-.36h-39.7c-1.66,0-3-1.34-3-3v-1.82c0-1.66,1.34-3,3-3h35.43V12.75s-20.03,0-20.03,0c-1.08,0-2.07-.58-2.61-1.52-.53-.94-.52-2.09.03-3.02l.43-.72h-8c-.15,0-.27,0-.35.01-.09.12-.25.35-.46.78l-1.5,2.85c-.52.99-1.54,1.61-2.66,1.61h-11.14v33.61c0,1.66-1.34,3-3,3h-3.09v12.2h38.3c.08,0,.14,0,.19,0,.78-.51,1.76-.63,2.65-.31,1.03.37,1.77,1.27,1.94,2.34ZM118.79,61.95s0,0,0,0c0,0,0,0,0,0ZM80.54,49.46s0,0,0,0c0,0,0,0,0,0ZM102.88,7.29s0,0,0,0c0,0,0,0,0,0ZM121.47,60.21c-.31,0-.63-.05-.94-.15-1.23-.41-2.06-1.55-2.06-2.85v-7.63c0-1.66,1.34-3,3-3h3.85c.13,0,.27,0,.4.03,2.32.31,4,1.75,4.49,3.83.05.22.08.45.08.68v2.73c0,1.9-.54,3.37-1.6,4.37-.88.83-2.08,1.26-3.36,1.22h-1.64c-.11.01-.19.03-.26.04-.55.47-1.25.73-1.96.73ZM123.88,59s0,0,0,0t0,0ZM109.08,58.46h-2.66c-1.66,0-3-1.34-3-3v-5.88c0-1.66,1.34-3,3-3h2.66c1.66,0,3,1.34,3,3v5.88c0,1.66-1.34,3-3,3ZM92.91,58.46h-2.73c-1.66,0-3-1.34-3-3v-5.88c0-1.66,1.34-3,3-3h2.73c1.66,0,3,1.34,3,3v5.88c0,1.66-1.34,3-3,3ZM124.13,28.71h-26.39c-1.66,0-3-1.34-3-3v-1.89c0-1.66,1.34-3,3-3h26.39c1.66,0,3,1.34,3,3v1.89c0,1.66-1.34,3-3,3ZM124.13,20.73h-26.39c-1.66,0-3-1.34-3-3v-1.89c0-1.66,1.34-3,3-3h26.39c1.66,0,3,1.34,3,3v1.89c0,1.66-1.34,3-3,3Z"/><path class="cls-3" d="M210.41,69.6h-10.22c-3.76-.09-6.62-1.07-8.57-2.92-.15-.14-.3-.29-.44-.45-.24.69-.62,1.3-1.12,1.79-.06.06-.13.12-.2.18-.97.81-2.23,1.26-3.54,1.26h-7.7c-1.29,0-2.57-.43-3.52-1.19-.72-.54-1.24-1.26-1.55-2.11-.16.18-.33.35-.5.51-1.96,1.85-4.82,2.84-8.51,2.92h-10.29c-1.61,0-3.09-.58-4.15-1.65-1.05-1.05-1.58-2.35-1.58-3.87v-3.85c0-1.52.53-2.82,1.58-3.87,1.06-1.07,2.54-1.65,4.15-1.65h5.12v-1.62c0-.36.04-.71.11-1.06h-4.87c-1.75,0-3.26-.64-4.36-1.86-1.08-1.11-1.65-2.5-1.65-4.01V12.41c0-1.45.56-2.75,1.65-3.88.76-.83,2.12-1.78,4.36-1.78h6.37c.83,0,1.61.15,2.32.45.02-.92.21-2.19,1.18-3.36.06-.07.12-.13.18-.2,1.37-1.38,3.15-1.38,3.74-1.38h39.41c.59,0,2.37,0,3.74,1.38.06.06.12.13.18.2.84,1.01,1.25,2.19,1.25,3.6v29.05c0,.31-.02.6-.06.89.76.2,1.5.56,2.12,1.19.06.06.13.13.18.2.84,1.01,1.25,2.49,1.25,4.51v2.8c0,1.56-.38,2.87-1.12,3.91-.05.07-.11.14-.16.21-.71.83-2.08,1.82-4.59,1.82h-5.43c.07.35.1.7.1,1.06v1.62h5.12c1.61,0,3.09.59,4.15,1.65,1.05,1.05,1.58,2.35,1.58,3.87v3.85c0,1.52-.53,2.82-1.58,3.87-1.06,1.06-2.54,1.65-4.15,1.65ZM194.72,53.49v5.4c0,1.63.34,2.78,1.02,3.42.82.77,2.42,1.23,4.52,1.28h9.88v-2.89h-5.12c-1.57,0-3.02-.59-4.08-1.66-1.06-1.06-1.65-2.53-1.65-4.15v-1.41h-4.57ZM154.54,63.59h9.95c2.03-.04,3.63-.5,4.45-1.27.68-.64,1.02-1.8,1.02-3.42v-5.4h-4.57v1.41c0,1.62-.59,3.09-1.65,4.16-1.07,1.07-2.48,1.65-4.08,1.65h-5.12v2.88ZM179.25,63.46h6.25v-14.43c0-1.66,1.34-3,3-3h21.99v-2.74c0-.05,0-.1,0-.15h-46.56c-1.66,0-3-1.34-3-3V12.75h-6.31s0,0,0,0v33.27h21.64c1.66,0,3,1.34,3,3v14.43ZM169.31,35.59h37.68V8.27s-37.68,0-37.68,0v27.32ZM208.01,8.28h0,0ZM197.67,34.66h-19.11c-1.66,0-3-1.34-3-3v-2.31c0-1.66,1.34-3,3-3h19.11c1.66,0,3,1.34,3,3v2.31c0,1.66-1.34,3-3,3ZM197.67,25.84h-19.11c-1.66,0-3-1.34-3-3v-2.17c0-1.66,1.34-3,3-3h19.11c1.66,0,3,1.34,3,3v2.17c0,1.66-1.34,3-3,3ZM197.67,17.09h-19.11c-1.66,0-3-1.34-3-3v-2.17c0-1.66,1.34-3,3-3h19.11c1.66,0,3,1.34,3,3v2.17c0,1.66-1.34,3-3,3Z"/><path class="cls-2" d="M7.62,21.79c-1.26.21-2.1.07-2.52-.35-.35-.49-.56-1.12-.56-1.89v-6.86c-.14-.98.07-1.68.49-2.1.42-.42,1.26-.84,2.59-1.33l11.48-3.29c1.19-.21,2.03-.14,2.52.28.42.35.63,1.12.56,2.17v6.44c0,1.19-.21,2.03-.7,2.45-.42.49-1.19.84-2.38,1.19l-11.48,3.29ZM19.52,63.79c0,.91-.21,1.61-.56,2.1-.35.42-1.05.7-2.24.7h-3.15c-1.05,0-1.82-.28-2.24-.7-.42-.49-.56-1.19-.56-2.1v-27.86l-3.15.77c-1.19.21-2.03.07-2.45-.35-.42-.49-.63-1.12-.63-1.89v-6.72c0-1.12.21-1.89.63-2.38.42-.56,1.26-.91,2.45-1.19l11.48-3.15c1.26-.14,2.1,0,2.52.42.42.49.63,1.26.56,2.31v5.88c0,1.4-.14,2.38-.35,2.94-.21.63-.98,1.05-2.31,1.47v29.75ZM32.27,64.71c-1.61,1.26-4.13,1.89-7.42,1.89h-1.05c-.98,0-1.68-.14-2.17-.42-.49-.28-.7-.98-.7-2.1v-4.41c0-1.12.21-1.89.7-2.31.42-.35,1.19-.56,2.17-.56h.63c1.05,0,1.75-.21,2.1-.56.35-.42.56-1.12.7-2.03v-7.49c0-.77.21-1.47.77-2.03.49-.63,1.26-.84,2.31-.84h1.33c1.05,0,1.75.21,2.31.77.49.56.7,1.26.7,2.1v10.36c.07,3.78-.7,6.37-2.38,7.63ZM24.71,24.45c.42-.42,1.12-.63,2.24-.63h12.81v-2.17h-12.81c-1.12,0-1.82-.28-2.24-.7-.35-.49-.56-1.26-.56-2.24v-3.01c0-1.33.21-2.17.56-2.59.42-.42,1.12-.63,2.24-.63h12.81v-4.41c0-.7.28-1.33.84-1.89.49-.56,1.26-.84,2.17-.84h5.32c.77,0,1.47.28,2.1.84.56.56.84,1.19.84,1.89v4.41h12.67c1.19,0,1.96.21,2.38.63.35.42.49,1.26.49,2.59v3.01c0,.98-.14,1.75-.49,2.24-.42.42-1.19.7-2.38.7h-12.67v2.17h12.67c1.19,0,1.96.21,2.38.63.35.49.49,1.26.49,2.31v12.18c0,1.12-.14,1.82-.49,2.31-.42.42-1.19.63-2.38.63H26.95c-1.12,0-1.82-.21-2.24-.63-.35-.49-.56-1.19-.56-2.31v-12.18c0-1.05.21-1.82.56-2.31ZM33.04,31.24v3.22h2.17v-3.22h-2.17ZM43.54,55.88c0,.84.35,1.26,1.05,1.26h14.14c.7,0,1.12-.42,1.12-1.26v-5.04c0-.98.21-1.75.63-2.17s1.05-.63,1.96-.63h1.82c.91,0,1.61.21,2.03.7.35.49.56,1.26.56,2.24v12.32c0,1.26-.21,2.1-.56,2.52-.42.42-1.26.7-2.45.7h-24.64c-1.12,0-1.89-.21-2.24-.63-.42-.42-.63-1.26-.63-2.59v-16.59c0-1.05.21-1.75.56-2.24.42-.42,1.12-.63,2.17-.63h1.61c1.19,0,1.89.21,2.31.7.42.42.56,1.19.56,2.17v9.17ZM44.24,31.24v3.22h2.24v-3.22h-2.24ZM50.19,55.18c-.63.56-1.33.84-2.1.84-1.05,0-1.75-.28-2.31-.84-.49-.49-.84-1.19-.84-1.89v-6.72c0-.63.35-1.26.84-1.82.56-.56,1.26-.84,2.17-.84s1.61.28,2.24.84c.56.56.84,1.19.84,1.82v6.72c0,.7-.28,1.4-.84,1.89ZM57.82,55.18c-.56.56-1.26.84-2.1.84-.98,0-1.75-.28-2.31-.84-.49-.49-.77-1.19-.84-1.89v-6.72c.07-.63.35-1.26.84-1.82.56-.56,1.26-.84,2.17-.84s1.68.28,2.24.84c.56.56.84,1.19.84,1.82v6.72c0,.7-.28,1.4-.84,1.89ZM55.44,31.24v3.22h2.17v-3.22h-2.17Z"/><path class="cls-2" d="M119.09,64.56h-39.06c-.77,0-1.33-.14-1.68-.49-.42-.35-.56-.84-.56-1.47v-13.37c0-.84.21-1.47.63-1.89.42-.49,1.05-.77,1.89-.98h3.57V11.71c0-.63.14-1.19.56-1.47.35-.35.98-.49,1.82-.49h11.76l1.47-2.8c.49-.98.98-1.61,1.47-1.96.42-.35,1.12-.49,2.03-.49h9.45c1.05,0,1.89.28,2.31.77.49.49.35,1.26-.28,2.24l-1.33,2.24h20.58c.84,0,1.47.14,1.82.49.42.28.63.84.63,1.47v17.99c0,.77-.21,1.26-.63,1.61-.35.35-.98.49-1.82.49h-35.98v1.82h40.67c.7,0,1.19.21,1.54.63s.49,1.33.49,2.73-.14,2.38-.49,2.73c-.35.42-.84.56-1.54.56h-40.67v1.89h35.56c2.24,0,3.78.42,4.76,1.33.98.91,1.47,2.52,1.47,4.83v12.95c0,2.1-.56,3.43-1.54,4.2-1.05.7-2.59,1.12-4.69,1.12h-9.87c-.63,0-1.19-.28-1.68-.7-.49-.49-.77-1.05-.84-1.82-.35.35-.98.49-1.82.49ZM92.91,55.46v-5.88h-2.73v5.88h2.73ZM124.13,15.84h-26.39v1.89h26.39v-1.89ZM124.13,23.82h-26.39v1.89h26.39v-1.89ZM106.42,55.46h2.66v-5.88h-2.66v5.88ZM123.5,56.45h1.89c1.26.07,1.89-.84,1.89-2.59v-2.73c-.21-.91-.91-1.4-1.96-1.54h-3.85v7.63c.21-.28.42-.42.7-.49.35-.14.77-.21,1.33-.28Z"/><path class="cls-2" d="M170.44,50.49c.7.07,1.33.28,1.75.77.49.49.77,1.12.77,1.82v5.81c0,2.45-.63,4.34-1.96,5.6-1.33,1.26-3.5,2.03-6.51,2.1h-10.22c-.84,0-1.54-.28-2.03-.77-.49-.49-.7-1.05-.7-1.75v-3.85c0-.7.21-1.26.7-1.75.49-.49,1.19-.77,2.03-.77h5.39c.84,0,1.47-.28,1.96-.77.49-.49.77-1.19.77-2.03v-1.82c0-.7.28-1.33.77-1.82s1.12-.7,1.82-.77h5.46ZM188.5,49.02v15.26c0,.7-.21,1.26-.56,1.61-.42.35-.98.56-1.61.56h-7.7c-.63,0-1.26-.21-1.68-.56-.49-.35-.7-.91-.7-1.61v-15.26h-21.63c-.98,0-1.68-.35-2.17-.91-.56-.56-.84-1.19-.84-1.96V12.41c0-.7.28-1.26.84-1.82.49-.56,1.19-.84,2.17-.84h6.37c.84,0,1.54.28,2.1.84.56.56.84,1.12.84,1.82v27.72h46.69c1.12,0,1.89.14,2.31.56.35.42.56,1.33.56,2.59v2.8c0,.98-.21,1.68-.56,2.17-.42.49-1.19.77-2.31.77h-22.12ZM209.43,5.76c.35.42.56.91.56,1.68v29.05c0,.7-.21,1.26-.56,1.61-.35.35-.84.49-1.61.49h-39.41c-.77,0-1.26-.14-1.61-.49-.35-.35-.49-.91-.49-1.61V7.44c0-.77.14-1.26.49-1.68.35-.35.84-.49,1.61-.49h39.41c.77,0,1.26.14,1.61.49ZM197.67,11.92h-19.11v2.17h19.11v-2.17ZM197.67,20.67h-19.11v2.17h19.11v-2.17ZM197.67,29.35h-19.11v2.31h19.11v-2.31ZM201.52,51.26c.49.49.77,1.12.77,1.82v1.82c0,.84.28,1.54.77,2.03.49.49,1.19.77,1.96.77h5.39c.84,0,1.54.28,2.03.77s.7,1.05.7,1.75v3.85c0,.7-.21,1.26-.7,1.75s-1.19.77-2.03.77h-10.22c-3.01-.07-5.18-.84-6.51-2.1-1.33-1.26-1.96-3.15-1.96-5.6v-5.81c0-.7.28-1.33.77-1.82.42-.49,1.05-.7,1.75-.77h5.46c.7.07,1.33.28,1.82.77Z"/></g></svg>