<?xml version="1.0" encoding="UTF-8"?><svg id="_レイヤー_2" xmlns="http://www.w3.org/2000/svg" viewBox="0 0 216.54 70.61"><defs><style>.cls-1,.cls-2,.cls-3{stroke-width:0px;}.cls-2{fill:#198caa;}.cls-3{fill:#fff;}</style></defs><g id="_レイヤー_4"><path class="cls-1" d="M11.92,17.94c.56.56.84,1.19.84,1.82v25.83h1.26V7.72c.07-.63.35-1.26.91-1.82.49-.56,1.19-.84,2.1-.84h2.38c.77,0,1.47.28,1.96.84s.84,1.19.98,1.82v37.88h1.26v-25.83c.07-.63.35-1.26.84-1.82.56-.56,1.26-.84,2.17-.84h2.31c.84,0,1.54.28,2.1.84.56.56.84,1.19.84,1.82v33.53c-.14.77-.42,1.4-.91,1.96-.56.56-1.19.84-2.03.84H7.51c-.91,0-1.68-.28-2.17-.84-.56-.56-.84-1.19-.84-1.89V19.76c0-.63.28-1.26.84-1.82.49-.56,1.26-.84,2.17-.84h2.31c.84,0,1.47.28,2.1.84ZM34.25,23.4c-.35-.49-.56-1.26-.56-2.24v-4.41c0-1.33.21-2.17.56-2.59.42-.42,1.19-.63,2.31-.63h8.19v-5.81c0-.63.35-1.26.84-1.82.56-.56,1.26-.84,2.17-.84h4.76c.84,0,1.54.28,2.1.84.56.56.84,1.19.84,1.82v5.81h7.98c1.19,0,2.03.21,2.45.63.35.42.56,1.26.56,2.59v4.41c0,.98-.21,1.75-.56,2.24-.42.42-1.26.7-2.45.7h-7.98v2.59h8.19c.77.07,1.4.35,1.89.91.49.49.77,1.19.77,1.89v5.46c0,1.33-.7,3.64-2.24,7-1.33,2.87-3.5,6.16-6.58,9.87,1.82.91,3.99,1.68,6.44,2.38.77,0,1.33.28,1.89.7.49.49.7,1.05.7,1.82v6.37c0,.77-.21,1.33-.7,1.82-.56.42-1.12.7-1.89.77-4.9-.56-9.45-2.59-13.72-6.02-1.89,1.47-3.71,2.66-5.53,3.43-3.78,1.68-6.58,2.52-8.33,2.59-.77-.07-1.33-.35-1.89-.77-.49-.49-.7-1.05-.7-1.82v-6.37c0-.77.21-1.33.7-1.82.56-.42,1.12-.7,1.89-.7,2.1-.7,4.13-1.47,6.09-2.38-1.47-1.54-2.73-3.36-3.99-5.46-1.26-2.03-1.89-3.78-1.96-5.32,0-.7.14-1.26.49-1.54.28-.28.84-.42,1.54-.42h3.78c.63,0,1.26.28,1.75.84.49.56,1.4,1.68,2.73,3.43,1.26,1.68,2.45,3.01,3.43,3.85,3.08-2.73,5.32-5.95,6.86-9.59h-20.23c-.7,0-1.33-.21-1.82-.7s-.77-1.05-.77-1.82v-5.6c0-.7.28-1.4.77-1.89.49-.56,1.12-.84,1.82-.91h7.91v-2.59h-8.19c-1.12,0-1.89-.28-2.31-.7Z"/><path class="cls-1" d="M99.26,26.13v2.03h28.63c1.47,0,2.52.35,3.22.98.63.56.98,1.61.98,3.08v9.24c0,1.47-.35,2.52-.98,3.01-.63.56-1.68.84-3.15.84h-12.32v2.17h20.51c1.19,0,2.03.21,2.45.7s.56,1.26.56,2.24v2.45c-.07,1.33-.28,2.17-.63,2.59-.42.42-1.19.63-2.38.63h-20.51v7.91c0,.7-.28,1.19-.7,1.61-.49.35-1.05.49-1.75.49h-9.8c-.7,0-1.26-.14-1.61-.49-.42-.42-.63-.91-.63-1.61v-7.91h-20.58c-1.12,0-1.89-.21-2.31-.63-.42-.42-.56-1.26-.56-2.59v-2.45c0-.98.14-1.75.56-2.24s1.19-.7,2.31-.7h20.58v-2.17h-12.18c-1.33,0-2.31-.28-3.01-.77-.77-.49-1.12-1.61-1.12-3.22V13.18c0-1.47.35-2.52,1.05-3.15.7-.63,1.68-.98,3.01-.98h12.25v-2.45c0-.7.21-1.19.63-1.61.35-.35.91-.49,1.61-.49h9.8c.7,0,1.26.14,1.75.49.42.42.7.91.7,1.61v2.45h12.25c1.47,0,2.52.28,3.22.91.63.63.98,1.68.98,3.15v9.17c0,1.54-.35,2.52-.98,3.08-.63.49-1.68.77-3.15.77h-28.7ZM117.6,16.4h-18.34v2.31h18.34v-2.31ZM117.6,35.58h-18.34v2.24h18.34v-2.24Z"/><path class="cls-1" d="M168.98,49.94c.7.07,1.33.28,1.75.77.49.49.77,1.12.77,1.82v5.81c0,2.45-.63,4.34-1.96,5.6-1.33,1.26-3.5,2.03-6.51,2.1h-10.22c-.84,0-1.54-.28-2.03-.77-.49-.49-.7-1.05-.7-1.75v-3.85c0-.7.21-1.26.7-1.75.49-.49,1.19-.77,2.03-.77h5.39c.84,0,1.47-.28,1.96-.77.49-.49.77-1.19.77-2.03v-1.82c0-.7.28-1.33.77-1.82s1.12-.7,1.82-.77h5.46ZM187.04,48.46v15.26c0,.7-.21,1.26-.56,1.61-.42.35-.98.56-1.61.56h-7.7c-.63,0-1.26-.21-1.68-.56-.49-.35-.7-.91-.7-1.61v-15.26h-21.63c-.98,0-1.68-.35-2.17-.91-.56-.56-.84-1.19-.84-1.96V11.85c0-.7.28-1.26.84-1.82.49-.56,1.19-.84,2.17-.84h6.37c.84,0,1.54.28,2.1.84.56.56.84,1.12.84,1.82v27.72h46.69c1.12,0,1.89.14,2.31.56.35.42.56,1.33.56,2.59v2.8c0,.98-.21,1.68-.56,2.17-.42.49-1.19.77-2.31.77h-22.12ZM207.98,5.2c.35.42.56.91.56,1.68v29.05c0,.7-.21,1.26-.56,1.61-.35.35-.84.49-1.61.49h-39.41c-.77,0-1.26-.14-1.61-.49-.35-.35-.49-.91-.49-1.61V6.88c0-.77.14-1.26.49-1.68.35-.35.84-.49,1.61-.49h39.41c.77,0,1.26.14,1.61.49ZM196.21,11.36h-19.11v2.17h19.11v-2.17ZM196.21,20.11h-19.11v2.17h19.11v-2.17ZM196.21,28.79h-19.11v2.31h19.11v-2.31ZM200.06,50.71c.49.49.77,1.12.77,1.82v1.82c0,.84.28,1.54.77,2.03.49.49,1.19.77,1.96.77h5.39c.84,0,1.54.28,2.03.77s.7,1.05.7,1.75v3.85c0,.7-.21,1.26-.7,1.75s-1.19.77-2.03.77h-10.22c-3.01-.07-5.18-.84-6.51-2.1-1.33-1.26-1.96-3.15-1.96-5.6v-5.81c0-.7.28-1.33.77-1.82.42-.49,1.05-.7,1.75-.77h5.46c.7.07,1.33.28,1.82.77Z"/><path class="cls-2" d="M63.94,70.19c-.17,0-.34,0-.51-.03-4.62-.53-9.06-2.19-13.23-4.94-1.3.85-2.54,1.51-3.75,2.02-4.21,1.87-7.47,2.85-9.9,2.94-.2,0-.39,0-.59-.02-1.52-.14-2.88-.68-4.18-1.65-.17-.13-.33-.26-.47-.41-1.34-1.34-2.03-3.02-2.03-5.01v-2.51c-.11,0-.22,0-.33,0H7.51c-2.18,0-4.11-.8-5.45-2.26-1.35-1.39-2.06-3.11-2.06-4.97V19.76c0-1.79.73-3.53,2.06-4.9,1.34-1.46,3.27-2.26,5.45-2.26h2.01v-4.88c0-.17,0-.33.03-.5.18-1.65.91-3.17,2.1-4.4,1.34-1.46,3.24-2.26,5.38-2.26h2.38c2.11,0,4.01.84,5.35,2.38,1,1.14,1.68,2.46,1.99,3.8.07.32.11.65.11.98v4.88h2.08c.34,0,.67.02,1,.06.23-.51.52-.97.86-1.38.09-.1.18-.21.28-.3,1.29-1.29,3.14-1.95,5.49-1.95h3.69v-1.31c0-1.16.34-2.94,1.95-4.78.07-.07.13-.15.2-.22,1.41-1.41,3.26-2.16,5.35-2.16h4.76c2.04,0,3.87.75,5.28,2.16,1.39,1.4,2.16,3.17,2.16,5v1.31h3.48c2.48,0,4.32.64,5.63,1.95.1.1.19.19.27.3,1.1,1.31,1.61,3.05,1.61,5.47v4.41c0,1.76-.41,3.33-1.2,4.57.69,1.12,1.06,2.43,1.06,3.76v5.46c0,1.33-.27,3.69-2.65,8.88-.86,1.86-2.01,3.84-3.44,5.92,1.34.14,2.59.66,3.8,1.56.17.13.33.27.49.42,1.34,1.34,2.01,3.02,2.01,5v6.37c0,1.98-.68,3.67-2.02,5.01-.15.15-.31.29-.48.42-1.3.97-2.67,1.51-4.18,1.65-.14.01-.27.02-.41.02ZM50.21,55.17c1,0,2,.33,2.82.99,2.92,2.35,5.88,3.87,8.99,4.63v-2.45c-2.6-.77-4.75-1.59-6.54-2.48-1.23-.61-2.11-1.76-2.39-3.1-.15-.72-.12-1.46.07-2.15-1.68,1.46-4.19,1.47-5.88.02-.25-.21-.5-.45-.76-.69.39.84.52,1.8.34,2.74-.27,1.43-1.21,2.63-2.53,3.24-1.83.85-3.82,1.64-6.08,2.4v2.43c1.05-.31,2.54-.85,4.59-1.76,1.36-.58,2.84-1.51,4.59-2.87.81-.63,1.79-.95,2.76-.95ZM9,51.6h18.37v-3.53c-.8,1.22-2.19,2.03-3.76,2.03h-1.26c-1.88,0-3.49-1.16-4.17-2.8-.67,1.64-2.28,2.8-4.17,2.8h-1.26c-1.57,0-2.96-.81-3.76-2.03v3.53ZM38.75,33.11h18.32c1.51,0,2.92.76,3.75,2.01.28.42.48.89.61,1.37.36-1.1.38-1.53.38-1.56v-3.74h-6.35c-2.49,0-4.5-2.01-4.5-4.5v-2.59c0-2.49,2.01-4.5,4.5-4.5h6.49v-1.57h-6.49c-2.49,0-4.5-2.01-4.5-4.5v-3.97h-1.71v3.97c0,2.49-2.01,4.5-4.5,4.5h-6.56v1.57h6.56c2.49,0,4.5,2.01,4.5,4.5v2.59c0,2.49-2.01,4.5-4.5,4.5h-6v1.92Z"/><path class="cls-2" d="M113.19,70.61h-9.8c-2.47,0-3.97-.98-4.79-1.81-1.28-1.27-1.95-2.93-1.95-4.79v-3.41h-16.08c-2.35,0-4.2-.66-5.49-1.95-1.66-1.66-1.88-3.85-1.88-5.77v-2.45c0-.8,0-3.25,1.64-5.17,1.27-1.48,3.16-2.25,5.6-2.27-.07-.51-.1-1.06-.1-1.66V13.18c0-2.79.85-4.97,2.54-6.49,1.08-.98,3.01-2.14,6.03-2.14h8.05c.31-1.03.87-1.96,1.65-2.74.82-.82,2.33-1.81,4.79-1.81h9.8c1.66,0,3.13.45,4.37,1.33.2.14.39.3.56.48.9.9,1.42,1.86,1.71,2.75h8.07c2.65,0,4.69.68,6.23,2.07.06.05.11.1.17.16,1.05,1.05,2.3,3,2.3,6.33v9.17c0,1.99-.42,3.65-1.25,4.98.69,1.12,1.25,2.72,1.25,4.96v9.24c0,.54-.03,1.05-.09,1.52,1.2.02,3.77.23,5.52,2.27,1.64,1.92,1.64,4.36,1.64,5.17v2.45c0,.08,0,.16,0,.23-.08,1.6-.35,3.65-1.66,5.23-.09.11-.19.21-.29.31-1.95,1.94-4.67,1.94-5.56,1.94h-16.01v3.41c0,1.27-.35,3.13-2.02,4.8-.17.17-.36.33-.56.48-1.23.88-2.7,1.33-4.37,1.33ZM105.65,61.61h5.49v-5.51c0-2.03,1.34-3.74,3.19-4.31-1.84-.56-3.19-2.28-3.19-4.31v-2.17c0-1.15.43-2.2,1.14-2.99h-7.77c.71.79,1.14,1.84,1.14,2.99v2.17c0,2.03-1.34,3.74-3.19,4.31,1.84.56,3.19,2.28,3.19,4.31v5.51ZM120.97,40.81h6.63v-8.15h-6.57c.67.79,1.08,1.81,1.08,2.92v2.24c0,1.15-.43,2.2-1.14,2.99ZM89.34,40.81h6.56c-.71-.79-1.14-1.84-1.14-2.99v-2.24c0-1.54.77-2.9,1.95-3.71-1.18-.81-1.95-2.17-1.95-3.71v-2.03c0-1.54.77-2.9,1.95-3.71-1.18-.81-1.95-2.17-1.95-3.71v-2.31c0-1.08.38-2.08,1.02-2.85h-6.44v27.26ZM128.45,32.71h.01-.01ZM121.03,21.63h6.57v-8.08h-6.51c.64.78,1.02,1.77,1.02,2.85v2.31c0,1.11-.41,2.13-1.08,2.92ZM104.63,11.9h7.53c-.64-.78-1.02-1.77-1.02-2.85v-.05h-5.49v.05c0,1.08-.38,2.08-1.02,2.85Z"/><path class="cls-2" d="M208.96,70.54h-10.22s-.07,0-.11,0c-3.51-.08-6.37-.93-8.52-2.51-.14.17-.29.34-.44.49-.09.09-.19.18-.29.27-1.24,1.04-2.84,1.61-4.5,1.61h-7.7c-1.62,0-3.22-.54-4.43-1.5-.37-.28-.7-.6-.99-.94-2.16,1.63-5.05,2.5-8.61,2.58-.04,0-.07,0-.11,0h-10.22c-2.01,0-3.87-.74-5.21-2.09-1.32-1.32-2.02-3.03-2.02-4.93v-3.85c0-1.9.7-3.61,2.01-4.93,1.03-1.03,2.35-1.7,3.81-1.97-1.43-.33-2.71-1.06-3.69-2.14-1.35-1.4-2.06-3.13-2.06-5.04V11.85c0-1.84.69-3.49,2.06-4.91.97-1.06,2.68-2.25,5.45-2.25h6.37c.37,0,.73.02,1.08.07.25-.91.67-1.72,1.27-2.44.08-.1.17-.2.27-.29,1.2-1.21,2.81-1.82,4.8-1.82h39.41c1.99,0,3.6.61,4.8,1.82.09.09.18.19.27.29,1.06,1.28,1.6,2.81,1.6,4.56v28.93c.56.27,1.12.64,1.62,1.14.1.1.19.2.28.3,1.08,1.29,1.6,3.08,1.6,5.47v2.8c0,1.87-.47,3.48-1.4,4.78-.08.11-.16.21-.25.31-.75.87-2.04,1.88-4.17,2.22,1.32.3,2.5.95,3.44,1.89,1.32,1.32,2.02,3.03,2.02,4.93v3.85c0,1.91-.7,3.61-2.02,4.93-1.35,1.35-3.2,2.09-5.21,2.09ZM198.79,61.54h3.48c-1.47-.25-2.8-.93-3.85-1.98-1.32-1.32-2.07-3.14-2.09-5.12h-1.57v3.9c0,1.15.2,2,.56,2.34.14.13.97.8,3.47.86ZM159.52,61.54h3.46c2.5-.07,3.33-.73,3.47-.87.35-.33.55-1.18.55-2.33v-3.9h-1.57c-.02,1.98-.76,3.8-2.09,5.13-1.05,1.05-2.36,1.72-3.82,1.97ZM179.29,61.4h3.25v-12.93c0-2.15,1.5-3.94,3.51-4.39h-10.27c2.01.45,3.51,2.25,3.51,4.39v12.93ZM154.65,43.96h6.83c-2.01-.45-3.51-2.25-3.51-4.39V13.69h-3.32v30.27ZM200,33.53h4.03V9.21h-3.87c.35.64.55,1.37.55,2.15v2.17c0,1.3-.55,2.47-1.43,3.29.88.82,1.43,1.99,1.43,3.29v2.17c0,1.28-.53,2.44-1.39,3.25.86.82,1.39,1.97,1.39,3.25v2.31c0,.9-.26,1.73-.71,2.43ZM169.35,33.53h3.96c-.45-.7-.71-1.53-.71-2.43v-2.31c0-1.28.53-2.44,1.39-3.25-.86-.82-1.39-1.97-1.39-3.25v-2.17c0-1.3.55-2.47,1.43-3.29-.88-.82-1.43-1.99-1.43-3.29v-2.17c0-.78.2-1.51.55-2.15h-3.8v24.32ZM206.41,9.21h.01-.01Z"/><path class="cls-3" d="M63.94,68.69c-.11,0-.23,0-.34-.02-4.69-.54-9.19-2.3-13.4-5.26-1.54,1.07-2.96,1.87-4.34,2.45-4.06,1.8-7.14,2.74-9.38,2.83-.13,0-.26,0-.39,0-1.64-.15-2.74-.85-3.42-1.36-.11-.08-.22-.18-.32-.27-1.05-1.05-1.58-2.37-1.58-3.95v-4.28c-.57.18-1.18.28-1.83.28H7.51c-1.76,0-3.31-.63-4.36-1.79-1.08-1.11-1.65-2.47-1.65-3.94V19.76c0-1.4.59-2.78,1.65-3.88,1.05-1.15,2.59-1.78,4.36-1.78h2.31c.41,0,.81.04,1.2.11v-6.49c0-.11,0-.22.02-.33.15-1.32.74-2.54,1.7-3.54.76-.83,2.1-1.79,4.29-1.79h2.38c1.67,0,3.17.66,4.22,1.86.83.95,1.41,2.04,1.65,3.14.05.21.07.43.07.65v6.5c.41-.08.83-.12,1.27-.12h2.31c.7,0,1.37.11,1.99.32.2-.88.54-1.6,1.03-2.18.06-.07.12-.14.18-.2,1.02-1.02,2.46-1.51,4.43-1.51h5.19v-2.81c0-1.32.53-2.6,1.58-3.8.04-.05.09-.1.13-.14,1.12-1.13,2.61-1.72,4.29-1.72h4.76c1.64,0,3.1.59,4.22,1.72,1.11,1.11,1.72,2.51,1.72,3.94v2.81h4.98c2.06,0,3.56.49,4.57,1.51.06.06.12.13.18.2.86,1.03,1.26,2.46,1.26,4.51v4.41c0,1.58-.39,2.96-1.12,3.99-.1.13-.2.26-.32.38-.05.05-.11.1-.16.16.93,1.03,1.46,2.4,1.46,3.81v5.46c0,1.19-.26,3.34-2.51,8.25-1.05,2.27-2.56,4.73-4.5,7.35.66.22,1.37.45,2.12.67,1.49.12,2.52.78,3.2,1.28.11.09.22.18.32.28,1.05,1.05,1.58,2.37,1.58,3.94v6.37c0,1.57-.53,2.9-1.58,3.94-.1.1-.21.19-.32.28-.68.51-1.78,1.21-3.42,1.36-.09,0-.18.01-.27.01ZM36.76,57.18v5.46c.98-.14,3.01-.64,6.7-2.28,1.48-.63,3.02-1.59,4.91-3.06,1.1-.85,2.64-.84,3.72.03,3.67,2.94,7.41,4.68,11.43,5.28v-5.43c-.14-.02-.28-.05-.41-.09-2.82-.8-5.1-1.65-6.96-2.58-.82-.41-1.41-1.17-1.59-2.07-.19-.9.04-1.83.63-2.53,2.85-3.43,4.92-6.53,6.17-9.22,1.87-4.08,1.96-5.5,1.96-5.74v-5.26h-7.85c-1.66,0-3-1.34-3-3v-2.59c0-1.66,1.34-3,3-3h7.99v-4.35c0-.08,0-.15,0-.22h-7.99c-1.66,0-3-1.34-3-3v-5.47h-4.7s0,0,0,0v5.47c0,1.66-1.34,3-3,3h-8.06c0,.07,0,.14,0,.22v4.35h8.06c1.66,0,3,1.34,3,3v2.59c0,1.66-1.34,3-3,3h-7.5v4.92h19.82c1.01,0,1.94.5,2.5,1.34.56.84.66,1.9.26,2.83-1.75,4.14-4.32,7.73-7.63,10.67-1.12.99-2.81,1.01-3.94.03-1.16-.99-2.5-2.49-3.88-4.33-1.31-1.73-2.09-2.67-2.43-3.07h-2.25c.24.79.67,1.7,1.3,2.7,1.33,2.22,2.44,3.75,3.61,4.97.67.7.96,1.68.78,2.63-.18.95-.81,1.76-1.68,2.16-1.91.88-4,1.7-6.41,2.5-.17.06-.35.1-.54.12ZM7.5,53.1h21.33s.03-.08.05-.13V20.11h-2.25s0,0,0,0v25.49c0,1.66-1.34,3-3,3h-1.26c-1.66,0-3-1.34-3-3V8.21s-.05-.09-.09-.15h-2.24v37.54c0,1.66-1.34,3-3,3h-1.26c-1.66,0-3-1.34-3-3v-25.52l-2.25.02h-.01v32.99ZM34.87,46.1v5.29c.28-.07.58-.13.91-.16.63-.21,1.24-.43,1.82-.64-.56-.8-1.12-1.69-1.72-2.68-.38-.62-.72-1.22-1.01-1.81ZM48.46,40.61c.22.28.46.59.71.93.37.5.74.96,1.09,1.38.65-.73,1.25-1.5,1.8-2.31h-3.6Z"/><path class="cls-3" d="M113.19,69.11h-9.8c-1.57,0-2.82-.46-3.73-1.37-1-1-1.51-2.26-1.51-3.73v-4.91h-17.58c-1.97,0-3.42-.49-4.43-1.51-1.26-1.27-1.44-3.02-1.44-4.71v-2.45c0-1.16.13-2.85,1.28-4.19,1.5-1.75,3.82-1.75,4.59-1.75h1.76c-.33-.89-.49-1.95-.49-3.16V13.18c0-2.35.69-4.16,2.04-5.38,1.29-1.16,2.98-1.75,5.02-1.75h9.28c.11-1.24.61-2.31,1.49-3.18.91-.91,2.16-1.37,3.73-1.37h9.8c1.36,0,2.51.34,3.49,1.05.13.1.26.2.38.32.91.91,1.43,1.98,1.55,3.18h9.28c2.26,0,3.97.55,5.23,1.68.04.03.08.07.11.11,1.23,1.23,1.86,3.01,1.86,5.27v9.17c0,2.13-.55,3.8-1.63,4.97.8.87,1.63,2.4,1.63,4.97v9.24c0,1.24-.19,2.23-.48,3.02h1.54c.8,0,3.23,0,4.73,1.75,1.15,1.34,1.28,3.03,1.28,4.19v2.45c0,.05,0,.1,0,.16-.11,2.04-.51,3.38-1.32,4.35-.06.07-.12.14-.19.21-1.02,1.01-2.49,1.5-4.5,1.5h-17.51v4.91c0,1.43-.53,2.69-1.58,3.73-.12.12-.24.22-.38.32-.99.71-2.13,1.05-3.49,1.05ZM104.15,63.11h8.49v-7.01c0-1.66,1.34-3,3-3h20.5c0-.09.01-.19.02-.3v-2.31h-20.52c-1.66,0-3-1.34-3-3v-2.17c0-1.66,1.34-3,3-3h12.32c.55,0,.89-.05,1.07-.1.03-.16.06-.4.06-.75v-9.24c0-.47-.05-.76-.09-.9-.17-.07-.52-.16-1.11-.16h-28.63c-1.66,0-3-1.34-3-3v-2.03c0-1.66,1.34-3,3-3h28.7c.52,0,.86-.05,1.08-.09.03-.16.05-.41.05-.76v-9.17c0-.5-.06-.8-.1-.96-.16-.04-.49-.1-1.1-.1h-12.25c-1.66,0-3-1.34-3-3v-1.55h-8.49v1.55c0,1.66-1.34,3-3,3h-12.25c-.43,0-.77.06-.94.17-.04.1-.12.39-.12.96v28.14c0,.42.03.69.06.86.22.07.58.13,1.07.13h12.18c1.66,0,3,1.34,3,3v2.17c0,1.66-1.34,3-3,3h-20.45v2.39c0,.08,0,.15,0,.22h20.45c1.66,0,3,1.34,3,3v7.01ZM136.87,53.04h0,0ZM129.27,42.11s0,0,0,0c0,0,0,0,0,0ZM129.12,31.38s0,0,0,0t0,0ZM117.6,40.82h-18.34c-1.66,0-3-1.34-3-3v-2.24c0-1.66,1.34-3,3-3h18.34c1.66,0,3,1.34,3,3v2.24c0,1.66-1.34,3-3,3ZM117.6,21.71h-18.34c-1.66,0-3-1.34-3-3v-2.31c0-1.66,1.34-3,3-3h18.34c1.66,0,3,1.34,3,3v2.31c0,1.66-1.34,3-3,3Z"/><path class="cls-3" d="M208.96,69.04h-10.22c-3.76-.09-6.62-1.07-8.57-2.92-.15-.15-.3-.29-.44-.45-.24.69-.62,1.3-1.12,1.79-.06.06-.13.12-.2.18-.97.81-2.23,1.26-3.54,1.26h-7.7c-1.29,0-2.57-.43-3.52-1.19-.72-.54-1.24-1.26-1.55-2.11-.16.18-.33.35-.5.51-1.96,1.85-4.82,2.84-8.51,2.92h-10.29c-1.61,0-3.09-.58-4.15-1.65-1.05-1.05-1.58-2.35-1.58-3.87v-3.85c0-1.52.53-2.82,1.58-3.87,1.06-1.06,2.54-1.65,4.15-1.65h5.12v-1.62c0-.36.04-.71.11-1.06h-4.87c-1.75,0-3.26-.64-4.36-1.86-1.08-1.11-1.65-2.5-1.65-4.01V11.85c0-1.45.56-2.75,1.65-3.88.76-.83,2.12-1.78,4.36-1.78h6.37c.83,0,1.61.15,2.32.45.02-.92.21-2.19,1.18-3.36.06-.07.12-.13.18-.2,1.37-1.38,3.15-1.38,3.74-1.38h39.41c.59,0,2.37,0,3.74,1.38.06.06.12.13.18.2.84,1.01,1.25,2.19,1.25,3.6v29.05c0,.31-.02.6-.06.89.76.2,1.5.56,2.12,1.19.06.06.13.13.18.2.84,1.01,1.25,2.49,1.25,4.51v2.8c0,1.56-.38,2.87-1.12,3.91-.05.07-.11.14-.16.21-.71.83-2.08,1.82-4.59,1.82h-5.43c.07.35.1.7.1,1.06v1.62h5.12c1.61,0,3.09.59,4.15,1.65,1.05,1.05,1.58,2.35,1.58,3.87v3.85c0,1.52-.53,2.82-1.58,3.87-1.06,1.06-2.54,1.65-4.15,1.65ZM193.26,52.94v5.4c0,1.63.34,2.78,1.02,3.43.82.77,2.42,1.23,4.52,1.28h9.88v-2.89h-5.12c-1.57,0-3.02-.59-4.08-1.66-1.06-1.06-1.65-2.53-1.65-4.15v-1.41h-4.57ZM153.08,63.03h9.95c2.03-.04,3.63-.5,4.45-1.27.68-.64,1.02-1.79,1.02-3.42v-5.4h-4.57v1.41c0,1.62-.59,3.09-1.65,4.15-1.07,1.07-2.48,1.65-4.08,1.65h-5.12v2.88ZM177.79,62.9h6.25v-14.43c0-1.66,1.34-3,3-3h21.99v-2.74c0-.05,0-.1,0-.15h-46.56c-1.66,0-3-1.34-3-3V12.2h-6.31s0,0,0,0v33.27h21.64c1.66,0,3,1.34,3,3v14.43ZM167.85,35.03h37.68V7.71s-37.68,0-37.68,0v27.32ZM206.55,7.72h0,0ZM196.21,34.1h-19.11c-1.66,0-3-1.34-3-3v-2.31c0-1.66,1.34-3,3-3h19.11c1.66,0,3,1.34,3,3v2.31c0,1.66-1.34,3-3,3ZM196.21,25.28h-19.11c-1.66,0-3-1.34-3-3v-2.17c0-1.66,1.34-3,3-3h19.11c1.66,0,3,1.34,3,3v2.17c0,1.66-1.34,3-3,3ZM196.21,16.53h-19.11c-1.66,0-3-1.34-3-3v-2.17c0-1.66,1.34-3,3-3h19.11c1.66,0,3,1.34,3,3v2.17c0,1.66-1.34,3-3,3Z"/><path class="cls-2" d="M11.92,17.94c.56.56.84,1.19.84,1.82v25.83h1.26V7.72c.07-.63.35-1.26.91-1.82.49-.56,1.19-.84,2.1-.84h2.38c.77,0,1.47.28,1.96.84s.84,1.19.98,1.82v37.88h1.26v-25.83c.07-.63.35-1.26.84-1.82.56-.56,1.26-.84,2.17-.84h2.31c.84,0,1.54.28,2.1.84.56.56.84,1.19.84,1.82v33.53c-.14.77-.42,1.4-.91,1.96-.56.56-1.19.84-2.03.84H7.51c-.91,0-1.68-.28-2.17-.84-.56-.56-.84-1.19-.84-1.89V19.76c0-.63.28-1.26.84-1.82.49-.56,1.26-.84,2.17-.84h2.31c.84,0,1.47.28,2.1.84ZM34.25,23.4c-.35-.49-.56-1.26-.56-2.24v-4.41c0-1.33.21-2.17.56-2.59.42-.42,1.19-.63,2.31-.63h8.19v-5.81c0-.63.35-1.26.84-1.82.56-.56,1.26-.84,2.17-.84h4.76c.84,0,1.54.28,2.1.84.56.56.84,1.19.84,1.82v5.81h7.98c1.19,0,2.03.21,2.45.63.35.42.56,1.26.56,2.59v4.41c0,.98-.21,1.75-.56,2.24-.42.42-1.26.7-2.45.7h-7.98v2.59h8.19c.77.07,1.4.35,1.89.91.49.49.77,1.19.77,1.89v5.46c0,1.33-.7,3.64-2.24,7-1.33,2.87-3.5,6.16-6.58,9.87,1.82.91,3.99,1.68,6.44,2.38.77,0,1.33.28,1.89.7.49.49.7,1.05.7,1.82v6.37c0,.77-.21,1.33-.7,1.82-.56.42-1.12.7-1.89.77-4.9-.56-9.45-2.59-13.72-6.02-1.89,1.47-3.71,2.66-5.53,3.43-3.78,1.68-6.58,2.52-8.33,2.59-.77-.07-1.33-.35-1.89-.77-.49-.49-.7-1.05-.7-1.82v-6.37c0-.77.21-1.33.7-1.82.56-.42,1.12-.7,1.89-.7,2.1-.7,4.13-1.47,6.09-2.38-1.47-1.54-2.73-3.36-3.99-5.46-1.26-2.03-1.89-3.78-1.96-5.32,0-.7.14-1.26.49-1.54.28-.28.84-.42,1.54-.42h3.78c.63,0,1.26.28,1.75.84.49.56,1.4,1.68,2.73,3.43,1.26,1.68,2.45,3.01,3.43,3.85,3.08-2.73,5.32-5.95,6.86-9.59h-20.23c-.7,0-1.33-.21-1.82-.7s-.77-1.05-.77-1.82v-5.6c0-.7.28-1.4.77-1.89.49-.56,1.12-.84,1.82-.91h7.91v-2.59h-8.19c-1.12,0-1.89-.28-2.31-.7Z"/><path class="cls-2" d="M99.26,26.13v2.03h28.63c1.47,0,2.52.35,3.22.98.63.56.98,1.61.98,3.08v9.24c0,1.47-.35,2.52-.98,3.01-.63.56-1.68.84-3.15.84h-12.32v2.17h20.51c1.19,0,2.03.21,2.45.7s.56,1.26.56,2.24v2.45c-.07,1.33-.28,2.17-.63,2.59-.42.42-1.19.63-2.38.63h-20.51v7.91c0,.7-.28,1.19-.7,1.61-.49.35-1.05.49-1.75.49h-9.8c-.7,0-1.26-.14-1.61-.49-.42-.42-.63-.91-.63-1.61v-7.91h-20.58c-1.12,0-1.89-.21-2.31-.63-.42-.42-.56-1.26-.56-2.59v-2.45c0-.98.14-1.75.56-2.24s1.19-.7,2.31-.7h20.58v-2.17h-12.18c-1.33,0-2.31-.28-3.01-.77-.77-.49-1.12-1.61-1.12-3.22V13.18c0-1.47.35-2.52,1.05-3.15.7-.63,1.68-.98,3.01-.98h12.25v-2.45c0-.7.21-1.19.63-1.61.35-.35.91-.49,1.61-.49h9.8c.7,0,1.26.14,1.75.49.42.42.7.91.7,1.61v2.45h12.25c1.47,0,2.52.28,3.22.91.63.63.98,1.68.98,3.15v9.17c0,1.54-.35,2.52-.98,3.08-.63.49-1.68.77-3.15.77h-28.7ZM117.6,16.4h-18.34v2.31h18.34v-2.31ZM117.6,35.58h-18.34v2.24h18.34v-2.24Z"/><path class="cls-2" d="M168.98,49.94c.7.07,1.33.28,1.75.77.49.49.77,1.12.77,1.82v5.81c0,2.45-.63,4.34-1.96,5.6-1.33,1.26-3.5,2.03-6.51,2.1h-10.22c-.84,0-1.54-.28-2.03-.77-.49-.49-.7-1.05-.7-1.75v-3.85c0-.7.21-1.26.7-1.75.49-.49,1.19-.77,2.03-.77h5.39c.84,0,1.47-.28,1.96-.77.49-.49.77-1.19.77-2.03v-1.82c0-.7.28-1.33.77-1.82s1.12-.7,1.82-.77h5.46ZM187.04,48.46v15.26c0,.7-.21,1.26-.56,1.61-.42.35-.98.56-1.61.56h-7.7c-.63,0-1.26-.21-1.68-.56-.49-.35-.7-.91-.7-1.61v-15.26h-21.63c-.98,0-1.68-.35-2.17-.91-.56-.56-.84-1.19-.84-1.96V11.85c0-.7.28-1.26.84-1.82.49-.56,1.19-.84,2.17-.84h6.37c.84,0,1.54.28,2.1.84.56.56.84,1.12.84,1.82v27.72h46.69c1.12,0,1.89.14,2.31.56.35.42.56,1.33.56,2.59v2.8c0,.98-.21,1.68-.56,2.17-.42.49-1.19.77-2.31.77h-22.12ZM207.98,5.2c.35.42.56.91.56,1.68v29.05c0,.7-.21,1.26-.56,1.61-.35.35-.84.49-1.61.49h-39.41c-.77,0-1.26-.14-1.61-.49-.35-.35-.49-.91-.49-1.61V6.88c0-.77.14-1.26.49-1.68.35-.35.84-.49,1.61-.49h39.41c.77,0,1.26.14,1.61.49ZM196.21,11.36h-19.11v2.17h19.11v-2.17ZM196.21,20.11h-19.11v2.17h19.11v-2.17ZM196.21,28.79h-19.11v2.31h19.11v-2.31ZM200.06,50.71c.49.49.77,1.12.77,1.82v1.82c0,.84.28,1.54.77,2.03.49.49,1.19.77,1.96.77h5.39c.84,0,1.54.28,2.03.77s.7,1.05.7,1.75v3.85c0,.7-.21,1.26-.7,1.75s-1.19.77-2.03.77h-10.22c-3.01-.07-5.18-.84-6.51-2.1-1.33-1.26-1.96-3.15-1.96-5.6v-5.81c0-.7.28-1.33.77-1.82.42-.49,1.05-.7,1.75-.77h5.46c.7.07,1.33.28,1.82.77Z"/></g></svg>