<?xml version="1.0" encoding="UTF-8"?><svg id="_レイヤー_2" xmlns="http://www.w3.org/2000/svg" viewBox="0 0 218.71 70.61"><defs><style>.cls-1,.cls-2,.cls-3{stroke-width:0px;}.cls-2{fill:#198caa;}.cls-3{fill:#fff;}</style></defs><g id="_レイヤー_4"><path class="cls-1" d="M25.01,57.22v5.88c0,.77-.28,1.4-.91,1.96-.56.56-1.26.84-2.03.84h-4.55c-.91,0-1.61-.28-2.17-.84-.49-.56-.77-1.19-.84-1.96v-5.81l-7.07,6.02c-.84.7-1.54.7-2.1.14-.56-.49-.84-1.19-.77-2.03v-6.16c-.07-1.05.07-1.82.49-2.17.42-.35,2.03-1.89,4.97-4.62h-2.66c-1.12,0-1.89-.28-2.24-.77-.42-.49-.63-1.19-.63-2.17v-4.13c0-1.33.21-2.17.63-2.59.35-.42,1.12-.63,2.24-.63h7.14v-2.87h-7c-1.19,0-2.03-.21-2.38-.7-.42-.49-.63-1.26-.63-2.24v-4.13c0-1.26.21-2.17.63-2.59.35-.42,1.19-.56,2.38-.56h.07v-3.15h-.07c-1.19,0-2.03-.28-2.38-.77-.42-.42-.63-1.19-.63-2.17v-4.13c0-1.33.21-2.17.63-2.59.35-.42,1.19-.63,2.38-.63h7v-4.13c0-.7.28-1.33.84-1.89.63-.56,1.33-.84,2.1-.84h4.55c.91,0,1.61.28,2.1.84.56.56.84,1.19.91,1.89v4.13h7.21c1.12,0,1.89.21,2.24.63.42.42.63,1.26.63,2.59v4.13c0,.98-.21,1.75-.63,2.17-.35.49-1.12.77-2.24.77h-.21v3.15h.21c1.12,0,1.89.14,2.24.56.42.42.63,1.33.63,2.59v4.13c0,.98-.21,1.75-.63,2.24-.35.49-1.12.7-2.24.7h-7.21v2.87h7.07c1.19,0,2.03.21,2.38.63.42.42.63,1.26.63,2.59v4.13c0,.98-.21,1.68-.63,2.17-.35.49-1.19.77-2.38.77h-2.52l4.69,4.34c.28-.42.63-.98,1.05-1.61.91-1.33,1.47-3.15,1.89-5.46.35-2.38.49-5.6.49-9.8v-19.46c.14-1.61.35-2.66.63-3.22.35-.49,1.05-.98,2.17-1.47l23.59-6.72c1.19-.35,1.89-.49,2.31-.28.42.28.56.91.56,2.03v6.51c0,.84-.14,1.47-.56,1.82-.42.42-1.12.77-2.31,1.19l-16.73,4.62v4.13h16.59c1.19,0,2.03.14,2.45.56.35.42.56,1.33.56,2.59v4.13c0,.98-.21,1.75-.56,2.24-.42.49-1.26.7-2.45.7h-2.66v28.07c0,.77-.28,1.4-.84,1.96-.56.56-1.26.77-2.1.77h-3.92c-.91,0-1.68-.21-2.17-.77-.56-.56-.84-1.19-.84-1.96v-28.07h-4.06v4.2c-.07,7.07-1.4,13.23-4.2,18.41-2.73,5.18-5.25,7.77-7.7,7.77-.7-.07-1.33-.28-1.75-.7-.42-.35-.7-.77-.77-1.26-.21,0-.49-.14-.77-.42l-7.14-6.09ZM16.68,25.08h6.23v-3.15h-6.23v3.15Z"/><path class="cls-1" d="M78.13,63.94c-.35-.35-.56-.91-.49-1.75v-7c-.07-1.05.14-1.89.49-2.38.42-.49.98-1.19,1.82-2.1l10.64-9.31c.91-.63,1.61-.77,2.03-.42.42.35.56,1.12.56,2.17v7.56c0,.77-.14,1.4-.56,1.75-.42.35-1.19,1.12-2.31,2.31l-9.8,9.03c-1.19.42-1.96.49-2.38.14ZM80.79,33.77c-1.12-.7-1.89-1.26-2.24-1.54-.42-.35-.63-.98-.63-1.75v-7.56c0-1.05.21-1.82.63-2.17.35-.35,1.12-.35,2.24,0l9.31,5.04c1.12.63,1.96,1.19,2.31,1.54.42.35.56,1.05.56,2.17v6.44c0,.84-.28,1.47-.84,2.03s-1.26.77-2.03.7l-9.31-4.9ZM81.07,18.15c-1.12-.7-1.89-1.19-2.31-1.54-.35-.35-.56-.91-.56-1.75v-7.49c0-1.12.21-1.82.56-2.24.42-.35,1.19-.35,2.31,0l9.24,5.11c1.19.63,2.03,1.12,2.38,1.47.42.35.56,1.12.49,2.17v6.44c.07.84-.21,1.54-.77,2.03-.56.56-1.26.84-2.1.7l-9.24-4.9ZM97.59,33.21c-.42-.49-.63-1.19-.63-2.24V10.31c0-1.19.14-1.89.56-2.31.35-.35,1.12-.63,2.31-.91l14.21-2.38c1.19-.35,1.89-.28,2.24.14.35.42.49,1.19.42,2.31v3.08c0,1.12-.14,1.82-.56,2.1-.35.35-1.12.56-2.31.7l-6.79,1.05v2.24h6.79c1.19,0,2.03.14,2.45.56.35.42.56,1.33.56,2.59v1.68c0,.98-.14,1.75-.56,2.24-.35.42-1.19.7-2.38.7h-6.86v2.03h21.35v-2.03h-6.93c-1.12,0-1.89-.28-2.24-.7-.42-.49-.63-1.26-.63-2.24v-1.68c0-1.26.21-2.17.63-2.59.35-.42,1.12-.56,2.24-.56h6.93v-2.1h-6.65c-1.12,0-1.89-.21-2.31-.7-.35-.49-.56-1.19-.56-2.24v-1.61c0-1.33.21-2.17.56-2.59.42-.42,1.19-.63,2.31-.63h14c1.19,0,1.96.21,2.31.63.28.42.49,1.26.49,2.59v21.28c0,1.05-.21,1.75-.63,2.24s-1.19.7-2.38.7h-26.11v2.1h27.93c1.19,0,2.03.21,2.45.63.35.35.56,1.26.56,2.59v24.57c0,.84-.14,1.4-.56,1.75-.42.35-1.19.49-2.38.49h-2.59c-1.05,0-1.82-.14-2.24-.49-.42-.35-.63-.91-.63-1.75v-3.99c-.7-.14-1.12-.35-1.33-.63-.35-.35-.77-1.12-1.26-2.24l-2.31-7.07c-.35-.7-.28-1.4.21-1.89.49-.56,1.33-.84,2.52-.77h2.17v-3.43h-22.61c0,1.19-.07,2.31-.14,3.43h4.06c1.05-.07,1.82.14,2.17.49.35.42.77,1.19,1.19,2.38l2.45,7.07c.28,1.12.21,1.82-.35,2.17-.49.35-1.33.49-2.38.49h-1.75c-1.05,0-1.75-.21-2.1-.63-.28-.35-.7-1.12-1.19-2.24l-.35-1.05-.35,1.05c-.49,1.12-.84,1.89-1.19,2.24-.28.42-.98.63-2.03.63h-2.73c-2.03,1.75-4.48,2.59-7.42,2.59h-2.8c-.7-.07-1.33-.28-1.82-.77s-.77-1.05-.77-1.75v-4.27c0-.7.28-1.33.77-1.75.49-.49,1.12-.7,1.82-.77,2.52,0,4.27-.77,5.25-2.31.91-1.54,1.4-5.46,1.4-11.83v-5.04h-1.26c-1.05,0-1.82-.21-2.24-.7ZM118.24,47.98c.49-.56,1.33-.84,2.52-.77h1.54c1.05-.07,1.82.14,2.17.49.35.42.77,1.19,1.19,2.38l2.45,7.07c.28,1.12.21,1.82-.35,2.17-.49.35-1.33.49-2.45.49h-1.68c-1.12,0-1.82-.21-2.1-.63-.28-.35-.7-1.12-1.19-2.24l-2.31-7.07c-.35-.7-.28-1.4.21-1.89Z"/><path class="cls-1" d="M171.16,49.94c.7.07,1.33.28,1.75.77.49.49.77,1.12.77,1.82v5.81c0,2.45-.63,4.34-1.96,5.6-1.33,1.26-3.5,2.03-6.51,2.1h-10.22c-.84,0-1.54-.28-2.03-.77-.49-.49-.7-1.05-.7-1.75v-3.85c0-.7.21-1.26.7-1.75s1.19-.77,2.03-.77h5.39c.84,0,1.47-.28,1.96-.77.49-.49.77-1.19.77-2.03v-1.82c0-.7.28-1.33.77-1.82s1.12-.7,1.82-.77h5.46ZM189.22,48.47v15.26c0,.7-.21,1.26-.56,1.61-.42.35-.98.56-1.61.56h-7.7c-.63,0-1.26-.21-1.68-.56-.49-.35-.7-.91-.7-1.61v-15.26h-21.63c-.98,0-1.68-.35-2.17-.91-.56-.56-.84-1.19-.84-1.96V11.85c0-.7.28-1.26.84-1.82.49-.56,1.19-.84,2.17-.84h6.37c.84,0,1.54.28,2.1.84s.84,1.12.84,1.82v27.72h46.69c1.12,0,1.89.14,2.31.56.35.42.56,1.33.56,2.59v2.8c0,.98-.21,1.68-.56,2.17-.42.49-1.19.77-2.31.77h-22.12ZM210.15,5.2c.35.42.56.91.56,1.68v29.05c0,.7-.21,1.26-.56,1.61-.35.35-.84.49-1.61.49h-39.41c-.77,0-1.26-.14-1.61-.49-.35-.35-.49-.91-.49-1.61V6.88c0-.77.14-1.26.49-1.68.35-.35.84-.49,1.61-.49h39.41c.77,0,1.26.14,1.61.49ZM198.39,11.36h-19.11v2.17h19.11v-2.17ZM198.39,20.11h-19.11v2.17h19.11v-2.17ZM198.39,28.8h-19.11v2.31h19.11v-2.31ZM202.24,50.71c.49.49.77,1.12.77,1.82v1.82c0,.84.28,1.54.77,2.03.49.49,1.19.77,1.96.77h5.39c.84,0,1.54.28,2.03.77.49.49.7,1.05.7,1.75v3.85c0,.7-.21,1.26-.7,1.75s-1.19.77-2.03.77h-10.22c-3.01-.07-5.18-.84-6.51-2.1-1.33-1.26-1.96-3.15-1.96-5.6v-5.81c0-.7.28-1.33.77-1.82.42-.49,1.05-.7,1.75-.77h5.46c.7.07,1.33.28,1.82.77Z"/><path class="cls-2" d="M58.34,70.61h-3.92c-2.81,0-4.5-1.16-5.45-2.18-1.35-1.4-2.06-3.14-2.06-5.05v-2.95c-2.29,4.28-5.96,9.76-11.46,9.76-.15,0-.3,0-.45-.02-2.13-.21-3.51-1.08-4.32-1.84-.49-.43-.91-.91-1.25-1.42-.1-.08-.2-.17-.3-.26l-.39-.33c-.38.74-.9,1.42-1.56,2.02-1.38,1.33-3.19,2.06-5.11,2.06h-4.55c-2.09,0-3.94-.75-5.35-2.16-.07-.07-.14-.14-.21-.22-.46-.52-.84-1.09-1.14-1.69l-.47.4c-2.57,2.14-5.86,2.13-8.09,0-1.52-1.39-2.31-3.36-2.2-5.47v-5.88c-.11-2.12.36-3.81,1.41-5.06-.98-1.28-1.48-2.9-1.48-4.8v-4.13c0-1.33.13-3.14,1.1-4.7-.73-1.19-1.1-2.64-1.1-4.33v-4.13c0-2.01.39-3.6,1.19-4.83-.64-.97-1.19-2.39-1.19-4.41v-4.13c0-1.6.19-3.91,1.82-5.64,1.25-1.38,3.16-2.08,5.69-2.08h2.51c.09-1.76.83-3.38,2.15-4.7.06-.06.12-.12.19-.18,1.45-1.29,3.21-1.98,5.09-1.98h4.55c2.14,0,4.05.8,5.38,2.26,1.21,1.25,1.94,2.81,2.11,4.53v.07h2.73c1.98,0,3.59.46,4.79,1.38.5-.3,1.05-.59,1.67-.86.18-.08.38-.15.57-.2L62.84.73c1.36-.4,3.47-1.02,5.56.02.17.08.33.18.48.28,2.57,1.71,2.57,4.66,2.57,5.78v6.51c0,2.21-.68,3.93-2.01,5.13-1.12,1.06-2.52,1.65-3.86,2.12-.07.03-.14.05-.22.07,1.43.14,2.98.58,4.22,1.82.1.1.19.2.27.3,1.08,1.29,1.6,3.08,1.6,5.47v4.13c0,1.89-.48,3.57-1.4,4.85-.08.11-.16.22-.25.32-1.2,1.39-2.77,1.93-4.03,2.14v23.7c0,1.95-.75,3.73-2.16,5.14-.95.95-2.64,2.09-5.28,2.09ZM55.91,61.61h.87s0-26.3,0-26.3c0-2.49,2.01-4.5,4.5-4.5h1.17v-1.22h-15.1c-2.49,0-4.5-2.01-4.5-4.5v-4.13c0-2.02,1.35-3.8,3.3-4.34l16.3-4.5v-1.91l-20.18,5.75c-.03.2-.05.44-.08.72v19.26c0,4.63-.17,7.96-.54,10.45,0,.05-.02.1-.02.15-.58,3.19-1.38,5.41-2.6,7.2-.19.29-.39.6-.57.88-.16.25-.31.48-.45.69-.73,1.1-1.91,1.82-3.21,1.98-1.31.16-2.62-.27-3.59-1.17l-4.69-4.34c-1.36-1.26-1.81-3.22-1.13-4.94.68-1.72,2.34-2.86,4.19-2.86h1.03v-1.29h-5.58c-2.49,0-4.5-2.01-4.5-4.5v-2.87c0-2.49,2.01-4.5,4.5-4.5h5.58v-1.45c-1.79-.59-3.08-2.28-3.08-4.27v-3.15c0-1.99,1.29-3.68,3.08-4.27v-1.52h-5.58c-2.49,0-4.5-2.01-4.5-4.5v-2.36h-1.5v2.36c0,2.49-2.01,4.5-4.5,4.5h-5.51v1.54c1.78.61,3.08,2.28,3.08,4.25v3.15c0,1.99-1.29,3.68-3.08,4.27v1.45h5.51c2.49,0,4.5,2.01,4.5,4.5v2.87c0,2.49-2.01,4.5-4.5,4.5h-5.51v1.29h1.03c1.85,0,3.51,1.13,4.19,2.86.68,1.72.23,3.68-1.13,4.94-1.25,1.16-2.26,2.11-3.04,2.84-.4.37-.72.67-.98.92v.49l2.52-2.15c1.34-1.14,3.21-1.4,4.8-.66,1.59.74,2.61,2.33,2.61,4.08v4.11h1.5v-4.18c0-1.76,1.02-3.35,2.61-4.09,1.59-.74,3.47-.48,4.81.66l6.83,5.83c.48.22.92.52,1.29.88.67-.71,1.73-2.08,3.1-4.68,2.42-4.48,3.62-9.81,3.68-16.36v-4.16c0-2.49,2.01-4.5,4.5-4.5h4.06c2.49,0,4.5,2.01,4.5,4.5v26.3ZM47.34,20.95h0,0ZM63.5,11.69h0s0,0,0,0ZM22.91,29.58h-6.23c-2.49,0-4.5-2.01-4.5-4.5v-3.15c0-2.49,2.01-4.5,4.5-4.5h6.23c2.49,0,4.5,2.01,4.5,4.5v3.15c0,2.49-2.01,4.5-4.5,4.5Z"/><path class="cls-2" d="M137.42,70.54h-2.59c-1.41,0-3.48-.16-5.12-1.54-.98-.81-2.14-2.31-2.24-4.86-.79.14-1.54.17-2.16.17h-1.68c-1.35,0-2.51-.22-3.49-.65-1.04.44-2.28.65-3.79.65h-1.75c-1.4,0-2.61-.25-3.62-.74-.9.44-2.07.74-3.59.74h-1.22c-2.55,1.72-5.55,2.59-8.93,2.59h-2.8c-.15,0-.3,0-.45-.02-1.83-.18-3.37-.88-4.55-2.07-.57-.57-1.02-1.19-1.36-1.86l-4.52,4.16c-.45.41-.98.73-1.55.93-1.04.37-4.2,1.48-6.75-.64-.11-.09-.21-.18-.31-.28-1.28-1.28-1.92-3.08-1.8-5.08v-6.72c-.1-1.97.37-3.78,1.33-5.12.08-.11.16-.22.25-.32l.34-.4c.41-.48.92-1.09,1.59-1.82.11-.12.22-.23.34-.33l7.47-6.54-5.76-3.03c-.1-.05-.19-.11-.29-.16-1.5-.94-2.37-1.6-2.67-1.85-1.52-1.26-2.32-3.11-2.32-5.26v-7.56c0-1.79.39-3.27,1.17-4.43-.5-.88-.89-2.07-.89-3.62v-7.49c0-2.15.52-3.83,1.6-5.12.17-.21.37-.4.58-.58,1.67-1.39,3.86-1.67,6.53-.84.29.09.57.21.84.36l9.24,5.11c.21.11.42.22.62.33.28-.62.67-1.25,1.23-1.81,1.22-1.22,2.87-1.74,4.46-2.11.1-.02.19-.04.29-.06l13.98-2.34c3.77-.99,5.79.6,6.67,1.66.04.05.08.1.12.15.59-.11,1.21-.16,1.88-.16h14c.96,0,3.89,0,5.76,2.25.11.13.2.26.3.4.83,1.26,1.24,2.92,1.24,5.08v21.28c0,.83-.08,1.6-.26,2.3.07.06.14.13.2.19,1.26,1.26,1.88,3.15,1.88,5.77v24.57c0,2.25-.73,4-2.18,5.21-1.62,1.36-3.67,1.53-5.26,1.53ZM82.12,62.56h0s0,0,0,0ZM96.35,57.9h.89c1.87,0,3.3-.48,4.48-1.5.82-.7,1.86-1.09,2.94-1.09h1.75l.28-.84c.43-1.29,1.4-2.28,2.61-2.76h-.09c-1.24,0-2.43-.51-3.28-1.42-.42-.45-.74-.98-.95-1.54-.38,2.24-.9,3.46-1.42,4.32-.02.04-.05.08-.08.12-1.11,1.74-3.22,3.77-7.14,4.28v.43ZM133.74,55.68c.9.4,1.64,1.07,2.12,1.9v-8.13c-.71,1.23-1.99,2.09-3.47,2.23l1.19,3.64c.06.14.12.26.17.36ZM105.68,56.68h0s0,0,0,0ZM134.23,56.48s0,0,0,0c0,0,0,0,0,0ZM82.13,55.03c0,.05,0,.1,0,.15v.99l5-4.61c.66-.7,1.15-1.21,1.54-1.58v-.94l-5.58,4.88c-.38.42-.7.79-.96,1.1ZM135.05,40.51c.32.3.59.65.81,1.03v-1.03h-.81ZM105.59,38.37v.58c0,.85,0,1.65-.02,2.4.39-.61.92-1.11,1.55-1.47-.62-.37-1.15-.89-1.53-1.5ZM83.03,29.86l5.43,2.86v-2.68c-.17-.1-.36-.21-.58-.33l-5.48-2.96v2.72c.18.12.39.26.62.4ZM101.46,29.42c1.72.14,3.17,1.25,3.8,2.78.25-.62.64-1.17,1.13-1.61-2.17-.32-3.84-2.19-3.84-4.45v-2.03c0-1.66.9-3.1,2.23-3.89-1.33-.78-2.23-2.23-2.23-3.89v-2.24c0-1.19.47-2.29,1.24-3.1l-2.32.39v18.04ZM101.47,31.16h0,0ZM131.48,29.41h2.56V10.96h-2.56c.87.82,1.41,1.98,1.41,3.27v2.1c0,1.66-.9,3.1-2.23,3.89,1.33.78,2.23,2.23,2.23,3.89v2.03c0,1.29-.54,2.45-1.41,3.27ZM83.32,14.25l5.36,2.84v-2.62c-.14-.08-.3-.16-.48-.26l-5.5-3.04v2.69c.22.14.44.28.62.39ZM89.8,15.17s0,0,0,0c0,0,0,0,0,0ZM107.04,14.09h0,0Z"/><path class="cls-2" d="M211.13,70.54h-10.22s-.07,0-.1,0c-3.51-.08-6.37-.92-8.52-2.51-.14.17-.29.34-.44.5-.09.1-.19.19-.3.27-1.24,1.04-2.84,1.61-4.49,1.61h-7.7c-1.62,0-3.22-.54-4.43-1.5-.37-.28-.71-.6-1-.94-2.17,1.63-5.06,2.5-8.61,2.58-.03,0-.07,0-.1,0h-10.22c-2.01,0-3.87-.74-5.21-2.09-1.32-1.32-2.02-3.03-2.02-4.93v-3.85c0-1.91.7-3.61,2.02-4.93,1.03-1.03,2.34-1.7,3.8-1.96-1.43-.33-2.71-1.06-3.69-2.13-1.35-1.4-2.06-3.14-2.06-5.04V11.85c0-1.85.69-3.5,2.06-4.91.97-1.06,2.68-2.25,5.45-2.25h6.37c.37,0,.73.02,1.08.07.25-.91.67-1.72,1.27-2.44.09-.1.18-.2.27-.3,1.2-1.2,2.81-1.81,4.8-1.81h39.41c1.98,0,3.6.61,4.8,1.81.09.1.19.19.27.3,1.06,1.28,1.6,2.81,1.6,4.56v28.93c.56.27,1.12.64,1.62,1.14.1.1.19.2.28.3,1.08,1.29,1.6,3.08,1.6,5.47v2.8c0,1.87-.47,3.48-1.4,4.78-.08.11-.16.21-.25.31-.75.87-2.04,1.88-4.17,2.22,1.31.3,2.5.95,3.44,1.89,1.32,1.32,2.02,3.02,2.02,4.93v3.85c0,1.91-.7,3.61-2.02,4.93-1.35,1.35-3.2,2.09-5.21,2.09ZM200.97,61.54h3.48c-1.47-.25-2.8-.93-3.85-1.98-1.33-1.32-2.07-3.14-2.09-5.12h-1.57v3.9c0,1.15.2,2,.56,2.33.41.39,1.53.81,3.47.87ZM161.69,61.54h3.46c2.5-.07,3.33-.73,3.47-.87.35-.33.55-1.18.55-2.33v-3.9h-1.57c-.02,1.98-.76,3.8-2.09,5.13-1.05,1.06-2.36,1.73-3.82,1.98ZM181.47,61.4h3.25v-12.93c0-2.15,1.5-3.94,3.51-4.39h-10.28c2.01.45,3.51,2.25,3.51,4.39v12.93ZM156.83,43.97h6.83c-2.01-.45-3.51-2.25-3.51-4.39V13.69h-3.32v30.27ZM202.18,33.54h4.03V9.21h-3.87c.35.64.55,1.37.55,2.15v2.17c0,1.3-.55,2.47-1.43,3.29.88.82,1.43,1.99,1.43,3.29v2.17c0,1.28-.54,2.44-1.39,3.26.86.82,1.39,1.98,1.39,3.26v2.31c0,.9-.26,1.73-.71,2.43ZM171.53,33.53h3.96c-.45-.7-.71-1.53-.71-2.43v-2.31c0-1.28.54-2.44,1.39-3.26-.86-.82-1.39-1.98-1.39-3.26v-2.17c0-1.3.55-2.47,1.43-3.29-.88-.82-1.43-1.99-1.43-3.29v-2.17c0-.78.2-1.51.55-2.15h-3.8v24.32ZM208.59,9.21h0,0Z"/><path class="cls-3" d="M58.34,69.11h-3.92c-2.28,0-3.62-.91-4.36-1.71-1.08-1.11-1.65-2.5-1.65-4.02v-10.35c-.69,2.26-1.57,4.36-2.62,6.32-2.11,4-5.49,9.34-10.34,9.34-.1,0-.2,0-.3-.02-1.42-.14-2.59-.63-3.47-1.46-.45-.39-.82-.84-1.11-1.32-.15-.11-.29-.23-.43-.36l-2.15-1.84c-.14,1.37-.76,2.58-1.82,3.55-1.1,1.07-2.55,1.66-4.09,1.66h-4.55c-1.68,0-3.17-.59-4.29-1.72-.05-.05-.09-.1-.14-.15-.83-.95-1.35-2.06-1.53-3.3l-2.18,1.86c-2.28,1.9-4.68,1.4-6.09.05-1.2-1.09-1.82-2.65-1.73-4.33v-5.97c-.12-2.06.41-3.6,1.57-4.56.07-.06.23-.21.46-.41-.34-.26-.61-.54-.82-.81-.85-1.04-1.28-2.39-1.28-4.03v-4.13c0-1.34.15-3.27,1.42-4.61.02-.02.04-.05.06-.07-.07-.08-.14-.16-.2-.24-.85-1.04-1.28-2.42-1.28-4.1v-4.13c0-2.09.46-3.6,1.42-4.62.06-.07.13-.14.2-.2-.1-.1-.19-.2-.27-.3-.9-.99-1.35-2.38-1.35-4.12v-4.13c0-1.34.15-3.27,1.42-4.62.96-1.08,2.47-1.6,4.59-1.6h4v-1.13c0-1.5.59-2.89,1.72-4.01.04-.04.08-.08.13-.12,1.17-1.05,2.59-1.6,4.09-1.6h4.55c2.19,0,3.53.95,4.29,1.79.99,1.02,1.57,2.25,1.71,3.65,0,.1.01.2.01.3v1.13h4.21c2.04,0,3.5.53,4.46,1.61.06.07.12.14.18.21.63-.52,1.42-.99,2.42-1.42.12-.05.25-.1.38-.14l23.59-6.72c1.29-.38,2.92-.86,4.47-.08.11.06.22.12.32.19,1.9,1.26,1.9,3.55,1.9,4.53v6.51c0,.67,0,2.66-1.53,4.03-.92.88-2.15,1.39-3.34,1.81-.07.02-.13.04-.2.06l-10.35,2.86h9.41c1.46,0,3.3.16,4.57,1.44.06.06.12.13.18.2.84,1.01,1.25,2.49,1.25,4.51v4.13c0,1.58-.39,2.96-1.12,3.98-.05.07-.11.14-.17.21-1.33,1.54-3.38,1.72-4.39,1.74v25.08c0,1.55-.59,2.96-1.72,4.08-1.09,1.09-2.51,1.65-4.22,1.65ZM54.41,63.11h3.87v-27.8c0-1.66,1.34-3,3-3h2.67v-4.07c0-.05,0-.1,0-.15h-16.6c-1.66,0-3-1.34-3-3v-4.13c0-1.35.9-2.53,2.2-2.89l16.63-4.59c.35-.13.6-.23.77-.3v-4.95l-22.43,6.39c-.28.13-.47.23-.6.31-.06.3-.15.82-.23,1.69v19.33c0,4.56-.17,7.81-.52,10.24,0,.03,0,.07-.02.1-.54,2.97-1.27,5.02-2.37,6.62-.21.31-.41.63-.59.91-.16.25-.3.47-.43.67-.49.73-1.27,1.21-2.14,1.32-.88.1-1.75-.18-2.39-.78l-4.69-4.34c-.91-.84-1.21-2.15-.76-3.3.45-1.15,1.56-1.91,2.79-1.91h2.53v-4.07c0-.08,0-.15,0-.22h-7.08c-1.66,0-3-1.34-3-3v-2.87c0-1.66,1.34-3,3-3h7.08v-4.07c0-.05,0-.1,0-.15h-.08c-1.66,0-3-1.34-3-3v-3.15c0-1.66,1.34-3,3-3h.08v-4.07c0-.08,0-.15,0-.22h-7.08c-1.66,0-3-1.34-3-3v-3.85s0,0,0-.01h-4.49v3.86c0,1.66-1.34,3-3,3h-7.01c0,.07,0,.14,0,.22v4.07h0c1.66,0,3.07,1.34,3.07,3v3.15c0,1.66-1.34,3-3,3h-.08s0,.1,0,.15v4.07h7.01c1.66,0,3,1.34,3,3v2.87c0,1.66-1.34,3-3,3h-7.01c0,.07,0,.14,0,.22v4.07h2.53c1.23,0,2.34.76,2.79,1.9.45,1.15.15,2.46-.75,3.29-1.25,1.17-2.27,2.11-3.05,2.84-.68.64-1.14,1.07-1.47,1.37,0,.05,0,.11,0,.18,0,.07,0,.13,0,.2v4l5-4.25c.89-.76,2.14-.93,3.2-.44,1.06.49,1.74,1.55,1.74,2.72v5.61h4.5v-5.68c0-1.17.68-2.23,1.74-2.72,1.06-.49,2.31-.32,3.2.44l7.02,5.98c.79.29,1.42.91,1.74,1.71.61-.23,2.24-1.29,4.78-6.1,2.53-4.68,3.79-10.25,3.85-17.04v-4.17c0-1.66,1.34-3,3-3h4.06c1.66,0,3,1.34,3,3v27.8ZM35.81,62.87h0s0,0,0,0ZM35.8,62.85s0,0,.01.01c0,0,0,0-.01-.01ZM7.57,45.95s0,0,0,0c0,0,0,0,0,0ZM32.84,41.24h0,0ZM7.57,19.42s0,0,0,0c0,0,0,0,0,0ZM22.91,28.08h-6.23c-1.66,0-3-1.34-3-3v-3.15c0-1.66,1.34-3,3-3h6.23c1.66,0,3,1.34,3,3v3.15c0,1.66-1.34,3-3,3Z"/><path class="cls-3" d="M137.42,69.04h-2.59c-1.18,0-2.89-.12-4.16-1.19-.78-.65-1.71-1.88-1.71-4.05v-1.71c-1.22.63-2.64.72-3.65.72h-1.68c-.61,0-2.17,0-3.47-.85-.96.58-2.18.85-3.82.85h-1.75c-1.5,0-2.71-.33-3.62-.98-.88.65-2.08.98-3.59.98h-1.69c-2.38,1.72-5.22,2.59-8.46,2.59h-2.8c-.1,0-.2,0-.3-.02-1.48-.15-2.71-.7-3.64-1.63-1.23-1.23-1.58-2.57-1.64-3.57l-6.32,5.82c-.3.28-.65.49-1.03.62-.93.33-3.39,1.2-5.3-.38-.07-.06-.14-.12-.21-.19-.7-.7-1.49-1.96-1.37-3.98v-6.8c-.09-1.65.28-3.14,1.05-4.21.05-.07.11-.15.17-.21l.35-.41c.39-.47.89-1.06,1.54-1.76.07-.08.15-.15.23-.22l9.12-7.98-7.7-4.05c-.06-.03-.13-.07-.19-.11-1.47-.92-2.31-1.57-2.53-1.74-1.15-.95-1.75-2.39-1.75-4.09v-7.56c0-1.93.53-3.39,1.56-4.35-.62-.69-1.28-1.85-1.28-3.71v-7.49c0-1.79.41-3.15,1.25-4.16.12-.14.25-.27.39-.39,1.25-1.04,2.97-1.23,5.12-.56.19.06.38.14.56.24l9.24,5.11c1.04.55,1.75.96,2.27,1.33.13-1.08.48-2.17,1.37-3.06.96-.95,2.37-1.39,3.75-1.71.06-.02.13-.03.19-.04l14.05-2.35c2.85-.78,4.4.19,5.2,1.15.23.27.42.58.58.91.74-.25,1.59-.38,2.58-.38h14c.79,0,3.19,0,4.61,1.71.07.08.14.17.2.26.67,1,.99,2.39.99,4.25v21.28c0,1.1-.17,2.04-.52,2.86.34.2.64.43.91.7.98.98,1.44,2.48,1.44,4.71v24.57c0,.67,0,2.69-1.64,4.06-1.25,1.04-2.88,1.18-4.3,1.18ZM134.96,63.04h2.4v-23.81c0-.08,0-.15,0-.22h-27.94c-1.66,0-3-1.34-3-3v-2.1c0-1.66,1.34-3,3-3h26.12V9.68c0-.08,0-.15,0-.22h-13.67c0,.07,0,.14,0,.22v1.55h6.52c1.66,0,3,1.34,3,3v2.1c0,1.66-1.34,3-3,3h-6.8s0,.1,0,.15v1.62h6.8c1.66,0,3,1.34,3,3v2.03c0,1.66-1.34,3-3,3h-21.35c-1.66,0-3-1.34-3-3v-2.03c0-1.66,1.34-3,3-3h6.8v-1.62c0-.05,0-.1,0-.15h-6.8c-1.66,0-3-1.34-3-3v-2.24c0-1.48,1.08-2.74,2.54-2.96l6.79-1.05s.07-.01.11-.01c.08,0,.15-.02.22-.03v-2.23l-13.28,2.22c-.18.04-.33.08-.46.12,0,.05,0,.1,0,.16v20.59h1.13c1.66,0,3,1.34,3,3v5.04c0,9.11-.97,11.93-1.82,13.36-1.09,1.72-3.21,3.66-7.42,3.78v3.32h2.39c2.25,0,3.99-.59,5.46-1.86.54-.47,1.24-.73,1.96-.73h2.72c.14-.3.31-.68.43-.95l.31-.92c.41-1.23,1.55-2.05,2.85-2.05h0c1.29,0,2.44.83,2.85,2.05l.31.92c.18.42.34.73.45.95h1.22l-1.99-5.75c-.13-.36-.25-.64-.34-.86-.06,0-.12,0-.18,0h-4.06c-.83,0-1.62-.34-2.19-.95-.57-.6-.86-1.42-.81-2.24.07-1.1.13-2.15.13-3.24,0-1.66,1.34-3,3-3h22.61c1.66,0,3,1.34,3,3v3.43c0,1.66-1.34,3-3,3h-1.63l1.85,5.66c.23.52.39.84.5,1.03,1.33.33,2.28,1.53,2.28,2.91v3.23ZM80.65,54.47c-.02.1-.03.28-.02.52,0,.07,0,.13,0,.2v4.41l7.56-6.96c.98-1.04,1.58-1.64,1.98-2.02v-4.88l-8.13,7.12c-.52.57-.92,1.05-1.25,1.44l-.15.18ZM123.59,56.81h1.22l-1.99-5.75c-.13-.36-.24-.65-.34-.86-.06,0-.12,0-.18,0h-1l1.85,5.66c.18.41.33.72.45.94ZM95.02,39.15c1.16,1.37,1.16,3.24,1.16,3.99v6.72c.68-.22.89-.55.98-.7.05-.09.93-1.82.93-10.22v-2.21c-.83-.18-1.53-.5-2.12-.95v.15c0,1.2-.32,2.27-.95,3.22ZM82.28,31.16l7.68,4.04v-5.71c0-.11,0-.2,0-.28-.27-.18-.7-.46-1.34-.81l-7.71-4.17v6.03c.3.22.76.53,1.37.91ZM100,31.47h0,0ZM82.57,15.55l7.61,4.04v-5.71c0-.07,0-.13,0-.2,0-.03,0-.05,0-.08-.25-.15-.66-.38-1.29-.71l-7.71-4.26v6.05c.41.27.94.61,1.37.87ZM107.04,14.09h0,0Z"/><path class="cls-3" d="M211.13,69.04h-10.22c-3.76-.09-6.62-1.07-8.57-2.92-.15-.15-.3-.29-.44-.45-.24.69-.62,1.3-1.12,1.79-.06.06-.13.12-.2.18-.97.81-2.23,1.26-3.53,1.26h-7.7c-1.29,0-2.57-.43-3.52-1.19-.72-.54-1.25-1.26-1.55-2.11-.16.18-.33.35-.5.52-1.96,1.85-4.82,2.84-8.51,2.92h-10.29c-1.61,0-3.09-.58-4.15-1.65-1.05-1.05-1.58-2.35-1.58-3.87v-3.85c0-1.52.53-2.82,1.58-3.87,1.06-1.06,2.54-1.65,4.15-1.65h5.12v-1.62c0-.36.04-.71.11-1.06h-4.87c-1.75,0-3.26-.64-4.36-1.86-1.08-1.11-1.65-2.5-1.65-4.01V11.85c0-1.45.56-2.75,1.65-3.88.76-.83,2.12-1.78,4.36-1.78h6.37c.83,0,1.61.15,2.32.45.02-.92.21-2.19,1.18-3.36.06-.07.12-.14.18-.2,1.37-1.37,3.15-1.37,3.73-1.37h39.41c.58,0,2.37,0,3.73,1.37.06.06.12.13.18.2.84,1.01,1.25,2.19,1.25,3.6v29.05c0,.3-.02.6-.06.89.76.2,1.5.56,2.12,1.19.06.06.13.13.18.2.84,1.01,1.25,2.49,1.25,4.51v2.8c0,1.56-.38,2.87-1.12,3.91-.05.07-.11.14-.16.21-.71.83-2.08,1.82-4.59,1.82h-5.43c.07.35.1.7.1,1.06v1.62h5.12c1.61,0,3.09.59,4.15,1.65,1.05,1.04,1.58,2.35,1.58,3.87v3.85c0,1.52-.53,2.82-1.58,3.87-1.06,1.06-2.54,1.65-4.15,1.65ZM195.44,52.94v5.4c0,1.63.34,2.78,1.02,3.42.82.78,2.42,1.23,4.52,1.28h9.88v-2.89h-5.12c-1.57,0-3.02-.59-4.08-1.66-1.06-1.06-1.65-2.54-1.65-4.15v-1.41h-4.57ZM155.26,63.03h9.95c2.02-.04,3.63-.5,4.45-1.27.68-.64,1.02-1.79,1.02-3.42v-5.4h-4.57v1.41c0,1.62-.59,3.09-1.65,4.15-1.07,1.08-2.49,1.65-4.08,1.65h-5.12v2.88ZM179.97,62.9h6.25v-14.43c0-1.66,1.34-3,3-3h21.99v-2.74c0-.05,0-.1,0-.15h-46.56c-1.66,0-3-1.34-3-3V12.2h-6.31s0,0,0,0v33.27h21.64c1.66,0,3,1.34,3,3v14.43ZM170.03,35.04h37.68V7.71s-37.68,0-37.68,0v27.32ZM208.73,7.72h0,0ZM198.39,34.11h-19.11c-1.66,0-3-1.34-3-3v-2.31c0-1.66,1.34-3,3-3h19.11c1.66,0,3,1.34,3,3v2.31c0,1.66-1.34,3-3,3ZM198.39,25.28h-19.11c-1.66,0-3-1.34-3-3v-2.17c0-1.66,1.34-3,3-3h19.11c1.66,0,3,1.34,3,3v2.17c0,1.66-1.34,3-3,3ZM198.39,16.53h-19.11c-1.66,0-3-1.34-3-3v-2.17c0-1.66,1.34-3,3-3h19.11c1.66,0,3,1.34,3,3v2.17c0,1.66-1.34,3-3,3Z"/><path class="cls-2" d="M25.01,57.22v5.88c0,.77-.28,1.4-.91,1.96-.56.56-1.26.84-2.03.84h-4.55c-.91,0-1.61-.28-2.17-.84-.49-.56-.77-1.19-.84-1.96v-5.81l-7.07,6.02c-.84.7-1.54.7-2.1.14-.56-.49-.84-1.19-.77-2.03v-6.16c-.07-1.05.07-1.82.49-2.17.42-.35,2.03-1.89,4.97-4.62h-2.66c-1.12,0-1.89-.28-2.24-.77-.42-.49-.63-1.19-.63-2.17v-4.13c0-1.33.21-2.17.63-2.59.35-.42,1.12-.63,2.24-.63h7.14v-2.87h-7c-1.19,0-2.03-.21-2.38-.7-.42-.49-.63-1.26-.63-2.24v-4.13c0-1.26.21-2.17.63-2.59.35-.42,1.19-.56,2.38-.56h.07v-3.15h-.07c-1.19,0-2.03-.28-2.38-.77-.42-.42-.63-1.19-.63-2.17v-4.13c0-1.33.21-2.17.63-2.59.35-.42,1.19-.63,2.38-.63h7v-4.13c0-.7.28-1.33.84-1.89.63-.56,1.33-.84,2.1-.84h4.55c.91,0,1.61.28,2.1.84.56.56.84,1.19.91,1.89v4.13h7.21c1.12,0,1.89.21,2.24.63.42.42.63,1.26.63,2.59v4.13c0,.98-.21,1.75-.63,2.17-.35.49-1.12.77-2.24.77h-.21v3.15h.21c1.12,0,1.89.14,2.24.56.42.42.63,1.33.63,2.59v4.13c0,.98-.21,1.75-.63,2.24-.35.49-1.12.7-2.24.7h-7.21v2.87h7.07c1.19,0,2.03.21,2.38.63.42.42.63,1.26.63,2.59v4.13c0,.98-.21,1.68-.63,2.17-.35.49-1.19.77-2.38.77h-2.52l4.69,4.34c.28-.42.63-.98,1.05-1.61.91-1.33,1.47-3.15,1.89-5.46.35-2.38.49-5.6.49-9.8v-19.46c.14-1.61.35-2.66.63-3.22.35-.49,1.05-.98,2.17-1.47l23.59-6.72c1.19-.35,1.89-.49,2.31-.28.42.28.56.91.56,2.03v6.51c0,.84-.14,1.47-.56,1.82-.42.42-1.12.77-2.31,1.19l-16.73,4.62v4.13h16.59c1.19,0,2.03.14,2.45.56.35.42.56,1.33.56,2.59v4.13c0,.98-.21,1.75-.56,2.24-.42.49-1.26.7-2.45.7h-2.66v28.07c0,.77-.28,1.4-.84,1.96-.56.56-1.26.77-2.1.77h-3.92c-.91,0-1.68-.21-2.17-.77-.56-.56-.84-1.19-.84-1.96v-28.07h-4.06v4.2c-.07,7.07-1.4,13.23-4.2,18.41-2.73,5.18-5.25,7.77-7.7,7.77-.7-.07-1.33-.28-1.75-.7-.42-.35-.7-.77-.77-1.26-.21,0-.49-.14-.77-.42l-7.14-6.09ZM16.68,25.08h6.23v-3.15h-6.23v3.15Z"/><path class="cls-2" d="M78.13,63.94c-.35-.35-.56-.91-.49-1.75v-7c-.07-1.05.14-1.89.49-2.38.42-.49.98-1.19,1.82-2.1l10.64-9.31c.91-.63,1.61-.77,2.03-.42.42.35.56,1.12.56,2.17v7.56c0,.77-.14,1.4-.56,1.75-.42.35-1.19,1.12-2.31,2.31l-9.8,9.03c-1.19.42-1.96.49-2.38.14ZM80.79,33.77c-1.12-.7-1.89-1.26-2.24-1.54-.42-.35-.63-.98-.63-1.75v-7.56c0-1.05.21-1.82.63-2.17.35-.35,1.12-.35,2.24,0l9.31,5.04c1.12.63,1.96,1.19,2.31,1.54.42.35.56,1.05.56,2.17v6.44c0,.84-.28,1.47-.84,2.03s-1.26.77-2.03.7l-9.31-4.9ZM81.07,18.15c-1.12-.7-1.89-1.19-2.31-1.54-.35-.35-.56-.91-.56-1.75v-7.49c0-1.12.21-1.82.56-2.24.42-.35,1.19-.35,2.31,0l9.24,5.11c1.19.63,2.03,1.12,2.38,1.47.42.35.56,1.12.49,2.17v6.44c.07.84-.21,1.54-.77,2.03-.56.56-1.26.84-2.1.7l-9.24-4.9ZM97.59,33.21c-.42-.49-.63-1.19-.63-2.24V10.31c0-1.19.14-1.89.56-2.31.35-.35,1.12-.63,2.31-.91l14.21-2.38c1.19-.35,1.89-.28,2.24.14.35.42.49,1.19.42,2.31v3.08c0,1.12-.14,1.82-.56,2.1-.35.35-1.12.56-2.31.7l-6.79,1.05v2.24h6.79c1.19,0,2.03.14,2.45.56.35.42.56,1.33.56,2.59v1.68c0,.98-.14,1.75-.56,2.24-.35.42-1.19.7-2.38.7h-6.86v2.03h21.35v-2.03h-6.93c-1.12,0-1.89-.28-2.24-.7-.42-.49-.63-1.26-.63-2.24v-1.68c0-1.26.21-2.17.63-2.59.35-.42,1.12-.56,2.24-.56h6.93v-2.1h-6.65c-1.12,0-1.89-.21-2.31-.7-.35-.49-.56-1.19-.56-2.24v-1.61c0-1.33.21-2.17.56-2.59.42-.42,1.19-.63,2.31-.63h14c1.19,0,1.96.21,2.31.63.28.42.49,1.26.49,2.59v21.28c0,1.05-.21,1.75-.63,2.24s-1.19.7-2.38.7h-26.11v2.1h27.93c1.19,0,2.03.21,2.45.63.35.35.56,1.26.56,2.59v24.57c0,.84-.14,1.4-.56,1.75-.42.35-1.19.49-2.38.49h-2.59c-1.05,0-1.82-.14-2.24-.49-.42-.35-.63-.91-.63-1.75v-3.99c-.7-.14-1.12-.35-1.33-.63-.35-.35-.77-1.12-1.26-2.24l-2.31-7.07c-.35-.7-.28-1.4.21-1.89.49-.56,1.33-.84,2.52-.77h2.17v-3.43h-22.61c0,1.19-.07,2.31-.14,3.43h4.06c1.05-.07,1.82.14,2.17.49.35.42.77,1.19,1.19,2.38l2.45,7.07c.28,1.12.21,1.82-.35,2.17-.49.35-1.33.49-2.38.49h-1.75c-1.05,0-1.75-.21-2.1-.63-.28-.35-.7-1.12-1.19-2.24l-.35-1.05-.35,1.05c-.49,1.12-.84,1.89-1.19,2.24-.28.42-.98.63-2.03.63h-2.73c-2.03,1.75-4.48,2.59-7.42,2.59h-2.8c-.7-.07-1.33-.28-1.82-.77s-.77-1.05-.77-1.75v-4.27c0-.7.28-1.33.77-1.75.49-.49,1.12-.7,1.82-.77,2.52,0,4.27-.77,5.25-2.31.91-1.54,1.4-5.46,1.4-11.83v-5.04h-1.26c-1.05,0-1.82-.21-2.24-.7ZM118.24,47.98c.49-.56,1.33-.84,2.52-.77h1.54c1.05-.07,1.82.14,2.17.49.35.42.77,1.19,1.19,2.38l2.45,7.07c.28,1.12.21,1.82-.35,2.17-.49.35-1.33.49-2.45.49h-1.68c-1.12,0-1.82-.21-2.1-.63-.28-.35-.7-1.12-1.19-2.24l-2.31-7.07c-.35-.7-.28-1.4.21-1.89Z"/><path class="cls-2" d="M171.16,49.94c.7.07,1.33.28,1.75.77.49.49.77,1.12.77,1.82v5.81c0,2.45-.63,4.34-1.96,5.6-1.33,1.26-3.5,2.03-6.51,2.1h-10.22c-.84,0-1.54-.28-2.03-.77-.49-.49-.7-1.05-.7-1.75v-3.85c0-.7.21-1.26.7-1.75s1.19-.77,2.03-.77h5.39c.84,0,1.47-.28,1.96-.77.49-.49.77-1.19.77-2.03v-1.82c0-.7.28-1.33.77-1.82s1.12-.7,1.82-.77h5.46ZM189.22,48.47v15.26c0,.7-.21,1.26-.56,1.61-.42.35-.98.56-1.61.56h-7.7c-.63,0-1.26-.21-1.68-.56-.49-.35-.7-.91-.7-1.61v-15.26h-21.63c-.98,0-1.68-.35-2.17-.91-.56-.56-.84-1.19-.84-1.96V11.85c0-.7.28-1.26.84-1.82.49-.56,1.19-.84,2.17-.84h6.37c.84,0,1.54.28,2.1.84s.84,1.12.84,1.82v27.72h46.69c1.12,0,1.89.14,2.31.56.35.42.56,1.33.56,2.59v2.8c0,.98-.21,1.68-.56,2.17-.42.49-1.19.77-2.31.77h-22.12ZM210.15,5.2c.35.42.56.91.56,1.68v29.05c0,.7-.21,1.26-.56,1.61-.35.35-.84.49-1.61.49h-39.41c-.77,0-1.26-.14-1.61-.49-.35-.35-.49-.91-.49-1.61V6.88c0-.77.14-1.26.49-1.68.35-.35.84-.49,1.61-.49h39.41c.77,0,1.26.14,1.61.49ZM198.39,11.36h-19.11v2.17h19.11v-2.17ZM198.39,20.11h-19.11v2.17h19.11v-2.17ZM198.39,28.8h-19.11v2.31h19.11v-2.31ZM202.24,50.71c.49.49.77,1.12.77,1.82v1.82c0,.84.28,1.54.77,2.03.49.49,1.19.77,1.96.77h5.39c.84,0,1.54.28,2.03.77.49.49.7,1.05.7,1.75v3.85c0,.7-.21,1.26-.7,1.75s-1.19.77-2.03.77h-10.22c-3.01-.07-5.18-.84-6.51-2.1-1.33-1.26-1.96-3.15-1.96-5.6v-5.81c0-.7.28-1.33.77-1.82.42-.49,1.05-.7,1.75-.77h5.46c.7.07,1.33.28,1.82.77Z"/></g></svg>