<?xml version="1.0" encoding="UTF-8"?><svg id="_レイヤー_2" xmlns="http://www.w3.org/2000/svg" viewBox="0 0 218.43 71.1"><defs><style>.cls-1,.cls-2,.cls-3{stroke-width:0px;}.cls-2{fill:#198caa;}.cls-3{fill:#fff;}</style></defs><g id="_レイヤー_4"><path class="cls-1" d="M25.9,51.82c.42.42.91,1.19,1.54,2.38l2.66,5.95c.35,1.12.21,1.89-.28,2.17-.56.35-1.33.49-2.45.49h-5.25c-1.12,0-1.82-.21-2.1-.63-.28-.35-.7-1.12-1.19-2.24l-1.47-3.29-1.4,3.29c-.49,1.12-.91,1.89-1.19,2.24-.35.42-.98.63-2.1.63h-5.25c-1.12,0-1.89-.14-2.45-.49-.49-.28-.63-1.05-.28-2.17l2.66-5.95c.63-1.19,1.12-1.96,1.47-2.38.35-.35,1.12-.56,2.17-.49h12.74c1.12-.07,1.82.14,2.17.49ZM10.57,49.09c-.35-.28-.56-.77-.56-1.47V11.71c0-.63.21-1.19.56-1.47.42-.35.98-.49,1.82-.49h11.76l1.47-2.8c.56-.98.98-1.61,1.47-1.96.42-.35,1.12-.49,2.03-.49h9.45c1.12,0,1.89.28,2.31.77.49.49.35,1.26-.28,2.24l-1.33,2.24h20.58c.84,0,1.47.14,1.89.49.35.28.56.84.56,1.47v17.99c0,.77-.21,1.26-.56,1.61-.42.35-1.05.49-1.89.49H23.87v1.82h40.67c.7,0,1.19.21,1.54.63.35.42.49,1.33.49,2.73s-.14,2.38-.49,2.73c-.35.42-.84.56-1.54.56H23.87v1.89h37.24c2.24,0,3.85.42,4.83,1.33.91.91,1.4,2.52,1.4,4.83v12.95c0,2.1-.49,3.43-1.54,4.2-.98.7-2.59,1.12-4.69,1.12h-7.63c-1.12,0-1.89-.28-2.38-.77s-.7-1.33-.7-2.52v-.49h-3.15c-1.12,0-1.75-.21-2.1-.63-.28-.35-.7-1.12-1.19-2.24l-2.59-5.95c-.35-.77-.28-1.4.21-1.96.49-.49,1.33-.77,2.52-.7h4.83c1.05-.07,1.82.14,2.17.49.35.42.84,1.19,1.47,2.38l1.05,2.31h.42c1.26,0,1.89-.91,1.89-2.66v-2.73c-.21-.91-.84-1.4-1.89-1.54H12.39c-.84,0-1.4-.14-1.82-.49ZM50.27,15.84h-26.39v1.89h26.39v-1.89ZM50.27,23.82h-26.39v1.89h26.39v-1.89ZM28.98,52.03c.49-.49,1.4-.77,2.52-.7h4.83c1.05-.07,1.82.14,2.17.49.35.42.84,1.19,1.54,2.38l2.66,5.95c.28,1.12.21,1.89-.35,2.17-.49.35-1.33.49-2.38.49h-5.32c-1.05,0-1.75-.21-2.03-.63-.35-.35-.7-1.12-1.19-2.24l-2.66-5.95c-.35-.77-.28-1.4.21-1.96Z"/><path class="cls-1" d="M78.65,15.21c-.42-.49-.63-1.26-.63-2.24v-4.41c0-1.33.21-2.17.63-2.59.35-.42,1.12-.63,2.24-.63h26.67c1.19,0,1.96.21,2.38.63s.63,1.26.63,2.59v4.41c0,.98-.21,1.75-.63,2.24-.42.42-1.19.7-2.38.7h-1.33v47.74c0,.77-.28,1.4-.84,1.96-.56.56-1.26.84-2.1.84h-3.71c-.91,0-1.61-.28-2.1-.84-.56-.56-.84-1.19-.91-1.96v-6.93l-15.47,5.95c-.84.07-1.54-.14-2.1-.7s-.84-1.26-.77-2.03v-4.27c-.07-1.19.14-1.96.49-2.45.42-.42,1.19-.91,2.38-1.33l.98-.42V15.91h-1.19c-1.12,0-1.89-.28-2.24-.7ZM96.57,19.06v-3.15h-4.83v3.15h4.83ZM91.74,29.56v3.15h4.83v-3.15h-4.83ZM91.74,47.83l4.83-1.75v-2.87h-4.83v4.62ZM139.34,18.01c.49.42.77,1.05.77,1.89v5.18c0,.91-.49,3.57-1.61,7.91-1.12,4.27-3.5,9.38-7.21,15.33,1.82,1.19,3.99,2.17,6.44,3.01.77.07,1.33.35,1.89.7.49.42.7,1.12.7,2.03v9.38c0,.91-.21,1.61-.7,2.03-.56.42-1.12.63-1.89.77-4.9-.77-9.45-3.36-13.72-7.84-1.89,1.96-3.71,3.43-5.53,4.48-3.78,2.1-6.58,3.22-8.33,3.36-.77-.14-1.33-.35-1.89-.77-.49-.42-.7-1.12-.7-2.03v-9.38c0-.91.21-1.61.7-2.03.56-.35,1.12-.63,1.89-.7,2.1-.91,4.13-1.89,6.09-3.01-1.47-2.1-2.52-3.99-3.29-5.67-1.68-3.64-2.59-6.51-2.66-8.61,0-.98.14-1.61.49-1.89.28-.28.84-.49,1.54-.49h3.78c.63,0,1.26.35,1.75,1.05.49.63.91,1.47,1.33,2.45.35,1.05,1.19,2.45,2.38,4.13.63.84,1.47,1.89,2.45,3.01,3.15-4.41,5.18-9.03,6.02-13.79h-19.39c-.7,0-1.33-.21-1.82-.49s-.77-.84-.77-1.75v-6.37c0-.84.28-1.47.77-1.89.49-.49,1.12-.77,1.82-.77h26.81c.77,0,1.4.28,1.89.77Z"/><path class="cls-1" d="M170.88,50.49c.7.07,1.33.28,1.75.77.49.49.77,1.12.77,1.82v5.81c0,2.45-.63,4.34-1.96,5.6-1.33,1.26-3.5,2.03-6.51,2.1h-10.22c-.84,0-1.54-.28-2.03-.77s-.7-1.05-.7-1.75v-3.85c0-.7.21-1.26.7-1.75s1.19-.77,2.03-.77h5.39c.84,0,1.47-.28,1.96-.77.49-.49.77-1.19.77-2.03v-1.82c0-.7.28-1.33.77-1.82.49-.49,1.12-.7,1.82-.77h5.46ZM188.94,49.02v15.26c0,.7-.21,1.26-.56,1.61-.42.35-.98.56-1.61.56h-7.7c-.63,0-1.26-.21-1.68-.56-.49-.35-.7-.91-.7-1.61v-15.26h-21.63c-.98,0-1.68-.35-2.17-.91-.56-.56-.84-1.19-.84-1.96V12.41c0-.7.28-1.26.84-1.82.49-.56,1.19-.84,2.17-.84h6.37c.84,0,1.54.28,2.1.84.56.56.84,1.12.84,1.82v27.72h46.7c1.12,0,1.89.14,2.31.56.35.42.56,1.33.56,2.59v2.8c0,.98-.21,1.68-.56,2.17-.42.49-1.19.77-2.31.77h-22.12ZM209.87,5.76c.35.42.56.91.56,1.68v29.05c0,.7-.21,1.26-.56,1.61-.35.35-.84.49-1.61.49h-39.41c-.77,0-1.26-.14-1.61-.49-.35-.35-.49-.91-.49-1.61V7.44c0-.77.14-1.26.49-1.68.35-.35.84-.49,1.61-.49h39.41c.77,0,1.26.14,1.61.49ZM198.11,11.92h-19.11v2.17h19.11v-2.17ZM198.11,20.67h-19.11v2.17h19.11v-2.17ZM198.11,29.35h-19.11v2.31h19.11v-2.31ZM201.96,51.26c.49.49.77,1.12.77,1.82v1.82c0,.84.28,1.54.77,2.03.49.49,1.19.77,1.96.77h5.39c.84,0,1.54.28,2.03.77.49.49.7,1.05.7,1.75v3.85c0,.7-.21,1.26-.7,1.75-.49.49-1.19.77-2.03.77h-10.22c-3.01-.07-5.18-.84-6.51-2.1-1.33-1.26-1.96-3.15-1.96-5.6v-5.81c0-.7.28-1.33.77-1.82.42-.49,1.05-.7,1.75-.77h5.46c.7.07,1.33.28,1.82.77Z"/><path class="cls-2" d="M61.12,71.1h-7.63c-2.87,0-4.61-1.14-5.56-2.09-.53-.53-.92-1.11-1.21-1.7-.73-.03-1.83-.14-2.93-.65-1.05.45-2.29.66-3.81.66h-5.32c-1.43,0-2.55-.27-3.43-.66-1.36.58-2.74.66-3.85.66h-5.25c-1.99,0-3.58-.48-4.75-1.43-1.8,1.43-3.93,1.43-4.7,1.43h-5.25c-1.37,0-3.14-.13-4.79-1.15-1.78-1.08-3.4-3.62-2.23-7.36.05-.17.12-.33.19-.49l2.66-5.95c.04-.09.08-.18.13-.27.76-1.44,1.39-2.44,1.99-3.16.07-.08.14-.17.22-.25-.05-.35-.08-.71-.08-1.07V11.71c0-2.02.82-3.84,2.25-4.98,1.76-1.47,3.92-1.47,4.63-1.47h9.04l.21-.39s.05-.09.08-.14c.67-1.17,1.42-2.38,2.63-3.29,1.22-.96,2.78-1.42,4.78-1.42h9.45c2.97,0,4.69,1.18,5.63,2.23.71.76,1.26,1.8,1.42,3.02h14.23c1.98,0,3.54.5,4.78,1.54,1.35,1.08,2.17,2.9,2.17,4.92v17.78c1.07.37,2.01,1,2.74,1.88,1.35,1.62,1.54,3.75,1.54,5.61,0,1.62-.13,3.27-.88,4.66,1.09,1.71,1.65,3.95,1.65,6.68v12.95c0,3.55-1.14,6.19-3.38,7.83-1.86,1.33-4.32,1.99-7.35,1.99ZM54.85,62.1h6.27c.79,0,1.35-.08,1.7-.17.02-.16.03-.37.03-.65v-12.95c0-.76-.07-1.24-.14-1.52-.29-.06-.79-.14-1.59-.14h-2.87c1.02.86,1.75,2.04,2.07,3.45.08.33.12.67.12,1.01v2.73c0,4.7-2.9,6.93-5.91,7.14.15.35.26.71.33,1.1ZM36.36,59.68h0s0,0,0,0ZM23.76,59.68s0,0,0,0c0,0,0,0,0,0ZM48.16,58.31h1.34l-.96-2.12c-.07-.13-.14-.25-.2-.36h-1.26l1.01,2.32c.03.06.05.11.07.16ZM35.63,58.31h1.32l-.91-2.04c-.1-.16-.18-.31-.26-.44h-1.25l1.02,2.27c.03.06.06.13.09.21ZM23.03,58.31h1.32l-.95-2.13c-.07-.13-.13-.24-.19-.35h-1.28l1.02,2.28c.03.07.06.14.09.2ZM10.44,58.31h1.32c.02-.06.05-.11.08-.17l.98-2.31h-1.24c-.06.11-.12.22-.19.35l-.95,2.13ZM14.51,45.08h5.94c-.67-.79-1.08-1.81-1.08-2.92v-1.89c0-1.32.57-2.5,1.47-3.33-.9-.82-1.47-2.01-1.47-3.33v-1.82c0-1.17.45-2.24,1.19-3.05-.74-.8-1.19-1.87-1.19-3.05v-1.89c0-1.17.45-2.24,1.19-3.04-.74-.8-1.19-1.87-1.19-3.04v-1.89c0-.56.1-1.1.29-1.59h-5.15v30.83ZM54.48,27.3h3.33v-13.05h-3.33c.19.49.29,1.03.29,1.59v1.89c0,1.17-.45,2.24-1.19,3.04.74.8,1.19,1.87,1.19,3.04v1.89c0,.56-.1,1.1-.29,1.59ZM28.4,11.34h6.66c-.28-.75-.36-1.56-.23-2.34h-5.2s-.04.07-.07.12l-1.17,2.22Z"/><path class="cls-2" d="M103.29,70.96h-3.71c-2.14,0-4.04-.8-5.38-2.26-1.24-1.28-1.95-2.84-2.11-4.64-.01-.14-.02-.27-.02-.41v-.38l-9.36,3.6c-.4.15-.82.25-1.24.28-2.17.18-4.18-.53-5.66-2-1.46-1.46-2.2-3.36-2.09-5.37v-4c-.1-2.07.35-3.81,1.33-5.18.14-.2.3-.39.48-.56.56-.56,1.24-1.06,2.04-1.5v-28.73c-1.11-.46-1.87-1.11-2.37-1.7-.78-.92-1.69-2.55-1.69-5.14v-4.41c0-1.6.19-3.9,1.81-5.63,1.25-1.39,3.11-2.09,5.56-2.09h26.67c.89,0,3.62,0,5.56,1.95,1.75,1.75,1.95,4.13,1.95,5.77v4.18h22.38c1.87,0,3.62.7,4.95,1.97,1.42,1.29,2.21,3.12,2.21,5.19v5.18c0,1.49-.59,4.53-1.75,9.04-.96,3.67-2.73,7.81-5.26,12.37.38.15.78.3,1.19.45,1.41.24,2.44.8,3.21,1.28.19.12.38.26.55.4,1.04.89,2.27,2.55,2.27,5.45v9.38c0,2.89-1.23,4.56-2.27,5.44-.08.06-.15.13-.23.19-1.43,1.07-2.84,1.43-3.78,1.6-.5.09-1.01.1-1.51.02-4.62-.73-8.99-2.79-13.05-6.15-1.08.87-2.16,1.61-3.26,2.25-4.5,2.5-7.73,3.75-10.22,3.95-.39.03-.78.01-1.17-.06-.61-.11-1.41-.3-2.29-.7-1.12.65-2.39.99-3.77.99ZM101.07,61.96h.66V15.91c0-2.43,1.93-4.41,4.34-4.5v-1.57h-23.55v1.59c2.28.22,4.06,2.14,4.06,4.48v35.56c0,1.8-1.07,3.43-2.73,4.14l-.98.42s-.09.04-.14.06v1.14l12.23-4.7c1.38-.53,2.94-.35,4.16.49,1.22.84,1.95,2.23,1.95,3.71v5.23ZM124.01,53.9h.01c1.23,0,2.4.51,3.25,1.4,2.77,2.91,5.59,4.84,8.55,5.85v-5.72c-2.75-.97-5.04-2.07-6.99-3.34-2.05-1.34-2.65-4.07-1.36-6.15,3.41-5.48,5.66-10.22,6.68-14.09,1.14-4.42,1.44-6.43,1.46-6.82v-3.29h-23.06v2.27h17.48c1.33,0,2.59.59,3.45,1.61.86,1.02,1.22,2.36.98,3.67-.95,5.39-3.24,10.65-6.79,15.62-.8,1.12-2.07,1.81-3.44,1.88-1.39.06-2.7-.5-3.61-1.53-1.21-1.38-2.11-2.54-2.66-3.27-.03-.03-.05-.07-.07-.1-.38-.54-.72-1.04-1.03-1.52.06.13.12.26.18.39.75,1.63,1.72,3.3,2.89,4.98.73,1.04.98,2.33.7,3.57-.28,1.23-1.06,2.3-2.16,2.92-1.93,1.1-4.03,2.14-6.41,3.18v5.64c1-.41,2.38-1.07,4.23-2.1,1.4-.81,2.89-2.02,4.48-3.67.85-.88,2.02-1.38,3.24-1.38ZM123.15,33.01c.06.13.11.26.17.38.05.11.09.23.13.35.02.06.06.17.15.36.16-.36.32-.72.47-1.08h-.92ZM91.74,52.33c-.91,0-1.82-.28-2.58-.82-1.2-.84-1.92-2.22-1.92-3.68v-4.62c0-2.49,2.01-4.5,4.5-4.5h4.83c2.49,0,4.5,2.01,4.5,4.5v2.87c0,1.89-1.19,3.59-2.97,4.23l-4.83,1.75c-.5.18-1.02.27-1.53.27ZM96.57,37.21h-4.83c-2.49,0-4.5-2.01-4.5-4.5v-3.15c0-2.49,2.01-4.5,4.5-4.5h4.83c2.49,0,4.5,2.01,4.5,4.5v3.15c0,2.49-2.01,4.5-4.5,4.5ZM96.57,23.56h-4.83c-2.49,0-4.5-2.01-4.5-4.5v-3.15c0-2.49,2.01-4.5,4.5-4.5h4.83c2.49,0,4.5,2.01,4.5,4.5v3.15c0,2.49-2.01,4.5-4.5,4.5Z"/><path class="cls-2" d="M210.85,71.1h-10.22s-.07,0-.11,0c-3.51-.08-6.37-.93-8.52-2.51-.14.17-.29.34-.44.49-.09.09-.19.19-.3.27-1.24,1.04-2.84,1.61-4.5,1.61h-7.7c-1.62,0-3.22-.54-4.43-1.5-.37-.28-.7-.6-.99-.94-2.17,1.63-5.05,2.5-8.61,2.58-.04,0-.07,0-.11,0h-10.22c-2.01,0-3.87-.74-5.21-2.09-1.32-1.32-2.02-3.03-2.02-4.93v-3.85c0-1.91.7-3.61,2.02-4.93,1.03-1.03,2.34-1.7,3.8-1.96-1.44-.33-2.71-1.06-3.7-2.14-1.35-1.4-2.06-3.13-2.06-5.04V12.41c0-1.84.69-3.49,2.06-4.9.97-1.06,2.68-2.26,5.45-2.26h6.37c.37,0,.73.02,1.08.07.25-.91.67-1.72,1.27-2.45.08-.1.17-.2.27-.29,1.2-1.2,2.81-1.81,4.8-1.81h39.41c1.98,0,3.6.61,4.8,1.81.09.1.19.19.27.3,1.06,1.28,1.6,2.81,1.6,4.56v28.93c.56.27,1.12.64,1.62,1.14.1.1.19.19.27.3,1.08,1.29,1.61,3.08,1.61,5.47v2.8c0,1.88-.47,3.49-1.4,4.79-.08.11-.16.21-.24.31-.75.87-2.04,1.88-4.17,2.22,1.32.3,2.5.95,3.44,1.89,1.32,1.32,2.02,3.03,2.02,4.93v3.85c0,1.9-.7,3.61-2.01,4.93-1.35,1.35-3.2,2.09-5.22,2.09ZM200.69,62.1h3.48c-1.47-.25-2.8-.93-3.85-1.98-1.33-1.32-2.07-3.14-2.09-5.12h-1.57v3.9c0,1.15.2,2,.56,2.34.14.13.97.8,3.47.86ZM161.41,62.1h3.46c2.5-.07,3.33-.73,3.47-.87.35-.33.56-1.19.56-2.33v-3.9h-1.57c-.02,1.98-.76,3.8-2.09,5.13-1.05,1.05-2.36,1.72-3.82,1.97ZM181.19,61.96h3.25v-12.93c0-2.15,1.5-3.94,3.51-4.39h-10.27c2.01.45,3.51,2.25,3.51,4.39v12.93ZM156.55,44.52h6.83c-2.01-.45-3.51-2.25-3.51-4.39V14.25h-3.32v30.27ZM201.9,34.09h4.03V9.77h-3.87c.35.64.55,1.37.55,2.15v2.17c0,1.3-.55,2.47-1.43,3.29.88.82,1.43,1.99,1.43,3.29v2.17c0,1.28-.53,2.44-1.39,3.25.86.82,1.39,1.97,1.39,3.25v2.31c0,.9-.26,1.73-.71,2.43ZM171.25,34.09h3.96c-.45-.7-.71-1.53-.71-2.43v-2.31c0-1.28.53-2.44,1.39-3.25-.86-.82-1.39-1.97-1.39-3.25v-2.17c0-1.3.55-2.47,1.43-3.29-.88-.82-1.43-1.99-1.43-3.29v-2.17c0-.78.2-1.51.55-2.15h-3.79v24.32ZM208.31,9.77h0,0Z"/><path class="cls-3" d="M61.12,69.6h-7.63c-1.89,0-3.41-.55-4.5-1.65-.64-.64-1.02-1.4-1.25-2.13h-.48c-.59,0-2.12,0-3.45-.86-.96.58-2.19.86-3.84.86h-5.32c-1.4,0-2.54-.28-3.4-.85-1.3.75-2.75.85-3.88.85h-5.25c-.79,0-3.17,0-4.5-1.83-.06-.07-.13-.17-.22-.31-.13.2-.23.32-.28.39-1.46,1.75-3.7,1.75-4.44,1.75h-5.25c-1.17,0-2.67-.11-4-.92-1.38-.82-2.5-2.72-1.59-5.63.04-.11.08-.22.12-.33l2.66-5.95c.03-.06.06-.12.09-.18.7-1.33,1.3-2.27,1.82-2.9.06-.07.12-.14.18-.2.17-.17.35-.32.54-.45-.15-.5-.23-1.05-.23-1.62V11.71c0-1.57.62-2.96,1.69-3.81,1.22-1.02,2.7-1.15,3.69-1.15h9.95l.63-1.2s.03-.06.05-.09c.62-1.08,1.25-2.11,2.25-2.85.95-.75,2.21-1.11,3.86-1.11h9.45c2.44,0,3.81.94,4.53,1.75.46.5,1.31,1.7,1,3.5h15.75c1.61,0,2.86.39,3.81,1.19,1.02.81,1.64,2.2,1.64,3.77v17.99c0,.33-.02.65-.07.96,1.59.18,2.58.98,3.15,1.67,1.04,1.25,1.19,2.98,1.19,4.65s-.15,3.49-1.22,4.7c1.32,1.51,1.99,3.75,1.99,6.65v12.95c0,1.14,0,4.59-2.77,6.62-1.56,1.12-3.79,1.7-6.46,1.7ZM53.41,63.59s.05,0,.07,0h7.63c2.1,0,2.86-.5,2.94-.56.05-.04.29-.5.29-1.76v-12.95c0-1.86-.38-2.52-.49-2.67-.2-.14-.87-.49-2.74-.49H23.87c-1.66,0-3-1.34-3-3v-1.89c0-1.66,1.34-3,3-3h39.7c0-.09,0-.19,0-.29,0-.13,0-.25,0-.36H23.87c-1.66,0-3-1.34-3-3v-1.82c0-1.66,1.34-3,3-3h35.43V12.75s-20.03,0-20.03,0c-1.08,0-2.07-.58-2.61-1.52-.53-.94-.52-2.09.03-3.02l.43-.72h-8c-.14,0-.25,0-.33.01-.08.12-.25.38-.54.88l-1.45,2.75c-.52.99-1.54,1.61-2.66,1.61h-11.14v33.83h41.03c.13,0,.27,0,.4.03,2.31.31,3.92,1.71,4.42,3.84.05.22.08.45.08.67v2.73c0,4.18-2.63,5.66-4.89,5.66h-.42c-1.18,0-2.24-.69-2.73-1.76l-1.01-2.22c-.29-.54-.52-.93-.69-1.21-.02,0-.04,0-.06,0-.07,0-.13,0-.2,0h-4.14l1.92,4.41c.21.47.38.82.5,1.07h3.19c1.66,0,3,1.34,3,3v.49c0,.11,0,.21,0,.29ZM35.12,60.52s0,0,0,0c0,0,0,0,0,0ZM34.67,59.81h4.6l-1.89-4.23c-.34-.57-.59-.98-.77-1.26-.02,0-.05,0-.07,0-.07,0-.13,0-.2,0h-4.12l1.96,4.39c.13.3.33.75.49,1.09ZM22.09,59.81h4.58l-1.92-4.29c-.31-.59-.54-.96-.69-1.2-.04,0-.08,0-.13,0-.06,0-.12,0-.19,0h-4.47c.35.29.64.66.84,1.1l1.47,3.29c.21.49.39.84.51,1.09ZM8.13,59.81h4.58c.12-.24.29-.59.5-1.07l1.39-3.26c.19-.46.49-.84.86-1.15h-4.47c-.07,0-.13,0-.2,0-.02,0-.04,0-.06,0-.17.27-.39.66-.68,1.2l-1.92,4.29ZM6.46,59.72h0s0,0,0,0ZM29.01,7.29h0s0,0,0,0ZM50.27,28.71h-26.39c-1.66,0-3-1.34-3-3v-1.89c0-1.66,1.34-3,3-3h26.39c1.66,0,3,1.34,3,3v1.89c0,1.66-1.34,3-3,3ZM50.27,20.73h-26.39c-1.66,0-3-1.34-3-3v-1.89c0-1.66,1.34-3,3-3h26.39c1.66,0,3,1.34,3,3v1.89c0,1.66-1.34,3-3,3Z"/><path class="cls-3" d="M103.29,69.46h-3.71c-2.18,0-3.53-.95-4.29-1.79-1-1.03-1.58-2.29-1.71-3.74,0-.09-.01-.18-.01-.27v-2.56l-11.4,4.38c-.27.1-.54.17-.83.19-2.21.18-3.65-.75-4.47-1.57-1.17-1.17-1.75-2.67-1.65-4.26v-4.08c-.09-1.74.27-3.18,1.05-4.28.1-.13.2-.26.32-.38.62-.63,1.46-1.17,2.48-1.63v-30.75c-1.39-.32-2.23-.98-2.72-1.57-.89-1.05-1.34-2.45-1.34-4.18v-4.41c0-1.34.15-3.26,1.41-4.61.96-1.08,2.42-1.61,4.46-1.61h26.67c2.01,0,3.49.49,4.5,1.51,1.35,1.35,1.51,3.34,1.51,4.71v4.41c0,.44-.03.87-.09,1.27h23.97c1.51,0,2.87.54,3.93,1.57,1.11,1,1.73,2.45,1.73,4.09v5.18c0,1.7-.93,5.65-1.71,8.66-1.03,3.92-3.02,8.44-5.94,13.46.89.42,1.87.81,2.95,1.19,1.22.19,2.12.67,2.79,1.09.13.08.25.17.37.27.8.68,1.75,1.99,1.75,4.31v9.38c0,2.32-.95,3.62-1.75,4.31-.05.04-.1.08-.16.12-.91.68-1.88,1.09-3.15,1.32-.33.06-.67.06-1.01.01-4.71-.74-9.16-2.97-13.27-6.64-1.34,1.17-2.67,2.14-4.02,2.92-4.23,2.35-7.36,3.57-9.59,3.75-.26.02-.52,0-.78-.04-1.04-.19-1.88-.5-2.65-.98-1.03.81-2.29,1.23-3.68,1.23ZM99.61,63.46h3.62V15.91c0-1.66,1.34-3,3-3h1.34v-4.35c0-.08,0-.15,0-.22h-26.55c0,.07,0,.14,0,.22v4.35h1.06c1.66,0,3,1.34,3,3v35.56c0,1.2-.72,2.29-1.82,2.76l-.98.42c-.06.03-.12.05-.18.07-.4.14-.68.27-.88.38,0,.1,0,.23,0,.39,0,.06,0,.12,0,.18v3.74l14.26-5.49c.92-.35,1.96-.23,2.78.33.81.56,1.3,1.48,1.3,2.47v6.67s.03.04.04.06ZM110.56,54.31v8.84c.99-.23,2.93-.92,6.46-2.88,1.55-.89,3.14-2.19,4.83-3.94.57-.59,1.35-.92,2.16-.92h0c.82,0,1.6.34,2.16.93,3.55,3.73,7.21,5.96,11.14,6.79v-8.82c-.19-.03-.38-.07-.56-.13-2.84-.97-5.16-2.06-7.11-3.34-1.37-.89-1.77-2.71-.91-4.1,3.49-5.6,5.8-10.48,6.85-14.51,1.22-4.73,1.51-6.77,1.51-7.15v-4.84h-26.06v5.27s18.98,0,18.98,0c.89,0,1.73.39,2.3,1.07.57.68.81,1.58.66,2.45-.91,5.17-3.11,10.22-6.53,15.01-.53.75-1.38,1.21-2.29,1.25-.9.05-1.8-.33-2.41-1.02-1.18-1.34-2.06-2.47-2.59-3.19-1.46-2.07-2.34-3.59-2.78-4.85-.16-.36-.49-1.11-.82-1.58h-2.21c.18,1.26.76,3.35,2.32,6.73.78,1.71,1.8,3.46,3.03,5.21.48.69.65,1.55.47,2.38-.18.82-.71,1.53-1.44,1.95-1.91,1.09-4,2.12-6.39,3.16-.25.11-.51.18-.78.22ZM109.23,41.63v6.81s.07-.01.1-.02c.92-.41,1.79-.81,2.62-1.22-.65-1.11-1.23-2.21-1.73-3.3-.37-.79-.7-1.55-.99-2.27ZM120.67,31.51c.54.83.95,1.73,1.27,2.47.03.08.06.15.09.23.15.44.56,1.3,1.71,2.95,1.04-1.86,1.87-3.75,2.47-5.65h-5.53ZM137.39,20.29h0,0ZM91.74,50.83c-.61,0-1.21-.19-1.72-.54-.8-.56-1.28-1.48-1.28-2.46v-4.62c0-1.66,1.34-3,3-3h4.83c1.66,0,3,1.34,3,3v2.87c0,1.26-.79,2.39-1.98,2.82l-4.83,1.75c-.33.12-.68.18-1.02.18ZM96.57,35.71h-4.83c-1.66,0-3-1.34-3-3v-3.15c0-1.66,1.34-3,3-3h4.83c1.66,0,3,1.34,3,3v3.15c0,1.66-1.34,3-3,3ZM96.57,22.06h-4.83c-1.66,0-3-1.34-3-3v-3.15c0-1.66,1.34-3,3-3h4.83c1.66,0,3,1.34,3,3v3.15c0,1.66-1.34,3-3,3Z"/><path class="cls-3" d="M210.85,69.6h-10.22c-3.76-.09-6.62-1.07-8.57-2.92-.15-.15-.3-.29-.44-.45-.24.69-.62,1.3-1.12,1.79-.06.06-.13.12-.2.18-.97.81-2.23,1.26-3.53,1.26h-7.7c-1.29,0-2.57-.43-3.52-1.19-.72-.54-1.24-1.26-1.55-2.11-.16.18-.33.35-.5.52-1.96,1.85-4.82,2.84-8.5,2.92h-10.29c-1.61,0-3.09-.58-4.15-1.65-1.05-1.05-1.58-2.35-1.58-3.87v-3.85c0-1.52.53-2.82,1.58-3.87,1.06-1.06,2.54-1.65,4.15-1.65h5.12v-1.62c0-.36.04-.71.11-1.06h-4.87c-1.75,0-3.26-.64-4.36-1.86-1.08-1.11-1.65-2.5-1.65-4.01V12.41c0-1.45.56-2.75,1.65-3.88.76-.83,2.12-1.79,4.36-1.79h6.37c.83,0,1.61.15,2.32.45.02-.92.21-2.19,1.18-3.36.06-.07.12-.13.18-.2,1.37-1.37,3.15-1.37,3.73-1.37h39.41c.58,0,2.37,0,3.73,1.37.06.06.12.13.18.2.84,1.01,1.25,2.19,1.25,3.6v29.05c0,.31-.02.6-.06.89.76.2,1.5.56,2.13,1.19.06.06.12.13.18.2.85,1.01,1.26,2.49,1.26,4.51v2.8c0,1.56-.38,2.88-1.12,3.92-.05.07-.11.14-.16.21-.71.83-2.08,1.82-4.59,1.82h-5.43c.07.35.1.7.1,1.06v1.62h5.12c1.62,0,3.09.59,4.15,1.65,1.05,1.05,1.58,2.35,1.58,3.87v3.85c0,1.52-.53,2.82-1.58,3.87-1.06,1.06-2.54,1.65-4.15,1.65ZM195.16,53.49v5.4c0,1.63.34,2.78,1.02,3.43.82.77,2.42,1.23,4.52,1.28h9.88v-2.89h-5.12c-1.57,0-3.02-.59-4.08-1.66-1.06-1.06-1.65-2.54-1.65-4.15v-1.41h-4.57ZM154.98,63.59h9.95c2.02-.04,3.63-.5,4.45-1.27.68-.64,1.02-1.8,1.02-3.42v-5.4h-4.57v1.41c0,1.62-.59,3.09-1.65,4.15-1.08,1.08-2.49,1.65-4.08,1.65h-5.12v2.88ZM179.69,63.46h6.25v-14.43c0-1.66,1.34-3,3-3h21.99v-2.74c0-.05,0-.1,0-.15h-46.56c-1.66,0-3-1.34-3-3V12.75h-6.31s0,0-.01,0v33.27h21.64c1.66,0,3,1.34,3,3v14.43ZM194.82,53.5h0s0,0,0,0ZM210.88,46.6h0s0,0,0,0ZM169.75,35.59h37.68V8.27s-37.68,0-37.68,0v27.32ZM208.45,8.28h0,0ZM198.11,34.66h-19.11c-1.66,0-3-1.34-3-3v-2.31c0-1.66,1.34-3,3-3h19.11c1.66,0,3,1.34,3,3v2.31c0,1.66-1.34,3-3,3ZM198.11,25.84h-19.11c-1.66,0-3-1.34-3-3v-2.17c0-1.66,1.34-3,3-3h19.11c1.66,0,3,1.34,3,3v2.17c0,1.66-1.34,3-3,3ZM198.11,17.09h-19.11c-1.66,0-3-1.34-3-3v-2.17c0-1.66,1.34-3,3-3h19.11c1.66,0,3,1.34,3,3v2.17c0,1.66-1.34,3-3,3Z"/><path class="cls-2" d="M25.9,51.82c.42.42.91,1.19,1.54,2.38l2.66,5.95c.35,1.12.21,1.89-.28,2.17-.56.35-1.33.49-2.45.49h-5.25c-1.12,0-1.82-.21-2.1-.63-.28-.35-.7-1.12-1.19-2.24l-1.47-3.29-1.4,3.29c-.49,1.12-.91,1.89-1.19,2.24-.35.42-.98.63-2.1.63h-5.25c-1.12,0-1.89-.14-2.45-.49-.49-.28-.63-1.05-.28-2.17l2.66-5.95c.63-1.19,1.12-1.96,1.47-2.38.35-.35,1.12-.56,2.17-.49h12.74c1.12-.07,1.82.14,2.17.49ZM10.57,49.09c-.35-.28-.56-.77-.56-1.47V11.71c0-.63.21-1.19.56-1.47.42-.35.98-.49,1.82-.49h11.76l1.47-2.8c.56-.98.98-1.61,1.47-1.96.42-.35,1.12-.49,2.03-.49h9.45c1.12,0,1.89.28,2.31.77.49.49.35,1.26-.28,2.24l-1.33,2.24h20.58c.84,0,1.47.14,1.89.49.35.28.56.84.56,1.47v17.99c0,.77-.21,1.26-.56,1.61-.42.35-1.05.49-1.89.49H23.87v1.82h40.67c.7,0,1.19.21,1.54.63.35.42.49,1.33.49,2.73s-.14,2.38-.49,2.73c-.35.42-.84.56-1.54.56H23.87v1.89h37.24c2.24,0,3.85.42,4.83,1.33.91.91,1.4,2.52,1.4,4.83v12.95c0,2.1-.49,3.43-1.54,4.2-.98.7-2.59,1.12-4.69,1.12h-7.63c-1.12,0-1.89-.28-2.38-.77s-.7-1.33-.7-2.52v-.49h-3.15c-1.12,0-1.75-.21-2.1-.63-.28-.35-.7-1.12-1.19-2.24l-2.59-5.95c-.35-.77-.28-1.4.21-1.96.49-.49,1.33-.77,2.52-.7h4.83c1.05-.07,1.82.14,2.17.49.35.42.84,1.19,1.47,2.38l1.05,2.31h.42c1.26,0,1.89-.91,1.89-2.66v-2.73c-.21-.91-.84-1.4-1.89-1.54H12.39c-.84,0-1.4-.14-1.82-.49ZM50.27,15.84h-26.39v1.89h26.39v-1.89ZM50.27,23.82h-26.39v1.89h26.39v-1.89ZM28.98,52.03c.49-.49,1.4-.77,2.52-.7h4.83c1.05-.07,1.82.14,2.17.49.35.42.84,1.19,1.54,2.38l2.66,5.95c.28,1.12.21,1.89-.35,2.17-.49.35-1.33.49-2.38.49h-5.32c-1.05,0-1.75-.21-2.03-.63-.35-.35-.7-1.12-1.19-2.24l-2.66-5.95c-.35-.77-.28-1.4.21-1.96Z"/><path class="cls-2" d="M78.65,15.21c-.42-.49-.63-1.26-.63-2.24v-4.41c0-1.33.21-2.17.63-2.59.35-.42,1.12-.63,2.24-.63h26.67c1.19,0,1.96.21,2.38.63s.63,1.26.63,2.59v4.41c0,.98-.21,1.75-.63,2.24-.42.42-1.19.7-2.38.7h-1.33v47.74c0,.77-.28,1.4-.84,1.96-.56.56-1.26.84-2.1.84h-3.71c-.91,0-1.61-.28-2.1-.84-.56-.56-.84-1.19-.91-1.96v-6.93l-15.47,5.95c-.84.07-1.54-.14-2.1-.7s-.84-1.26-.77-2.03v-4.27c-.07-1.19.14-1.96.49-2.45.42-.42,1.19-.91,2.38-1.33l.98-.42V15.91h-1.19c-1.12,0-1.89-.28-2.24-.7ZM96.57,19.06v-3.15h-4.83v3.15h4.83ZM91.74,29.56v3.15h4.83v-3.15h-4.83ZM91.74,47.83l4.83-1.75v-2.87h-4.83v4.62ZM139.34,18.01c.49.42.77,1.05.77,1.89v5.18c0,.91-.49,3.57-1.61,7.91-1.12,4.27-3.5,9.38-7.21,15.33,1.82,1.19,3.99,2.17,6.44,3.01.77.07,1.33.35,1.89.7.49.42.7,1.12.7,2.03v9.38c0,.91-.21,1.61-.7,2.03-.56.42-1.12.63-1.89.77-4.9-.77-9.45-3.36-13.72-7.84-1.89,1.96-3.71,3.43-5.53,4.48-3.78,2.1-6.58,3.22-8.33,3.36-.77-.14-1.33-.35-1.89-.77-.49-.42-.7-1.12-.7-2.03v-9.38c0-.91.21-1.61.7-2.03.56-.35,1.12-.63,1.89-.7,2.1-.91,4.13-1.89,6.09-3.01-1.47-2.1-2.52-3.99-3.29-5.67-1.68-3.64-2.59-6.51-2.66-8.61,0-.98.14-1.61.49-1.89.28-.28.84-.49,1.54-.49h3.78c.63,0,1.26.35,1.75,1.05.49.63.91,1.47,1.33,2.45.35,1.05,1.19,2.45,2.38,4.13.63.84,1.47,1.89,2.45,3.01,3.15-4.41,5.18-9.03,6.02-13.79h-19.39c-.7,0-1.33-.21-1.82-.49s-.77-.84-.77-1.75v-6.37c0-.84.28-1.47.77-1.89.49-.49,1.12-.77,1.82-.77h26.81c.77,0,1.4.28,1.89.77Z"/><path class="cls-2" d="M170.88,50.49c.7.07,1.33.28,1.75.77.49.49.77,1.12.77,1.82v5.81c0,2.45-.63,4.34-1.96,5.6-1.33,1.26-3.5,2.03-6.51,2.1h-10.22c-.84,0-1.54-.28-2.03-.77s-.7-1.05-.7-1.75v-3.85c0-.7.21-1.26.7-1.75s1.19-.77,2.03-.77h5.39c.84,0,1.47-.28,1.96-.77.49-.49.77-1.19.77-2.03v-1.82c0-.7.28-1.33.77-1.82.49-.49,1.12-.7,1.82-.77h5.46ZM188.94,49.02v15.26c0,.7-.21,1.26-.56,1.61-.42.35-.98.56-1.61.56h-7.7c-.63,0-1.26-.21-1.68-.56-.49-.35-.7-.91-.7-1.61v-15.26h-21.63c-.98,0-1.68-.35-2.17-.91-.56-.56-.84-1.19-.84-1.96V12.41c0-.7.28-1.26.84-1.82.49-.56,1.19-.84,2.17-.84h6.37c.84,0,1.54.28,2.1.84.56.56.84,1.12.84,1.82v27.72h46.7c1.12,0,1.89.14,2.31.56.35.42.56,1.33.56,2.59v2.8c0,.98-.21,1.68-.56,2.17-.42.49-1.19.77-2.31.77h-22.12ZM209.87,5.76c.35.42.56.91.56,1.68v29.05c0,.7-.21,1.26-.56,1.61-.35.35-.84.49-1.61.49h-39.41c-.77,0-1.26-.14-1.61-.49-.35-.35-.49-.91-.49-1.61V7.44c0-.77.14-1.26.49-1.68.35-.35.84-.49,1.61-.49h39.41c.77,0,1.26.14,1.61.49ZM198.11,11.92h-19.11v2.17h19.11v-2.17ZM198.11,20.67h-19.11v2.17h19.11v-2.17ZM198.11,29.35h-19.11v2.31h19.11v-2.31ZM201.96,51.26c.49.49.77,1.12.77,1.82v1.82c0,.84.28,1.54.77,2.03.49.49,1.19.77,1.96.77h5.39c.84,0,1.54.28,2.03.77.49.49.7,1.05.7,1.75v3.85c0,.7-.21,1.26-.7,1.75-.49.49-1.19.77-2.03.77h-10.22c-3.01-.07-5.18-.84-6.51-2.1-1.33-1.26-1.96-3.15-1.96-5.6v-5.81c0-.7.28-1.33.77-1.82.42-.49,1.05-.7,1.75-.77h5.46c.7.07,1.33.28,1.82.77Z"/></g></svg>