<?xml version="1.0" encoding="UTF-8"?><svg id="_レイヤー_2" xmlns="http://www.w3.org/2000/svg" viewBox="0 0 219.49 70.68"><defs><style>.cls-1,.cls-2,.cls-3{stroke-width:0px;}.cls-2{fill:#198caa;}.cls-3{fill:#fff;}</style></defs><g id="_レイヤー_4"><path class="cls-1" d="M5.06,65.34c-.42-.49-.56-1.19-.56-2.17V19.48c0-.7.14-1.26.56-1.61.42-.35.98-.56,1.68-.56h9.87c.7,0,1.26.21,1.75.56.42.35.7.91.7,1.61v33.88h8.82V6.6c0-.7.21-1.19.63-1.61.35-.35.91-.49,1.61-.49h9.8c.7,0,1.26.14,1.75.49.42.42.7.91.7,1.61v46.77h8.89V19.48c0-.7.28-1.26.7-1.61.49-.35,1.05-.56,1.75-.56h9.87c.7,0,1.26.21,1.61.56.42.35.56.91.56,1.61v43.69c0,.98-.14,1.68-.56,2.17s-1.26.77-2.38.77H7.37c-1.12,0-1.89-.28-2.31-.77Z"/><path class="cls-1" d="M82.47,66.18c-1.26,0-2.24-.21-3.01-.7-.7-.49-1.05-1.61-1.05-3.22V8.91c0-1.47.35-2.52,1.05-3.15.7-.63,1.68-.91,2.94-.91h54.12c1.47,0,2.52.28,3.15.91.7.56.98,1.61.98,3.08v53.55c0,1.47-.28,2.52-.91,3.01-.63.56-1.68.77-3.15.77h-54.12ZM126.16,54.76V16.19h-33.32v38.57h33.32Z"/><path class="cls-1" d="M171.93,50.07c.7.07,1.33.28,1.75.77.49.49.77,1.12.77,1.82v5.81c0,2.45-.63,4.34-1.96,5.6-1.33,1.26-3.5,2.03-6.51,2.1h-10.22c-.84,0-1.54-.28-2.03-.77s-.7-1.05-.7-1.75v-3.85c0-.7.21-1.26.7-1.75s1.19-.77,2.03-.77h5.39c.84,0,1.47-.28,1.96-.77.49-.49.77-1.19.77-2.03v-1.82c0-.7.28-1.33.77-1.82.49-.49,1.12-.7,1.82-.77h5.46ZM190,48.6v15.26c0,.7-.21,1.26-.56,1.61-.42.35-.98.56-1.61.56h-7.7c-.63,0-1.26-.21-1.68-.56-.49-.35-.7-.91-.7-1.61v-15.26h-21.63c-.98,0-1.68-.35-2.17-.91-.56-.56-.84-1.19-.84-1.96V11.99c0-.7.28-1.26.84-1.82.49-.56,1.19-.84,2.17-.84h6.37c.84,0,1.54.28,2.1.84.56.56.84,1.12.84,1.82v27.72h46.7c1.12,0,1.89.14,2.31.56.35.42.56,1.33.56,2.59v2.8c0,.98-.21,1.68-.56,2.17-.42.49-1.19.77-2.31.77h-22.12ZM210.93,5.34c.35.42.56.91.56,1.68v29.05c0,.7-.21,1.26-.56,1.61-.35.35-.84.49-1.61.49h-39.41c-.77,0-1.26-.14-1.61-.49-.35-.35-.49-.91-.49-1.61V7.02c0-.77.14-1.26.49-1.68.35-.35.84-.49,1.61-.49h39.41c.77,0,1.26.14,1.61.49ZM199.17,11.5h-19.11v2.17h19.11v-2.17ZM199.17,20.25h-19.11v2.17h19.11v-2.17ZM199.17,28.93h-19.11v2.31h19.11v-2.31ZM203.02,50.84c.49.49.77,1.12.77,1.82v1.82c0,.84.28,1.54.77,2.03.49.49,1.19.77,1.96.77h5.39c.84,0,1.54.28,2.03.77.49.49.7,1.05.7,1.75v3.85c0,.7-.21,1.26-.7,1.75-.49.49-1.19.77-2.03.77h-10.22c-3.01-.07-5.18-.84-6.51-2.1-1.33-1.26-1.96-3.15-1.96-5.6v-5.81c0-.7.28-1.33.77-1.82.42-.49,1.05-.7,1.75-.77h5.46c.7.07,1.33.28,1.82.77Z"/><path class="cls-2" d="M62.82,70.61H7.37c-3.07,0-4.81-1.27-5.72-2.34h0c-1.47-1.72-1.65-3.73-1.65-5.1V19.48c0-2.69,1.19-4.24,2.18-5.07,1.25-1.04,2.83-1.6,4.56-1.6h9.87c1.6,0,3.06.47,4.36,1.4.09.06.18.13.27.21,1.08.9,1.82,2.13,2.14,3.5V6.6c0-1.86.67-3.51,1.94-4.79.83-.83,2.33-1.81,4.8-1.81h9.8c1.66,0,3.13.45,4.36,1.32.21.15.4.31.58.49,1.66,1.67,2.01,3.52,2.01,4.79v11.65c.27-1.51,1.05-2.87,2.21-3.84.08-.07.17-.14.26-.2,1.3-.93,2.77-1.4,4.37-1.4h9.87c1.81,0,3.45.62,4.65,1.74.96.86,2.02,2.38,2.02,4.93v43.69c0,1.36-.17,3.38-1.64,5.1-.92,1.07-2.66,2.34-5.8,2.34ZM9,61.61h52.26V21.81h-5.49v31.55c0,2.49-2.01,4.5-4.5,4.5h-8.89c-2.49,0-4.5-2.01-4.5-4.5V9h-5.49v44.37c0,2.49-2.01,4.5-4.5,4.5h-8.82c-2.49,0-4.5-2.01-4.5-4.5v-31.55h-5.56v39.79Z"/><path class="cls-2" d="M136.59,70.68h-54.12c-2.17,0-3.94-.46-5.43-1.41-.05-.03-.1-.07-.15-.1-1.36-.95-2.98-2.91-2.98-6.91V8.91c0-2.8.86-4.98,2.55-6.5,1.51-1.36,3.52-2.06,5.94-2.06h54.12c2.66,0,4.68.68,6.16,2.06,1.64,1.42,2.47,3.58,2.47,6.43v53.55c0,2.92-.85,5.1-2.53,6.47-1.91,1.62-4.35,1.81-6.03,1.81ZM82.91,61.68h53.24V9.35h-53.24v52.33ZM126.16,59.26h-33.32c-2.49,0-4.5-2.01-4.5-4.5V16.19c0-2.49,2.01-4.5,4.5-4.5h33.32c2.49,0,4.5,2.01,4.5,4.5v38.57c0,2.49-2.01,4.5-4.5,4.5ZM97.33,50.26h24.32v-29.57h-24.32v29.57Z"/><path class="cls-2" d="M211.91,70.68h-10.22s-.07,0-.11,0c-3.51-.08-6.37-.93-8.52-2.51-.14.17-.29.34-.44.49-.09.09-.19.19-.3.27-1.24,1.04-2.84,1.61-4.5,1.61h-7.7c-1.62,0-3.22-.54-4.43-1.5-.37-.28-.7-.6-.99-.94-2.17,1.63-5.05,2.5-8.61,2.58-.04,0-.07,0-.11,0h-10.22c-2.01,0-3.87-.74-5.21-2.09-1.32-1.32-2.02-3.03-2.02-4.93v-3.85c0-1.91.7-3.61,2.02-4.93,1.03-1.03,2.34-1.7,3.8-1.96-1.44-.33-2.71-1.06-3.7-2.14-1.35-1.4-2.06-3.13-2.06-5.04V11.99c0-1.84.69-3.49,2.06-4.9.97-1.06,2.68-2.26,5.45-2.26h6.37c.37,0,.73.02,1.08.07.25-.91.67-1.72,1.27-2.45.08-.1.17-.2.27-.29,1.2-1.2,2.81-1.81,4.8-1.81h39.41c1.98,0,3.6.61,4.8,1.81.09.1.19.19.27.3,1.06,1.28,1.6,2.81,1.6,4.56v28.93c.56.27,1.12.64,1.62,1.14.1.1.19.19.27.3,1.08,1.29,1.61,3.08,1.61,5.47v2.8c0,1.88-.47,3.49-1.4,4.79-.08.11-.16.21-.24.31-.75.87-2.04,1.88-4.17,2.22,1.32.3,2.5.95,3.44,1.89,1.32,1.32,2.02,3.03,2.02,4.93v3.85c0,1.9-.7,3.61-2.01,4.93-1.35,1.35-3.2,2.09-5.22,2.09ZM201.74,61.68h3.48c-1.47-.25-2.8-.93-3.85-1.98-1.33-1.32-2.07-3.14-2.09-5.12h-1.57v3.9c0,1.15.2,2,.56,2.34.14.13.97.8,3.47.86ZM162.47,61.68h3.46c2.5-.07,3.33-.73,3.47-.87.35-.33.56-1.19.56-2.33v-3.9h-1.57c-.02,1.98-.76,3.8-2.09,5.13-1.05,1.05-2.36,1.72-3.82,1.97ZM182.25,61.54h3.25v-12.93c0-2.15,1.5-3.94,3.51-4.39h-10.27c2.01.45,3.51,2.25,3.51,4.39v12.93ZM157.6,44.1h6.83c-2.01-.45-3.51-2.25-3.51-4.39V13.83h-3.32v30.27ZM202.96,33.67h4.03V9.35h-3.87c.35.64.55,1.37.55,2.15v2.17c0,1.3-.55,2.47-1.43,3.29.88.82,1.43,1.99,1.43,3.29v2.17c0,1.28-.53,2.44-1.39,3.25.86.82,1.39,1.97,1.39,3.25v2.31c0,.9-.26,1.73-.71,2.43ZM172.3,33.67h3.96c-.45-.7-.71-1.53-.71-2.43v-2.31c0-1.28.53-2.44,1.39-3.25-.86-.82-1.39-1.97-1.39-3.25v-2.17c0-1.3.55-2.47,1.43-3.29-.88-.82-1.43-1.99-1.43-3.29v-2.17c0-.78.2-1.51.55-2.15h-3.79v24.32ZM209.37,9.35h0,0Z"/><path class="cls-3" d="M62.82,69.11H7.37c-2.5,0-3.88-.99-4.59-1.82h0c-1.15-1.34-1.28-3-1.28-4.12V19.48c0-1.69.55-3.01,1.64-3.92.98-.82,2.23-1.25,3.6-1.25h9.87c1.28,0,2.45.38,3.49,1.12.06.04.12.09.18.14,1.13.94,1.78,2.37,1.78,3.92v30.88h2.82V6.6c0-1.47.51-2.73,1.5-3.73.91-.91,2.17-1.37,3.74-1.37h9.8c1.36,0,2.51.34,3.49,1.05.14.1.27.21.38.33,1.04,1.05,1.57,2.3,1.57,3.73v43.77h2.89v-30.88c0-1.55.65-2.97,1.78-3.92.06-.05.12-.09.18-.14,1.04-.74,2.21-1.12,3.49-1.12h9.87c1.43,0,2.71.48,3.63,1.34,1.02.9,1.54,2.19,1.54,3.83v43.69c0,1.13-.13,2.78-1.28,4.12-.71.83-2.09,1.82-4.66,1.82ZM7.5,63.11h55.26V20.31h-8.49s0,33.05,0,33.05c0,1.66-1.34,3-3,3h-8.89c-1.66,0-3-1.34-3-3V7.5h-8.49v45.87c0,1.66-1.34,3-3,3h-8.82c-1.66,0-3-1.34-3-3V20.31H7.5s0,42.79,0,42.79Z"/><path class="cls-3" d="M136.59,69.18h-54.12c-1.87,0-3.38-.38-4.62-1.17-.03-.02-.07-.04-.1-.07-1.55-1.08-2.34-2.99-2.34-5.68V8.91c0-2.35.69-4.17,2.05-5.38,1.23-1.11,2.9-1.68,4.94-1.68h54.12c2.27,0,3.96.55,5.16,1.68,1.97,1.69,1.97,4.41,1.97,5.31v53.55c0,.92,0,3.7-1.99,5.32-1.54,1.31-3.62,1.46-5.07,1.46ZM81.47,63.09c.22.05.54.09,1,.09h54.12c.49,0,.82-.03,1.02-.06.02-.17.04-.4.04-.72V8.84c0-.46-.04-.74-.07-.89-.15-.04-.47-.1-1.06-.1h-54.12c-.53,0-.78.07-.88.11-.04.12-.11.4-.11.95v53.35c0,.38.03.65.06.83ZM137.9,63.04s0,0,0,0c0,0,0,0,0,0ZM137.54,7.88s0,0,0,0c0,0,0,0,0,0ZM126.16,57.76h-33.32c-1.66,0-3-1.34-3-3V16.19c0-1.66,1.34-3,3-3h33.32c1.66,0,3,1.34,3,3v38.57c0,1.66-1.34,3-3,3ZM95.83,51.76h27.32V19.19h-27.32v32.57Z"/><path class="cls-3" d="M211.91,69.18h-10.22c-3.76-.09-6.62-1.07-8.57-2.92-.15-.15-.3-.29-.44-.45-.24.69-.62,1.3-1.12,1.79-.06.06-.13.12-.2.18-.97.81-2.23,1.26-3.53,1.26h-7.7c-1.29,0-2.57-.43-3.52-1.19-.72-.54-1.24-1.26-1.55-2.11-.16.18-.33.35-.5.52-1.96,1.85-4.82,2.84-8.5,2.92h-10.29c-1.61,0-3.09-.58-4.15-1.65-1.05-1.05-1.58-2.35-1.58-3.87v-3.85c0-1.52.53-2.82,1.58-3.87,1.06-1.06,2.54-1.65,4.15-1.65h5.12v-1.62c0-.36.04-.71.11-1.06h-4.87c-1.75,0-3.26-.64-4.36-1.86-1.08-1.11-1.65-2.5-1.65-4.01V11.99c0-1.45.56-2.75,1.65-3.88.76-.83,2.12-1.79,4.36-1.79h6.37c.83,0,1.61.15,2.32.45.02-.92.21-2.19,1.18-3.36.06-.07.12-.13.18-.2,1.37-1.37,3.15-1.37,3.73-1.37h39.41c.58,0,2.37,0,3.73,1.37.06.06.12.13.18.2.84,1.01,1.25,2.19,1.25,3.6v29.05c0,.31-.02.6-.06.89.76.2,1.5.56,2.13,1.19.06.06.12.13.18.2.85,1.01,1.26,2.49,1.26,4.51v2.8c0,1.56-.38,2.88-1.12,3.92-.05.07-.11.14-.16.21-.71.83-2.08,1.82-4.59,1.82h-5.43c.07.35.1.7.1,1.06v1.62h5.12c1.62,0,3.09.59,4.15,1.65,1.05,1.05,1.58,2.35,1.58,3.87v3.85c0,1.52-.53,2.82-1.58,3.87-1.06,1.06-2.54,1.65-4.15,1.65ZM196.22,53.07v5.4c0,1.63.34,2.78,1.02,3.43.82.77,2.42,1.23,4.52,1.28h9.88v-2.89h-5.12c-1.57,0-3.02-.59-4.08-1.66-1.06-1.06-1.65-2.54-1.65-4.15v-1.41h-4.57ZM156.03,63.17h9.95c2.02-.04,3.63-.5,4.45-1.27.68-.64,1.02-1.8,1.02-3.42v-5.4h-4.57v1.41c0,1.62-.59,3.09-1.65,4.15-1.08,1.08-2.49,1.65-4.08,1.65h-5.12v2.88ZM180.75,63.04h6.25v-14.43c0-1.66,1.34-3,3-3h21.99v-2.74c0-.05,0-.1,0-.15h-46.56c-1.66,0-3-1.34-3-3V12.33h-6.31s0,0-.01,0v33.27h21.64c1.66,0,3,1.34,3,3v14.43ZM195.87,53.08h0s0,0,0,0ZM211.93,46.18h0s0,0,0,0ZM170.8,35.17h37.68V7.85s-37.68,0-37.68,0v27.32ZM209.5,7.86h0,0ZM199.17,34.24h-19.11c-1.66,0-3-1.34-3-3v-2.31c0-1.66,1.34-3,3-3h19.11c1.66,0,3,1.34,3,3v2.31c0,1.66-1.34,3-3,3ZM199.17,25.42h-19.11c-1.66,0-3-1.34-3-3v-2.17c0-1.66,1.34-3,3-3h19.11c1.66,0,3,1.34,3,3v2.17c0,1.66-1.34,3-3,3ZM199.17,16.67h-19.11c-1.66,0-3-1.34-3-3v-2.17c0-1.66,1.34-3,3-3h19.11c1.66,0,3,1.34,3,3v2.17c0,1.66-1.34,3-3,3Z"/><path class="cls-2" d="M5.06,65.34c-.42-.49-.56-1.19-.56-2.17V19.48c0-.7.14-1.26.56-1.61.42-.35.98-.56,1.68-.56h9.87c.7,0,1.26.21,1.75.56.42.35.7.91.7,1.61v33.88h8.82V6.6c0-.7.21-1.19.63-1.61.35-.35.91-.49,1.61-.49h9.8c.7,0,1.26.14,1.75.49.42.42.7.91.7,1.61v46.77h8.89V19.48c0-.7.28-1.26.7-1.61.49-.35,1.05-.56,1.75-.56h9.87c.7,0,1.26.21,1.61.56.42.35.56.91.56,1.61v43.69c0,.98-.14,1.68-.56,2.17s-1.26.77-2.38.77H7.37c-1.12,0-1.89-.28-2.31-.77Z"/><path class="cls-2" d="M82.47,66.18c-1.26,0-2.24-.21-3.01-.7-.7-.49-1.05-1.61-1.05-3.22V8.91c0-1.47.35-2.52,1.05-3.15.7-.63,1.68-.91,2.94-.91h54.12c1.47,0,2.52.28,3.15.91.7.56.98,1.61.98,3.08v53.55c0,1.47-.28,2.52-.91,3.01-.63.56-1.68.77-3.15.77h-54.12ZM126.16,54.76V16.19h-33.32v38.57h33.32Z"/><path class="cls-2" d="M171.93,50.07c.7.07,1.33.28,1.75.77.49.49.77,1.12.77,1.82v5.81c0,2.45-.63,4.34-1.96,5.6-1.33,1.26-3.5,2.03-6.51,2.1h-10.22c-.84,0-1.54-.28-2.03-.77s-.7-1.05-.7-1.75v-3.85c0-.7.21-1.26.7-1.75s1.19-.77,2.03-.77h5.39c.84,0,1.47-.28,1.96-.77.49-.49.77-1.19.77-2.03v-1.82c0-.7.28-1.33.77-1.82.49-.49,1.12-.7,1.82-.77h5.46ZM190,48.6v15.26c0,.7-.21,1.26-.56,1.61-.42.35-.98.56-1.61.56h-7.7c-.63,0-1.26-.21-1.68-.56-.49-.35-.7-.91-.7-1.61v-15.26h-21.63c-.98,0-1.68-.35-2.17-.91-.56-.56-.84-1.19-.84-1.96V11.99c0-.7.28-1.26.84-1.82.49-.56,1.19-.84,2.17-.84h6.37c.84,0,1.54.28,2.1.84.56.56.84,1.12.84,1.82v27.72h46.7c1.12,0,1.89.14,2.31.56.35.42.56,1.33.56,2.59v2.8c0,.98-.21,1.68-.56,2.17-.42.49-1.19.77-2.31.77h-22.12ZM210.93,5.34c.35.42.56.91.56,1.68v29.05c0,.7-.21,1.26-.56,1.61-.35.35-.84.49-1.61.49h-39.41c-.77,0-1.26-.14-1.61-.49-.35-.35-.49-.91-.49-1.61V7.02c0-.77.14-1.26.49-1.68.35-.35.84-.49,1.61-.49h39.41c.77,0,1.26.14,1.61.49ZM199.17,11.5h-19.11v2.17h19.11v-2.17ZM199.17,20.25h-19.11v2.17h19.11v-2.17ZM199.17,28.93h-19.11v2.31h19.11v-2.31ZM203.02,50.84c.49.49.77,1.12.77,1.82v1.82c0,.84.28,1.54.77,2.03.49.49,1.19.77,1.96.77h5.39c.84,0,1.54.28,2.03.77.49.49.7,1.05.7,1.75v3.85c0,.7-.21,1.26-.7,1.75-.49.49-1.19.77-2.03.77h-10.22c-3.01-.07-5.18-.84-6.51-2.1-1.33-1.26-1.96-3.15-1.96-5.6v-5.81c0-.7.28-1.33.77-1.82.42-.49,1.05-.7,1.75-.77h5.46c.7.07,1.33.28,1.82.77Z"/></g></svg>