<?xml version="1.0" encoding="UTF-8"?><svg id="_レイヤー_2" xmlns="http://www.w3.org/2000/svg" viewBox="0 0 219.13 70.75"><defs><style>.cls-1,.cls-2,.cls-3{stroke-width:0px;}.cls-2{fill:#198caa;}.cls-3{fill:#fff;}</style></defs><g id="_レイヤー_4"><path class="cls-1" d="M5,64.78c-.35-.28-.56-.91-.49-1.68v-6.86c-.07-1.12.14-1.89.49-2.38.42-.49.98-1.26,1.82-2.24l10.64-9.45c.91-.63,1.61-.77,2.03-.42.42.35.56,1.12.56,2.17v7.7c0,.84-.14,1.47-.56,1.82-.42.35-1.19,1.12-2.31,2.38l-9.8,8.89c-1.19.42-1.96.42-2.38.07ZM5.35,17.94c-.42-.49-.63-1.26-.63-2.24v-3.01c0-1.4.21-2.24.63-2.66.35-.42,1.12-.63,2.24-.63h12.39v-1.68c.07-.7.35-1.33.91-1.96.49-.63,1.19-.91,2.1-.91h5.88c.84,0,1.54.28,2.1.91.56.63.84,1.26.84,1.96v1.68h8.4v-1.68c0-.7.28-1.33.84-1.96.56-.63,1.26-.91,2.1-.91h5.88c.91,0,1.61.28,2.1.91.56.63.84,1.26.91,1.96v1.68h12.25c1.19,0,2.03.21,2.38.63.42.42.63,1.26.63,2.66v3.01c0,.98-.21,1.75-.63,2.24-.35.49-1.19.77-2.38.77h-12.25v1.61c-.07.77-.35,1.4-.91,1.96-.49.49-1.19.77-2.1.77h-5.88c-.7,0-1.26-.14-1.75-.49.07.21.07.42.07.56v2.03h21c.84,0,1.4.14,1.75.56.35.35.49,1.19.56,2.38v11.76c0,1.05-.14,1.82-.49,2.24-.28.42-.84.7-1.68.7h-6.44c-1.12,0-1.82-.21-2.24-.63-.35-.42-.56-1.19-.56-2.24v-3.64c0-.91-.49-1.4-1.47-1.4h-11.41c-.14.77-.35,1.47-.56,2.17.42-.42.91-.56,1.47-.56h5.74c.7,0,1.26.28,1.82.84.49.56.7,1.26.7,2.03v1.4c0,3.92.7,7.56,1.96,10.85,1.33,3.22,3.78,4.9,7.49,4.97h5.39c.77,0,1.33.28,1.89.77.49.42.7,1.05.7,1.75v4.62c0,.77-.21,1.33-.7,1.82-.56.42-1.12.7-1.89.7h-8.82c-4.62,0-8.47-1.96-11.41-5.88-2.94,3.92-6.79,5.88-11.41,5.88h-8.82c-.7,0-1.33-.28-1.82-.7-.49-.49-.77-1.05-.77-1.82v-4.62c0-.7.28-1.33.77-1.75.49-.49,1.12-.77,1.82-.77h5.39c3.71-.07,6.23-1.75,7.49-4.97,1.33-3.29,1.96-6.93,1.96-10.85v-1.33c-3.08,4.2-6.93,6.23-11.62,6.23h-3.15c-.7-.07-1.33-.35-1.82-.77-.49-.49-.77-1.05-.77-1.82v-4.83c0-.7.28-1.33.77-1.75.49-.49,1.12-.77,1.82-.84h2.66c1.33-.07,2.31-.84,2.87-2.38.56-1.54.84-3.92.84-7.21v-2.94c0-.14,0-.35.07-.56-.49.35-1.05.49-1.68.49h-5.88c-.91,0-1.61-.28-2.1-.77-.56-.56-.84-1.19-.91-1.96v-1.61H7.59c-1.12,0-1.89-.28-2.24-.77ZM7.66,34.32c-1.12-.63-1.89-1.19-2.24-1.54-.42-.35-.63-.98-.63-1.75v-7.7c0-1.05.21-1.82.63-2.17.35-.35,1.12-.35,2.24,0l9.31,5.18c1.12.63,1.96,1.12,2.31,1.54.42.35.56,1.05.56,2.17v6.58c0,.77-.28,1.47-.84,2.03-.56.63-1.26.84-2.03.77l-9.31-5.11ZM31.82,20.67c.42-.21.77-.35,1.19-.35h5.88c.49,0,.91.14,1.33.42v-2.03h-8.4v1.96Z"/><path class="cls-1" d="M99.93,15.77c0-.77.28-1.4.84-1.96.49-.56,1.12-.91,1.89-.91h17.85v-5.53c0-.77.28-1.4.84-2.03.56-.56,1.19-.84,1.96-.84h2.52c.77,0,1.4.28,1.96.84.56.63.91,1.26.91,2.03v5.53h8.33c1.33,0,2.17.21,2.59.63.42.35.7,1.19.7,2.52v6.23c0,.98-.28,1.68-.7,2.17-.42.49-1.26.77-2.59.77h-8.33v10.57c-.07,3.99.28,7.07,1.05,9.24.77-2.17,1.12-5.25,1.12-9.24v-5.74c0-.77.28-1.4.77-1.96.56-.63,1.19-.91,1.96-.91h2.59c.77,0,1.4.28,1.96.91.56.56.84,1.19.84,1.96v9.24c0,4.13-.91,7.98-2.73,11.62,2.73,1.26,4.34,2.1,4.76,2.52.49.42.7.98.7,1.61v8.33c0,.77-.28,1.33-.84,1.82-.56.42-1.26.7-2.03.77-1.19,0-4.2-2.38-9.1-7.07-4.9,4.69-7.91,7.07-9.03,7.07-.84-.07-1.54-.35-2.1-.77-.49-.49-.77-1.05-.77-1.82v-8.33c0-.63.21-1.19.7-1.61.35-.42,1.96-1.26,4.69-2.52-1.82-3.64-2.73-7.49-2.73-11.62v-14.07h-11.62v6.93h6.58c1.4,0,2.31.21,2.73.49.42.35.63,1.12.63,2.17v13.44c0,1.68-.28,2.8-.91,3.36-.56.63-1.75.91-3.57.91h-2.87c-2.1,0-3.22-.91-3.22-2.73v-.63c0-1.89.98-2.87,2.94-2.87v-5.32h-2.31c-.21,6.37-1.68,12.11-4.34,17.36-2.73,5.25-4.9,7.91-6.51,7.91-.77-.07-1.4-.35-1.96-.77-.49-.49-.77-1.05-.77-1.82v-8.33c0-.49.14-.98.35-1.4-.21.07-.49.21-.84.35l-14,5.39c-1.26.28-2.1.21-2.52-.35-.35-.49-.56-1.33-.49-2.38v-6.3c0-1.12.14-1.96.42-2.31.35-.42.91-.84,1.82-1.33l2.59-1.05v-15.61h-1.47c-1.12,0-1.82-.28-2.24-.7-.35-.49-.56-1.26-.56-2.24v-6.16c0-1.33.21-2.17.56-2.59.42-.42,1.12-.63,2.24-.63h1.47V7.72c0-.7.28-1.33.84-1.89.49-.56,1.19-.84,2.1-.84h4.97c.77,0,1.4.28,1.89.84s.84,1.19.98,1.89v10.29h1.47c1.19,0,2.03.21,2.45.63s.63,1.26.63,2.59v6.16c0,.98-.21,1.75-.63,2.24-.42.42-1.26.7-2.45.7h-1.47v11.48l1.4-.56c1.19-.35,1.96-.21,2.38.28.42.49.63,1.19.63,1.96v5.67c.49-1.05.84-2.1,1.12-3.08.63-2.1.98-5.46.98-10.01V15.77ZM138.3,10.8c-.63.49-1.4.77-2.31.77h-2.52c-.98,0-1.75-.28-2.31-.77-.63-.49-.91-1.12-.98-1.89v-1.75c.07-.7.35-1.33.98-1.89.56-.49,1.33-.77,2.31-.77h2.52c.91,0,1.68.28,2.31.77.63.56.91,1.19.91,1.89v1.75c0,.77-.28,1.4-.91,1.89Z"/><path class="cls-1" d="M171.58,50.14c.7.07,1.33.28,1.75.77.49.49.77,1.12.77,1.82v5.81c0,2.45-.63,4.34-1.96,5.6-1.33,1.26-3.5,2.03-6.51,2.1h-10.22c-.84,0-1.54-.28-2.03-.77s-.7-1.05-.7-1.75v-3.85c0-.7.21-1.26.7-1.75.49-.49,1.19-.77,2.03-.77h5.39c.84,0,1.47-.28,1.96-.77.49-.49.77-1.19.77-2.03v-1.82c0-.7.28-1.33.77-1.82.49-.49,1.12-.7,1.82-.77h5.46ZM189.64,48.67v15.26c0,.7-.21,1.26-.56,1.61-.42.35-.98.56-1.61.56h-7.7c-.63,0-1.26-.21-1.68-.56-.49-.35-.7-.91-.7-1.61v-15.26h-21.63c-.98,0-1.68-.35-2.17-.91-.56-.56-.84-1.19-.84-1.96V12.06c0-.7.28-1.26.84-1.82.49-.56,1.19-.84,2.17-.84h6.37c.84,0,1.54.28,2.1.84.56.56.84,1.12.84,1.82v27.72h46.7c1.12,0,1.89.14,2.31.56.35.42.56,1.33.56,2.59v2.8c0,.98-.21,1.68-.56,2.17-.42.49-1.19.77-2.31.77h-22.12ZM210.57,5.41c.35.42.56.91.56,1.68v29.05c0,.7-.21,1.26-.56,1.61-.35.35-.84.49-1.61.49h-39.41c-.77,0-1.26-.14-1.61-.49-.35-.35-.49-.91-.49-1.61V7.09c0-.77.14-1.26.49-1.68.35-.35.84-.49,1.61-.49h39.41c.77,0,1.26.14,1.61.49ZM198.81,11.57h-19.11v2.17h19.11v-2.17ZM198.81,20.32h-19.11v2.17h19.11v-2.17ZM198.81,29h-19.11v2.31h19.11v-2.31ZM202.66,50.91c.49.49.77,1.12.77,1.82v1.82c0,.84.28,1.54.77,2.03s1.19.77,1.96.77h5.39c.84,0,1.54.28,2.03.77s.7,1.05.7,1.75v3.85c0,.7-.21,1.26-.7,1.75-.49.49-1.19.77-2.03.77h-10.22c-3.01-.07-5.18-.84-6.51-2.1-1.33-1.26-1.96-3.15-1.96-5.6v-5.81c0-.7.28-1.33.77-1.82.42-.49,1.05-.7,1.75-.77h5.46c.7.07,1.33.28,1.82.77Z"/><path class="cls-2" d="M64.51,70.75h-8.82c-4.31,0-8.18-1.34-11.41-3.93-3.23,2.59-7.1,3.93-11.41,3.93h-8.82c-1.72,0-3.41-.63-4.75-1.79-.08-.07-.17-.15-.25-.23-1.37-1.37-2.09-3.1-2.09-5v-1.63l-6.55,5.94c-.44.4-.96.71-1.53.91-3.39,1.2-5.53.29-6.73-.69-1.48-1.2-2.27-3.18-2.14-5.33v-6.58c-.1-2.02.35-3.75,1.33-5.12.08-.11.16-.21.25-.32.14-.16.3-.37.49-.61.36-.46.79-1,1.33-1.63.13-.16.28-.3.43-.44l7.58-6.73-5.92-3.25s-.03-.01-.04-.02c-.93-.52-2.2-1.31-3.09-2.15-1.34-1.21-2.08-3-2.08-5.06v-7.7c0-1.46.26-2.72.78-3.76-.56-1.1-.85-2.4-.85-3.88v-3.01c0-1.63.19-3.96,1.81-5.7,1.25-1.39,3.12-2.09,5.56-2.09h8.54c.32-.72.76-1.39,1.3-2.03,1.33-1.63,3.29-2.52,5.55-2.52h5.88c2.17,0,4.06.84,5.46,2.42.6.67,1.06,1.38,1.39,2.13h.58c.33-.75.79-1.46,1.38-2.13,1.41-1.59,3.3-2.42,5.47-2.42h5.88c2.26,0,4.23.89,5.55,2.52.55.64.98,1.31,1.31,2.03h8.4c2.53,0,4.45.7,5.7,2.09,1.62,1.73,1.81,4.07,1.81,5.7v3.01c0,2.03-.54,3.72-1.6,5.03-.54.7-1.38,1.45-2.67,1.94,0,0,.01.02.02.02,1.32,1.44,1.61,3.31,1.71,5.13,0,.09,0,.18,0,.27v11.76c0,1.36-.15,3.32-1.38,4.93-1.16,1.6-3.07,2.51-5.29,2.51h-6.44c-.26,0-.7,0-1.22-.06.23.92.52,1.83.85,2.71.57,1.36,1.29,2.1,3.39,2.14h5.31c1.79,0,3.43.63,4.86,1.88,1.43,1.22,2.23,3.06,2.23,5.13v4.62c0,1.98-.68,3.67-2.02,5-.15.15-.31.29-.47.41-1.43,1.08-2.94,1.6-4.59,1.6ZM44.28,55.87c1.42,0,2.75.67,3.6,1.8,2.09,2.78,4.57,4.08,7.81,4.08h6.91v-.66h-3.48c-5.52-.1-9.63-2.85-11.65-7.75-.01-.04-.03-.07-.04-.11-1.47-3.84-2.23-7.96-2.26-12.23h-1.78c-.03,4.48-.79,8.62-2.29,12.31-1.92,4.9-6.03,7.68-11.58,7.78h-3.56v.66h6.91c3.24,0,5.72-1.3,7.81-4.08.85-1.13,2.18-1.8,3.6-1.8ZM9.01,56.06c0,.06,0,.12,0,.18v.92l4.97-4.51c.59-.66,1.11-1.22,1.57-1.68v-1.09l-5.51,4.89c-.36.42-.65.8-.9,1.12-.05.06-.09.12-.13.17ZM24.54,52.08h4.89c2.06-.04,2.8-.84,3.3-2.11.09-.22.18-.45.26-.68-1.79.58-3.71.87-5.73.87h-2.71v1.45c0,.16,0,.32-.01.47ZM26.03,41.16h1.24c3.3,0,5.76-1.35,7.99-4.39.07-.09.14-.18.21-.27.03-.25.08-.5.16-.74.19-.64.35-1.17.44-1.68.39-2.14,2.25-3.7,4.43-3.7h11.41c3.46,0,5.97,2.48,5.97,5.9v2.01h2.41v-8.64h-18.81c-2.49,0-4.5-2.02-4.5-4.5v-.33h-1.99v1.24c0,3.88-.35,6.66-1.11,8.75-1.17,3.22-3.67,5.17-6.86,5.34-.08,0-.16,0-.24,0h-.75v1.01ZM9.85,30.39l5.5,3.02v-2.81c-.22-.13-.44-.25-.58-.33l-5.47-3.04v2.84c.16.1.34.21.56.33ZM24.34,31.15h1.24c.16-.67.32-1.78.38-3.6h-1.88c.27,1.04.27,1.98.27,2.5v1.1ZM24.48,18.55h2.84c.08-2.41,2.07-4.34,4.5-4.34h8.4c2.43,0,4.41,1.93,4.5,4.34h2.84c.08-2.41,2.07-4.34,4.5-4.34h10.76v-.31h-10.76c-2.49,0-4.5-2.01-4.5-4.5v-.05h-2.83v.05c0,2.49-2.01,4.5-4.5,4.5h-8.4c-2.49,0-4.5-2.01-4.5-4.5v-.05h-2.83v.05c0,2.49-2.01,4.5-4.5,4.5h-10.76v.31h10.76c2.43,0,4.41,1.93,4.5,4.34ZM64.53,14.2h0,0Z"/><path class="cls-2" d="M98.04,70.75c-.13,0-.27,0-.4-.02-1.55-.14-2.98-.7-4.26-1.65-.17-.13-.33-.27-.48-.42-1.37-1.37-2.09-3.1-2.09-5v-3.01l-8.37,3.22c-.21.08-.42.15-.64.19-3.94.87-6.04-.63-7.1-2.05-1.02-1.42-1.49-3.24-1.39-5.21v-6.17c0-2.3.45-3.93,1.41-5.13.79-.95,1.79-1.72,3.19-2.48.07-.04.15-.08.23-.11v-8.59c-1.09-.4-1.87-.99-2.39-1.51-.18-.18-.34-.37-.48-.57-.91-1.28-1.4-2.96-1.4-4.85v-6.16c0-2.42.51-4.16,1.6-5.47.09-.11.18-.21.28-.3.75-.75,1.59-1.21,2.39-1.49v-6.25c0-1.86.71-3.58,2.06-4.97,1.34-1.46,3.24-2.26,5.38-2.26h4.97c2.06,0,3.94.84,5.28,2.38,1.04,1.19,1.71,2.53,2,3.97.06.29.09.59.09.89v2.57c1.31-1.23,2.97-1.89,4.74-1.89h13.35v-1.03c0-1.85.67-3.54,1.98-5.02.06-.07.12-.13.18-.19,1.41-1.41,3.19-2.16,5.14-2.16h2.52c1.31,0,2.54.34,3.64.99,1.18-.65,2.53-.99,3.99-.99h2.52c1.87,0,3.62.59,5.07,1.72.08.06.16.12.23.19,1.56,1.39,2.42,3.25,2.42,5.25v1.75c0,.73-.11,1.43-.31,2.09.95,1.25,1.43,2.94,1.43,5.05v6.23c0,2.49-.97,4.15-1.78,5.1-.01.01-.03.03-.04.04.32.82.49,1.71.49,2.63v9.24c0,3.25-.5,6.41-1.48,9.43,1.07.59,1.63,1,2.06,1.4,1.39,1.25,2.15,2.99,2.15,4.92v8.33c0,2.04-.82,3.84-2.37,5.21-.09.08-.18.15-.27.22-1.25.94-2.74,1.51-4.32,1.65-.14.01-.27.02-.41.02-2.01,0-4.06-.89-9.1-5.42-5.03,4.53-7.06,5.42-9.03,5.42-.12,0-.25,0-.38-.02-1.63-.14-3.17-.71-4.43-1.66-.17-.13-.33-.27-.48-.42-1.37-1.37-2.09-3.1-2.09-5v-6.35h-1.87c-.47,0-.92-.03-1.36-.09-.47,1.17-.99,2.31-1.56,3.43-3.25,6.25-6.27,10.38-10.53,10.38ZM129.76,54.4c1.12,0,2.24.42,3.11,1.25,1.9,1.82,3.32,3.09,4.36,3.98v-3.25c-.57-.29-1.46-.73-2.85-1.37-1.11-.51-1.96-1.45-2.36-2.6-.4-1.15-.32-2.41.22-3.5.03-.06.06-.12.09-.18-.74.51-1.63.81-2.57.81h0c-.94,0-1.84-.29-2.57-.81.03.06.06.12.09.18.54,1.09.62,2.35.22,3.5-.4,1.15-1.25,2.09-2.36,2.6-1.36.63-2.23,1.05-2.78,1.34v3.23c1.04-.89,2.43-2.15,4.29-3.93.87-.83,1.99-1.25,3.11-1.25ZM99.81,55.67v1.99c.24-.42.49-.89.75-1.4,2.39-4.71,3.65-9.78,3.83-15.43.07-2.12,1.6-3.86,3.6-4.26-1.87-.38-3.31-1.91-3.56-3.82v3.33c0,4.91-.39,8.72-1.17,11.3-.39,1.38-.83,2.57-1.35,3.69-.4.86-1.05,1.55-1.83,2,.17.86.08,1.77-.27,2.6ZM82.31,50.93v3.34l11.1-4.28c-.05-.27-.08-.54-.08-.82v-2.85c-.86-.02-1.7-.28-2.43-.77-1.24-.84-1.98-2.23-1.98-3.73v-11.48c0-2.49,2.01-4.5,4.5-4.5h.05l-.05-3.32c-2.49,0-4.5-2.01-4.5-4.5v-8.52h-1.78v8.52c0,2.41-1.89,4.38-4.27,4.49v3.33c2.38.12,4.27,2.09,4.27,4.49v15.61c0,1.83-1.11,3.48-2.81,4.17l-2.02.82ZM112.46,36.65c.71.21,1.35.59,1.87,1.09v-1.09h-1.87ZM104.43,17.4v7.23c.29-2.2,2.18-3.9,4.46-3.9h11.62c1.82,0,3.39,1.08,4.1,2.63.71-1.55,2.28-2.63,4.1-2.63h7.12v-3.32h-7.12c-1.82,0-3.39-1.08-4.1-2.63-.71,1.55-2.28,2.63-4.1,2.63h-16.08Z"/><path class="cls-2" d="M211.55,70.75h-10.22s-.07,0-.1,0c-3.51-.08-6.37-.92-8.52-2.51-.14.17-.29.34-.44.5-.1.1-.2.19-.3.28-1.24,1.03-2.84,1.6-4.49,1.6h-7.7c-1.62,0-3.22-.54-4.43-1.5-.37-.28-.71-.6-1-.94-2.16,1.63-5.05,2.5-8.61,2.58-.03,0-.07,0-.1,0h-10.22c-2.01,0-3.87-.74-5.21-2.09-1.32-1.32-2.02-3.03-2.02-4.93v-3.85c0-1.91.7-3.62,2.02-4.94,1.02-1.02,2.34-1.7,3.8-1.96-1.43-.33-2.71-1.06-3.69-2.14-1.35-1.4-2.06-3.13-2.06-5.04V12.06c0-1.84.69-3.49,2.06-4.91.97-1.06,2.68-2.25,5.45-2.25h6.37c.37,0,.73.02,1.08.07.25-.91.67-1.72,1.27-2.45.09-.1.18-.2.27-.3,1.2-1.2,2.81-1.81,4.79-1.81h39.41c1.98,0,3.59.61,4.79,1.81.1.1.19.2.28.3,1.06,1.28,1.6,2.81,1.6,4.56v28.93c.56.27,1.12.64,1.62,1.14.1.09.19.19.27.3,1.08,1.29,1.61,3.08,1.61,5.47v2.8c0,1.88-.47,3.49-1.4,4.79-.08.11-.16.21-.24.31-.75.87-2.04,1.88-4.17,2.22,1.31.3,2.5.95,3.44,1.89,1.32,1.32,2.02,3.02,2.02,4.93v3.85c0,1.9-.7,3.61-2.01,4.93-1.35,1.35-3.2,2.09-5.22,2.09ZM201.39,61.75h3.48c-1.47-.25-2.8-.93-3.85-1.98-1.33-1.33-2.07-3.14-2.09-5.12h-1.57v3.9c0,1.15.2,2,.56,2.33.14.13.97.8,3.47.87ZM162.11,61.75h3.46c1.94-.05,3.06-.48,3.47-.87.35-.33.56-1.18.56-2.33v-3.9h-1.57c-.02,1.98-.76,3.8-2.09,5.13-1.06,1.05-2.36,1.73-3.82,1.98ZM181.89,61.61h3.25v-12.93c0-2.15,1.5-3.94,3.51-4.39h-10.28c2.01.45,3.51,2.25,3.51,4.39v12.93ZM157.25,44.17h6.83c-2.01-.45-3.51-2.25-3.51-4.39V13.9h-3.32v30.27ZM202.6,33.74h4.03V9.42h-3.87c.35.64.55,1.37.55,2.15v2.17c0,1.3-.55,2.47-1.43,3.29.88.82,1.43,1.99,1.43,3.29v2.17c0,1.28-.54,2.44-1.39,3.25.86.82,1.39,1.98,1.39,3.26v2.31c0,.9-.26,1.73-.71,2.43ZM171.95,33.74h3.96c-.45-.7-.71-1.53-.71-2.43v-2.31c0-1.28.54-2.44,1.39-3.26-.86-.82-1.39-1.97-1.39-3.25v-2.17c0-1.3.55-2.47,1.43-3.29-.88-.82-1.43-1.99-1.43-3.29v-2.17c0-.78.2-1.51.55-2.15h-3.79v24.32ZM209.01,9.42h.01-.01Z"/><path class="cls-3" d="M64.51,69.25h-8.82c-4.37,0-8.26-1.51-11.41-4.41-3.15,2.9-7.04,4.41-11.41,4.41h-8.82c-1.36,0-2.71-.51-3.77-1.42-.06-.05-.11-.1-.17-.15-1.09-1.09-1.65-2.42-1.65-3.94v-4.62c0-.14,0-.27.01-.41l-9.07,8.23c-.29.27-.64.47-1.02.61-2.2.78-3.98.63-5.28-.43-1.11-.91-1.7-2.44-1.59-4.12v-6.66c-.09-1.7.26-3.11,1.05-4.21.05-.07.11-.14.16-.21.15-.18.33-.4.53-.66.35-.44.77-.97,1.29-1.58.09-.1.18-.2.29-.29l9.17-8.15-7.78-4.27h-.03c-.86-.5-2.03-1.22-2.8-1.96-1.03-.92-1.6-2.32-1.6-3.96v-7.7c0-1.57.35-2.83,1.03-3.76-.73-1.01-1.1-2.31-1.1-3.88v-3.01c0-1.49.16-3.35,1.42-4.68.96-1.08,2.42-1.61,4.46-1.61h9.6c.25-.92.72-1.78,1.4-2.56.75-.92,2.11-1.99,4.4-1.99h5.88c1.73,0,3.23.66,4.34,1.92.73.82,1.21,1.7,1.44,2.63h2.72c.23-.93.71-1.81,1.44-2.63,1.12-1.26,2.62-1.92,4.34-1.92h5.88c2.3,0,3.66,1.06,4.4,1.99.68.78,1.15,1.64,1.4,2.56h9.46c2.13,0,3.63.52,4.59,1.6,1.25,1.33,1.42,3.2,1.42,4.69v3.01c0,1.68-.43,3.06-1.28,4.1-.69.9-2.06,1.91-4.74,1.91h-9.46c-.04.15-.09.3-.14.44h7.78c.65,0,2.61,0,3.98,1.55,1.06,1.15,1.24,2.78,1.33,4.22,0,.06,0,.12,0,.18v11.76c0,1.14-.12,2.77-1.08,4.03-.88,1.21-2.35,1.91-4.09,1.91h-6.44c-.53,0-1.89,0-3.18-.65.29,1.87.77,3.67,1.43,5.4.85,2.07,2.28,3,4.75,3.04h5.33c1.44,0,2.7.49,3.87,1.51,1.1.94,1.72,2.38,1.72,4.01v4.62c0,1.57-.53,2.9-1.58,3.94-.1.1-.2.19-.32.27-.74.56-1.94,1.3-3.69,1.3ZM44.28,57.37c.94,0,1.83.44,2.4,1.2,2.36,3.15,5.31,4.68,9.01,4.68h8.41v-3.66s-4.98,0-4.98,0c-4.93-.09-8.46-2.45-10.26-6.82-1.46-3.81-2.19-7.82-2.19-12v-1.27h-4.78v1.27c0,4.37-.73,8.4-2.18,11.98-1.69,4.31-5.32,6.75-10.22,6.84h-5.04v3.66h8.41c3.7,0,6.65-1.53,9.01-4.68.57-.76,1.46-1.2,2.4-1.2ZM7.52,55.52c-.01.09-.03.26-.01.53,0,.06,0,.12,0,.19v4.3l7.54-6.84c.8-.89,1.47-1.6,2-2.11v-5.05l-8.08,7.18c-.4.47-.73.89-1,1.24-.16.21-.31.39-.45.56ZM64.43,59.62h.02s-.01,0-.02,0ZM23.05,48.53v3.09c0,.39,0,1.22-.3,2.12.42-.1.85-.15,1.29-.15h5.39c2.45-.05,3.88-.96,4.7-3.06.49-1.22.88-2.51,1.17-3.86-2.41,1.33-5.09,2-8.04,2h-3.15c-.1,0-.2,0-.3-.01-.26-.03-.51-.07-.76-.12ZM24.53,42.66h2.74c3.77,0,6.7-1.59,9.2-5,.14-.19.3-.36.47-.51,0-.32.03-.64.12-.96.2-.65.37-1.25.48-1.84.26-1.43,1.5-2.46,2.95-2.46h11.41c2.63,0,4.47,1.81,4.47,4.4v3.51h5.41v-11.61s0-.02,0-.03h-20.31c-1.66,0-3-1.34-3-3v-1.83h-4.99v2.74c0,3.65-.33,6.34-1.02,8.24-.96,2.63-2.97,4.22-5.53,4.35-.05,0-.11,0-.16,0h-2.25v4.01ZM9.12,31.7l7.72,4.24v-5.89c0-.12,0-.23,0-.31-.38-.25-1.02-.61-1.34-.79l-7.71-4.29v6.19c.25.19.69.48,1.33.84ZM21.55,25.9c1.29,1.37,1.29,3.29,1.29,4.15v2.79c.31-.08.64-.14.97-.17.1,0,.2-.01.3-.01h2.51s.11-.16.2-.4c.3-.83.66-2.58.66-6.19h0s-4.49-.01-4.49-.01c-.53,0-1.01-.06-1.44-.15ZM26.62,32.66s0,0,0,0c0,0,0,0,0,0h0ZM7.34,30.48s0,0,0,0c0,0,0,0,0,0ZM38.56,23.51s0,0,0,0c0,0,0,0,0,0ZM33.41,23.5s0,0,0,0c0,0,0,0,0,0ZM14.82,21.71l3.19,1.78c-.37-.54-.64-1.14-.82-1.78h-2.38ZM22.72,20.32l-1.82,1.96,1.96-1.96h-.13ZM22.98,20.13v.06l.03-.03s-.02-.02-.03-.03ZM49.05,20.13s-.02.02-.03.03h.03s0-.03,0-.03ZM43.22,20.05h5.83v-1.34c0-1.66,1.34-3,3-3h12.26v-3.02c0-.11,0-.2,0-.29h-12.26c-1.66,0-3-1.34-3-3v-1.44s-.03-.06-.07-.11h-5.76s0,0,0,0v1.55c0,1.66-1.34,3-3,3h-8.4c-1.66,0-3-1.34-3-3v-1.55h0s-5.76,0-5.76,0c-.04.05-.06.09-.07.12v1.44c0,1.66-1.34,3-3,3H7.73c0,.09,0,.18,0,.29v3.01h0s12.26,0,12.26,0c1.66,0,3,1.34,3,3v1.34h5.83v-1.34c0-1.66,1.34-3,3-3h8.4c1.66,0,3,1.34,3,3v1.34ZM64.24,16.2s0,0,0,0c0,0,0,0,0,0ZM7.8,16.2h0,0Z"/><path class="cls-3" d="M98.04,69.25c-.09,0-.18,0-.27-.01-1.27-.11-2.44-.57-3.49-1.36-.11-.08-.22-.18-.32-.28-1.09-1.09-1.65-2.42-1.65-3.94v-5.2l-10.41,4.01c-.14.05-.28.1-.43.13-2.54.56-4.41.07-5.57-1.48-.81-1.13-1.18-2.62-1.09-4.27v-6.21c0-1.96.33-3.26,1.08-4.19.66-.79,1.49-1.42,2.74-2.09.1-.05.2-.1.3-.14l.72-.29v-10.73c-1.14-.22-2.09-.7-2.83-1.44-.12-.12-.22-.24-.32-.38-.73-1.03-1.12-2.4-1.12-3.98v-6.16c0-2.05.4-3.48,1.25-4.51.06-.07.12-.14.18-.2.86-.87,1.94-1.23,2.83-1.39v-7.41c0-1.47.57-2.83,1.65-3.94.76-.83,2.1-1.79,4.29-1.79h4.97c1.65,0,3.08.64,4.15,1.87.87.99,1.43,2.09,1.66,3.27.04.19.06.39.06.59v7.4c.18.03.36.06.54.1.12-1.3.68-2.48,1.62-3.46,1.08-1.2,2.53-1.86,4.08-1.86h14.85v-2.53c0-1.48.54-2.83,1.6-4.02.04-.04.08-.09.12-.13,1.12-1.12,2.54-1.72,4.08-1.72h2.52c1.34,0,2.57.45,3.61,1.29,1.11-.85,2.48-1.29,4.02-1.29h2.52c1.54,0,2.97.48,4.15,1.4.05.04.1.08.15.13,1.25,1.12,1.92,2.54,1.92,4.13v1.75c0,.87-.19,1.68-.55,2.41,1.11.99,1.67,2.58,1.67,4.73v6.23c0,2.04-.77,3.37-1.42,4.12-.22.26-.47.49-.74.69.55.89.83,1.89.83,2.96v9.24c0,3.52-.61,6.93-1.83,10.16,1.71.86,2.43,1.34,2.89,1.77,1.08.96,1.67,2.31,1.67,3.82v8.33c0,1.62-.63,2.99-1.86,4.08-.06.05-.12.1-.18.14-1.03.77-2.26,1.24-3.56,1.36-.09,0-.18.01-.27.01-1.73,0-3.72-.98-9.1-5.95-5.93,5.48-7.57,5.95-9.03,5.95-.08,0-.17,0-.25-.01-1.35-.11-2.62-.58-3.65-1.36-.11-.08-.22-.18-.32-.28-1.09-1.09-1.65-2.42-1.65-3.94v-7.86c-.17,0-.34,0-.5,0h-2.87c-.84,0-1.61-.11-2.3-.32-.57,1.53-1.22,3.03-1.96,4.49-3.53,6.79-6.19,9.55-9.19,9.55ZM129.76,55.9c.75,0,1.49.28,2.07.83,4.06,3.88,6,5.38,6.9,5.96v-7.21c-.45-.26-1.46-.8-3.72-1.84-.74-.34-1.3-.96-1.57-1.73-.27-.77-.22-1.61.15-2.33,1.62-3.25,2.41-6.61,2.41-10.28v-9.11h-2.15l.03,5.61c0,4.44-.42,7.79-1.29,10.24-.42,1.2-1.56,2-2.83,2h0c-1.27,0-2.4-.8-2.83-2-.9-2.54-1.3-5.9-1.22-10.3v-10.52c0-1.66,1.34-3,3-3h8.33c.11,0,.21,0,.29,0v-6.16c0-.05,0-.1,0-.15-.09,0-.18,0-.29,0h-8.33c-1.66,0-3-1.34-3-3v-5.38s0-.01-.01-.02h-2.18v5.4c0,1.66-1.34,3-3,3h-17.58v20.17c0,4.77-.37,8.43-1.11,10.87-.38,1.32-.78,2.44-1.27,3.49-.46.99-1.42,1.63-2.47,1.72.66.9.77,2.11.26,3.12l-.03,7.37c.69-.78,1.86-2.4,3.58-5.69,2.5-4.93,3.81-10.2,4-16.08.05-1.62,1.38-2.9,3-2.9h2.31c1.66,0,3,1.34,3,3v5.32c0,1.64-1.31,2.97-2.94,3v.23c.06,0,.14,0,.22,0h2.87c.72,0,1.16-.05,1.4-.1.04-.21.08-.58.08-1.17v-13.1c-.11,0-.23,0-.36,0h-6.58c-1.66,0-3-1.34-3-3v-6.93c0-1.66,1.34-3,3-3h11.62c1.66,0,3,1.34,3,3v14.07c0,3.67.79,7.03,2.41,10.28.36.73.42,1.57.15,2.33-.27.77-.84,1.39-1.57,1.73-2.27,1.05-3.24,1.57-3.65,1.81v7.21c.91-.61,2.87-2.14,6.83-5.93.58-.56,1.33-.83,2.07-.83ZM80.83,50.02c-.01.15-.02.35-.02.62v5.82l12.93-4.98c.08-.03.19-.08.29-.12.26-.12.49-.21.68-.27.23-.08.46-.12.7-.14-.37-.5-.58-1.12-.58-1.77v-4.68l-.3.12c-.92.37-1.97.26-2.8-.3-.82-.56-1.32-1.49-1.32-2.48v-11.48c0-1.66,1.34-3,3-3h1.47s.05,0,.08,0v-6.1c0-.08,0-.15,0-.22h-1.55c-1.66,0-3-1.34-3-3v-9.86c-.03-.05-.06-.11-.09-.16h-4.69v10.02c0,1.66-1.34,3-3,3h-1.27c0,.07,0,.14,0,.22v6.1h1.27c1.66,0,3,1.34,3,3v15.61c0,1.22-.74,2.32-1.87,2.78l-2.43.98c-.22.12-.39.23-.51.31ZM120.86,55.35h0s0,0,0,0ZM115.68,49.62s0,0,0,0c0,0,0,0,0,0ZM115.93,49.37s0,0,0,0c0,0,0,0,0,0ZM96.42,38.08c.17.01.33.03.48.06.02-.64.03-1.33.03-2.06v-2.97c-.17.04-.34.08-.51.11v4.87ZM111.89,29.15h3.58c.76,0,1.43.05,2.04.15v-1.08h-5.62v.93ZM133.18,8.55c.05,0,.15.02.29.02h2.52c.09,0,.16,0,.22-.02v-1.03c-.06-.01-.13-.02-.22-.02h-2.52c-.13,0-.23.01-.29.03v1.02Z"/><path class="cls-3" d="M211.55,69.25h-10.22c-3.76-.09-6.62-1.07-8.57-2.92-.15-.14-.3-.29-.44-.45-.24.69-.62,1.29-1.12,1.79-.06.06-.13.13-.2.18-.97.81-2.23,1.26-3.53,1.26h-7.7c-1.29,0-2.57-.43-3.51-1.19-.72-.54-1.25-1.26-1.55-2.11-.16.18-.33.35-.5.52-1.96,1.85-4.82,2.84-8.5,2.92h-10.29c-1.61,0-3.09-.58-4.15-1.65-1.05-1.05-1.58-2.35-1.58-3.87v-3.85c0-1.52.53-2.83,1.58-3.87,1.06-1.06,2.54-1.65,4.15-1.65h5.12v-1.62c0-.36.04-.71.11-1.06h-4.87c-1.75,0-3.26-.64-4.36-1.86-1.08-1.11-1.65-2.5-1.65-4.01V12.06c0-1.45.56-2.75,1.65-3.88.76-.83,2.12-1.78,4.36-1.78h6.37c.83,0,1.61.15,2.32.45.02-.92.21-2.19,1.18-3.36.06-.07.12-.13.18-.2,1.37-1.37,3.15-1.37,3.73-1.37h39.41c.58,0,2.36,0,3.73,1.37.06.06.13.13.18.2.84,1.01,1.25,2.19,1.25,3.6v29.05c0,.3-.02.6-.06.89.76.2,1.5.56,2.13,1.19.06.06.12.13.18.2.85,1.01,1.26,2.49,1.26,4.51v2.8c0,1.56-.38,2.88-1.12,3.92-.05.07-.11.14-.16.21-.71.83-2.08,1.82-4.59,1.82h-5.43c.07.35.1.7.1,1.06v1.62h5.12c1.61,0,3.09.59,4.15,1.65s1.58,2.35,1.58,3.87v3.85c0,1.52-.53,2.82-1.58,3.87-1.06,1.07-2.54,1.65-4.15,1.65ZM195.86,53.14v5.4c0,1.63.34,2.78,1.02,3.42.82.78,2.42,1.23,4.52,1.28h9.88v-2.89h-5.12c-1.57,0-3.02-.59-4.08-1.66s-1.65-2.54-1.65-4.15v-1.41h-4.57ZM155.67,63.24h9.95c2.02-.04,3.63-.49,4.45-1.27.68-.64,1.02-1.8,1.02-3.42v-5.4h-4.57v1.41c0,1.62-.59,3.09-1.65,4.15-1.08,1.08-2.49,1.65-4.08,1.65h-5.12v2.88ZM180.39,63.11h6.25v-14.43c0-1.66,1.34-3,3-3h21.99v-2.74c0-.05,0-.1,0-.15h-46.56c-1.66,0-3-1.34-3-3V12.4h-6.31s0,0-.01,0v33.27h21.64c1.66,0,3,1.34,3,3v14.43ZM200.72,53.16h0,0ZM170.45,35.24h37.68V7.92s-37.68,0-37.68,0v27.32ZM209.15,7.93h0,0ZM198.81,34.31h-19.11c-1.66,0-3-1.34-3-3v-2.31c0-1.66,1.34-3,3-3h19.11c1.66,0,3,1.34,3,3v2.31c0,1.66-1.34,3-3,3ZM198.81,25.49h-19.11c-1.66,0-3-1.34-3-3v-2.17c0-1.66,1.34-3,3-3h19.11c1.66,0,3,1.34,3,3v2.17c0,1.66-1.34,3-3,3ZM198.81,16.74h-19.11c-1.66,0-3-1.34-3-3v-2.17c0-1.66,1.34-3,3-3h19.11c1.66,0,3,1.34,3,3v2.17c0,1.66-1.34,3-3,3Z"/><path class="cls-2" d="M5,64.78c-.35-.28-.56-.91-.49-1.68v-6.86c-.07-1.12.14-1.89.49-2.38.42-.49.98-1.26,1.82-2.24l10.64-9.45c.91-.63,1.61-.77,2.03-.42.42.35.56,1.12.56,2.17v7.7c0,.84-.14,1.47-.56,1.82-.42.35-1.19,1.12-2.31,2.38l-9.8,8.89c-1.19.42-1.96.42-2.38.07ZM5.35,17.94c-.42-.49-.63-1.26-.63-2.24v-3.01c0-1.4.21-2.24.63-2.66.35-.42,1.12-.63,2.24-.63h12.39v-1.68c.07-.7.35-1.33.91-1.96.49-.63,1.19-.91,2.1-.91h5.88c.84,0,1.54.28,2.1.91.56.63.84,1.26.84,1.96v1.68h8.4v-1.68c0-.7.28-1.33.84-1.96.56-.63,1.26-.91,2.1-.91h5.88c.91,0,1.61.28,2.1.91.56.63.84,1.26.91,1.96v1.68h12.25c1.19,0,2.03.21,2.38.63.42.42.63,1.26.63,2.66v3.01c0,.98-.21,1.75-.63,2.24-.35.49-1.19.77-2.38.77h-12.25v1.61c-.07.77-.35,1.4-.91,1.96-.49.49-1.19.77-2.1.77h-5.88c-.7,0-1.26-.14-1.75-.49.07.21.07.42.07.56v2.03h21c.84,0,1.4.14,1.75.56.35.35.49,1.19.56,2.38v11.76c0,1.05-.14,1.82-.49,2.24-.28.42-.84.7-1.68.7h-6.44c-1.12,0-1.82-.21-2.24-.63-.35-.42-.56-1.19-.56-2.24v-3.64c0-.91-.49-1.4-1.47-1.4h-11.41c-.14.77-.35,1.47-.56,2.17.42-.42.91-.56,1.47-.56h5.74c.7,0,1.26.28,1.82.84.49.56.7,1.26.7,2.03v1.4c0,3.92.7,7.56,1.96,10.85,1.33,3.22,3.78,4.9,7.49,4.97h5.39c.77,0,1.33.28,1.89.77.49.42.7,1.05.7,1.75v4.62c0,.77-.21,1.33-.7,1.82-.56.42-1.12.7-1.89.7h-8.82c-4.62,0-8.47-1.96-11.41-5.88-2.94,3.92-6.79,5.88-11.41,5.88h-8.82c-.7,0-1.33-.28-1.82-.7-.49-.49-.77-1.05-.77-1.82v-4.62c0-.7.28-1.33.77-1.75.49-.49,1.12-.77,1.82-.77h5.39c3.71-.07,6.23-1.75,7.49-4.97,1.33-3.29,1.96-6.93,1.96-10.85v-1.33c-3.08,4.2-6.93,6.23-11.62,6.23h-3.15c-.7-.07-1.33-.35-1.82-.77-.49-.49-.77-1.05-.77-1.82v-4.83c0-.7.28-1.33.77-1.75.49-.49,1.12-.77,1.82-.84h2.66c1.33-.07,2.31-.84,2.87-2.38.56-1.54.84-3.92.84-7.21v-2.94c0-.14,0-.35.07-.56-.49.35-1.05.49-1.68.49h-5.88c-.91,0-1.61-.28-2.1-.77-.56-.56-.84-1.19-.91-1.96v-1.61H7.59c-1.12,0-1.89-.28-2.24-.77ZM7.66,34.32c-1.12-.63-1.89-1.19-2.24-1.54-.42-.35-.63-.98-.63-1.75v-7.7c0-1.05.21-1.82.63-2.17.35-.35,1.12-.35,2.24,0l9.31,5.18c1.12.63,1.96,1.12,2.31,1.54.42.35.56,1.05.56,2.17v6.58c0,.77-.28,1.47-.84,2.03-.56.63-1.26.84-2.03.77l-9.31-5.11ZM31.82,20.67c.42-.21.77-.35,1.19-.35h5.88c.49,0,.91.14,1.33.42v-2.03h-8.4v1.96Z"/><path class="cls-2" d="M99.93,15.77c0-.77.28-1.4.84-1.96.49-.56,1.12-.91,1.89-.91h17.85v-5.53c0-.77.28-1.4.84-2.03.56-.56,1.19-.84,1.96-.84h2.52c.77,0,1.4.28,1.96.84.56.63.91,1.26.91,2.03v5.53h8.33c1.33,0,2.17.21,2.59.63.42.35.7,1.19.7,2.52v6.23c0,.98-.28,1.68-.7,2.17-.42.49-1.26.77-2.59.77h-8.33v10.57c-.07,3.99.28,7.07,1.05,9.24.77-2.17,1.12-5.25,1.12-9.24v-5.74c0-.77.28-1.4.77-1.96.56-.63,1.19-.91,1.96-.91h2.59c.77,0,1.4.28,1.96.91.56.56.84,1.19.84,1.96v9.24c0,4.13-.91,7.98-2.73,11.62,2.73,1.26,4.34,2.1,4.76,2.52.49.42.7.98.7,1.61v8.33c0,.77-.28,1.33-.84,1.82-.56.42-1.26.7-2.03.77-1.19,0-4.2-2.38-9.1-7.07-4.9,4.69-7.91,7.07-9.03,7.07-.84-.07-1.54-.35-2.1-.77-.49-.49-.77-1.05-.77-1.82v-8.33c0-.63.21-1.19.7-1.61.35-.42,1.96-1.26,4.69-2.52-1.82-3.64-2.73-7.49-2.73-11.62v-14.07h-11.62v6.93h6.58c1.4,0,2.31.21,2.73.49.42.35.63,1.12.63,2.17v13.44c0,1.68-.28,2.8-.91,3.36-.56.63-1.75.91-3.57.91h-2.87c-2.1,0-3.22-.91-3.22-2.73v-.63c0-1.89.98-2.87,2.94-2.87v-5.32h-2.31c-.21,6.37-1.68,12.11-4.34,17.36-2.73,5.25-4.9,7.91-6.51,7.91-.77-.07-1.4-.35-1.96-.77-.49-.49-.77-1.05-.77-1.82v-8.33c0-.49.14-.98.35-1.4-.21.07-.49.21-.84.35l-14,5.39c-1.26.28-2.1.21-2.52-.35-.35-.49-.56-1.33-.49-2.38v-6.3c0-1.12.14-1.96.42-2.31.35-.42.91-.84,1.82-1.33l2.59-1.05v-15.61h-1.47c-1.12,0-1.82-.28-2.24-.7-.35-.49-.56-1.26-.56-2.24v-6.16c0-1.33.21-2.17.56-2.59.42-.42,1.12-.63,2.24-.63h1.47V7.72c0-.7.28-1.33.84-1.89.49-.56,1.19-.84,2.1-.84h4.97c.77,0,1.4.28,1.89.84s.84,1.19.98,1.89v10.29h1.47c1.19,0,2.03.21,2.45.63s.63,1.26.63,2.59v6.16c0,.98-.21,1.75-.63,2.24-.42.42-1.26.7-2.45.7h-1.47v11.48l1.4-.56c1.19-.35,1.96-.21,2.38.28.42.49.63,1.19.63,1.96v5.67c.49-1.05.84-2.1,1.12-3.08.63-2.1.98-5.46.98-10.01V15.77ZM138.3,10.8c-.63.49-1.4.77-2.31.77h-2.52c-.98,0-1.75-.28-2.31-.77-.63-.49-.91-1.12-.98-1.89v-1.75c.07-.7.35-1.33.98-1.89.56-.49,1.33-.77,2.31-.77h2.52c.91,0,1.68.28,2.31.77.63.56.91,1.19.91,1.89v1.75c0,.77-.28,1.4-.91,1.89Z"/><path class="cls-2" d="M171.58,50.14c.7.07,1.33.28,1.75.77.49.49.77,1.12.77,1.82v5.81c0,2.45-.63,4.34-1.96,5.6-1.33,1.26-3.5,2.03-6.51,2.1h-10.22c-.84,0-1.54-.28-2.03-.77s-.7-1.05-.7-1.75v-3.85c0-.7.21-1.26.7-1.75.49-.49,1.19-.77,2.03-.77h5.39c.84,0,1.47-.28,1.96-.77.49-.49.77-1.19.77-2.03v-1.82c0-.7.28-1.33.77-1.82.49-.49,1.12-.7,1.82-.77h5.46ZM189.64,48.67v15.26c0,.7-.21,1.26-.56,1.61-.42.35-.98.56-1.61.56h-7.7c-.63,0-1.26-.21-1.68-.56-.49-.35-.7-.91-.7-1.61v-15.26h-21.63c-.98,0-1.68-.35-2.17-.91-.56-.56-.84-1.19-.84-1.96V12.06c0-.7.28-1.26.84-1.82.49-.56,1.19-.84,2.17-.84h6.37c.84,0,1.54.28,2.1.84.56.56.84,1.12.84,1.82v27.72h46.7c1.12,0,1.89.14,2.31.56.35.42.56,1.33.56,2.59v2.8c0,.98-.21,1.68-.56,2.17-.42.49-1.19.77-2.31.77h-22.12ZM210.57,5.41c.35.42.56.91.56,1.68v29.05c0,.7-.21,1.26-.56,1.61-.35.35-.84.49-1.61.49h-39.41c-.77,0-1.26-.14-1.61-.49-.35-.35-.49-.91-.49-1.61V7.09c0-.77.14-1.26.49-1.68.35-.35.84-.49,1.61-.49h39.41c.77,0,1.26.14,1.61.49ZM198.81,11.57h-19.11v2.17h19.11v-2.17ZM198.81,20.32h-19.11v2.17h19.11v-2.17ZM198.81,29h-19.11v2.31h19.11v-2.31ZM202.66,50.91c.49.49.77,1.12.77,1.82v1.82c0,.84.28,1.54.77,2.03s1.19.77,1.96.77h5.39c.84,0,1.54.28,2.03.77s.7,1.05.7,1.75v3.85c0,.7-.21,1.26-.7,1.75-.49.49-1.19.77-2.03.77h-10.22c-3.01-.07-5.18-.84-6.51-2.1-1.33-1.26-1.96-3.15-1.96-5.6v-5.81c0-.7.28-1.33.77-1.82.42-.49,1.05-.7,1.75-.77h5.46c.7.07,1.33.28,1.82.77Z"/></g></svg>