<?xml version="1.0" encoding="UTF-8"?><svg id="_レイヤー_2" xmlns="http://www.w3.org/2000/svg" viewBox="0 0 218.17 71.35"><defs><style>.cls-1,.cls-2,.cls-3{stroke-width:0px;}.cls-2{fill:#198caa;}.cls-3{fill:#fff;}</style></defs><g id="_レイヤー_4"><path class="cls-1" d="M14.58,15.77c-.21-.07-.49-.28-.84-.63-.35-.28-.49-.84-.49-1.54v-2.87c0-.77.21-1.33.7-1.82.49-.42,1.12-.7,1.89-.7h26.95c1.19,0,1.96-.35,2.31-.98.42-.63.84-1.26,1.33-1.82s1.12-.84,1.82-.84h6.65c.77,0,1.33.28,1.89.84.49.56.7,1.19.7,1.96.07,1.96-.7,3.64-2.24,5.04-1.61,1.4-3.15,2.31-4.62,2.73h3.92c1.19,0,2.03.21,2.59.77.49.56.56,1.19.14,1.89l-.91,1.96h6.79c1.19,0,1.96.21,2.38.56.35.42.56,1.33.63,2.66v5.95c0,1.05-.21,1.75-.56,2.24-.42.49-1.26.7-2.45.7h-5.81c.77.77,1.12,1.61,1.12,2.66v3.78c0,1.26-.21,2.17-.63,2.59s-1.19.63-2.38.63h-26.6c-1.05,0-1.82-.21-2.24-.63s-.63-1.26-.63-2.59v-8.05c0-1.05.21-1.82.56-2.24.42-.49,1.12-.7,2.17-.63h2.24c1.12-.07,1.89.14,2.24.63.42.49.63,1.26.63,2.24v3.15c0,.84.28,1.26.98,1.26h16.1c0-1.19.21-2.03.63-2.45s1.05-.63,1.96-.63h2.8c-1.05-.7-1.54-1.47-1.54-2.52v-3.01H15.91v3.01c0,.84-.21,1.54-.63,2.03-.42.56-1.12.77-2.17.77h-5.74c-1.12,0-1.89-.21-2.31-.77-.35-.49-.56-1.19-.56-2.03v-6.09c0-1.33.21-2.24.56-2.66.42-.35,1.19-.56,2.31-.56h7.84l-.98-1.96c-.35-.7-.21-1.4.35-2.03ZM53.93,57.14c2.66.63,5.04.91,7.14.91.98.07,1.75.35,2.17.91.42.49.7,1.19.77,1.96v2.66c0,1.33-.21,2.24-.63,2.73-.42.42-1.19.63-2.31.49-5.6.14-11.27-.84-17.08-2.94-5.39,2.1-11.41,3.08-18.06,2.94-1.05.14-1.89-.07-2.31-.49-.49-.49-.77-1.4-.77-2.73v-2.66c.07-.77.35-1.47.84-1.96.49-.56,1.26-.84,2.24-.91,1.82,0,4.2-.14,7.28-.56-1.26-2.03-2.24-4.13-2.94-6.3h-7.63c-.28,6.51-1.68,10.71-4.13,12.67-2.45,1.96-5.04,2.87-7.98,2.73-1.4,0-2.38-.21-2.87-.63s-.7-1.12-.7-2.17v-3.01c0-.84.28-1.54.84-2.1.63-.56,1.54-.84,2.73-.84,1.61,0,2.73-.49,3.29-1.4.56-.91.84-2.31.77-4.2v-6.51c0-1.05.21-1.75.7-2.1.42-.35,1.19-.49,2.17-.49h37.66c1.33,0,2.24.21,2.66.7s.63,1.19.63,2.1c-.14,4.48-1.61,8.19-4.48,11.2ZM22,39.08c-1.68,1.89-4.13,2.87-7.49,2.87h-1.05c-.91,0-1.61-.14-2.1-.42-.49-.35-.77-1.05-.77-2.1v-3.64c0-1.12.28-1.89.7-2.31.49-.35,1.19-.56,2.17-.56h.63c1.05,0,1.75-.21,2.1-.56.35-.42.56-1.05.7-2.03,0-.84.28-1.61.77-2.17s1.26-.84,2.31-.77h1.4c.98-.07,1.75.21,2.24.77s.77,1.19.77,2.03c0,3.99-.77,7-2.38,8.89ZM28.79,16.12h-4.48c.28.42.7,1.05,1.12,1.89l.98,1.75h3.29l-.98-1.96c-.28-.63-.28-1.19.07-1.68ZM40.41,32.71c-.56.56-1.26.84-2.1.84-.98,0-1.75-.28-2.31-.84-.49-.56-.77-1.19-.84-1.89v-.7c.07-.7.35-1.26.84-1.82.56-.56,1.26-.84,2.17-.84s1.68.28,2.24.84.84,1.12.84,1.82v.7c0,.7-.28,1.33-.84,1.89ZM38.8,16.12c.28.42.7,1.05,1.12,1.89l.98,1.75h4.27l.91-1.75c.56-.98,1.05-1.75,1.4-2.17-1.26.21-2.73.28-4.27.28h-4.41ZM48.18,51.2h-9.1c1.19,1.33,2.8,2.45,4.9,3.29,1.75-.84,3.15-1.96,4.2-3.29ZM48.04,32.71c-.56.56-1.26.84-2.1.84-.98,0-1.75-.28-2.24-.84-.56-.56-.84-1.19-.91-1.89v-.7c.07-.7.35-1.26.91-1.82.49-.56,1.19-.84,2.1-.84s1.68.28,2.24.84.84,1.12.84,1.82v.7c0,.7-.28,1.33-.84,1.89Z"/><path class="cls-1" d="M106.75,12.76c.42.42.63,1.26.63,2.59v4.9c0,1.05-.21,1.75-.63,2.24-.35.49-1.19.7-2.45.7h-5.6v5.11h5.81c1.26,0,2.1.21,2.45.56.42.42.63,1.33.63,2.66v4.9c0,.98-.21,1.75-.63,2.24-.35.42-1.19.7-2.45.7h-5.81l6.09,5.25c1.19,1.19,1.96,1.96,2.38,2.31.35.42.56,1.12.49,2.24v6.37c.07.84-.21,1.54-.77,2.1-.56.49-1.26.49-2.1-.14l-6.72-5.67c-.49,4.2-1.47,7.56-3.01,10.08-2.52,3.22-5.95,4.83-10.5,4.83h-4.83c-.77-.07-1.33-.35-1.89-.77-.49-.49-.7-1.05-.7-1.82v-6.65c0-.77.21-1.33.7-1.82.56-.42,1.12-.7,1.89-.7h2.45c2.03-.07,3.71-.84,5.04-2.38,1.26-1.47,1.96-3.85,1.96-7.14v-6.09h-8.68c-1.12,0-1.89-.28-2.31-.7-.42-.49-.63-1.26-.63-2.24v-4.9c0-1.33.21-2.24.63-2.66.42-.35,1.19-.56,2.31-.56h8.75v-5.11h-1.75c-1.19,1.75-2.73,2.52-4.55,2.52h-2.87c-.63-.07-1.26-.35-1.75-.77-.56-.49-.77-1.05-.77-1.82v-6.09c0-.77.21-1.33.77-1.82.49-.42,1.12-.7,1.75-.77.56,0,.98-.35,1.19-.91.21-.63.28-1.54.28-2.8v-3.43c0-.77.28-1.4.77-1.96.56-.56,1.19-.84,1.89-.84h3.5c.77,0,1.4.28,1.89.84.56.56.77,1.19.77,1.96v4.83h13.93c1.26,0,2.1.21,2.45.63ZM138.46,8.84c.56.56.84,1.19.84,1.89v53.13c0,.77-.28,1.4-.84,1.96-.56.56-1.26.84-2.1.84h-22.54c-.91,0-1.61-.28-2.17-.84-.49-.56-.77-1.19-.84-1.96V10.73c.07-.7.35-1.33.84-1.89.56-.49,1.26-.77,2.17-.77h22.54c.84,0,1.54.28,2.1.77ZM128.45,19.62h-6.79v35.49h6.79V19.62Z"/><path class="cls-1" d="M170.62,50.71c.7.07,1.33.28,1.75.77.49.49.77,1.12.77,1.82v5.81c0,2.45-.63,4.34-1.96,5.6-1.33,1.26-3.5,2.03-6.51,2.1h-10.22c-.84,0-1.54-.28-2.03-.77-.49-.49-.7-1.05-.7-1.75v-3.85c0-.7.21-1.26.7-1.75.49-.49,1.19-.77,2.03-.77h5.39c.84,0,1.47-.28,1.96-.77.49-.49.77-1.19.77-2.03v-1.82c0-.7.28-1.33.77-1.82s1.12-.7,1.82-.77h5.46ZM188.68,49.23v15.26c0,.7-.21,1.26-.56,1.61-.42.35-.98.56-1.61.56h-7.7c-.63,0-1.26-.21-1.68-.56-.49-.35-.7-.91-.7-1.61v-15.26h-21.63c-.98,0-1.68-.35-2.17-.91-.56-.56-.84-1.19-.84-1.96V12.62c0-.7.28-1.26.84-1.82.49-.56,1.19-.84,2.17-.84h6.37c.84,0,1.54.28,2.1.84.56.56.84,1.12.84,1.82v27.72h46.69c1.12,0,1.89.14,2.31.56.35.42.56,1.33.56,2.59v2.8c0,.98-.21,1.68-.56,2.17-.42.49-1.19.77-2.31.77h-22.12ZM209.61,5.97c.35.42.56.91.56,1.68v29.05c0,.7-.21,1.26-.56,1.61-.35.35-.84.49-1.61.49h-39.41c-.77,0-1.26-.14-1.61-.49-.35-.35-.49-.91-.49-1.61V7.65c0-.77.14-1.26.49-1.68.35-.35.84-.49,1.61-.49h39.41c.77,0,1.26.14,1.61.49ZM197.85,12.13h-19.11v2.17h19.11v-2.17ZM197.85,20.88h-19.11v2.17h19.11v-2.17ZM197.85,29.56h-19.11v2.31h19.11v-2.31ZM201.7,51.47c.49.49.77,1.12.77,1.82v1.82c0,.84.28,1.54.77,2.03.49.49,1.19.77,1.96.77h5.39c.84,0,1.54.28,2.03.77s.7,1.05.7,1.75v3.85c0,.7-.21,1.26-.7,1.75s-1.19.77-2.03.77h-10.22c-3.01-.07-5.18-.84-6.51-2.1-1.33-1.26-1.96-3.15-1.96-5.6v-5.81c0-.7.28-1.33.77-1.82.42-.49,1.05-.7,1.75-.77h5.46c.7.07,1.33.28,1.82.77Z"/><path class="cls-2" d="M61.71,71.35c-.27,0-.54-.01-.83-.04-5.51.11-11.17-.8-16.85-2.67-5.43,1.88-11.45,2.78-17.91,2.67-2.26.21-4.33-.44-5.69-1.81-.29-.29-.54-.6-.77-.93-2.85,1.82-5.96,2.67-9.25,2.53-2.54-.01-4.35-.56-5.69-1.71-1.51-1.29-2.27-3.17-2.27-5.59v-3.01c0-2.04.75-3.87,2.16-5.28.06-.06.12-.12.19-.18,1.38-1.23,3.15-1.89,5.27-1.97.02-.25.02-.56,0-.94,0-.06,0-.11,0-.17v-6.35c-.33-.13-.65-.28-.96-.46-.13-.07-.25-.15-.37-.24-.99-.71-2.66-2.4-2.66-5.76v-3.13c-2.01-.24-3.56-1.08-4.63-2.49-.02-.03-.04-.06-.07-.09-.91-1.28-1.4-2.89-1.4-4.64v-6.09c0-2.43.52-4.24,1.6-5.54.17-.21.36-.4.57-.57,1.28-1.07,3.03-1.61,5.2-1.61h1.54c-.1-.5-.16-1.05-.16-1.66v-2.87c0-1.98.68-3.66,2.02-5,.08-.08.17-.16.25-.24,1.36-1.17,3.03-1.78,4.82-1.78h26.22c.29-.41.62-.84.99-1.26,1.34-1.53,3.19-2.38,5.21-2.38h6.65c1.94,0,3.64.73,5.08,2.16.07.07.14.14.21.22,1.18,1.35,1.79,2.98,1.81,4.83.06,2.05-.43,3.97-1.44,5.69.6.7,1.03,1.47,1.27,2.29h1.34c2.25,0,3.98.53,5.27,1.61.21.17.4.36.57.57,1.02,1.23,1.54,2.86,1.67,5.3,0,.08,0,.16,0,.24v5.95c0,1.93-.47,3.56-1.4,4.86-.08.11-.16.21-.24.31-1.95,2.27-4.9,2.27-5.87,2.27h-.19v1.94c0,1.65-.26,3.02-.8,4.14.42.89.73,2.04.73,3.49,0,.05,0,.09,0,.14-.08,2.69-.57,5.19-1.46,7.49,2.84.22,4.44,1.49,5.3,2.57.98,1.19,1.6,2.74,1.75,4.38.01.13.02.27.02.4v2.66c0,2.46-.56,4.31-1.71,5.66-.08.09-.15.17-.24.25-.73.73-2.27,1.85-4.85,1.85ZM43.98,59.37c.52,0,1.04.09,1.53.27,3.41,1.23,6.71,2.04,9.97,2.42-.85-.15-1.72-.32-2.59-.53-1.57-.37-2.82-1.55-3.28-3.1-.21-.72-.24-1.47-.1-2.18-1.06.89-2.26,1.66-3.58,2.29-1.14.54-2.45.59-3.62.12-1.89-.76-3.55-1.73-4.96-2.9.49,1.16.47,2.49-.08,3.65-.51,1.09-1.43,1.91-2.53,2.31,2.69-.44,5.23-1.13,7.61-2.05.53-.2,1.08-.31,1.63-.31ZM50.95,47.64c.53.42.98.96,1.29,1.59.3.62.45,1.28.45,1.94.52-1.07.88-2.24,1.06-3.53h-2.8ZM33.03,47.64c.7.54,1.23,1.29,1.52,2.17.05.14.09.28.14.42.07-.3.16-.59.29-.88.31-.69.77-1.27,1.34-1.71h-3.29ZM19.08,47.64v.79c.23-.29.49-.56.79-.79h-.79ZM15.09,37.38v.06c1.92-.09,2.83-.64,3.35-1.14-.92.6-2.04.96-3.35,1.08ZM59.27,27.37h2.41v-3.11h-2.79c.24.55.38,1.16.38,1.8v1.31ZM9,27.37h2.41v-1.31c0-.64.13-1.25.38-1.8h-2.79v3.11ZM49.31,21.56h2.94c-.27-.61-.39-1.27-.37-1.92h-1.24c-.1,0-.19,0-.29,0-.09.15-.2.33-.32.54l-.72,1.39ZM33.83,21.56h2.93l-.76-1.35c-.03-.06-.07-.12-.1-.19-.3-.6-.6-1.04-.84-1.41-.92-1.38-1.01-3.16-.22-4.62.27-.5.62-.93,1.03-1.29h-4.14c.43.37.79.83,1.06,1.35.44.85.59,1.81.45,2.72l.48.97c.6,1.2.63,2.6.1,3.81ZM19.33,21.56h2.93l-.76-1.35c-.03-.06-.07-.12-.1-.18-.3-.59-.6-1.05-.84-1.41-.92-1.38-1-3.16-.22-4.62.27-.5.62-.93,1.03-1.29h-3.5c.49.53.86,1.18,1.05,1.9.22.82.2,1.66-.04,2.45l.34.69c.6,1.2.63,2.6.1,3.81ZM18.25,15.78h0s0,0,0,0ZM16.01,11.5s0,0,0,0c0,0,0,0,0,0ZM47.49,11.34c.22,0,.44.02.66.05.38-.25.8-.45,1.25-.58.56-.16,1.5-.59,2.84-1.74h-2.95c-.13.18-.25.37-.39.57-.29.47-.79,1.12-1.58,1.7.05,0,.11,0,.16,0ZM41.18,5.04s0,0,0,0c0,0,0,0,0,0Z"/><path class="cls-2" d="M84.55,71.24h-4.83c-.14,0-.27,0-.41-.02-1.52-.14-2.88-.68-4.18-1.65-.17-.13-.33-.27-.48-.42-1.34-1.34-2.02-3.02-2.02-5v-6.65c0-1.98.68-3.66,2.02-5,.15-.15.31-.29.48-.42,1.44-1.08,2.94-1.6,4.59-1.6h2.36c.77-.04,1.24-.26,1.73-.82.41-.48.87-1.85.87-4.2v-1.59h-4.18c-2.87,0-4.57-1.1-5.49-2.02-.08-.08-.16-.16-.23-.25-1.14-1.33-1.72-3.07-1.72-5.17v-4.9c0-1.92.34-3.46,1.04-4.67-.59-.93-1.04-2.16-1.04-3.74v-6.09c0-2.64,1.25-4.29,2.31-5.21.52-.44,1.08-.82,1.68-1.11v-3.41c0-1.81.65-3.52,1.88-4.92.07-.08.13-.15.21-.22,1.41-1.41,3.17-2.16,5.07-2.16h3.5c2.01,0,3.84.8,5.17,2.26,1.32,1.37,1.99,3.06,1.99,5.04v.33h9.43c.5,0,1.53,0,2.66.29.32-.73.76-1.42,1.31-2.04.13-.15.27-.29.42-.42,1.41-1.23,3.18-1.88,5.14-1.88h22.54c1.9,0,3.66.65,5.06,1.88.08.07.15.14.22.21,1.41,1.41,2.16,3.17,2.16,5.07v53.13c0,1.95-.75,3.73-2.16,5.14-1.41,1.41-3.24,2.16-5.29,2.16h-22.54c-2.09,0-3.94-.75-5.35-2.16-.07-.07-.14-.14-.2-.22-1.13-1.29-1.78-2.81-1.93-4.52-.01-.14-.02-.27-.02-.41v-1.38c-1.43.07-2.89-.39-4.22-1.38-.07-.05-.14-.11-.21-.16l-1.03-.87c-.54,1.54-1.19,2.93-1.96,4.19-.09.15-.19.29-.3.43-3.41,4.35-8.13,6.56-14.05,6.56ZM81.63,62.24h2.92c3.03,0,5.14-.9,6.79-2.9,1.09-1.9,1.85-4.6,2.25-8.03.19-1.65,1.27-3.05,2.81-3.66,1.54-.61,3.29-.32,4.56.75l2.19,1.85v-.89c-.38-.37-.84-.83-1.43-1.43l-5.96-5.14c-1.42-1.23-1.93-3.21-1.28-4.98.66-1.76,2.34-2.93,4.22-2.93h4.39v-2.06h-4.39c-2.49,0-4.5-2.01-4.5-4.5v-5.11c0-2.49,2.01-4.5,4.5-4.5h4.18v-2.06h-12.51c-2.2,0-4.02-1.57-4.42-3.65-.08.75-.21,1.38-.41,1.97-.02.05-.04.11-.06.16-.62,1.66-1.88,2.9-3.42,3.48v2.63h.89c.28,0,.45,0,.83-.55.84-1.23,2.23-1.97,3.72-1.97h1.75c2.49,0,4.5,2.01,4.5,4.5v5.11c0,2.49-2.01,4.5-4.5,4.5h-7.19v2.06h7.12c2.49,0,4.5,2.01,4.5,4.5v6.09c0,4.33-1.02,7.71-3.04,10.07-2.14,2.47-5,3.83-8.3,3.95-.05,0-.1,0-.16,0h-.54v2.76ZM115.31,62.17h19.49V12.57h-19.49v49.6ZM136.36,12.57h0,0ZM128.45,59.62h-6.79c-2.49,0-4.5-2.01-4.5-4.5V19.62c0-2.49,2.01-4.5,4.5-4.5h6.79c2.49,0,4.5,2.01,4.5,4.5v35.49c0,2.49-2.01,4.5-4.5,4.5Z"/><path class="cls-2" d="M210.59,71.31h-10.22s-.07,0-.11,0c-3.51-.08-6.37-.93-8.52-2.51-.14.17-.29.34-.44.49-.09.09-.19.18-.29.27-1.24,1.04-2.84,1.61-4.5,1.61h-7.7c-1.62,0-3.22-.54-4.43-1.5-.37-.28-.7-.6-.99-.94-2.16,1.63-5.05,2.5-8.61,2.58-.04,0-.07,0-.11,0h-10.22c-2.01,0-3.87-.74-5.21-2.09-1.32-1.32-2.02-3.03-2.02-4.93v-3.85c0-1.9.7-3.61,2.01-4.93,1.03-1.03,2.35-1.7,3.81-1.97-1.43-.33-2.71-1.06-3.69-2.14-1.35-1.4-2.06-3.13-2.06-5.04V12.62c0-1.84.69-3.49,2.06-4.91.97-1.06,2.68-2.25,5.45-2.25h6.37c.37,0,.73.02,1.08.07.25-.91.67-1.72,1.27-2.44.08-.1.17-.2.27-.29,1.2-1.21,2.81-1.82,4.8-1.82h39.41c1.99,0,3.6.61,4.8,1.82.09.09.18.19.27.29,1.06,1.28,1.6,2.81,1.6,4.56v28.93c.56.27,1.12.64,1.62,1.14.1.1.19.2.28.3,1.08,1.29,1.6,3.08,1.6,5.47v2.8c0,1.87-.47,3.48-1.4,4.78-.08.11-.16.21-.25.31-.75.87-2.04,1.88-4.17,2.22,1.32.3,2.5.95,3.44,1.89,1.32,1.32,2.02,3.03,2.02,4.93v3.85c0,1.91-.7,3.61-2.02,4.93-1.35,1.35-3.2,2.09-5.21,2.09ZM200.43,62.31h3.48c-1.47-.25-2.8-.93-3.85-1.98-1.32-1.32-2.07-3.14-2.09-5.12h-1.57v3.9c0,1.15.2,2,.56,2.34.14.13.97.8,3.47.86ZM161.15,62.31h3.46c2.5-.07,3.33-.73,3.47-.87.35-.33.55-1.18.55-2.33v-3.9h-1.57c-.02,1.98-.76,3.8-2.09,5.13-1.05,1.05-2.36,1.72-3.82,1.97ZM180.93,62.17h3.25v-12.93c0-2.15,1.5-3.94,3.51-4.39h-10.27c2.01.45,3.51,2.25,3.51,4.39v12.93ZM156.29,44.73h6.83c-2.01-.45-3.51-2.25-3.51-4.39V14.46h-3.32v30.27ZM201.64,34.3h4.03V9.98h-3.87c.35.64.55,1.37.55,2.15v2.17c0,1.3-.55,2.47-1.43,3.29.88.82,1.43,1.99,1.43,3.29v2.17c0,1.28-.53,2.44-1.39,3.25.86.82,1.39,1.97,1.39,3.25v2.31c0,.9-.26,1.73-.71,2.43ZM170.99,34.3h3.96c-.45-.7-.71-1.53-.71-2.43v-2.31c0-1.28.53-2.44,1.39-3.25-.86-.82-1.39-1.97-1.39-3.25v-2.17c0-1.3.55-2.47,1.43-3.29-.88-.82-1.43-1.99-1.43-3.29v-2.17c0-.78.2-1.51.55-2.15h-3.8v24.32ZM208.05,9.98h.01-.01Z"/><path class="cls-3" d="M61.73,69.85c-.25,0-.52-.01-.8-.04-5.5.11-11.21-.81-16.92-2.75-5.41,1.94-11.44,2.87-17.95,2.75-1.86.19-3.51-.31-4.58-1.37-.56-.56-.99-1.27-1.26-2.11-3,2.36-6.2,3.43-9.78,3.27-2.18,0-3.69-.44-4.75-1.35-1.75-1.5-1.75-3.72-1.75-4.45v-3.01c0-1.64.59-3.1,1.72-4.22.04-.04.08-.08.13-.12,1.19-1.06,2.78-1.6,4.72-1.6.43,0,.68-.06.79-.09.11-.26.32-.96.27-2.4,0-.04,0-.07,0-.11v-6.51c0-.33.02-.65.05-.95-.66-.13-1.24-.35-1.76-.65-.08-.05-.17-.1-.25-.16-.92-.66-2.03-1.98-2.03-4.54v-3.64c0-.33.02-.63.05-.92h-.27c-.8,0-3.23,0-4.71-1.97-.78-1.09-1.16-2.39-1.16-3.83v-6.09c0-2.07.41-3.57,1.25-4.58.12-.14.24-.27.38-.38,1-.84,2.42-1.26,4.24-1.26h3.67c0-.05,0-.11.01-.16-.45-.67-.81-1.63-.81-3v-2.87c0-1.57.53-2.89,1.58-3.94.05-.05.11-.11.17-.16,1.08-.93,2.41-1.42,3.84-1.42h26.95s.04,0,.05,0c.38-.57.82-1.19,1.33-1.78,1.05-1.2,2.5-1.86,4.08-1.86h6.65c1.54,0,2.86.56,4.01,1.72.05.05.09.1.14.15.94,1.08,1.43,2.39,1.44,3.88.07,2.17-.59,4.18-1.91,5.9.24.17.47.36.69.58.05.05.09.09.13.14.73.83,1.12,1.82,1.15,2.83h2.61c1.88,0,3.29.41,4.31,1.26.14.12.26.24.38.38.8.96,1.21,2.33,1.32,4.42,0,.05,0,.11,0,.16v5.95c0,1.63-.37,2.93-1.12,3.99-.05.07-.1.14-.16.21-1.5,1.75-3.93,1.75-4.73,1.75h-1.69v3.44c0,1.77-.33,3.13-1.02,4.12.63.96.95,2.14.95,3.51-.1,3.37-.86,6.38-2.25,9.03.73.06,1.44.04,2.12.09,2.35.17,3.62,1.17,4.29,2.02.8.96,1.3,2.23,1.42,3.58,0,.09.01.18.01.27v2.66c0,2.12-.43,3.61-1.35,4.68-.05.06-.1.12-.16.17-.67.68-1.85,1.41-3.77,1.41ZM43.98,60.87c.34,0,.69.06,1.02.18,5.51,1.99,10.73,2.9,15.99,2.76,0,0,0,0,.01,0,0-.07,0-.14,0-.22v-2.48s0-.03,0-.04c-.02,0-.04,0-.06,0-2.39-.01-4.98-.34-7.71-.99-1.05-.25-1.88-1.04-2.18-2.07-.31-1.03-.04-2.15.71-2.92,2.28-2.39,3.47-5.31,3.64-8.93-.08,0-.18,0-.28,0H17.58v6.05c.08,2.42-.33,4.38-1.22,5.83-.65,1.05-2.27,2.83-5.84,2.83-.26,0-.45.02-.57.05v2.69c.19.01.44,0,.71.02,2.18.1,4.06-.56,5.96-2.08.99-.79,2.69-3.2,3.01-10.46.07-1.6,1.39-2.87,3-2.87h7.63c1.3,0,2.46.84,2.86,2.08.62,1.93,1.51,3.82,2.63,5.64.54.86.6,1.94.16,2.86-.43.92-1.3,1.56-2.31,1.69-2.8.38-5.34.58-7.56.59-.08,0-.15.02-.2.03,0,0,0,.02,0,.02v2.48c0,.08,0,.15,0,.22.05,0,.09,0,.14,0,6.22.13,11.91-.79,16.91-2.74.35-.14.72-.21,1.09-.21ZM25.42,54.2c-.03.31-.07.61-.1.9.13-.01.26-.03.39-.04.07,0,.14,0,.21,0,.8,0,1.66-.03,2.57-.09-.11-.26-.22-.51-.33-.77h-2.74ZM22,39.08h0,0ZM13.59,38.95h.92c2.4,0,4.11-.6,5.23-1.84,1.05-1.26,1.62-3.58,1.64-6.72h-1.41s-.05,0-.08,0c0,.12-.01.24-.03.36-.15,1.06-.44,2.42-1.36,3.53-.06.07-.12.14-.18.2-.96.96-2.38,1.44-4.22,1.44h-.5v3.03ZM29,38.53h26.48c0-.07,0-.14,0-.22v-3.72h-1.56v.08c0,1.66-1.34,3-3,3h-16.1c-1.92,0-3.98-1.33-3.98-4.26v-3.02h-1.84v7.92c0,.08,0,.15,0,.22ZM45.8,30.55s.05,0,.08,0v-.09s-.06,0-.09,0v.08s0,0,0,0ZM38.16,30.55s.06,0,.09,0v-.09s-.05,0-.09,0v.08ZM12.88,29.3s0,0,0,0c0,0,0,0,0,0ZM57.77,28.87h5.41v-5.81c0-.11-.01-.21-.02-.3h-6.78c-1.02,0-1.98-.52-2.53-1.39-.55-.86-.62-1.95-.19-2.88l.17-.36h-3.19c-.35,0-.69-.06-1-.17-.16.23-.46.68-.92,1.48l-.88,1.7c-.52.99-1.54,1.62-2.66,1.62h-4.27c-1.09,0-2.09-.59-2.62-1.53l-.98-1.75s-.04-.08-.07-.12c-.34-.68-.68-1.19-.93-1.57-.61-.92-.67-2.1-.15-3.08.52-.98,1.54-1.58,2.65-1.58h4.41c1.57,0,2.81-.08,3.78-.24.52-.09,1.04-.03,1.52.14.35-.35.79-.62,1.3-.77,1.04-.3,2.21-1.01,3.48-2.11.83-.76,1.23-1.57,1.21-2.58h-5.96c-.3.37-.59.8-.89,1.25-.57.95-1.92,2.39-4.85,2.39h-26.54v2.07c.6.4,1.04,1.01,1.23,1.72.19.72.11,1.48-.23,2.14l.64,1.29c.46.93.42,2.03-.13,2.92s-1.51,1.42-2.55,1.42h-7.71c0,.07,0,.14,0,.22v5.89h5.41v-2.81c0-1.66,1.34-3,3-3h38.85c1.66,0,3,1.34,3,3v2.81ZM16.91,16.46h0s0,0,0,0ZM15.53,12.93s0,0,0,0c0,0,0,0,0,0ZM15.61,12.79s0,0,0,0c0,0,0,0,0,0ZM43.98,57.48c-.38,0-.76-.07-1.11-.21-2.46-.98-4.48-2.35-6.02-4.07-.79-.88-.99-2.15-.5-3.23.48-1.08,1.56-1.77,2.74-1.77h9.1c1.15,0,2.2.66,2.7,1.69.5,1.03.37,2.26-.34,3.17-1.36,1.72-3.13,3.11-5.26,4.13-.41.2-.85.3-1.3.3ZM29.7,22.76h-3.29c-1.09,0-2.09-.59-2.62-1.53l-.98-1.75s-.04-.08-.06-.12c-.34-.67-.68-1.19-.93-1.57-.61-.92-.67-2.11-.15-3.08s1.54-1.58,2.64-1.58h4.48c1.12,0,2.15.63,2.67,1.63.36.7.43,1.5.21,2.23l.72,1.44c.46.93.42,2.03-.13,2.92s-1.51,1.42-2.55,1.42Z"/><path class="cls-3" d="M84.55,69.74h-4.83c-.09,0-.18,0-.27-.01-1.64-.15-2.73-.85-3.42-1.36-.11-.09-.22-.18-.32-.28-1.05-1.05-1.58-2.37-1.58-3.94v-6.65c0-1.57.53-2.89,1.58-3.94.1-.1.21-.19.32-.28.75-.56,1.94-1.3,3.69-1.3h2.39c1.2-.05,2.07-.47,2.83-1.34.45-.53,1.23-1.92,1.23-5.18v-3.09h-5.68c-2.36,0-3.71-.86-4.43-1.58-.05-.05-.11-.11-.16-.17-.9-1.05-1.35-2.46-1.35-4.19v-4.9c0-1.37.15-3.34,1.42-4.69-.95-1-1.42-2.24-1.42-3.71v-6.09c0-1.67.6-3.04,1.79-4.08.64-.55,1.39-.97,2.17-1.23.01-.25.02-.58.02-1v-3.43c0-1.46.51-2.79,1.51-3.94.04-.05.09-.1.14-.15,1.12-1.12,2.51-1.72,4.01-1.72h3.5c1.61,0,3.02.62,4.08,1.79,1.05,1.08,1.58,2.43,1.58,4.01v1.83h10.93c1.05,0,2.44.1,3.6.75.21-1.11.71-2.13,1.49-3.02.09-.1.18-.19.28-.28,1.15-1,2.54-1.51,4.15-1.51h22.54c1.54,0,2.95.52,4.08,1.51.05.04.1.09.15.14,1.12,1.12,1.72,2.51,1.72,4.01v53.13c0,1.54-.59,2.96-1.72,4.08-1.13,1.13-2.59,1.72-4.22,1.72h-22.54c-1.68,0-3.17-.59-4.29-1.72-.05-.05-.09-.1-.13-.14-.92-1.05-1.44-2.28-1.57-3.66,0-.09-.01-.18-.01-.27v-3.28c-1.3.61-3.03.65-4.82-.69-.05-.04-.09-.07-.14-.11l-2.77-2.34c-.61,2.32-1.43,4.31-2.47,6.02-.06.1-.13.19-.2.29-3.11,3.97-7.43,5.98-12.86,5.98ZM80.13,63.74h4.42c3.52,0,6.08-1.13,8.03-3.54,1.23-2.08,2.07-5.01,2.5-8.72.13-1.1.85-2.04,1.88-2.44,1.02-.41,2.19-.22,3.04.5l4.66,3.93v-4.3c0-.06,0-.13,0-.19,0-.11,0-.19,0-.26-.46-.43-1.06-1.03-1.93-1.9l-6.01-5.18c-.95-.82-1.29-2.14-.85-3.32.44-1.18,1.56-1.96,2.81-1.96h5.81s.05,0,.08,0v-4.84c0-.08,0-.15,0-.22-.03,0-.05,0-.08,0h-5.81c-1.66,0-3-1.34-3-3v-5.11c0-1.66,1.34-3,3-3h5.6s.05,0,.08,0v-4.84c0-.08,0-.15,0-.22-.02,0-.05,0-.08,0h-13.93c-1.66,0-3-1.34-3-3v-4.63h-2.79l-.03,3.23c0,1.74-.13,2.82-.43,3.75-.01.04-.02.07-.04.1-.6,1.6-1.92,2.65-3.52,2.83v5.3s2.39,0,2.39,0c.75,0,1.39-.21,2.07-1.21.56-.82,1.49-1.31,2.48-1.31h1.75c1.66,0,3,1.34,3,3v5.11c0,1.66-1.34,3-3,3h-8.69c0,.07,0,.14,0,.22v4.84h8.62c1.66,0,3,1.34,3,3v6.09c0,3.96-.9,7.02-2.68,9.09-1.88,2.17-4.3,3.32-7.21,3.42-.03,0-.07,0-.1,0h-2.04v5.76ZM113.81,63.67h22.49V11.07h-22.49v52.6ZM106.52,42.15l.22.19c.06.05.11.1.16.15.31.31.62.62.9.9v-1.69c-.36.18-.79.33-1.28.45ZM107.31,25.69c.17.06.34.12.49.19v-.43c-.16.09-.33.17-.49.24ZM80.07,11.44h0,0ZM128.45,58.12h-6.79c-1.66,0-3-1.34-3-3V19.62c0-1.66,1.34-3,3-3h6.79c1.66,0,3,1.34,3,3v35.49c0,1.66-1.34,3-3,3ZM124.66,52.12h.79v-29.49h-.79v29.49Z"/><path class="cls-3" d="M210.59,69.81h-10.22c-3.76-.09-6.62-1.07-8.57-2.92-.15-.15-.3-.29-.44-.45-.24.69-.62,1.3-1.12,1.79-.06.06-.13.12-.2.18-.97.81-2.23,1.26-3.54,1.26h-7.7c-1.29,0-2.57-.43-3.52-1.19-.72-.54-1.24-1.26-1.55-2.11-.16.18-.33.35-.5.51-1.96,1.85-4.82,2.84-8.51,2.92h-10.29c-1.61,0-3.09-.58-4.15-1.65-1.05-1.05-1.58-2.35-1.58-3.87v-3.85c0-1.52.53-2.82,1.58-3.87,1.06-1.06,2.54-1.65,4.15-1.65h5.12v-1.62c0-.36.04-.71.11-1.06h-4.87c-1.75,0-3.26-.64-4.36-1.86-1.08-1.11-1.65-2.5-1.65-4.01V12.62c0-1.45.56-2.75,1.65-3.88.76-.83,2.12-1.78,4.36-1.78h6.37c.83,0,1.61.15,2.32.45.02-.92.21-2.19,1.18-3.36.06-.07.12-.13.18-.2,1.37-1.38,3.15-1.38,3.74-1.38h39.41c.59,0,2.37,0,3.74,1.38.06.06.12.13.18.2.84,1.01,1.25,2.19,1.25,3.6v29.05c0,.31-.02.6-.06.89.76.2,1.5.56,2.12,1.19.06.06.13.13.18.2.84,1.01,1.25,2.49,1.25,4.51v2.8c0,1.56-.38,2.87-1.12,3.91-.05.07-.11.14-.16.21-.71.83-2.08,1.82-4.59,1.82h-5.43c.07.35.1.7.1,1.06v1.62h5.12c1.61,0,3.09.59,4.15,1.65,1.05,1.05,1.58,2.35,1.58,3.87v3.85c0,1.52-.53,2.82-1.58,3.87-1.06,1.06-2.54,1.65-4.15,1.65ZM194.9,53.71v5.4c0,1.63.34,2.78,1.02,3.43.82.77,2.42,1.23,4.52,1.28h9.88v-2.89h-5.12c-1.57,0-3.02-.59-4.08-1.66-1.06-1.06-1.65-2.53-1.65-4.15v-1.41h-4.57ZM154.72,63.8h9.95c2.03-.04,3.63-.5,4.45-1.27.68-.64,1.02-1.79,1.02-3.42v-5.4h-4.57v1.41c0,1.62-.59,3.09-1.65,4.15-1.07,1.07-2.48,1.65-4.08,1.65h-5.12v2.88ZM179.43,63.67h6.25v-14.43c0-1.66,1.34-3,3-3h21.99v-2.74c0-.05,0-.1,0-.15h-46.56c-1.66,0-3-1.34-3-3V12.97h-6.31s0,0,0,0v33.27h21.64c1.66,0,3,1.34,3,3v14.43ZM169.49,35.8h37.68V8.48s-37.68,0-37.68,0v27.32ZM208.19,8.49h0,0ZM197.85,34.87h-19.11c-1.66,0-3-1.34-3-3v-2.31c0-1.66,1.34-3,3-3h19.11c1.66,0,3,1.34,3,3v2.31c0,1.66-1.34,3-3,3ZM197.85,26.05h-19.11c-1.66,0-3-1.34-3-3v-2.17c0-1.66,1.34-3,3-3h19.11c1.66,0,3,1.34,3,3v2.17c0,1.66-1.34,3-3,3ZM197.85,17.3h-19.11c-1.66,0-3-1.34-3-3v-2.17c0-1.66,1.34-3,3-3h19.11c1.66,0,3,1.34,3,3v2.17c0,1.66-1.34,3-3,3Z"/><path class="cls-2" d="M14.58,15.77c-.21-.07-.49-.28-.84-.63-.35-.28-.49-.84-.49-1.54v-2.87c0-.77.21-1.33.7-1.82.49-.42,1.12-.7,1.89-.7h26.95c1.19,0,1.96-.35,2.31-.98.42-.63.84-1.26,1.33-1.82s1.12-.84,1.82-.84h6.65c.77,0,1.33.28,1.89.84.49.56.7,1.19.7,1.96.07,1.96-.7,3.64-2.24,5.04-1.61,1.4-3.15,2.31-4.62,2.73h3.92c1.19,0,2.03.21,2.59.77.49.56.56,1.19.14,1.89l-.91,1.96h6.79c1.19,0,1.96.21,2.38.56.35.42.56,1.33.63,2.66v5.95c0,1.05-.21,1.75-.56,2.24-.42.49-1.26.7-2.45.7h-5.81c.77.77,1.12,1.61,1.12,2.66v3.78c0,1.26-.21,2.17-.63,2.59s-1.19.63-2.38.63h-26.6c-1.05,0-1.82-.21-2.24-.63s-.63-1.26-.63-2.59v-8.05c0-1.05.21-1.82.56-2.24.42-.49,1.12-.7,2.17-.63h2.24c1.12-.07,1.89.14,2.24.63.42.49.63,1.26.63,2.24v3.15c0,.84.28,1.26.98,1.26h16.1c0-1.19.21-2.03.63-2.45s1.05-.63,1.96-.63h2.8c-1.05-.7-1.54-1.47-1.54-2.52v-3.01H15.91v3.01c0,.84-.21,1.54-.63,2.03-.42.56-1.12.77-2.17.77h-5.74c-1.12,0-1.89-.21-2.31-.77-.35-.49-.56-1.19-.56-2.03v-6.09c0-1.33.21-2.24.56-2.66.42-.35,1.19-.56,2.31-.56h7.84l-.98-1.96c-.35-.7-.21-1.4.35-2.03ZM53.93,57.14c2.66.63,5.04.91,7.14.91.98.07,1.75.35,2.17.91.42.49.7,1.19.77,1.96v2.66c0,1.33-.21,2.24-.63,2.73-.42.42-1.19.63-2.31.49-5.6.14-11.27-.84-17.08-2.94-5.39,2.1-11.41,3.08-18.06,2.94-1.05.14-1.89-.07-2.31-.49-.49-.49-.77-1.4-.77-2.73v-2.66c.07-.77.35-1.47.84-1.96.49-.56,1.26-.84,2.24-.91,1.82,0,4.2-.14,7.28-.56-1.26-2.03-2.24-4.13-2.94-6.3h-7.63c-.28,6.51-1.68,10.71-4.13,12.67-2.45,1.96-5.04,2.87-7.98,2.73-1.4,0-2.38-.21-2.87-.63s-.7-1.12-.7-2.17v-3.01c0-.84.28-1.54.84-2.1.63-.56,1.54-.84,2.73-.84,1.61,0,2.73-.49,3.29-1.4.56-.91.84-2.31.77-4.2v-6.51c0-1.05.21-1.75.7-2.1.42-.35,1.19-.49,2.17-.49h37.66c1.33,0,2.24.21,2.66.7s.63,1.19.63,2.1c-.14,4.48-1.61,8.19-4.48,11.2ZM22,39.08c-1.68,1.89-4.13,2.87-7.49,2.87h-1.05c-.91,0-1.61-.14-2.1-.42-.49-.35-.77-1.05-.77-2.1v-3.64c0-1.12.28-1.89.7-2.31.49-.35,1.19-.56,2.17-.56h.63c1.05,0,1.75-.21,2.1-.56.35-.42.56-1.05.7-2.03,0-.84.28-1.61.77-2.17s1.26-.84,2.31-.77h1.4c.98-.07,1.75.21,2.24.77s.77,1.19.77,2.03c0,3.99-.77,7-2.38,8.89ZM28.79,16.12h-4.48c.28.42.7,1.05,1.12,1.89l.98,1.75h3.29l-.98-1.96c-.28-.63-.28-1.19.07-1.68ZM40.41,32.71c-.56.56-1.26.84-2.1.84-.98,0-1.75-.28-2.31-.84-.49-.56-.77-1.19-.84-1.89v-.7c.07-.7.35-1.26.84-1.82.56-.56,1.26-.84,2.17-.84s1.68.28,2.24.84.84,1.12.84,1.82v.7c0,.7-.28,1.33-.84,1.89ZM38.8,16.12c.28.42.7,1.05,1.12,1.89l.98,1.75h4.27l.91-1.75c.56-.98,1.05-1.75,1.4-2.17-1.26.21-2.73.28-4.27.28h-4.41ZM48.18,51.2h-9.1c1.19,1.33,2.8,2.45,4.9,3.29,1.75-.84,3.15-1.96,4.2-3.29ZM48.04,32.71c-.56.56-1.26.84-2.1.84-.98,0-1.75-.28-2.24-.84-.56-.56-.84-1.19-.91-1.89v-.7c.07-.7.35-1.26.91-1.82.49-.56,1.19-.84,2.1-.84s1.68.28,2.24.84.84,1.12.84,1.82v.7c0,.7-.28,1.33-.84,1.89Z"/><path class="cls-2" d="M106.75,12.76c.42.42.63,1.26.63,2.59v4.9c0,1.05-.21,1.75-.63,2.24-.35.49-1.19.7-2.45.7h-5.6v5.11h5.81c1.26,0,2.1.21,2.45.56.42.42.63,1.33.63,2.66v4.9c0,.98-.21,1.75-.63,2.24-.35.42-1.19.7-2.45.7h-5.81l6.09,5.25c1.19,1.19,1.96,1.96,2.38,2.31.35.42.56,1.12.49,2.24v6.37c.07.84-.21,1.54-.77,2.1-.56.49-1.26.49-2.1-.14l-6.72-5.67c-.49,4.2-1.47,7.56-3.01,10.08-2.52,3.22-5.95,4.83-10.5,4.83h-4.83c-.77-.07-1.33-.35-1.89-.77-.49-.49-.7-1.05-.7-1.82v-6.65c0-.77.21-1.33.7-1.82.56-.42,1.12-.7,1.89-.7h2.45c2.03-.07,3.71-.84,5.04-2.38,1.26-1.47,1.96-3.85,1.96-7.14v-6.09h-8.68c-1.12,0-1.89-.28-2.31-.7-.42-.49-.63-1.26-.63-2.24v-4.9c0-1.33.21-2.24.63-2.66.42-.35,1.19-.56,2.31-.56h8.75v-5.11h-1.75c-1.19,1.75-2.73,2.52-4.55,2.52h-2.87c-.63-.07-1.26-.35-1.75-.77-.56-.49-.77-1.05-.77-1.82v-6.09c0-.77.21-1.33.77-1.82.49-.42,1.12-.7,1.75-.77.56,0,.98-.35,1.19-.91.21-.63.28-1.54.28-2.8v-3.43c0-.77.28-1.4.77-1.96.56-.56,1.19-.84,1.89-.84h3.5c.77,0,1.4.28,1.89.84.56.56.77,1.19.77,1.96v4.83h13.93c1.26,0,2.1.21,2.45.63ZM138.46,8.84c.56.56.84,1.19.84,1.89v53.13c0,.77-.28,1.4-.84,1.96-.56.56-1.26.84-2.1.84h-22.54c-.91,0-1.61-.28-2.17-.84-.49-.56-.77-1.19-.84-1.96V10.73c.07-.7.35-1.33.84-1.89.56-.49,1.26-.77,2.17-.77h22.54c.84,0,1.54.28,2.1.77ZM128.45,19.62h-6.79v35.49h6.79V19.62Z"/><path class="cls-2" d="M170.62,50.71c.7.07,1.33.28,1.75.77.49.49.77,1.12.77,1.82v5.81c0,2.45-.63,4.34-1.96,5.6-1.33,1.26-3.5,2.03-6.51,2.1h-10.22c-.84,0-1.54-.28-2.03-.77-.49-.49-.7-1.05-.7-1.75v-3.85c0-.7.21-1.26.7-1.75.49-.49,1.19-.77,2.03-.77h5.39c.84,0,1.47-.28,1.96-.77.49-.49.77-1.19.77-2.03v-1.82c0-.7.28-1.33.77-1.82s1.12-.7,1.82-.77h5.46ZM188.68,49.23v15.26c0,.7-.21,1.26-.56,1.61-.42.35-.98.56-1.61.56h-7.7c-.63,0-1.26-.21-1.68-.56-.49-.35-.7-.91-.7-1.61v-15.26h-21.63c-.98,0-1.68-.35-2.17-.91-.56-.56-.84-1.19-.84-1.96V12.62c0-.7.28-1.26.84-1.82.49-.56,1.19-.84,2.17-.84h6.37c.84,0,1.54.28,2.1.84.56.56.84,1.12.84,1.82v27.72h46.69c1.12,0,1.89.14,2.31.56.35.42.56,1.33.56,2.59v2.8c0,.98-.21,1.68-.56,2.17-.42.49-1.19.77-2.31.77h-22.12ZM209.61,5.97c.35.42.56.91.56,1.68v29.05c0,.7-.21,1.26-.56,1.61-.35.35-.84.49-1.61.49h-39.41c-.77,0-1.26-.14-1.61-.49-.35-.35-.49-.91-.49-1.61V7.65c0-.77.14-1.26.49-1.68.35-.35.84-.49,1.61-.49h39.41c.77,0,1.26.14,1.61.49ZM197.85,12.13h-19.11v2.17h19.11v-2.17ZM197.85,20.88h-19.11v2.17h19.11v-2.17ZM197.85,29.56h-19.11v2.31h19.11v-2.31ZM201.7,51.47c.49.49.77,1.12.77,1.82v1.82c0,.84.28,1.54.77,2.03.49.49,1.19.77,1.96.77h5.39c.84,0,1.54.28,2.03.77s.7,1.05.7,1.75v3.85c0,.7-.21,1.26-.7,1.75s-1.19.77-2.03.77h-10.22c-3.01-.07-5.18-.84-6.51-2.1-1.33-1.26-1.96-3.15-1.96-5.6v-5.81c0-.7.28-1.33.77-1.82.42-.49,1.05-.7,1.75-.77h5.46c.7.07,1.33.28,1.82.77Z"/></g></svg>