<?xml version="1.0" encoding="UTF-8"?><svg id="_レイヤー_2" xmlns="http://www.w3.org/2000/svg" viewBox="0 0 291.67 70.82"><defs><style>.cls-1,.cls-2,.cls-3{stroke-width:0px;}.cls-2{fill:#198caa;}.cls-3{fill:#fff;}</style></defs><g id="_レイヤー_4"><path class="cls-1" d="M11.78,14.02v-6.86c.07-.7.35-1.33.84-1.89.56-.49,1.26-.77,2.17-.77h5.88c.84,0,1.47.28,1.96.77.56.56.84,1.19.98,1.89v6.86h3.85c.7.07,1.33.35,1.82.91.49.56.77,1.19.84,1.89v2.94c.07,7.07-1.33,13.09-4.2,17.99l1.75.84c1.19.63,1.96,1.12,2.31,1.47.42.42.56,1.12.56,2.24v5.88c0,.77-.21,1.47-.77,2.03-.63.56-1.33.77-2.1.7l-4.06-1.96v14.35c-.14.77-.42,1.4-.98,1.96-.49.56-1.12.84-1.96.84h-5.88c-.91,0-1.61-.28-2.17-.84-.49-.56-.77-1.19-.84-1.96v-14.14c-.77.49-1.82.77-3.08.84h-1.61c-.77-.07-1.33-.28-1.89-.77-.49-.42-.7-1.05-.7-1.75v-7.28c0-.7.21-1.26.7-1.75.56-.42,1.12-.7,1.89-.77h1.26c3.36,0,5.81-.98,7.49-3.01,1.61-2.03,2.59-4.76,2.94-8.19H7.02c-.7,0-1.26-.21-1.82-.7-.49-.49-.7-1.12-.7-1.82v-7.14c0-.7.21-1.33.7-1.89.56-.56,1.12-.84,1.82-.91h4.76ZM65.9,14.86c.49.56.77,1.19.91,1.82v32.13c-.14.77-.42,1.4-.91,1.96-.56.56-1.19.84-2.03.84h-9.31v11.69c-.14.77-.49,1.4-.98,1.96-.49.56-1.19.84-1.96.84h-3.71c-.91,0-1.61-.28-2.17-.84-.49-.56-.84-1.19-.84-1.96v-11.69h-9.38c-.91,0-1.61-.28-2.17-.84-.49-.56-.77-1.19-.84-1.96V16.68c.07-.63.35-1.26.84-1.82.56-.56,1.26-.84,2.17-.84h9.38v-6.86c0-.7.35-1.33.84-1.89.56-.49,1.26-.77,2.17-.77h3.71c.77,0,1.47.28,1.96.77.49.56.84,1.19.98,1.89v6.86h9.31c.84,0,1.47.28,2.03.84ZM44.89,27.81v-3.5h-2.66v3.5h2.66ZM44.89,41.46v-3.5h-2.66v3.5h2.66ZM57.21,24.31h-2.66v3.5h2.66v-3.5ZM57.21,37.96h-2.66v3.5h2.66v-3.5Z"/><path class="cls-1" d="M86.37,38.24c-1.19,0-2.03-.21-2.38-.7-.42-.49-.63-1.26-.63-2.24v-2.8h-2.87c-.77-.07-1.33-.28-1.89-.77-.49-.42-.7-1.05-.7-1.75v-3.99c0-.7.21-1.33.7-1.75.56-.49,1.12-.7,1.89-.77h4.55c5.18,0,9.66-1.19,13.44-3.57h-15.4c-1.19,0-1.96-.21-2.38-.7-.42-.49-.63-1.19-.63-2.24v-2.73c.07-1.33.28-2.17.7-2.59.35-.42,1.12-.63,2.31-.63h19.32v-3.36c0-.77.28-1.4.77-1.96.49-.56,1.12-.84,1.89-.84h7.7c.77,0,1.4.28,1.89.84.49.56.77,1.19.77,1.96v3.36h19.46c1.12,0,1.82.21,2.24.63.42.42.63,1.26.63,2.59v2.73c0,1.05-.21,1.75-.63,2.24-.42.49-1.12.7-2.24.7h-15.54c3.78,2.38,8.26,3.57,13.44,3.57h4.55c.77.07,1.33.28,1.89.77.49.42.7,1.05.7,1.75v3.99c0,.7-.21,1.33-.7,1.75-.56.49-1.12.7-1.89.77h-2.87v2.8c0,.98-.21,1.75-.63,2.24-.35.49-1.12.7-2.24.7h-45.22ZM97.01,50.98c.7,0,1.33.28,1.75.77.49.49.77,1.05.77,1.82v4.97c0,2.45-.63,4.34-1.96,5.6-1.33,1.26-3.5,2.03-6.51,2.1h-9.45c-.77,0-1.47-.28-1.96-.77s-.77-1.05-.77-1.75v-3.85c0-.7.28-1.26.77-1.75.49-.49,1.19-.77,1.96-.77h4.62c.84,0,1.47-.28,1.96-.77.49-.49.77-1.19.77-2.03v-.98c0-.77.28-1.33.77-1.82.49-.49,1.12-.77,1.82-.77h5.46ZM115.29,49.17v15.05c0,.7-.21,1.19-.56,1.61-.42.35-.98.49-1.61.49h-8.19c-.63,0-1.26-.14-1.68-.49-.49-.42-.7-.91-.7-1.61v-15.05h-18.48c-1.19,0-2.03-.21-2.45-.7s-.56-1.19-.56-2.24v-2.73c.07-1.33.28-2.17.63-2.59.42-.42,1.19-.63,2.38-.63h49.85c1.12,0,1.89.21,2.31.63.42.42.56,1.26.56,2.59v2.73c0,1.05-.14,1.75-.56,2.24-.42.49-1.19.7-2.31.7h-18.62ZM100.02,29.35h17.78c-3.15-.77-6.09-1.89-8.89-3.36-2.8,1.47-5.74,2.59-8.89,3.36ZM128.1,51.75c.49.49.77,1.05.77,1.82v.98c0,.84.28,1.54.77,2.03.49.49,1.19.77,1.96.77h4.62c.77,0,1.47.28,1.96.77.49.49.77,1.05.77,1.75v3.85c0,.7-.28,1.26-.77,1.75-.49.49-1.19.77-1.96.77h-9.45c-3.01-.07-5.18-.84-6.51-2.1-1.33-1.26-1.96-3.15-1.96-5.6v-4.97c0-.77.28-1.33.77-1.82.42-.49,1.05-.77,1.75-.77h5.46c.7,0,1.33.28,1.82.77Z"/><path class="cls-1" d="M168.62,4.57c.77,0,1.4.28,1.89.84.49.56.77,1.19.77,1.96v39.13c0,6.72-1.47,11.69-4.55,14.91s-6.3,4.76-9.8,4.76h-3.85c-.77-.07-1.33-.35-1.89-.77-.49-.49-.7-1.05-.7-1.82v-6.65c0-.77.21-1.33.7-1.82.56-.42,1.12-.7,1.89-.7,1.47-.07,2.66-.84,3.71-2.38,1.05-1.47,1.54-3.85,1.54-7.14V7.37c0-.77.28-1.4.77-1.96.49-.56,1.05-.84,1.75-.84h7.77ZM191.23,54.55c-.56.56-1.26.84-2.1.84h-7c-.91,0-1.61-.28-2.17-.84-.49-.49-.77-1.12-.84-1.89V7.16c.07-.7.35-1.33.84-1.89.56-.49,1.26-.77,2.17-.77h7c.84,0,1.54.28,2.1.77.56.56.84,1.19.84,1.89v45.5c0,.77-.28,1.4-.84,1.89ZM212.02,65.55c-.56.56-1.26.77-2.1.77h-7c-.91,0-1.68-.21-2.17-.77-.56-.56-.84-1.19-.84-1.96V7.16c0-.7.28-1.33.84-1.89.49-.49,1.26-.77,2.17-.77h7c.84,0,1.54.28,2.1.77.56.56.84,1.19.84,1.89v56.43c0,.77-.28,1.4-.84,1.96Z"/><path class="cls-1" d="M244.12,50.14c.7.07,1.33.28,1.75.77.49.49.77,1.12.77,1.82v5.81c0,2.45-.63,4.34-1.96,5.6-1.33,1.26-3.5,2.03-6.51,2.1h-10.22c-.84,0-1.54-.28-2.03-.77-.49-.49-.7-1.05-.7-1.75v-3.85c0-.7.21-1.26.7-1.75s1.19-.77,2.03-.77h5.39c.84,0,1.47-.28,1.96-.77.49-.49.77-1.19.77-2.03v-1.82c0-.7.28-1.33.77-1.82s1.12-.7,1.82-.77h5.46ZM262.18,48.67v15.26c0,.7-.21,1.26-.56,1.61-.42.35-.98.56-1.61.56h-7.7c-.63,0-1.26-.21-1.68-.56-.49-.35-.7-.91-.7-1.61v-15.26h-21.63c-.98,0-1.68-.35-2.17-.91-.56-.56-.84-1.19-.84-1.96V12.06c0-.7.28-1.26.84-1.82.49-.56,1.19-.84,2.17-.84h6.37c.84,0,1.54.28,2.1.84s.84,1.12.84,1.82v27.72h46.69c1.12,0,1.89.14,2.31.56.35.42.56,1.33.56,2.59v2.8c0,.98-.21,1.68-.56,2.17-.42.49-1.19.77-2.31.77h-22.12ZM283.11,5.41c.35.42.56.91.56,1.68v29.05c0,.7-.21,1.26-.56,1.61-.35.35-.84.49-1.61.49h-39.41c-.77,0-1.26-.14-1.61-.49-.35-.35-.49-.91-.49-1.61V7.09c0-.77.14-1.26.49-1.68.35-.35.84-.49,1.61-.49h39.41c.77,0,1.26.14,1.61.49ZM271.35,11.57h-19.11v2.17h19.11v-2.17ZM271.35,20.32h-19.11v2.17h19.11v-2.17ZM271.35,29h-19.11v2.31h19.11v-2.31ZM275.2,50.92c.49.49.77,1.12.77,1.82v1.82c0,.84.28,1.54.77,2.03.49.49,1.19.77,1.96.77h5.39c.84,0,1.54.28,2.03.77.49.49.7,1.05.7,1.75v3.85c0,.7-.21,1.26-.7,1.75s-1.19.77-2.03.77h-10.22c-3.01-.07-5.18-.84-6.51-2.1-1.33-1.26-1.96-3.15-1.96-5.6v-5.81c0-.7.28-1.33.77-1.82.42-.49,1.05-.7,1.75-.77h5.46c.7.07,1.33.28,1.82.77Z"/><path class="cls-2" d="M51.62,70.61h-3.71c-2.09,0-3.94-.75-5.35-2.16-.07-.07-.14-.14-.21-.22-1.29-1.48-1.95-3.14-1.95-4.92v-7.19h-4.88c-1.67,0-3.19-.48-4.45-1.39-.92.44-1.91.68-2.95.7v7.88c0,.27-.02.54-.07.8-.31,1.69-1,3.07-2.12,4.24-1.35,1.48-3.16,2.26-5.24,2.26h-5.88c-2.09,0-3.94-.75-5.35-2.16-.07-.07-.14-.14-.21-.22-1.13-1.29-1.78-2.81-1.93-4.52-.01-.13-.02-.27-.02-.4v-8.8h-.19c-.14,0-.27,0-.41-.02-1.74-.16-3.19-.77-4.44-1.86-1.43-1.23-2.24-3.06-2.24-5.14v-7.28c0-1.9.7-3.61,2.01-4.93.15-.15.32-.29.49-.42,1.3-.97,2.66-1.51,4.18-1.65.14-.01.27-.02.41-.02h1.26c2.55,0,3.49-.74,4.02-1.38.2-.25.38-.52.55-.82h-5.9c-1.8,0-3.41-.61-4.78-1.81-.08-.07-.15-.14-.22-.21-1.3-1.3-2.01-3.08-2.01-5v-7.14c0-1.82.63-3.49,1.81-4.85.07-.08.14-.15.21-.23,1.29-1.29,2.82-2.03,4.55-2.2.15-.02.3-.02.45-.02h.26v-2.36c0-.15,0-.3.02-.44.16-1.62.83-3.15,1.93-4.41.13-.15.27-.29.43-.43,1.41-1.23,3.18-1.88,5.13-1.88h5.88c2,0,3.77.72,5.14,2.08,1.14,1.15,1.89,2.56,2.21,4.2.06.29.09.58.09.88v2.41c1.17.15,2.25.55,3.18,1.18,1.21-.81,2.65-1.23,4.22-1.23h4.88v-2.36c0-1.74.66-3.37,1.95-4.85.13-.15.27-.29.43-.43,1.41-1.23,3.18-1.88,5.13-1.88h3.71c1.97,0,3.79.74,5.14,2.08.07.07.14.15.21.23,1.04,1.19,1.71,2.53,2,3.97.06.29.09.58.09.88v2.36h4.81c2,0,3.8.75,5.21,2.16.07.07.14.14.2.22.95,1.09,1.6,2.37,1.92,3.81.07.32.11.65.11.98v32.13c0,.27-.02.54-.07.81-.29,1.61-.93,2.95-1.95,4.12-.07.07-.13.15-.2.22-1.41,1.41-3.21,2.16-5.21,2.16h-4.81v7.19c0,.27-.02.54-.07.8-.27,1.51-.95,2.9-2.02,4.12-1.35,1.54-3.25,2.38-5.35,2.38ZM49.39,61.61h.66v-9.99c0-2.49,2.01-4.5,4.5-4.5h7.75v-28.59h-7.75c-2.49,0-4.5-2.01-4.5-4.5v-5.02h-.66v5.02c0,2.49-2.01,4.5-4.5,4.5h-7.89v28.59h7.89c2.49,0,4.5,2.01,4.5,4.5v9.99ZM16.28,61.61h2.83v-12.65c0-1.55.8-2.99,2.11-3.81,1.31-.82,2.95-.91,4.35-.24l.48.23v-2.3c-.12-.07-.25-.14-.4-.22l-1.67-.8c-1.13-.54-1.99-1.54-2.36-2.74-.37-1.2-.21-2.5.42-3.59,2.44-4.16,3.65-9.44,3.58-15.67v-1.29h-2.01c-2.49,0-4.5-2.01-4.5-4.5v-5.02h-2.83v5.02c0,2.49-2.01,4.5-4.5,4.5h-2.78v3.46h9.78c1.27,0,2.49.54,3.34,1.48.85.94,1.27,2.21,1.14,3.47-.44,4.28-1.75,7.83-3.89,10.53-2.49,3.01-5.96,4.57-10.37,4.7v3.28c.28-.05.4-.11.4-.11,1.39-.88,3.12-.93,4.56-.13,1.44.79,2.32,2.31,2.32,3.95v12.44ZM26.95,43.38h0ZM63.87,18.52h0,0ZM57.21,45.96h-2.66c-2.49,0-4.5-2.01-4.5-4.5v-3.5c0-2.49,2.01-4.5,4.5-4.5h2.66c2.49,0,4.5,2.01,4.5,4.5v3.5c0,2.49-2.01,4.5-4.5,4.5ZM44.89,45.96h-2.66c-2.49,0-4.5-2.01-4.5-4.5v-3.5c0-2.49,2.01-4.5,4.5-4.5h2.66c2.49,0,4.5,2.01,4.5,4.5v3.5c0,2.49-2.01,4.5-4.5,4.5ZM57.21,32.31h-2.66c-2.49,0-4.5-2.01-4.5-4.5v-3.5c0-2.49,2.01-4.5,4.5-4.5h2.66c2.49,0,4.5,2.01,4.5,4.5v3.5c0,2.49-2.01,4.5-4.5,4.5ZM44.89,32.31h-2.66c-2.49,0-4.5-2.01-4.5-4.5v-3.5c0-2.49,2.01-4.5,4.5-4.5h2.66c2.49,0,4.5,2.01,4.5,4.5v3.5c0,2.49-2.01,4.5-4.5,4.5Z"/><path class="cls-2" d="M113.12,70.82h-8.19c-1.78,0-3.36-.53-4.56-1.54-.29-.25-.59-.55-.88-.9-2.13,1.49-4.92,2.28-8.31,2.36-.03,0-.07,0-.1,0h-9.45c-1.97,0-3.8-.74-5.14-2.09-1.37-1.37-2.09-3.07-2.09-4.93v-3.85c0-1.86.72-3.57,2.09-4.94,1.04-1.04,2.37-1.72,3.84-1.97-.74-.34-1.48-.83-2.12-1.57-1.47-1.72-1.64-3.77-1.64-5.17v-2.73c0-.08,0-.16,0-.24.08-1.61.35-3.65,1.67-5.23.09-.1.18-.21.28-.3.18-.18.36-.34.54-.48-.03-.14-.05-.28-.08-.43-1.26-.28-2.36-.84-3.33-1.69-1.43-1.23-2.24-3.06-2.24-5.14v-3.99c0-2.08.81-3.91,2.27-5.16.17-.15.35-.3.54-.43-.43-1-.64-2.13-.64-3.44v-2.73c0-.08,0-.16,0-.24.09-1.68.39-3.8,1.88-5.39,1.88-2.09,4.69-2.09,5.63-2.09h14.91c.22-1.38.83-2.68,1.8-3.79,1.33-1.53,3.21-2.38,5.27-2.38h7.7c2.06,0,3.94.84,5.28,2.38.97,1.11,1.58,2.4,1.79,3.78h15.05c.86,0,3.47,0,5.42,1.94,1.75,1.75,1.95,4.13,1.95,5.78v2.73c0,1.3-.21,2.44-.64,3.44.19.14.38.29.57.45,1.43,1.23,2.24,3.06,2.24,5.14v3.99c0,2.08-.81,3.91-2.27,5.17-.95.83-2.04,1.38-3.3,1.66-.02.13-.04.25-.07.38.21.16.41.34.6.53,1.66,1.66,1.88,3.85,1.88,5.78v2.73c0,1.4-.17,3.45-1.64,5.17-.58.67-1.28,1.2-2.11,1.58,1.46.25,2.79.94,3.84,1.98,1.36,1.36,2.08,3.07,2.08,4.93v3.85c0,1.86-.72,3.57-2.09,4.93-1.34,1.34-3.17,2.09-5.14,2.09h-9.45s-.07,0-.1,0c-3.37-.08-6.13-.86-8.26-2.32-.07.1-.15.19-.22.28-.17.21-.37.4-.58.58-.84.7-2.3,1.53-4.49,1.53ZM107.04,61.82h3.74v-12.65c0-2.15,1.5-3.94,3.51-4.39h-10.77c2.01.45,3.51,2.25,3.51,4.39v12.65ZM126.82,61.75h3.48c-1.47-.25-2.81-.93-3.85-1.98-1.13-1.13-1.84-2.63-2.03-4.28h-1.62v3.06c0,1.15.2,2,.55,2.33.14.13.97.8,3.47.87ZM87.55,61.75h3.46c1.94-.05,3.06-.48,3.47-.87.35-.33.55-1.18.55-2.33v-3.06h-1.62c-.19,1.65-.9,3.15-2.04,4.29-1.06,1.06-2.36,1.73-3.82,1.98ZM126.28,55.48h0,0ZM97.01,55.48h0,0ZM118.8,33.74h11.17v-1.24c0-2.49,2.01-4.5,4.5-4.5l.96-.03h-2.64c-6.02,0-11.35-1.43-15.84-4.26-1.7-1.07-2.48-3.13-1.93-5.06.46-1.6,1.76-2.79,3.34-3.14h-2.93c-2.49,0-4.5-2.01-4.5-4.5v-1.66h-4.02v1.66c0,2.49-2.01,4.5-4.5,4.5h-2.93c1.58.35,2.87,1.54,3.34,3.14.56,1.93-.23,3.99-1.93,5.06-4.49,2.83-9.82,4.26-15.84,4.26l-2.64.03h.96c2.49,0,4.5,2.01,4.5,4.5v1.24h11.17c-1.82-.41-3.25-1.93-3.48-3.85-.27-2.26,1.19-4.37,3.4-4.91,2.78-.68,5.35-1.65,7.87-2.97,1.31-.69,2.87-.69,4.18,0,2.52,1.32,5.09,2.29,7.87,2.97,2.21.54,3.67,2.65,3.4,4.91-.23,1.92-1.66,3.44-3.48,3.85Z"/><path class="cls-2" d="M209.92,70.82h-7c-2.81,0-4.5-1.16-5.44-2.18-1.35-1.4-2.07-3.14-2.07-5.05v-7.03c-.31.46-.68.89-1.1,1.28-1.4,1.35-3.18,2.06-5.18,2.06h-7c-2.09,0-3.94-.75-5.35-2.16-.84-.84-1.46-1.87-1.81-3.01-.9,4.03-2.55,7.27-4.98,9.81-3.9,4.08-8.29,6.15-13.05,6.15h-3.85c-.14,0-.27,0-.41-.02-1.52-.14-2.88-.68-4.18-1.65-.17-.13-.33-.27-.48-.42-1.34-1.34-2.01-3.02-2.01-5v-6.65c0-1.98.68-3.66,2.01-5,.15-.15.31-.29.48-.42,1.33-1,2.73-1.52,4.25-1.59.07-.07.18-.2.34-.42.13-.18.76-1.16.76-4.61V7.37c0-1.81.65-3.52,1.88-4.93,1.36-1.55,3.13-2.37,5.13-2.37h7.77c2.06,0,3.94.84,5.28,2.38.55.63.99,1.32,1.3,2.06.33-.79.79-1.53,1.37-2.2.13-.15.27-.29.43-.43,1.41-1.23,3.18-1.88,5.13-1.88h7c1.9,0,3.65.65,5.06,1.88.08.07.15.13.22.21.69.69,1.22,1.46,1.58,2.28.36-.83.89-1.6,1.58-2.28,1.35-1.35,3.25-2.09,5.35-2.09h7c1.9,0,3.65.65,5.06,1.88.08.07.15.14.23.21,1.41,1.41,2.16,3.17,2.16,5.07v56.43c0,1.95-.75,3.73-2.16,5.14-.95.95-2.64,2.09-5.28,2.09ZM204.41,61.81h3.95s0-52.81,0-52.81h-3.95v52.81ZM154.98,61.68h1.94c1.43,0,3.66-.35,6.55-3.37,2.19-2.29,3.3-6.26,3.3-11.8V9.07h-3.95v35.82c0,4.38-.76,7.48-2.38,9.76-1.69,2.48-3.71,3.57-5.46,4.01v3.02ZM183.62,50.9h3.95V9h-3.95v41.9ZM168.62,9.07h0,0Z"/><path class="cls-2" d="M284.09,70.75h-10.22s-.07,0-.1,0c-3.51-.08-6.37-.92-8.52-2.51-.14.17-.29.34-.44.5-.09.1-.19.19-.3.27-1.24,1.04-2.84,1.61-4.49,1.61h-7.7c-1.62,0-3.22-.54-4.43-1.5-.37-.28-.71-.6-1-.94-2.17,1.63-5.06,2.5-8.61,2.58-.03,0-.07,0-.1,0h-10.22c-2.01,0-3.87-.74-5.21-2.09-1.32-1.32-2.02-3.03-2.02-4.93v-3.85c0-1.91.7-3.61,2.02-4.93,1.03-1.03,2.34-1.7,3.8-1.96-1.43-.33-2.71-1.06-3.69-2.13-1.35-1.4-2.06-3.14-2.06-5.04V12.06c0-1.85.69-3.5,2.06-4.91.97-1.06,2.68-2.25,5.45-2.25h6.37c.37,0,.73.02,1.08.07.25-.91.67-1.72,1.27-2.44.09-.1.18-.2.27-.3,1.2-1.2,2.81-1.81,4.8-1.81h39.41c1.98,0,3.6.61,4.8,1.81.09.1.19.19.27.3,1.06,1.28,1.6,2.81,1.6,4.56v28.93c.56.27,1.12.64,1.62,1.14.1.1.19.2.28.3,1.08,1.29,1.6,3.08,1.6,5.47v2.8c0,1.87-.47,3.48-1.4,4.78-.08.11-.16.21-.25.31-.75.87-2.04,1.88-4.17,2.22,1.31.3,2.5.95,3.44,1.89,1.32,1.32,2.02,3.02,2.02,4.93v3.85c0,1.91-.7,3.61-2.02,4.93-1.35,1.35-3.2,2.09-5.21,2.09ZM273.93,61.75h3.48c-1.47-.25-2.8-.93-3.85-1.98-1.33-1.32-2.07-3.14-2.09-5.12h-1.57v3.9c0,1.15.2,2,.56,2.33.41.39,1.53.81,3.47.87ZM234.66,61.75h3.46c2.5-.07,3.33-.73,3.47-.87.35-.33.55-1.18.55-2.33v-3.9h-1.57c-.02,1.98-.76,3.8-2.09,5.13-1.05,1.06-2.36,1.73-3.82,1.98ZM254.43,61.61h3.25v-12.93c0-2.15,1.5-3.94,3.51-4.39h-10.28c2.01.45,3.51,2.25,3.51,4.39v12.93ZM229.79,44.17h6.83c-2.01-.45-3.51-2.25-3.51-4.39V13.9h-3.32v30.27ZM275.14,33.74h4.03V9.42h-3.87c.35.64.55,1.37.55,2.15v2.17c0,1.3-.55,2.47-1.43,3.29.88.82,1.43,1.99,1.43,3.29v2.17c0,1.28-.54,2.44-1.39,3.26.86.82,1.39,1.98,1.39,3.26v2.31c0,.9-.26,1.73-.71,2.43ZM244.49,33.74h3.96c-.45-.7-.71-1.53-.71-2.43v-2.31c0-1.28.54-2.44,1.39-3.26-.86-.82-1.39-1.98-1.39-3.26v-2.17c0-1.3.55-2.47,1.43-3.29-.88-.82-1.43-1.99-1.43-3.29v-2.17c0-.78.2-1.51.55-2.15h-3.8v24.32ZM281.55,9.42h0,0Z"/><path class="cls-3" d="M51.62,69.11h-3.71c-1.68,0-3.17-.59-4.29-1.72-.05-.05-.09-.1-.14-.15-1.05-1.2-1.58-2.52-1.58-3.94v-8.69h-6.38c-1.68,0-3.17-.6-4.29-1.72,0,0,0,0,0,0-1.12.79-2.42,1.14-3.81,1.01-.27-.02-.54-.09-.79-.18v9.58c0,.18-.02.36-.05.54-.25,1.39-.82,2.53-1.74,3.48-1.06,1.17-2.49,1.79-4.15,1.79h-5.88c-1.68,0-3.17-.59-4.29-1.72-.05-.05-.09-.1-.14-.15-.92-1.05-1.45-2.28-1.57-3.67,0-.09-.01-.18-.01-.27v-10.3s-.05,0-.08,0h-1.61c-.09,0-.18,0-.27-.01-1.43-.13-2.57-.61-3.59-1.5-1.1-.95-1.72-2.38-1.72-4.01v-7.28c0-1.52.53-2.82,1.58-3.87.1-.1.21-.2.32-.28.68-.51,1.78-1.21,3.42-1.36.09,0,.18-.01.27-.01h1.26c3.22,0,4.5-1.1,5.18-1.92.69-.87,1.23-1.97,1.63-3.28H7.02c-1.42,0-2.7-.49-3.79-1.44-.05-.04-.1-.09-.15-.14-1.03-1.03-1.58-2.4-1.58-3.94v-7.14c0-1.45.5-2.78,1.44-3.86.04-.05.09-.1.14-.15,1.05-1.05,2.24-1.63,3.64-1.77.1-.01.2-.02.3-.02h1.76v-3.86c0-.1,0-.2.01-.3.13-1.33.66-2.53,1.57-3.57.09-.1.18-.2.28-.28,1.15-1,2.54-1.51,4.14-1.51h5.88c1.59,0,3,.57,4.08,1.65.94.94,1.53,2.06,1.8,3.43.04.19.06.39.06.59v3.86h.85c.1,0,.2,0,.3.02,1.38.14,2.58.7,3.52,1.64,1.12-1.09,2.58-1.66,4.23-1.66h6.38v-3.86c0-1.37.53-2.67,1.58-3.87.09-.1.18-.2.28-.28,1.15-1,2.54-1.51,4.14-1.51h3.71c1.57,0,3.02.58,4.08,1.65.05.05.1.1.14.15.87.99,1.43,2.1,1.66,3.28.04.19.06.39.06.59v3.86h6.31c1.61,0,3.01.58,4.15,1.72.05.05.09.09.14.14.78.9,1.32,1.95,1.58,3.14.05.21.07.43.07.65v32.13c0,.18-.02.36-.05.54-.24,1.33-.77,2.44-1.6,3.4-.04.05-.09.1-.14.14-1.14,1.14-2.54,1.72-4.15,1.72h-6.31v8.69c0,.18-.02.36-.05.54-.23,1.24-.79,2.39-1.67,3.4-1.06,1.21-2.55,1.87-4.22,1.87ZM47.89,63.11h3.57c.04-.06.07-.12.09-.17v-11.32c0-1.66,1.34-3,3-3h9.2s.03-.08.05-.13v-31.38s-.03-.06-.04-.08h-9.21c-1.66,0-3-1.35-3-3v-6.44s-.03-.06-.05-.08h-3.6s0,0,0,0v6.52c0,1.66-1.34,3-3,3h-9.39v31.59h9.39c1.66,0,3,1.34,3,3v11.49ZM14.78,63.11h5.77s.04-.06.06-.13v-14.02c0-1.03.53-1.99,1.41-2.54s1.97-.61,2.9-.16l2.63,1.27v-5.22c0-.14,0-.25,0-.34-.24-.15-.62-.38-1.22-.69l-1.7-.81c-.76-.36-1.33-1.03-1.57-1.83-.25-.8-.14-1.67.28-2.39,2.58-4.4,3.85-9.94,3.79-16.45v-2.74s0-.02-.01-.03h-3.5c-1.66,0-3-1.34-3-3v-6.48s-.01-.03-.02-.04h-5.8s0,0,0,0v6.52c0,1.66-1.34,3-3,3h-4.28v6.46s11.28,0,11.28,0c.85,0,1.66.36,2.23.99.57.63.84,1.47.76,2.31-.41,3.99-1.61,7.27-3.57,9.75-2.29,2.77-5.59,4.15-9.84,4.15h-.85v6.32h1.11c1.01-.07,1.45-.3,1.56-.37.93-.59,2.09-.62,3.05-.1.96.53,1.55,1.53,1.55,2.63v13.94ZM7.15,46.96s.01.02.03.02c0,0-.02-.02-.03-.02ZM57.21,44.46h-2.66c-1.66,0-3-1.34-3-3v-3.5c0-1.66,1.34-3,3-3h2.66c1.66,0,3,1.34,3,3v3.5c0,1.66-1.34,3-3,3ZM44.89,44.46h-2.66c-1.66,0-3-1.34-3-3v-3.5c0-1.66,1.34-3,3-3h2.66c1.66,0,3,1.34,3,3v3.5c0,1.66-1.34,3-3,3ZM57.21,30.81h-2.66c-1.66,0-3-1.34-3-3v-3.5c0-1.66,1.34-3,3-3h2.66c1.66,0,3,1.34,3,3v3.5c0,1.66-1.34,3-3,3ZM44.89,30.81h-2.66c-1.66,0-3-1.34-3-3v-3.5c0-1.66,1.34-3,3-3h2.66c1.66,0,3,1.34,3,3v3.5c0,1.66-1.34,3-3,3Z"/><path class="cls-3" d="M113.12,69.32h-8.19c-1.43,0-2.67-.41-3.6-1.19-.68-.58-1.16-1.26-1.45-2.03-.08.08-.15.15-.23.23-1.96,1.85-4.82,2.84-8.5,2.92h-9.52c-1.57,0-3.02-.58-4.08-1.65-1.36-1.36-1.65-2.86-1.65-3.87v-3.85c0-1.02.29-2.51,1.65-3.87,1.06-1.06,2.51-1.65,4.08-1.65h4.35v-.78c0-.49.06-.96.18-1.41h-2.07c-.8,0-3.23,0-4.73-1.75-1.14-1.33-1.28-2.94-1.28-4.19v-2.73c0-.05,0-.11,0-.16.11-2.04.52-3.39,1.32-4.35.06-.07.12-.14.18-.2.35-.35.76-.64,1.23-.87-.26-.71-.41-1.52-.42-2.41-.05,0-.1,0-.15,0-1.43-.13-2.57-.61-3.59-1.5-1.1-.95-1.72-2.38-1.72-4.01v-3.99c0-1.63.62-3.06,1.75-4.03.5-.43,1.03-.77,1.61-1.01-.8-1.03-1.19-2.34-1.19-3.99v-2.73c0-.05,0-.11,0-.16.08-1.52.32-3.23,1.49-4.46,1.43-1.6,3.75-1.6,4.52-1.6h16.32v-.36c0-1.47.51-2.79,1.51-3.94,1.05-1.2,2.52-1.86,4.15-1.86h7.7c1.65,0,3.08.65,4.15,1.87,1,1.14,1.51,2.47,1.51,3.94v.36h16.46c.71,0,2.85,0,4.36,1.51,1.35,1.35,1.51,3.34,1.51,4.71v2.73c0,1.65-.39,2.96-1.19,3.99.59.25,1.13.59,1.63,1.03,1.1.95,1.73,2.38,1.73,4.01v3.99c0,1.63-.62,3.06-1.75,4.03-1,.87-2.14,1.35-3.57,1.48-.05,0-.1,0-.14,0-.02.88-.16,1.68-.41,2.38.49.23.92.53,1.29.9,1.27,1.27,1.44,3.02,1.44,4.71v2.73c0,1.26-.15,2.87-1.28,4.19-1.5,1.75-3.83,1.75-4.59,1.75h-2.21c.12.45.17.92.17,1.41v.78h4.35c1.57,0,3.02.59,4.08,1.65,1.36,1.36,1.65,2.85,1.65,3.87v3.85c0,1.01-.29,2.51-1.65,3.87-1.06,1.06-2.51,1.65-4.08,1.65h-9.45c-3.76-.09-6.62-1.07-8.57-2.92-.08-.07-.15-.14-.22-.22-.21.59-.52,1.14-.94,1.64-.12.14-.25.27-.39.39-.94.79-2.13,1.19-3.53,1.19ZM105.54,63.32h6.74v-14.15c0-1.66,1.34-3,3-3h18.49v-2.67c0-.08,0-.15,0-.22h-49.7c0,.09-.02.19-.02.3v2.59h18.49c1.66,0,3,1.34,3,3v14.15ZM121.3,53.98v4.56c0,1.63.34,2.78,1.02,3.42.82.78,2.42,1.23,4.52,1.28h9.11v-2.89h-4.35c-1.57,0-3.02-.59-4.08-1.65-1.06-1.06-1.65-2.53-1.65-4.15v-.57h-4.57ZM81.88,63.25h9.18c2.02-.05,3.63-.5,4.45-1.28.68-.64,1.02-1.79,1.02-3.42v-4.56h-4.57v.57c0,1.62-.59,3.09-1.65,4.15-1.08,1.08-2.49,1.65-4.08,1.65h-4.35v2.89ZM97.01,53.98h0,0ZM131.4,35.8s0,0,0,0c0,0,0,0,0,0ZM86.43,35.8s0,0,0,0c0,0,0,0,0,0ZM86.36,35.24h45.1v-2.74c0-1.66,1.34-3,3-3h2.46v-3.03s-4.14,0-4.14,0c-5.73,0-10.79-1.36-15.04-4.03-1.13-.71-1.65-2.09-1.28-3.37.37-1.28,1.55-2.17,2.88-2.17h15.41v-2.67c0-.08,0-.15,0-.22h-19.33c-1.66,0-3-1.34-3-3v-3.16h-6.99l-.03,3.16c0,1.66-1.34,3-3,3h-19.31c0,.09-.02.19-.02.3v2.59h15.41c1.34,0,2.51.88,2.88,2.17.37,1.28-.15,2.66-1.28,3.37-4.25,2.68-9.31,4.03-15.04,4.03h-4.14v3.03s2.46,0,2.46,0c1.66,0,3,1.34,3,3v2.74ZM80.56,29.46s.01.02.03.02c0,0-.02-.02-.03-.02ZM137.25,26.5s.02.02.03.02c0,0-.02-.02-.03-.02ZM117.81,32.35h-17.78c-1.52,0-2.8-1.13-2.98-2.64-.18-1.51.79-2.91,2.27-3.27,2.9-.71,5.58-1.72,8.21-3.1.87-.46,1.92-.46,2.79,0,2.63,1.38,5.32,2.39,8.21,3.1,1.47.36,2.45,1.77,2.27,3.27-.18,1.51-1.46,2.64-2.98,2.64Z"/><path class="cls-3" d="M209.92,69.32h-7c-2.28,0-3.62-.91-4.35-1.71-1.08-1.11-1.66-2.5-1.66-4.02V7.16c0-1.5.59-2.89,1.72-4.01,1.07-1.06,2.59-1.65,4.29-1.65h7c1.53,0,2.94.52,4.07,1.51.05.05.1.09.15.14,1.12,1.12,1.72,2.51,1.72,4.01v56.43c0,1.55-.59,2.96-1.72,4.08-1.09,1.09-2.51,1.65-4.22,1.65ZM202.91,63.32h6.95V7.5h-6.95v55.82ZM156.93,69.18h-3.85c-.09,0-.18,0-.27-.01-1.64-.15-2.74-.85-3.42-1.36-.11-.09-.22-.18-.32-.28-1.05-1.05-1.58-2.37-1.58-3.94v-6.65c0-1.57.53-2.89,1.58-3.94.1-.1.21-.19.32-.28.73-.55,1.89-1.27,3.6-1.3.24-.02.66-.1,1.32-1.07.4-.57,1.02-1.95,1.02-5.45V7.37c0-1.47.51-2.79,1.51-3.94,1.07-1.22,2.45-1.86,4.01-1.86h7.77c1.65,0,3.08.65,4.15,1.86,1,1.15,1.51,2.47,1.51,3.94v39.13c0,7.64-1.76,13.2-5.38,16.99-3.61,3.77-7.64,5.69-11.97,5.69ZM153.48,63.18h3.44c2.71,0,5.13-1.22,7.63-3.83,2.47-2.58,3.72-6.9,3.72-12.84V7.57h-6.98l.03,37.32c0,4.06-.67,6.88-2.1,8.88-1.49,2.19-3.43,3.42-5.74,3.61v5.78ZM168.62,7.57h0,0ZM189.13,58.4h-7c-1.68,0-3.17-.6-4.29-1.72-.98-.98-1.57-2.27-1.71-3.74,0-.09-.01-.18-.01-.27V7.16c0-.1,0-.2.01-.3.13-1.33.66-2.53,1.57-3.57.09-.1.18-.2.28-.28,1.15-1,2.54-1.51,4.14-1.51h7c1.54,0,2.94.52,4.07,1.51.05.04.1.09.15.14,1.12,1.12,1.72,2.51,1.72,4.01v45.5c0,1.61-.62,3.02-1.79,4.08-1.11,1.08-2.55,1.65-4.15,1.65ZM182.12,52.4h6.95V7.5h-6.95v44.9Z"/><path class="cls-3" d="M284.09,69.25h-10.22c-3.76-.09-6.62-1.07-8.57-2.92-.15-.15-.3-.29-.44-.45-.24.69-.62,1.3-1.12,1.79-.06.06-.13.12-.2.18-.97.81-2.23,1.26-3.53,1.26h-7.7c-1.29,0-2.57-.43-3.52-1.19-.72-.54-1.25-1.26-1.55-2.11-.16.18-.33.35-.5.52-1.96,1.85-4.82,2.84-8.51,2.92h-10.29c-1.61,0-3.09-.58-4.15-1.65-1.05-1.05-1.58-2.35-1.58-3.87v-3.85c0-1.52.53-2.82,1.58-3.87,1.06-1.06,2.54-1.65,4.15-1.65h5.12v-1.62c0-.36.04-.71.11-1.06h-4.87c-1.75,0-3.26-.64-4.36-1.86-1.08-1.11-1.65-2.5-1.65-4.01V12.06c0-1.45.56-2.75,1.65-3.88.76-.83,2.12-1.78,4.36-1.78h6.37c.83,0,1.61.15,2.32.45.02-.92.21-2.19,1.18-3.36.06-.07.12-.14.18-.2,1.37-1.37,3.15-1.37,3.73-1.37h39.41c.58,0,2.37,0,3.73,1.37.06.06.12.13.18.2.84,1.01,1.25,2.19,1.25,3.6v29.05c0,.3-.02.6-.06.89.76.2,1.5.56,2.12,1.19.06.06.13.13.18.2.84,1.01,1.25,2.49,1.25,4.51v2.8c0,1.56-.38,2.87-1.12,3.91-.05.07-.11.14-.16.21-.71.83-2.08,1.82-4.59,1.82h-5.43c.07.35.1.7.1,1.06v1.62h5.12c1.61,0,3.09.59,4.15,1.65,1.05,1.04,1.58,2.35,1.58,3.87v3.85c0,1.52-.53,2.82-1.58,3.87-1.06,1.06-2.54,1.65-4.15,1.65ZM268.4,53.14v5.4c0,1.63.34,2.78,1.02,3.42.82.78,2.42,1.23,4.52,1.28h9.88v-2.89h-5.12c-1.57,0-3.02-.59-4.08-1.66-1.06-1.06-1.65-2.54-1.65-4.15v-1.41h-4.57ZM228.22,63.24h9.95c2.02-.04,3.63-.5,4.45-1.27.68-.64,1.02-1.79,1.02-3.42v-5.4h-4.57v1.41c0,1.62-.59,3.09-1.65,4.15-1.07,1.08-2.49,1.65-4.08,1.65h-5.12v2.88ZM252.93,63.11h6.25v-14.43c0-1.66,1.34-3,3-3h21.99v-2.74c0-.05,0-.1,0-.15h-46.56c-1.66,0-3-1.34-3-3V12.4h-6.31s0,0,0,0v33.27h21.64c1.66,0,3,1.34,3,3v14.43ZM242.99,35.24h37.68V7.92s-37.68,0-37.68,0v27.32ZM281.69,7.93h0,0ZM271.35,34.31h-19.11c-1.66,0-3-1.34-3-3v-2.31c0-1.66,1.34-3,3-3h19.11c1.66,0,3,1.34,3,3v2.31c0,1.66-1.34,3-3,3ZM271.35,25.49h-19.11c-1.66,0-3-1.34-3-3v-2.17c0-1.66,1.34-3,3-3h19.11c1.66,0,3,1.34,3,3v2.17c0,1.66-1.34,3-3,3ZM271.35,16.74h-19.11c-1.66,0-3-1.34-3-3v-2.17c0-1.66,1.34-3,3-3h19.11c1.66,0,3,1.34,3,3v2.17c0,1.66-1.34,3-3,3Z"/><path class="cls-2" d="M11.78,14.02v-6.86c.07-.7.35-1.33.84-1.89.56-.49,1.26-.77,2.17-.77h5.88c.84,0,1.47.28,1.96.77.56.56.84,1.19.98,1.89v6.86h3.85c.7.07,1.33.35,1.82.91.49.56.77,1.19.84,1.89v2.94c.07,7.07-1.33,13.09-4.2,17.99l1.75.84c1.19.63,1.96,1.12,2.31,1.47.42.42.56,1.12.56,2.24v5.88c0,.77-.21,1.47-.77,2.03-.63.56-1.33.77-2.1.7l-4.06-1.96v14.35c-.14.77-.42,1.4-.98,1.96-.49.56-1.12.84-1.96.84h-5.88c-.91,0-1.61-.28-2.17-.84-.49-.56-.77-1.19-.84-1.96v-14.14c-.77.49-1.82.77-3.08.84h-1.61c-.77-.07-1.33-.28-1.89-.77-.49-.42-.7-1.05-.7-1.75v-7.28c0-.7.21-1.26.7-1.75.56-.42,1.12-.7,1.89-.77h1.26c3.36,0,5.81-.98,7.49-3.01,1.61-2.03,2.59-4.76,2.94-8.19H7.02c-.7,0-1.26-.21-1.82-.7-.49-.49-.7-1.12-.7-1.82v-7.14c0-.7.21-1.33.7-1.89.56-.56,1.12-.84,1.82-.91h4.76ZM65.9,14.86c.49.56.77,1.19.91,1.82v32.13c-.14.77-.42,1.4-.91,1.96-.56.56-1.19.84-2.03.84h-9.31v11.69c-.14.77-.49,1.4-.98,1.96-.49.56-1.19.84-1.96.84h-3.71c-.91,0-1.61-.28-2.17-.84-.49-.56-.84-1.19-.84-1.96v-11.69h-9.38c-.91,0-1.61-.28-2.17-.84-.49-.56-.77-1.19-.84-1.96V16.68c.07-.63.35-1.26.84-1.82.56-.56,1.26-.84,2.17-.84h9.38v-6.86c0-.7.35-1.33.84-1.89.56-.49,1.26-.77,2.17-.77h3.71c.77,0,1.47.28,1.96.77.49.56.84,1.19.98,1.89v6.86h9.31c.84,0,1.47.28,2.03.84ZM44.89,27.81v-3.5h-2.66v3.5h2.66ZM44.89,41.46v-3.5h-2.66v3.5h2.66ZM57.21,24.31h-2.66v3.5h2.66v-3.5ZM57.21,37.96h-2.66v3.5h2.66v-3.5Z"/><path class="cls-2" d="M86.37,38.24c-1.19,0-2.03-.21-2.38-.7-.42-.49-.63-1.26-.63-2.24v-2.8h-2.87c-.77-.07-1.33-.28-1.89-.77-.49-.42-.7-1.05-.7-1.75v-3.99c0-.7.21-1.33.7-1.75.56-.49,1.12-.7,1.89-.77h4.55c5.18,0,9.66-1.19,13.44-3.57h-15.4c-1.19,0-1.96-.21-2.38-.7-.42-.49-.63-1.19-.63-2.24v-2.73c.07-1.33.28-2.17.7-2.59.35-.42,1.12-.63,2.31-.63h19.32v-3.36c0-.77.28-1.4.77-1.96.49-.56,1.12-.84,1.89-.84h7.7c.77,0,1.4.28,1.89.84.49.56.77,1.19.77,1.96v3.36h19.46c1.12,0,1.82.21,2.24.63.42.42.63,1.26.63,2.59v2.73c0,1.05-.21,1.75-.63,2.24-.42.49-1.12.7-2.24.7h-15.54c3.78,2.38,8.26,3.57,13.44,3.57h4.55c.77.07,1.33.28,1.89.77.49.42.7,1.05.7,1.75v3.99c0,.7-.21,1.33-.7,1.75-.56.49-1.12.7-1.89.77h-2.87v2.8c0,.98-.21,1.75-.63,2.24-.35.49-1.12.7-2.24.7h-45.22ZM97.01,50.98c.7,0,1.33.28,1.75.77.49.49.77,1.05.77,1.82v4.97c0,2.45-.63,4.34-1.96,5.6-1.33,1.26-3.5,2.03-6.51,2.1h-9.45c-.77,0-1.47-.28-1.96-.77s-.77-1.05-.77-1.75v-3.85c0-.7.28-1.26.77-1.75.49-.49,1.19-.77,1.96-.77h4.62c.84,0,1.47-.28,1.96-.77.49-.49.77-1.19.77-2.03v-.98c0-.77.28-1.33.77-1.82.49-.49,1.12-.77,1.82-.77h5.46ZM115.29,49.17v15.05c0,.7-.21,1.19-.56,1.61-.42.35-.98.49-1.61.49h-8.19c-.63,0-1.26-.14-1.68-.49-.49-.42-.7-.91-.7-1.61v-15.05h-18.48c-1.19,0-2.03-.21-2.45-.7s-.56-1.19-.56-2.24v-2.73c.07-1.33.28-2.17.63-2.59.42-.42,1.19-.63,2.38-.63h49.85c1.12,0,1.89.21,2.31.63.42.42.56,1.26.56,2.59v2.73c0,1.05-.14,1.75-.56,2.24-.42.49-1.19.7-2.31.7h-18.62ZM100.02,29.35h17.78c-3.15-.77-6.09-1.89-8.89-3.36-2.8,1.47-5.74,2.59-8.89,3.36ZM128.1,51.75c.49.49.77,1.05.77,1.82v.98c0,.84.28,1.54.77,2.03.49.49,1.19.77,1.96.77h4.62c.77,0,1.47.28,1.96.77.49.49.77,1.05.77,1.75v3.85c0,.7-.28,1.26-.77,1.75-.49.49-1.19.77-1.96.77h-9.45c-3.01-.07-5.18-.84-6.51-2.1-1.33-1.26-1.96-3.15-1.96-5.6v-4.97c0-.77.28-1.33.77-1.82.42-.49,1.05-.77,1.75-.77h5.46c.7,0,1.33.28,1.82.77Z"/><path class="cls-2" d="M168.62,4.57c.77,0,1.4.28,1.89.84.49.56.77,1.19.77,1.96v39.13c0,6.72-1.47,11.69-4.55,14.91s-6.3,4.76-9.8,4.76h-3.85c-.77-.07-1.33-.35-1.89-.77-.49-.49-.7-1.05-.7-1.82v-6.65c0-.77.21-1.33.7-1.82.56-.42,1.12-.7,1.89-.7,1.47-.07,2.66-.84,3.71-2.38,1.05-1.47,1.54-3.85,1.54-7.14V7.37c0-.77.28-1.4.77-1.96.49-.56,1.05-.84,1.75-.84h7.77ZM191.23,54.55c-.56.56-1.26.84-2.1.84h-7c-.91,0-1.61-.28-2.17-.84-.49-.49-.77-1.12-.84-1.89V7.16c.07-.7.35-1.33.84-1.89.56-.49,1.26-.77,2.17-.77h7c.84,0,1.54.28,2.1.77.56.56.84,1.19.84,1.89v45.5c0,.77-.28,1.4-.84,1.89ZM212.02,65.55c-.56.56-1.26.77-2.1.77h-7c-.91,0-1.68-.21-2.17-.77-.56-.56-.84-1.19-.84-1.96V7.16c0-.7.28-1.33.84-1.89.49-.49,1.26-.77,2.17-.77h7c.84,0,1.54.28,2.1.77.56.56.84,1.19.84,1.89v56.43c0,.77-.28,1.4-.84,1.96Z"/><path class="cls-2" d="M244.12,50.14c.7.07,1.33.28,1.75.77.49.49.77,1.12.77,1.82v5.81c0,2.45-.63,4.34-1.96,5.6-1.33,1.26-3.5,2.03-6.51,2.1h-10.22c-.84,0-1.54-.28-2.03-.77-.49-.49-.7-1.05-.7-1.75v-3.85c0-.7.21-1.26.7-1.75s1.19-.77,2.03-.77h5.39c.84,0,1.47-.28,1.96-.77.49-.49.77-1.19.77-2.03v-1.82c0-.7.28-1.33.77-1.82s1.12-.7,1.82-.77h5.46ZM262.18,48.67v15.26c0,.7-.21,1.26-.56,1.61-.42.35-.98.56-1.61.56h-7.7c-.63,0-1.26-.21-1.68-.56-.49-.35-.7-.91-.7-1.61v-15.26h-21.63c-.98,0-1.68-.35-2.17-.91-.56-.56-.84-1.19-.84-1.96V12.06c0-.7.28-1.26.84-1.82.49-.56,1.19-.84,2.17-.84h6.37c.84,0,1.54.28,2.1.84s.84,1.12.84,1.82v27.72h46.69c1.12,0,1.89.14,2.31.56.35.42.56,1.33.56,2.59v2.8c0,.98-.21,1.68-.56,2.17-.42.49-1.19.77-2.31.77h-22.12ZM283.11,5.41c.35.42.56.91.56,1.68v29.05c0,.7-.21,1.26-.56,1.61-.35.35-.84.49-1.61.49h-39.41c-.77,0-1.26-.14-1.61-.49-.35-.35-.49-.91-.49-1.61V7.09c0-.77.14-1.26.49-1.68.35-.35.84-.49,1.61-.49h39.41c.77,0,1.26.14,1.61.49ZM271.35,11.57h-19.11v2.17h19.11v-2.17ZM271.35,20.32h-19.11v2.17h19.11v-2.17ZM271.35,29h-19.11v2.31h19.11v-2.31ZM275.2,50.92c.49.49.77,1.12.77,1.82v1.82c0,.84.28,1.54.77,2.03.49.49,1.19.77,1.96.77h5.39c.84,0,1.54.28,2.03.77.49.49.7,1.05.7,1.75v3.85c0,.7-.21,1.26-.7,1.75s-1.19.77-2.03.77h-10.22c-3.01-.07-5.18-.84-6.51-2.1-1.33-1.26-1.96-3.15-1.96-5.6v-5.81c0-.7.28-1.33.77-1.82.42-.49,1.05-.7,1.75-.77h5.46c.7.07,1.33.28,1.82.77Z"/></g></svg>