<?xml version="1.0" encoding="UTF-8"?><svg id="_レイヤー_2" xmlns="http://www.w3.org/2000/svg" viewBox="0 0 220 70.82"><defs><style>.cls-1,.cls-2,.cls-3{stroke-width:0px;}.cls-2{fill:#198caa;}.cls-3{fill:#fff;}</style></defs><g id="_レイヤー_4"><path class="cls-1" d="M31.94,37.4c-.35.42-.84.56-1.47.56h-2.8l1.61,1.4c1.54,1.05,2.31,2.31,2.31,3.78v6.3c-.07.98-.35,1.54-.91,1.68-.56.14-1.26-.35-2.17-1.33l-3.01-2.8v16.66c.07.84-.07,1.47-.35,1.89-.35.42-1.05.63-2.17.77h-6.02c-.77,0-1.33-.21-1.75-.7-.49-.49-.7-1.05-.7-1.75v-14.98c-2.87,3.92-5.04,5.74-6.51,5.53-1.19.14-2.1,0-2.59-.56-.56-.56-.77-1.26-.77-2.1v-5.88c-.14-.98.07-1.89.49-2.73.35-.77,1.26-1.68,2.59-2.73l2.73-2.45h-3.43c-.7,0-1.26-.21-1.75-.7-.49-.42-.77-.98-.77-1.68v-8.33c0-.77.28-1.33.77-1.82s1.05-.7,1.75-.7h7.49v-2.45h-5.6c-.7,0-1.26-.28-1.75-.77-.49-.49-.77-1.05-.77-1.82v-7.28c0-.7.28-1.33.77-1.82.49-.56,1.05-.77,1.75-.77h8.54c.77,0,1.4-.28,1.89-.77s.7-1.19.7-2.03c0-.7.21-1.26.63-1.75.35-.49.91-.77,1.68-.77h5.11c.7,0,1.26.28,1.75.77.49.49.7,1.05.7,1.75v10.99c.07,1.54-.21,2.66-.77,3.29-.49.63-1.47.98-2.87.98h-.77v2.45h4.97c.63,0,1.12.14,1.47.49s.49.91.49,1.61v9.1c0,.63-.14,1.12-.49,1.47ZM42.86,38.94c-.56.56-1.26.84-2.1.84h-3.36c-.98,0-1.68-.28-2.17-.84-.56-.56-.84-1.19-.84-1.96V14.16c0-.63.28-1.26.84-1.82.49-.56,1.19-.84,2.17-.84h3.36c.84,0,1.54.28,2.1.84.56.56.84,1.19.84,1.82v22.82c0,.77-.28,1.4-.84,1.96ZM53.72,4.78c.56,0,1.05.28,1.47.84.35.56.56,1.19.56,1.96v25.2c0,4.76.56,8.47,1.61,11.13,1.05,2.73,2.8,4.9,5.32,6.72,2.52,1.75,3.92,2.87,4.27,3.29.35.42.49.98.49,1.68v7.91c0,.77-.21,1.33-.63,1.82-.42.42-.91.7-1.47.77-2.03,0-4.69-1.61-8.05-4.76-3.36-3.22-5.53-5.39-6.37-6.58-.91,1.19-3.01,3.36-6.37,6.58-3.36,3.15-6.09,4.76-8.05,4.76-.56-.07-1.05-.35-1.47-.77-.42-.49-.56-1.05-.56-1.82v-7.91c0-.7.14-1.26.42-1.68.35-.42,1.75-1.54,4.27-3.29,2.52-1.82,4.27-3.99,5.32-6.72,1.05-2.66,1.54-6.37,1.54-11.13V7.58c0-.77.14-1.4.56-1.96.42-.56.91-.84,1.4-.84h5.74ZM57.99,14.16c0-.63.28-1.26.91-1.82.56-.56,1.26-.84,2.03-.84h3.43c.91,0,1.68.28,2.17.84.49.56.84,1.19.84,1.82v22.82c0,.77-.35,1.4-.84,1.96-.49.56-1.26.84-2.17.84h-3.43c-.77,0-1.47-.28-2.03-.84-.63-.56-.91-1.19-.91-1.96V14.16Z"/><path class="cls-1" d="M139.47,6.18c.98.98,1.47,2.31,1.47,3.92v50.68c0,1.68-.49,3.01-1.47,3.99s-2.38,1.47-4.2,1.47h-49.92c-1.82,0-3.22-.49-4.27-1.47-.98-.98-1.47-2.31-1.47-3.99V10.1c0-1.61.49-2.94,1.47-3.92,1.05-.98,2.45-1.47,4.27-1.47h49.92c1.82,0,3.22.49,4.2,1.47ZM102.92,19.55h-8.47v8.47h8.47v-8.47ZM102.92,43.07h-8.47v8.47h8.47v-8.47ZM126.17,19.55h-8.47v8.47h8.47v-8.47ZM126.17,43.07h-8.47v8.47h8.47v-8.47Z"/><path class="cls-1" d="M172.45,50.07c.7.07,1.33.28,1.75.77.49.49.77,1.12.77,1.82v5.81c0,2.45-.63,4.34-1.96,5.6-1.33,1.26-3.5,2.03-6.51,2.1h-10.22c-.84,0-1.54-.28-2.03-.77-.49-.49-.7-1.05-.7-1.75v-3.85c0-.7.21-1.26.7-1.75s1.19-.77,2.03-.77h5.39c.84,0,1.47-.28,1.96-.77.49-.49.77-1.19.77-2.03v-1.82c0-.7.28-1.33.77-1.82s1.12-.7,1.82-.77h5.46ZM190.51,48.6v15.26c0,.7-.21,1.26-.56,1.61-.42.35-.98.56-1.61.56h-7.7c-.63,0-1.26-.21-1.68-.56-.49-.35-.7-.91-.7-1.61v-15.26h-21.63c-.98,0-1.68-.35-2.17-.91-.56-.56-.84-1.19-.84-1.96V11.99c0-.7.28-1.26.84-1.82.49-.56,1.19-.84,2.17-.84h6.37c.84,0,1.54.28,2.1.84s.84,1.12.84,1.82v27.72h46.69c1.12,0,1.89.14,2.31.56.35.42.56,1.33.56,2.59v2.8c0,.98-.21,1.68-.56,2.17-.42.49-1.19.77-2.31.77h-22.12ZM211.44,5.34c.35.42.56.91.56,1.68v29.05c0,.7-.21,1.26-.56,1.61-.35.35-.84.49-1.61.49h-39.41c-.77,0-1.26-.14-1.61-.49-.35-.35-.49-.91-.49-1.61V7.02c0-.77.14-1.26.49-1.68.35-.35.84-.49,1.61-.49h39.41c.77,0,1.26.14,1.61.49ZM199.68,11.5h-19.11v2.17h19.11v-2.17ZM199.68,20.25h-19.11v2.17h19.11v-2.17ZM199.68,28.93h-19.11v2.31h19.11v-2.31ZM203.53,50.84c.49.49.77,1.12.77,1.82v1.82c0,.84.28,1.54.77,2.03.49.49,1.19.77,1.96.77h5.39c.84,0,1.54.28,2.03.77.49.49.7,1.05.7,1.75v3.85c0,.7-.21,1.26-.7,1.75s-1.19.77-2.03.77h-10.22c-3.01-.07-5.18-.84-6.51-2.1-1.33-1.26-1.96-3.15-1.96-5.6v-5.81c0-.7.28-1.33.77-1.82.42-.49,1.05-.7,1.75-.77h5.46c.7.07,1.33.28,1.82.77Z"/><path class="cls-2" d="M22.98,70.82h-6.02c-2.55,0-4.14-1.13-5.05-2.14-1.25-1.3-1.9-2.96-1.9-4.81v-5.18c-.63.18-1.29.26-1.96.24-3.1.23-4.92-.91-5.92-1.99-.93-.97-1.99-2.63-1.99-5.19v-5.62c-.17-1.68.14-3.34.93-4.94.18-.37.39-.75.65-1.12-1.12-1.23-1.72-2.8-1.72-4.5v-8.33c0-1.91.72-3.64,2.09-5,.07-.07.13-.13.2-.19-.27-.75-.4-1.54-.4-2.36v-7.28c0-1.83.7-3.56,1.98-4.89,1.31-1.44,3.05-2.2,5.04-2.2h6.83c.25-1.04.72-2,1.4-2.84,1.21-1.58,3.1-2.48,5.21-2.48h5.11c1.86,0,3.57.72,4.93,2.09,1.32,1.32,2.02,3.03,2.02,4.93v.53c.82-.33,1.81-.55,2.99-.55h3.36c.26,0,.51.01.77.04.09-1.59.56-2.94,1.45-4.12,1.26-1.68,3.08-2.64,5-2.64h5.74c1.99,0,3.79.94,5.07,2.64.08.1.15.21.22.32.73,1.16,1.14,2.44,1.23,3.8.23-.02.46-.03.7-.03h3.43c2.24,0,4.22.84,5.56,2.38,1.61,1.84,1.95,3.62,1.95,4.78v22.82c0,1.78-.66,3.44-1.95,4.92-1.34,1.53-3.32,2.38-5.56,2.38h-1.76c.69,1,1.58,1.88,2.71,2.7,4.06,2.82,4.79,3.69,5.09,4.06,1.02,1.22,1.53,2.75,1.53,4.56v7.91c0,1.82-.58,3.42-1.71,4.75-.08.09-.15.17-.24.25-1.15,1.15-2.57,1.86-4.09,2.05-.19.02-.37.04-.56.04-3.29,0-6.72-1.84-11.13-5.98-1.33-1.27-2.41-2.32-3.3-3.21-.86.87-1.93,1.91-3.25,3.18-4.38,4.11-7.92,6.01-11.16,6.01-.19,0-.38-.01-.56-.04-1.52-.19-2.94-.9-4.09-2.05-.08-.08-.16-.16-.23-.25-.92-1.07-1.45-2.32-1.6-3.81-.08,1.66-.62,2.84-1.12,3.58-.09.13-.19.26-.29.39-1.6,1.92-4.03,2.22-5.06,2.35-.19.02-.37.04-.56.04ZM19.01,61.82h1.99v-14.82c0-1.79,1.06-3.41,2.7-4.13.76-.33,1.57-.44,2.36-.34l-1.35-1.17c-1.42-1.23-1.92-3.21-1.26-4.97.66-1.76,2.34-2.92,4.21-2.92h.26v-4.23h-2.43c-2.49,0-4.5-2.01-4.5-4.5v-2.45c0-2.46,1.97-4.45,4.41-4.5v-8.78h-1.1c-.37,1.52-1.13,2.57-1.79,3.23-1.35,1.35-3.15,2.09-5.07,2.09h-6.56v3.46h3.62c2.49,0,4.5,2.01,4.5,4.5v2.45c0,2.49-2.01,4.5-4.5,4.5h-5.51v4.23h1.45c1.86,0,3.54,1.15,4.2,2.89.67,1.74.19,3.71-1.2,4.96l-2.73,2.45c-.07.06-.14.12-.22.18-.91.72-1.26,1.11-1.36,1.23-.04.09-.05.13-.05.13.03.21.05.36.05.57v2.55c.48-.54,1.05-1.26,1.74-2.2,1.15-1.57,3.18-2.22,5.03-1.62,1.85.6,3.1,2.33,3.1,4.28v12.93ZM50.92,50.26s.06,0,.09,0c1.43.03,2.77.73,3.59,1.9.79,1.12,4.43,4.61,5.81,5.93,1.02.95,1.86,1.65,2.54,2.16v-3.86c-.53-.41-1.41-1.07-2.83-2.06-3.35-2.42-5.6-5.28-6.95-8.8-1.26-3.2-1.91-7.5-1.91-12.75V9.28h-.73v23.5c0,5.44-.61,9.62-1.86,12.79-1.34,3.48-3.59,6.35-6.87,8.72-1.4.97-2.28,1.63-2.82,2.05v3.85c.68-.51,1.51-1.19,2.5-2.12,4.1-3.93,5.44-5.47,5.87-6.03.85-1.11,2.17-1.77,3.58-1.77ZM36.09,44.19v3.1c.16-.11.32-.23.49-.34,1.1-.79,1.97-1.67,2.65-2.66h-1.83c-.47,0-.9-.03-1.31-.1ZM9.23,45s-.02.05-.03.07c.01-.02.02-.05.03-.07ZM62.49,35.28h.38v-19.28h-.38v19.28ZM38.89,35.28h.31v-19.28h-.31v19.28ZM53.72,9.28h0,0Z"/><path class="cls-2" d="M135.27,70.75h-49.92c-2.96,0-5.43-.9-7.34-2.68-.04-.04-.08-.07-.11-.11-1.27-1.27-2.79-3.55-2.79-7.17V10.1c0-2.82.96-5.28,2.79-7.1.04-.04.07-.07.11-.11,1.9-1.78,4.38-2.68,7.34-2.68h49.92c3.8,0,6.11,1.52,7.38,2.79,1.82,1.82,2.79,4.28,2.79,7.1v50.68c0,3.62-1.52,5.9-2.79,7.17s-3.58,2.79-7.38,2.79ZM84.23,61.54c.28.17.81.2,1.12.2h49.92c.65,0,.97-.12,1.02-.16.09-.09.15-.4.15-.8V10.1c0-.28-.04-.62-.15-.74-.07-.04-.38-.15-1.02-.15h-49.92c-.31,0-.85.03-1.13.2-.08.15-.11.44-.11.69v50.68c0,.34.04.63.12.76ZM126.17,56.04h-8.47c-2.49,0-4.5-2.01-4.5-4.5v-8.47c0-2.49,2.01-4.5,4.5-4.5h8.47c2.49,0,4.5,2.01,4.5,4.5v8.47c0,2.49-2.01,4.5-4.5,4.5ZM102.92,56.04h-8.47c-2.49,0-4.5-2.01-4.5-4.5v-8.47c0-2.49,2.01-4.5,4.5-4.5h8.47c2.49,0,4.5,2.01,4.5,4.5v8.47c0,2.49-2.01,4.5-4.5,4.5ZM126.17,32.52h-8.47c-2.49,0-4.5-2.01-4.5-4.5v-8.47c0-2.49,2.01-4.5,4.5-4.5h8.47c2.49,0,4.5,2.01,4.5,4.5v8.47c0,2.49-2.01,4.5-4.5,4.5ZM102.92,32.52h-8.47c-2.49,0-4.5-2.01-4.5-4.5v-8.47c0-2.49,2.01-4.5,4.5-4.5h8.47c2.49,0,4.5,2.01,4.5,4.5v8.47c0,2.49-2.01,4.5-4.5,4.5Z"/><path class="cls-2" d="M212.42,70.68h-10.22s-.07,0-.1,0c-3.51-.08-6.37-.92-8.52-2.51-.14.17-.29.34-.44.5-.09.1-.19.19-.3.27-1.24,1.04-2.84,1.61-4.49,1.61h-7.7c-1.62,0-3.22-.54-4.43-1.5-.37-.28-.71-.6-1-.94-2.17,1.63-5.06,2.5-8.61,2.58-.03,0-.07,0-.1,0h-10.22c-2.01,0-3.87-.74-5.21-2.09-1.32-1.32-2.02-3.03-2.02-4.93v-3.85c0-1.91.7-3.61,2.02-4.93,1.03-1.03,2.34-1.7,3.8-1.96-1.43-.33-2.71-1.06-3.69-2.13-1.35-1.4-2.06-3.14-2.06-5.04V11.99c0-1.85.69-3.5,2.06-4.91.97-1.06,2.68-2.25,5.45-2.25h6.37c.37,0,.73.02,1.08.07.25-.91.67-1.72,1.27-2.44.09-.1.18-.2.27-.3,1.2-1.2,2.81-1.81,4.8-1.81h39.41c1.98,0,3.6.61,4.8,1.81.09.1.19.19.27.3,1.06,1.28,1.6,2.81,1.6,4.56v28.93c.56.27,1.12.64,1.62,1.14.1.1.19.2.28.3,1.08,1.29,1.6,3.08,1.6,5.47v2.8c0,1.87-.47,3.48-1.4,4.78-.08.11-.16.21-.25.31-.75.87-2.04,1.88-4.17,2.22,1.31.3,2.5.95,3.44,1.89,1.32,1.32,2.02,3.02,2.02,4.93v3.85c0,1.91-.7,3.61-2.02,4.93-1.35,1.35-3.2,2.09-5.21,2.09ZM202.25,61.68h3.48c-1.47-.25-2.8-.93-3.85-1.98-1.33-1.32-2.07-3.14-2.09-5.12h-1.57v3.9c0,1.15.2,2,.56,2.33.41.39,1.53.81,3.47.87ZM162.98,61.68h3.46c2.5-.07,3.33-.73,3.47-.87.35-.33.55-1.18.55-2.33v-3.9h-1.57c-.02,1.98-.76,3.8-2.09,5.13-1.05,1.06-2.36,1.73-3.82,1.98ZM182.76,61.54h3.25v-12.93c0-2.15,1.5-3.94,3.51-4.39h-10.28c2.01.45,3.51,2.25,3.51,4.39v12.93ZM158.11,44.1h6.83c-2.01-.45-3.51-2.25-3.51-4.39V13.83h-3.32v30.27ZM203.47,33.67h4.03V9.35h-3.87c.35.64.55,1.37.55,2.15v2.17c0,1.3-.55,2.47-1.43,3.29.88.82,1.43,1.99,1.43,3.29v2.17c0,1.28-.54,2.44-1.39,3.26.86.82,1.39,1.98,1.39,3.26v2.31c0,.9-.26,1.73-.71,2.43ZM172.82,33.67h3.96c-.45-.7-.71-1.53-.71-2.43v-2.31c0-1.28.54-2.44,1.39-3.26-.86-.82-1.39-1.98-1.39-3.26v-2.17c0-1.3.55-2.47,1.43-3.29-.88-.82-1.43-1.99-1.43-3.29v-2.17c0-.78.2-1.51.55-2.15h-3.8v24.32ZM209.88,9.35h0,0Z"/><path class="cls-3" d="M22.98,69.32h-6.02c-2.01,0-3.25-.88-3.95-1.66-1-1.03-1.5-2.31-1.5-3.79v-7.51c-1.21.79-2.37,1.13-3.49,1.07-2.11.18-3.71-.33-4.8-1.52-1.05-1.09-1.58-2.48-1.58-4.16v-5.7c-.16-1.42.11-2.84.78-4.21.29-.63.73-1.25,1.35-1.92-.19-.14-.37-.3-.55-.47-1.12-1-1.73-2.37-1.73-3.88v-8.33c0-1.52.55-2.85,1.65-3.94.31-.31.65-.58,1-.8-.51-.84-.76-1.79-.76-2.82v-7.28c0-1.44.56-2.81,1.58-3.87,1.03-1.14,2.36-1.72,3.94-1.72h8.13c.04-1.29.47-2.43,1.27-3.41.94-1.23,2.36-1.91,4.04-1.91h5.11c1.01,0,2.51.29,3.87,1.65,1.05,1.05,1.58,2.35,1.58,3.87v3.41s.09-.09.13-.14c.76-.83,2.12-1.79,4.36-1.79h3.36c.8,0,1.55.14,2.25.42v-1.34c0-1.49.38-2.72,1.16-3.76.99-1.32,2.34-2.04,3.8-2.04h5.74c1.51,0,2.88.72,3.87,2.04.05.07.1.14.14.21.67,1.08,1.02,2.27,1.02,3.55v1.34c.68-.27,1.42-.42,2.18-.42h3.43c1.8,0,3.38.66,4.43,1.87,1.31,1.49,1.58,2.89,1.58,3.79v22.82c0,1.41-.53,2.73-1.58,3.94-1.05,1.2-2.63,1.86-4.43,1.86h-3.43c-.27,0-.55-.02-.81-.06.01.03.02.06.03.09.84,2.17,2.2,3.88,4.29,5.39,3.92,2.72,4.6,3.54,4.82,3.8.79.94,1.18,2.15,1.18,3.6v7.91c0,1.46-.46,2.73-1.35,3.77-.05.06-.1.12-.16.17-.91.91-2.03,1.48-3.22,1.63-.12.02-.25.02-.37.02-2.84,0-6.05-1.77-10.1-5.57-1.89-1.81-3.29-3.18-4.33-4.25-1.1,1.14-2.52,2.54-4.28,4.23-4.02,3.77-7.33,5.59-10.13,5.59-.12,0-.25,0-.37-.02-1.19-.15-2.3-.71-3.22-1.63-.05-.05-.11-.11-.16-.17-1.15-1.34-1.28-2.8-1.28-3.77v-7.91c0-.58.06-1.13.19-1.64-.09.03-.17.05-.24.07-1.1.28-2.09.02-2.91-.41v9.92c.1,1.44-.19,2.67-.86,3.67-.06.09-.12.17-.19.26-1.08,1.29-2.68,1.65-4.1,1.82-.12.02-.25.02-.37.02ZM17.51,63.31h4.99s0-16.32,0-16.32c0-1.19.71-2.27,1.8-2.75,1.1-.48,2.37-.26,3.24.55l1.05.97v-2.63c0-.17,0-.62-1-1.3-.1-.07-.19-.14-.28-.22l-1.61-1.4c-.94-.82-1.28-2.14-.84-3.31s1.56-1.95,2.81-1.95h1.76v-7.23s-3.93,0-3.93,0c-1.66,0-3-1.34-3-3v-2.45c0-1.66,1.34-3,3-3h.77c.27,0,.46-.02.59-.04.04-.2.08-.54.06-1.09,0-.05,0-.09,0-.14V7.5h-3.89c-.12,1.85-.9,3.01-1.56,3.67-1.08,1.08-2.47,1.65-4.01,1.65h-8.06v6.46h5.12c1.66,0,3,1.34,3,3v2.45c0,1.66-1.34,3-3,3h-7.01v7.23h2.95c1.24,0,2.36.77,2.8,1.93s.13,2.48-.8,3.31l-2.73,2.45s-.09.08-.14.12c-1.42,1.12-1.7,1.59-1.73,1.64-.27.55-.27.84-.24,1.04.02.14.03.28.03.42v5.56h.01c.15-.02.29-.02.43-.02.34-.18,1.58-.99,4-4.3.77-1.05,2.12-1.48,3.35-1.08,1.23.4,2.07,1.55,2.07,2.85v14.43ZM50.92,51.76s.04,0,.06,0c.95.02,1.84.49,2.39,1.27.77,1.09,3.46,3.72,6,6.14,2.56,2.4,4.16,3.34,5.07,3.71v-7.22c-.38-.32-1.35-1.1-3.47-2.57-3.08-2.22-5.16-4.87-6.41-8.11-1.2-3.04-1.81-7.15-1.81-12.21V7.78h-3.73v25c0,5.25-.57,9.25-1.75,12.23-1.23,3.21-3.32,5.86-6.35,8.05-2.01,1.4-3,2.17-3.45,2.55v7.22c.92-.39,2.54-1.34,5.03-3.68,3.98-3.81,5.48-5.49,6.04-6.21.57-.74,1.45-1.18,2.38-1.18ZM7.67,51.88s0,0,0,0c0,0,0,0,0,0ZM34.52,42.13c.05.36.07.7.07,1.02v6.3c0,.07,0,.14,0,.21-.02.22-.04.44-.07.64.69-.53,1.64-1.23,2.93-2.12,2.05-1.48,3.41-3.18,4.23-5.33.02-.04.03-.08.05-.13-.31.05-.63.07-.96.07h-3.36c-1.2,0-2.15-.27-2.88-.66ZM40.75,36.83l1.91,1.91h0l-1.91-1.91s0,0,0,0ZM60.99,36.78h3.38V14.5h-3.38v22.28ZM37.39,36.78h3.31V14.5h-3.3s0,0,0,0v22.28ZM26.78,19.46s0,0,0,0c0,0,0,0,0,0ZM53.72,7.78h0,0Z"/><path class="cls-3" d="M135.27,69.25h-49.92c-2.57,0-4.7-.77-6.32-2.28-.03-.02-.05-.05-.08-.07-1.56-1.56-2.35-3.62-2.35-6.11V10.1c0-2.42.81-4.5,2.35-6.04.02-.02.05-.05.07-.07,1.62-1.51,3.74-2.28,6.32-2.28h49.92c2.64,0,4.76.79,6.32,2.35,1.54,1.54,2.35,3.63,2.35,6.04v50.68c0,2.5-.79,4.55-2.35,6.11-1.56,1.56-3.68,2.35-6.32,2.35ZM83.17,62.62c.31.28.88.63,2.18.63h49.92c.99,0,1.69-.2,2.08-.59.25-.25.59-.72.59-1.87V10.1c0-1.21-.45-1.65-.59-1.8,0,0,0,0,0,0-.39-.39-1.09-.59-2.08-.59h-49.92c-1.31,0-1.88.35-2.19.63-.17.18-.55.65-.55,1.76v50.68c0,1.09.31,1.57.56,1.83ZM126.17,54.54h-8.47c-1.66,0-3-1.34-3-3v-8.47c0-1.66,1.34-3,3-3h8.47c1.66,0,3,1.34,3,3v8.47c0,1.66-1.34,3-3,3ZM120.69,48.54h2.47v-2.47h-2.47v2.47ZM102.92,54.54h-8.47c-1.66,0-3-1.34-3-3v-8.47c0-1.66,1.34-3,3-3h8.47c1.66,0,3,1.34,3,3v8.47c0,1.66-1.34,3-3,3ZM97.45,48.54h2.47v-2.47h-2.47v2.47ZM126.17,31.02h-8.47c-1.66,0-3-1.34-3-3v-8.47c0-1.66,1.34-3,3-3h8.47c1.66,0,3,1.34,3,3v8.47c0,1.66-1.34,3-3,3ZM120.69,25.02h2.47v-2.47h-2.47v2.47ZM102.92,31.02h-8.47c-1.66,0-3-1.34-3-3v-8.47c0-1.66,1.34-3,3-3h8.47c1.66,0,3,1.34,3,3v8.47c0,1.66-1.34,3-3,3ZM97.45,25.02h2.47v-2.47h-2.47v2.47Z"/><path class="cls-3" d="M212.42,69.18h-10.22c-3.76-.09-6.62-1.07-8.57-2.92-.15-.15-.3-.29-.44-.45-.24.69-.62,1.3-1.12,1.79-.06.06-.13.12-.2.18-.97.81-2.23,1.26-3.53,1.26h-7.7c-1.29,0-2.57-.43-3.52-1.19-.72-.54-1.25-1.26-1.55-2.11-.16.18-.33.35-.5.52-1.96,1.85-4.82,2.84-8.51,2.92h-10.29c-1.61,0-3.09-.58-4.15-1.65-1.05-1.05-1.58-2.35-1.58-3.87v-3.85c0-1.52.53-2.82,1.58-3.87,1.06-1.06,2.54-1.65,4.15-1.65h5.12v-1.62c0-.36.04-.71.11-1.06h-4.87c-1.75,0-3.26-.64-4.36-1.86-1.08-1.11-1.65-2.5-1.65-4.01V11.99c0-1.45.56-2.75,1.65-3.88.76-.83,2.12-1.78,4.36-1.78h6.37c.83,0,1.61.15,2.32.45.02-.92.21-2.19,1.18-3.36.06-.07.12-.14.18-.2,1.37-1.37,3.15-1.37,3.73-1.37h39.41c.58,0,2.37,0,3.73,1.37.06.06.12.13.18.2.84,1.01,1.25,2.19,1.25,3.6v29.05c0,.3-.02.6-.06.89.76.2,1.5.56,2.12,1.19.06.06.13.13.18.2.84,1.01,1.25,2.49,1.25,4.51v2.8c0,1.56-.38,2.87-1.12,3.91-.05.07-.11.14-.16.21-.71.83-2.08,1.82-4.59,1.82h-5.43c.07.35.1.7.1,1.06v1.62h5.12c1.61,0,3.09.59,4.15,1.65,1.05,1.04,1.58,2.35,1.58,3.87v3.85c0,1.52-.53,2.82-1.58,3.87-1.06,1.06-2.54,1.65-4.15,1.65ZM196.73,53.07v5.4c0,1.63.34,2.78,1.02,3.42.82.78,2.42,1.23,4.52,1.28h9.88v-2.89h-5.12c-1.57,0-3.02-.59-4.08-1.66-1.06-1.06-1.65-2.54-1.65-4.15v-1.41h-4.57ZM156.54,63.17h9.95c2.02-.04,3.63-.5,4.45-1.27.68-.64,1.02-1.79,1.02-3.42v-5.4h-4.57v1.41c0,1.62-.59,3.09-1.65,4.15-1.07,1.08-2.49,1.65-4.08,1.65h-5.12v2.88ZM181.26,63.04h6.25v-14.43c0-1.66,1.34-3,3-3h21.99v-2.74c0-.05,0-.1,0-.15h-46.56c-1.66,0-3-1.34-3-3V12.33h-6.31s0,0,0,0v33.27h21.64c1.66,0,3,1.34,3,3v14.43ZM171.32,35.17h37.68V7.85s-37.68,0-37.68,0v27.32ZM210.02,7.86h0,0ZM199.68,34.24h-19.11c-1.66,0-3-1.34-3-3v-2.31c0-1.66,1.34-3,3-3h19.11c1.66,0,3,1.34,3,3v2.31c0,1.66-1.34,3-3,3ZM199.68,25.42h-19.11c-1.66,0-3-1.34-3-3v-2.17c0-1.66,1.34-3,3-3h19.11c1.66,0,3,1.34,3,3v2.17c0,1.66-1.34,3-3,3ZM199.68,16.67h-19.11c-1.66,0-3-1.34-3-3v-2.17c0-1.66,1.34-3,3-3h19.11c1.66,0,3,1.34,3,3v2.17c0,1.66-1.34,3-3,3Z"/><path class="cls-2" d="M31.94,37.4c-.35.42-.84.56-1.47.56h-2.8l1.61,1.4c1.54,1.05,2.31,2.31,2.31,3.78v6.3c-.07.98-.35,1.54-.91,1.68-.56.14-1.26-.35-2.17-1.33l-3.01-2.8v16.66c.07.84-.07,1.47-.35,1.89-.35.42-1.05.63-2.17.77h-6.02c-.77,0-1.33-.21-1.75-.7-.49-.49-.7-1.05-.7-1.75v-14.98c-2.87,3.92-5.04,5.74-6.51,5.53-1.19.14-2.1,0-2.59-.56-.56-.56-.77-1.26-.77-2.1v-5.88c-.14-.98.07-1.89.49-2.73.35-.77,1.26-1.68,2.59-2.73l2.73-2.45h-3.43c-.7,0-1.26-.21-1.75-.7-.49-.42-.77-.98-.77-1.68v-8.33c0-.77.28-1.33.77-1.82s1.05-.7,1.75-.7h7.49v-2.45h-5.6c-.7,0-1.26-.28-1.75-.77-.49-.49-.77-1.05-.77-1.82v-7.28c0-.7.28-1.33.77-1.82.49-.56,1.05-.77,1.75-.77h8.54c.77,0,1.4-.28,1.89-.77s.7-1.19.7-2.03c0-.7.21-1.26.63-1.75.35-.49.91-.77,1.68-.77h5.11c.7,0,1.26.28,1.75.77.49.49.7,1.05.7,1.75v10.99c.07,1.54-.21,2.66-.77,3.29-.49.63-1.47.98-2.87.98h-.77v2.45h4.97c.63,0,1.12.14,1.47.49s.49.91.49,1.61v9.1c0,.63-.14,1.12-.49,1.47ZM42.86,38.94c-.56.56-1.26.84-2.1.84h-3.36c-.98,0-1.68-.28-2.17-.84-.56-.56-.84-1.19-.84-1.96V14.16c0-.63.28-1.26.84-1.82.49-.56,1.19-.84,2.17-.84h3.36c.84,0,1.54.28,2.1.84.56.56.84,1.19.84,1.82v22.82c0,.77-.28,1.4-.84,1.96ZM53.72,4.78c.56,0,1.05.28,1.47.84.35.56.56,1.19.56,1.96v25.2c0,4.76.56,8.47,1.61,11.13,1.05,2.73,2.8,4.9,5.32,6.72,2.52,1.75,3.92,2.87,4.27,3.29.35.42.49.98.49,1.68v7.91c0,.77-.21,1.33-.63,1.82-.42.42-.91.7-1.47.77-2.03,0-4.69-1.61-8.05-4.76-3.36-3.22-5.53-5.39-6.37-6.58-.91,1.19-3.01,3.36-6.37,6.58-3.36,3.15-6.09,4.76-8.05,4.76-.56-.07-1.05-.35-1.47-.77-.42-.49-.56-1.05-.56-1.82v-7.91c0-.7.14-1.26.42-1.68.35-.42,1.75-1.54,4.27-3.29,2.52-1.82,4.27-3.99,5.32-6.72,1.05-2.66,1.54-6.37,1.54-11.13V7.58c0-.77.14-1.4.56-1.96.42-.56.91-.84,1.4-.84h5.74ZM57.99,14.16c0-.63.28-1.26.91-1.82.56-.56,1.26-.84,2.03-.84h3.43c.91,0,1.68.28,2.17.84.49.56.84,1.19.84,1.82v22.82c0,.77-.35,1.4-.84,1.96-.49.56-1.26.84-2.17.84h-3.43c-.77,0-1.47-.28-2.03-.84-.63-.56-.91-1.19-.91-1.96V14.16Z"/><path class="cls-2" d="M139.47,6.18c.98.98,1.47,2.31,1.47,3.92v50.68c0,1.68-.49,3.01-1.47,3.99s-2.38,1.47-4.2,1.47h-49.92c-1.82,0-3.22-.49-4.27-1.47-.98-.98-1.47-2.31-1.47-3.99V10.1c0-1.61.49-2.94,1.47-3.92,1.05-.98,2.45-1.47,4.27-1.47h49.92c1.82,0,3.22.49,4.2,1.47ZM102.92,19.55h-8.47v8.47h8.47v-8.47ZM102.92,43.07h-8.47v8.47h8.47v-8.47ZM126.17,19.55h-8.47v8.47h8.47v-8.47ZM126.17,43.07h-8.47v8.47h8.47v-8.47Z"/><path class="cls-2" d="M172.45,50.07c.7.07,1.33.28,1.75.77.49.49.77,1.12.77,1.82v5.81c0,2.45-.63,4.34-1.96,5.6-1.33,1.26-3.5,2.03-6.51,2.1h-10.22c-.84,0-1.54-.28-2.03-.77-.49-.49-.7-1.05-.7-1.75v-3.85c0-.7.21-1.26.7-1.75s1.19-.77,2.03-.77h5.39c.84,0,1.47-.28,1.96-.77.49-.49.77-1.19.77-2.03v-1.82c0-.7.28-1.33.77-1.82s1.12-.7,1.82-.77h5.46ZM190.51,48.6v15.26c0,.7-.21,1.26-.56,1.61-.42.35-.98.56-1.61.56h-7.7c-.63,0-1.26-.21-1.68-.56-.49-.35-.7-.91-.7-1.61v-15.26h-21.63c-.98,0-1.68-.35-2.17-.91-.56-.56-.84-1.19-.84-1.96V11.99c0-.7.28-1.26.84-1.82.49-.56,1.19-.84,2.17-.84h6.37c.84,0,1.54.28,2.1.84s.84,1.12.84,1.82v27.72h46.69c1.12,0,1.89.14,2.31.56.35.42.56,1.33.56,2.59v2.8c0,.98-.21,1.68-.56,2.17-.42.49-1.19.77-2.31.77h-22.12ZM211.44,5.34c.35.42.56.91.56,1.68v29.05c0,.7-.21,1.26-.56,1.61-.35.35-.84.49-1.61.49h-39.41c-.77,0-1.26-.14-1.61-.49-.35-.35-.49-.91-.49-1.61V7.02c0-.77.14-1.26.49-1.68.35-.35.84-.49,1.61-.49h39.41c.77,0,1.26.14,1.61.49ZM199.68,11.5h-19.11v2.17h19.11v-2.17ZM199.68,20.25h-19.11v2.17h19.11v-2.17ZM199.68,28.93h-19.11v2.31h19.11v-2.31ZM203.53,50.84c.49.49.77,1.12.77,1.82v1.82c0,.84.28,1.54.77,2.03.49.49,1.19.77,1.96.77h5.39c.84,0,1.54.28,2.03.77.49.49.7,1.05.7,1.75v3.85c0,.7-.21,1.26-.7,1.75s-1.19.77-2.03.77h-10.22c-3.01-.07-5.18-.84-6.51-2.1-1.33-1.26-1.96-3.15-1.96-5.6v-5.81c0-.7.28-1.33.77-1.82.42-.49,1.05-.7,1.75-.77h5.46c.7.07,1.33.28,1.82.77Z"/></g></svg>