<?xml version="1.0" encoding="UTF-8"?><svg id="_レイヤー_2" xmlns="http://www.w3.org/2000/svg" viewBox="0 0 218.9 71.28"><defs><style>.cls-1,.cls-2,.cls-3{stroke-width:0px;}.cls-2{fill:#198caa;}.cls-3{fill:#fff;}</style></defs><g id="_レイヤー_4"><path class="cls-1" d="M14.58,15.7c-.21-.07-.49-.28-.84-.63-.35-.28-.49-.84-.49-1.54v-2.87c0-.77.21-1.33.7-1.82.49-.42,1.12-.7,1.89-.7h26.95c1.19,0,1.96-.35,2.31-.98.42-.63.84-1.26,1.33-1.82s1.12-.84,1.82-.84h6.65c.77,0,1.33.28,1.89.84.49.56.7,1.19.7,1.96.07,1.96-.7,3.64-2.24,5.04-1.61,1.4-3.15,2.31-4.62,2.73h3.92c1.19,0,2.03.21,2.59.77.49.56.56,1.19.14,1.89l-.91,1.96h6.79c1.19,0,1.96.21,2.38.56.35.42.56,1.33.63,2.66v5.95c0,1.05-.21,1.75-.56,2.24-.42.49-1.26.7-2.45.7h-5.81c.77.77,1.12,1.61,1.12,2.66v3.78c0,1.26-.21,2.17-.63,2.59s-1.19.63-2.38.63h-26.6c-1.05,0-1.82-.21-2.24-.63s-.63-1.26-.63-2.59v-8.05c0-1.05.21-1.82.56-2.24.42-.49,1.12-.7,2.17-.63h2.24c1.12-.07,1.89.14,2.24.63.42.49.63,1.26.63,2.24v3.15c0,.84.28,1.26.98,1.26h16.1c0-1.19.21-2.03.63-2.45s1.05-.63,1.96-.63h2.8c-1.05-.7-1.54-1.47-1.54-2.52v-3.01H15.91v3.01c0,.84-.21,1.54-.63,2.03-.42.56-1.12.77-2.17.77h-5.74c-1.12,0-1.89-.21-2.31-.77-.35-.49-.56-1.19-.56-2.03v-6.09c0-1.33.21-2.24.56-2.66.42-.35,1.19-.56,2.31-.56h7.84l-.98-1.96c-.35-.7-.21-1.4.35-2.03ZM53.93,57.07c2.66.63,5.04.91,7.14.91.98.07,1.75.35,2.17.91.42.49.7,1.19.77,1.96v2.66c0,1.33-.21,2.24-.63,2.73-.42.42-1.19.63-2.31.49-5.6.14-11.27-.84-17.08-2.94-5.39,2.1-11.41,3.08-18.06,2.94-1.05.14-1.89-.07-2.31-.49-.49-.49-.77-1.4-.77-2.73v-2.66c.07-.77.35-1.47.84-1.96.49-.56,1.26-.84,2.24-.91,1.82,0,4.2-.14,7.28-.56-1.26-2.03-2.24-4.13-2.94-6.3h-7.63c-.28,6.51-1.68,10.71-4.13,12.67-2.45,1.96-5.04,2.87-7.98,2.73-1.4,0-2.38-.21-2.87-.63s-.7-1.12-.7-2.17v-3.01c0-.84.28-1.54.84-2.1.63-.56,1.54-.84,2.73-.84,1.61,0,2.73-.49,3.29-1.4.56-.91.84-2.31.77-4.2v-6.51c0-1.05.21-1.75.7-2.1.42-.35,1.19-.49,2.17-.49h37.66c1.33,0,2.24.21,2.66.7s.63,1.19.63,2.1c-.14,4.48-1.61,8.19-4.48,11.2ZM22,39.01c-1.68,1.89-4.13,2.87-7.49,2.87h-1.05c-.91,0-1.61-.14-2.1-.42-.49-.35-.77-1.05-.77-2.1v-3.64c0-1.12.28-1.89.7-2.31.49-.35,1.19-.56,2.17-.56h.63c1.05,0,1.75-.21,2.1-.56.35-.42.56-1.05.7-2.03,0-.84.28-1.61.77-2.17s1.26-.84,2.31-.77h1.4c.98-.07,1.75.21,2.24.77s.77,1.19.77,2.03c0,3.99-.77,7-2.38,8.89ZM28.79,16.05h-4.48c.28.42.7,1.05,1.12,1.89l.98,1.75h3.29l-.98-1.96c-.28-.63-.28-1.19.07-1.68ZM40.41,32.64c-.56.56-1.26.84-2.1.84-.98,0-1.75-.28-2.31-.84-.49-.56-.77-1.19-.84-1.89v-.7c.07-.7.35-1.26.84-1.82.56-.56,1.26-.84,2.17-.84s1.68.28,2.24.84.84,1.12.84,1.82v.7c0,.7-.28,1.33-.84,1.89ZM38.8,16.05c.28.42.7,1.05,1.12,1.89l.98,1.75h4.27l.91-1.75c.56-.98,1.05-1.75,1.4-2.17-1.26.21-2.73.28-4.27.28h-4.41ZM48.18,51.13h-9.1c1.19,1.33,2.8,2.45,4.9,3.29,1.75-.84,3.15-1.96,4.2-3.29ZM48.05,32.64c-.56.56-1.26.84-2.1.84-.98,0-1.75-.28-2.24-.84-.56-.56-.84-1.19-.91-1.89v-.7c.07-.7.35-1.26.91-1.82.49-.56,1.19-.84,2.1-.84s1.68.28,2.24.84.84,1.12.84,1.82v.7c0,.7-.28,1.33-.84,1.89Z"/><path class="cls-1" d="M133.76,55.54c1.61.7,3.22,1.05,4.9,1.05.7,0,1.19.21,1.54.63.35.42.63.91.7,1.47v5.46c0,1.05-.21,1.75-.56,2.17-.42.35-.98.42-1.68.35-3.01-.14-6.37-1.89-10.08-5.18-2.87,3.29-6.58,5.04-11.06,5.18-.7.07-1.26,0-1.61-.35-.42-.42-.56-1.12-.56-2.17v-5.46c0-.56.21-1.05.63-1.47.35-.42.84-.63,1.54-.63,3.01,0,4.97-.35,5.95-1.05-2.66-2.87-4.55-5.04-5.6-6.51h-2.94v9.1c0,3.01-.56,5.18-1.75,6.58-1.19,1.33-3.01,2.03-5.6,2.03h-1.47c-.84,0-1.4-.14-1.61-.42-.28-.35-.42-.91-.42-1.75v-2.45c-.42-.07-.98-.28-1.68-.7l-7.77-4.48c-2.52,2.94-4.97,5.32-7.42,7s-4.69,2.59-6.72,2.73c-.77-.07-1.33-.35-1.89-.77-.49-.49-.7-1.05-.7-1.82v-5.74c0-.7.14-1.26.56-1.68.35-.42,1.05-.7,2.03-.91,2.17-.42,4.27-1.61,6.23-3.43l-6.16-3.08c-1.26-.63-2.1-1.47-2.45-2.38-.42-.91-.49-1.89-.14-3.08l3.85-14.91h-1.96c-1.12,0-1.82-.21-2.24-.7s-.63-1.19-.63-2.24v-4.34c0-1.33.21-2.17.63-2.59.42-.42,1.12-.63,2.24-.63h4.76l2.59-9.94c.35-1.26.77-2.1,1.26-2.52.42-.42,1.12-.56,1.89-.56h4.13c1.33,0,2.1.21,2.24.63.21.42.07,1.19-.28,2.38l-2.66,10.01h8.61c1.19,0,1.96.14,2.24.42.28.35.49.63.56.98.42-.21,1.05-.28,1.82-.28h2.45l-.42-2.59h-1.47c-.7-.07-1.33-.35-1.82-.77-.49-.49-.77-1.05-.77-1.82v-3.36c0-.77.28-1.33.77-1.82.49-.42,1.12-.7,1.82-.77h21c1.19,0,1.75-.21,1.75-.77s.28-1.12.77-1.68c.56-.56,1.12-.84,1.82-.84h4.2c.77,0,1.4.28,1.89.84.49.56.7,1.19.7,1.96v3.57c.07,1.96-.21,3.22-.84,3.85-.63.56-1.26.98-2.03,1.26l-.42,2.94h1.33c1.19,0,1.96.21,2.38.56.42.42.63,1.33.63,2.66v2.17c0,.98-.21,1.75-.63,2.24-.42.42-1.19.7-2.38.7h-22.82v2.03h22.82c1.19,0,1.96.21,2.38.63s.63,1.26.63,2.59v2.17c0,1.05-.21,1.75-.63,2.24s-1.19.7-2.38.7h-22.82v2.24h22.89c.98,0,1.68.21,2.03.56.42.42.56.91.56,1.61-.91,5.39-3.08,9.66-6.65,12.95ZM92.6,28.86h-1.54l-3.22,12.39,4.13,2.45c.42-1.19.63-2.87.63-4.9v-9.94ZM105.2,27.46c-.63.98-1.61,1.4-2.8,1.4h-1.26v11.55c0,2.8-.49,5.46-1.33,7.91l2.45,1.4c1.33.77,2.17,1.4,2.52,1.89.42.49.63,1.47.63,3.08v2.38c.21-.07.42-.07.7-.07.63,0,1.12-.35,1.47-1.05s.49-1.75.42-3.15v-14.63h-.98c-1.12,0-1.89-.21-2.31-.7-.35-.49-.56-1.19-.56-2.24v-2.17c0-1.33.21-2.17.56-2.59.42-.42,1.19-.63,2.31-.63h.98v-2.03h-.98c-.77,0-1.4-.14-1.82-.35ZM118.78,19.48l-.42-2.59h-2.03l.49,2.59h1.96ZM131.52,49.02h-5.95c.63,1.05,1.61,2.38,3.01,3.99,1.4-1.61,2.38-2.94,2.94-3.99ZM129,19.48l.49-2.59h-3.85l.49,2.59h2.87Z"/><path class="cls-1" d="M171.35,50.63c.7.07,1.33.28,1.75.77.49.49.77,1.12.77,1.82v5.81c0,2.45-.63,4.34-1.96,5.6-1.33,1.26-3.5,2.03-6.51,2.1h-10.22c-.84,0-1.54-.28-2.03-.77-.49-.49-.7-1.05-.7-1.75v-3.85c0-.7.21-1.26.7-1.75.49-.49,1.19-.77,2.03-.77h5.39c.84,0,1.47-.28,1.96-.77.49-.49.77-1.19.77-2.03v-1.82c0-.7.28-1.33.77-1.82s1.12-.7,1.82-.77h5.46ZM189.41,49.16v15.26c0,.7-.21,1.26-.56,1.61-.42.35-.98.56-1.61.56h-7.7c-.63,0-1.26-.21-1.68-.56-.49-.35-.7-.91-.7-1.61v-15.26h-21.63c-.98,0-1.68-.35-2.17-.91-.56-.56-.84-1.19-.84-1.96V12.55c0-.7.28-1.26.84-1.82.49-.56,1.19-.84,2.17-.84h6.37c.84,0,1.54.28,2.1.84s.84,1.12.84,1.82v27.72h46.7c1.12,0,1.89.14,2.31.56.35.42.56,1.33.56,2.59v2.8c0,.98-.21,1.68-.56,2.17-.42.49-1.19.77-2.31.77h-22.12ZM210.34,5.9c.35.42.56.91.56,1.68v29.05c0,.7-.21,1.26-.56,1.61-.35.35-.84.49-1.61.49h-39.41c-.77,0-1.26-.14-1.61-.49-.35-.35-.49-.91-.49-1.61V7.58c0-.77.14-1.26.49-1.68.35-.35.84-.49,1.61-.49h39.41c.77,0,1.26.14,1.61.49ZM198.58,12.06h-19.11v2.17h19.11v-2.17ZM198.58,20.81h-19.11v2.17h19.11v-2.17ZM198.58,29.49h-19.11v2.31h19.11v-2.31ZM202.43,51.4c.49.49.77,1.12.77,1.82v1.82c0,.84.28,1.54.77,2.03.49.49,1.19.77,1.96.77h5.39c.84,0,1.54.28,2.03.77s.7,1.05.7,1.75v3.85c0,.7-.21,1.26-.7,1.75s-1.19.77-2.03.77h-10.22c-3.01-.07-5.18-.84-6.51-2.1-1.33-1.26-1.96-3.15-1.96-5.6v-5.81c0-.7.28-1.33.77-1.82.42-.49,1.05-.7,1.75-.77h5.46c.7.07,1.33.28,1.82.77Z"/><path class="cls-2" d="M61.71,71.28c-.27,0-.54-.01-.83-.04-5.51.12-11.17-.79-16.85-2.67-5.43,1.88-11.44,2.76-17.91,2.67-2.27.21-4.33-.44-5.69-1.81-.29-.29-.54-.6-.77-.93-2.85,1.82-5.97,2.66-9.25,2.53-2.54-.01-4.35-.56-5.69-1.71-1.51-1.29-2.27-3.17-2.27-5.59v-3.01c0-2.04.75-3.87,2.16-5.28.06-.06.12-.12.19-.18,1.38-1.23,3.15-1.89,5.27-1.97.02-.25.02-.56,0-.94,0-.06,0-.11,0-.17v-6.35c-.33-.13-.65-.28-.96-.46-.13-.07-.25-.15-.37-.24-.99-.71-2.66-2.4-2.66-5.76v-3.13c-2.01-.24-3.56-1.08-4.63-2.49l-.07-.09c-.91-1.28-1.4-2.89-1.4-4.64v-6.09c0-2.43.52-4.24,1.6-5.54.17-.21.36-.4.57-.57,1.28-1.07,3.03-1.61,5.2-1.61h1.54c-.1-.5-.16-1.05-.16-1.66v-2.87c0-1.98.68-3.66,2.02-5,.08-.08.17-.16.25-.24,1.36-1.17,3.03-1.78,4.82-1.78h26.22c.29-.41.62-.84.99-1.26,1.34-1.53,3.19-2.38,5.21-2.38h6.65c1.94,0,3.64.73,5.08,2.16.07.07.14.14.21.22,1.18,1.36,1.79,2.98,1.81,4.83.06,2.05-.43,3.97-1.44,5.69.6.7,1.03,1.47,1.27,2.29h1.34c2.25,0,3.98.53,5.27,1.61.21.17.4.36.57.57,1.02,1.23,1.54,2.86,1.67,5.3,0,.08,0,.16,0,.24v5.95c0,1.93-.47,3.56-1.4,4.86-.08.11-.16.21-.24.31-1.95,2.27-4.9,2.27-5.87,2.27h-.19v1.94c0,1.65-.26,3.02-.8,4.14.42.89.73,2.04.73,3.49,0,.05,0,.09,0,.14-.08,2.69-.57,5.19-1.46,7.49,2.84.22,4.44,1.49,5.3,2.57.98,1.19,1.6,2.74,1.75,4.38.01.13.02.27.02.4v2.66c0,2.46-.56,4.31-1.71,5.66-.08.09-.15.17-.24.25-.73.73-2.27,1.85-4.85,1.85ZM43.98,59.29c.52,0,1.04.09,1.53.27,3.41,1.23,6.71,2.04,9.97,2.42-.85-.15-1.72-.32-2.59-.53-1.57-.37-2.82-1.55-3.28-3.1-.21-.72-.24-1.46-.1-2.18-1.06.89-2.26,1.66-3.58,2.29-1.13.55-2.45.59-3.62.12-1.89-.75-3.55-1.73-4.96-2.9.49,1.16.47,2.49-.08,3.65-.51,1.09-1.43,1.91-2.53,2.31,2.69-.44,5.23-1.13,7.61-2.05.53-.21,1.08-.31,1.63-.31ZM50.95,47.57c.53.42.98.96,1.29,1.59.3.62.45,1.28.45,1.94.52-1.07.88-2.24,1.06-3.53h-2.8ZM33.03,47.57c.7.54,1.23,1.29,1.52,2.17.05.14.09.28.14.42.07-.3.16-.59.29-.88.31-.69.77-1.27,1.34-1.71h-3.29ZM19.08,47.57v.79c.23-.29.49-.56.79-.79h-.79ZM15.09,37.31v.06c1.92-.09,2.83-.64,3.35-1.14-.92.6-2.04.96-3.35,1.08ZM59.27,27.3h2.41v-3.11h-2.79c.24.55.38,1.16.38,1.8v1.31ZM9,27.3h2.41v-1.31c0-.64.13-1.25.38-1.8h-2.79v3.11ZM49.31,21.49h2.94c-.27-.61-.39-1.27-.37-1.92h-1.24c-.1,0-.19,0-.29,0-.09.15-.2.33-.32.54l-.72,1.39ZM33.83,21.49h2.93l-.76-1.35c-.03-.06-.07-.12-.1-.19-.3-.6-.6-1.04-.84-1.41-.92-1.38-1.01-3.16-.22-4.62.27-.5.62-.93,1.03-1.29h-4.14c.43.37.79.83,1.06,1.35.44.85.59,1.81.45,2.72l.48.97c.6,1.2.63,2.6.1,3.81ZM19.33,21.49h2.93l-.76-1.35c-.03-.06-.07-.12-.1-.18-.3-.59-.6-1.05-.84-1.41-.92-1.38-1-3.16-.22-4.62.27-.5.62-.93,1.03-1.29h-3.5c.49.53.86,1.18,1.05,1.9.22.82.2,1.66-.04,2.45l.34.69c.6,1.2.63,2.6.1,3.81ZM18.25,15.71h0s0,0,0,0ZM16.01,11.43s0,0,0,0c0,0,0,0,0,0ZM47.49,11.27c.22,0,.44.02.66.05.38-.25.8-.45,1.25-.58.56-.16,1.5-.59,2.84-1.74h-2.95c-.13.18-.25.37-.39.57-.29.47-.79,1.12-1.58,1.7.05,0,.11,0,.16,0ZM41.18,4.97s0,0,0,0c0,0,0,0,0,0Z"/><path class="cls-2" d="M107.58,71.24h-1.47c-2.32,0-4.05-.72-5.16-2.15-.85-1.08-1.3-2.43-1.36-4.1l-4.06-2.34c-2,2.07-3.9,3.72-5.77,5-3.15,2.16-6.08,3.31-8.95,3.51-.24.02-.48.01-.72,0-1.52-.14-2.88-.68-4.18-1.65-.17-.13-.33-.27-.48-.42-1.34-1.34-2.02-3.02-2.02-5v-5.74c0-1.91.59-3.5,1.75-4.73.53-.58,1.13-1.02,1.75-1.35-1.36-1-2.36-2.23-2.93-3.65-.83-1.88-.94-3.9-.34-6.02l2.57-9.96c-.69-.34-1.39-.82-2-1.54-1.15-1.35-1.71-3.04-1.71-5.17v-4.34c0-1.64.2-4.02,1.94-5.77,1.95-1.95,4.57-1.95,5.43-1.95h1.28l1.71-6.58c.61-2.18,1.42-3.66,2.56-4.69,1.23-1.16,2.9-1.75,4.94-1.75h4.13c4.11,0,5.76,1.79,6.4,3.42.52,1.23.5,2.49.32,3.57.34-.69.8-1.32,1.38-1.9.08-.08.16-.15.24-.22,1.21-1.04,2.7-1.68,4.31-1.84.15-.01.3-.02.45-.02h19.43c.21-.31.44-.62.71-.91.06-.07.13-.15.2-.21,1.43-1.43,3.12-2.16,5-2.16h4.2c2.06,0,3.94.84,5.28,2.38,1.2,1.37,1.81,3.03,1.81,4.92v3.49c.05,1.57-.03,3.64-.96,5.45.02.02.04.04.06.06,1.31,1.31,1.95,3.22,1.95,5.84v2.17c0,1.49-.29,2.8-.86,3.91.75,1.46.86,3.07.86,4.28v2.17c0,1.66-.34,3.05-1.03,4.22.45.92.68,1.97.68,3.13,0,.25-.02.5-.06.75-.59,3.49-1.67,6.63-3.22,9.41.78.38,1.47.91,2.03,1.59.96,1.15,1.54,2.43,1.71,3.79.02.19.04.37.04.56v5.46c0,2.07-.54,3.77-1.6,5.05-.17.21-.37.4-.58.58-1.3,1.08-2.95,1.55-4.88,1.38-3.08-.17-6.23-1.41-9.56-3.76-3.13,2.32-6.87,3.61-10.98,3.76-2.06.17-3.47-.42-4.42-1.1-1.65.78-3.59,1.18-5.8,1.18ZM108.45,61.03c.09.35.13.71.13,1.08v.06c.57-.08.99-.22,1.21-.43.12-.17.42-.7.57-2.02-.56.56-1.2,1-1.91,1.3ZM119.85,61.01v.83c1.07-.26,2.05-.67,2.96-1.25-.87.2-1.85.34-2.96.42ZM82.39,59.92v1.62c.64-.29,1.4-.72,2.27-1.31,1.6-1.1,3.3-2.63,5.17-4.66-.02.02-.03.03-.05.05-2.32,2.15-4.8,3.6-7.38,4.3ZM134.86,60.64c.56.35,1.08.63,1.54.85v-.55c-.52-.07-1.03-.17-1.54-.29ZM138.66,61.09h0,0ZM94.63,52.44c.77,0,1.54.2,2.25.6l4.03,2.33v-.67c0-.21,0-.38-.01-.52-.21-.14-.49-.32-.89-.55l-2.43-1.39c-1.87-1.07-2.72-3.32-2.02-5.37.09-.28.18-.55.26-.83-.53.87-1.34,1.55-2.31,1.9-1.27.46-2.67.33-3.83-.36l-4.13-2.45c-1.49-.88-2.32-2.52-2.19-4.2l-1.03,3.97s-.03.09-.04.14c0,0,0,0,0,0,.07.05.16.1.29.17l6.16,3.08c1.32.66,2.23,1.93,2.44,3.39.18,1.23-.17,2.47-.92,3.43.32-.35.64-.72.96-1.1.88-1.03,2.14-1.57,3.42-1.57ZM101.36,54.54h0s0,0,0,0ZM119.7,44.91c.72.32,1.36.83,1.83,1.49.06.09.13.18.2.27.48-.79,1.19-1.4,2.01-1.76h-4.03ZM133.36,44.91c.57.25,1.09.63,1.51,1.1.14-.36.26-.72.38-1.1h-1.89ZM112.5,44.2v1.04c.34-.22.72-.4,1.12-.52-.4-.12-.77-.3-1.12-.52ZM109.7,34.01c.69.28,1.29.73,1.76,1.3.47-.57,1.07-1.01,1.76-1.3-.69-.28-1.29-.73-1.76-1.3-.47.57-1.07,1.01-1.76,1.3ZM81.49,24.36h.33c1.39,0,2.71.64,3.56,1.74.71.91,1.03,2.06.92,3.19l.41-1.57c.52-1.98,2.31-3.37,4.36-3.37h1.54c1.99,0,3.67,1.29,4.27,3.08.6-1.79,2.28-3.08,4.27-3.08h.8c.28-.29.59-.54.93-.75-.35-.21-.66-.46-.93-.75h-8.15c-1.4,0-2.72-.65-3.57-1.76-.63-.82-.95-1.82-.93-2.83l-.32,1.22c-.52,1.98-2.31,3.37-4.35,3.37h-3.13v1.5ZM110.25,23.91c.47.27.88.62,1.22,1.03.74-.89,1.81-1.49,3.03-1.61-.53-.32-.99-.75-1.35-1.26-.08.11-.16.22-.25.32-.68.81-1.62,1.34-2.65,1.52ZM131.36,23.31h2.7c-.39-.24-.74-.53-1.04-.88-.11-.13-.22-.26-.31-.4-.36.52-.82.96-1.35,1.29ZM121.14,23.31h2.63c-.52-.32-.96-.74-1.32-1.24-.08.11-.16.22-.25.32-.31.36-.67.67-1.07.92ZM120.34,12.85c.66.32,1.23.8,1.66,1.4.06-.08.11-.15.18-.23.41-.5.92-.89,1.49-1.17h-3.32ZM111.03,12.85c.66.32,1.23.8,1.66,1.4.06-.08.11-.15.17-.23.41-.5.92-.89,1.49-1.17h-3.32ZM130.8,12.58c.84.25,1.59.75,2.16,1.43.03.04.06.07.09.11.51-.8,1.26-1.43,2.17-1.78,0-.19.01-.44,0-.76,0-.05,0-.11,0-.16v-1.87h-.79c-.52,1.25-1.62,2.5-3.62,3.02ZM99.64,13.86h.85v-2.92c0-.1,0-.2,0-.3l-.86,3.22Z"/><path class="cls-2" d="M211.32,71.24h-10.22s-.07,0-.11,0c-3.51-.08-6.37-.93-8.52-2.51-.14.17-.29.34-.45.5-.09.09-.19.18-.29.26-1.24,1.04-2.84,1.61-4.5,1.61h-7.7c-1.62,0-3.22-.54-4.43-1.5-.37-.28-.7-.6-.99-.94-2.16,1.63-5.05,2.5-8.61,2.58-.04,0-.07,0-.11,0h-10.22c-2.02,0-3.87-.74-5.21-2.09-1.32-1.32-2.02-3.03-2.02-4.93v-3.85c0-1.9.7-3.61,2.01-4.93,1.03-1.03,2.35-1.7,3.81-1.97-1.43-.33-2.71-1.06-3.69-2.14-1.35-1.39-2.06-3.13-2.06-5.04V12.55c0-1.84.69-3.49,2.06-4.91.97-1.06,2.68-2.25,5.45-2.25h6.37c.37,0,.73.02,1.08.07.25-.91.67-1.72,1.27-2.45.08-.1.17-.2.26-.29,1.2-1.21,2.81-1.82,4.8-1.82h39.41c1.98,0,3.6.61,4.8,1.81.09.1.19.2.27.3,1.06,1.28,1.6,2.81,1.6,4.56v28.93c.56.27,1.12.64,1.62,1.14.1.1.19.2.28.3,1.08,1.29,1.6,3.08,1.6,5.47v2.8c0,1.88-.47,3.48-1.4,4.78-.08.11-.16.21-.25.31-.75.87-2.04,1.88-4.17,2.22,1.32.3,2.5.95,3.44,1.89,1.32,1.32,2.02,3.03,2.02,4.93v3.85c0,1.91-.7,3.61-2.02,4.93-1.35,1.35-3.2,2.09-5.21,2.09ZM201.16,62.24h3.48c-1.47-.25-2.8-.93-3.85-1.98-1.33-1.32-2.07-3.14-2.09-5.12h-1.57v3.9c0,1.15.2,2,.56,2.34.14.13.97.8,3.47.86ZM161.88,62.24h3.46c2.5-.07,3.33-.73,3.47-.87.35-.33.55-1.18.55-2.33v-3.9h-1.57c-.02,1.98-.76,3.8-2.09,5.12-1.06,1.06-2.36,1.73-3.82,1.98ZM181.66,62.1h3.25v-12.93c0-2.14,1.5-3.94,3.51-4.39h-10.27c2.01.45,3.51,2.25,3.51,4.39v12.93ZM157.02,44.66h6.83c-2.01-.45-3.51-2.25-3.51-4.39V14.39h-3.32v30.27ZM202.37,34.23h4.03V9.91h-3.87c.35.64.55,1.37.55,2.15v2.17c0,1.3-.55,2.47-1.43,3.29.88.82,1.43,1.99,1.43,3.29v2.17c0,1.28-.53,2.44-1.39,3.25.86.82,1.39,1.97,1.39,3.25v2.31c0,.89-.26,1.73-.71,2.43ZM171.72,34.23h3.96c-.45-.7-.71-1.53-.71-2.43v-2.31c0-1.28.53-2.44,1.39-3.25-.86-.82-1.39-1.97-1.39-3.25v-2.17c0-1.3.55-2.47,1.43-3.29-.88-.82-1.43-1.99-1.43-3.29v-2.17c0-.78.2-1.51.55-2.15h-3.8v24.32ZM208.78,9.91h.01-.01Z"/><path class="cls-3" d="M61.73,69.78c-.25,0-.52-.01-.8-.04-5.5.1-11.21-.81-16.92-2.75-5.41,1.94-11.43,2.87-17.95,2.75-1.86.19-3.51-.31-4.58-1.37-.56-.56-.99-1.27-1.26-2.11-3,2.36-6.21,3.43-9.78,3.27-2.18,0-3.69-.44-4.75-1.35-1.75-1.5-1.75-3.72-1.75-4.45v-3.01c0-1.64.59-3.1,1.72-4.22.04-.04.08-.08.13-.12,1.19-1.06,2.78-1.6,4.72-1.6.43,0,.68-.06.79-.09.11-.26.32-.96.27-2.4,0-.04,0-.07,0-.11v-6.51c0-.33.02-.65.05-.95-.66-.13-1.24-.35-1.76-.65-.08-.05-.17-.1-.25-.16-.92-.66-2.03-1.98-2.03-4.54v-3.64c0-.33.02-.63.05-.92h-.27c-.8,0-3.23,0-4.71-1.97-.78-1.09-1.16-2.39-1.16-3.83v-6.09c0-2.07.41-3.57,1.25-4.58.12-.14.24-.26.38-.38,1-.84,2.42-1.26,4.24-1.26h3.67c0-.05,0-.11.01-.16-.45-.67-.81-1.63-.81-3v-2.87c0-1.57.53-2.89,1.58-3.94.05-.05.11-.11.17-.16,1.08-.93,2.41-1.42,3.84-1.42h27c.38-.57.82-1.19,1.33-1.78,1.05-1.2,2.5-1.87,4.08-1.87h6.65c1.54,0,2.86.56,4.01,1.72.05.05.09.1.14.15.94,1.08,1.43,2.38,1.44,3.88.07,2.17-.59,4.18-1.91,5.9.24.17.47.36.69.58.05.04.09.09.13.14.73.83,1.12,1.82,1.15,2.83h2.61c1.88,0,3.29.41,4.31,1.26.14.12.26.24.38.38.8.96,1.21,2.33,1.32,4.42,0,.05,0,.11,0,.16v5.95c0,1.63-.37,2.93-1.12,3.99-.05.07-.1.14-.16.21-1.5,1.75-3.93,1.75-4.73,1.75h-1.69v3.44c0,1.77-.33,3.13-1.02,4.12.63.96.95,2.14.95,3.51-.1,3.37-.86,6.38-2.25,9.03.73.06,1.43.04,2.12.09,2.35.17,3.62,1.17,4.29,2.02.8.96,1.3,2.23,1.42,3.58,0,.09.01.18.01.27v2.66c0,2.12-.43,3.61-1.35,4.68-.05.06-.1.12-.16.17-.67.68-1.85,1.41-3.77,1.41ZM43.98,60.79c.34,0,.69.06,1.02.18,5.51,1.99,10.73,2.9,15.99,2.76h.01c0-.07,0-.14,0-.22v-2.48s0-.03,0-.04c-.02,0-.04,0-.06,0-2.39-.01-4.98-.34-7.71-.99-1.05-.25-1.88-1.04-2.18-2.07-.31-1.03-.04-2.15.71-2.92,2.28-2.39,3.47-5.31,3.64-8.92-.08,0-.18,0-.28,0H17.58v6.05c.08,2.42-.33,4.38-1.22,5.83-.65,1.05-2.27,2.83-5.84,2.83-.26,0-.45.02-.57.05v2.69c.19.01.44,0,.71.02,2.17.11,4.06-.56,5.96-2.08.99-.79,2.69-3.2,3.01-10.46.07-1.6,1.39-2.87,3-2.87h7.63c1.3,0,2.46.84,2.86,2.08.62,1.93,1.51,3.82,2.63,5.64.54.86.6,1.94.16,2.86-.43.92-1.3,1.56-2.31,1.69-2.8.38-5.34.58-7.56.59-.08,0-.15.02-.2.03,0,0,0,.01,0,.02v2.48c0,.08,0,.15,0,.22.05,0,.09,0,.14,0,6.22.12,11.91-.79,16.91-2.74.35-.14.72-.21,1.09-.21ZM25.42,54.12c-.03.31-.07.61-.1.9.13-.01.26-.03.39-.04.88-.06,1.79-.03,2.78-.1-.11-.26-.22-.51-.33-.77h-2.74ZM29.07,39.19h0s0,0,0,0ZM22,39.01h0,0ZM13.59,38.88h.92c2.4,0,4.11-.6,5.23-1.84,1.05-1.26,1.62-3.58,1.64-6.72h-1.41s-.05,0-.08,0c0,.12-.01.24-.03.36-.15,1.06-.44,2.42-1.36,3.53-.06.07-.12.14-.18.2-.96.96-2.38,1.44-4.22,1.44h-.5v3.03ZM29,38.46h26.48c0-.07,0-.14,0-.22v-3.72h-1.56v.08c0,1.66-1.34,3-3,3h-16.1c-1.92,0-3.98-1.33-3.98-4.26v-3.02h-1.84v7.92c0,.08,0,.15,0,.22ZM45.8,30.48s.05,0,.08,0v-.09s-.05,0-.09,0v.08h0ZM38.16,30.48s.06,0,.09,0v-.09s-.06,0-.09,0v.08ZM12.88,29.23s0,0,0,0c0,0,0,0,0,0ZM57.77,28.8h5.41v-5.81c0-.11-.01-.21-.02-.3h-6.78c-1.02,0-1.98-.52-2.53-1.39-.55-.86-.62-1.95-.19-2.88l.17-.36h-3.19c-.35,0-.69-.06-1-.17-.16.23-.46.68-.92,1.48l-.88,1.7c-.52.99-1.54,1.62-2.66,1.62h-4.27c-1.09,0-2.09-.59-2.62-1.53l-.98-1.75s-.04-.08-.07-.12c-.34-.68-.68-1.19-.93-1.57-.61-.92-.67-2.1-.15-3.08.52-.98,1.54-1.58,2.65-1.58h4.41c1.57,0,2.81-.08,3.78-.24.52-.09,1.04-.03,1.52.14.35-.35.79-.62,1.3-.77,1.04-.3,2.21-1.01,3.48-2.11.83-.76,1.23-1.57,1.21-2.58h-5.96c-.3.37-.59.8-.89,1.25-.57.95-1.92,2.39-4.85,2.39h-26.54v2.07c.6.4,1.04,1.01,1.23,1.72.19.72.11,1.49-.23,2.14l.64,1.29c.46.93.42,2.03-.13,2.92-.55.88-1.51,1.42-2.55,1.42h-7.71c0,.07,0,.14,0,.22v5.89h5.41v-2.81c0-1.66,1.34-3,3-3h38.85c1.66,0,3,1.34,3,3v2.81ZM16.91,16.39h0s0,0,0,0ZM15.53,12.86s0,0,0,0c0,0,0,0,0,0ZM15.61,12.72h0s0,0,0,0ZM43.98,57.41c-.38,0-.76-.07-1.11-.21-2.46-.98-4.48-2.35-6.02-4.07-.79-.88-.99-2.14-.5-3.22.48-1.08,1.56-1.78,2.74-1.78h9.1c1.15,0,2.2.66,2.7,1.69.5,1.04.37,2.26-.34,3.17-1.36,1.72-3.13,3.11-5.26,4.14-.41.2-.85.29-1.3.29ZM29.7,22.69h-3.29c-1.09,0-2.09-.59-2.62-1.54l-.98-1.75s-.04-.08-.06-.12c-.34-.67-.68-1.19-.93-1.57-.61-.92-.67-2.1-.15-3.08.52-.98,1.54-1.58,2.64-1.58h4.48c1.12,0,2.15.63,2.67,1.63.36.7.43,1.5.21,2.23l.72,1.44c.46.93.42,2.03-.13,2.92s-1.51,1.42-2.55,1.42Z"/><path class="cls-3" d="M107.58,69.74h-1.47c-.69,0-2.79,0-4.01-1.62-.67-.83-1.02-2.02-1.02-3.55v-.45c-.07-.04-.15-.09-.22-.13l-5.61-3.23c-2.22,2.4-4.31,4.26-6.34,5.66-2.89,1.98-5.65,3.07-8.21,3.25-.16.01-.32,0-.48,0-1.64-.15-2.74-.85-3.42-1.36-.11-.08-.22-.18-.32-.28-1.05-1.05-1.58-2.37-1.58-3.94v-5.74c0-1.52.45-2.77,1.35-3.71,1.01-1.13,2.45-1.57,3.61-1.81.26-.05.51-.11.76-.19l-1.4-.7c-1.89-.95-3.22-2.29-3.87-3.89-.7-1.57-.79-3.29-.26-5.1l2.91-11.26c-.88-.21-1.87-.64-2.66-1.56-.91-1.06-1.35-2.43-1.35-4.19v-4.34c0-1.37.16-3.35,1.5-4.71,1.51-1.51,3.66-1.51,4.37-1.51h2.44l2.01-7.7c.52-1.88,1.2-3.13,2.13-3.97.95-.9,2.27-1.36,3.92-1.36h4.13c1.01,0,4.04,0,5.02,2.49.61,1.41.25,2.93-.18,4.37l-1.64,6.17h4.4c-.06-.34-.1-.7-.1-1.06v-3.36c0-1.52.56-2.85,1.65-3.94.05-.05.11-.1.16-.15.98-.84,2.18-1.35,3.48-1.48.1,0,.2-.01.3-.01h20.29c.24-.49.57-.96.97-1.43.04-.05.09-.1.13-.14,1.14-1.14,2.47-1.72,3.94-1.72h4.2c1.65,0,3.08.64,4.15,1.87.96,1.09,1.44,2.41,1.44,3.93v3.52c.06,1.73-.05,4.14-1.51,5.8.31.16.59.34.85.56.07.06.14.12.2.18,1.35,1.35,1.51,3.38,1.51,4.78v2.17c0,1.58-.38,2.9-1.13,3.91,1,1.32,1.13,3.04,1.13,4.28v2.17c0,1.74-.43,3.1-1.32,4.16.97,1.31.97,2.7.97,3.19,0,.17-.01.33-.04.5-.69,4.07-2.02,7.56-4.03,10.54,1.6.18,2.59.98,3.16,1.67.78.93,1.24,1.95,1.37,3.02.02.12.02.25.02.37v5.46c0,1.71-.42,3.09-1.25,4.09-.12.14-.25.27-.39.39-1.46,1.22-3.17,1.1-3.82,1.04-3.06-.16-6.25-1.52-9.68-4.14-3.07,2.6-6.78,3.99-11.05,4.14-1.63.15-2.96-.27-3.92-1.22-.07-.07-.14-.14-.2-.21-1.62,1.01-3.63,1.51-6.01,1.51ZM107.08,63.74h.5c2.44,0,3.14-.78,3.37-1.03.42-.5.99-1.75.99-4.58v-9.1c0-1.66,1.34-3,3-3h2.94c.97,0,1.88.47,2.44,1.26.56.78,1.44,1.85,2.66,3.24-.53-.92-.53-2.05,0-2.97.53-.94,1.53-1.52,2.61-1.52h5.95c1.05,0,2.03.55,2.57,1.46.54.9.57,2.03.07,2.96-.09.16-.18.33-.28.5,1.57-2.11,2.66-4.59,3.31-7.52h-22.27c-1.66,0-3-1.34-3-3v-2.24c0-1.66,1.34-3,3-3h22.83v-2.11c0-.08,0-.15,0-.22h-22.83c-1.66,0-3-1.34-3-3v-2.03c0-1.66,1.34-3,3-3h22.83v-2.11c0-.08,0-.15,0-.22h-1.34c-.87,0-1.7-.38-2.27-1.03-.57-.66-.83-1.53-.7-2.39l.42-2.94c.16-1.1.91-2.02,1.95-2.4.27-.1.52-.24.79-.46.05-.22.14-.73.1-1.73,0-.04,0-.07,0-.11v-3.37h-3.42c-.15,1.08-.93,3.29-4.71,3.29h-20.59v2.54h1.06c1.47,0,2.73,1.07,2.96,2.52l.42,2.59c.14.87-.11,1.75-.68,2.42-.57.67-1.41,1.06-2.29,1.06h-2.45c-.35,0-.54.02-.62.03-.8.35-1.72.33-2.51-.05-.51-.25-.93-.63-1.22-1.09-.08,0-.17,0-.26,0h-8.61c-.93,0-1.81-.43-2.38-1.17-.57-.74-.76-1.7-.52-2.6l2.46-9.25h-2.95c-.08.18-.18.46-.3.88l-2.58,9.89c-.34,1.32-1.54,2.24-2.9,2.24h-4.63c0,.07,0,.14,0,.22v4.28h1.83c.93,0,1.8.43,2.37,1.16.57.73.76,1.69.53,2.59l-3.85,14.91c-.21.71-.11.93-.04,1.07.03.06.05.12.08.18.04.09.3.43.99.77l6.16,3.08c.88.44,1.49,1.28,1.63,2.26.14.97-.21,1.96-.93,2.62-2.43,2.25-5.02,3.66-7.7,4.18-.06.01-.11.03-.16.04v4.87c1.34-.24,2.89-.96,4.62-2.14,2.1-1.44,4.33-3.56,6.84-6.48.94-1.1,2.53-1.36,3.78-.65l6.45,3.72c-.11-.31-.16-.64-.16-.98v-2.38c0-.77-.06-1.17-.09-1.35-.1-.08-.52-.42-1.56-1.02l-2.44-1.39c-1.25-.71-1.82-2.21-1.35-3.58.78-2.26,1.17-4.6,1.17-6.94v-11.55c0-1.66,1.34-3,3-3h1.26c.22,0,.31-.04.31-.04.82-1.27,2.43-1.72,3.79-1.07.04.01.21.05.52.05h.98c1.66,0,3,1.34,3,3v2.03c0,1.66-1.34,3-3,3h-.85c0,.07,0,.14,0,.22v2.11h.85c1.66,0,3,1.34,3,3v14.56c.09,1.9-.15,3.4-.74,4.56-.84,1.69-2.31,2.67-4.04,2.71.54.54.86,1.29.86,2.11v1.62ZM118.35,59.58v4.03c3.22-.3,5.83-1.65,7.97-4.1.53-.6,1.27-.97,2.07-1.02.81-.05,1.58.22,2.18.75,2.78,2.47,5.25,3.92,7.33,4.32v-3.99c-1.82-.09-3.57-.51-5.34-1.28-.93-.4-1.59-1.25-1.76-2.25-.06-.34-.06-.68,0-1.01-1.11,1.22-3.21,1.26-4.36.09.03.24.04.48.01.72-.09.86-.54,1.64-1.24,2.14-1.44,1.03-3.58,1.53-6.86,1.6ZM106.34,59.93s0,0,0,0c0,0,0,0,0,0ZM138.68,59.59h0,0ZM102.5,53.57h0s0,0,0,0ZM103.35,46.89l.4.23c.46.27.88.52,1.25.77v-6.94c-.28-.07-.57-.17-.86-.29-.02,2.09-.28,4.18-.79,6.23ZM106.54,22.44s0,0,0,0c0,0,0,0,0,0ZM102.26,20.35s0,0,0,0c0,0,0,0,0,0ZM90.59,8.02s0,0,0,0c0,0,0,0,0,0ZM91.97,46.7c-.53,0-1.06-.14-1.53-.42l-4.13-2.45c-1.15-.68-1.71-2.04-1.37-3.33l3.22-12.39c.34-1.32,1.54-2.25,2.9-2.25h1.54c1.66,0,3,1.34,3,3v9.94c0,2.41-.27,4.39-.8,5.9-.3.85-.96,1.51-1.81,1.82-.33.12-.68.18-1.02.18ZM129,22.48h-2.87c-1.44,0-2.68-1.03-2.95-2.44l-.49-2.59c-.17-.88.07-1.78.64-2.47.57-.69,1.42-1.09,2.31-1.09h3.85c.89,0,1.74.4,2.31,1.09.57.69.8,1.59.64,2.47l-.49,2.59c-.27,1.42-1.51,2.44-2.95,2.44ZM118.78,22.48h-1.96c-1.44,0-2.68-1.03-2.95-2.44l-.49-2.59c-.17-.88.07-1.78.64-2.47.57-.69,1.42-1.09,2.31-1.09h2.03c1.47,0,2.73,1.07,2.96,2.52l.42,2.59c.14.87-.11,1.75-.68,2.42-.57.67-1.41,1.06-2.29,1.06Z"/><path class="cls-3" d="M211.32,69.74h-10.22c-3.76-.09-6.62-1.07-8.57-2.92-.15-.14-.3-.29-.44-.45-.24.69-.62,1.3-1.12,1.79-.06.06-.13.12-.19.18-.97.81-2.23,1.26-3.54,1.26h-7.7c-1.29,0-2.57-.43-3.52-1.19-.72-.54-1.24-1.26-1.55-2.11-.16.18-.32.35-.5.52-1.96,1.85-4.82,2.84-8.5,2.92h-10.29c-1.62,0-3.09-.58-4.15-1.65-1.05-1.05-1.58-2.35-1.58-3.87v-3.85c0-1.52.53-2.82,1.58-3.87,1.06-1.07,2.54-1.65,4.15-1.65h5.12v-1.62c0-.36.04-.71.11-1.06h-4.87c-1.75,0-3.26-.64-4.36-1.86-1.08-1.11-1.65-2.5-1.65-4.01V12.55c0-1.45.56-2.75,1.65-3.88.76-.83,2.12-1.78,4.36-1.78h6.37c.83,0,1.61.15,2.32.45.02-.92.21-2.19,1.18-3.36.06-.07.11-.13.18-.19,1.37-1.38,3.15-1.38,3.74-1.38h39.41c.59,0,2.37,0,3.74,1.37.06.06.12.13.18.2.84,1.01,1.25,2.19,1.25,3.6v29.05c0,.3-.02.6-.06.89.76.2,1.5.56,2.13,1.19.06.06.13.13.18.2.84,1.01,1.25,2.49,1.25,4.51v2.8c0,1.56-.38,2.87-1.12,3.91-.05.07-.11.14-.16.21-.71.83-2.08,1.82-4.59,1.82h-5.43c.07.35.1.7.1,1.06v1.62h5.12c1.61,0,3.09.58,4.15,1.65,1.05,1.05,1.58,2.35,1.58,3.87v3.85c0,1.52-.53,2.82-1.58,3.87-1.06,1.06-2.54,1.65-4.15,1.65ZM195.63,53.63v5.4c0,1.63.34,2.78,1.03,3.42.82.77,2.42,1.23,4.52,1.28h9.88v-2.89h-5.12c-1.57,0-3.02-.59-4.08-1.66-1.06-1.06-1.65-2.53-1.65-4.15v-1.41h-4.57ZM155.45,63.73h9.95c2.02-.04,3.63-.5,4.45-1.27.68-.64,1.02-1.8,1.02-3.42v-5.4h-4.57v1.41c0,1.62-.59,3.09-1.65,4.15-1.08,1.08-2.49,1.65-4.08,1.65h-5.12v2.88ZM180.16,63.6h6.25v-14.43c0-1.66,1.34-3,3-3h21.99v-2.74c0-.05,0-.1,0-.15h-46.56c-1.66,0-3-1.34-3-3V12.89h-6.31s0,0,0,0v33.27h21.64c1.66,0,3,1.34,3,3v14.43ZM170.22,35.73h37.68V8.41s-37.68,0-37.68,0v27.32ZM208.92,8.42h0,0ZM198.58,34.8h-19.11c-1.66,0-3-1.34-3-3v-2.31c0-1.66,1.34-3,3-3h19.11c1.66,0,3,1.34,3,3v2.31c0,1.66-1.34,3-3,3ZM198.58,25.98h-19.11c-1.66,0-3-1.34-3-3v-2.17c0-1.66,1.34-3,3-3h19.11c1.66,0,3,1.34,3,3v2.17c0,1.66-1.34,3-3,3ZM198.58,17.23h-19.11c-1.66,0-3-1.34-3-3v-2.17c0-1.66,1.34-3,3-3h19.11c1.66,0,3,1.34,3,3v2.17c0,1.66-1.34,3-3,3Z"/><path class="cls-2" d="M14.58,15.7c-.21-.07-.49-.28-.84-.63-.35-.28-.49-.84-.49-1.54v-2.87c0-.77.21-1.33.7-1.82.49-.42,1.12-.7,1.89-.7h26.95c1.19,0,1.96-.35,2.31-.98.42-.63.84-1.26,1.33-1.82s1.12-.84,1.82-.84h6.65c.77,0,1.33.28,1.89.84.49.56.7,1.19.7,1.96.07,1.96-.7,3.64-2.24,5.04-1.61,1.4-3.15,2.31-4.62,2.73h3.92c1.19,0,2.03.21,2.59.77.49.56.56,1.19.14,1.89l-.91,1.96h6.79c1.19,0,1.96.21,2.38.56.35.42.56,1.33.63,2.66v5.95c0,1.05-.21,1.75-.56,2.24-.42.49-1.26.7-2.45.7h-5.81c.77.77,1.12,1.61,1.12,2.66v3.78c0,1.26-.21,2.17-.63,2.59s-1.19.63-2.38.63h-26.6c-1.05,0-1.82-.21-2.24-.63s-.63-1.26-.63-2.59v-8.05c0-1.05.21-1.82.56-2.24.42-.49,1.12-.7,2.17-.63h2.24c1.12-.07,1.89.14,2.24.63.42.49.63,1.26.63,2.24v3.15c0,.84.28,1.26.98,1.26h16.1c0-1.19.21-2.03.63-2.45s1.05-.63,1.96-.63h2.8c-1.05-.7-1.54-1.47-1.54-2.52v-3.01H15.91v3.01c0,.84-.21,1.54-.63,2.03-.42.56-1.12.77-2.17.77h-5.74c-1.12,0-1.89-.21-2.31-.77-.35-.49-.56-1.19-.56-2.03v-6.09c0-1.33.21-2.24.56-2.66.42-.35,1.19-.56,2.31-.56h7.84l-.98-1.96c-.35-.7-.21-1.4.35-2.03ZM53.93,57.07c2.66.63,5.04.91,7.14.91.98.07,1.75.35,2.17.91.42.49.7,1.19.77,1.96v2.66c0,1.33-.21,2.24-.63,2.73-.42.42-1.19.63-2.31.49-5.6.14-11.27-.84-17.08-2.94-5.39,2.1-11.41,3.08-18.06,2.94-1.05.14-1.89-.07-2.31-.49-.49-.49-.77-1.4-.77-2.73v-2.66c.07-.77.35-1.47.84-1.96.49-.56,1.26-.84,2.24-.91,1.82,0,4.2-.14,7.28-.56-1.26-2.03-2.24-4.13-2.94-6.3h-7.63c-.28,6.51-1.68,10.71-4.13,12.67-2.45,1.96-5.04,2.87-7.98,2.73-1.4,0-2.38-.21-2.87-.63s-.7-1.12-.7-2.17v-3.01c0-.84.28-1.54.84-2.1.63-.56,1.54-.84,2.73-.84,1.61,0,2.73-.49,3.29-1.4.56-.91.84-2.31.77-4.2v-6.51c0-1.05.21-1.75.7-2.1.42-.35,1.19-.49,2.17-.49h37.66c1.33,0,2.24.21,2.66.7s.63,1.19.63,2.1c-.14,4.48-1.61,8.19-4.48,11.2ZM22,39.01c-1.68,1.89-4.13,2.87-7.49,2.87h-1.05c-.91,0-1.61-.14-2.1-.42-.49-.35-.77-1.05-.77-2.1v-3.64c0-1.12.28-1.89.7-2.31.49-.35,1.19-.56,2.17-.56h.63c1.05,0,1.75-.21,2.1-.56.35-.42.56-1.05.7-2.03,0-.84.28-1.61.77-2.17s1.26-.84,2.31-.77h1.4c.98-.07,1.75.21,2.24.77s.77,1.19.77,2.03c0,3.99-.77,7-2.38,8.89ZM28.79,16.05h-4.48c.28.42.7,1.05,1.12,1.89l.98,1.75h3.29l-.98-1.96c-.28-.63-.28-1.19.07-1.68ZM40.41,32.64c-.56.56-1.26.84-2.1.84-.98,0-1.75-.28-2.31-.84-.49-.56-.77-1.19-.84-1.89v-.7c.07-.7.35-1.26.84-1.82.56-.56,1.26-.84,2.17-.84s1.68.28,2.24.84.84,1.12.84,1.82v.7c0,.7-.28,1.33-.84,1.89ZM38.8,16.05c.28.42.7,1.05,1.12,1.89l.98,1.75h4.27l.91-1.75c.56-.98,1.05-1.75,1.4-2.17-1.26.21-2.73.28-4.27.28h-4.41ZM48.18,51.13h-9.1c1.19,1.33,2.8,2.45,4.9,3.29,1.75-.84,3.15-1.96,4.2-3.29ZM48.05,32.64c-.56.56-1.26.84-2.1.84-.98,0-1.75-.28-2.24-.84-.56-.56-.84-1.19-.91-1.89v-.7c.07-.7.35-1.26.91-1.82.49-.56,1.19-.84,2.1-.84s1.68.28,2.24.84.84,1.12.84,1.82v.7c0,.7-.28,1.33-.84,1.89Z"/><path class="cls-2" d="M133.76,55.54c1.61.7,3.22,1.05,4.9,1.05.7,0,1.19.21,1.54.63.35.42.63.91.7,1.47v5.46c0,1.05-.21,1.75-.56,2.17-.42.35-.98.42-1.68.35-3.01-.14-6.37-1.89-10.08-5.18-2.87,3.29-6.58,5.04-11.06,5.18-.7.07-1.26,0-1.61-.35-.42-.42-.56-1.12-.56-2.17v-5.46c0-.56.21-1.05.63-1.47.35-.42.84-.63,1.54-.63,3.01,0,4.97-.35,5.95-1.05-2.66-2.87-4.55-5.04-5.6-6.51h-2.94v9.1c0,3.01-.56,5.18-1.75,6.58-1.19,1.33-3.01,2.03-5.6,2.03h-1.47c-.84,0-1.4-.14-1.61-.42-.28-.35-.42-.91-.42-1.75v-2.45c-.42-.07-.98-.28-1.68-.7l-7.77-4.48c-2.52,2.94-4.97,5.32-7.42,7s-4.69,2.59-6.72,2.73c-.77-.07-1.33-.35-1.89-.77-.49-.49-.7-1.05-.7-1.82v-5.74c0-.7.14-1.26.56-1.68.35-.42,1.05-.7,2.03-.91,2.17-.42,4.27-1.61,6.23-3.43l-6.16-3.08c-1.26-.63-2.1-1.47-2.45-2.38-.42-.91-.49-1.89-.14-3.08l3.85-14.91h-1.96c-1.12,0-1.82-.21-2.24-.7s-.63-1.19-.63-2.24v-4.34c0-1.33.21-2.17.63-2.59.42-.42,1.12-.63,2.24-.63h4.76l2.59-9.94c.35-1.26.77-2.1,1.26-2.52.42-.42,1.12-.56,1.89-.56h4.13c1.33,0,2.1.21,2.24.63.21.42.07,1.19-.28,2.38l-2.66,10.01h8.61c1.19,0,1.96.14,2.24.42.28.35.49.63.56.98.42-.21,1.05-.28,1.82-.28h2.45l-.42-2.59h-1.47c-.7-.07-1.33-.35-1.82-.77-.49-.49-.77-1.05-.77-1.82v-3.36c0-.77.28-1.33.77-1.82.49-.42,1.12-.7,1.82-.77h21c1.19,0,1.75-.21,1.75-.77s.28-1.12.77-1.68c.56-.56,1.12-.84,1.82-.84h4.2c.77,0,1.4.28,1.89.84.49.56.7,1.19.7,1.96v3.57c.07,1.96-.21,3.22-.84,3.85-.63.56-1.26.98-2.03,1.26l-.42,2.94h1.33c1.19,0,1.96.21,2.38.56.42.42.63,1.33.63,2.66v2.17c0,.98-.21,1.75-.63,2.24-.42.42-1.19.7-2.38.7h-22.82v2.03h22.82c1.19,0,1.96.21,2.38.63s.63,1.26.63,2.59v2.17c0,1.05-.21,1.75-.63,2.24s-1.19.7-2.38.7h-22.82v2.24h22.89c.98,0,1.68.21,2.03.56.42.42.56.91.56,1.61-.91,5.39-3.08,9.66-6.65,12.95ZM92.6,28.86h-1.54l-3.22,12.39,4.13,2.45c.42-1.19.63-2.87.63-4.9v-9.94ZM105.2,27.46c-.63.98-1.61,1.4-2.8,1.4h-1.26v11.55c0,2.8-.49,5.46-1.33,7.91l2.45,1.4c1.33.77,2.17,1.4,2.52,1.89.42.49.63,1.47.63,3.08v2.38c.21-.07.42-.07.7-.07.63,0,1.12-.35,1.47-1.05s.49-1.75.42-3.15v-14.63h-.98c-1.12,0-1.89-.21-2.31-.7-.35-.49-.56-1.19-.56-2.24v-2.17c0-1.33.21-2.17.56-2.59.42-.42,1.19-.63,2.31-.63h.98v-2.03h-.98c-.77,0-1.4-.14-1.82-.35ZM118.78,19.48l-.42-2.59h-2.03l.49,2.59h1.96ZM131.52,49.02h-5.95c.63,1.05,1.61,2.38,3.01,3.99,1.4-1.61,2.38-2.94,2.94-3.99ZM129,19.48l.49-2.59h-3.85l.49,2.59h2.87Z"/><path class="cls-2" d="M171.35,50.63c.7.07,1.33.28,1.75.77.49.49.77,1.12.77,1.82v5.81c0,2.45-.63,4.34-1.96,5.6-1.33,1.26-3.5,2.03-6.51,2.1h-10.22c-.84,0-1.54-.28-2.03-.77-.49-.49-.7-1.05-.7-1.75v-3.85c0-.7.21-1.26.7-1.75.49-.49,1.19-.77,2.03-.77h5.39c.84,0,1.47-.28,1.96-.77.49-.49.77-1.19.77-2.03v-1.82c0-.7.28-1.33.77-1.82s1.12-.7,1.82-.77h5.46ZM189.41,49.16v15.26c0,.7-.21,1.26-.56,1.61-.42.35-.98.56-1.61.56h-7.7c-.63,0-1.26-.21-1.68-.56-.49-.35-.7-.91-.7-1.61v-15.26h-21.63c-.98,0-1.68-.35-2.17-.91-.56-.56-.84-1.19-.84-1.96V12.55c0-.7.28-1.26.84-1.82.49-.56,1.19-.84,2.17-.84h6.37c.84,0,1.54.28,2.1.84s.84,1.12.84,1.82v27.72h46.7c1.12,0,1.89.14,2.31.56.35.42.56,1.33.56,2.59v2.8c0,.98-.21,1.68-.56,2.17-.42.49-1.19.77-2.31.77h-22.12ZM210.34,5.9c.35.42.56.91.56,1.68v29.05c0,.7-.21,1.26-.56,1.61-.35.35-.84.49-1.61.49h-39.41c-.77,0-1.26-.14-1.61-.49-.35-.35-.49-.91-.49-1.61V7.58c0-.77.14-1.26.49-1.68.35-.35.84-.49,1.61-.49h39.41c.77,0,1.26.14,1.61.49ZM198.58,12.06h-19.11v2.17h19.11v-2.17ZM198.58,20.81h-19.11v2.17h19.11v-2.17ZM198.58,29.49h-19.11v2.31h19.11v-2.31ZM202.43,51.4c.49.49.77,1.12.77,1.82v1.82c0,.84.28,1.54.77,2.03.49.49,1.19.77,1.96.77h5.39c.84,0,1.54.28,2.03.77s.7,1.05.7,1.75v3.85c0,.7-.21,1.26-.7,1.75s-1.19.77-2.03.77h-10.22c-3.01-.07-5.18-.84-6.51-2.1-1.33-1.26-1.96-3.15-1.96-5.6v-5.81c0-.7.28-1.33.77-1.82.42-.49,1.05-.7,1.75-.77h5.46c.7.07,1.33.28,1.82.77Z"/></g></svg>