<?xml version="1.0" encoding="UTF-8"?><svg id="_レイヤー_2" xmlns="http://www.w3.org/2000/svg" viewBox="0 0 213.89 71.03"><defs><style>.cls-1,.cls-2,.cls-3{stroke-width:0px;}.cls-2{fill:#198caa;}.cls-3{fill:#fff;}</style></defs><g id="_レイヤー_4"><path class="cls-1" d="M6.81,27.11c-.42-.42-.63-1.19-.63-2.17v-1.96c0-1.26.21-2.17.63-2.59.42-.42,1.12-.63,2.24-.63h19.88v-2.59h-12.25c-.7,0-1.33-.28-1.82-.7-.49-.49-.77-1.05-.77-1.82v-2.94c0-.7.28-1.33.77-1.75.49-.49,1.12-.7,1.82-.77h24.92c1.33,0,2.17-.14,2.66-.35.49-.28.7-.77.7-1.4,0-.77.21-1.47.7-2.1.56-.56,1.12-.84,1.82-.84h5.88c.7,0,1.33.28,1.82.84.49.63.77,1.26.77,2.03,0,3.78-.98,6.37-3.01,7.77-2.03,1.33-5.53,2.03-10.5,2.03h-1.26v2.59h19.67c1.19,0,1.96.21,2.31.63.42.42.63,1.33.7,2.59v1.96c0,.98-.21,1.75-.63,2.17-.42.49-1.19.77-2.38.77h-9.17l10.99,7.14c1.05.84,1.82,1.47,2.24,1.89.42.35.63,1.26.63,2.59v4.62c0,.98-.21,1.68-.63,1.89-.35.28-1.12.21-2.24-.28l-7.56-4.97v21.49c0,1.47-.35,2.52-1.05,3.15-.7.7-1.68,1.05-3.01,1.05h-31.92c-1.4,0-2.52-.35-3.15-.98-.63-.63-.98-1.68-.98-3.15v-21.63l-7.63,5.04c-1.12.49-1.89.56-2.24.28-.42-.21-.63-.91-.63-1.89v-4.62c0-1.33.21-2.24.63-2.59.42-.42,1.19-1.05,2.24-1.89l10.99-7.14h-9.31c-1.12,0-1.82-.28-2.24-.77ZM28.93,31.45l-6.72,4.55h6.72v-4.55ZM27.81,46.86h14.49v-2.24h-14.49v2.24ZM27.81,57.57h14.49v-2.31h-14.49v2.31ZM41.18,36h6.65l-6.65-4.48v4.48Z"/><path class="cls-1" d="M90.83,4.78c.77,0,1.4.28,1.89.84.49.56.77,1.19.77,1.96v39.13c0,6.72-1.47,11.69-4.55,14.91s-6.3,4.76-9.8,4.76h-3.85c-.77-.07-1.33-.35-1.89-.77-.49-.49-.7-1.05-.7-1.82v-6.65c0-.77.21-1.33.7-1.82.56-.42,1.12-.7,1.89-.7,1.47-.07,2.66-.84,3.71-2.38,1.05-1.47,1.54-3.85,1.54-7.14V7.58c0-.77.28-1.4.77-1.96.49-.56,1.05-.84,1.75-.84h7.77ZM113.45,54.77c-.56.56-1.26.84-2.1.84h-7c-.91,0-1.61-.28-2.17-.84-.49-.49-.77-1.12-.84-1.89V7.37c.07-.7.35-1.33.84-1.89.56-.49,1.26-.77,2.17-.77h7c.84,0,1.54.28,2.1.77.56.56.84,1.19.84,1.89v45.5c0,.77-.28,1.4-.84,1.89ZM134.24,65.76c-.56.56-1.26.77-2.1.77h-7c-.91,0-1.68-.21-2.17-.77-.56-.56-.84-1.19-.84-1.96V7.37c0-.7.28-1.33.84-1.89.49-.49,1.26-.77,2.17-.77h7c.84,0,1.54.28,2.1.77.56.56.84,1.19.84,1.89v56.43c0,.77-.28,1.4-.84,1.96Z"/><path class="cls-1" d="M166.34,50.36c.7.07,1.33.28,1.75.77.49.49.77,1.12.77,1.82v5.81c0,2.45-.63,4.34-1.96,5.6-1.33,1.26-3.5,2.03-6.51,2.1h-10.22c-.84,0-1.54-.28-2.03-.77-.49-.49-.7-1.05-.7-1.75v-3.85c0-.7.21-1.26.7-1.75.49-.49,1.19-.77,2.03-.77h5.39c.84,0,1.47-.28,1.96-.77.49-.49.77-1.19.77-2.03v-1.82c0-.7.28-1.33.77-1.82s1.12-.7,1.82-.77h5.46ZM184.4,48.88v15.26c0,.7-.21,1.26-.56,1.61-.42.35-.98.56-1.61.56h-7.7c-.63,0-1.26-.21-1.68-.56-.49-.35-.7-.91-.7-1.61v-15.26h-21.63c-.98,0-1.68-.35-2.17-.91-.56-.56-.84-1.19-.84-1.96V12.27c0-.7.28-1.26.84-1.82.49-.56,1.19-.84,2.17-.84h6.37c.84,0,1.54.28,2.1.84.56.56.84,1.12.84,1.82v27.72h46.69c1.12,0,1.89.14,2.31.56.35.42.56,1.33.56,2.59v2.8c0,.98-.21,1.68-.56,2.17-.42.49-1.19.77-2.31.77h-22.12ZM205.33,5.62c.35.42.56.91.56,1.68v29.05c0,.7-.21,1.26-.56,1.61-.35.35-.84.49-1.61.49h-39.41c-.77,0-1.26-.14-1.61-.49-.35-.35-.49-.91-.49-1.61V7.3c0-.77.14-1.26.49-1.68.35-.35.84-.49,1.61-.49h39.41c.77,0,1.26.14,1.61.49ZM193.57,11.78h-19.11v2.17h19.11v-2.17ZM193.57,20.53h-19.11v2.17h19.11v-2.17ZM193.57,29.21h-19.11v2.31h19.11v-2.31ZM197.42,51.13c.49.49.77,1.12.77,1.82v1.82c0,.84.28,1.54.77,2.03.49.49,1.19.77,1.96.77h5.39c.84,0,1.54.28,2.03.77s.7,1.05.7,1.75v3.85c0,.7-.21,1.26-.7,1.75s-1.19.77-2.03.77h-10.22c-3.01-.07-5.18-.84-6.51-2.1-1.33-1.26-1.96-3.15-1.96-5.6v-5.81c0-.7.28-1.33.77-1.82.42-.49,1.05-.7,1.75-.77h5.46c.7.07,1.33.28,1.82.77Z"/><path class="cls-2" d="M51.05,70.96h-31.92c-2.64,0-4.83-.8-6.33-2.3-1.04-1.04-2.3-2.99-2.3-6.33v-13.27l-.65.43c-.21.14-.44.26-.68.37-3.13,1.37-5.22.79-6.49-.06-1.16-.73-2.68-2.32-2.68-5.67v-4.62c0-1,0-3.98,2.05-5.87.56-.54,1.32-1.17,2.51-2.12.1-.08.19-.15.3-.22-.57-.35-1.01-.75-1.35-1.13-.86-.92-1.82-2.54-1.82-5.22v-1.96c0-2.57.64-4.46,1.95-5.77,1.95-1.95,4.56-1.95,5.42-1.95h.57c-.02-.2-.03-.4-.03-.61v-2.94c0-1.95.8-3.78,2.21-5.05,1.17-1.12,2.66-1.77,4.43-1.95.15-.01.3-.02.45-.02h24.26c.28-.75.67-1.46,1.17-2.11.12-.15.24-.29.38-.43,1.43-1.43,3.11-2.15,5-2.15h5.88c2.01,0,3.86.84,5.2,2.37.06.07.12.14.17.21,1.14,1.47,1.71,3.08,1.71,4.79,0,3.16-.58,5.79-1.73,7.89h2.13c.94,0,3.75,0,5.63,2.09,1.48,1.58,1.78,3.7,1.87,5.38,0,.08,0,.17,0,.25v1.96c0,2.68-.96,4.31-1.82,5.22-.34.38-.79.77-1.36,1.12.11.07.21.14.3.22,1.19.95,1.95,1.58,2.51,2.12,2.05,1.89,2.05,4.87,2.05,5.87v4.62c0,3.35-1.53,4.94-2.68,5.67-1.28.85-3.37,1.43-6.49.06-.23-.1-.46-.22-.67-.36l-.59-.39v13.15c0,2.74-.82,4.9-2.45,6.41-1.56,1.52-3.62,2.29-6.11,2.29ZM43.29,61.96h7.32v-21.19c0-.49.08-.96.23-1.41-.81.72-1.87,1.15-3.01,1.15h-3.7c1.57.7,2.67,2.28,2.67,4.11v2.24c0,1.92-1.2,3.55-2.88,4.2,1.69.65,2.88,2.29,2.88,4.2v2.31c0,2.14-1.5,3.94-3.51,4.39ZM19.5,61.96h7.32c-2.01-.45-3.51-2.25-3.51-4.39v-2.31c0-1.92,1.2-3.55,2.88-4.2-1.69-.65-2.88-2.29-2.88-4.2v-2.24c0-1.83,1.1-3.41,2.67-4.11h-3.77c-1.08,0-2.09-.39-2.88-1.04.11.4.17.81.17,1.23v21.26ZM30.76,40.12h8.59c-1.57-.7-2.67-2.28-2.67-4.11v-4.48c0-1.66.92-3.19,2.39-3.97,1.47-.78,3.25-.69,4.63.24l4.7,3.17c-1.07-1.15-1.49-2.8-1.03-4.35.29-.96.87-1.78,1.64-2.34h-7.83c-2.49,0-4.5-2.01-4.5-4.5v-2.59c0-1.4.64-2.66,1.65-3.48h-6.55c1.01.83,1.65,2.08,1.65,3.48v2.59c0,2.49-2.01,4.5-4.5,4.5h-7.9c.77.57,1.36,1.38,1.64,2.34.46,1.55.05,3.19-1.01,4.34l4.75-3.21c1.38-.93,3.16-1.03,4.63-.25,1.47.78,2.39,2.31,2.39,3.98v4.55c0,1.83-1.1,3.41-2.67,4.11ZM51,32.8c1.17,1.16,1.63,2.89,1.14,4.51,0,.03-.02.07-.03.1.26-.24.55-.44.87-.61,1.21-.66,2.65-.71,3.9-.18l-5.88-3.82ZM15,36.19c.73,0,1.46.18,2.13.54.27.15.52.32.75.51-.46-1.6,0-3.3,1.17-4.44l-5.71,3.71c.53-.21,1.1-.32,1.66-.32ZM61.22,24.28h0,0ZM49.29,9c-.33,1.38-1.09,2.56-2.23,3.38,2.07-.3,3.02-.76,3.37-.98.47-.35.79-1.2.94-2.41h-2.08Z"/><path class="cls-2" d="M132.14,71.03h-7c-2.81,0-4.5-1.16-5.45-2.18-1.35-1.4-2.07-3.14-2.07-5.05v-7.03c-.31.46-.68.89-1.1,1.28-1.4,1.35-3.18,2.06-5.18,2.06h-7c-2.09,0-3.94-.75-5.35-2.16-.85-.85-1.46-1.87-1.82-3.02-.9,4.03-2.55,7.27-4.98,9.81-3.9,4.08-8.29,6.15-13.05,6.15h-3.85c-.14,0-.27,0-.41-.02-1.52-.14-2.88-.68-4.18-1.65-.17-.13-.33-.27-.48-.42-1.34-1.34-2.02-3.02-2.02-5v-6.65c0-1.98.68-3.66,2.02-5,.15-.15.31-.29.48-.42,1.34-1,2.73-1.53,4.25-1.59.07-.07.18-.2.34-.42.13-.18.76-1.16.76-4.61V7.58c0-1.82.65-3.52,1.89-4.93,1.35-1.55,3.13-2.37,5.13-2.37h7.77c2.06,0,3.94.84,5.28,2.38.55.63.99,1.32,1.3,2.06.33-.79.79-1.53,1.37-2.2.13-.15.28-.29.43-.43,1.41-1.23,3.18-1.88,5.13-1.88h7c1.91,0,3.66.65,5.07,1.88.08.07.15.13.22.21.69.69,1.21,1.45,1.58,2.28.36-.83.89-1.59,1.58-2.28,1.35-1.35,3.25-2.09,5.36-2.09h7c1.9,0,3.65.65,5.06,1.88.08.07.15.13.22.21,1.41,1.41,2.16,3.17,2.16,5.07v56.43c0,1.95-.75,3.73-2.16,5.14-.95.95-2.64,2.09-5.28,2.09ZM126.63,62.03h3.95s0-52.82,0-52.82h-3.95v52.82ZM77.2,61.89h1.94c1.43,0,3.66-.35,6.55-3.37,2.19-2.29,3.3-6.26,3.3-11.8V9.28h-3.95v35.82c0,4.38-.76,7.48-2.38,9.76-1.69,2.47-3.71,3.57-5.46,4.01v3.02ZM105.83,51.11h3.95V9.21h-3.95v41.89ZM90.83,9.28h0,0Z"/><path class="cls-2" d="M206.31,70.96h-10.22s-.07,0-.11,0c-3.51-.08-6.37-.93-8.52-2.51-.14.17-.29.34-.44.49-.09.09-.19.18-.29.27-1.24,1.04-2.84,1.61-4.5,1.61h-7.7c-1.62,0-3.22-.54-4.43-1.5-.37-.28-.7-.59-.99-.94-2.16,1.63-5.05,2.5-8.61,2.58-.04,0-.07,0-.11,0h-10.22c-2.01,0-3.87-.74-5.21-2.09-1.32-1.32-2.02-3.03-2.02-4.93v-3.85c0-1.9.7-3.61,2.01-4.93,1.03-1.03,2.35-1.7,3.81-1.97-1.43-.33-2.71-1.06-3.69-2.14-1.35-1.39-2.06-3.13-2.06-5.04V12.27c0-1.84.69-3.49,2.06-4.91.97-1.06,2.68-2.25,5.45-2.25h6.37c.37,0,.73.02,1.08.07.25-.91.67-1.72,1.27-2.44.08-.1.17-.2.27-.29,1.2-1.21,2.81-1.82,4.8-1.82h39.41c1.99,0,3.6.61,4.8,1.82.09.09.18.19.27.29,1.06,1.28,1.6,2.81,1.6,4.56v28.93c.56.27,1.12.64,1.62,1.14.1.1.19.2.28.3,1.08,1.29,1.6,3.08,1.6,5.47v2.8c0,1.87-.47,3.48-1.4,4.78-.08.11-.16.21-.25.31-.75.87-2.04,1.88-4.17,2.22,1.32.3,2.5.95,3.44,1.89,1.32,1.32,2.02,3.03,2.02,4.93v3.85c0,1.91-.7,3.61-2.02,4.93-1.35,1.35-3.2,2.09-5.21,2.09ZM196.14,61.96h3.48c-1.47-.25-2.8-.93-3.85-1.98-1.32-1.32-2.07-3.14-2.09-5.12h-1.57v3.9c0,1.15.2,2,.56,2.34.14.13.97.8,3.47.86ZM156.87,61.96h3.46c2.5-.07,3.33-.73,3.47-.87.35-.33.55-1.18.55-2.33v-3.9h-1.57c-.02,1.98-.76,3.8-2.09,5.13-1.05,1.05-2.36,1.72-3.82,1.97ZM176.65,61.82h3.25v-12.93c0-2.14,1.5-3.94,3.51-4.39h-10.27c2.01.45,3.51,2.25,3.51,4.39v12.93ZM152,44.38h6.83c-2.01-.45-3.51-2.25-3.51-4.39V14.11h-3.32v30.27ZM197.36,33.95h4.03V9.63h-3.87c.35.64.55,1.37.55,2.15v2.17c0,1.3-.55,2.47-1.43,3.29.88.82,1.43,1.99,1.43,3.29v2.17c0,1.28-.53,2.44-1.39,3.25.86.82,1.39,1.97,1.39,3.25v2.31c0,.89-.26,1.73-.71,2.43ZM166.7,33.95h3.96c-.45-.7-.71-1.53-.71-2.43v-2.31c0-1.28.53-2.44,1.39-3.25-.86-.82-1.39-1.97-1.39-3.25v-2.17c0-1.3.55-2.47,1.43-3.29-.88-.82-1.43-1.99-1.43-3.29v-2.17c0-.78.2-1.51.55-2.15h-3.8v24.32ZM203.77,9.63h.01-.01Z"/><path class="cls-3" d="M51.05,69.46h-31.92c-2.23,0-4.06-.64-5.27-1.86-1.23-1.23-1.86-3-1.86-5.27v-16.06l-2.98,1.97c-.14.09-.29.18-.45.25-2.08.91-3.78.93-5.07.06-.97-.59-2.01-1.83-2.01-4.42v-4.62c0-1.45.17-3.5,1.58-4.78.51-.5,1.25-1.11,2.42-2.04.08-.06.16-.12.24-.17l2.55-1.66c-1.55-.14-2.79-.71-3.68-1.7-.95-1-1.42-2.41-1.42-4.21v-1.96c0-2.16.49-3.7,1.51-4.71,1.51-1.51,3.66-1.51,4.36-1.51h2.45c-.27-.65-.41-1.36-.41-2.11v-2.94c0-1.53.63-2.96,1.73-3.95.92-.89,2.12-1.41,3.56-1.56.1,0,.2-.01.3-.01h24.92c.18,0,.33,0,.47,0,.18-.98.59-1.88,1.21-2.68.08-.1.16-.2.25-.29,1.14-1.14,2.47-1.71,3.94-1.71h5.88c1.57,0,3.02.66,4.08,1.86.04.04.08.09.12.14.94,1.21,1.4,2.48,1.4,3.87,0,4.19-1.09,7.34-3.26,9.39h5.16c.77,0,3.09,0,4.52,1.61,1.16,1.24,1.4,3.02,1.48,4.45,0,.06,0,.11,0,.17v1.96c0,2.21-.75,3.5-1.42,4.2-.88.98-2.12,1.54-3.7,1.69l2.56,1.67c.08.05.16.11.24.17,1.16.93,1.9,1.54,2.41,2.04,1.42,1.29,1.58,3.34,1.58,4.78v4.62c0,2.58-1.04,3.83-2.01,4.42-1.29.87-2.99.85-5.07-.06-.15-.07-.3-.15-.44-.24l-2.91-1.92v15.93c0,2.32-.67,4.11-1.98,5.33-1.27,1.25-2.98,1.88-5.08,1.88ZM18.12,63.33c.17.06.5.13,1.01.13h31.92c.44,0,.78-.07.89-.17.02-.02.03-.03.05-.05.03-.09.12-.37.12-.98v-21.49c0-1.1.61-2.12,1.58-2.64.97-.52,2.15-.47,3.07.13l5.78,3.8v-2.55c0-.34-.02-.58-.04-.73-.44-.39-1.13-.94-1.59-1.31l-10.87-7.06c-1.11-.72-1.62-2.09-1.24-3.37.38-1.27,1.55-2.15,2.88-2.15h9.18v-1.81c0-.12-.02-.22-.02-.31h-19.66c-1.66,0-3-1.34-3-3v-2.59c0-1.66,1.34-3,3-3h1.26c5.66,0,7.98-.96,8.86-1.54,1.06-.73,1.64-2.47,1.65-5.13h-4.99c-.02,1.71-.82,3.15-2.21,3.94-.1.06-.21.11-.32.16-.94.4-2.16.59-3.84.59h-24.51v1.98h11.84c1.66,0,3,1.34,3,3v2.59c0,1.66-1.34,3-3,3H9.18c0,.07,0,.14,0,.22v1.9h9.18c1.33,0,2.5.87,2.88,2.15.38,1.27-.13,2.64-1.24,3.37l-10.87,7.06c-.46.37-1.15.92-1.59,1.31-.02.16-.04.4-.04.73v2.55l5.85-3.86c.92-.61,2.1-.66,3.07-.14.97.52,1.58,1.54,1.58,2.64v21.63c0,.55.07.86.12,1ZM52.06,63.18s0,0,0,0t0,0ZM7.05,39.22s0,0,0,0c0,0,0,0,0,0ZM42.3,60.57h-14.49c-1.66,0-3-1.34-3-3v-2.31c0-1.66,1.34-3,3-3h14.49c1.66,0,3,1.34,3,3v2.31c0,1.66-1.34,3-3,3ZM42.3,49.86h-14.49c-1.66,0-3-1.34-3-3v-2.24c0-1.66,1.34-3,3-3h14.49c1.66,0,3,1.34,3,3v2.24c0,1.66-1.34,3-3,3ZM47.83,39h-6.65c-1.66,0-3-1.34-3-3v-4.48c0-1.11.61-2.13,1.59-2.65.98-.52,2.17-.46,3.08.16l6.65,4.48c1.09.74,1.58,2.1,1.19,3.36s-1.55,2.12-2.87,2.12ZM28.93,39h-6.72c-1.32,0-2.48-.86-2.87-2.12s.09-2.62,1.19-3.36l6.72-4.55c.92-.62,2.11-.68,3.09-.17.98.52,1.59,1.54,1.59,2.65v4.55c0,1.66-1.34,3-3,3Z"/><path class="cls-3" d="M132.14,69.53h-7c-2.28,0-3.62-.91-4.36-1.71-1.08-1.11-1.66-2.5-1.66-4.02V7.37c0-1.5.59-2.88,1.72-4.01,1.06-1.07,2.59-1.65,4.29-1.65h7c1.54,0,2.94.52,4.07,1.51.05.04.1.09.15.14,1.12,1.12,1.72,2.51,1.72,4.01v56.43c0,1.55-.59,2.96-1.72,4.08h0c-1.09,1.09-2.51,1.65-4.22,1.65ZM125.13,63.53h6.95V7.71h-6.95v55.82ZM79.14,69.39h-3.85c-.09,0-.18,0-.27-.01-1.64-.15-2.74-.85-3.42-1.36-.11-.08-.22-.18-.32-.28-1.05-1.05-1.58-2.37-1.58-3.94v-6.65c0-1.57.53-2.89,1.58-3.94.1-.1.21-.19.32-.28.73-.55,1.9-1.28,3.6-1.3.24-.02.66-.1,1.32-1.07.41-.57,1.02-1.95,1.02-5.45V7.58c0-1.47.51-2.79,1.51-3.94,1.06-1.22,2.45-1.86,4-1.86h7.77c1.65,0,3.08.64,4.15,1.87,1,1.14,1.51,2.47,1.51,3.93v39.13c0,7.64-1.76,13.2-5.38,16.99-3.61,3.77-7.63,5.69-11.97,5.69ZM75.7,63.39h3.44c2.71,0,5.13-1.22,7.63-3.83,2.47-2.58,3.72-6.9,3.72-12.84V7.78h-6.98l.03,37.32c0,4.06-.67,6.88-2.1,8.88-1.49,2.19-3.43,3.42-5.74,3.61v5.78ZM90.84,7.78h0,0ZM111.34,58.61h-7c-1.68,0-3.17-.59-4.29-1.72-.99-.99-1.58-2.28-1.71-3.74,0-.09-.01-.18-.01-.27V7.37c0-.1,0-.2.01-.29.13-1.33.66-2.53,1.57-3.57.09-.1.18-.2.29-.29,1.15-1,2.54-1.51,4.15-1.51h7c1.54,0,2.95.52,4.08,1.51.05.04.1.09.15.14,1.12,1.12,1.72,2.51,1.72,4.01v45.5c0,1.61-.62,3.02-1.79,4.08-1.11,1.08-2.55,1.65-4.15,1.65ZM104.33,52.61h6.95V7.71h-6.95v44.89Z"/><path class="cls-3" d="M206.31,69.46h-10.22c-3.76-.09-6.62-1.07-8.57-2.92-.15-.14-.3-.29-.44-.45-.24.69-.62,1.3-1.12,1.79-.06.06-.13.12-.2.18-.97.81-2.23,1.26-3.54,1.26h-7.7c-1.29,0-2.57-.43-3.52-1.19-.72-.54-1.24-1.26-1.55-2.11-.16.18-.33.35-.5.51-1.96,1.85-4.82,2.84-8.51,2.92h-10.29c-1.61,0-3.09-.58-4.15-1.65-1.05-1.05-1.58-2.35-1.58-3.87v-3.85c0-1.52.53-2.82,1.58-3.87,1.06-1.07,2.54-1.65,4.15-1.65h5.12v-1.62c0-.36.04-.71.11-1.06h-4.87c-1.75,0-3.26-.64-4.36-1.86-1.08-1.11-1.65-2.5-1.65-4.01V12.27c0-1.45.56-2.75,1.65-3.88.76-.83,2.12-1.78,4.36-1.78h6.37c.83,0,1.61.15,2.32.45.02-.92.21-2.19,1.18-3.36.06-.07.12-.13.18-.2,1.37-1.38,3.15-1.38,3.74-1.38h39.41c.59,0,2.37,0,3.74,1.38.06.06.12.13.18.2.84,1.01,1.25,2.19,1.25,3.6v29.05c0,.31-.02.6-.06.89.76.2,1.5.56,2.12,1.19.06.06.13.13.18.2.84,1.01,1.25,2.49,1.25,4.51v2.8c0,1.56-.38,2.87-1.12,3.91-.05.07-.11.14-.16.21-.71.83-2.08,1.82-4.59,1.82h-5.43c.07.35.1.7.1,1.06v1.62h5.12c1.61,0,3.09.59,4.15,1.65,1.05,1.05,1.58,2.35,1.58,3.87v3.85c0,1.52-.53,2.82-1.58,3.87-1.06,1.06-2.54,1.65-4.15,1.65ZM190.62,53.36v5.4c0,1.63.34,2.78,1.02,3.42.82.77,2.42,1.23,4.52,1.28h9.88v-2.89h-5.12c-1.57,0-3.02-.59-4.08-1.66-1.06-1.06-1.65-2.53-1.65-4.15v-1.41h-4.57ZM150.43,63.45h9.95c2.03-.04,3.63-.5,4.45-1.27.68-.64,1.02-1.8,1.02-3.42v-5.4h-4.57v1.41c0,1.62-.59,3.09-1.65,4.16-1.07,1.07-2.48,1.65-4.08,1.65h-5.12v2.88ZM175.15,63.32h6.25v-14.43c0-1.66,1.34-3,3-3h21.99v-2.74c0-.05,0-.1,0-.15h-46.56c-1.66,0-3-1.34-3-3V12.62h-6.31s0,0,0,0v33.27h21.64c1.66,0,3,1.34,3,3v14.43ZM165.2,35.45h37.68V8.13s-37.68,0-37.68,0v27.32ZM203.91,8.14h0,0ZM193.57,34.52h-19.11c-1.66,0-3-1.34-3-3v-2.31c0-1.66,1.34-3,3-3h19.11c1.66,0,3,1.34,3,3v2.31c0,1.66-1.34,3-3,3ZM193.57,25.7h-19.11c-1.66,0-3-1.34-3-3v-2.17c0-1.66,1.34-3,3-3h19.11c1.66,0,3,1.34,3,3v2.17c0,1.66-1.34,3-3,3ZM193.57,16.95h-19.11c-1.66,0-3-1.34-3-3v-2.17c0-1.66,1.34-3,3-3h19.11c1.66,0,3,1.34,3,3v2.17c0,1.66-1.34,3-3,3Z"/><path class="cls-2" d="M6.81,27.11c-.42-.42-.63-1.19-.63-2.17v-1.96c0-1.26.21-2.17.63-2.59.42-.42,1.12-.63,2.24-.63h19.88v-2.59h-12.25c-.7,0-1.33-.28-1.82-.7-.49-.49-.77-1.05-.77-1.82v-2.94c0-.7.28-1.33.77-1.75.49-.49,1.12-.7,1.82-.77h24.92c1.33,0,2.17-.14,2.66-.35.49-.28.7-.77.7-1.4,0-.77.21-1.47.7-2.1.56-.56,1.12-.84,1.82-.84h5.88c.7,0,1.33.28,1.82.84.49.63.77,1.26.77,2.03,0,3.78-.98,6.37-3.01,7.77-2.03,1.33-5.53,2.03-10.5,2.03h-1.26v2.59h19.67c1.19,0,1.96.21,2.31.63.42.42.63,1.33.7,2.59v1.96c0,.98-.21,1.75-.63,2.17-.42.49-1.19.77-2.38.77h-9.17l10.99,7.14c1.05.84,1.82,1.47,2.24,1.89.42.35.63,1.26.63,2.59v4.62c0,.98-.21,1.68-.63,1.89-.35.28-1.12.21-2.24-.28l-7.56-4.97v21.49c0,1.47-.35,2.52-1.05,3.15-.7.7-1.68,1.05-3.01,1.05h-31.92c-1.4,0-2.52-.35-3.15-.98-.63-.63-.98-1.68-.98-3.15v-21.63l-7.63,5.04c-1.12.49-1.89.56-2.24.28-.42-.21-.63-.91-.63-1.89v-4.62c0-1.33.21-2.24.63-2.59.42-.42,1.19-1.05,2.24-1.89l10.99-7.14h-9.31c-1.12,0-1.82-.28-2.24-.77ZM28.93,31.45l-6.72,4.55h6.72v-4.55ZM27.81,46.86h14.49v-2.24h-14.49v2.24ZM27.81,57.57h14.49v-2.31h-14.49v2.31ZM41.18,36h6.65l-6.65-4.48v4.48Z"/><path class="cls-2" d="M90.83,4.78c.77,0,1.4.28,1.89.84.49.56.77,1.19.77,1.96v39.13c0,6.72-1.47,11.69-4.55,14.91s-6.3,4.76-9.8,4.76h-3.85c-.77-.07-1.33-.35-1.89-.77-.49-.49-.7-1.05-.7-1.82v-6.65c0-.77.21-1.33.7-1.82.56-.42,1.12-.7,1.89-.7,1.47-.07,2.66-.84,3.71-2.38,1.05-1.47,1.54-3.85,1.54-7.14V7.58c0-.77.28-1.4.77-1.96.49-.56,1.05-.84,1.75-.84h7.77ZM113.45,54.77c-.56.56-1.26.84-2.1.84h-7c-.91,0-1.61-.28-2.17-.84-.49-.49-.77-1.12-.84-1.89V7.37c.07-.7.35-1.33.84-1.89.56-.49,1.26-.77,2.17-.77h7c.84,0,1.54.28,2.1.77.56.56.84,1.19.84,1.89v45.5c0,.77-.28,1.4-.84,1.89ZM134.24,65.76c-.56.56-1.26.77-2.1.77h-7c-.91,0-1.68-.21-2.17-.77-.56-.56-.84-1.19-.84-1.96V7.37c0-.7.28-1.33.84-1.89.49-.49,1.26-.77,2.17-.77h7c.84,0,1.54.28,2.1.77.56.56.84,1.19.84,1.89v56.43c0,.77-.28,1.4-.84,1.96Z"/><path class="cls-2" d="M166.34,50.36c.7.07,1.33.28,1.75.77.49.49.77,1.12.77,1.82v5.81c0,2.45-.63,4.34-1.96,5.6-1.33,1.26-3.5,2.03-6.51,2.1h-10.22c-.84,0-1.54-.28-2.03-.77-.49-.49-.7-1.05-.7-1.75v-3.85c0-.7.21-1.26.7-1.75.49-.49,1.19-.77,2.03-.77h5.39c.84,0,1.47-.28,1.96-.77.49-.49.77-1.19.77-2.03v-1.82c0-.7.28-1.33.77-1.82s1.12-.7,1.82-.77h5.46ZM184.4,48.88v15.26c0,.7-.21,1.26-.56,1.61-.42.35-.98.56-1.61.56h-7.7c-.63,0-1.26-.21-1.68-.56-.49-.35-.7-.91-.7-1.61v-15.26h-21.63c-.98,0-1.68-.35-2.17-.91-.56-.56-.84-1.19-.84-1.96V12.27c0-.7.28-1.26.84-1.82.49-.56,1.19-.84,2.17-.84h6.37c.84,0,1.54.28,2.1.84.56.56.84,1.12.84,1.82v27.72h46.69c1.12,0,1.89.14,2.31.56.35.42.56,1.33.56,2.59v2.8c0,.98-.21,1.68-.56,2.17-.42.49-1.19.77-2.31.77h-22.12ZM205.33,5.62c.35.42.56.91.56,1.68v29.05c0,.7-.21,1.26-.56,1.61-.35.35-.84.49-1.61.49h-39.41c-.77,0-1.26-.14-1.61-.49-.35-.35-.49-.91-.49-1.61V7.3c0-.77.14-1.26.49-1.68.35-.35.84-.49,1.61-.49h39.41c.77,0,1.26.14,1.61.49ZM193.57,11.78h-19.11v2.17h19.11v-2.17ZM193.57,20.53h-19.11v2.17h19.11v-2.17ZM193.57,29.21h-19.11v2.31h19.11v-2.31ZM197.42,51.13c.49.49.77,1.12.77,1.82v1.82c0,.84.28,1.54.77,2.03.49.49,1.19.77,1.96.77h5.39c.84,0,1.54.28,2.03.77s.7,1.05.7,1.75v3.85c0,.7-.21,1.26-.7,1.75s-1.19.77-2.03.77h-10.22c-3.01-.07-5.18-.84-6.51-2.1-1.33-1.26-1.96-3.15-1.96-5.6v-5.81c0-.7.28-1.33.77-1.82.42-.49,1.05-.7,1.75-.77h5.46c.7.07,1.33.28,1.82.77Z"/></g></svg>