<?xml version="1.0" encoding="UTF-8"?><svg id="_レイヤー_2" xmlns="http://www.w3.org/2000/svg" viewBox="0 0 215.24 71.45"><defs><style>.cls-1,.cls-2,.cls-3{stroke-width:0px;}.cls-2{fill:#198caa;}.cls-3{fill:#fff;}</style></defs><g id="_レイヤー_4"><path class="cls-1" d="M13.04,51.89h-5.53c-1.19,0-2.03-.28-2.45-.77-.35-.42-.56-1.19-.56-2.24v-4.13c0-1.33.21-2.17.56-2.59.42-.42,1.26-.63,2.45-.63h6.86V15c0-1.33.21-2.24.63-2.66.42-.42,1.19-.7,2.24-.98l37.59-5.67c1.12-.21,1.89-.21,2.38,0,.42.21.63.98.63,2.31v5.32c0,1.19-.21,2.1-.56,2.52-.42.49-1.26.84-2.59,1.12l-26.04,3.92v3.57h29.89c1.19,0,1.96.21,2.38.63s.63,1.26.63,2.59v4.13c0,1.05-.21,1.75-.63,2.24s-1.19.7-2.38.7h-1.68v6.79h7.07c1.12,0,1.89.21,2.31.63.35.42.56,1.26.56,2.59v4.13c0,1.05-.21,1.82-.56,2.24-.42.49-1.19.77-2.31.77h-5.67l4.27,11.97c.07.77-.14,1.47-.7,2.1-.56.56-1.26.84-2.03.77h-7.28c-1.47.07-2.45-.14-2.94-.56-.42-.42-.91-1.19-1.33-2.31l-4.34-11.97h-16.52l-4.34,11.97c-.42,1.12-.91,1.89-1.33,2.31-.49.42-1.47.63-2.94.56h-7.28c-.77.07-1.47-.21-2.03-.77-.56-.63-.77-1.33-.7-2.1l4.27-11.97ZM42.58,41.53v-6.79h-13.93v6.79h13.93Z"/><path class="cls-1" d="M120.19,66.11c-.56.56-1.26.77-2.1.77h-5.6c-.91,0-1.61-.21-2.17-.77-.49-.56-.77-1.19-.84-1.96v-2.38h-12.53c-1.05,0-1.82-.21-2.24-.7s-.63-1.19-.63-2.24v-1.33c0-1.33.21-2.24.63-2.59.42-.42,1.19-.63,2.24-.63h12.53v-1.54h-10.36c-1.47,0-2.52-.28-3.22-.91-.63-.63-.98-1.61-.98-3.08v-15.82c0-1.47.35-2.52.98-3.01.63-.56,1.68-.84,3.15-.84h10.43v-1.47h-11.69c-1.12,0-1.82-.21-2.24-.7-.42-.49-.63-1.26-.63-2.24v-1.89c0-1.33.21-2.24.63-2.66.42-.35,1.12-.56,2.24-.56h11.69v-1.54h-16.1v29.33c0,6.72-1.54,11.69-4.55,14.91-3.08,3.15-6.58,4.76-10.64,4.69-.77,0-1.33-.28-1.89-.7-.49-.49-.7-1.05-.7-1.82v-6.65c0-.77.21-1.33.7-1.82.56-.42,1.12-.7,1.89-.77,1.47-.07,2.52-.84,3.29-2.31.77-1.47,1.12-3.85,1.12-7.14V12.06c0-1.33.21-2.17.63-2.59s1.19-.63,2.24-.63h19.6v-1.68c0-.7.28-1.33.84-1.82.49-.56,1.19-.84,2.1-.84h5.88c.84,0,1.54.28,2.1.84.56.49.84,1.12.84,1.82v1.68h17.43c1.19,0,2.03.21,2.45.63s.56,1.26.56,2.59v3.01c0,1.05-.14,1.75-.56,2.24s-1.26.7-2.45.7h-13.23v1.54h11.62c1.19,0,1.96.21,2.31.56.35.42.63,1.33.7,2.66v1.89c0,.98-.21,1.75-.63,2.24s-1.19.7-2.38.7h-11.62v1.47h10.5c1.33,0,2.31.28,3.01.77.77.49,1.12,1.61,1.12,3.22v15.61c0,1.47-.35,2.52-1.05,3.15-.7.63-1.68.91-3.01.91h-10.57v1.54h12.46c1.19,0,1.96.21,2.31.63.35.35.56,1.26.7,2.59v1.33c0,1.05-.21,1.75-.63,2.24-.42.49-1.19.7-2.38.7h-12.46v2.38c0,.77-.28,1.4-.84,1.96ZM106.95,37.54h2.52v-1.75h-2.52v1.75ZM106.95,46.01h2.52v-1.75h-2.52v1.75ZM123.55,35.79h-2.52v1.75h2.52v-1.75ZM123.55,44.26h-2.52v1.75h2.52v-1.75Z"/><path class="cls-1" d="M167.69,50.71c.7.07,1.33.28,1.75.77.49.49.77,1.12.77,1.82v5.81c0,2.45-.63,4.34-1.96,5.6-1.33,1.26-3.5,2.03-6.51,2.1h-10.22c-.84,0-1.54-.28-2.03-.77s-.7-1.05-.7-1.75v-3.85c0-.7.21-1.26.7-1.75s1.19-.77,2.03-.77h5.39c.84,0,1.47-.28,1.96-.77.49-.49.77-1.19.77-2.03v-1.82c0-.7.28-1.33.77-1.82.49-.49,1.12-.7,1.82-.77h5.46ZM185.75,49.23v15.26c0,.7-.21,1.26-.56,1.61-.42.35-.98.56-1.61.56h-7.7c-.63,0-1.26-.21-1.68-.56-.49-.35-.7-.91-.7-1.61v-15.26h-21.63c-.98,0-1.68-.35-2.17-.91-.56-.56-.84-1.19-.84-1.96V12.62c0-.7.28-1.26.84-1.82.49-.56,1.19-.84,2.17-.84h6.37c.84,0,1.54.28,2.1.84s.84,1.12.84,1.82v27.72h46.69c1.12,0,1.89.14,2.31.56.35.42.56,1.33.56,2.59v2.8c0,.98-.21,1.68-.56,2.17-.42.49-1.19.77-2.31.77h-22.12ZM206.68,5.97c.35.42.56.91.56,1.68v29.05c0,.7-.21,1.26-.56,1.61-.35.35-.84.49-1.61.49h-39.41c-.77,0-1.26-.14-1.61-.49-.35-.35-.49-.91-.49-1.61V7.65c0-.77.14-1.26.49-1.68.35-.35.84-.49,1.61-.49h39.41c.77,0,1.26.14,1.61.49ZM194.92,12.13h-19.11v2.17h19.11v-2.17ZM194.92,20.88h-19.11v2.17h19.11v-2.17ZM194.92,29.56h-19.11v2.31h19.11v-2.31ZM198.77,51.47c.49.49.77,1.12.77,1.82v1.82c0,.84.28,1.54.77,2.03.49.49,1.19.77,1.96.77h5.39c.84,0,1.54.28,2.03.77.49.49.7,1.05.7,1.75v3.85c0,.7-.21,1.26-.7,1.75-.49.49-1.19.77-2.03.77h-10.22c-3.01-.07-5.18-.84-6.51-2.1-1.33-1.26-1.96-3.15-1.96-5.6v-5.81c0-.7.28-1.33.77-1.82.42-.49,1.05-.7,1.75-.77h5.46c.7.07,1.33.28,1.82.77Z"/><path class="cls-2" d="M52,71.25c-2.29,0-4.04-.54-5.34-1.66-.09-.08-.17-.15-.25-.24-.94-.94-1.75-2.29-2.36-3.91l-3.28-9.05h-10.21l-3.27,9c-.62,1.67-1.44,3.02-2.38,3.96-.08.08-.17.16-.25.24-1.41,1.21-3.36,1.75-5.97,1.64h-7.03c-2,.12-3.91-.62-5.37-2.09-.06-.06-.12-.13-.18-.19-1.38-1.55-2-3.45-1.82-5.5.03-.38.12-.75.24-1.1l2.14-5.99c-2.67-.2-4.19-1.34-5.03-2.31-1.1-1.32-1.64-3.04-1.64-5.17v-4.13c0-2.42.51-4.16,1.61-5.47.09-.1.18-.2.27-.3,1.31-1.31,3.15-1.95,5.63-1.95h2.36V15c0-2.62.63-4.52,1.94-5.84,1.22-1.22,2.77-1.75,4.27-2.15.16-.04.32-.08.49-.1L54.09,1.25c1.28-.23,3.15-.44,4.89.3.09.04.17.08.25.12,2.06,1.04,3.11,3.17,3.11,6.33v5.32c0,2.31-.54,4.12-1.6,5.4-.43.51-.92.91-1.43,1.25,1.22.07,3.25.39,4.79,1.93,1.75,1.75,1.95,4.13,1.95,5.77v4.13c0,2.13-.56,3.82-1.71,5.17-.02.02-.04.04-.06.07,2.19.06,3.92.72,5.14,1.94.1.1.19.2.28.3,1.08,1.29,1.6,3.08,1.6,5.47v4.13c0,2.12-.54,3.84-1.6,5.12-.88,1.03-2.42,2.19-5.06,2.37l2.13,5.98c.13.36.21.73.24,1.11.18,2.05-.45,3.95-1.82,5.49-.06.07-.12.13-.18.19-1.46,1.46-3.37,2.21-5.37,2.09h-7.03c-.21,0-.42.01-.63.01ZM11.09,62.25h0,0ZM60.21,62.25h0,0ZM27.39,47.39h16.52c1.89,0,3.58,1.19,4.23,2.97l4.31,11.88s.05,0,.08,0h4.65l-3.15-8.83c-.49-1.38-.28-2.91.56-4.1.84-1.2,2.21-1.91,3.68-1.91h4.04v-1.36h-5.44c-2.49,0-4.5-2.01-4.5-4.5v-6.79c0-2.49,2.01-4.5,4.5-4.5h.19v-1.29h-28.4c-2.49,0-4.5-2.01-4.5-4.5v-3.57c0-2.23,1.63-4.12,3.83-4.45l25.36-3.82v-2.15l-34.47,5.2v25.87c0,2.49-2.01,4.5-4.5,4.5h-5.37v1.36h4.04c1.46,0,2.83.71,3.68,1.91.84,1.2,1.05,2.73.56,4.1l-3.15,8.83h4.65s.05,0,.07,0l4.31-11.88c.65-1.78,2.34-2.97,4.23-2.97ZM28.65,20.88h0,0ZM42.58,46.03h-13.93c-2.49,0-4.5-2.01-4.5-4.5v-6.79c0-2.49,2.01-4.5,4.5-4.5h13.93c2.49,0,4.5,2.01,4.5,4.5v6.79c0,2.49-2.01,4.5-4.5,4.5Z"/><path class="cls-2" d="M78.43,71.45c-.11,0-.22,0-.33,0h0c-1.58,0-3.08-.52-4.51-1.6-.17-.13-.33-.27-.48-.42-1.34-1.34-2.02-3.02-2.02-5v-6.65c0-1.98.68-3.66,2.02-5,.15-.15.31-.29.48-.42,1.22-.92,2.51-1.45,3.92-1.62.14-.31.58-1.55.58-5V12.06c0-1.64.2-4.03,1.95-5.77,1.29-1.29,3.12-1.95,5.42-1.95h15.7c.36-.81.89-1.55,1.56-2.19,1.33-1.39,3.19-2.15,5.28-2.15h5.88c1.99,0,3.78.71,5.18,2.06.72.66,1.28,1.43,1.66,2.28h13.53c2.48,0,4.32.64,5.63,1.95,1.66,1.65,1.88,3.85,1.88,5.77v3.01c0,1.4-.17,3.45-1.64,5.17-.08.09-.15.17-.23.26.13.63.22,1.31.26,2.04,0,.08,0,.16,0,.24v1.89c0,1.53-.3,2.86-.9,3.98.54,1.09.9,2.53.9,4.42v15.61c0,1.38-.21,2.62-.63,3.7.96,1.33,1.27,3.01,1.44,4.65.02.16.03.31.03.47v1.33c0,2.13-.56,3.82-1.71,5.17-1.95,2.27-4.85,2.27-5.8,2.27h-8.27c-.34,1.12-.96,2.14-1.84,3.02-.95.95-2.64,2.09-5.28,2.09h-5.6c-2.17,0-3.97-.7-5.35-2.09-.07-.07-.13-.14-.2-.21-.74-.84-1.27-1.78-1.6-2.81h-8.39c-1.83,0-3.35-.42-4.54-1.26-.1.11-.19.21-.29.32-.02.02-.05.05-.07.07-3.92,4.01-8.5,6.05-13.61,6.05ZM78.18,62.45s.03,0,.04,0c-.01,0-.03,0-.04,0ZM113.97,62.38h2.55s0-.61,0-.61c0-1.56.8-2.94,2-3.75-1.21-.81-2-2.18-2-3.75v-1.54c0-1.34.58-2.54,1.51-3.36-.92-.82-1.51-2.02-1.51-3.36v-1.75c0-1.34.58-2.54,1.51-3.36-.92-.82-1.51-2.02-1.51-3.36v-1.75c0-1.34.58-2.54,1.51-3.36-.92-.82-1.51-2.02-1.51-3.36v-1.47c0-1.76,1.01-3.29,2.49-4.03-1.47-.74-2.49-2.26-2.49-4.03v-1.54c0-2.49,2.01-4.5,4.5-4.5h11.74v-.17h-15.94c-2.43,0-4.41-1.93-4.5-4.34h-2.77c-.08,2.41-2.07,4.34-4.5,4.34h-17.97v32.39c0,4.17-.52,7.1-1.63,9.23-1.23,2.34-3.1,3.88-5.37,4.47v2.87c1.99-.37,3.75-1.39,5.48-3.15,2.19-2.37,3.3-6.34,3.3-11.8v-29.33c0-2.49,2.01-4.5,4.5-4.5h16.1c2.49,0,4.5,2.01,4.5,4.5v1.54c0,1.76-1.01,3.29-2.49,4.03,1.47.74,2.49,2.26,2.49,4.03v1.47c0,1.34-.58,2.54-1.51,3.36.92.82,1.51,2.02,1.51,3.36v1.75c0,1.34-.58,2.54-1.51,3.36.92.82,1.51,2.02,1.51,3.36v1.75c0,1.34-.58,2.54-1.51,3.36.92.82,1.51,2.02,1.51,3.36v1.54c0,1.56-.8,2.94-2,3.75,1.21.81,2,2.18,2,3.75v.61ZM127.46,48.23h3.7v-14.66h-3.7c.37.66.58,1.41.58,2.22v1.75c0,1.34-.58,2.54-1.51,3.36.92.82,1.51,2.02,1.51,3.36v1.75c0,.81-.21,1.57-.58,2.22ZM99.41,48.23h3.63c-.37-.66-.58-1.41-.58-2.22v-1.75c0-1.34.58-2.54,1.51-3.36-.92-.82-1.51-2.02-1.51-3.36v-1.75c0-.81.21-1.57.58-2.22h-3.63v14.66Z"/><path class="cls-2" d="M207.66,71.31h-10.22s-.07,0-.11,0c-3.51-.08-6.37-.93-8.52-2.51-.14.17-.29.34-.44.49-.09.09-.19.18-.29.27-1.24,1.04-2.84,1.61-4.5,1.61h-7.7c-1.62,0-3.22-.54-4.43-1.5-.37-.28-.7-.6-.99-.94-2.16,1.63-5.05,2.5-8.61,2.58-.04,0-.07,0-.11,0h-10.22c-2.01,0-3.87-.74-5.21-2.09-1.32-1.32-2.02-3.03-2.02-4.93v-3.85c0-1.91.7-3.61,2.02-4.93,1.03-1.03,2.34-1.7,3.8-1.96-1.44-.33-2.71-1.06-3.7-2.14-1.35-1.4-2.06-3.13-2.06-5.04V12.62c0-1.84.69-3.49,2.06-4.9.97-1.06,2.68-2.26,5.45-2.26h6.37c.37,0,.73.02,1.08.07.25-.91.67-1.72,1.27-2.44.09-.1.18-.2.27-.3,1.2-1.2,2.81-1.81,4.8-1.81h39.41c1.99,0,3.6.61,4.8,1.82.09.09.18.19.26.29,1.07,1.28,1.61,2.81,1.61,4.56v28.93c.56.27,1.12.64,1.62,1.14.1.09.19.19.27.3,1.08,1.29,1.61,3.08,1.61,5.47v2.8c0,1.88-.47,3.49-1.4,4.79-.08.11-.16.21-.24.31-.75.87-2.04,1.88-4.17,2.22,1.32.3,2.5.95,3.44,1.89,1.32,1.32,2.02,3.03,2.02,4.93v3.85c0,1.9-.7,3.61-2.01,4.93-1.35,1.35-3.2,2.09-5.22,2.09ZM197.5,62.31h3.48c-1.47-.25-2.8-.93-3.85-1.98-1.32-1.32-2.06-3.13-2.08-5.12h-1.57v3.9c0,1.15.2,2,.56,2.34.14.13.97.8,3.47.86ZM158.22,62.31h3.46c2.5-.07,3.33-.73,3.47-.87.35-.33.55-1.18.55-2.33v-3.9h-1.57c-.02,1.98-.76,3.8-2.09,5.13-1.05,1.05-2.36,1.72-3.82,1.97ZM178,62.17h3.25v-12.93c0-2.14,1.5-3.94,3.51-4.39h-10.27c2.01.45,3.51,2.25,3.51,4.39v12.93ZM153.35,44.73h6.83c-2.01-.45-3.51-2.25-3.51-4.39V14.46h-3.32v30.27ZM198.71,34.3h4.03V9.98h-3.87c.35.64.55,1.37.55,2.15v2.17c0,1.3-.55,2.47-1.43,3.29.88.82,1.43,1.99,1.43,3.29v2.17c0,1.28-.53,2.44-1.39,3.25.86.82,1.39,1.97,1.39,3.25v2.31c0,.89-.26,1.73-.71,2.43ZM168.06,34.3h3.96c-.45-.7-.71-1.53-.71-2.43v-2.31c0-1.28.53-2.44,1.39-3.25-.86-.82-1.39-1.97-1.39-3.25v-2.17c0-1.3.55-2.47,1.43-3.29-.88-.82-1.43-1.99-1.43-3.29v-2.17c0-.78.2-1.51.55-2.15h-3.8v24.32ZM205.12,9.98h0,0Z"/><path class="cls-3" d="M51.99,69.75c-1.92,0-3.35-.43-4.36-1.29-.06-.05-.12-.1-.17-.16-.79-.79-1.49-1.96-2.02-3.38l-3.63-10.02h-12.31l-3.62,9.99c-.54,1.45-1.24,2.62-2.03,3.41-.05.05-.11.11-.17.16-1.12.96-2.74,1.38-4.96,1.28h-7.1c-1.57.09-3.1-.48-4.26-1.65-.04-.04-.08-.08-.12-.13-1.09-1.23-1.59-2.74-1.45-4.37.02-.25.08-.5.16-.74l2.84-7.96h-1.28c-2.62,0-4.02-.99-4.73-1.82-.86-1.03-1.28-2.43-1.28-4.19v-4.13c0-2.05.4-3.48,1.26-4.51.06-.07.12-.13.18-.2,1.02-1.02,2.51-1.51,4.57-1.51h3.86V15c0-1.4.16-3.42,1.5-4.78.91-.91,2.09-1.36,3.59-1.76.11-.03.21-.05.32-.07L54.34,2.73c1.73-.32,2.99-.26,4.05.2.06.02.11.05.17.08,2.28,1.15,2.28,3.94,2.28,4.99v5.32c0,1.95-.42,3.44-1.25,4.44-1.15,1.34-2.89,1.84-4.28,2.13-.06.01-.11.02-.17.03l-10.12,1.52h13.53c2.01,0,3.49.49,4.5,1.51,1.35,1.35,1.51,3.34,1.51,4.71v4.13c0,1.76-.44,3.13-1.35,4.19-.97,1.13-2.3,1.53-3.34,1.67v.87h4.07c1.97,0,3.42.49,4.43,1.51.06.06.13.13.18.2.86,1.03,1.25,2.46,1.25,4.51v4.13c0,1.76-.42,3.16-1.25,4.16-.74.86-2.11,1.85-4.62,1.85h-1.41l2.84,7.96c.09.24.14.49.16.74.15,1.62-.35,3.13-1.45,4.36-.04.04-.08.09-.12.13-1.17,1.17-2.67,1.74-4.26,1.65h-7.1c-.2,0-.4.01-.6.01ZM51.48,63.73c.19.02.48.03.9.01.05,0,.1,0,.14,0h6.78l-3.86-10.83c-.33-.92-.19-1.94.37-2.74.56-.8,1.48-1.27,2.45-1.27h5.54v-4.14c0-.08,0-.15,0-.22h-6.94c-1.66,0-3-1.34-3-3v-6.79c0-1.66,1.34-3,3-3h1.69v-4.07c0-.08,0-.15,0-.22h-29.9c-1.66,0-3-1.34-3-3v-3.57c0-1.48,1.09-2.75,2.55-2.97l25.95-3.91c.29-.06.5-.12.67-.17.01-.14.02-.31.02-.52v-4.6l-36.99,5.58c-.19.05-.34.1-.47.14-.01.15-.02.33-.02.56v26.53c0,1.66-1.34,3-3,3h-6.87c0,.07,0,.14,0,.22v4.13h0s0,0,0,0h5.53c.98,0,1.89.47,2.45,1.27.56.8.7,1.82.37,2.74l-3.86,10.83h6.78s.1,0,.14,0c.42.02.71,0,.9-.01.12-.21.27-.51.42-.92l4.33-11.94c.43-1.19,1.56-1.98,2.82-1.98h16.52c1.26,0,2.39.79,2.82,1.98l4.34,11.97c.15.39.29.68.41.88ZM42.58,44.53h-13.93c-1.66,0-3-1.34-3-3v-6.79c0-1.66,1.34-3,3-3h13.93c1.66,0,3,1.34,3,3v6.79c0,1.66-1.34,3-3,3ZM31.65,38.53h7.93v-.79h-7.93v.79Z"/><path class="cls-3" d="M78.43,69.95c-.1,0-.2,0-.3,0h0c-1.7,0-2.89-.74-3.64-1.3-.11-.08-.22-.18-.32-.28-1.05-1.05-1.58-2.37-1.58-3.94v-6.65c0-1.57.53-2.89,1.58-3.94.1-.1.21-.19.32-.28.68-.51,1.78-1.21,3.42-1.36.04,0,.09,0,.13,0,.22-.01.42-.02.78-.71.29-.55.78-2.04.78-5.75V12.06c0-1.37.16-3.36,1.51-4.71,1-1,2.47-1.51,4.36-1.51h16.76c.25-1,.78-1.9,1.56-2.63.77-.82,2.1-1.71,4.22-1.71h5.88c1.6,0,3.04.57,4.15,1.65.82.74,1.37,1.67,1.63,2.69h14.59c2.06,0,3.56.49,4.57,1.51,1.26,1.26,1.44,3.01,1.44,4.71v3.01c0,1.25-.15,2.87-1.28,4.19-.24.28-.5.52-.78.71.25.75.39,1.63.45,2.64,0,.05,0,.11,0,.16v1.89c0,1.6-.39,2.93-1.16,3.95.77,1.1,1.16,2.59,1.16,4.45v15.61c0,1.56-.3,2.88-.9,3.95.09.08.17.17.26.26.94,1.01,1.27,2.46,1.46,4.3.01.1.02.21.02.32v1.33c0,1.76-.44,3.13-1.35,4.19-1.5,1.75-3.88,1.75-4.66,1.75h-9.49c-.14,1.3-.71,2.49-1.69,3.46-1.09,1.09-2.51,1.65-4.22,1.65h-5.6c-1.75,0-3.2-.56-4.29-1.65-.05-.04-.09-.09-.13-.14-.84-.96-1.36-2.07-1.53-3.32h-9.58c-2,0-3.53-.59-4.52-1.75-.06-.07-.12-.14-.17-.21-.39.53-.8,1.03-1.24,1.5-3.68,3.76-7.9,5.64-12.59,5.64ZM78.59,58.16v5.78c3.02-.06,5.65-1.3,8.08-3.79,2.44-2.61,3.69-6.93,3.69-12.81v-29.33c0-1.66,1.34-3,3-3h16.1c1.66,0,3,1.34,3,3v1.54c0,1.66-1.34,3-3,3h-11.56c0,.07,0,.14,0,.22v1.83h11.56c1.66,0,3,1.34,3,3v1.47c0,1.66-1.34,3-3,3h-10.43c-.55,0-.89.05-1.07.1-.03.16-.06.4-.06.75v15.82c0,.47.05.74.09.88.15.04.49.11,1.11.11h10.36c1.66,0,3,1.34,3,3v1.54c0,1.66-1.34,3-3,3h-12.4c0,.07,0,.14,0,.22v1.27h12.4c1.66,0,3,1.34,3,3v2.11h5.55v-2.11c0-1.66,1.34-3,3-3h12.47v-1.11c-.02-.14-.03-.27-.05-.38h-12.42c-1.66,0-3-1.34-3-3v-1.54c0-1.66,1.34-3,3-3h10.57c.58,0,.85-.08.95-.12.04-.12.11-.4.11-.94v-15.61c0-.41-.03-.69-.06-.86-.2-.06-.53-.13-1.07-.13h-10.5c-1.66,0-3-1.34-3-3v-1.47c0-1.66,1.34-3,3-3h11.63v-1.75c0-.11-.02-.21-.03-.31h-11.61c-1.66,0-3-1.34-3-3v-1.54c0-1.66,1.34-3,3-3h13.24v-2.95c0-.08,0-.15,0-.22h-17.44c-1.66,0-3-1.34-3-3v-1.34h-5.76s0,1.34,0,1.34c0,1.66-1.34,3-3,3h-19.47c0,.07,0,.14,0,.22v33.67c0,3.92-.46,6.63-1.46,8.53-1.54,2.93-3.81,3.75-5.54,3.9ZM132.93,32.37s0,0,0,0c0,0,0,0,0,0ZM97.74,32.28s0,0,0,0c0,0,0,0,0,0ZM85.67,11.12h0s0,0,0,0ZM123.55,49.01h-2.52c-1.66,0-3-1.34-3-3v-1.75c0-1.66,1.34-3,3-3h2.52c1.66,0,3,1.34,3,3v1.75c0,1.66-1.34,3-3,3ZM109.47,49.01h-2.52c-1.66,0-3-1.34-3-3v-1.75c0-1.66,1.34-3,3-3h2.52c1.66,0,3,1.34,3,3v1.75c0,1.66-1.34,3-3,3ZM123.55,40.54h-2.52c-1.66,0-3-1.34-3-3v-1.75c0-1.66,1.34-3,3-3h2.52c1.66,0,3,1.34,3,3v1.75c0,1.66-1.34,3-3,3ZM109.47,40.54h-2.52c-1.66,0-3-1.34-3-3v-1.75c0-1.66,1.34-3,3-3h2.52c1.66,0,3,1.34,3,3v1.75c0,1.66-1.34,3-3,3Z"/><path class="cls-3" d="M207.66,69.81h-10.22c-3.76-.09-6.62-1.07-8.57-2.92-.15-.14-.3-.29-.44-.45-.24.68-.62,1.29-1.12,1.79-.06.06-.13.12-.2.18-.97.81-2.23,1.26-3.54,1.26h-7.7c-1.29,0-2.57-.43-3.52-1.19-.72-.54-1.24-1.26-1.55-2.11-.16.18-.33.35-.5.51-1.96,1.85-4.82,2.84-8.5,2.92h-10.29c-1.61,0-3.09-.58-4.15-1.65-1.05-1.05-1.58-2.35-1.58-3.87v-3.85c0-1.52.53-2.82,1.58-3.87,1.06-1.06,2.54-1.65,4.15-1.65h5.12v-1.62c0-.36.04-.71.11-1.06h-4.87c-1.75,0-3.26-.64-4.36-1.86-1.08-1.11-1.65-2.5-1.65-4.01V12.62c0-1.45.56-2.75,1.65-3.88.76-.83,2.12-1.79,4.36-1.79h6.37c.83,0,1.61.15,2.32.45.02-.92.21-2.19,1.18-3.36.06-.07.12-.13.18-.2,1.37-1.37,3.15-1.37,3.74-1.37h39.41c.59,0,2.37,0,3.74,1.38.06.06.12.13.18.19.85,1.01,1.26,2.19,1.26,3.6v29.05c0,.31-.02.6-.06.89.76.2,1.5.56,2.12,1.19.06.06.12.13.18.2.85,1.01,1.26,2.49,1.26,4.51v2.8c0,1.56-.38,2.88-1.12,3.92-.05.07-.11.14-.16.21-.71.83-2.08,1.82-4.59,1.82h-5.43c.07.35.1.7.1,1.06v1.62h5.12c1.61,0,3.09.58,4.15,1.65,1.05,1.05,1.58,2.35,1.58,3.87v3.85c0,1.52-.53,2.82-1.58,3.87-1.06,1.07-2.54,1.65-4.15,1.65ZM191.97,53.71v5.4c0,1.63.34,2.78,1.02,3.42.82.77,2.42,1.23,4.52,1.28h9.88v-2.89h-5.12c-1.57,0-3.02-.59-4.08-1.66-1.06-1.06-1.65-2.53-1.65-4.15v-1.41h-4.57ZM151.78,63.8h9.95c2.02-.04,3.63-.5,4.45-1.27.68-.64,1.02-1.8,1.02-3.42v-5.4h-4.57v1.41c0,1.62-.59,3.09-1.65,4.16-1.08,1.08-2.49,1.65-4.08,1.65h-5.12v2.88ZM176.5,63.67h6.25v-14.43c0-1.66,1.34-3,3-3h21.99v-2.74c0-.05,0-.1,0-.15h-46.56c-1.66,0-3-1.34-3-3V12.96h-6.31s0,0-.01,0v33.27h21.64c1.66,0,3,1.34,3,3v14.43ZM166.56,35.8h37.68V8.48s-37.68,0-37.68,0v27.32ZM205.26,8.49h0,0ZM194.92,34.87h-19.11c-1.66,0-3-1.34-3-3v-2.31c0-1.66,1.34-3,3-3h19.11c1.66,0,3,1.34,3,3v2.31c0,1.66-1.34,3-3,3ZM194.92,26.05h-19.11c-1.66,0-3-1.34-3-3v-2.17c0-1.66,1.34-3,3-3h19.11c1.66,0,3,1.34,3,3v2.17c0,1.66-1.34,3-3,3ZM194.92,17.3h-19.11c-1.66,0-3-1.34-3-3v-2.17c0-1.66,1.34-3,3-3h19.11c1.66,0,3,1.34,3,3v2.17c0,1.66-1.34,3-3,3Z"/><path class="cls-2" d="M13.04,51.89h-5.53c-1.19,0-2.03-.28-2.45-.77-.35-.42-.56-1.19-.56-2.24v-4.13c0-1.33.21-2.17.56-2.59.42-.42,1.26-.63,2.45-.63h6.86V15c0-1.33.21-2.24.63-2.66.42-.42,1.19-.7,2.24-.98l37.59-5.67c1.12-.21,1.89-.21,2.38,0,.42.21.63.98.63,2.31v5.32c0,1.19-.21,2.1-.56,2.52-.42.49-1.26.84-2.59,1.12l-26.04,3.92v3.57h29.89c1.19,0,1.96.21,2.38.63s.63,1.26.63,2.59v4.13c0,1.05-.21,1.75-.63,2.24s-1.19.7-2.38.7h-1.68v6.79h7.07c1.12,0,1.89.21,2.31.63.35.42.56,1.26.56,2.59v4.13c0,1.05-.21,1.82-.56,2.24-.42.49-1.19.77-2.31.77h-5.67l4.27,11.97c.07.77-.14,1.47-.7,2.1-.56.56-1.26.84-2.03.77h-7.28c-1.47.07-2.45-.14-2.94-.56-.42-.42-.91-1.19-1.33-2.31l-4.34-11.97h-16.52l-4.34,11.97c-.42,1.12-.91,1.89-1.33,2.31-.49.42-1.47.63-2.94.56h-7.28c-.77.07-1.47-.21-2.03-.77-.56-.63-.77-1.33-.7-2.1l4.27-11.97ZM42.58,41.53v-6.79h-13.93v6.79h13.93Z"/><path class="cls-2" d="M120.19,66.11c-.56.56-1.26.77-2.1.77h-5.6c-.91,0-1.61-.21-2.17-.77-.49-.56-.77-1.19-.84-1.96v-2.38h-12.53c-1.05,0-1.82-.21-2.24-.7s-.63-1.19-.63-2.24v-1.33c0-1.33.21-2.24.63-2.59.42-.42,1.19-.63,2.24-.63h12.53v-1.54h-10.36c-1.47,0-2.52-.28-3.22-.91-.63-.63-.98-1.61-.98-3.08v-15.82c0-1.47.35-2.52.98-3.01.63-.56,1.68-.84,3.15-.84h10.43v-1.47h-11.69c-1.12,0-1.82-.21-2.24-.7-.42-.49-.63-1.26-.63-2.24v-1.89c0-1.33.21-2.24.63-2.66.42-.35,1.12-.56,2.24-.56h11.69v-1.54h-16.1v29.33c0,6.72-1.54,11.69-4.55,14.91-3.08,3.15-6.58,4.76-10.64,4.69-.77,0-1.33-.28-1.89-.7-.49-.49-.7-1.05-.7-1.82v-6.65c0-.77.21-1.33.7-1.82.56-.42,1.12-.7,1.89-.77,1.47-.07,2.52-.84,3.29-2.31.77-1.47,1.12-3.85,1.12-7.14V12.06c0-1.33.21-2.17.63-2.59s1.19-.63,2.24-.63h19.6v-1.68c0-.7.28-1.33.84-1.82.49-.56,1.19-.84,2.1-.84h5.88c.84,0,1.54.28,2.1.84.56.49.84,1.12.84,1.82v1.68h17.43c1.19,0,2.03.21,2.45.63s.56,1.26.56,2.59v3.01c0,1.05-.14,1.75-.56,2.24s-1.26.7-2.45.7h-13.23v1.54h11.62c1.19,0,1.96.21,2.31.56.35.42.63,1.33.7,2.66v1.89c0,.98-.21,1.75-.63,2.24s-1.19.7-2.38.7h-11.62v1.47h10.5c1.33,0,2.31.28,3.01.77.77.49,1.12,1.61,1.12,3.22v15.61c0,1.47-.35,2.52-1.05,3.15-.7.63-1.68.91-3.01.91h-10.57v1.54h12.46c1.19,0,1.96.21,2.31.63.35.35.56,1.26.7,2.59v1.33c0,1.05-.21,1.75-.63,2.24-.42.49-1.19.7-2.38.7h-12.46v2.38c0,.77-.28,1.4-.84,1.96ZM106.95,37.54h2.52v-1.75h-2.52v1.75ZM106.95,46.01h2.52v-1.75h-2.52v1.75ZM123.55,35.79h-2.52v1.75h2.52v-1.75ZM123.55,44.26h-2.52v1.75h2.52v-1.75Z"/><path class="cls-2" d="M167.69,50.71c.7.07,1.33.28,1.75.77.49.49.77,1.12.77,1.82v5.81c0,2.45-.63,4.34-1.96,5.6-1.33,1.26-3.5,2.03-6.51,2.1h-10.22c-.84,0-1.54-.28-2.03-.77s-.7-1.05-.7-1.75v-3.85c0-.7.21-1.26.7-1.75s1.19-.77,2.03-.77h5.39c.84,0,1.47-.28,1.96-.77.49-.49.77-1.19.77-2.03v-1.82c0-.7.28-1.33.77-1.82.49-.49,1.12-.7,1.82-.77h5.46ZM185.75,49.23v15.26c0,.7-.21,1.26-.56,1.61-.42.35-.98.56-1.61.56h-7.7c-.63,0-1.26-.21-1.68-.56-.49-.35-.7-.91-.7-1.61v-15.26h-21.63c-.98,0-1.68-.35-2.17-.91-.56-.56-.84-1.19-.84-1.96V12.62c0-.7.28-1.26.84-1.82.49-.56,1.19-.84,2.17-.84h6.37c.84,0,1.54.28,2.1.84s.84,1.12.84,1.82v27.72h46.69c1.12,0,1.89.14,2.31.56.35.42.56,1.33.56,2.59v2.8c0,.98-.21,1.68-.56,2.17-.42.49-1.19.77-2.31.77h-22.12ZM206.68,5.97c.35.42.56.91.56,1.68v29.05c0,.7-.21,1.26-.56,1.61-.35.35-.84.49-1.61.49h-39.41c-.77,0-1.26-.14-1.61-.49-.35-.35-.49-.91-.49-1.61V7.65c0-.77.14-1.26.49-1.68.35-.35.84-.49,1.61-.49h39.41c.77,0,1.26.14,1.61.49ZM194.92,12.13h-19.11v2.17h19.11v-2.17ZM194.92,20.88h-19.11v2.17h19.11v-2.17ZM194.92,29.56h-19.11v2.31h19.11v-2.31ZM198.77,51.47c.49.49.77,1.12.77,1.82v1.82c0,.84.28,1.54.77,2.03.49.49,1.19.77,1.96.77h5.39c.84,0,1.54.28,2.03.77.49.49.7,1.05.7,1.75v3.85c0,.7-.21,1.26-.7,1.75-.49.49-1.19.77-2.03.77h-10.22c-3.01-.07-5.18-.84-6.51-2.1-1.33-1.26-1.96-3.15-1.96-5.6v-5.81c0-.7.28-1.33.77-1.82.42-.49,1.05-.7,1.75-.77h5.46c.7.07,1.33.28,1.82.77Z"/></g></svg>