<?xml version="1.0" encoding="UTF-8"?><svg id="_レイヤー_2" xmlns="http://www.w3.org/2000/svg" viewBox="0 0 218.01 70.82"><defs><style>.cls-1,.cls-2,.cls-3{stroke-width:0px;}.cls-2{fill:#198caa;}.cls-3{fill:#fff;}</style></defs><g id="_レイヤー_4"><path class="cls-1" d="M57.57,27.04c-1.05,0-1.75-.28-2.17-.77-.42-.56-.63-1.19-.63-2.03v-5.18H15.91v5.18c0,.98-.35,1.68-.98,2.17-.56.42-1.33.63-2.1.63h-5.32c-1.19,0-2.03-.21-2.45-.7-.35-.49-.56-1.26-.56-2.24v-11.48c0-1.33.21-2.17.56-2.59.42-.42,1.26-.63,2.45-.63h19.67v-2.59c0-.7.21-1.26.63-1.68.42-.42,1.05-.63,1.75-.63h11.69c.7,0,1.33.21,1.68.63.42.42.63.98.63,1.68v2.59h19.74c1.12,0,1.89.21,2.31.63.35.42.56,1.26.56,2.59v11.62c0,.84-.21,1.47-.56,2.03-.42.49-1.19.77-2.31.77h-5.74ZM10.59,65.41c-.63-.49-.91-1.54-.91-3.01v-15.26c0-1.47.35-2.52.98-3.08.63-.63,1.75-.98,3.15-.98h14.91v-2.17h-6.58c-1.47,0-2.52-.28-3.15-.77-.7-.56-.98-1.54-.98-3.01v-11.48c0-1.4.35-2.45.98-3.08.7-.63,1.75-.91,3.22-.91h26.39c1.33,0,2.31.28,3.01.91.7.7,1.05,1.75,1.05,3.15v11.27c0,1.61-.35,2.66-1.12,3.15-.7.56-1.68.77-3.01.77h-6.58v2.17h15.05c1.26,0,2.24.35,2.94.98.7.63,1.05,1.68,1.05,3.15v15.05c0,1.61-.35,2.73-1.05,3.22-.77.49-1.75.77-3.01.77H13.74c-1.4,0-2.45-.28-3.15-.84ZM46.92,53.08h-23.24v3.08h23.24v-3.08ZM40.2,30.12h-9.8v2.24h9.8v-2.24Z"/><path class="cls-1" d="M98.81,15.84c0-.77.28-1.4.84-1.96.49-.56,1.12-.91,1.89-.91h17.85v-5.53c0-.77.28-1.4.84-2.03.56-.56,1.19-.84,1.96-.84h2.52c.77,0,1.4.28,1.96.84.56.63.91,1.26.91,2.03v5.53h8.33c1.33,0,2.17.21,2.59.63.42.35.7,1.19.7,2.52v6.23c0,.98-.28,1.68-.7,2.17-.42.49-1.26.77-2.59.77h-8.33v10.57c-.07,3.99.28,7.07,1.05,9.24.77-2.17,1.12-5.25,1.12-9.24v-5.74c0-.77.28-1.4.77-1.96.56-.63,1.19-.91,1.96-.91h2.59c.77,0,1.4.28,1.96.91.56.56.84,1.19.84,1.96v9.24c0,4.13-.91,7.98-2.73,11.62,2.73,1.26,4.34,2.1,4.76,2.52.49.42.7.98.7,1.61v8.33c0,.77-.28,1.33-.84,1.82-.56.42-1.26.7-2.03.77-1.19,0-4.2-2.38-9.1-7.07-4.9,4.69-7.91,7.07-9.03,7.07-.84-.07-1.54-.35-2.1-.77-.49-.49-.77-1.05-.77-1.82v-8.33c0-.63.21-1.19.7-1.61.35-.42,1.96-1.26,4.69-2.52-1.82-3.64-2.73-7.49-2.73-11.62v-14.07h-11.62v6.93h6.58c1.4,0,2.31.21,2.73.49.42.35.63,1.12.63,2.17v13.44c0,1.68-.28,2.8-.91,3.36-.56.63-1.75.91-3.57.91h-2.87c-2.1,0-3.22-.91-3.22-2.73v-.63c0-1.89.98-2.87,2.94-2.87v-5.32h-2.31c-.21,6.37-1.68,12.11-4.34,17.36-2.73,5.25-4.9,7.91-6.51,7.91-.77-.07-1.4-.35-1.96-.77-.49-.49-.77-1.05-.77-1.82v-8.33c0-.49.14-.98.35-1.4-.21.07-.49.21-.84.35l-14,5.39c-1.26.28-2.1.21-2.52-.35-.35-.49-.56-1.33-.49-2.38v-6.3c0-1.12.14-1.96.42-2.31.35-.42.91-.84,1.82-1.33l2.59-1.05v-15.61h-1.47c-1.12,0-1.82-.28-2.24-.7-.35-.49-.56-1.26-.56-2.24v-6.16c0-1.33.21-2.17.56-2.59.42-.42,1.12-.63,2.24-.63h1.47V7.79c0-.7.28-1.33.84-1.89.49-.56,1.19-.84,2.1-.84h4.97c.77,0,1.4.28,1.89.84.49.56.84,1.19.98,1.89v10.29h1.47c1.19,0,2.03.21,2.45.63s.63,1.26.63,2.59v6.16c0,.98-.21,1.75-.63,2.24-.42.42-1.26.7-2.45.7h-1.47v11.48l1.4-.56c1.19-.35,1.96-.21,2.38.28.42.49.63,1.19.63,1.96v5.67c.49-1.05.84-2.1,1.12-3.08.63-2.1.98-5.46.98-10.01V15.84ZM137.17,10.87c-.63.49-1.4.77-2.31.77h-2.52c-.98,0-1.75-.28-2.31-.77-.63-.49-.91-1.12-.98-1.89v-1.75c.07-.7.35-1.33.98-1.89.56-.49,1.33-.77,2.31-.77h2.52c.91,0,1.68.28,2.31.77.63.56.91,1.19.91,1.89v1.75c0,.77-.28,1.4-.91,1.89Z"/><path class="cls-1" d="M170.45,50.21c.7.07,1.33.28,1.75.77.49.49.77,1.12.77,1.82v5.81c0,2.45-.63,4.34-1.96,5.6-1.33,1.26-3.5,2.03-6.51,2.1h-10.22c-.84,0-1.54-.28-2.03-.77-.49-.49-.7-1.05-.7-1.75v-3.85c0-.7.21-1.26.7-1.75s1.19-.77,2.03-.77h5.39c.84,0,1.47-.28,1.96-.77.49-.49.77-1.19.77-2.03v-1.82c0-.7.28-1.33.77-1.82s1.12-.7,1.82-.77h5.46ZM188.51,48.74v15.26c0,.7-.21,1.26-.56,1.61-.42.35-.98.56-1.61.56h-7.7c-.63,0-1.26-.21-1.68-.56-.49-.35-.7-.91-.7-1.61v-15.26h-21.63c-.98,0-1.68-.35-2.17-.91-.56-.56-.84-1.19-.84-1.96V12.13c0-.7.28-1.26.84-1.82.49-.56,1.19-.84,2.17-.84h6.37c.84,0,1.54.28,2.1.84s.84,1.12.84,1.82v27.72h46.69c1.12,0,1.89.14,2.31.56.35.42.56,1.33.56,2.59v2.8c0,.98-.21,1.68-.56,2.17-.42.49-1.19.77-2.31.77h-22.12ZM209.45,5.48c.35.42.56.91.56,1.68v29.05c0,.7-.21,1.26-.56,1.61-.35.35-.84.49-1.61.49h-39.41c-.77,0-1.26-.14-1.61-.49-.35-.35-.49-.91-.49-1.61V7.16c0-.77.14-1.26.49-1.68.35-.35.84-.49,1.61-.49h39.41c.77,0,1.26.14,1.61.49ZM197.68,11.64h-19.11v2.17h19.11v-2.17ZM197.68,20.39h-19.11v2.17h19.11v-2.17ZM197.68,29.07h-19.11v2.31h19.11v-2.31ZM201.53,50.99c.49.49.77,1.12.77,1.82v1.82c0,.84.28,1.54.77,2.03.49.49,1.19.77,1.96.77h5.39c.84,0,1.54.28,2.03.77.49.49.7,1.05.7,1.75v3.85c0,.7-.21,1.26-.7,1.75s-1.19.77-2.03.77h-10.22c-3.01-.07-5.18-.84-6.51-2.1-1.33-1.26-1.96-3.15-1.96-5.6v-5.81c0-.7.28-1.33.77-1.82.42-.49,1.05-.7,1.75-.77h5.46c.7.07,1.33.28,1.82.77Z"/><path class="cls-2" d="M56.94,70.75H13.74c-2.43,0-4.43-.61-5.94-1.81-1.74-1.37-2.62-3.57-2.62-6.54v-15.26c0-3.39,1.27-5.32,2.39-6.35,1.46-1.4,3.53-2.16,6.01-2.21-.07-.62-.07-1.13-.07-1.45v-5.61c-.23.02-.45.03-.68.03h-5.32c-.97,0-3.92,0-5.87-2.27-.09-.1-.17-.21-.25-.31-.91-1.28-1.4-2.96-1.4-4.85v-11.48c0-2.39.52-4.17,1.6-5.47.09-.1.18-.2.27-.3,1.31-1.31,3.15-1.95,5.64-1.95h15.42c.3-1.12.87-2.12,1.7-2.95,1.26-1.26,3.01-1.95,4.94-1.95h11.69c1.99,0,3.79.75,4.99,2.08.76.8,1.29,1.76,1.58,2.82h15.49c2.35,0,4.2.66,5.5,1.95.1.1.19.2.27.3,1.09,1.31,1.6,3.05,1.6,5.47v11.62c0,1.61-.42,3.09-1.24,4.41-.12.19-.25.37-.4.54-.92,1.07-2.65,2.34-5.73,2.34h-5.74c-.14,0-.27,0-.4,0v5.45c0,.56-.03,1.09-.09,1.59,2.92.02,4.81,1.17,5.89,2.14,1.68,1.51,2.54,3.7,2.54,6.49v15.05c0,3.2-1,5.53-2.97,6.91-.05.04-.11.07-.17.11-1.54.98-3.36,1.47-5.43,1.47ZM14.18,61.75h42.32v-14.17h-14.54c-2.49,0-4.5-2.01-4.5-4.5v-2.17c0-1.77,1.03-3.31,2.52-4.04h-9.27c1.49.73,2.52,2.27,2.52,4.04v2.17c0,2.49-2.01,4.5-4.5,4.5h-14.54v14.17ZM42.19,36.4h5.98v-10.25h-5.84c1.42.76,2.38,2.25,2.38,3.97v2.24c0,1.77-1.03,3.31-2.52,4.04ZM22.51,36.4h5.91c-1.49-.73-2.52-2.27-2.52-4.04v-2.24c0-1.72.96-3.21,2.38-3.97h-5.77v10.25ZM49.13,36.34s0,0,0,0c0,0,0,0,0,0ZM59.27,22.54h2.41v-8.64h-18.11c-2.49,0-4.5-2.01-4.5-4.5v-.4h-7.38v.4c0,2.49-2.01,4.5-4.5,4.5H9v8.64h2.41v-3.48c0-2.49,2.01-4.5,4.5-4.5h38.85c2.49,0,4.5,2.01,4.5,4.5v3.48ZM46.92,60.67h-23.24c-2.49,0-4.5-2.01-4.5-4.5v-3.08c0-2.49,2.01-4.5,4.5-4.5h23.24c2.49,0,4.5,2.01,4.5,4.5v3.08c0,2.49-2.01,4.5-4.5,4.5Z"/><path class="cls-2" d="M96.92,70.82c-.13,0-.27,0-.4-.02-1.55-.14-2.98-.7-4.26-1.65-.17-.13-.33-.27-.48-.42-1.36-1.37-2.08-3.1-2.08-5v-3.02l-8.37,3.22c-.21.08-.42.15-.64.19-3.94.87-6.04-.63-7.1-2.05-.02-.03-.04-.06-.06-.08-.96-1.34-1.42-3.15-1.33-5.12v-6.17c0-2.29.45-3.92,1.41-5.12.8-.96,1.8-1.73,3.2-2.48.07-.04.15-.08.22-.11v-8.59c-1.09-.4-1.87-.99-2.39-1.51-.18-.18-.34-.37-.48-.57-.91-1.28-1.4-2.96-1.4-4.85v-6.16c0-2.39.52-4.17,1.6-5.47.09-.1.18-.21.28-.3.75-.74,1.59-1.2,2.39-1.49v-6.25c0-1.86.71-3.58,2.06-4.97,1.33-1.46,3.24-2.26,5.38-2.26h4.97c2.06,0,3.94.84,5.28,2.38,1.04,1.2,1.72,2.53,2,3.97.06.29.09.58.09.88v2.57c1.31-1.23,2.97-1.89,4.74-1.89h13.35v-1.03c0-1.85.67-3.54,1.98-5.02.06-.07.12-.13.18-.2,1.41-1.41,3.19-2.16,5.14-2.16h2.52c1.31,0,2.54.34,3.64.99,1.18-.65,2.53-.99,3.99-.99h2.52c1.87,0,3.63.59,5.07,1.72.08.06.16.13.23.19,1.56,1.39,2.42,3.25,2.42,5.25v1.75c0,.73-.11,1.43-.31,2.09.95,1.25,1.43,2.94,1.43,5.05v6.23c0,2.49-.97,4.15-1.78,5.1-.01.02-.03.03-.04.04.33.82.49,1.71.49,2.63v9.24c0,3.25-.5,6.41-1.48,9.43,1.07.59,1.63,1,2.06,1.4,1.39,1.25,2.15,2.99,2.15,4.92v8.33c0,2.04-.82,3.84-2.38,5.21-.09.07-.17.15-.26.21-1.25.94-2.74,1.51-4.32,1.65-.14.01-.27.02-.41.02-2.01,0-4.06-.89-9.1-5.42-5.03,4.53-7.06,5.42-9.03,5.42-.12,0-.25,0-.38-.02-1.63-.14-3.16-.71-4.42-1.65-.17-.13-.33-.27-.49-.42-1.36-1.37-2.08-3.09-2.08-5v-6.35h-1.87c-.47,0-.92-.03-1.36-.09-.47,1.17-.99,2.31-1.56,3.43-3.25,6.25-6.27,10.38-10.53,10.38ZM128.63,54.47c1.12,0,2.24.42,3.11,1.25,1.9,1.82,3.32,3.09,4.36,3.98v-3.25c-.57-.29-1.46-.73-2.85-1.37-1.11-.51-1.96-1.45-2.36-2.6s-.32-2.41.22-3.5c.03-.06.06-.12.09-.18-1.48,1.03-3.67,1.03-5.15,0,.03.06.06.12.09.18.54,1.09.62,2.35.22,3.5s-1.25,2.09-2.36,2.6c-1.36.63-2.23,1.05-2.78,1.34v3.23c1.04-.89,2.43-2.15,4.29-3.93.87-.83,1.99-1.25,3.11-1.25ZM98.69,55.74v1.99c.24-.43.49-.89.75-1.4,2.39-4.71,3.65-9.77,3.83-15.43.07-2.12,1.6-3.86,3.6-4.26-1.87-.38-3.31-1.91-3.56-3.81v3.33c0,4.92-.39,8.72-1.17,11.31-.38,1.34-.83,2.57-1.35,3.69-.4.86-1.05,1.55-1.83,2,.17.86.08,1.77-.27,2.6ZM81.18,51v3.34l11.1-4.28c-.05-.27-.08-.54-.08-.82v-2.85c-.86-.02-1.7-.28-2.43-.77-1.24-.84-1.98-2.23-1.98-3.73v-11.48c0-2.49,2.01-4.5,4.5-4.5h.05v-3.32h-.05c-2.49,0-4.5-2.01-4.5-4.5v-8.52h-1.78v8.52c0,2.41-1.89,4.38-4.27,4.49v3.33c2.38.12,4.27,2.09,4.27,4.49v15.61c0,1.83-1.11,3.48-2.81,4.17l-2.02.82ZM111.34,36.72c.71.21,1.35.59,1.87,1.09v-1.09h-1.87ZM103.31,17.47v7.23c.29-2.2,2.18-3.9,4.46-3.9h11.62c1.82,0,3.39,1.08,4.1,2.63.71-1.55,2.28-2.63,4.1-2.63h7.12v-3.32h-7.12c-1.82,0-3.39-1.08-4.1-2.63-.71,1.55-2.28,2.63-4.1,2.63h-16.08Z"/><path class="cls-2" d="M210.43,70.82h-10.22s-.07,0-.1,0c-3.51-.08-6.37-.92-8.52-2.51-.14.17-.29.34-.44.5-.09.1-.19.19-.3.27-1.24,1.04-2.84,1.61-4.49,1.61h-7.7c-1.62,0-3.22-.54-4.43-1.5-.37-.28-.71-.6-1-.94-2.17,1.63-5.06,2.5-8.61,2.58-.03,0-.07,0-.1,0h-10.22c-2.01,0-3.87-.74-5.21-2.09-1.32-1.32-2.02-3.03-2.02-4.93v-3.85c0-1.91.7-3.61,2.02-4.93,1.03-1.03,2.34-1.7,3.8-1.96-1.43-.33-2.71-1.06-3.69-2.13-1.35-1.4-2.06-3.14-2.06-5.04V12.13c0-1.85.69-3.5,2.06-4.91.97-1.06,2.68-2.25,5.45-2.25h6.37c.37,0,.73.02,1.08.07.25-.91.67-1.72,1.27-2.44.09-.1.18-.2.27-.3,1.2-1.2,2.81-1.81,4.8-1.81h39.41c1.98,0,3.6.61,4.8,1.81.09.1.19.19.27.3,1.06,1.28,1.6,2.81,1.6,4.56v28.93c.56.27,1.12.64,1.62,1.14.1.1.19.2.28.3,1.08,1.29,1.6,3.08,1.6,5.47v2.8c0,1.87-.47,3.48-1.4,4.78-.08.11-.16.21-.25.31-.75.87-2.04,1.88-4.17,2.22,1.31.3,2.5.95,3.44,1.89,1.32,1.32,2.02,3.02,2.02,4.93v3.85c0,1.91-.7,3.61-2.02,4.93-1.35,1.35-3.2,2.09-5.21,2.09ZM200.26,61.82h3.48c-1.47-.25-2.8-.93-3.85-1.98-1.33-1.32-2.07-3.14-2.09-5.12h-1.57v3.9c0,1.15.2,2,.56,2.33.41.39,1.53.81,3.47.87ZM160.99,61.82h3.46c2.5-.07,3.33-.73,3.47-.87.35-.33.55-1.18.55-2.33v-3.9h-1.57c-.02,1.98-.76,3.8-2.09,5.13-1.05,1.06-2.36,1.73-3.82,1.98ZM180.76,61.68h3.25v-12.93c0-2.15,1.5-3.94,3.51-4.39h-10.28c2.01.45,3.51,2.25,3.51,4.39v12.93ZM156.12,44.25h6.83c-2.01-.45-3.51-2.25-3.51-4.39V13.97h-3.32v30.27ZM201.47,33.81h4.03V9.49h-3.87c.35.64.55,1.37.55,2.15v2.17c0,1.3-.55,2.47-1.43,3.29.88.82,1.43,1.99,1.43,3.29v2.17c0,1.28-.54,2.44-1.39,3.26.86.82,1.39,1.98,1.39,3.26v2.31c0,.9-.26,1.73-.71,2.43ZM170.82,33.81h3.96c-.45-.7-.71-1.53-.71-2.43v-2.31c0-1.28.54-2.44,1.39-3.26-.86-.82-1.39-1.98-1.39-3.26v-2.17c0-1.3.55-2.47,1.43-3.29-.88-.82-1.43-1.99-1.43-3.29v-2.17c0-.78.2-1.51.55-2.15h-3.8v24.32ZM207.88,9.49h0,0Z"/><path class="cls-3" d="M56.94,69.25H13.74c-2.08,0-3.77-.5-5.01-1.49-2.05-1.61-2.05-4.43-2.05-5.36v-15.26c0-2.87,1.03-4.44,1.92-5.26,1.21-1.18,3.01-1.8,5.21-1.8h1.64c-.44-1.23-.44-2.41-.44-2.95v-7.43c-.69.23-1.42.35-2.18.35h-5.32c-.8,0-3.23,0-4.73-1.75-.06-.07-.11-.14-.16-.21-.73-1.03-1.12-2.4-1.12-3.98v-11.48c0-2.05.4-3.48,1.25-4.51.06-.07.12-.14.18-.2,1.02-1.02,2.51-1.51,4.57-1.51h16.69c.09-1.33.6-2.49,1.49-3.39.98-.98,2.35-1.51,3.87-1.51h11.69c1.57,0,2.98.58,3.89,1.6.84.88,1.33,2.02,1.41,3.3h16.76c1.97,0,3.42.49,4.43,1.51.06.06.12.13.18.2.86,1.03,1.25,2.46,1.25,4.51v11.62c0,1.34-.33,2.53-1.02,3.62-.08.13-.17.25-.27.36-.71.83-2.08,1.82-4.59,1.82h-5.74c-.73,0-1.36-.09-1.9-.24v7.18c0,1.18-.16,2.22-.48,3.09h1.82c1.97,0,3.68.61,4.95,1.75,1.35,1.22,2.04,3.03,2.04,5.38v15.05c0,2.69-.78,4.6-2.33,5.68-.04.03-.07.05-.11.07-1.29.82-2.85,1.24-4.62,1.24ZM12.72,63.15c.2.05.52.1,1.02.1h43.19c.39,0,.73-.04,1-.12.03-.18.06-.46.06-.87v-15.05c0-.58-.08-.86-.12-.96-.17-.11-.49-.17-.87-.17h-15.05c-1.66,0-3-1.34-3-3v-2.17c0-1.66,1.34-3,3-3h6.58c.62,0,.93-.06,1.07-.1.03-.16.06-.42.06-.82v-11.27c0-.52-.08-.82-.13-.95-.12-.04-.39-.11-.93-.11h-26.39c-.62,0-.95.07-1.11.11-.03.13-.09.43-.09.88v11.48c0,.31.02.53.04.68.21.05.56.1,1.09.1h6.58c1.66,0,3,1.34,3,3v2.17c0,1.66-1.34,3-3,3h-14.91c-.54,0-.88.08-1.03.14-.04.14-.1.43-.1.92v15.26c0,.34.02.59.04.75ZM12.43,63.04h0s0,0,0,0ZM12.66,46.3s0,0,0,0c0,0,0,0,0,0ZM57.77,24.04h5.41v-11.42c0-.08,0-.15,0-.22h-19.61c-1.66,0-3-1.34-3-3v-1.9h-10.38s0,1.9,0,1.9c0,1.66-1.34,3-3,3H7.5c0,.07,0,.14,0,.22v11.42h5.33s.05,0,.08,0v-4.98c0-1.66,1.35-3,3-3h38.85c1.66,0,3,1.34,3,3v4.98ZM46.92,59.17h-23.24c-1.66,0-3-1.34-3-3v-3.08c0-1.66,1.34-3,3-3h23.24c1.66,0,3,1.34,3,3v3.08c0,1.66-1.34,3-3,3ZM40.2,35.36h-9.8c-1.66,0-3-1.34-3-3v-2.24c0-1.66,1.34-3,3-3h9.8c1.66,0,3,1.34,3,3v2.24c0,1.66-1.34,3-3,3Z"/><path class="cls-3" d="M96.92,69.32c-.09,0-.18,0-.27-.01-1.27-.11-2.44-.57-3.49-1.36-.11-.09-.22-.18-.32-.28-1.09-1.1-1.65-2.42-1.65-3.94v-5.2l-10.41,4.01c-.14.05-.28.1-.43.13-2.54.56-4.41.06-5.57-1.48-.81-1.13-1.18-2.62-1.09-4.27v-6.21c0-1.96.33-3.25,1.08-4.18.66-.8,1.5-1.43,2.74-2.1.1-.05.2-.1.3-.14l.72-.29v-10.73c-1.14-.22-2.09-.7-2.83-1.44-.12-.12-.22-.24-.32-.38-.73-1.03-1.12-2.4-1.12-3.98v-6.16c0-2.05.4-3.48,1.25-4.51.06-.07.12-.14.18-.2.86-.86,1.94-1.23,2.83-1.39v-7.41c0-1.47.57-2.83,1.65-3.94.76-.83,2.1-1.79,4.29-1.79h4.97c1.65,0,3.08.65,4.15,1.86.87,1,1.43,2.1,1.66,3.28.04.19.06.39.06.59v7.4c.18.03.36.06.54.1.12-1.3.68-2.48,1.62-3.46,1.09-1.2,2.53-1.86,4.08-1.86h14.85v-2.53c0-1.48.54-2.83,1.6-4.02.04-.04.08-.09.12-.13,1.12-1.12,2.54-1.72,4.08-1.72h2.52c1.34,0,2.57.45,3.61,1.29,1.11-.85,2.48-1.29,4.02-1.29h2.52c1.54,0,2.97.48,4.15,1.4.05.04.1.08.15.13,1.25,1.11,1.92,2.54,1.92,4.13v1.75c0,.87-.19,1.68-.55,2.41,1.11.99,1.67,2.58,1.67,4.73v6.23c0,2.03-.77,3.36-1.42,4.12-.22.26-.47.48-.74.69.55.89.83,1.89.83,2.96v9.24c0,3.52-.61,6.93-1.83,10.16,1.71.86,2.43,1.34,2.89,1.77,1.08.96,1.67,2.31,1.67,3.82v8.33c0,1.62-.63,2.99-1.86,4.08-.06.05-.12.1-.18.14-1.03.77-2.26,1.24-3.56,1.36-.09,0-.18.01-.27.01-1.73,0-3.72-.98-9.1-5.95-5.93,5.48-7.58,5.95-9.03,5.95-.08,0-.17,0-.25-.01-1.35-.11-2.61-.58-3.65-1.36-.11-.09-.22-.18-.32-.28-1.09-1.09-1.65-2.42-1.65-3.94v-7.86c-.17,0-.34,0-.5,0h-2.87c-.84,0-1.61-.11-2.3-.32-.57,1.53-1.22,3.03-1.96,4.49-3.53,6.79-6.19,9.55-9.19,9.55ZM128.63,55.97c.75,0,1.49.28,2.07.83,4.06,3.88,6,5.38,6.9,5.97v-7.21c-.45-.26-1.46-.8-3.72-1.84-.74-.34-1.3-.96-1.57-1.73-.27-.77-.22-1.61.15-2.33,1.62-3.25,2.41-6.61,2.41-10.28v-9.11h-2.15l.03,5.61c0,4.44-.42,7.79-1.29,10.25-.42,1.2-1.56,2-2.83,2s-2.4-.8-2.83-2c-.9-2.53-1.3-5.9-1.22-10.3v-10.52c0-1.66,1.34-3,3-3h8.33c.11,0,.21,0,.29,0v-6.16c0-.05,0-.1,0-.15-.09,0-.18,0-.29,0h-8.33c-1.66,0-3-1.34-3-3v-5.38s0-.01-.01-.02h-2.18v5.4c0,1.66-1.34,3-3,3h-17.58v20.17c0,4.77-.37,8.43-1.11,10.87-.37,1.31-.78,2.43-1.27,3.48-.46,1-1.42,1.64-2.47,1.72.66.9.77,2.1.26,3.11-.02.05-.04.09-.04.1v7.28c.69-.78,1.87-2.4,3.58-5.69,2.49-4.93,3.81-10.19,4-16.08.05-1.62,1.38-2.9,3-2.9h2.31c1.66,0,3,1.34,3,3v5.32c0,1.64-1.31,2.97-2.94,3v.23c.06,0,.14,0,.22,0h2.87c.72,0,1.16-.05,1.4-.1.04-.21.08-.58.08-1.17v-13.1c-.11,0-.23,0-.36,0h-6.58c-1.66,0-3-1.34-3-3v-6.93c0-1.66,1.34-3,3-3h11.62c1.66,0,3,1.34,3,3v14.07c0,3.67.79,7.03,2.41,10.28.36.73.42,1.57.15,2.33-.27.77-.84,1.39-1.57,1.73-2.27,1.05-3.24,1.57-3.65,1.81v7.21c.91-.61,2.87-2.14,6.83-5.93.58-.55,1.33-.83,2.07-.83ZM79.71,50.09c-.01.15-.02.35-.02.62v5.82l12.93-4.98c.08-.03.19-.08.29-.12.26-.11.49-.21.68-.27.23-.08.47-.12.7-.15-.37-.5-.58-1.11-.58-1.77v-4.68l-.3.12c-.92.37-1.97.26-2.8-.3-.82-.56-1.32-1.49-1.32-2.48v-11.48c0-1.66,1.34-3,3-3h1.47s.05,0,.08,0v-6.1c0-.08,0-.15,0-.22-.03,0-.05,0-.08,0h-1.47c-1.66,0-3-1.34-3-3v-9.87c-.03-.05-.06-.11-.09-.16h-4.69v10.02c0,1.66-1.34,3-3,3h-1.27c0,.07,0,.14,0,.22v6.1h1.27c1.66,0,3,1.34,3,3v15.61c0,1.22-.74,2.32-1.87,2.78l-2.43.98c-.22.12-.38.22-.5.31ZM119.73,55.43s0,0,0,0c0,0,0,0,0,0ZM114.56,49.75h0,0ZM114.56,49.69s0,0,0,0c0,0,0,0,0,0ZM114.8,49.44s0,0,0,0c0,0,0,0,0,0ZM95.3,38.15c.17.01.33.03.48.06.02-.64.03-1.32.03-2.06v-2.97c-.17.04-.34.08-.51.11v4.87ZM110.77,29.22h3.58c.76,0,1.43.05,2.04.15v-1.08h-5.62v.93ZM93.8,27.97h0s0,0,0,0ZM132.05,8.62c.05,0,.15.02.29.02h2.52c.09,0,.16,0,.22-.02v-1.03c-.06-.01-.13-.02-.22-.02h-2.52c-.13,0-.23.01-.29.03v1.02Z"/><path class="cls-3" d="M210.43,69.32h-10.22c-3.76-.09-6.62-1.07-8.57-2.92-.15-.15-.3-.29-.44-.45-.24.69-.62,1.3-1.12,1.79-.06.06-.13.12-.2.18-.97.81-2.23,1.26-3.53,1.26h-7.7c-1.29,0-2.57-.43-3.52-1.19-.72-.54-1.25-1.26-1.55-2.11-.16.18-.33.35-.5.52-1.96,1.85-4.82,2.84-8.51,2.92h-10.29c-1.61,0-3.09-.58-4.15-1.65-1.05-1.05-1.58-2.35-1.58-3.87v-3.85c0-1.52.53-2.82,1.58-3.87,1.06-1.06,2.54-1.65,4.15-1.65h5.12v-1.62c0-.36.04-.71.11-1.06h-4.87c-1.75,0-3.26-.64-4.36-1.86-1.08-1.11-1.65-2.5-1.65-4.01V12.13c0-1.45.56-2.75,1.65-3.88.76-.83,2.12-1.78,4.36-1.78h6.37c.83,0,1.61.15,2.32.45.02-.92.21-2.19,1.18-3.36.06-.07.12-.14.18-.2,1.37-1.37,3.15-1.37,3.73-1.37h39.41c.58,0,2.37,0,3.73,1.37.06.06.12.13.18.2.84,1.01,1.25,2.19,1.25,3.6v29.05c0,.3-.02.6-.06.89.76.2,1.5.56,2.12,1.19.06.06.13.13.18.2.84,1.01,1.25,2.49,1.25,4.51v2.8c0,1.56-.38,2.87-1.12,3.91-.05.07-.11.14-.16.21-.71.83-2.08,1.82-4.59,1.82h-5.43c.07.35.1.7.1,1.06v1.62h5.12c1.61,0,3.09.59,4.15,1.65,1.05,1.04,1.58,2.35,1.58,3.87v3.85c0,1.52-.53,2.82-1.58,3.87-1.06,1.06-2.54,1.65-4.15,1.65ZM194.73,53.21v5.4c0,1.63.34,2.78,1.02,3.42.82.78,2.42,1.23,4.52,1.28h9.88v-2.89h-5.12c-1.57,0-3.02-.59-4.08-1.66-1.06-1.06-1.65-2.54-1.65-4.15v-1.41h-4.57ZM154.55,63.31h9.95c2.02-.04,3.63-.5,4.45-1.27.68-.64,1.02-1.79,1.02-3.42v-5.4h-4.57v1.41c0,1.62-.59,3.09-1.65,4.15-1.07,1.08-2.49,1.65-4.08,1.65h-5.12v2.88ZM179.26,63.18h6.25v-14.43c0-1.66,1.34-3,3-3h21.99v-2.74c0-.05,0-.1,0-.15h-46.56c-1.66,0-3-1.34-3-3V12.47h-6.31s0,0,0,0v33.27h21.64c1.66,0,3,1.34,3,3v14.43ZM169.32,35.31h37.68V7.99s-37.68,0-37.68,0v27.32ZM208.02,8h0,0ZM197.68,34.38h-19.11c-1.66,0-3-1.34-3-3v-2.31c0-1.66,1.34-3,3-3h19.11c1.66,0,3,1.34,3,3v2.31c0,1.66-1.34,3-3,3ZM197.68,25.56h-19.11c-1.66,0-3-1.34-3-3v-2.17c0-1.66,1.34-3,3-3h19.11c1.66,0,3,1.34,3,3v2.17c0,1.66-1.34,3-3,3ZM197.68,16.81h-19.11c-1.66,0-3-1.34-3-3v-2.17c0-1.66,1.34-3,3-3h19.11c1.66,0,3,1.34,3,3v2.17c0,1.66-1.34,3-3,3Z"/><path class="cls-2" d="M57.57,27.04c-1.05,0-1.75-.28-2.17-.77-.42-.56-.63-1.19-.63-2.03v-5.18H15.91v5.18c0,.98-.35,1.68-.98,2.17-.56.42-1.33.63-2.1.63h-5.32c-1.19,0-2.03-.21-2.45-.7-.35-.49-.56-1.26-.56-2.24v-11.48c0-1.33.21-2.17.56-2.59.42-.42,1.26-.63,2.45-.63h19.67v-2.59c0-.7.21-1.26.63-1.68.42-.42,1.05-.63,1.75-.63h11.69c.7,0,1.33.21,1.68.63.42.42.63.98.63,1.68v2.59h19.74c1.12,0,1.89.21,2.31.63.35.42.56,1.26.56,2.59v11.62c0,.84-.21,1.47-.56,2.03-.42.49-1.19.77-2.31.77h-5.74ZM10.59,65.41c-.63-.49-.91-1.54-.91-3.01v-15.26c0-1.47.35-2.52.98-3.08.63-.63,1.75-.98,3.15-.98h14.91v-2.17h-6.58c-1.47,0-2.52-.28-3.15-.77-.7-.56-.98-1.54-.98-3.01v-11.48c0-1.4.35-2.45.98-3.08.7-.63,1.75-.91,3.22-.91h26.39c1.33,0,2.31.28,3.01.91.7.7,1.05,1.75,1.05,3.15v11.27c0,1.61-.35,2.66-1.12,3.15-.7.56-1.68.77-3.01.77h-6.58v2.17h15.05c1.26,0,2.24.35,2.94.98.7.63,1.05,1.68,1.05,3.15v15.05c0,1.61-.35,2.73-1.05,3.22-.77.49-1.75.77-3.01.77H13.74c-1.4,0-2.45-.28-3.15-.84ZM46.92,53.08h-23.24v3.08h23.24v-3.08ZM40.2,30.12h-9.8v2.24h9.8v-2.24Z"/><path class="cls-2" d="M98.81,15.84c0-.77.28-1.4.84-1.96.49-.56,1.12-.91,1.89-.91h17.85v-5.53c0-.77.28-1.4.84-2.03.56-.56,1.19-.84,1.96-.84h2.52c.77,0,1.4.28,1.96.84.56.63.91,1.26.91,2.03v5.53h8.33c1.33,0,2.17.21,2.59.63.42.35.7,1.19.7,2.52v6.23c0,.98-.28,1.68-.7,2.17-.42.49-1.26.77-2.59.77h-8.33v10.57c-.07,3.99.28,7.07,1.05,9.24.77-2.17,1.12-5.25,1.12-9.24v-5.74c0-.77.28-1.4.77-1.96.56-.63,1.19-.91,1.96-.91h2.59c.77,0,1.4.28,1.96.91.56.56.84,1.19.84,1.96v9.24c0,4.13-.91,7.98-2.73,11.62,2.73,1.26,4.34,2.1,4.76,2.52.49.42.7.98.7,1.61v8.33c0,.77-.28,1.33-.84,1.82-.56.42-1.26.7-2.03.77-1.19,0-4.2-2.38-9.1-7.07-4.9,4.69-7.91,7.07-9.03,7.07-.84-.07-1.54-.35-2.1-.77-.49-.49-.77-1.05-.77-1.82v-8.33c0-.63.21-1.19.7-1.61.35-.42,1.96-1.26,4.69-2.52-1.82-3.64-2.73-7.49-2.73-11.62v-14.07h-11.62v6.93h6.58c1.4,0,2.31.21,2.73.49.42.35.63,1.12.63,2.17v13.44c0,1.68-.28,2.8-.91,3.36-.56.63-1.75.91-3.57.91h-2.87c-2.1,0-3.22-.91-3.22-2.73v-.63c0-1.89.98-2.87,2.94-2.87v-5.32h-2.31c-.21,6.37-1.68,12.11-4.34,17.36-2.73,5.25-4.9,7.91-6.51,7.91-.77-.07-1.4-.35-1.96-.77-.49-.49-.77-1.05-.77-1.82v-8.33c0-.49.14-.98.35-1.4-.21.07-.49.21-.84.35l-14,5.39c-1.26.28-2.1.21-2.52-.35-.35-.49-.56-1.33-.49-2.38v-6.3c0-1.12.14-1.96.42-2.31.35-.42.91-.84,1.82-1.33l2.59-1.05v-15.61h-1.47c-1.12,0-1.82-.28-2.24-.7-.35-.49-.56-1.26-.56-2.24v-6.16c0-1.33.21-2.17.56-2.59.42-.42,1.12-.63,2.24-.63h1.47V7.79c0-.7.28-1.33.84-1.89.49-.56,1.19-.84,2.1-.84h4.97c.77,0,1.4.28,1.89.84.49.56.84,1.19.98,1.89v10.29h1.47c1.19,0,2.03.21,2.45.63s.63,1.26.63,2.59v6.16c0,.98-.21,1.75-.63,2.24-.42.42-1.26.7-2.45.7h-1.47v11.48l1.4-.56c1.19-.35,1.96-.21,2.38.28.42.49.63,1.19.63,1.96v5.67c.49-1.05.84-2.1,1.12-3.08.63-2.1.98-5.46.98-10.01V15.84ZM137.17,10.87c-.63.49-1.4.77-2.31.77h-2.52c-.98,0-1.75-.28-2.31-.77-.63-.49-.91-1.12-.98-1.89v-1.75c.07-.7.35-1.33.98-1.89.56-.49,1.33-.77,2.31-.77h2.52c.91,0,1.68.28,2.31.77.63.56.91,1.19.91,1.89v1.75c0,.77-.28,1.4-.91,1.89Z"/><path class="cls-2" d="M170.45,50.21c.7.07,1.33.28,1.75.77.49.49.77,1.12.77,1.82v5.81c0,2.45-.63,4.34-1.96,5.6-1.33,1.26-3.5,2.03-6.51,2.1h-10.22c-.84,0-1.54-.28-2.03-.77-.49-.49-.7-1.05-.7-1.75v-3.85c0-.7.21-1.26.7-1.75s1.19-.77,2.03-.77h5.39c.84,0,1.47-.28,1.96-.77.49-.49.77-1.19.77-2.03v-1.82c0-.7.28-1.33.77-1.82s1.12-.7,1.82-.77h5.46ZM188.51,48.74v15.26c0,.7-.21,1.26-.56,1.61-.42.35-.98.56-1.61.56h-7.7c-.63,0-1.26-.21-1.68-.56-.49-.35-.7-.91-.7-1.61v-15.26h-21.63c-.98,0-1.68-.35-2.17-.91-.56-.56-.84-1.19-.84-1.96V12.13c0-.7.28-1.26.84-1.82.49-.56,1.19-.84,2.17-.84h6.37c.84,0,1.54.28,2.1.84s.84,1.12.84,1.82v27.72h46.69c1.12,0,1.89.14,2.31.56.35.42.56,1.33.56,2.59v2.8c0,.98-.21,1.68-.56,2.17-.42.49-1.19.77-2.31.77h-22.12ZM209.45,5.48c.35.42.56.91.56,1.68v29.05c0,.7-.21,1.26-.56,1.61-.35.35-.84.49-1.61.49h-39.41c-.77,0-1.26-.14-1.61-.49-.35-.35-.49-.91-.49-1.61V7.16c0-.77.14-1.26.49-1.68.35-.35.84-.49,1.61-.49h39.41c.77,0,1.26.14,1.61.49ZM197.68,11.64h-19.11v2.17h19.11v-2.17ZM197.68,20.39h-19.11v2.17h19.11v-2.17ZM197.68,29.07h-19.11v2.31h19.11v-2.31ZM201.53,50.99c.49.49.77,1.12.77,1.82v1.82c0,.84.28,1.54.77,2.03.49.49,1.19.77,1.96.77h5.39c.84,0,1.54.28,2.03.77.49.49.7,1.05.7,1.75v3.85c0,.7-.21,1.26-.7,1.75s-1.19.77-2.03.77h-10.22c-3.01-.07-5.18-.84-6.51-2.1-1.33-1.26-1.96-3.15-1.96-5.6v-5.81c0-.7.28-1.33.77-1.82.42-.49,1.05-.7,1.75-.77h5.46c.7.07,1.33.28,1.82.77Z"/></g></svg>