<?xml version="1.0" encoding="UTF-8"?><svg id="_レイヤー_2" xmlns="http://www.w3.org/2000/svg" viewBox="0 0 293.6 70.82"><defs><style>.cls-1,.cls-2,.cls-3{stroke-width:0px;}.cls-2{fill:#198caa;}.cls-3{fill:#fff;}</style></defs><g id="_レイヤー_4"><path class="cls-1" d="M66.74,65.54c-.35.35-.84.56-1.47.56h-26.32c-.7,0-1.26-.21-1.61-.56-.35-.35-.49-.84-.49-1.54v-25.48h-5.6l1.61,1.33c1.54,1.05,2.24,2.38,2.24,3.85v6.3c0,.98-.35,1.54-.84,1.61-.56.14-1.33-.28-2.24-1.26l-3.08-2.8v15.82c0,.84-.14,1.47-.35,1.89-.28.42-.98.7-2.1.84h-6.65c-.77,0-1.33-.28-1.75-.77-.49-.49-.7-1.05-.7-1.75v-16.03c-4.41,5.11-7.56,7.63-9.38,7.63-1.19,0-2.1-.28-2.59-.77-.56-.56-.77-1.26-.77-2.1v-5.32c-.14-.98.07-1.89.49-2.73.35-.84,1.26-1.89,2.59-3.29l2.73-2.45h-3.43c-.7,0-1.26-.21-1.75-.7-.49-.42-.77-.98-.77-1.68v-8.33c0-.77.28-1.33.77-1.82.49-.49,1.05-.7,1.75-.7h10.36v-2.52h-8.47c-.7,0-1.26-.21-1.75-.7-.49-.49-.77-1.05-.77-1.82v-7.28c0-.77.28-1.33.77-1.89.49-.49,1.05-.7,1.75-.7h11.41c.77,0,1.4-.28,1.89-.77s.7-1.19.7-2.03c0-.7.28-1.26.77-1.75.49-.49,1.12-.77,1.89-.84h6.23c.7.07,1.26.35,1.75.84s.77,1.05.77,1.75v10.99c0,1.54-.21,2.66-.77,3.29-.56.63-1.54.91-2.87.91h-1.75v2.52h7.91V6.88c0-.77.14-1.26.49-1.61s.91-.49,1.61-.49h26.32c.63,0,1.12.14,1.47.49.42.35.56.84.56,1.61v57.13c0,.63-.14,1.19-.56,1.54ZM50.84,16.12c-1.05,0-1.61.42-1.61,1.4v35.42c0,.98.56,1.47,1.61,1.47h2.59c1.05,0,1.54-.49,1.54-1.47V17.52c0-.98-.49-1.4-1.54-1.4h-2.59Z"/><path class="cls-1" d="M79.53,41.53c-.42-.42-.63-1.19-.63-2.17v-3.85c0-1.33.21-2.17.63-2.59.35-.42,1.12-.63,2.24-.63h19.46V14.93h-19.46c-1.12,0-1.89-.21-2.24-.7-.42-.49-.63-1.26-.63-2.24v-3.85c0-1.33.21-2.17.63-2.59.35-.42,1.12-.63,2.24-.63h28c1.19,0,1.96.21,2.38.63.42.42.63,1.26.63,2.59v3.85c0,.98-.21,1.75-.63,2.24-.42.49-1.19.7-2.38.7h-.7v5.18h1.68c1.33,0,2.24-.77,2.8-2.31.56-1.47.91-3.92.91-7.14v-2.87c0-.7.21-1.33.7-1.89.49-.56,1.12-.91,1.82-.91h3.36c.77,0,1.4.35,1.89.91.49.56.77,1.19.77,1.89v2.59c0,1.26-.07,2.45-.21,3.5h16.24c.84,0,1.4.21,1.75.56.35.35.56,1.12.56,2.24v12.67c0,1.12-.14,1.89-.49,2.31-.28.42-.84.63-1.68.63h-3.99c-1.05,0-1.82-.21-2.17-.63-.42-.42-.63-1.12-.63-2.24v-3.57c0-.84-.49-1.26-1.47-1.26h-10.92c-2.8,3.64-5.53,5.46-8.33,5.39h-2.59v2.31h.7c1.19,0,1.96.21,2.38.63.42.42.63,1.26.63,2.59v3.85c0,.98-.21,1.75-.63,2.17-.42.49-1.19.77-2.38.77h-.7v19.46c0,1.75-.28,2.87-.77,3.5-.56.56-1.68.91-3.29.91h-6.44c-1.96,0-2.94-.98-2.94-2.8v-4.76c0-.28,0-.63.07-.91h-11.97c-1.26,0-2.31-.21-3.01-.7-.7-.56-1.12-1.61-1.12-3.22v-5.74c0-1.47.35-2.52,1.12-3.15.7-.63,1.68-.98,2.94-.98h11.41c1.47,0,2.52.35,3.22.91.63.63.98,1.68.98,3.15v5.95c0,.7-.07,1.33-.21,1.82h2.17v-13.44h-19.46c-1.12,0-1.89-.28-2.24-.77ZM83.73,30.4c-1.26,0-2.31-.28-3.01-.77-.7-.49-1.12-1.54-1.12-3.22v-5.74c0-1.47.35-2.52,1.12-3.15.7-.63,1.68-.98,2.94-.98h11.41c1.47,0,2.52.35,3.22.98.63.56.98,1.61.98,3.08v5.95c0,1.54-.35,2.52-.98,3.08-.63.49-1.68.77-3.15.77h-11.41ZM91.08,24.73v-2.52h-3.29v2.52h3.29ZM91.08,52.03v-2.52h-3.29v2.52h3.29ZM127.84,26.34c.77,0,1.4.28,1.89.84.49.56.77,1.26.77,1.96v9.38c-.07,4.34.84,7.7,2.59,9.94,1.82,2.24,3.43,3.71,4.9,4.41,1.47.63,2.38,1.19,2.8,1.61.42.35.56.98.56,1.68v7.63c0,.77-.21,1.33-.7,1.82-.56.42-1.12.7-1.89.7-2.94,0-6.51-2.59-10.71-7.84-.77-.84-1.4-1.75-1.96-2.66-.63.91-1.26,1.82-1.96,2.66-4.2,5.25-7.84,7.84-10.78,7.84-.77,0-1.33-.28-1.82-.7-.56-.49-.77-1.05-.77-1.82v-7.63c0-.7.21-1.33.56-1.68.42-.42,1.33-.98,2.8-1.61,1.47-.7,3.15-2.17,4.9-4.41,1.75-2.24,2.66-5.6,2.59-9.94v-9.38c0-.7.28-1.4.77-1.96s1.12-.84,1.89-.84h3.57Z"/><path class="cls-1" d="M153.89,65.34c-.42-.49-.56-1.19-.56-2.17V19.48c0-.7.14-1.26.56-1.61s.98-.56,1.68-.56h9.87c.7,0,1.26.21,1.75.56.42.35.7.91.7,1.61v33.88h8.82V6.6c0-.7.21-1.19.63-1.61.35-.35.91-.49,1.61-.49h9.8c.7,0,1.26.14,1.75.49.42.42.7.91.7,1.61v46.77h8.89V19.48c0-.7.28-1.26.7-1.61.49-.35,1.05-.56,1.75-.56h9.87c.7,0,1.26.21,1.61.56.42.35.56.91.56,1.61v43.69c0,.98-.14,1.68-.56,2.17s-1.26.77-2.38.77h-55.45c-1.12,0-1.89-.28-2.31-.77Z"/><path class="cls-1" d="M246.04,50.07c.7.07,1.33.28,1.75.77.49.49.77,1.12.77,1.82v5.81c0,2.45-.63,4.34-1.96,5.6-1.33,1.26-3.5,2.03-6.51,2.1h-10.22c-.84,0-1.54-.28-2.03-.77-.49-.49-.7-1.05-.7-1.75v-3.85c0-.7.21-1.26.7-1.75.49-.49,1.19-.77,2.03-.77h5.39c.84,0,1.47-.28,1.96-.77.49-.49.77-1.19.77-2.03v-1.82c0-.7.28-1.33.77-1.82s1.12-.7,1.82-.77h5.46ZM264.11,48.6v15.26c0,.7-.21,1.26-.56,1.61-.42.35-.98.56-1.61.56h-7.7c-.63,0-1.26-.21-1.68-.56-.49-.35-.7-.91-.7-1.61v-15.26h-21.63c-.98,0-1.68-.35-2.17-.91-.56-.56-.84-1.19-.84-1.96V11.99c0-.7.28-1.26.84-1.82.49-.56,1.19-.84,2.17-.84h6.37c.84,0,1.54.28,2.1.84.56.56.84,1.12.84,1.82v27.72h46.69c1.12,0,1.89.14,2.31.56.35.42.56,1.33.56,2.59v2.8c0,.98-.21,1.68-.56,2.17-.42.49-1.19.77-2.31.77h-22.12ZM285.04,5.34c.35.42.56.91.56,1.68v29.05c0,.7-.21,1.26-.56,1.61-.35.35-.84.49-1.61.49h-39.41c-.77,0-1.26-.14-1.61-.49-.35-.35-.49-.91-.49-1.61V7.02c0-.77.14-1.26.49-1.68.35-.35.84-.49,1.61-.49h39.41c.77,0,1.26.14,1.61.49ZM273.28,11.5h-19.11v2.17h19.11v-2.17ZM273.28,20.25h-19.11v2.17h19.11v-2.17ZM273.28,28.93h-19.11v2.31h19.11v-2.31ZM277.13,50.84c.49.49.77,1.12.77,1.82v1.82c0,.84.28,1.54.77,2.03.49.49,1.19.77,1.96.77h5.39c.84,0,1.54.28,2.03.77s.7,1.05.7,1.75v3.85c0,.7-.21,1.26-.7,1.75s-1.19.77-2.03.77h-10.22c-3.01-.07-5.18-.84-6.51-2.1-1.33-1.26-1.96-3.15-1.96-5.6v-5.81c0-.7.28-1.33.77-1.82.42-.49,1.05-.7,1.75-.77h5.46c.7.07,1.33.28,1.82.77Z"/><path class="cls-2" d="M65.27,70.61h-26.32c-1.89,0-3.59-.67-4.8-1.89-.57-.57-1-1.22-1.3-1.96-.07.18-.15.35-.23.52-.08.17-.18.33-.28.49-1.56,2.34-4.36,2.69-5.28,2.81-.19.02-.37.04-.56.04h-6.65c-1.98,0-3.76-.78-5.05-2.21-1.24-1.3-1.9-2.96-1.9-4.81v-5.57c-1.77,1.15-3.35,1.67-4.88,1.67-2.41,0-4.41-.72-5.77-2.09-.95-.96-2.09-2.64-2.09-5.28v-5.06c-.17-1.66.14-3.3.9-4.88.23-.52.52-1.02.88-1.53-1.24-1.26-1.92-2.91-1.92-4.7v-8.33c0-1.91.72-3.64,2.09-5,.07-.07.13-.13.2-.2-.27-.75-.4-1.54-.4-2.37v-7.28c0-1.79.63-3.42,1.88-4.85.07-.07.13-.15.2-.22,1.32-1.32,3.03-2.02,4.94-2.02h9.71c.26-1.02.81-2.16,1.87-3.23,1.24-1.24,2.85-1.98,4.67-2.14.14-.01.27-.02.41-.02h6.23c.15,0,.3,0,.45.02,1.01.1,1.94.39,2.79.85.88-.58,2.15-1.08,3.91-1.08h26.32c2.21,0,3.65.87,4.5,1.66,1.35,1.2,2.03,2.86,2.03,4.94v57.13c0,2.49-1.06,4-2.02,4.86-1.2,1.13-2.79,1.74-4.51,1.74ZM41.34,61.61h21.45V9.28h-21.45v16.01c0,2.49-2.02,4.5-4.5,4.5h-7.91c-2.49,0-4.5-2.01-4.5-4.5v-2.52c0-2.49,2.01-4.5,4.5-4.5h.89v-8.78h-2.62c-.36,1.56-1.13,2.63-1.81,3.3-1.35,1.35-3.15,2.09-5.07,2.09h-9.43v3.39h6.49c2.49,0,4.5,2.01,4.5,4.5v2.52c0,2.49-2.01,4.5-4.5,4.5h-8.38v4.23h1.45c1.86,0,3.54,1.15,4.2,2.89.67,1.74.19,3.71-1.2,4.96l-2.59,2.33c-1.14,1.21-1.5,1.68-1.61,1.87-.03.07-.06.14-.1.21-.05.1-.06.15-.06.15.03.21.05.36.05.57v2.58c1.04-.88,2.61-2.39,4.83-4.97,1.23-1.42,3.21-1.93,4.98-1.28,1.76.66,2.93,2.34,2.93,4.22v14.05h2.55v-14.05c0-1.78,1.05-3.39,2.68-4.12.85-.37,1.77-.47,2.64-.31l-1.37-1.14c-1.46-1.21-2.01-3.21-1.37-4.99s2.34-2.98,4.23-2.98h5.6c2.49,0,4.5,2.01,4.5,4.5v23.08ZM9.28,45.99s0,.02-.01.03c0,0,0-.02.01-.03ZM53.43,58.91h-2.59c-3.54,0-6.11-2.51-6.11-5.97V17.52c0-3.42,2.57-5.9,6.11-5.9h2.59c3.56,0,6.04,2.43,6.04,5.9v35.42c0,3.46-2.54,5.97-6.04,5.97Z"/><path class="cls-2" d="M138.76,70.82c-4.05,0-8.11-2.45-12.67-7.67-4.5,5.14-8.7,7.67-12.74,7.67-1.35,0-2.61-.35-3.74-1.05-1.26.6-2.79.91-4.59.91h-6.44c-4.45,0-7.44-2.93-7.44-7.3v-1.17h-7.4c-2.28,0-4.16-.51-5.59-1.52-.08-.05-.15-.11-.22-.17-1.29-1.02-2.82-3.02-2.82-6.74v-5.74c0-1.48.25-2.79.73-3.92-.74-.97-1.43-2.48-1.43-4.76v-3.85c0-1.45.16-3.49,1.41-5.15-.43-1.03-.71-2.32-.71-3.95v-5.74c0-1.47.24-2.77.72-3.88-.94-1.27-1.42-2.88-1.42-4.79v-3.85c0-1.6.19-3.9,1.81-5.63,1.25-1.39,3.11-2.09,5.56-2.09h28c.68,0,2.42,0,4.07.86.97-.52,2.04-.79,3.14-.79h3.36c2.02,0,3.89.87,5.27,2.44,1.24,1.42,1.89,3.09,1.89,4.86v1.59h11.53c2.52,0,4.07,1.02,4.93,1.87,1.25,1.26,1.88,3.08,1.88,5.43v12.67c0,1.51-.16,3.43-1.4,5.02-.73.99-2.31,2.42-5.27,2.42h-3.99c-.06,0-.13,0-.19,0v1.73c-.05,3.23.53,5.75,1.64,7.17,1.77,2.18,2.82,2.88,3.24,3.09,1.78.77,3.08,1.55,3.97,2.39.96.86,2.01,2.4,2.01,4.99v7.63c0,1.98-.68,3.66-2.02,5-.15.15-.31.29-.48.42-1.44,1.08-2.94,1.6-4.59,1.6ZM100.13,61.67h4.44s0-2.92,0-2.92c-.82.91-2.02,1.49-3.34,1.49h-1.1v1.43ZM115.26,57.3v3.68c1.2-.79,2.97-2.33,5.36-5.31.63-.76,1.19-1.56,1.77-2.41.86-1.25,2.27-1.98,3.82-1.94,1.52.04,2.92.85,3.71,2.14.51.83.97,1.46,1.44,1.98.07.07.13.15.2.23,2.37,2.96,4.11,4.49,5.29,5.29v-3.66c-.18-.08-.39-.18-.63-.28-.06-.02-.11-.05-.17-.08-2.09-1-4.14-2.79-6.46-5.64-2.1-2.68-3.27-6.16-3.54-10.38-.26,4.21-1.43,7.68-3.49,10.32-2.15,2.75-4.34,4.67-6.51,5.7-.05.03-.11.05-.17.08-.24.1-.45.2-.63.28ZM137.91,57.94s0,0,0,0c0,0,0,0,0,0ZM113.58,46v1.79c.51-.47,1.15-1.15,1.89-2.1.63-.81,1.09-1.97,1.36-3.41-.36,1.04-.88,1.79-1.37,2.31-.44.49-1.05,1-1.89,1.41ZM83.4,37.8h17.83c1.68,0,3.15.92,3.92,2.29.65-1.15,1.79-1.98,3.13-2.22v-1.15c-1.34-.24-2.48-1.07-3.13-2.22-.77,1.37-2.24,2.29-3.92,2.29h-17.83v1.01ZM117.08,33.17s.02.09.02.13v-.14s-.02,0-.02.01ZM127.84,30.84h0,0ZM105.74,23.13v3.84c.82-.91,2.02-1.49,3.34-1.49h2.59s.09,0,.15,0c1.11,0,2.7-1.22,4.41-3.37-1.36,1.61-3.25,2.5-5.47,2.5h-1.68c-1.33,0-2.52-.57-3.34-1.49ZM120,20.09h10.92c3.21,0,5.6,2.08,5.93,5.05v-6.76h-14.05c-1.3,0-2.53-.56-3.38-1.54-.32-.36-.57-.76-.75-1.19-.2,1.45-.5,2.7-.9,3.75-.31.86-.72,1.63-1.21,2.29.85-1.01,2.11-1.6,3.44-1.6ZM83.4,10.43h17.83c1.68,0,3.15.92,3.92,2.29.65-1.15,1.79-1.98,3.13-2.22v-1.08h-24.88v1.01Z"/><path class="cls-2" d="M211.65,70.61h-55.45c-3.08,0-4.81-1.27-5.73-2.34-1.47-1.72-1.64-3.73-1.64-5.1V19.48c0-2.69,1.19-4.24,2.18-5.07,1.26-1.05,2.84-1.6,4.56-1.6h9.87c1.6,0,3.06.47,4.36,1.4.09.07.18.13.27.21,1.08.9,1.82,2.12,2.14,3.5V6.6c0-1.85.67-3.51,1.94-4.79.83-.83,2.33-1.81,4.8-1.81h9.8c1.66,0,3.13.45,4.36,1.32.21.15.4.31.58.49,1.66,1.67,2.01,3.52,2.01,4.79v11.65c.27-1.51,1.05-2.87,2.21-3.84.09-.07.17-.14.27-.21,1.3-.93,2.77-1.4,4.36-1.4h9.87c1.81,0,3.45.62,4.65,1.74.96.86,2.02,2.38,2.02,4.93v43.69c0,1.37-.17,3.38-1.64,5.1-.92,1.07-2.66,2.34-5.8,2.34ZM157.84,63.45h0,0ZM157.83,61.61h52.26V21.81h-5.49v31.55c0,2.49-2.01,4.5-4.5,4.5h-8.89c-2.49,0-4.5-2.01-4.5-4.5V9h-5.49v44.37c0,2.49-2.01,4.5-4.5,4.5h-8.82c-2.49,0-4.5-2.01-4.5-4.5v-31.55h-5.56v39.79Z"/><path class="cls-2" d="M286.02,70.68h-10.22s-.07,0-.11,0c-3.51-.08-6.37-.93-8.52-2.51-.14.17-.29.34-.44.49-.09.09-.19.18-.29.27-1.24,1.04-2.84,1.61-4.5,1.61h-7.7c-1.62,0-3.22-.54-4.43-1.5-.37-.28-.7-.59-.99-.94-2.16,1.63-5.05,2.5-8.61,2.58-.04,0-.07,0-.11,0h-10.22c-2.01,0-3.87-.74-5.21-2.09-1.32-1.32-2.02-3.03-2.02-4.93v-3.85c0-1.9.7-3.61,2.01-4.93,1.03-1.03,2.35-1.7,3.81-1.97-1.43-.33-2.71-1.06-3.69-2.14-1.35-1.39-2.06-3.13-2.06-5.04V11.99c0-1.84.69-3.49,2.06-4.91.97-1.06,2.68-2.25,5.45-2.25h6.37c.37,0,.73.02,1.08.07.25-.91.67-1.72,1.27-2.44.08-.1.17-.2.27-.29,1.2-1.21,2.81-1.82,4.8-1.82h39.41c1.99,0,3.6.61,4.8,1.82.09.09.18.19.27.29,1.06,1.28,1.6,2.81,1.6,4.56v28.93c.56.27,1.12.64,1.62,1.14.1.1.19.2.28.3,1.08,1.29,1.6,3.08,1.6,5.47v2.8c0,1.87-.47,3.48-1.4,4.78-.08.11-.16.21-.25.31-.75.87-2.04,1.88-4.17,2.22,1.32.3,2.5.95,3.44,1.89,1.32,1.32,2.02,3.03,2.02,4.93v3.85c0,1.91-.7,3.61-2.02,4.93-1.35,1.35-3.2,2.09-5.21,2.09ZM275.85,61.68h3.48c-1.47-.25-2.8-.93-3.85-1.98-1.32-1.32-2.07-3.14-2.09-5.12h-1.57v3.9c0,1.15.2,2,.56,2.34.14.13.97.8,3.47.86ZM236.58,61.68h3.46c2.5-.07,3.33-.73,3.47-.87.35-.33.55-1.18.55-2.33v-3.9h-1.57c-.02,1.98-.76,3.8-2.09,5.13-1.05,1.05-2.36,1.72-3.82,1.97ZM256.35,61.54h3.25v-12.93c0-2.14,1.5-3.94,3.51-4.39h-10.27c2.01.45,3.51,2.25,3.51,4.39v12.93ZM231.71,44.1h6.83c-2.01-.45-3.51-2.25-3.51-4.39V13.83h-3.32v30.27ZM277.06,33.67h4.03V9.35h-3.87c.35.64.55,1.37.55,2.15v2.17c0,1.3-.55,2.47-1.43,3.29.88.82,1.43,1.99,1.43,3.29v2.17c0,1.28-.53,2.44-1.39,3.25.86.82,1.39,1.97,1.39,3.25v2.31c0,.89-.26,1.73-.71,2.43ZM246.41,33.67h3.96c-.45-.7-.71-1.53-.71-2.43v-2.31c0-1.28.53-2.44,1.39-3.25-.86-.82-1.39-1.97-1.39-3.25v-2.17c0-1.3.55-2.47,1.43-3.29-.88-.82-1.43-1.99-1.43-3.29v-2.17c0-.78.2-1.51.55-2.15h-3.8v24.32ZM283.47,9.35h.01-.01Z"/><path class="cls-3" d="M65.27,69.11h-26.32c-1.48,0-2.81-.51-3.74-1.45-.9-.9-1.36-2.13-1.36-3.65v-9.36c-.64-.03-1.27-.21-1.91-.55v9.28c0,1.26-.22,2.35-.67,3.23-.06.11-.12.22-.19.32-1.18,1.77-3.47,2.06-4.22,2.15-.12.02-.25.02-.37.02h-6.65c-1.58,0-2.94-.6-3.95-1.73-1-1.03-1.5-2.31-1.5-3.79v-8.62c-3.13,2.74-4.97,3.22-6.38,3.22-2,0-3.63-.57-4.71-1.65-1.09-1.1-1.65-2.52-1.65-4.22v-5.13c-.15-1.41.1-2.81.76-4.17.33-.76.86-1.52,1.58-2.38-.26-.18-.51-.38-.75-.61-1.12-1-1.73-2.37-1.73-3.88v-8.33c0-1.52.55-2.85,1.65-3.94.31-.31.65-.58,1-.8-.51-.84-.76-1.79-.76-2.82v-7.28c0-1.44.5-2.7,1.51-3.87.04-.05.09-.1.13-.14,1.05-1.05,2.35-1.58,3.87-1.58h11c.04-1,.37-2.39,1.64-3.67.99-.99,2.28-1.58,3.74-1.71.09,0,.18-.01.27-.01h6.23c.1,0,.2,0,.3.01,1.14.11,2.15.53,3.03,1.22.03-.03.05-.05.08-.08.91-.91,2.16-1.37,3.73-1.37h26.32c1.42,0,2.59.43,3.49,1.27,1.54,1.36,1.54,3.21,1.54,3.83v57.13c0,1.95-.81,3.11-1.53,3.75-.92.87-2.16,1.35-3.5,1.35ZM20.38,63.11h5.55v-15.55c0-1.19.7-2.26,1.79-2.74,1.09-.48,2.35-.27,3.23.52l1.14,1.04v-2.67c0-.24,0-.74-.93-1.37-.08-.05-.15-.11-.22-.17l-1.61-1.33c-.98-.81-1.34-2.14-.91-3.33.43-1.19,1.56-1.98,2.82-1.98h5.6c1.66,0,3,1.34,3,3v24.58h24.45s0-55.32,0-55.32h-24.45s0,17.51,0,17.51c0,1.66-1.34,3-3,3h-7.91c-1.66,0-3-1.34-3-3v-2.52c0-1.66,1.34-3,3-3h1.75c.25,0,.43-.01.57-.03.04-.23.07-.6.07-1.17V7.99h-5.42c-.1,1.89-.89,3.07-1.57,3.74-1.08,1.08-2.47,1.65-4.01,1.65h-10.93v6.39h7.99c1.66,0,3,1.34,3,3v2.52c0,1.66-1.34,3-3,3H7.5v7.23h2.95c1.24,0,2.36.77,2.8,1.93s.13,2.48-.8,3.31l-2.64,2.37c-1.4,1.48-1.81,2.06-1.91,2.29-.02.05-.06.14-.09.19-.24.47-.23.76-.2.97.02.14.03.28.03.42v5.17c.08,0,.17.01.28.01.29-.09,2.25-.85,7.19-6.59.82-.95,2.14-1.29,3.32-.85,1.17.44,1.95,1.56,1.95,2.81v15.55ZM53.43,57.41h-2.59c-2.71,0-4.61-1.84-4.61-4.47V17.52c0-2.63,1.85-4.4,4.61-4.4h2.59c2.72,0,4.54,1.77,4.54,4.4v35.42c0,2.63-1.87,4.47-4.54,4.47ZM53.46,19.12h.01-.01Z"/><path class="cls-3" d="M138.76,69.32c-3.85,0-8-2.78-12.67-8.49-4.65,5.7-8.84,8.49-12.74,8.49-1.35,0-2.58-.45-3.65-1.32-1.16.79-2.72,1.18-4.68,1.18h-6.44c-3.61,0-5.94-2.28-5.94-5.8v-2.67h-8.9c-1.99,0-3.54-.41-4.73-1.25-.05-.04-.1-.07-.15-.11-1.03-.82-2.25-2.45-2.25-5.57v-5.74c0-1.66.35-3.04,1.04-4.14-.15-.14-.28-.28-.39-.43-.89-.99-1.34-2.38-1.34-4.12v-3.85c0-1.34.15-3.27,1.41-4.61.09-.1.19-.21.29-.3-.58-.94-1.01-2.28-1.01-4.19v-5.74c0-1.63.34-3,1.01-4.09-.15-.15-.3-.31-.44-.49-.85-1.04-1.27-2.41-1.27-4.1v-3.85c0-1.34.15-3.27,1.41-4.61.96-1.08,2.42-1.6,4.46-1.6h28c1.75,0,3.09.37,4.07,1.13.93-.69,2.01-1.06,3.14-1.06h3.36c1.58,0,3.05.69,4.15,1.93.99,1.13,1.52,2.47,1.52,3.87v2.59c0,.17,0,.34,0,.5h13.04c1.61,0,2.92.48,3.87,1.43.96.96,1.44,2.43,1.44,4.36v12.67c0,1.27-.13,2.86-1.09,4.11-.63.87-1.83,1.83-4.08,1.83h-3.99c-.61,0-1.17-.05-1.69-.16v3.39c-.06,3.6.62,6.38,1.95,8.09,1.85,2.27,3.07,3.18,3.78,3.53,1.66.71,2.83,1.41,3.59,2.13.72.65,1.53,1.83,1.53,3.89v7.63c0,1.57-.53,2.89-1.58,3.94-.1.1-.21.19-.32.28-.75.56-1.94,1.3-3.69,1.3ZM126.09,52.81s.05,0,.08,0c1.01.03,1.94.56,2.47,1.43.56.91,1.08,1.61,1.62,2.21.04.05.09.1.13.15,4.25,5.32,6.79,6.47,7.96,6.68v-6.88c-.28-.17-.76-.43-1.54-.76-.04-.02-.07-.03-.11-.05-1.88-.9-3.77-2.56-5.94-5.23-2.26-2.89-3.34-6.87-3.26-11.88v-9.13h-2.86l-.03,9.18c.08,4.96-1.01,8.95-3.23,11.79-2,2.56-4.01,4.34-5.97,5.27-.04.02-.07.03-.11.05-.77.33-1.25.59-1.54.76v6.88c1.1-.2,3.72-1.3,8.02-6.67.66-.79,1.26-1.66,1.84-2.49.56-.81,1.48-1.29,2.47-1.29ZM98.63,63.18h6.38c.44,0,.75-.03.97-.07.05-.27.09-.7.09-1.34v-19.46c0-1.66,1.34-3,3-3h.71v-3.79c0-.08,0-.15,0-.22h-.71c-1.66,0-3-1.34-3-3v-2.31c0-1.66,1.34-3,3-3h2.59c1.77.07,3.76-1.38,5.95-4.22.57-.74,1.45-1.17,2.38-1.17h10.92c2.63,0,4.47,1.75,4.47,4.26v3.44h2.96v-12.41h-15.55c-.86,0-1.69-.37-2.26-1.02s-.83-1.51-.72-2.37c.12-.92.18-1.96.18-3.11v-2.39h-2.54v2.67c0,2.42-.19,5.8-1.11,8.21-.97,2.68-3.02,4.24-5.6,4.24h-1.68c-1.66,0-3-1.34-3-3v-5.18c0-1.66,1.34-3,3-3h.71v-3.79c0-.08,0-.15,0-.22h-27.88c0,.07,0,.14,0,.22v3.79h19.33c1.66,0,3,1.34,3,3v17.36c0,1.66-1.34,3-3,3h-19.33c0,.07,0,.14,0,.22v3.79h19.33c1.66,0,3,1.34,3,3v13.44c0,1.66-1.34,3-3,3h-2.17c-.15,0-.29-.01-.43-.03v4.46ZM92.45,54.71h3.25c.17,0,.34.01.51.04.03-.16.06-.43.06-.83v-5.95c0-.47-.05-.76-.09-.92-.2-.07-.55-.14-1.1-.14h-2.49c.9.52,1.5,1.49,1.5,2.6v2.52c0,1.17-.66,2.17-1.63,2.67ZM82.68,54.61c.2.04.54.09,1.06.09h2.7c-.97-.5-1.63-1.51-1.63-2.67v-2.52c0-1.11.6-2.08,1.5-2.6h-2.63c-.44,0-.79.08-.93.21,0,0-.02.01-.02.02-.03.09-.1.36-.1.9v5.74c0,.4.04.67.08.83ZM112.08,44.99v5.51c.25-.12.52-.24.79-.36.64-.32,1.96-1.19,3.78-3.53,1.34-1.71,2.01-4.49,1.96-8.04v-8.2c-1.1.88-2.2,1.53-3.33,1.96.44,1.08.51,2.27.51,3.18v3.85c0,1.8-.48,3.21-1.43,4.21-.6.66-1.36,1.14-2.28,1.42ZM81.98,39.79h0,0ZM127.84,29.34h0,0ZM92.45,27.4h2.7c.52,0,.86-.05,1.08-.09.03-.16.05-.41.05-.76v-5.95c0-.47-.05-.76-.09-.9-.17-.07-.52-.16-1.11-.16h-2.62c.97.5,1.63,1.51,1.63,2.67v2.52c0,1.17-.66,2.17-1.63,2.67ZM82.67,27.27c.21.07.56.13,1.06.13h2.7c-.97-.5-1.63-1.51-1.63-2.67v-2.52c0-1.16.66-2.17,1.63-2.67h-2.76c-.44,0-.79.08-.93.21,0,0-.02.02-.03.03-.03.09-.1.36-.1.9v5.74c0,.42.04.69.07.86ZM96.3,19.76s0,0,0,0t0,0Z"/><path class="cls-3" d="M211.65,69.11h-55.45c-2.51,0-3.88-.99-4.59-1.82-1.15-1.34-1.28-2.99-1.28-4.12V19.48c0-1.69.55-3.01,1.64-3.92.99-.82,2.23-1.25,3.6-1.25h9.87c1.28,0,2.45.38,3.49,1.12.06.04.12.09.18.14,1.13.94,1.78,2.37,1.78,3.92v30.88h2.82V6.6c0-1.47.51-2.72,1.5-3.73.91-.91,2.17-1.37,3.74-1.37h9.8c1.36,0,2.51.34,3.49,1.05.14.1.27.21.38.33,1.04,1.05,1.57,2.3,1.57,3.73v43.77h2.89v-30.88c0-1.55.65-2.97,1.78-3.92.06-.05.12-.09.18-.14,1.04-.74,2.22-1.12,3.49-1.12h9.87c1.43,0,2.71.48,3.63,1.34,1.02.9,1.54,2.19,1.54,3.83v43.69c0,1.13-.13,2.78-1.28,4.12-.71.83-2.1,1.82-4.66,1.82ZM156.33,63.11h55.26V20.31h-8.49s0,33.05,0,33.05c0,1.66-1.34,3-3,3h-8.89c-1.66,0-3-1.34-3-3V7.5h-8.49v45.87c0,1.66-1.34,3-3,3h-8.82c-1.66,0-3-1.34-3-3V20.31h-8.56s0,42.79,0,42.79Z"/><path class="cls-3" d="M286.02,69.18h-10.22c-3.76-.09-6.62-1.07-8.57-2.92-.15-.14-.3-.29-.44-.45-.24.69-.62,1.3-1.12,1.79-.06.06-.13.12-.2.18-.97.81-2.23,1.26-3.54,1.26h-7.7c-1.29,0-2.57-.43-3.52-1.19-.72-.54-1.24-1.26-1.55-2.11-.16.18-.33.35-.5.51-1.96,1.85-4.82,2.84-8.51,2.92h-10.29c-1.61,0-3.09-.58-4.15-1.65-1.05-1.05-1.58-2.35-1.58-3.87v-3.85c0-1.52.53-2.82,1.58-3.87,1.06-1.07,2.54-1.65,4.15-1.65h5.12v-1.62c0-.36.04-.71.11-1.06h-4.87c-1.75,0-3.26-.64-4.36-1.86-1.08-1.11-1.65-2.5-1.65-4.01V11.99c0-1.45.56-2.75,1.65-3.88.76-.83,2.12-1.78,4.36-1.78h6.37c.83,0,1.61.15,2.32.45.02-.92.21-2.19,1.18-3.36.06-.07.12-.13.18-.2,1.37-1.38,3.15-1.38,3.74-1.38h39.41c.59,0,2.37,0,3.74,1.38.06.06.12.13.18.2.84,1.01,1.25,2.19,1.25,3.6v29.05c0,.31-.02.6-.06.89.76.2,1.5.56,2.12,1.19.06.06.13.13.18.2.84,1.01,1.25,2.49,1.25,4.51v2.8c0,1.56-.38,2.87-1.12,3.91-.05.07-.11.14-.16.21-.71.83-2.08,1.82-4.59,1.82h-5.43c.07.35.1.7.1,1.06v1.62h5.12c1.61,0,3.09.59,4.15,1.65,1.05,1.05,1.58,2.35,1.58,3.87v3.85c0,1.52-.53,2.82-1.58,3.87-1.06,1.06-2.54,1.65-4.15,1.65ZM270.33,53.07v5.4c0,1.63.34,2.78,1.02,3.42.82.77,2.42,1.23,4.52,1.28h9.88v-2.89h-5.12c-1.57,0-3.02-.59-4.08-1.66-1.06-1.06-1.65-2.53-1.65-4.15v-1.41h-4.57ZM230.14,63.17h9.95c2.03-.04,3.63-.5,4.45-1.27.68-.64,1.02-1.8,1.02-3.42v-5.4h-4.57v1.41c0,1.62-.59,3.09-1.65,4.16-1.07,1.07-2.48,1.65-4.08,1.65h-5.12v2.88ZM254.85,63.04h6.25v-14.43c0-1.66,1.34-3,3-3h21.99v-2.74c0-.05,0-.1,0-.15h-46.56c-1.66,0-3-1.34-3-3V12.33h-6.31s0,0,0,0v33.27h21.64c1.66,0,3,1.34,3,3v14.43ZM244.91,35.17h37.68V7.85s-37.68,0-37.68,0v27.32ZM283.62,7.86h0,0ZM273.28,34.24h-19.11c-1.66,0-3-1.34-3-3v-2.31c0-1.66,1.34-3,3-3h19.11c1.66,0,3,1.34,3,3v2.31c0,1.66-1.34,3-3,3ZM273.28,25.42h-19.11c-1.66,0-3-1.34-3-3v-2.17c0-1.66,1.34-3,3-3h19.11c1.66,0,3,1.34,3,3v2.17c0,1.66-1.34,3-3,3ZM273.28,16.67h-19.11c-1.66,0-3-1.34-3-3v-2.17c0-1.66,1.34-3,3-3h19.11c1.66,0,3,1.34,3,3v2.17c0,1.66-1.34,3-3,3Z"/><path class="cls-2" d="M66.74,65.54c-.35.35-.84.56-1.47.56h-26.32c-.7,0-1.26-.21-1.61-.56-.35-.35-.49-.84-.49-1.54v-25.48h-5.6l1.61,1.33c1.54,1.05,2.24,2.38,2.24,3.85v6.3c0,.98-.35,1.54-.84,1.61-.56.14-1.33-.28-2.24-1.26l-3.08-2.8v15.82c0,.84-.14,1.47-.35,1.89-.28.42-.98.7-2.1.84h-6.65c-.77,0-1.33-.28-1.75-.77-.49-.49-.7-1.05-.7-1.75v-16.03c-4.41,5.11-7.56,7.63-9.38,7.63-1.19,0-2.1-.28-2.59-.77-.56-.56-.77-1.26-.77-2.1v-5.32c-.14-.98.07-1.89.49-2.73.35-.84,1.26-1.89,2.59-3.29l2.73-2.45h-3.43c-.7,0-1.26-.21-1.75-.7-.49-.42-.77-.98-.77-1.68v-8.33c0-.77.28-1.33.77-1.82.49-.49,1.05-.7,1.75-.7h10.36v-2.52h-8.47c-.7,0-1.26-.21-1.75-.7-.49-.49-.77-1.05-.77-1.82v-7.28c0-.77.28-1.33.77-1.89.49-.49,1.05-.7,1.75-.7h11.41c.77,0,1.4-.28,1.89-.77s.7-1.19.7-2.03c0-.7.28-1.26.77-1.75.49-.49,1.12-.77,1.89-.84h6.23c.7.07,1.26.35,1.75.84s.77,1.05.77,1.75v10.99c0,1.54-.21,2.66-.77,3.29-.56.63-1.54.91-2.87.91h-1.75v2.52h7.91V6.88c0-.77.14-1.26.49-1.61s.91-.49,1.61-.49h26.32c.63,0,1.12.14,1.47.49.42.35.56.84.56,1.61v57.13c0,.63-.14,1.19-.56,1.54ZM50.84,16.12c-1.05,0-1.61.42-1.61,1.4v35.42c0,.98.56,1.47,1.61,1.47h2.59c1.05,0,1.54-.49,1.54-1.47V17.52c0-.98-.49-1.4-1.54-1.4h-2.59Z"/><path class="cls-2" d="M79.53,41.53c-.42-.42-.63-1.19-.63-2.17v-3.85c0-1.33.21-2.17.63-2.59.35-.42,1.12-.63,2.24-.63h19.46V14.93h-19.46c-1.12,0-1.89-.21-2.24-.7-.42-.49-.63-1.26-.63-2.24v-3.85c0-1.33.21-2.17.63-2.59.35-.42,1.12-.63,2.24-.63h28c1.19,0,1.96.21,2.38.63.42.42.63,1.26.63,2.59v3.85c0,.98-.21,1.75-.63,2.24-.42.49-1.19.7-2.38.7h-.7v5.18h1.68c1.33,0,2.24-.77,2.8-2.31.56-1.47.91-3.92.91-7.14v-2.87c0-.7.21-1.33.7-1.89.49-.56,1.12-.91,1.82-.91h3.36c.77,0,1.4.35,1.89.91.49.56.77,1.19.77,1.89v2.59c0,1.26-.07,2.45-.21,3.5h16.24c.84,0,1.4.21,1.75.56.35.35.56,1.12.56,2.24v12.67c0,1.12-.14,1.89-.49,2.31-.28.42-.84.63-1.68.63h-3.99c-1.05,0-1.82-.21-2.17-.63-.42-.42-.63-1.12-.63-2.24v-3.57c0-.84-.49-1.26-1.47-1.26h-10.92c-2.8,3.64-5.53,5.46-8.33,5.39h-2.59v2.31h.7c1.19,0,1.96.21,2.38.63.42.42.63,1.26.63,2.59v3.85c0,.98-.21,1.75-.63,2.17-.42.49-1.19.77-2.38.77h-.7v19.46c0,1.75-.28,2.87-.77,3.5-.56.56-1.68.91-3.29.91h-6.44c-1.96,0-2.94-.98-2.94-2.8v-4.76c0-.28,0-.63.07-.91h-11.97c-1.26,0-2.31-.21-3.01-.7-.7-.56-1.12-1.61-1.12-3.22v-5.74c0-1.47.35-2.52,1.12-3.15.7-.63,1.68-.98,2.94-.98h11.41c1.47,0,2.52.35,3.22.91.63.63.98,1.68.98,3.15v5.95c0,.7-.07,1.33-.21,1.82h2.17v-13.44h-19.46c-1.12,0-1.89-.28-2.24-.77ZM83.73,30.4c-1.26,0-2.31-.28-3.01-.77-.7-.49-1.12-1.54-1.12-3.22v-5.74c0-1.47.35-2.52,1.12-3.15.7-.63,1.68-.98,2.94-.98h11.41c1.47,0,2.52.35,3.22.98.63.56.98,1.61.98,3.08v5.95c0,1.54-.35,2.52-.98,3.08-.63.49-1.68.77-3.15.77h-11.41ZM91.08,24.73v-2.52h-3.29v2.52h3.29ZM91.08,52.03v-2.52h-3.29v2.52h3.29ZM127.84,26.34c.77,0,1.4.28,1.89.84.49.56.77,1.26.77,1.96v9.38c-.07,4.34.84,7.7,2.59,9.94,1.82,2.24,3.43,3.71,4.9,4.41,1.47.63,2.38,1.19,2.8,1.61.42.35.56.98.56,1.68v7.63c0,.77-.21,1.33-.7,1.82-.56.42-1.12.7-1.89.7-2.94,0-6.51-2.59-10.71-7.84-.77-.84-1.4-1.75-1.96-2.66-.63.91-1.26,1.82-1.96,2.66-4.2,5.25-7.84,7.84-10.78,7.84-.77,0-1.33-.28-1.82-.7-.56-.49-.77-1.05-.77-1.82v-7.63c0-.7.21-1.33.56-1.68.42-.42,1.33-.98,2.8-1.61,1.47-.7,3.15-2.17,4.9-4.41,1.75-2.24,2.66-5.6,2.59-9.94v-9.38c0-.7.28-1.4.77-1.96s1.12-.84,1.89-.84h3.57Z"/><path class="cls-2" d="M153.89,65.34c-.42-.49-.56-1.19-.56-2.17V19.48c0-.7.14-1.26.56-1.61s.98-.56,1.68-.56h9.87c.7,0,1.26.21,1.75.56.42.35.7.91.7,1.61v33.88h8.82V6.6c0-.7.21-1.19.63-1.61.35-.35.91-.49,1.61-.49h9.8c.7,0,1.26.14,1.75.49.42.42.7.91.7,1.61v46.77h8.89V19.48c0-.7.28-1.26.7-1.61.49-.35,1.05-.56,1.75-.56h9.87c.7,0,1.26.21,1.61.56.42.35.56.91.56,1.61v43.69c0,.98-.14,1.68-.56,2.17s-1.26.77-2.38.77h-55.45c-1.12,0-1.89-.28-2.31-.77Z"/><path class="cls-2" d="M246.04,50.07c.7.07,1.33.28,1.75.77.49.49.77,1.12.77,1.82v5.81c0,2.45-.63,4.34-1.96,5.6-1.33,1.26-3.5,2.03-6.51,2.1h-10.22c-.84,0-1.54-.28-2.03-.77-.49-.49-.7-1.05-.7-1.75v-3.85c0-.7.21-1.26.7-1.75.49-.49,1.19-.77,2.03-.77h5.39c.84,0,1.47-.28,1.96-.77.49-.49.77-1.19.77-2.03v-1.82c0-.7.28-1.33.77-1.82s1.12-.7,1.82-.77h5.46ZM264.11,48.6v15.26c0,.7-.21,1.26-.56,1.61-.42.35-.98.56-1.61.56h-7.7c-.63,0-1.26-.21-1.68-.56-.49-.35-.7-.91-.7-1.61v-15.26h-21.63c-.98,0-1.68-.35-2.17-.91-.56-.56-.84-1.19-.84-1.96V11.99c0-.7.28-1.26.84-1.82.49-.56,1.19-.84,2.17-.84h6.37c.84,0,1.54.28,2.1.84.56.56.84,1.12.84,1.82v27.72h46.69c1.12,0,1.89.14,2.31.56.35.42.56,1.33.56,2.59v2.8c0,.98-.21,1.68-.56,2.17-.42.49-1.19.77-2.31.77h-22.12ZM285.04,5.34c.35.42.56.91.56,1.68v29.05c0,.7-.21,1.26-.56,1.61-.35.35-.84.49-1.61.49h-39.41c-.77,0-1.26-.14-1.61-.49-.35-.35-.49-.91-.49-1.61V7.02c0-.77.14-1.26.49-1.68.35-.35.84-.49,1.61-.49h39.41c.77,0,1.26.14,1.61.49ZM273.28,11.5h-19.11v2.17h19.11v-2.17ZM273.28,20.25h-19.11v2.17h19.11v-2.17ZM273.28,28.93h-19.11v2.31h19.11v-2.31ZM277.13,50.84c.49.49.77,1.12.77,1.82v1.82c0,.84.28,1.54.77,2.03.49.49,1.19.77,1.96.77h5.39c.84,0,1.54.28,2.03.77s.7,1.05.7,1.75v3.85c0,.7-.21,1.26-.7,1.75s-1.19.77-2.03.77h-10.22c-3.01-.07-5.18-.84-6.51-2.1-1.33-1.26-1.96-3.15-1.96-5.6v-5.81c0-.7.28-1.33.77-1.82.42-.49,1.05-.7,1.75-.77h5.46c.7.07,1.33.28,1.82.77Z"/></g></svg>