<?xml version="1.0" encoding="UTF-8"?><svg id="_レイヤー_2" xmlns="http://www.w3.org/2000/svg" viewBox="0 0 220.2 70.33"><defs><style>.cls-1,.cls-2,.cls-3{stroke-width:0px;}.cls-2{fill:#198caa;}.cls-3{fill:#fff;}</style></defs><g id="_レイヤー_4"><path class="cls-1" d="M5,65.34c-.35-.35-.56-.91-.49-1.75v-6.93c-.07-1.12.14-1.89.49-2.45.42-.49.98-1.19,1.82-2.1l10.64-9.31c.91-.63,1.61-.77,2.03-.35.42.35.63,1.05.63,2.17v7.21c0,.84-.21,1.54-.63,2.03-.42.56-1.19,1.33-2.24,2.38l-9.87,9.03c-1.19.42-1.96.42-2.38.07ZM7.94,17.94c-1.12-.7-1.89-1.19-2.24-1.54-.42-.35-.63-.91-.63-1.75v-7.49c0-1.12.21-1.82.63-2.24.35-.35,1.12-.35,2.24,0l9.31,5.11c1.12.63,1.96,1.12,2.31,1.47.42.35.56,1.12.56,2.17v6.44c0,.84-.28,1.54-.84,2.03-.56.56-1.26.84-2.03.7l-9.31-4.9ZM7.94,34.32c-1.12-.63-1.89-1.19-2.24-1.54-.42-.35-.63-.91-.63-1.75v-8.05c0-1.05.21-1.82.63-2.17.35-.35,1.12-.21,2.24.56l9.31,5.04c1.12.63,1.96,1.12,2.31,1.47.42.42.56,1.12.56,2.24v6.44c0,.77-.28,1.47-.84,2.03-.56.56-1.26.77-2.03.7l-9.31-4.97ZM51.49,49.93v13.09c0,.77-.28,1.4-.84,1.96-.63.56-1.26.84-2.1.84h-5.74c-.91,0-1.61-.28-2.17-.84-.49-.56-.84-1.19-.84-1.96v-13.09h-12.74c-1.26,0-2.24-.28-3.01-.77-.7-.56-1.05-1.61-1.05-3.29v-24.29c0-1.54.35-2.59,1.05-3.22.7-.63,1.68-.98,2.94-.98h12.81V7.37c0-.7.35-1.33.84-1.89.56-.56,1.26-.91,2.17-.91h5.74c.84,0,1.47.35,2.1.91.56.56.84,1.19.84,1.89v10.01h12.6c1.47,0,2.52.28,3.22.91.63.63.98,1.68.98,3.22v24.5c0,1.54-.35,2.52-.98,3.08-.63.56-1.68.84-3.15.84h-12.67ZM34.76,39.36h5.04v-11.48h-5.04v11.48ZM56.46,27.88h-4.97v11.48h4.97v-11.48Z"/><path class="cls-1" d="M79.13,53.44c.49-.63,1.12-.98,1.96-1.05.21-.21.28-.91.35-2.17v-7.49c0-.91.28-1.75.77-2.45.56-.7,1.4-1.05,2.73-1.05h.56c1.12,0,2.03.35,2.52,1.05.56.7.77,1.54.77,2.52v8.47c0,4.2-.77,7.07-2.38,8.75-1.61,1.68-3.01,2.45-4.27,2.45-1.05,0-1.89-.28-2.59-.84-.77-.56-1.12-1.47-1.12-2.66v-2.8c0-1.19.21-2.1.7-2.73ZM79.62,36.91c-.56-.56-.77-1.33-.77-2.31v-2.17c0-1.47.28-2.45.77-3.01.49-.49,1.4-.77,2.66-.77h3.92l-6.23-8.75c-.56-.91-.91-2.03-.98-3.36v-5.95c0-.63.28-1.19.77-1.54.56-.35,1.12-.56,1.75-.49.56.07,1.33.7,2.24,1.89l1.82,2.73,3.92-6.51c.63-.98,1.19-1.54,1.68-1.68.49-.14,1.05-.21,1.75-.21h4.13c.98.07,1.61.42,1.96,1.19.35.7.28,1.54-.14,2.66l-7.56,12.81,1.26,1.68,7.63-13.09c.98-1.33,1.75-1.96,2.38-2.03.56,0,1.12.14,1.68.49.56.35.84.91.84,1.61v6.72c-.14,1.33-.42,2.45-1.05,3.36l-4.9,8.47h3.99c1.4,0,2.31.28,2.8.77.42.56.7,1.54.77,3.01v1.89c0,1.19-.21,2.03-.77,2.59-.49.63-1.4.91-2.8.91h-5.95v24.5c0,.84-.35,1.61-1.05,2.24-.7.7-1.54,1.05-2.45,1.05h-.42c-1.05,0-1.89-.35-2.52-1.05-.63-.63-.98-1.4-1.05-2.24v-24.5h-7.42c-1.33,0-2.17-.28-2.66-.91ZM104.33,59.46c-.7.7-1.47.98-2.45.98h-.42c-1.05,0-1.89-.28-2.52-.98-.63-.63-.98-1.4-1.05-2.31v-14.63c.07-.77.42-1.54,1.05-2.24.63-.7,1.47-1.05,2.52-1.05h.42c.98,0,1.75.35,2.45,1.05.7.7,1.05,1.47,1.05,2.24v14.63c0,.91-.35,1.68-1.05,2.31ZM137.51,4.57c1.26,0,2.24.28,3.01.77.7.49,1.05,1.61,1.05,3.22v16.66c0,1.47-.35,2.52-1.05,3.15-.7.63-1.68.98-2.94.98h-8.12v2.03h8.05c1.26,0,2.24.28,3.01.77.7.49,1.05,1.54,1.05,3.22v16.66c0,1.47-.35,2.52-1.05,3.15-.7.63-1.68.98-2.94.98h-8.12v2.31h9.66c1.19,0,1.96.21,2.38.63s.63,1.26.63,2.59v.84c0,.98-.21,1.75-.63,2.17-.42.49-1.19.77-2.38.77h-16.52c-.91,0-1.61-.28-2.17-.91-.49-.56-.84-1.19-.84-1.89v-6.51h-7.91c-1.47,0-2.52-.35-3.22-.91-.63-.63-.98-1.68-.98-3.15v-16.87c0-1.54.35-2.52.98-3.01.63-.56,1.68-.84,3.15-.84h7.98v-2.03h-7.91c-1.47,0-2.52-.28-3.22-.91-.63-.63-.98-1.68-.98-3.15V8.42c0-1.47.35-2.52.98-3.01.63-.56,1.68-.84,3.15-.84h25.9ZM117.56,13.53h2.03v-2.24h-2.03v2.24ZM117.56,22.56h2.03v-2.24h-2.03v2.24ZM117.56,40.34h2.03v-2.24h-2.03v2.24ZM117.56,49.38h2.03v-2.24h-2.03v2.24ZM131.49,11.29h-2.03v2.24h2.03v-2.24ZM131.49,20.32h-2.03v2.24h2.03v-2.24ZM131.49,38.1h-2.03v2.24h2.03v-2.24ZM131.49,47.13h-2.03v2.24h2.03v-2.24Z"/><path class="cls-1" d="M172.64,49.72c.7.07,1.33.28,1.75.77.49.49.77,1.12.77,1.82v5.81c0,2.45-.63,4.34-1.96,5.6-1.33,1.26-3.5,2.03-6.51,2.1h-10.22c-.84,0-1.54-.28-2.03-.77-.49-.49-.7-1.05-.7-1.75v-3.85c0-.7.21-1.26.7-1.75.49-.49,1.19-.77,2.03-.77h5.39c.84,0,1.47-.28,1.96-.77.49-.49.77-1.19.77-2.03v-1.82c0-.7.28-1.33.77-1.82s1.12-.7,1.82-.77h5.46ZM190.7,48.25v15.26c0,.7-.21,1.26-.56,1.61-.42.35-.98.56-1.61.56h-7.7c-.63,0-1.26-.21-1.68-.56-.49-.35-.7-.91-.7-1.61v-15.26h-21.63c-.98,0-1.68-.35-2.17-.91-.56-.56-.84-1.19-.84-1.96V11.64c0-.7.28-1.26.84-1.82.49-.56,1.19-.84,2.17-.84h6.37c.84,0,1.54.28,2.1.84.56.56.84,1.12.84,1.82v27.72h46.69c1.12,0,1.89.14,2.31.56.35.42.56,1.33.56,2.59v2.8c0,.98-.21,1.68-.56,2.17-.42.49-1.19.77-2.31.77h-22.12ZM211.64,4.99c.35.42.56.91.56,1.68v29.05c0,.7-.21,1.26-.56,1.61-.35.35-.84.49-1.61.49h-39.41c-.77,0-1.26-.14-1.61-.49-.35-.35-.49-.91-.49-1.61V6.67c0-.77.14-1.26.49-1.68.35-.35.84-.49,1.61-.49h39.41c.77,0,1.26.14,1.61.49ZM199.87,11.15h-19.11v2.17h19.11v-2.17ZM199.87,19.9h-19.11v2.17h19.11v-2.17ZM199.87,28.58h-19.11v2.31h19.11v-2.31ZM203.72,50.49c.49.49.77,1.12.77,1.82v1.82c0,.84.28,1.54.77,2.03.49.49,1.19.77,1.96.77h5.39c.84,0,1.54.28,2.03.77s.7,1.05.7,1.75v3.85c0,.7-.21,1.26-.7,1.75s-1.19.77-2.03.77h-10.22c-3.01-.07-5.18-.84-6.51-2.1-1.33-1.26-1.96-3.15-1.96-5.6v-5.81c0-.7.28-1.33.77-1.82.42-.49,1.05-.7,1.75-.77h5.46c.7.07,1.33.28,1.82.77Z"/><path class="cls-2" d="M48.55,70.33h-5.74c-2.09,0-3.94-.75-5.35-2.16-.07-.07-.14-.14-.2-.22-1.29-1.48-1.95-3.14-1.95-4.92v-8.59h-8.24c-.96,0-1.88-.11-2.73-.32-.27.95-.71,1.81-1.31,2.55-.58.76-1.37,1.55-2.58,2.76-.05.05-.09.09-.14.14l-9.87,9.03c-.45.41-.97.72-1.54.92-3.42,1.21-5.56.28-6.76-.71-.1-.09-.2-.18-.3-.27-1.29-1.28-1.93-3.08-1.81-5.09v-6.66c-.09-1.9.3-3.56,1.17-4.96.12-.19.25-.37.4-.54l.32-.38c.41-.49.92-1.1,1.61-1.84.11-.12.22-.23.34-.33l8.15-7.13-6.18-3.3s-.06-.03-.08-.04c-.93-.52-2.2-1.31-3.09-2.15-.99-.89-2.08-2.46-2.08-5.06v-8.05c0-1.76.38-3.22,1.12-4.37-.63-.92-1.12-2.21-1.12-3.97v-7.49c0-.86,0-3.47,1.95-5.42C3.64.62,5.72-.49,9.28.62c.29.09.56.21.83.35l9.31,5.11c1.44.81,2.44,1.39,3.19,2.1,1.74,1.56,1.98,3.74,2.01,4.97.7-.17,1.49-.27,2.37-.27h8.31v-5.51c0-1.2.34-3.01,1.96-4.86.06-.07.13-.14.2-.21,1.46-1.46,3.31-2.23,5.35-2.23h5.74c1.88,0,3.54.67,5.09,2.05.06.06.13.12.19.18,1.41,1.41,2.16,3.17,2.16,5.07v5.51h8.1c2.65,0,4.69.68,6.23,2.07.06.05.11.1.17.16,1.53,1.52,2.3,3.68,2.3,6.4v24.5c0,2.81-.84,4.98-2.5,6.45-1.48,1.32-3.49,1.97-6.13,1.97h-8.17v8.59c0,1.95-.75,3.73-2.16,5.14-.06.06-.13.12-.19.18-1.47,1.31-3.19,1.98-5.09,1.98ZM44.3,61.33h2.69v-11.39c0-2.49,2.01-4.5,4.5-4.5h12.3v-23.55h-12.3c-2.49,0-4.5-2.01-4.5-4.5v-8.31h-2.69v8.31c0,2.49-2.01,4.5-4.5,4.5h-12.3v23.55h12.3c2.49,0,4.5,2.01,4.5,4.5v11.39ZM9.01,56.44c0,.07,0,.15,0,.22v1.02l5.13-4.69c.52-.52,1.12-1.12,1.48-1.51v-1.09l-5.65,4.95c-.38.42-.7.79-.96,1.11ZM10.11,30.38l5.52,2.95v-2.66c-.24-.13-.45-.26-.57-.32l-5.48-2.97v2.69c.15.09.33.2.53.32ZM8.59,29.33s0,0,0,0c0,0,0,0,0,0ZM10.19,14.04l5.44,2.86v-2.62c-.24-.14-.46-.26-.58-.33l-5.47-3v2.7c.21.14.43.27.62.39ZM8.58,12.94s0,0,0,0c0,0,0,0,0,0ZM56.46,43.86h-4.97c-2.49,0-4.5-2.01-4.5-4.5v-11.48c0-2.49,2.01-4.5,4.5-4.5h4.97c2.49,0,4.5,2.01,4.5,4.5v11.48c0,2.49-2.01,4.5-4.5,4.5ZM39.8,43.86h-5.04c-2.49,0-4.5-2.01-4.5-4.5v-11.48c0-2.49,2.01-4.5,4.5-4.5h5.04c2.49,0,4.5,2.01,4.5,4.5v11.48c0,2.49-2.01,4.5-4.5,4.5Z"/><path class="cls-2" d="M93.69,70.12h-.42c-2.3,0-4.3-.85-5.78-2.45-.53-.54-.96-1.13-1.32-1.77-1.32.72-2.66,1.07-4.03,1.07-2.04,0-3.83-.59-5.33-1.77-1.12-.84-2.88-2.73-2.88-6.23v-2.8c0-2.27.54-4.07,1.65-5.5.4-.52.86-.97,1.36-1.35v-6.6c0-.66.07-1.31.22-1.95-.33-.26-.63-.55-.91-.88-1.26-1.36-1.9-3.14-1.9-5.29v-2.17c0-2.57.61-4.52,1.88-5.97.07-.08.14-.15.21-.22.4-.4.94-.83,1.67-1.2l-1.8-2.53c-.06-.08-.11-.17-.17-.25-.98-1.6-1.53-3.44-1.64-5.48,0-.08,0-.16,0-.23v-5.95c0-2.07.99-4.02,2.66-5.2.07-.05.15-.1.22-.15,1.5-.94,3.06-1.33,4.64-1.15,1.18.15,2.18.64,3.02,1.27l.61-1.01s.05-.08.07-.11c.8-1.25,2.11-2.97,4.24-3.58.89-.25,1.87-.38,2.97-.38h4.13c.11,0,.21,0,.32.01,3.09.22,4.66,1.91,5.42,3.21.45.01.9.06,1.33.15.44-.75.96-1.3,1.45-1.7,1.48-1.27,3.46-1.89,6.04-1.89h25.9c2.06,0,3.89.5,5.43,1.47.06.04.11.07.17.11,1.97,1.38,2.97,3.7,2.97,6.91v16.66c0,1.98-.43,3.65-1.28,5,.85,1.33,1.28,3.05,1.28,5.15v16.66c0,1.69-.31,3.16-.94,4.4,1.33,1.68,1.5,3.78,1.5,5.26v.84c0,2.68-.96,4.31-1.82,5.22-.94,1.04-2.68,2.22-5.69,2.22h-16.52c-2.79,0-4.55-1.31-5.53-2.42-1.64-1.88-1.98-3.69-1.98-4.88v-2.01h-3.41c-.9,0-1.75-.09-2.53-.26-.41.86-.99,1.64-1.72,2.32-1.51,1.47-3.38,2.22-5.55,2.22h-.42c-.08,0-.17,0-.25,0-.41,1.08-1.08,2.07-1.98,2.9-1.52,1.47-3.48,2.28-5.55,2.28ZM124.09,60.98h1.63c-.48-.72-.76-1.58-.76-2.5v-2.31c0-1.35.6-2.57,1.55-3.39-.95-.83-1.55-2.04-1.55-3.39v-2.24c0-1.36.6-2.57,1.55-3.4-.95-.83-1.55-2.04-1.55-3.4v-2.24c0-1.34.58-2.54,1.51-3.36-.92-.82-1.51-2.02-1.51-3.36v-2.03c0-1.36.6-2.57,1.55-3.4-.95-.83-1.55-2.04-1.55-3.4v-2.24c0-1.35.6-2.57,1.55-3.39-.95-.83-1.55-2.04-1.55-3.39v-2.24c0-.81.21-1.57.58-2.22h-2.04c.37.66.58,1.41.58,2.22v2.24c0,1.35-.6,2.57-1.55,3.39.95.83,1.55,2.04,1.55,3.39v2.24c0,1.36-.6,2.57-1.55,3.4.95.83,1.55,2.04,1.55,3.4v2.03c0,1.34-.58,2.54-1.51,3.36.92.82,1.51,2.02,1.51,3.36v2.24c0,1.36-.6,2.57-1.55,3.4.95.83,1.55,2.04,1.55,3.4v2.24c0,1.35-.6,2.57-1.55,3.39.95.83,1.55,2.04,1.55,3.39v4.81ZM82.93,56.49v.65c.07-.07.15-.15.23-.23.1-.1.28-.34.47-.8-.22.15-.46.28-.7.39ZM79.13,53.44h0,0ZM135.37,51.66h1.71v-15.78h-1.67c.37.66.58,1.41.58,2.22v2.24c0,1.36-.6,2.57-1.55,3.4.95.83,1.55,2.04,1.55,3.4v2.24c0,.84-.23,1.62-.62,2.29ZM111.98,51.66h1.71c-.4-.67-.62-1.45-.62-2.29v-2.24c0-1.36.6-2.57,1.55-3.4-.95-.83-1.55-2.04-1.55-3.4v-2.24c0-.81.21-1.57.58-2.22h-1.67v15.78ZM83.35,33.32h6.35c1.56,0,2.94.8,3.75,2,.81-1.21,2.18-2,3.75-2h5.02v-.17h-3.06c-1.61,0-3.09-.86-3.9-2.25-.71-1.23-.79-2.71-.25-3.99-.64.41-1.39.66-2.17.71-.84.05-1.69-.14-2.42-.54.44,1.17.38,2.5-.21,3.65-.77,1.5-2.32,2.44-4,2.44h-2.85v.17ZM135.37,24.85h1.71v-15.78h-1.67c.37.66.58,1.41.58,2.22v2.24c0,1.35-.6,2.57-1.55,3.39.95.83,1.55,2.04,1.55,3.39v2.24c0,.84-.23,1.62-.63,2.29ZM111.98,24.85h1.71c-.4-.67-.63-1.45-.63-2.29v-2.24c0-1.35.6-2.57,1.55-3.39-.95-.83-1.55-2.04-1.55-3.39v-2.24c0-.81.21-1.57.58-2.22h-1.67v15.78ZM83.75,17.46l3.07,4.31c-.06-.89.14-1.81.61-2.61l5.83-9.88h-.09l-3.75,6.22c-.79,1.32-2.21,2.14-3.75,2.18-.73.02-1.39-.13-2.01-.42.03.07.06.14.09.2Z"/><path class="cls-2" d="M212.62,70.33h-10.22s-.07,0-.11,0c-3.51-.08-6.37-.93-8.52-2.51-.14.17-.29.34-.44.49-.09.09-.19.18-.29.27-1.24,1.04-2.84,1.61-4.5,1.61h-7.7c-1.62,0-3.22-.54-4.43-1.5-.37-.28-.7-.59-.99-.94-2.16,1.63-5.05,2.5-8.61,2.58-.04,0-.07,0-.11,0h-10.22c-2.01,0-3.87-.74-5.21-2.09-1.32-1.32-2.02-3.03-2.02-4.93v-3.85c0-1.9.7-3.61,2.01-4.93,1.03-1.03,2.35-1.7,3.81-1.97-1.43-.33-2.71-1.06-3.69-2.14-1.35-1.39-2.06-3.13-2.06-5.04V11.64c0-1.84.69-3.49,2.06-4.91.97-1.06,2.68-2.25,5.45-2.25h6.37c.37,0,.73.02,1.08.07.25-.91.67-1.72,1.27-2.44.08-.1.17-.2.27-.29,1.2-1.21,2.81-1.82,4.8-1.82h39.41c1.99,0,3.6.61,4.8,1.82.09.09.18.19.27.29,1.06,1.28,1.6,2.81,1.6,4.56v28.93c.56.27,1.12.64,1.62,1.14.1.1.19.2.28.3,1.08,1.29,1.6,3.08,1.6,5.47v2.8c0,1.87-.47,3.48-1.4,4.78-.08.11-.16.21-.25.31-.75.87-2.04,1.88-4.17,2.22,1.32.3,2.5.95,3.44,1.89,1.32,1.32,2.02,3.03,2.02,4.93v3.85c0,1.91-.7,3.61-2.02,4.93-1.35,1.35-3.2,2.09-5.21,2.09ZM202.45,61.33h3.48c-1.47-.25-2.8-.93-3.85-1.98-1.32-1.32-2.07-3.14-2.09-5.12h-1.57v3.9c0,1.15.2,2,.56,2.34.14.13.97.8,3.47.86ZM163.18,61.33h3.46c2.5-.07,3.33-.73,3.47-.87.35-.33.55-1.18.55-2.33v-3.9h-1.57c-.02,1.98-.76,3.8-2.09,5.13-1.05,1.05-2.36,1.72-3.82,1.97ZM182.95,61.19h3.25v-12.93c0-2.14,1.5-3.94,3.51-4.39h-10.27c2.01.45,3.51,2.25,3.51,4.39v12.93ZM158.31,43.75h6.83c-2.01-.45-3.51-2.25-3.51-4.39V13.48h-3.32v30.27ZM203.66,33.32h4.03V9h-3.87c.35.64.55,1.37.55,2.15v2.17c0,1.3-.55,2.47-1.43,3.29.88.82,1.43,1.99,1.43,3.29v2.17c0,1.28-.53,2.44-1.39,3.25.86.82,1.39,1.97,1.39,3.25v2.31c0,.89-.26,1.73-.71,2.43ZM173.01,33.32h3.96c-.45-.7-.71-1.53-.71-2.43v-2.31c0-1.28.53-2.44,1.39-3.25-.86-.82-1.39-1.97-1.39-3.25v-2.17c0-1.3.55-2.47,1.43-3.29-.88-.82-1.43-1.99-1.43-3.29v-2.17c0-.78.2-1.51.55-2.15h-3.8v24.32ZM210.07,9h.01-.01Z"/><path class="cls-3" d="M48.55,68.83h-5.74c-1.68,0-3.17-.59-4.29-1.72-.05-.05-.09-.09-.13-.14-1.05-1.2-1.58-2.52-1.58-3.94v-10.09h-9.74c-1.47,0-2.79-.29-3.93-.85-.05,1.43-.49,2.68-1.28,3.65-.53.69-1.29,1.46-2.47,2.63-.03.03-.06.06-.09.09l-9.87,9.03c-.3.27-.65.48-1.03.62-2.21.78-4,.63-5.3-.45-.07-.06-.13-.12-.2-.18-.7-.7-1.5-1.96-1.37-3.98v-6.74c-.08-1.6.23-2.99.95-4.13.08-.13.17-.25.27-.36l.33-.39c.4-.47.9-1.07,1.56-1.79.07-.08.15-.15.23-.22l9.78-8.56-8.09-4.32s-.04-.02-.05-.03c-.86-.48-2.03-1.21-2.81-1.95-.75-.67-1.6-1.89-1.6-3.96v-8.05c0-1.95.54-3.42,1.59-4.38-.75-.67-1.59-1.89-1.59-3.96v-7.49c0-.71,0-2.85,1.51-4.36,1.21-1.21,2.97-1.45,5.25-.74.19.06.38.14.55.23l9.31,5.11c1.34.75,2.27,1.29,2.9,1.89,1.53,1.37,1.53,3.55,1.53,4.38v1.67c1.1-.63,2.41-.96,3.86-.96h9.81v-7.01c0-1.37.53-2.67,1.58-3.87.04-.05.09-.1.13-.14,1.17-1.17,2.65-1.79,4.29-1.79h5.74c1.49,0,2.83.55,4.09,1.67.04.04.08.08.12.12,1.13,1.12,1.72,2.51,1.72,4.01v7.01h9.6c2.26,0,3.97.55,5.23,1.68.04.03.08.07.11.11,1.23,1.23,1.86,3.03,1.86,5.34v24.5c0,2.36-.67,4.16-1.99,5.33-1.2,1.07-2.88,1.59-5.14,1.59h-9.67v10.09c0,1.54-.59,2.96-1.72,4.08-.04.04-.08.08-.13.12-1.21,1.08-2.55,1.6-4.09,1.6ZM42.8,62.83h5.69v-12.89c0-1.66,1.34-3,3-3h12.67c.54,0,.88-.05,1.06-.1.03-.16.07-.42.07-.82v-24.5c0-.54-.06-.86-.11-1.03-.16-.04-.49-.1-1.09-.1h-12.6c-1.66,0-3-1.34-3-3V7.58s-.01-.01-.02-.01h-5.66s0,0,0,0v9.8c0,1.66-1.34,3-3,3h-12.81c-.39,0-.7.06-.87.16-.04.11-.12.42-.12,1.04v24.29c0,.46.04.75.07.94.27.08.6.12.99.12h12.74c1.66,0,3,1.34,3,3v12.89ZM7.53,55.86c-.02.09-.04.28-.02.6,0,.06,0,.13,0,.19v4.43l7.67-7.02c.8-.8,1.62-1.62,1.92-2.01,0,0,0-.01.01-.02,0-.04.01-.11.01-.21v-4.75l-8.2,7.18c-.53.58-.94,1.07-1.27,1.46l-.12.15ZM17.22,51.9s0,0,0,0c0,0,0,0,0,0ZM9.39,31.69l7.74,4.13v-5.7c0-.13,0-.24,0-.33-.4-.25-1.04-.6-1.33-.77l-7.71-4.18v6.01c.25.18.68.47,1.31.83ZM9.44,15.34l7.68,4.04v-5.71c0-.1,0-.18,0-.26-.4-.24-1.05-.61-1.34-.77l-7.71-4.23v6.05c.35.24.96.62,1.37.88ZM56.46,42.36h-4.97c-1.66,0-3-1.34-3-3v-11.48c0-1.66,1.34-3,3-3h4.97c1.66,0,3,1.34,3,3v11.48c0,1.66-1.34,3-3,3ZM39.8,42.36h-5.04c-1.66,0-3-1.34-3-3v-11.48c0-1.66,1.34-3,3-3h5.04c1.66,0,3,1.34,3,3v11.48c0,1.66-1.34,3-3,3Z"/><path class="cls-3" d="M93.69,68.62h-.42c-1.88,0-3.5-.69-4.7-1.98-.84-.86-1.41-1.88-1.69-3-1.59,1.23-3.15,1.83-4.75,1.83-1.7,0-3.18-.49-4.41-1.46-1.06-.79-2.3-2.3-2.3-5.04v-2.8c0-1.92.44-3.42,1.33-4.57.48-.61,1.04-1.11,1.68-1.47v-7.4c0-.9.16-1.77.48-2.59-.55-.28-1.08-.67-1.54-1.22-1.01-1.08-1.52-2.53-1.52-4.3v-2.17c0-2.19.49-3.82,1.51-4.98.04-.05.09-.1.14-.15.76-.76,1.76-1.26,3-1.49l-2.97-4.17c-.04-.06-.08-.11-.11-.17-.85-1.38-1.33-2.99-1.42-4.77,0-.05,0-.1,0-.16v-5.95c0-1.61.74-3.06,2.03-3.98.05-.03.1-.07.15-.1,1.22-.77,2.42-1.08,3.68-.93,1.23.15,2.36.83,3.52,2.12l1.55-2.58c.72-1.12,1.8-2.56,3.43-3.02.76-.22,1.6-.32,2.57-.32h4.13c.07,0,.14,0,.21,0,2.78.2,3.98,1.87,4.45,2.89.06.13.12.26.17.39.12-.02.24-.04.36-.06.93-.1,1.84.1,2.69.45.41-1.16,1.03-1.9,1.6-2.36,1.2-1.03,2.87-1.54,5.08-1.54h25.9c1.77,0,3.33.42,4.62,1.24.04.02.07.05.11.07,1.55,1.08,2.33,2.99,2.33,5.68v16.66c0,2.13-.56,3.81-1.68,5.02,1.68,1.69,1.68,4.23,1.68,5.13v16.66c0,1.9-.45,3.44-1.33,4.61.13.11.26.22.38.34,1.35,1.35,1.51,3.34,1.51,4.71v.84c0,2.2-.75,3.49-1.42,4.2-1.03,1.15-2.58,1.74-4.59,1.74h-16.52c-2.24,0-3.63-1.04-4.41-1.91-1.07-1.22-1.6-2.52-1.6-3.89v-3.51h-4.91c-1.3,0-2.46-.21-3.46-.61-.27,1.17-.89,2.22-1.83,3.08-1.22,1.2-2.74,1.8-4.52,1.8h-.42c-.47,0-.93-.04-1.36-.11-.22,1.29-.88,2.48-1.9,3.42-1.25,1.23-2.81,1.87-4.52,1.87ZM92.7,62.15c.02.09.06.19.17.29.04.04.07.07.11.11.04.03.13.06.29.06h.42c.07,0,.16,0,.33-.17.04-.04.07-.07.11-.11.06-.05.08-.08.08-.08l-.02-24.43c0-1.66,1.34-3,3-3h5.95c.24,0,.42-.01.55-.03.01-.11.02-.27.02-.47v-1.81c-.02-.36-.05-.63-.09-.84-.13-.01-.29-.02-.48-.02h-3.99c-1.07,0-2.06-.57-2.6-1.5-.54-.93-.54-2.07,0-3l4.9-8.47c.04-.07.08-.14.13-.21.25-.36.41-.94.52-1.82v-3.93l-6.94,11.91c-.51.87-1.41,1.43-2.42,1.48-.99.05-1.97-.39-2.57-1.19l-1.26-1.68c-.73-.97-.8-2.28-.18-3.33l7.16-12.14h-2.97c-.22,0-.4,0-.57.03-.08.1-.2.26-.34.49l-3.87,6.43c-.53.88-1.47,1.43-2.5,1.45-1.03.05-1.99-.48-2.56-1.33l-1.08-1.63v3.24c.04.71.21,1.31.49,1.8l6.16,8.66c.65.92.74,2.12.22,3.12s-1.54,1.62-2.67,1.62h-3.92c-.15,0-.28,0-.39.02-.02.18-.04.43-.04.76v2.17c0,.08,0,.15,0,.2.1,0,.24.02.42.02h7.42c1.66,0,3,1.34,3,3v24.33ZM122.6,62.48h16.54v-.78c0-.08,0-.15,0-.22h-9.67c-1.66,0-3-1.34-3-3v-2.31c0-1.66,1.34-3,3-3h8.12c.39,0,.7-.06.87-.17.04-.1.12-.39.12-.96v-16.66c0-.41-.03-.68-.06-.87-.27-.08-.61-.12-1-.12h-8.05c-1.66,0-3-1.34-3-3v-2.03c0-1.66,1.34-3,3-3h8.12c.39,0,.7-.06.87-.17.04-.1.12-.39.12-.96V8.56c0-.4-.03-.68-.06-.87-.27-.08-.61-.12-1-.12h-25.9c-.55,0-.89.05-1.07.1-.03.15-.06.4-.06.75v16.87c0,.5.06.8.1.96.16.04.49.11,1.1.11h7.91c1.66,0,3,1.34,3,3v2.03c0,1.66-1.34,3-3,3h-7.98c-.56,0-.89.05-1.08.1-.03.15-.05.4-.05.75v16.87c0,.46.05.75.09.92.2.07.55.14,1.11.14h7.91c1.66,0,3,1.34,3,3v6.31s0,0,0,0ZM81.45,59.31c.09.07.25.16.69.16,0,0,.66-.02,2.1-1.52.71-.74,1.55-2.49,1.55-6.68v-8.47c0-.12,0-.4-.07-.56-.06,0-.13-.01-.22-.01h-.56c-.19,0-.32.01-.41.02-.06.15-.09.31-.09.48v7.49c0,.05,0,.11,0,.17-.09,1.65-.17,3.07-1.22,4.12-.46.47-1.07.77-1.72.86-.03.14-.07.39-.07.81v2.8c0,.16.01.27.03.34ZM101.16,57.42s.14.01.29.01h.42c.17,0,.23-.02.24-.02,0,0,.03-.02.09-.08.04-.04.08-.08.12-.11.05-.05.07-.07.07-.07v-14.55s-.09-.11-.18-.21c-.17-.17-.2-.17-.33-.17h-.42c-.19,0-.26.03-.26.03-.19.2-.27.36-.31.47v14.27c.02.16.08.25.17.34.03.03.06.06.09.09,0,0,0,0,.02,0ZM79.13,53.44h0,0ZM103.57,35.07s0,0,0,0c0,0,0,0,0,0ZM81.98,35.07s0,0,0,0c0,0,0,0,0,0ZM110.3,34.59h0s0,0,0,0ZM104.32,25.71c.06,0,.11.01.17.02,0-.1,0-.2,0-.3l-.16.28ZM92,7.87s0,0,0,0c0,0,0,0,0,0ZM110.3,7.78h0s0,0,0,0ZM131.49,52.38h-2.03c-1.66,0-3-1.34-3-3v-2.24c0-1.66,1.34-3,3-3h2.03c1.66,0,3,1.34,3,3v2.24c0,1.66-1.34,3-3,3ZM119.59,52.38h-2.03c-1.66,0-3-1.34-3-3v-2.24c0-1.66,1.34-3,3-3h2.03c1.66,0,3,1.34,3,3v2.24c0,1.66-1.34,3-3,3ZM131.49,43.34h-2.03c-1.66,0-3-1.34-3-3v-2.24c0-1.66,1.34-3,3-3h2.03c1.66,0,3,1.34,3,3v2.24c0,1.66-1.34,3-3,3ZM119.59,43.34h-2.03c-1.66,0-3-1.34-3-3v-2.24c0-1.66,1.34-3,3-3h2.03c1.66,0,3,1.34,3,3v2.24c0,1.66-1.34,3-3,3ZM131.49,25.56h-2.03c-1.66,0-3-1.34-3-3v-2.24c0-1.66,1.34-3,3-3h2.03c1.66,0,3,1.34,3,3v2.24c0,1.66-1.34,3-3,3ZM119.59,25.56h-2.03c-1.66,0-3-1.34-3-3v-2.24c0-1.66,1.34-3,3-3h2.03c1.66,0,3,1.34,3,3v2.24c0,1.66-1.34,3-3,3ZM131.49,16.53h-2.03c-1.66,0-3-1.34-3-3v-2.24c0-1.66,1.34-3,3-3h2.03c1.66,0,3,1.34,3,3v2.24c0,1.66-1.34,3-3,3ZM119.59,16.53h-2.03c-1.66,0-3-1.34-3-3v-2.24c0-1.66,1.34-3,3-3h2.03c1.66,0,3,1.34,3,3v2.24c0,1.66-1.34,3-3,3Z"/><path class="cls-3" d="M212.62,68.83h-10.22c-3.76-.09-6.62-1.07-8.57-2.92-.15-.14-.3-.29-.44-.45-.24.69-.62,1.3-1.12,1.79-.06.06-.13.12-.2.18-.97.81-2.23,1.26-3.54,1.26h-7.7c-1.29,0-2.57-.43-3.52-1.19-.72-.54-1.24-1.26-1.55-2.11-.16.18-.33.35-.5.51-1.96,1.85-4.82,2.84-8.51,2.92h-10.29c-1.61,0-3.09-.58-4.15-1.65-1.05-1.05-1.58-2.35-1.58-3.87v-3.85c0-1.52.53-2.82,1.58-3.87,1.06-1.07,2.54-1.65,4.15-1.65h5.12v-1.62c0-.36.04-.71.11-1.06h-4.87c-1.75,0-3.26-.64-4.36-1.86-1.08-1.11-1.65-2.5-1.65-4.01V11.64c0-1.45.56-2.75,1.65-3.88.76-.83,2.12-1.78,4.36-1.78h6.37c.83,0,1.61.15,2.32.45.02-.92.21-2.19,1.18-3.36.06-.07.12-.13.18-.2,1.37-1.38,3.15-1.38,3.74-1.38h39.41c.59,0,2.37,0,3.74,1.38.06.06.12.13.18.2.84,1.01,1.25,2.19,1.25,3.6v29.05c0,.31-.02.6-.06.89.76.2,1.5.56,2.12,1.19.06.06.13.13.18.2.84,1.01,1.25,2.49,1.25,4.51v2.8c0,1.56-.38,2.87-1.12,3.91-.05.07-.11.14-.16.21-.71.83-2.08,1.82-4.59,1.82h-5.43c.07.35.1.7.1,1.06v1.62h5.12c1.61,0,3.09.59,4.15,1.65,1.05,1.05,1.58,2.35,1.58,3.87v3.85c0,1.52-.53,2.82-1.58,3.87-1.06,1.06-2.54,1.65-4.15,1.65ZM196.92,52.72v5.4c0,1.63.34,2.78,1.02,3.42.82.77,2.42,1.23,4.52,1.28h9.88v-2.89h-5.12c-1.57,0-3.02-.59-4.08-1.66-1.06-1.06-1.65-2.53-1.65-4.15v-1.41h-4.57ZM156.74,62.82h9.95c2.03-.04,3.63-.5,4.45-1.27.68-.64,1.02-1.8,1.02-3.42v-5.4h-4.57v1.41c0,1.62-.59,3.09-1.65,4.16-1.07,1.07-2.48,1.65-4.08,1.65h-5.12v2.88ZM181.45,62.69h6.25v-14.43c0-1.66,1.34-3,3-3h21.99v-2.74c0-.05,0-.1,0-.15h-46.56c-1.66,0-3-1.34-3-3V11.98h-6.31s0,0,0,0v33.27h21.64c1.66,0,3,1.34,3,3v14.43ZM171.51,34.82h37.68V7.5s-37.68,0-37.68,0v27.32ZM210.21,7.51h0,0ZM199.87,33.89h-19.11c-1.66,0-3-1.34-3-3v-2.31c0-1.66,1.34-3,3-3h19.11c1.66,0,3,1.34,3,3v2.31c0,1.66-1.34,3-3,3ZM199.87,25.07h-19.11c-1.66,0-3-1.34-3-3v-2.17c0-1.66,1.34-3,3-3h19.11c1.66,0,3,1.34,3,3v2.17c0,1.66-1.34,3-3,3ZM199.87,16.32h-19.11c-1.66,0-3-1.34-3-3v-2.17c0-1.66,1.34-3,3-3h19.11c1.66,0,3,1.34,3,3v2.17c0,1.66-1.34,3-3,3Z"/><path class="cls-2" d="M5,65.34c-.35-.35-.56-.91-.49-1.75v-6.93c-.07-1.12.14-1.89.49-2.45.42-.49.98-1.19,1.82-2.1l10.64-9.31c.91-.63,1.61-.77,2.03-.35.42.35.63,1.05.63,2.17v7.21c0,.84-.21,1.54-.63,2.03-.42.56-1.19,1.33-2.24,2.38l-9.87,9.03c-1.19.42-1.96.42-2.38.07ZM7.94,17.94c-1.12-.7-1.89-1.19-2.24-1.54-.42-.35-.63-.91-.63-1.75v-7.49c0-1.12.21-1.82.63-2.24.35-.35,1.12-.35,2.24,0l9.31,5.11c1.12.63,1.96,1.12,2.31,1.47.42.35.56,1.12.56,2.17v6.44c0,.84-.28,1.54-.84,2.03-.56.56-1.26.84-2.03.7l-9.31-4.9ZM7.94,34.32c-1.12-.63-1.89-1.19-2.24-1.54-.42-.35-.63-.91-.63-1.75v-8.05c0-1.05.21-1.82.63-2.17.35-.35,1.12-.21,2.24.56l9.31,5.04c1.12.63,1.96,1.12,2.31,1.47.42.42.56,1.12.56,2.24v6.44c0,.77-.28,1.47-.84,2.03-.56.56-1.26.77-2.03.7l-9.31-4.97ZM51.49,49.93v13.09c0,.77-.28,1.4-.84,1.96-.63.56-1.26.84-2.1.84h-5.74c-.91,0-1.61-.28-2.17-.84-.49-.56-.84-1.19-.84-1.96v-13.09h-12.74c-1.26,0-2.24-.28-3.01-.77-.7-.56-1.05-1.61-1.05-3.29v-24.29c0-1.54.35-2.59,1.05-3.22.7-.63,1.68-.98,2.94-.98h12.81V7.37c0-.7.35-1.33.84-1.89.56-.56,1.26-.91,2.17-.91h5.74c.84,0,1.47.35,2.1.91.56.56.84,1.19.84,1.89v10.01h12.6c1.47,0,2.52.28,3.22.91.63.63.98,1.68.98,3.22v24.5c0,1.54-.35,2.52-.98,3.08-.63.56-1.68.84-3.15.84h-12.67ZM34.76,39.36h5.04v-11.48h-5.04v11.48ZM56.46,27.88h-4.97v11.48h4.97v-11.48Z"/><path class="cls-2" d="M79.13,53.44c.49-.63,1.12-.98,1.96-1.05.21-.21.28-.91.35-2.17v-7.49c0-.91.28-1.75.77-2.45.56-.7,1.4-1.05,2.73-1.05h.56c1.12,0,2.03.35,2.52,1.05.56.7.77,1.54.77,2.52v8.47c0,4.2-.77,7.07-2.38,8.75-1.61,1.68-3.01,2.45-4.27,2.45-1.05,0-1.89-.28-2.59-.84-.77-.56-1.12-1.47-1.12-2.66v-2.8c0-1.19.21-2.1.7-2.73ZM79.62,36.91c-.56-.56-.77-1.33-.77-2.31v-2.17c0-1.47.28-2.45.77-3.01.49-.49,1.4-.77,2.66-.77h3.92l-6.23-8.75c-.56-.91-.91-2.03-.98-3.36v-5.95c0-.63.28-1.19.77-1.54.56-.35,1.12-.56,1.75-.49.56.07,1.33.7,2.24,1.89l1.82,2.73,3.92-6.51c.63-.98,1.19-1.54,1.68-1.68.49-.14,1.05-.21,1.75-.21h4.13c.98.07,1.61.42,1.96,1.19.35.7.28,1.54-.14,2.66l-7.56,12.81,1.26,1.68,7.63-13.09c.98-1.33,1.75-1.96,2.38-2.03.56,0,1.12.14,1.68.49.56.35.84.91.84,1.61v6.72c-.14,1.33-.42,2.45-1.05,3.36l-4.9,8.47h3.99c1.4,0,2.31.28,2.8.77.42.56.7,1.54.77,3.01v1.89c0,1.19-.21,2.03-.77,2.59-.49.63-1.4.91-2.8.91h-5.95v24.5c0,.84-.35,1.61-1.05,2.24-.7.7-1.54,1.05-2.45,1.05h-.42c-1.05,0-1.89-.35-2.52-1.05-.63-.63-.98-1.4-1.05-2.24v-24.5h-7.42c-1.33,0-2.17-.28-2.66-.91ZM104.33,59.46c-.7.7-1.47.98-2.45.98h-.42c-1.05,0-1.89-.28-2.52-.98-.63-.63-.98-1.4-1.05-2.31v-14.63c.07-.77.42-1.54,1.05-2.24.63-.7,1.47-1.05,2.52-1.05h.42c.98,0,1.75.35,2.45,1.05.7.7,1.05,1.47,1.05,2.24v14.63c0,.91-.35,1.68-1.05,2.31ZM137.51,4.57c1.26,0,2.24.28,3.01.77.7.49,1.05,1.61,1.05,3.22v16.66c0,1.47-.35,2.52-1.05,3.15-.7.63-1.68.98-2.94.98h-8.12v2.03h8.05c1.26,0,2.24.28,3.01.77.7.49,1.05,1.54,1.05,3.22v16.66c0,1.47-.35,2.52-1.05,3.15-.7.63-1.68.98-2.94.98h-8.12v2.31h9.66c1.19,0,1.96.21,2.38.63s.63,1.26.63,2.59v.84c0,.98-.21,1.75-.63,2.17-.42.49-1.19.77-2.38.77h-16.52c-.91,0-1.61-.28-2.17-.91-.49-.56-.84-1.19-.84-1.89v-6.51h-7.91c-1.47,0-2.52-.35-3.22-.91-.63-.63-.98-1.68-.98-3.15v-16.87c0-1.54.35-2.52.98-3.01.63-.56,1.68-.84,3.15-.84h7.98v-2.03h-7.91c-1.47,0-2.52-.28-3.22-.91-.63-.63-.98-1.68-.98-3.15V8.42c0-1.47.35-2.52.98-3.01.63-.56,1.68-.84,3.15-.84h25.9ZM117.56,13.53h2.03v-2.24h-2.03v2.24ZM117.56,22.56h2.03v-2.24h-2.03v2.24ZM117.56,40.34h2.03v-2.24h-2.03v2.24ZM117.56,49.38h2.03v-2.24h-2.03v2.24ZM131.49,11.29h-2.03v2.24h2.03v-2.24ZM131.49,20.32h-2.03v2.24h2.03v-2.24ZM131.49,38.1h-2.03v2.24h2.03v-2.24ZM131.49,47.13h-2.03v2.24h2.03v-2.24Z"/><path class="cls-2" d="M172.64,49.72c.7.07,1.33.28,1.75.77.49.49.77,1.12.77,1.82v5.81c0,2.45-.63,4.34-1.96,5.6-1.33,1.26-3.5,2.03-6.51,2.1h-10.22c-.84,0-1.54-.28-2.03-.77-.49-.49-.7-1.05-.7-1.75v-3.85c0-.7.21-1.26.7-1.75.49-.49,1.19-.77,2.03-.77h5.39c.84,0,1.47-.28,1.96-.77.49-.49.77-1.19.77-2.03v-1.82c0-.7.28-1.33.77-1.82s1.12-.7,1.82-.77h5.46ZM190.7,48.25v15.26c0,.7-.21,1.26-.56,1.61-.42.35-.98.56-1.61.56h-7.7c-.63,0-1.26-.21-1.68-.56-.49-.35-.7-.91-.7-1.61v-15.26h-21.63c-.98,0-1.68-.35-2.17-.91-.56-.56-.84-1.19-.84-1.96V11.64c0-.7.28-1.26.84-1.82.49-.56,1.19-.84,2.17-.84h6.37c.84,0,1.54.28,2.1.84.56.56.84,1.12.84,1.82v27.72h46.69c1.12,0,1.89.14,2.31.56.35.42.56,1.33.56,2.59v2.8c0,.98-.21,1.68-.56,2.17-.42.49-1.19.77-2.31.77h-22.12ZM211.64,4.99c.35.42.56.91.56,1.68v29.05c0,.7-.21,1.26-.56,1.61-.35.35-.84.49-1.61.49h-39.41c-.77,0-1.26-.14-1.61-.49-.35-.35-.49-.91-.49-1.61V6.67c0-.77.14-1.26.49-1.68.35-.35.84-.49,1.61-.49h39.41c.77,0,1.26.14,1.61.49ZM199.87,11.15h-19.11v2.17h19.11v-2.17ZM199.87,19.9h-19.11v2.17h19.11v-2.17ZM199.87,28.58h-19.11v2.31h19.11v-2.31ZM203.72,50.49c.49.49.77,1.12.77,1.82v1.82c0,.84.28,1.54.77,2.03.49.49,1.19.77,1.96.77h5.39c.84,0,1.54.28,2.03.77s.7,1.05.7,1.75v3.85c0,.7-.21,1.26-.7,1.75s-1.19.77-2.03.77h-10.22c-3.01-.07-5.18-.84-6.51-2.1-1.33-1.26-1.96-3.15-1.96-5.6v-5.81c0-.7.28-1.33.77-1.82.42-.49,1.05-.7,1.75-.77h5.46c.7.07,1.33.28,1.82.77Z"/></g></svg>