<?xml version="1.0" encoding="UTF-8"?><svg id="_レイヤー_2" xmlns="http://www.w3.org/2000/svg" viewBox="0 0 217.25 70.96"><defs><style>.cls-1,.cls-2,.cls-3{stroke-width:0px;}.cls-2{fill:#198caa;}.cls-3{fill:#fff;}</style></defs><g id="_レイヤー_4"><path class="cls-1" d="M5.01,65.55c-.42-.35-.56-.91-.49-1.75v-7c-.07-1.12.07-1.96.49-2.45.35-.56.98-1.33,1.82-2.24l10.64-9.52c.91-.28,1.61-.21,1.96.14.42.42.63,1.12.63,2.24v7.14c0,.84-.21,1.47-.63,1.82-.35.35-1.12,1.19-2.24,2.45l-9.8,9.1c-1.19.42-2.03.42-2.38.07ZM7.67,34.67c-1.12-.7-1.89-1.26-2.31-1.61-.42-.28-.56-.91-.56-1.75v-7.21c0-1.12.14-1.89.56-2.24.42-.35,1.19-.56,2.31-.56l9.24,5.18c1.19.63,2.03,1.19,2.38,1.54.42.42.56,1.19.49,2.31v6.58c.07.84-.21,1.54-.77,2.1s-1.26.77-2.1.7l-9.24-5.04ZM7.88,18.64c-1.05-.7-1.82-1.26-2.24-1.61-.42-.42-.63-.98-.63-1.82v-7.14c0-1.12.21-1.89.63-2.24s1.19-.56,2.24-.56l9.31,5.18c1.19.63,1.96,1.19,2.38,1.54.35.35.56,1.12.49,2.24v6.65c.07.84-.21,1.54-.77,2.1s-1.26.77-2.1.7l-9.31-5.04ZM22.02,65.55c-.42-.49-.63-1.26-.63-2.31v-4.62c0-1.33.21-2.24.63-2.66.35-.42,1.12-.63,2.24-.63h3.36l-4.9-7.7c-.49-.84-.84-1.82-.84-3.01v-8.26c0-.56.14-.98.56-1.26.35-.28.77-.35,1.26-.35.42.07.98.63,1.75,1.68l.91,1.05,4.9-7.07c.56-.84.98-1.33,1.33-1.47.35-.14.84-.14,1.47-.14h4.2c.7.07,1.19.35,1.47.91.28.49.21,1.19-.14,2.1l-8.47,12.81,1.05,1.89,6.65-10.08c.77-1.05,1.4-1.61,1.82-1.68.42,0,.84.07,1.26.35.42.21.63.63.63,1.19v9.73c-.14,1.19-.42,2.17-.98,3.01l-4.2,6.3h2.59c1.19,0,2.03.21,2.45.63.35.42.56,1.33.56,2.66v4.62c0,1.05-.21,1.82-.56,2.31-.42.56-1.26.84-2.45.84h-15.68c-1.12,0-1.89-.28-2.24-.84ZM25.24,26.97c-1.19,0-2.03-.28-2.45-.77-.42-.49-.56-1.26-.56-2.24v-4.76c0-1.4.14-2.31.56-2.73.42-.42,1.26-.63,2.45-.63h4.06l-2.73-7.77c-.42-1.12-.49-1.96-.28-2.38.21-.42.84-.63,1.89-.63h6.72c.91,0,1.54.21,1.96.63.35.42.84,1.26,1.4,2.38l2.66,7.77h6.58l2.66-7.77c.56-1.12,1.05-1.96,1.4-2.38.42-.42,1.05-.63,1.96-.63h6.72c1.05,0,1.68.21,1.89.63.21.42.14,1.26-.28,2.38l-2.73,7.77h4.2c1.12,0,1.89.21,2.31.63s.56,1.33.56,2.73v4.76c0,.98-.14,1.75-.56,2.24s-1.19.77-2.31.77H25.24ZM45.54,65.55c-.42-.49-.63-1.26-.63-2.31v-4.62c0-1.33.21-2.24.63-2.66.35-.42,1.12-.63,2.24-.63h3.36l-4.9-7.7c-.56-.84-.84-1.82-.84-3.01v-8.26c0-.56.14-.98.56-1.26.35-.28.77-.35,1.19-.35.49.07,1.05.63,1.82,1.68l.91,1.05,4.9-7.07c.56-.84.98-1.33,1.33-1.47.35-.14.84-.14,1.47-.14h4.2c.7.07,1.19.35,1.47.91.28.49.21,1.19-.14,2.1l-8.47,12.81,1.05,1.89,6.65-10.08c.77-1.05,1.33-1.61,1.82-1.68.42,0,.84.07,1.26.35.42.21.63.63.63,1.19v9.73c-.14,1.19-.42,2.17-.98,3.01l-4.2,6.3h2.59c1.19,0,2.03.21,2.45.63.35.42.56,1.33.56,2.66v4.62c0,1.05-.21,1.82-.56,2.31-.42.56-1.26.84-2.45.84h-15.68c-1.12,0-1.89-.28-2.24-.84Z"/><path class="cls-1" d="M107.51,26.41c-.49.63-1.61.91-3.29.91h-8.05c-1.96,0-2.94-.91-2.94-2.8v-1.89c0-1.96.98-2.94,2.94-2.94h1.61v-4.55h-3.64c-.21,4.27-1.4,7.35-3.57,9.38-2.17,1.96-5.18,3.01-9.1,3.01h-1.4c-.77-.07-1.33-.28-1.89-.77-.49-.42-.7-1.05-.7-1.82v-2.73c0-.77.21-1.33.7-1.82.56-.49,1.12-.77,1.89-.77h.49c.91,0,1.75-.35,2.45-.91.7-.56,1.12-1.75,1.26-3.57h-3.78c-1.19,0-2.03-.21-2.45-.56-.42-.35-.63-.91-.63-1.75v-2.1c0-1.12.21-1.82.63-2.24.42-.35,1.26-.49,2.45-.49h3.99v-.56c0-.77.28-1.4.77-2.03s1.12-.91,1.75-.91h4.55c.7,0,1.33.28,1.82.91s.77,1.26.77,2.03v.56h11.13c1.26,0,2.1.14,2.52.49.35.42.56,1.12.56,2.24v12.04c0,1.82-.28,3.08-.84,3.64ZM132.01,29.28c.35.35.56.91.56,1.68v25.76c0,.7-.21,1.26-.56,1.61-.28.35-.84.56-1.61.56h-1.26l2.1,4.69c.35,1.19.21,1.96-.28,2.31-.56.42-1.33.56-2.45.56h-6.65c-1.05,0-1.75-.21-2.03-.63-.35-.49-.7-1.26-1.19-2.38l-2.03-4.55h-16.24l-2.03,4.55c-.49,1.12-.84,1.89-1.19,2.38-.28.42-.98.63-2.03.63h-6.65c-1.12,0-1.89-.14-2.45-.56-.49-.35-.63-1.12-.28-2.31l2.1-4.69h-1.19c-.77,0-1.33-.21-1.61-.56-.35-.35-.56-.91-.56-1.61v-25.76c0-.77.21-1.33.56-1.68.28-.35.84-.56,1.61-.56h43.75c.77,0,1.33.21,1.61.56ZM120.25,36.7v-1.75h-23.45v1.75h23.45ZM120.25,44.47v-1.68h-23.45v1.68h23.45ZM120.25,52.38v-1.82h-23.45v1.82h23.45ZM114.58,27.32c-1.26,0-2.31-.28-3.01-.77-.7-.49-1.12-1.61-1.12-3.36v-13.23c0-1.54.35-2.59,1.05-3.22.77-.63,1.75-.98,3.01-.98h21c1.47,0,2.52.35,3.15.91.7.63.98,1.68.98,3.22v13.44c0,1.61-.28,2.66-.91,3.22-.63.49-1.68.77-3.15.77h-21ZM128.86,19.76v-6.58h-7.63v6.58h7.63Z"/><path class="cls-1" d="M169.7,50.29c.7.07,1.33.28,1.75.77.49.49.77,1.12.77,1.82v5.81c0,2.45-.63,4.34-1.96,5.6-1.33,1.26-3.5,2.03-6.51,2.1h-10.22c-.84,0-1.54-.28-2.03-.77s-.7-1.05-.7-1.75v-3.85c0-.7.21-1.26.7-1.75s1.19-.77,2.03-.77h5.39c.84,0,1.47-.28,1.96-.77.49-.49.77-1.19.77-2.03v-1.82c0-.7.28-1.33.77-1.82.49-.49,1.12-.7,1.82-.77h5.46ZM187.76,48.81v15.26c0,.7-.21,1.26-.56,1.61-.42.35-.98.56-1.61.56h-7.7c-.63,0-1.26-.21-1.68-.56-.49-.35-.7-.91-.7-1.61v-15.26h-21.63c-.98,0-1.68-.35-2.17-.91-.56-.56-.84-1.19-.84-1.96V12.2c0-.7.28-1.26.84-1.82.49-.56,1.19-.84,2.17-.84h6.37c.84,0,1.54.28,2.1.84s.84,1.12.84,1.82v27.72h46.69c1.12,0,1.89.14,2.31.56.35.42.56,1.33.56,2.59v2.8c0,.98-.21,1.68-.56,2.17-.42.49-1.19.77-2.31.77h-22.12ZM208.69,5.55c.35.42.56.91.56,1.68v29.05c0,.7-.21,1.26-.56,1.61-.35.35-.84.49-1.61.49h-39.41c-.77,0-1.26-.14-1.61-.49-.35-.35-.49-.91-.49-1.61V7.23c0-.77.14-1.26.49-1.68.35-.35.84-.49,1.61-.49h39.41c.77,0,1.26.14,1.61.49ZM196.93,11.71h-19.11v2.17h19.11v-2.17ZM196.93,20.46h-19.11v2.17h19.11v-2.17ZM196.93,29.14h-19.11v2.31h19.11v-2.31ZM200.78,51.05c.49.49.77,1.12.77,1.82v1.82c0,.84.28,1.54.77,2.03.49.49,1.19.77,1.96.77h5.39c.84,0,1.54.28,2.03.77.49.49.7,1.05.7,1.75v3.85c0,.7-.21,1.26-.7,1.75-.49.49-1.19.77-2.03.77h-10.22c-3.01-.07-5.18-.84-6.51-2.1-1.33-1.26-1.96-3.15-1.96-5.6v-5.81c0-.7.28-1.33.77-1.82.42-.49,1.05-.7,1.75-.77h5.46c.7.07,1.33.28,1.82.77Z"/><path class="cls-2" d="M63.46,70.89h-15.68c-1.65,0-2.91-.38-3.85-.89-.98.52-2.28.89-3.99.89h-15.68c-3.34,0-5.05-1.53-5.85-2.64-1.01-1.3-1.52-2.98-1.52-5.01v-.44l-6.44,5.98c-.45.42-.98.74-1.56.95-3.68,1.3-5.84.12-6.88-.82-1.03-.91-2.15-2.54-1.99-5.26v-6.72c-.11-2.16.32-3.87,1.33-5.2.5-.75,1.21-1.62,2.18-2.67.1-.11.2-.21.31-.3l7.67-6.86-5.98-3.26c-.08-.04-.16-.09-.23-.14-1.1-.69-2.02-1.33-2.68-1.87-1.11-.84-2.3-2.41-2.3-5.31v-7.21c0-.91,0-3.1,1.36-4.85-.77-1.13-1.15-2.48-1.15-4.04v-7.14c0-2.54.76-4.45,2.25-5.7,1.28-1.06,3-1.6,5.12-1.6.77,0,1.52.2,2.19.57l9.31,5.18c1.07.56,1.9,1.12,2.5,1.56-.37-1.66-.24-3.15.39-4.41.71-1.41,2.31-3.11,5.91-3.11h6.72c2.12,0,3.85.66,5.14,1.95.1.1.19.19.27.3.37.44.97,1.26,1.97,3.25.09.18.17.37.23.56l1.62,4.73h.15l1.62-4.73c.07-.19.14-.38.23-.56,1-1.99,1.6-2.81,1.97-3.25.09-.1.18-.2.27-.3,1.29-1.29,3.02-1.95,5.14-1.95h6.72c3.6,0,5.2,1.69,5.91,3.11.82,1.64.79,3.65-.09,5.98l-.66,1.89c1.39.28,2.53.87,3.41,1.75,1.66,1.66,1.88,3.92,1.88,5.91v4.76c0,.8,0,3.25-1.64,5.17-.29.34-.66.7-1.13,1.03.01.37,0,.76-.06,1.15,1.69,1.03,2.69,2.86,2.69,4.98v9.73c0,.18,0,.35-.03.52-.24,2.01-.78,3.59-1.71,4.99l-.43.64c.25.18.49.38.71.6.1.1.19.2.28.31,1.08,1.29,1.6,3.11,1.6,5.54v4.62c0,1.97-.47,3.62-1.4,4.92-.02.03-.04.06-.07.09-.9,1.2-2.69,2.64-6.05,2.64ZM49.41,61.89h12.56v-2.06h-1.1c-1.66,0-3.18-.91-3.97-2.38-.78-1.46-.7-3.24.22-4.62l4.2-6.3c.04-.06.13-.24.21-.72l-2.09,3.17c-.87,1.31-2.35,2.08-3.93,2.02-.81-.03-1.58-.28-2.24-.7l1.66,2.61c.88,1.39.94,3.14.15,4.58-.79,1.44-2.3,2.33-3.94,2.33h-1.73v2.06ZM25.89,61.89h12.56v-2.06h-1.1c-1.66,0-3.18-.91-3.97-2.38-.78-1.46-.7-3.24.22-4.62l4.2-6.3c.04-.06.13-.24.21-.71l-2.09,3.17c-.87,1.31-2.39,2.08-3.93,2.02-.81-.03-1.58-.28-2.24-.7l1.66,2.61c.88,1.39.94,3.14.15,4.58-.79,1.44-2.3,2.33-3.94,2.33h-1.73v2.06ZM9.01,56.47s0,.03,0,.04c0,.09,0,.19,0,.28v1.03l4.95-4.6c.74-.83,1.25-1.39,1.59-1.76v-1.13l-5.57,4.98c-.51.56-.82.94-.99,1.16ZM16.55,50.47s0,0,0,0c0,0,0,0,0,0ZM49.9,41.97v2.64c0,.18.01.41.08.51l.25.39c-.24-1.15-.01-2.37.65-3.39l.22-.33c-.32.09-.65.15-.98.16-.08,0-.15,0-.22,0ZM26.57,45.3l.14.22c-.24-1.15-.01-2.37.66-3.38l.22-.33c-.32.09-.65.15-.98.16-.08,0-.15,0-.22,0v2.64c0,.2.03.39.19.68ZM9.94,30.79l5.33,2.91v-2.98c-.14-.08-.3-.17-.48-.26-.03-.02-.06-.03-.09-.05l-5.41-3.03v3c.19.13.41.27.65.42ZM7.85,29.32s0,0,0,0c0,0,0,0,0,0ZM26.73,22.47h34.96v-2.13h-2.57c-1.46,0-2.83-.71-3.67-1.9-.84-1.19-1.06-2.72-.57-4.09l1.68-4.79h-2.11c-.04.08-.09.17-.14.26l-2.56,7.48c-.62,1.82-2.33,3.04-4.26,3.04h-6.58c-1.92,0-3.63-1.22-4.26-3.04l-2.56-7.48c-.05-.09-.09-.18-.14-.26h-2.11s1.68,4.79,1.68,4.79c.48,1.38.27,2.9-.57,4.09-.84,1.19-2.21,1.9-3.67,1.9h-2.57v2.13ZM10.2,14.78l5.36,2.9v-2.99c-.14-.08-.3-.17-.47-.26l-5.58-3.1v2.98c.2.14.43.3.7.48Z"/><path class="cls-2" d="M128.51,70.96h-6.65c-3.25,0-4.9-1.37-5.72-2.56-.59-.84-1.05-1.84-1.62-3.15l-.83-1.85h-10.4l-.84,1.88c-.56,1.28-1.01,2.27-1.61,3.12-.82,1.19-2.47,2.56-5.72,2.56h-6.65c-1.49,0-3.42-.17-5.15-1.46-.87-.65-3.17-2.86-1.9-7.18.06-.2.13-.39.21-.57l.14-.31s-.05-.05-.07-.08c-1.11-1.2-1.72-2.83-1.72-4.63v-24.69c-.11,0-.21,0-.32-.02-1.74-.16-3.19-.77-4.45-1.87-1.43-1.22-2.24-3.08-2.24-5.21v-2.73c0-1.81.57-3.37,1.68-4.64-.89-.93-1.75-2.43-1.75-4.74v-2.1c0-.86,0-3.47,1.95-5.42.1-.1.2-.19.3-.28,1.63-1.36,3.7-1.53,5.33-1.53h.62c.18-.29.37-.57.59-.85,1.31-1.68,3.24-2.65,5.3-2.65h4.55c2.14,0,4.05.94,5.37,2.65.22.28.41.56.59.85h7.76c.86,0,1.85.05,2.82.28.13-.13.26-.26.4-.39.05-.05.11-.09.16-.14,1.62-1.33,3.59-2,5.86-2h21c3.17,0,5.09,1.11,6.14,2.05,2.49,2.25,2.49,5.51,2.49,6.58v13.44c0,1.1,0,4.43-2.42,6.58-.07.07-.15.13-.23.19-1.16.9-2.64,1.45-4.42,1.64v24.98c0,1.8-.61,3.43-1.72,4.63-.04.04-.08.09-.12.13l.12.26c.08.18.15.37.21.57,1.27,4.32-1.02,6.53-1.9,7.18h0c-1.73,1.29-3.66,1.46-5.15,1.46ZM123.51,63.23s0,0,0,0c0,.01.01.02.02.03,0-.01-.01-.02-.02-.03ZM122.9,61.96h2.68l-.55-1.22c-.62-1.39-.5-3.01.33-4.29.63-.97,1.61-1.65,2.71-1.92v-21.3h-3.67c.22.53.34,1.12.34,1.73v1.75c0,1.17-.45,2.24-1.19,3.05.74.8,1.19,1.87,1.19,3.05v1.68c0,1.17-.45,2.24-1.19,3.04.74.8,1.19,1.87,1.19,3.04v1.82c0,2.36-1.81,4.29-4.12,4.48.03.06.06.13.09.19l2.03,4.55c.04.09.09.21.15.35ZM91.4,61.96h2.68c.05-.12.1-.23.14-.31l2.04-4.58c.03-.07.06-.13.09-.2-2.28-.22-4.06-2.14-4.06-4.48v-1.82c0-1.17.45-2.24,1.19-3.04-.74-.8-1.19-1.87-1.19-3.04v-1.68c0-1.17.45-2.24,1.19-3.05-.74-.8-1.19-1.87-1.19-3.05v-1.75c0-.61.12-1.2.34-1.73h-3.67v21.32c1.07.28,2.02.95,2.64,1.91.83,1.28.95,2.89.33,4.29l-.55,1.22ZM132.16,22.82h2.98v-12.56h-2.86c.67.79,1.08,1.81,1.08,2.92v6.58c0,1.18-.46,2.26-1.2,3.06ZM114.95,22.82h2.98c-.75-.8-1.2-1.88-1.2-3.06v-6.58c0-1.12.41-2.14,1.08-2.92h-2.86v12.56ZM101.01,22.82h2.84v-10.32h-2.43c.54.74.86,1.65.86,2.64v4.55c0,1.22-.48,2.32-1.27,3.13ZM87.11,11.65c.16.13.32.28.46.43.85.92,1.28,2.15,1.18,3.4-.24,3.15-1.2,5.36-2.94,6.74-.04.03-.08.07-.12.1.72-.29,1.34-.67,1.86-1.14,1.22-1.14,1.95-3.27,2.09-6.26.07-1.37.74-2.57,1.75-3.35-.82-.63-1.41-1.53-1.65-2.57h-.88c-.25,1.08-.88,2.02-1.76,2.65Z"/><path class="cls-2" d="M209.67,70.89h-10.22s-.07,0-.11,0c-3.51-.08-6.37-.93-8.52-2.51-.14.17-.29.34-.44.49-.09.09-.19.18-.29.27-1.24,1.04-2.84,1.61-4.5,1.61h-7.7c-1.62,0-3.22-.54-4.43-1.5-.37-.28-.7-.6-.99-.94-2.16,1.63-5.05,2.5-8.61,2.58-.04,0-.07,0-.11,0h-10.22c-2.01,0-3.87-.74-5.21-2.09-1.32-1.32-2.02-3.03-2.02-4.93v-3.85c0-1.91.7-3.61,2.02-4.93,1.03-1.03,2.34-1.7,3.8-1.96-1.44-.33-2.71-1.06-3.7-2.14-1.35-1.4-2.06-3.13-2.06-5.04V12.2c0-1.84.69-3.49,2.06-4.9.97-1.06,2.68-2.26,5.45-2.26h6.37c.37,0,.73.02,1.08.07.25-.91.67-1.72,1.27-2.44.09-.1.18-.2.27-.3,1.2-1.2,2.81-1.81,4.8-1.81h39.41c1.99,0,3.6.61,4.8,1.82.09.09.18.19.26.29,1.07,1.28,1.61,2.81,1.61,4.56v28.93c.56.27,1.12.64,1.62,1.14.1.1.19.19.27.3,1.08,1.29,1.61,3.08,1.61,5.47v2.8c0,1.88-.47,3.49-1.4,4.79-.08.11-.16.21-.24.31-.75.87-2.04,1.88-4.17,2.22,1.32.3,2.5.95,3.44,1.89,1.32,1.32,2.02,3.03,2.02,4.93v3.85c0,1.9-.7,3.61-2.01,4.93-1.35,1.35-3.2,2.09-5.22,2.09ZM199.51,61.89h3.48c-1.47-.25-2.8-.93-3.85-1.98-1.32-1.32-2.06-3.13-2.08-5.12h-1.57v3.9c0,1.15.2,2,.56,2.34.14.13.97.8,3.47.86ZM160.23,61.89h3.46c2.5-.07,3.33-.73,3.47-.87.35-.33.55-1.19.55-2.33v-3.9h-1.57c-.02,1.98-.76,3.8-2.09,5.13-1.05,1.05-2.36,1.72-3.82,1.97ZM180.01,61.75h3.25v-12.93c0-2.15,1.5-3.94,3.51-4.39h-10.27c2.01.45,3.51,2.25,3.51,4.39v12.93ZM155.37,44.31h6.83c-2.01-.45-3.51-2.25-3.51-4.39V14.04h-3.32v30.27ZM200.72,33.88h4.03V9.56h-3.87c.35.64.55,1.37.55,2.15v2.17c0,1.3-.55,2.47-1.43,3.29.88.82,1.43,1.99,1.43,3.29v2.17c0,1.28-.53,2.44-1.39,3.25.86.82,1.39,1.97,1.39,3.25v2.31c0,.9-.26,1.73-.71,2.43ZM170.07,33.88h3.96c-.45-.7-.71-1.53-.71-2.43v-2.31c0-1.28.53-2.44,1.39-3.25-.86-.82-1.39-1.97-1.39-3.25v-2.17c0-1.3.55-2.47,1.43-3.29-.88-.82-1.43-1.99-1.43-3.29v-2.17c0-.78.2-1.51.55-2.15h-3.8v24.32ZM207.13,9.56h0,0Z"/><path class="cls-3" d="M63.46,69.39h-15.68c-1.84,0-3.05-.53-3.85-1.18-.84.65-2.1,1.18-4,1.18h-15.68c-2.62,0-3.97-1.07-4.65-2.05-.81-1.03-1.22-2.41-1.22-4.1v-3.88l-8.96,8.32c-.3.28-.66.49-1.04.63-2.85,1-4.49.3-5.39-.53-1.1-.96-1.6-2.34-1.48-4.09v-6.8c-.1-1.83.24-3.23,1.05-4.29.45-.69,1.13-1.52,2.06-2.52.07-.07.13-.14.21-.2l9.25-8.28-7.85-4.28c-.05-.03-.1-.06-.16-.09-1.04-.65-1.94-1.28-2.55-1.77-1.15-.85-1.73-2.24-1.73-4.13v-7.21c0-1.48.19-3.33,1.63-4.54.09-.08.19-.15.29-.22,0,0,0,0,0,0-.07-.06-.14-.12-.2-.18-1-1-1.51-2.33-1.51-3.94v-7.14c0-2.1.56-3.59,1.71-4.55,1-.83,2.4-1.25,4.16-1.25.51,0,1.01.13,1.46.38l9.31,5.18c1.38.73,2.31,1.41,2.84,1.85.07.06.14.12.21.19.57.57,1.2,1.56,1.34,3.2.6-.15,1.28-.22,2.03-.24l-1.33-3.78c-.7-1.87-.75-3.48-.13-4.72.52-1.04,1.74-2.28,4.57-2.28h6.72c1.71,0,3.08.51,4.08,1.51.06.06.12.13.18.2.32.38.85,1.11,1.78,2.96.06.12.11.24.15.37l1.97,5.74h2.29l1.97-5.74c.04-.13.09-.25.15-.37.93-1.85,1.46-2.58,1.78-2.96.06-.07.12-.13.18-.2,1-1,2.37-1.51,4.08-1.51h6.72c2.27,0,3.81.77,4.57,2.28.62,1.25.57,2.85-.15,4.78l-1.31,3.72c1.95,0,3.39.5,4.4,1.51,1.26,1.26,1.44,3.08,1.44,4.85v4.76c0,1.16-.13,2.85-1.28,4.19-.35.41-.87.86-1.6,1.21.19.83.14,1.75-.14,2.75.27.11.53.24.78.4,1.32.74,2.11,2.14,2.11,3.78v9.73c0,.12,0,.23-.02.35-.21,1.77-.67,3.14-1.46,4.33l-1.35,2.03c.72.25,1.33.62,1.82,1.11.07.06.13.13.19.2.84,1.01,1.25,2.51,1.25,4.58v4.62c0,1.65-.38,3.01-1.12,4.05-.74.99-2.15,2.1-4.89,2.1ZM48.09,63.96h0,0ZM24.56,63.96h0,0ZM47.91,63.39h15.56s0-.1,0-.15v-4.62c0-.1,0-.2,0-.29h-2.59c-1.11,0-2.12-.61-2.64-1.58-.52-.98-.47-2.16.15-3.08l4.2-6.3c.15-.22.35-.62.48-1.54v-5.03l-4.86,7.36c-.58.88-1.58,1.38-2.62,1.35-1.05-.04-2-.62-2.51-1.54l-1.05-1.89c-.54-.98-.5-2.18.12-3.11l7.38-11.17h-1.94s-.08,0-.12,0c-.05.08-.12.17-.19.28l-4.93,7.11c-.53.76-1.38,1.24-2.3,1.29-.59.03-1.15-.11-1.64-.39v4.53c0,.75.18,1.11.34,1.35l4.94,7.75c.59.92.63,2.09.1,3.05-.53.96-1.54,1.56-2.63,1.56h-3.23c0,.09,0,.18,0,.29v4.62c0,.05,0,.1,0,.15ZM24.39,63.39h15.56s0-.1,0-.15v-4.62c0-.1,0-.2,0-.29h-2.6c-1.11,0-2.12-.61-2.65-1.58-.52-.98-.46-2.16.15-3.08l4.2-6.3c.15-.22.35-.62.48-1.54v-5.03l-4.86,7.36c-.58.87-1.56,1.38-2.62,1.35-1.05-.04-2-.62-2.51-1.54l-1.05-1.89c-.54-.98-.5-2.18.12-3.11l7.38-11.17h-1.94s-.08,0-.12,0c-.05.08-.12.17-.19.27l-4.93,7.12c-.53.76-1.38,1.24-2.3,1.29-.59.03-1.15-.11-1.64-.39v4.53c0,.51.12.96.41,1.45l4.87,7.65c.59.92.62,2.09.1,3.05-.53.96-1.54,1.56-2.63,1.56h-3.23c0,.09,0,.18,0,.29v4.62c0,.05,0,.1,0,.15ZM7.51,56c-.01.11-.02.3,0,.61,0,.06,0,.12,0,.19v4.47l7.53-6.99c.91-1.02,1.58-1.76,2.02-2.21v-5.08l-8.12,7.27c-.93,1.02-1.28,1.52-1.39,1.69-.01.02-.03.04-.04.06ZM7.29,56.3s0,0,0,0c0,0,0,0,0,0ZM42.69,52.72c.47.16.89.37,1.26.64.51-.38,1.13-.66,1.86-.83l-1.47-2.31c-.09.16-.19.31-.29.47l-1.36,2.03ZM9.18,32.08l7.59,4.14v-5.89c0-.06,0-.12,0-.19,0-.1,0-.19.01-.26-.27-.18-.7-.43-1.29-.75l-7.71-4.32v6.34c.31.22.76.53,1.39.93ZM43.43,32.51c.19.1.36.22.52.35.08-.07.16-.13.23-.18.82-.62,1.81-.93,2.97-.93.14,0,.28,0,.41.03.78.11,1.44.44,2.01.88l1.86-2.68h-8.55c.06.66-.02,1.38-.23,2.14.27.11.53.24.78.4ZM23.7,31.74c.16,0,.32.01.48.04.71.11,1.31.41,1.88.86l1.85-2.67h-2.67c-.97,0-1.78-.14-2.44-.35,0,.33,0,.6-.02.8v1.38c.41-.06.74-.06.92-.06ZM34.26,31.38h0s0,0,0,0ZM25.23,23.97h37.96v-4.77c0-.13,0-.25,0-.36h-4.07c-.97,0-1.89-.47-2.45-1.27-.56-.79-.71-1.81-.38-2.73l2.38-6.79h-5.1c-.15.25-.36.63-.64,1.18l-2.59,7.58c-.42,1.21-1.56,2.03-2.84,2.03h-6.58c-1.28,0-2.42-.81-2.84-2.03l-2.59-7.58c-.28-.55-.49-.92-.64-1.18h-5.1l2.38,6.79c.32.92.18,1.94-.38,2.73s-1.48,1.27-2.45,1.27h-4.07c0,.11,0,.23,0,.36v4.76h0ZM9.43,16.07l7.63,4.13v-5.97c0-.06,0-.12,0-.19,0-.07,0-.12,0-.18-.31-.21-.73-.47-1.29-.76l-7.78-4.33v6.3c.3.22.76.55,1.42.99Z"/><path class="cls-3" d="M128.51,69.46h-6.65c-2.11,0-3.62-.65-4.49-1.92-.52-.73-.92-1.62-1.47-2.89l-1.23-2.75h-12.35l-1.24,2.77c-.55,1.27-.96,2.17-1.49,2.9-.82,1.22-2.34,1.89-4.47,1.89h-6.65c-1.26,0-2.88-.13-4.25-1.16-.71-.5-2.36-2.13-1.36-5.56.04-.13.08-.26.14-.38l.59-1.32c-.29-.2-.55-.43-.78-.69-.86-.92-1.33-2.2-1.33-3.62v-25.76c0-.15,0-.29.01-.43h-1.42c-.09,0-.18,0-.27-.01-1.43-.13-2.57-.61-3.59-1.5-.77-.66-1.72-1.93-1.72-4.08v-2.73c0-1.57.53-2.9,1.58-3.95.05-.05.09-.09.14-.13.28-.25.57-.46.86-.65-.35-.17-.66-.37-.94-.6-.78-.66-1.71-1.89-1.71-4.06v-2.1c0-.71,0-2.85,1.51-4.36.06-.06.13-.13.2-.18,1.26-1.05,3-1.18,4.37-1.18h1.52c.22-.49.51-.96.88-1.43,1.02-1.31,2.52-2.07,4.12-2.07h4.55c1.66,0,3.15.73,4.19,2.07.36.47.65.94.88,1.43h8.66c1.09,0,2.29.08,3.34.52.25-.37.54-.71.88-1.01.04-.03.07-.06.11-.09,1.34-1.1,3-1.66,4.91-1.66h21c2.7,0,4.29.91,5.14,1.67,1.78,1.61,1.99,3.89,1.99,5.46v13.44c0,1.61-.2,3.93-1.92,5.46-.05.04-.1.09-.15.13-1.2.93-2.88,1.4-4.99,1.4h-.04c.02.2.03.42.03.64v25.76c0,1.42-.47,2.7-1.33,3.62-.24.28-.52.52-.83.73l.58,1.29c.05.12.1.25.14.38,1.01,3.42-.65,5.06-1.42,5.6-1.32.99-2.93,1.12-4.19,1.12ZM94.68,64.12s-.02.03-.03.04c0-.01.02-.03.03-.04ZM121.94,63.46h5.96l-1.49-3.33c-.42-.93-.33-2,.22-2.86s1.5-1.37,2.52-1.37h.43v-24.17s-42.09,0-42.09,0v24.17s.35,0,.35,0c1.02,0,1.96.52,2.52,1.37s.64,1.93.22,2.86l-1.49,3.33h5.96c.2-.41.4-.88.55-1.21l2.04-4.57c.48-1.08,1.56-1.78,2.74-1.78h16.24c1.18,0,2.26.7,2.74,1.78l2.03,4.55c.16.35.37.84.56,1.23ZM105.14,24.57s0,0,0,0c0,0,0,0,0,0ZM80.48,24.53h.99c3.06,0,5.45-.75,7.09-2.24,1.56-1.46,2.42-3.86,2.59-7.3.08-1.6,1.4-2.85,3-2.85h3.64c1.66,0,3,1.34,3,3v4.55c0,1.66-1.34,3-3,3h-1.55v1.63h7.99c.48,0,.81-.03,1.02-.06.05-.28.11-.75.11-1.49v-11.77s-.05,0-.08,0h-11.13c-1.66,0-3-1.34-3-3v-.5h-3.67v.5c0,1.66-1.33,3-2.99,3h-3.99s-.05,0-.08,0v1.14s.05,0,.08,0h3.78c.84,0,1.63.35,2.2.96.57.61.85,1.44.79,2.27-.21,2.71-.99,4.57-2.38,5.69-1.28,1.02-2.77,1.56-4.32,1.56h-.08v1.91ZM80.13,24.48s.02.02.03.03c0,0-.02-.02-.03-.03ZM113.54,24.2c.21.06.56.13,1.04.13h21c.46,0,.79-.04,1.01-.08.03-.2.05-.49.05-.91v-13.44c0-.55-.05-.86-.08-1.02-.16-.04-.5-.11-1.05-.11h-21c-.49,0-.77.09-.95.19-.04.13-.11.43-.11,1.01v13.23c0,.5.05.82.09,1ZM120.25,55.38h-23.45c-1.66,0-3-1.34-3-3v-1.82c0-1.66,1.34-3,3-3h23.45c1.66,0,3,1.34,3,3v1.82c0,1.66-1.34,3-3,3ZM120.25,47.47h-23.45c-1.66,0-3-1.34-3-3v-1.68c0-1.66,1.34-3,3-3h23.45c1.66,0,3,1.34,3,3v1.68c0,1.66-1.34,3-3,3ZM120.25,39.7h-23.45c-1.66,0-3-1.34-3-3v-1.75c0-1.66,1.34-3,3-3h23.45c1.66,0,3,1.34,3,3v1.75c0,1.66-1.34,3-3,3ZM128.86,22.76h-7.63c-1.66,0-3-1.34-3-3v-6.58c0-1.66,1.34-3,3-3h7.63c1.66,0,3,1.34,3,3v6.58c0,1.66-1.34,3-3,3ZM124.23,16.76h1.63v-.58h-1.63v.58Z"/><path class="cls-3" d="M209.67,69.39h-10.22c-3.76-.09-6.62-1.07-8.57-2.92-.15-.15-.3-.29-.44-.45-.24.69-.62,1.29-1.12,1.79-.06.06-.13.12-.2.18-.97.81-2.23,1.26-3.54,1.26h-7.7c-1.29,0-2.57-.43-3.52-1.19-.72-.54-1.24-1.26-1.55-2.11-.16.18-.33.35-.5.51-1.96,1.85-4.82,2.84-8.5,2.92h-10.29c-1.61,0-3.09-.58-4.15-1.65-1.05-1.05-1.58-2.35-1.58-3.87v-3.85c0-1.52.53-2.82,1.58-3.87,1.06-1.06,2.54-1.65,4.15-1.65h5.12v-1.62c0-.36.04-.71.11-1.06h-4.87c-1.75,0-3.26-.64-4.36-1.86-1.08-1.11-1.65-2.5-1.65-4.01V12.2c0-1.45.56-2.75,1.65-3.88.76-.83,2.12-1.79,4.36-1.79h6.37c.83,0,1.61.15,2.32.45.02-.92.21-2.19,1.18-3.36.06-.07.12-.14.18-.2,1.37-1.37,3.15-1.37,3.74-1.37h39.41c.59,0,2.37,0,3.74,1.38.06.06.12.13.18.19.85,1.01,1.26,2.19,1.26,3.6v29.05c0,.31-.02.6-.06.89.76.2,1.5.56,2.12,1.19.06.06.12.13.18.2.85,1.01,1.26,2.49,1.26,4.51v2.8c0,1.56-.38,2.88-1.12,3.92-.05.07-.11.14-.16.21-.71.83-2.08,1.82-4.59,1.82h-5.43c.07.35.1.7.1,1.06v1.62h5.12c1.61,0,3.09.59,4.15,1.65,1.05,1.05,1.58,2.35,1.58,3.87v3.85c0,1.52-.53,2.82-1.58,3.87-1.06,1.06-2.54,1.65-4.15,1.65ZM193.98,53.29v5.4c0,1.63.34,2.78,1.02,3.43.82.77,2.42,1.23,4.52,1.28h9.88v-2.89h-5.12c-1.57,0-3.02-.59-4.08-1.66-1.06-1.06-1.65-2.53-1.65-4.15v-1.41h-4.57ZM153.8,63.38h9.95c2.02-.04,3.63-.5,4.45-1.27.68-.64,1.02-1.8,1.02-3.42v-5.4h-4.57v1.41c0,1.62-.59,3.09-1.65,4.15-1.08,1.08-2.49,1.65-4.08,1.65h-5.12v2.88ZM178.51,63.25h6.25v-14.43c0-1.66,1.34-3,3-3h21.99v-2.74c0-.05,0-.1,0-.15h-46.56c-1.66,0-3-1.34-3-3V12.55h-6.31s0,0-.01,0v33.27h21.64c1.66,0,3,1.34,3,3v14.43ZM168.57,35.38h37.68V8.06s-37.68,0-37.68,0v27.32ZM207.27,8.07h0,0ZM196.93,34.45h-19.11c-1.66,0-3-1.34-3-3v-2.31c0-1.66,1.34-3,3-3h19.11c1.66,0,3,1.34,3,3v2.31c0,1.66-1.34,3-3,3ZM196.93,25.63h-19.11c-1.66,0-3-1.34-3-3v-2.17c0-1.66,1.34-3,3-3h19.11c1.66,0,3,1.34,3,3v2.17c0,1.66-1.34,3-3,3ZM196.93,16.88h-19.11c-1.66,0-3-1.34-3-3v-2.17c0-1.66,1.34-3,3-3h19.11c1.66,0,3,1.34,3,3v2.17c0,1.66-1.34,3-3,3Z"/><path class="cls-2" d="M5.01,65.55c-.42-.35-.56-.91-.49-1.75v-7c-.07-1.12.07-1.96.49-2.45.35-.56.98-1.33,1.82-2.24l10.64-9.52c.91-.28,1.61-.21,1.96.14.42.42.63,1.12.63,2.24v7.14c0,.84-.21,1.47-.63,1.82-.35.35-1.12,1.19-2.24,2.45l-9.8,9.1c-1.19.42-2.03.42-2.38.07ZM7.67,34.67c-1.12-.7-1.89-1.26-2.31-1.61-.42-.28-.56-.91-.56-1.75v-7.21c0-1.12.14-1.89.56-2.24.42-.35,1.19-.56,2.31-.56l9.24,5.18c1.19.63,2.03,1.19,2.38,1.54.42.42.56,1.19.49,2.31v6.58c.07.84-.21,1.54-.77,2.1s-1.26.77-2.1.7l-9.24-5.04ZM7.88,18.64c-1.05-.7-1.82-1.26-2.24-1.61-.42-.42-.63-.98-.63-1.82v-7.14c0-1.12.21-1.89.63-2.24s1.19-.56,2.24-.56l9.31,5.18c1.19.63,1.96,1.19,2.38,1.54.35.35.56,1.12.49,2.24v6.65c.07.84-.21,1.54-.77,2.1s-1.26.77-2.1.7l-9.31-5.04ZM22.02,65.55c-.42-.49-.63-1.26-.63-2.31v-4.62c0-1.33.21-2.24.63-2.66.35-.42,1.12-.63,2.24-.63h3.36l-4.9-7.7c-.49-.84-.84-1.82-.84-3.01v-8.26c0-.56.14-.98.56-1.26.35-.28.77-.35,1.26-.35.42.07.98.63,1.75,1.68l.91,1.05,4.9-7.07c.56-.84.98-1.33,1.33-1.47.35-.14.84-.14,1.47-.14h4.2c.7.07,1.19.35,1.47.91.28.49.21,1.19-.14,2.1l-8.47,12.81,1.05,1.89,6.65-10.08c.77-1.05,1.4-1.61,1.82-1.68.42,0,.84.07,1.26.35.42.21.63.63.63,1.19v9.73c-.14,1.19-.42,2.17-.98,3.01l-4.2,6.3h2.59c1.19,0,2.03.21,2.45.63.35.42.56,1.33.56,2.66v4.62c0,1.05-.21,1.82-.56,2.31-.42.56-1.26.84-2.45.84h-15.68c-1.12,0-1.89-.28-2.24-.84ZM25.24,26.97c-1.19,0-2.03-.28-2.45-.77-.42-.49-.56-1.26-.56-2.24v-4.76c0-1.4.14-2.31.56-2.73.42-.42,1.26-.63,2.45-.63h4.06l-2.73-7.77c-.42-1.12-.49-1.96-.28-2.38.21-.42.84-.63,1.89-.63h6.72c.91,0,1.54.21,1.96.63.35.42.84,1.26,1.4,2.38l2.66,7.77h6.58l2.66-7.77c.56-1.12,1.05-1.96,1.4-2.38.42-.42,1.05-.63,1.96-.63h6.72c1.05,0,1.68.21,1.89.63.21.42.14,1.26-.28,2.38l-2.73,7.77h4.2c1.12,0,1.89.21,2.31.63s.56,1.33.56,2.73v4.76c0,.98-.14,1.75-.56,2.24s-1.19.77-2.31.77H25.24ZM45.54,65.55c-.42-.49-.63-1.26-.63-2.31v-4.62c0-1.33.21-2.24.63-2.66.35-.42,1.12-.63,2.24-.63h3.36l-4.9-7.7c-.56-.84-.84-1.82-.84-3.01v-8.26c0-.56.14-.98.56-1.26.35-.28.77-.35,1.19-.35.49.07,1.05.63,1.82,1.68l.91,1.05,4.9-7.07c.56-.84.98-1.33,1.33-1.47.35-.14.84-.14,1.47-.14h4.2c.7.07,1.19.35,1.47.91.28.49.21,1.19-.14,2.1l-8.47,12.81,1.05,1.89,6.65-10.08c.77-1.05,1.33-1.61,1.82-1.68.42,0,.84.07,1.26.35.42.21.63.63.63,1.19v9.73c-.14,1.19-.42,2.17-.98,3.01l-4.2,6.3h2.59c1.19,0,2.03.21,2.45.63.35.42.56,1.33.56,2.66v4.62c0,1.05-.21,1.82-.56,2.31-.42.56-1.26.84-2.45.84h-15.68c-1.12,0-1.89-.28-2.24-.84Z"/><path class="cls-2" d="M107.51,26.41c-.49.63-1.61.91-3.29.91h-8.05c-1.96,0-2.94-.91-2.94-2.8v-1.89c0-1.96.98-2.94,2.94-2.94h1.61v-4.55h-3.64c-.21,4.27-1.4,7.35-3.57,9.38-2.17,1.96-5.18,3.01-9.1,3.01h-1.4c-.77-.07-1.33-.28-1.89-.77-.49-.42-.7-1.05-.7-1.82v-2.73c0-.77.21-1.33.7-1.82.56-.49,1.12-.77,1.89-.77h.49c.91,0,1.75-.35,2.45-.91.7-.56,1.12-1.75,1.26-3.57h-3.78c-1.19,0-2.03-.21-2.45-.56-.42-.35-.63-.91-.63-1.75v-2.1c0-1.12.21-1.82.63-2.24.42-.35,1.26-.49,2.45-.49h3.99v-.56c0-.77.28-1.4.77-2.03s1.12-.91,1.75-.91h4.55c.7,0,1.33.28,1.82.91s.77,1.26.77,2.03v.56h11.13c1.26,0,2.1.14,2.52.49.35.42.56,1.12.56,2.24v12.04c0,1.82-.28,3.08-.84,3.64ZM132.01,29.28c.35.35.56.91.56,1.68v25.76c0,.7-.21,1.26-.56,1.61-.28.35-.84.56-1.61.56h-1.26l2.1,4.69c.35,1.19.21,1.96-.28,2.31-.56.42-1.33.56-2.45.56h-6.65c-1.05,0-1.75-.21-2.03-.63-.35-.49-.7-1.26-1.19-2.38l-2.03-4.55h-16.24l-2.03,4.55c-.49,1.12-.84,1.89-1.19,2.38-.28.42-.98.63-2.03.63h-6.65c-1.12,0-1.89-.14-2.45-.56-.49-.35-.63-1.12-.28-2.31l2.1-4.69h-1.19c-.77,0-1.33-.21-1.61-.56-.35-.35-.56-.91-.56-1.61v-25.76c0-.77.21-1.33.56-1.68.28-.35.84-.56,1.61-.56h43.75c.77,0,1.33.21,1.61.56ZM120.25,36.7v-1.75h-23.45v1.75h23.45ZM120.25,44.47v-1.68h-23.45v1.68h23.45ZM120.25,52.38v-1.82h-23.45v1.82h23.45ZM114.58,27.32c-1.26,0-2.31-.28-3.01-.77-.7-.49-1.12-1.61-1.12-3.36v-13.23c0-1.54.35-2.59,1.05-3.22.77-.63,1.75-.98,3.01-.98h21c1.47,0,2.52.35,3.15.91.7.63.98,1.68.98,3.22v13.44c0,1.61-.28,2.66-.91,3.22-.63.49-1.68.77-3.15.77h-21ZM128.86,19.76v-6.58h-7.63v6.58h7.63Z"/><path class="cls-2" d="M169.7,50.29c.7.07,1.33.28,1.75.77.49.49.77,1.12.77,1.82v5.81c0,2.45-.63,4.34-1.96,5.6-1.33,1.26-3.5,2.03-6.51,2.1h-10.22c-.84,0-1.54-.28-2.03-.77s-.7-1.05-.7-1.75v-3.85c0-.7.21-1.26.7-1.75s1.19-.77,2.03-.77h5.39c.84,0,1.47-.28,1.96-.77.49-.49.77-1.19.77-2.03v-1.82c0-.7.28-1.33.77-1.82.49-.49,1.12-.7,1.82-.77h5.46ZM187.76,48.81v15.26c0,.7-.21,1.26-.56,1.61-.42.35-.98.56-1.61.56h-7.7c-.63,0-1.26-.21-1.68-.56-.49-.35-.7-.91-.7-1.61v-15.26h-21.63c-.98,0-1.68-.35-2.17-.91-.56-.56-.84-1.19-.84-1.96V12.2c0-.7.28-1.26.84-1.82.49-.56,1.19-.84,2.17-.84h6.37c.84,0,1.54.28,2.1.84s.84,1.12.84,1.82v27.72h46.69c1.12,0,1.89.14,2.31.56.35.42.56,1.33.56,2.59v2.8c0,.98-.21,1.68-.56,2.17-.42.49-1.19.77-2.31.77h-22.12ZM208.69,5.55c.35.42.56.91.56,1.68v29.05c0,.7-.21,1.26-.56,1.61-.35.35-.84.49-1.61.49h-39.41c-.77,0-1.26-.14-1.61-.49-.35-.35-.49-.91-.49-1.61V7.23c0-.77.14-1.26.49-1.68.35-.35.84-.49,1.61-.49h39.41c.77,0,1.26.14,1.61.49ZM196.93,11.71h-19.11v2.17h19.11v-2.17ZM196.93,20.46h-19.11v2.17h19.11v-2.17ZM196.93,29.14h-19.11v2.31h19.11v-2.31ZM200.78,51.05c.49.49.77,1.12.77,1.82v1.82c0,.84.28,1.54.77,2.03.49.49,1.19.77,1.96.77h5.39c.84,0,1.54.28,2.03.77.49.49.7,1.05.7,1.75v3.85c0,.7-.21,1.26-.7,1.75-.49.49-1.19.77-2.03.77h-10.22c-3.01-.07-5.18-.84-6.51-2.1-1.33-1.26-1.96-3.15-1.96-5.6v-5.81c0-.7.28-1.33.77-1.82.42-.49,1.05-.7,1.75-.77h5.46c.7.07,1.33.28,1.82.77Z"/></g></svg>