<?xml version="1.0" encoding="UTF-8"?><svg id="_レイヤー_2" xmlns="http://www.w3.org/2000/svg" viewBox="0 0 216.71 71.66"><defs><style>.cls-1,.cls-2,.cls-3{stroke-width:0px;}.cls-2{fill:#198caa;}.cls-3{fill:#fff;}</style></defs><g id="_レイヤー_4"><path class="cls-1" d="M17.87,67.09c-1.26,0-2.31-.35-3.01-.91-.7-.56-1.12-1.68-1.12-3.43v-1.54c-.21.14-.56.21-.84.28h-5.53c-.77,0-1.4-.28-1.89-.77s-.7-1.12-.7-1.89v-8.82c0-.77.21-1.4.7-1.89.49-.42,1.12-.7,1.89-.77h.7c3.92.07,6.79-.98,8.47-3.15,1.75-2.17,2.66-4.34,2.73-6.44H7.51c-1.19,0-2.03-.28-2.45-.77-.35-.49-.56-1.26-.56-2.31v-3.78c.07-1.4.28-2.38.63-2.8.42-.49,1.19-.7,2.38-.7h55.87c1.12,0,1.89.21,2.31.7.35.42.56,1.4.56,2.8v3.78c0,1.05-.21,1.82-.56,2.31-.42.49-1.19.77-2.31.77h-30.17c-.14,1.19-.42,2.31-.98,3.36h27.65c1.4,0,2.52.35,3.15.98.63.63.98,1.75.98,3.29v17.5c0,1.61-.28,2.66-.91,3.29-.7.56-1.75.91-3.15.91H17.87ZM16.12,8c1.05,0,1.75.21,2.17.77.42.49.63,1.19.63,2.03v5.18h9.45v-7.42c.07-.7.35-1.33.91-1.89.49-.56,1.19-.84,2.1-.84h8.12c.77,0,1.47.28,2.03.84.63.56.91,1.19.91,1.89v7.42h9.38v-5.18c0-.84.21-1.54.63-2.03.42-.56,1.12-.77,2.17-.77h8.47c1.12,0,1.89.21,2.31.77.42.49.63,1.19.63,2.03v11.06c0,1.33-.21,2.17-.63,2.59-.35.35-1.05.56-1.96.63H7.3c-.91-.07-1.61-.28-1.96-.63-.42-.42-.56-1.26-.56-2.59v-11.06c0-.84.14-1.54.56-2.03.42-.56,1.19-.77,2.31-.77h8.47ZM49.94,57.07v-5.95h-22.12v5.95h22.12Z"/><path class="cls-1" d="M85.18,19.76c-.49-.49-.77-1.05-.77-1.82v-6.79c0-.77.28-1.33.77-1.82.49-.42,1.12-.7,1.82-.7h27.65c1.33,0,2.24-.14,2.66-.42.49-.21.7-.63.7-1.19s.21-1.12.7-1.68c.56-.56,1.12-.84,1.82-.84h8.89c.7,0,1.33.28,1.82.84.49.56.77,1.26.77,1.96v5.67c0,2.73-.7,4.69-2.17,5.81-1.47,1.12-4.06,1.68-7.84,1.68h-6.51v3.71h20.23c1.19,0,1.96.21,2.38.63.42.42.63,1.26.63,2.59v5.46c0,1.05-.21,1.75-.63,2.24-.42.49-1.19.7-2.38.7h-20.23v3.71h20.37c1.12,0,1.96.21,2.38.63.42.42.63,1.26.63,2.59v5.46c0,.98-.21,1.75-.63,2.24-.42.49-1.26.7-2.38.7h-20.37v13.93c0,.7-.28,1.19-.7,1.61-.49.35-1.05.49-1.75.49h-17.29c-.91,0-1.61-.21-2.1-.77-.56-.56-.84-1.19-.91-1.96v-6.93c.07-.7.35-1.33.91-1.89.49-.49,1.19-.77,2.1-.77h5.25v-3.71h-20.51c-1.12,0-1.89-.21-2.31-.7-.42-.49-.56-1.26-.56-2.24v-5.46c0-1.33.14-2.17.56-2.59.42-.42,1.19-.63,2.31-.63h20.51v-3.71h-20.44c-1.05,0-1.82-.21-2.24-.7s-.63-1.19-.63-2.24v-5.46c0-1.33.21-2.17.63-2.59s1.19-.63,2.24-.63h20.44v-3.71h-14c-.7,0-1.33-.28-1.82-.7Z"/><path class="cls-1" d="M169.16,50.98c.7.07,1.33.28,1.75.77.49.49.77,1.12.77,1.82v5.81c0,2.45-.63,4.34-1.96,5.6-1.33,1.26-3.5,2.03-6.51,2.1h-10.22c-.84,0-1.54-.28-2.03-.77s-.7-1.05-.7-1.75v-3.85c0-.7.21-1.26.7-1.75.49-.49,1.19-.77,2.03-.77h5.39c.84,0,1.47-.28,1.96-.77.49-.49.77-1.19.77-2.03v-1.82c0-.7.28-1.33.77-1.82.49-.49,1.12-.7,1.82-.77h5.46ZM187.22,49.51v15.26c0,.7-.21,1.26-.56,1.61-.42.35-.98.56-1.61.56h-7.7c-.63,0-1.26-.21-1.68-.56-.49-.35-.7-.91-.7-1.61v-15.26h-21.63c-.98,0-1.68-.35-2.17-.91-.56-.56-.84-1.19-.84-1.96V12.9c0-.7.28-1.26.84-1.82.49-.56,1.19-.84,2.17-.84h6.37c.84,0,1.54.28,2.1.84.56.56.84,1.12.84,1.82v27.72h46.69c1.12,0,1.89.14,2.31.56.35.42.56,1.33.56,2.59v2.8c0,.98-.21,1.68-.56,2.17-.42.49-1.19.77-2.31.77h-22.12ZM208.15,6.25c.35.42.56.91.56,1.68v29.05c0,.7-.21,1.26-.56,1.61s-.84.49-1.61.49h-39.41c-.77,0-1.26-.14-1.61-.49-.35-.35-.49-.91-.49-1.61V7.93c0-.77.14-1.26.49-1.68.35-.35.84-.49,1.61-.49h39.41c.77,0,1.26.14,1.61.49ZM196.39,12.41h-19.11v2.17h19.11v-2.17ZM196.39,21.16h-19.11v2.17h19.11v-2.17ZM196.39,29.84h-19.11v2.31h19.11v-2.31ZM200.24,51.75c.49.49.77,1.12.77,1.82v1.82c0,.84.28,1.54.77,2.03.49.49,1.19.77,1.96.77h5.39c.84,0,1.54.28,2.03.77s.7,1.05.7,1.75v3.85c0,.7-.21,1.26-.7,1.75-.49.49-1.19.77-2.03.77h-10.22c-3.01-.07-5.18-.84-6.51-2.1-1.33-1.26-1.96-3.15-1.96-5.6v-5.81c0-.7.28-1.33.77-1.82.42-.49,1.05-.7,1.75-.77h5.46c.7.07,1.33.28,1.82.77Z"/><path class="cls-2" d="M59.95,71.59H17.87c-2.23,0-4.29-.67-5.82-1.9-.86-.69-1.84-1.84-2.38-3.7h-2.3c-1.92,0-3.73-.74-5.07-2.09-.92-.92-2.02-2.55-2.02-5.07v-8.82c0-2.53,1.1-4.15,2.02-5.07.08-.08.17-.16.25-.24,1.22-1.05,2.75-1.68,4.41-1.83.14-.01.27-.02.41-.02h.7c1.26.02,2.75-.08,3.84-.59h-4.4c-3.19,0-4.95-1.27-5.87-2.34-.09-.1-.17-.21-.25-.32-.93-1.3-1.4-2.96-1.4-4.92v-3.78c0-.08,0-.15,0-.23.1-1.98.43-3.43,1.06-4.56-.67-1.35-.78-2.87-.78-4.24v-11.06c0-1.99.51-3.58,1.55-4.85,1.28-1.62,3.24-2.45,5.82-2.45h8.47c2.49,0,4.4.83,5.68,2.45,1.06,1.29,1.62,2.96,1.62,4.85v.68h.45v-2.92c0-.15,0-.3.02-.45.17-1.71.9-3.27,2.11-4.52,1.34-1.46,3.24-2.26,5.38-2.26h8.12c1.93,0,3.74.73,5.12,2.07,1.5,1.38,2.32,3.21,2.32,5.16v2.92h.38v-.68c0-1.88.56-3.56,1.62-4.85,1.28-1.63,3.19-2.45,5.68-2.45h8.47c2.58,0,4.53.82,5.82,2.45,1.06,1.29,1.62,2.97,1.62,4.85v11.06c0,1.18-.1,2.75-.82,4.19.71,1.24,1.03,2.8,1.03,4.84v3.78c0,1.97-.47,3.62-1.4,4.92-.08.11-.16.22-.25.32-.34.4-.8.83-1.41,1.21.47,1.07.81,2.47.81,4.26v17.5c0,1.05,0,4.24-2.23,6.47-.12.12-.24.23-.37.33-1.55,1.24-3.61,1.9-5.96,1.9ZM18.24,62.59h41.26v-16.97h-27.28c-1.58,0-3.04-.83-3.86-2.18-.81-1.36-.86-3.04-.11-4.43.24-.45.39-1.01.48-1.77.27-2.27,2.19-3.98,4.47-3.98h28.54v-1.36H9v1.36h10.27c1.22,0,2.39.49,3.23,1.37.85.88,1.3,2.06,1.26,3.28-.1,3.11-1.36,6.18-3.72,9.12-1.61,2.08-4.82,4.59-10.76,4.81v5.15h2.9c1.19-.44,2.54-.36,3.69.26,1.46.78,2.37,2.31,2.37,3.96v1.38ZM11.26,57.45h0s0,0,0,0ZM9.28,20.58h52.26v-8.08h-5.21v3.48c0,2.49-2.01,4.5-4.5,4.5h-9.38c-2.49,0-4.5-2.01-4.5-4.5v-5.65h-5.07v5.65c0,2.49-2.01,4.5-4.5,4.5h-9.45c-2.49,0-4.5-2.01-4.5-4.5v-3.48h-5.14v8.08ZM16.27,12.5h0,0ZM49.94,61.58h-22.12c-2.49,0-4.5-2.01-4.5-4.5v-5.95c0-2.49,2.01-4.5,4.5-4.5h22.12c2.49,0,4.5,2.01,4.5,4.5v5.95c0,2.49-2.01,4.5-4.5,4.5Z"/><path class="cls-2" d="M113.05,71.66h-17.29c-2.75,0-4.43-1.16-5.37-2.18-1.24-1.28-1.95-2.84-2.12-4.64-.01-.14-.02-.27-.02-.41v-6.93c0-.15,0-.3.02-.45.05-.49.14-.96.28-1.42h-8.05c-2.51,0-4.43-.76-5.72-2.27-1.64-1.92-1.64-4.37-1.64-5.17v-5.46c0-1.72.18-3.64,1.39-5.21-.88-1.26-1.32-2.79-1.32-4.66v-5.46c0-1.64.2-4.03,1.95-5.77,1.21-1.21,2.88-1.86,4.98-1.94-.14-.56-.21-1.14-.21-1.74v-6.79c0-1.91.72-3.64,2.09-5,.08-.08.17-.16.25-.24,1.34-1.15,3.03-1.78,4.75-1.78h27.17c.29-.62.68-1.21,1.16-1.76.07-.07.13-.15.2-.22,1.43-1.43,3.11-2.16,5-2.16h8.89c2.02,0,3.87.84,5.21,2.38,1.21,1.38,1.88,3.13,1.88,4.92v5.67c0,2.67-.53,4.91-1.57,6.7h.78c.89,0,3.61,0,5.56,1.94,1.75,1.75,1.95,4.13,1.95,5.78v5.46c0,1.87-.43,3.4-1.31,4.66,1.29,1.67,1.46,3.74,1.46,5.21v5.46c0,2.1-.58,3.84-1.72,5.17-1.29,1.51-3.24,2.27-5.79,2.27h-15.87v9.43c0,1.27-.35,3.12-2.02,4.79-.17.17-.36.33-.56.48-1.23.88-2.7,1.33-4.37,1.33ZM97.24,62.66h13.75s0-11.53,0-11.53c0-2.49,2.01-4.5,4.5-4.5h18.88v-2.62h-18.88c-2.49,0-4.5-2.01-4.5-4.5v-3.71c0-2.49,2.01-4.5,4.5-4.5h18.74v-2.62h-18.74c-2.49,0-4.5-2.01-4.5-4.5v-3.71c0-2.49,2.01-4.5,4.5-4.5h6.51c4.07,0,5.1-.75,5.11-.76.08-.08.4-.7.4-2.23v-3.97h-5.33c-.47,1.37-1.42,2.5-2.73,3.17-1.18.67-2.65.96-4.81.96h-25.74v2.83h12.09c2.49,0,4.5,2.01,4.5,4.5v3.71c0,2.49-2.01,4.5-4.5,4.5h-18.81v2.62h18.81c2.49,0,4.5,2.01,4.5,4.5v3.71c0,2.49-2.01,4.5-4.5,4.5h-18.88v2.62h18.88c2.49,0,4.5,2.01,4.5,4.5v3.71c0,2.49-2.01,4.5-4.5,4.5h-3.76v3.32ZM82.22,26.81h0s0,0,0,0ZM115.54,4.07h0s0,0,0,0Z"/><path class="cls-2" d="M209.13,71.59h-10.22s-.07,0-.1,0c-3.51-.08-6.37-.92-8.52-2.51-.14.17-.29.34-.44.5-.09.1-.19.19-.3.27-1.24,1.04-2.84,1.61-4.49,1.61h-7.7c-1.62,0-3.22-.54-4.43-1.5-.37-.28-.71-.6-1-.94-2.17,1.63-5.05,2.5-8.61,2.58-.03,0-.07,0-.1,0h-10.22c-2.01,0-3.87-.74-5.21-2.09-1.32-1.32-2.02-3.03-2.02-4.93v-3.85c0-1.91.7-3.62,2.02-4.94,1.02-1.02,2.34-1.7,3.8-1.96-1.43-.33-2.71-1.06-3.69-2.14-1.35-1.4-2.06-3.14-2.06-5.04V12.9c0-1.84.69-3.49,2.06-4.9.97-1.06,2.68-2.26,5.45-2.26h6.37c.37,0,.73.02,1.08.07.25-.91.67-1.72,1.27-2.44.09-.1.18-.21.28-.3,1.2-1.2,2.81-1.81,4.79-1.81h39.41c1.98,0,3.6.61,4.8,1.81.09.09.18.19.27.29,1.07,1.28,1.61,2.81,1.61,4.56v28.93c.56.27,1.12.64,1.62,1.14.1.1.19.19.27.3,1.08,1.29,1.61,3.08,1.61,5.47v2.8c0,1.88-.47,3.49-1.4,4.79-.08.11-.16.21-.24.31-.75.87-2.04,1.88-4.17,2.22,1.31.3,2.5.95,3.44,1.89,1.32,1.32,2.02,3.03,2.02,4.93v3.85c0,1.9-.7,3.61-2.01,4.93-1.35,1.35-3.2,2.09-5.22,2.09ZM198.97,62.59h3.48c-1.47-.25-2.81-.93-3.85-1.98-1.32-1.32-2.06-3.14-2.08-5.12h-1.57v3.9c0,1.15.2,2,.55,2.33.14.13.97.8,3.47.87ZM159.69,62.59h3.46c1.94-.05,3.06-.48,3.47-.87.35-.33.55-1.18.55-2.33v-3.9h-1.57c-.02,1.98-.76,3.8-2.09,5.13-1.06,1.06-2.36,1.73-3.82,1.98ZM179.47,62.45h3.25v-12.93c0-2.15,1.5-3.94,3.51-4.39h-10.28c2.01.45,3.51,2.25,3.51,4.39v12.93ZM154.82,45.01h6.84c-2.01-.45-3.51-2.25-3.51-4.39V14.74h-3.32v30.27ZM200.18,34.58h4.03V10.26h-3.87c.35.64.55,1.37.55,2.15v2.17c0,1.3-.55,2.47-1.43,3.29.88.82,1.43,1.99,1.43,3.29v2.17c0,1.28-.54,2.44-1.39,3.26.86.82,1.39,1.98,1.39,3.26v2.31c0,.9-.26,1.73-.71,2.43ZM169.53,34.58h3.96c-.45-.7-.71-1.53-.71-2.43v-2.31c0-1.28.54-2.44,1.39-3.26-.86-.82-1.39-1.98-1.39-3.26v-2.17c0-1.3.55-2.47,1.43-3.29-.88-.82-1.43-1.99-1.43-3.29v-2.17c0-.78.2-1.51.55-2.15h-3.8v24.32ZM206.59,10.26h.01-.01Z"/><path class="cls-3" d="M59.95,70.09H17.87c-1.89,0-3.62-.56-4.89-1.57-1.14-.91-1.85-2.26-2.12-4.03h-3.5c-1.55,0-2.93-.57-4.01-1.65-.72-.72-1.58-2-1.58-4.01v-8.82c0-2.01.86-3.29,1.58-4.01.05-.05.11-.11.17-.16.99-.85,2.22-1.36,3.57-1.48.09,0,.18-.01.27-.01h.7c3.02.05,5.04-.62,6.1-1.99.44-.55.81-1.08,1.11-1.6h-7.77c-2.62,0-4.02-.99-4.73-1.82-.06-.07-.11-.14-.17-.21-.74-1.04-1.12-2.4-1.12-4.05v-3.78c0-.05,0-.1,0-.15.11-2.2.52-3.6,1.32-4.57,0,0,.01-.02.02-.02-.93-1.22-1.07-2.77-1.07-4.29v-11.06c0-1.64.4-2.92,1.22-3.91,1.48-1.89,3.86-1.89,4.65-1.89h8.47c.75,0,3.03,0,4.51,1.89.84,1.02,1.29,2.37,1.29,3.91v2.18h3.45v-4.42c0-.1,0-.2.01-.3.14-1.4.71-2.62,1.71-3.65.76-.83,2.1-1.79,4.29-1.79h8.12c1.54,0,2.99.59,4.09,1.66,1.21,1.11,1.85,2.51,1.85,4.07v4.42h3.38v-2.18c0-1.54.45-2.89,1.29-3.91,1.48-1.89,3.76-1.89,4.51-1.89h8.47c.79,0,3.16,0,4.65,1.89.85,1.02,1.29,2.37,1.29,3.91v11.06c0,1.22-.12,2.93-1.1,4.24.01.01.02.02.03.03.87,1.05,1.28,2.59,1.28,4.75v3.78c0,1.65-.38,3.01-1.12,4.05-.05.07-.11.14-.17.21-.47.54-1.22,1.16-2.39,1.51.95,1.21,1.43,2.87,1.43,4.93v17.5c0,1.56-.19,3.81-1.79,5.41-.08.08-.16.15-.25.22-1.28,1.03-3.02,1.57-5.03,1.57ZM16.87,63.91c.18.08.52.18,1,.18h42.07c.47,0,.78-.06.98-.12.04-.2.08-.54.08-1.08v-17.5c0-.62-.08-.98-.13-1.15-.17-.06-.5-.13-1-.13h-27.65c-1.05,0-2.03-.55-2.57-1.46-.54-.9-.57-2.03-.08-2.96.33-.62.54-1.35.65-2.3.18-1.51,1.46-2.65,2.98-2.65h30.04s0-.05,0-.08v-3.78c0-.19,0-.36-.01-.5H7.54c-.02.16-.03.35-.04.58v3.7s0,.05,0,.08h11.77c.81,0,1.59.33,2.16.91.57.58.87,1.37.84,2.19-.09,2.78-1.23,5.55-3.39,8.22-2.25,2.9-5.93,4.35-10.86,4.27h-.23v8.14s4.69,0,4.69,0c.85-.39,1.85-.37,2.68.08.97.52,1.58,1.54,1.58,2.64v1.54c0,.64.08,1,.13,1.16ZM12.09,58.7s0,0,0,0c0,0,0,0,0,0ZM63.13,29.6h0,0ZM7.78,22.08h55.25c0-.07,0-.14,0-.22v-10.86h-8.21v4.98c0,1.66-1.34,3-3,3h-9.38c-1.66,0-3-1.34-3-3v-7.15h-8.07v7.15c0,1.66-1.34,3-3,3h-9.45c-1.66,0-3-1.34-3-3v-4.98H7.78v10.86c0,.08,0,.15,0,.22ZM16.51,11.02h0,0ZM63,10.57s0,0,0,0c0,0,0,0,0,0ZM54.86,10.57s0,0,0,0c0,0,0,0,0,0ZM15.89,10.57s0,0,0,0c0,0,0,0,0,0ZM49.94,60.08h-22.12c-1.66,0-3-1.34-3-3v-5.95c0-1.66,1.34-3,3-3h22.12c1.66,0,3,1.34,3,3v5.95c0,1.66-1.34,3-3,3Z"/><path class="cls-3" d="M113.05,70.16h-17.29c-1.81,0-3.25-.58-4.29-1.72-1-1.03-1.58-2.29-1.71-3.74,0-.09-.01-.18-.01-.27v-6.93c0-.1,0-.2.01-.3.12-1.15.52-2.18,1.21-3.07h-10.48c-.76,0-3.09,0-4.59-1.75-1.15-1.34-1.28-3.04-1.28-4.19v-5.46c0-1.7.17-3.45,1.44-4.71.16-.16.33-.31.51-.44-.19-.16-.37-.33-.53-.52-.91-1.06-1.35-2.43-1.35-4.19v-5.46c0-1.38.16-3.36,1.51-4.71,1-1,2.47-1.51,4.36-1.51h1.89c-.69-.94-1.04-2.02-1.04-3.23v-6.79c0-1.52.55-2.85,1.65-3.94.05-.05.11-.11.17-.16,1.07-.92,2.41-1.42,3.77-1.42h27.65c.21,0,.4,0,.55-.01.23-.8.65-1.57,1.25-2.26.04-.05.09-.1.14-.14,1.14-1.14,2.47-1.72,3.94-1.72h8.89c1.58,0,3.03.66,4.08,1.86.97,1.11,1.51,2.51,1.51,3.94v5.67c0,3.75-1.13,6.5-3.35,8.2,0,0,0,0,0,0h4.07c2.01,0,3.48.49,4.5,1.51,1.35,1.35,1.51,3.34,1.51,4.71v5.46c0,1.76-.44,3.13-1.35,4.19-.17.2-.35.37-.54.53.19.14.36.28.52.44,1.35,1.35,1.51,3.33,1.51,4.71v5.46c0,1.74-.46,3.15-1.35,4.19-.99,1.16-2.56,1.75-4.66,1.75h-17.37v10.93c0,1.43-.53,2.68-1.58,3.73-.12.12-.24.22-.38.32-.99.71-2.13,1.05-3.5,1.05ZM95.74,64.16h16.75v-13.03c0-1.66,1.34-3,3-3h20.38v-5.4c0-.08,0-.15,0-.22h-20.38c-1.66,0-3-1.34-3-3v-3.71c0-1.66,1.34-3,3-3h20.24v-5.4c0-.08,0-.15,0-.22h-20.24c-1.66,0-3-1.34-3-3v-3.71c0-1.66,1.34-3,3-3h6.51c4.17,0,5.6-.75,6.02-1.07.82-.62.99-2.21.99-3.42v-5.47h-8.02c-.14,1.49-.96,2.71-2.25,3.35-.94.54-2.19.77-4.08.77h-27.24v5.83h13.59c1.66,0,3,1.34,3,3v3.71c0,1.66-1.34,3-3,3h-20.31c0,.07,0,.14,0,.22v5.4h20.31c1.66,0,3,1.34,3,3v3.71c0,1.66-1.34,3-3,3h-20.38c0,.07,0,.14,0,.22v5.4h20.38c1.66,0,3,1.34,3,3v3.71c0,1.66-1.34,3-3,3h-5.26v6.32ZM95.74,57.72v.03s.02-.02.03-.03h-.03Z"/><path class="cls-3" d="M209.13,70.09h-10.22c-3.76-.09-6.62-1.07-8.57-2.92-.15-.14-.3-.29-.44-.45-.24.69-.62,1.29-1.12,1.79-.06.06-.13.12-.2.18-.97.81-2.23,1.26-3.53,1.26h-7.7c-1.29,0-2.57-.43-3.51-1.19-.72-.54-1.25-1.26-1.55-2.11-.16.18-.33.35-.5.52-1.96,1.85-4.82,2.84-8.5,2.92h-10.29c-1.61,0-3.09-.58-4.15-1.65-1.05-1.05-1.58-2.35-1.58-3.87v-3.85c0-1.52.53-2.83,1.58-3.87,1.06-1.06,2.54-1.65,4.15-1.65h5.12v-1.62c0-.36.04-.71.11-1.06h-4.87c-1.75,0-3.26-.64-4.36-1.86-1.08-1.11-1.65-2.5-1.65-4.01V12.9c0-1.45.56-2.75,1.65-3.88.76-.83,2.12-1.78,4.36-1.78h6.37c.83,0,1.61.15,2.32.45.02-.92.21-2.19,1.18-3.36.06-.07.12-.14.18-.2,1.37-1.37,3.15-1.37,3.73-1.37h39.41c.58,0,2.37,0,3.73,1.37.06.06.12.13.18.2.85,1.01,1.26,2.19,1.26,3.6v29.05c0,.3-.02.6-.06.89.76.2,1.5.56,2.12,1.19.06.06.12.13.18.2.85,1.01,1.26,2.49,1.26,4.51v2.8c0,1.56-.38,2.88-1.12,3.92-.05.07-.11.14-.16.21-.71.83-2.08,1.82-4.59,1.82h-5.43c.07.35.1.7.1,1.06v1.62h5.12c1.61,0,3.09.59,4.15,1.65,1.05,1.05,1.58,2.35,1.58,3.87v3.85c0,1.52-.53,2.82-1.58,3.87-1.06,1.06-2.54,1.65-4.15,1.65ZM193.44,53.98v5.4c0,1.63.34,2.78,1.02,3.42.82.78,2.42,1.23,4.52,1.28h9.88v-2.89h-5.12c-1.57,0-3.02-.59-4.08-1.66-1.06-1.06-1.65-2.53-1.65-4.15v-1.41h-4.57ZM153.25,64.08h9.95c2.02-.04,3.63-.5,4.45-1.27.68-.64,1.02-1.79,1.02-3.42v-5.4h-4.57v1.41c0,1.62-.59,3.09-1.65,4.15-1.08,1.08-2.49,1.65-4.08,1.65h-5.12v2.88ZM177.97,63.95h6.25v-14.43c0-1.66,1.34-3,3-3h21.99v-2.74c0-.05,0-.1,0-.15h-46.56c-1.66,0-3-1.34-3-3V13.24h-6.31s0,0-.01,0v33.27h21.64c1.66,0,3,1.34,3,3v14.43ZM168.03,36.08h37.68V8.76s-37.68,0-37.68,0v27.32ZM206.73,8.77h0,0ZM196.39,35.15h-19.11c-1.66,0-3-1.34-3-3v-2.31c0-1.66,1.34-3,3-3h19.11c1.66,0,3,1.34,3,3v2.31c0,1.66-1.34,3-3,3ZM196.39,26.33h-19.11c-1.66,0-3-1.34-3-3v-2.17c0-1.66,1.34-3,3-3h19.11c1.66,0,3,1.34,3,3v2.17c0,1.66-1.34,3-3,3ZM196.39,17.58h-19.11c-1.66,0-3-1.34-3-3v-2.17c0-1.66,1.34-3,3-3h19.11c1.66,0,3,1.34,3,3v2.17c0,1.66-1.34,3-3,3Z"/><path class="cls-2" d="M17.87,67.09c-1.26,0-2.31-.35-3.01-.91-.7-.56-1.12-1.68-1.12-3.43v-1.54c-.21.14-.56.21-.84.28h-5.53c-.77,0-1.4-.28-1.89-.77s-.7-1.12-.7-1.89v-8.82c0-.77.21-1.4.7-1.89.49-.42,1.12-.7,1.89-.77h.7c3.92.07,6.79-.98,8.47-3.15,1.75-2.17,2.66-4.34,2.73-6.44H7.51c-1.19,0-2.03-.28-2.45-.77-.35-.49-.56-1.26-.56-2.31v-3.78c.07-1.4.28-2.38.63-2.8.42-.49,1.19-.7,2.38-.7h55.87c1.12,0,1.89.21,2.31.7.35.42.56,1.4.56,2.8v3.78c0,1.05-.21,1.82-.56,2.31-.42.49-1.19.77-2.31.77h-30.17c-.14,1.19-.42,2.31-.98,3.36h27.65c1.4,0,2.52.35,3.15.98.63.63.98,1.75.98,3.29v17.5c0,1.61-.28,2.66-.91,3.29-.7.56-1.75.91-3.15.91H17.87ZM16.12,8c1.05,0,1.75.21,2.17.77.42.49.63,1.19.63,2.03v5.18h9.45v-7.42c.07-.7.35-1.33.91-1.89.49-.56,1.19-.84,2.1-.84h8.12c.77,0,1.47.28,2.03.84.63.56.91,1.19.91,1.89v7.42h9.38v-5.18c0-.84.21-1.54.63-2.03.42-.56,1.12-.77,2.17-.77h8.47c1.12,0,1.89.21,2.31.77.42.49.63,1.19.63,2.03v11.06c0,1.33-.21,2.17-.63,2.59-.35.35-1.05.56-1.96.63H7.3c-.91-.07-1.61-.28-1.96-.63-.42-.42-.56-1.26-.56-2.59v-11.06c0-.84.14-1.54.56-2.03.42-.56,1.19-.77,2.31-.77h8.47ZM49.94,57.07v-5.95h-22.12v5.95h22.12Z"/><path class="cls-2" d="M85.18,19.76c-.49-.49-.77-1.05-.77-1.82v-6.79c0-.77.28-1.33.77-1.82.49-.42,1.12-.7,1.82-.7h27.65c1.33,0,2.24-.14,2.66-.42.49-.21.7-.63.7-1.19s.21-1.12.7-1.68c.56-.56,1.12-.84,1.82-.84h8.89c.7,0,1.33.28,1.82.84.49.56.77,1.26.77,1.96v5.67c0,2.73-.7,4.69-2.17,5.81-1.47,1.12-4.06,1.68-7.84,1.68h-6.51v3.71h20.23c1.19,0,1.96.21,2.38.63.42.42.63,1.26.63,2.59v5.46c0,1.05-.21,1.75-.63,2.24-.42.49-1.19.7-2.38.7h-20.23v3.71h20.37c1.12,0,1.96.21,2.38.63.42.42.63,1.26.63,2.59v5.46c0,.98-.21,1.75-.63,2.24-.42.49-1.26.7-2.38.7h-20.37v13.93c0,.7-.28,1.19-.7,1.61-.49.35-1.05.49-1.75.49h-17.29c-.91,0-1.61-.21-2.1-.77-.56-.56-.84-1.19-.91-1.96v-6.93c.07-.7.35-1.33.91-1.89.49-.49,1.19-.77,2.1-.77h5.25v-3.71h-20.51c-1.12,0-1.89-.21-2.31-.7-.42-.49-.56-1.26-.56-2.24v-5.46c0-1.33.14-2.17.56-2.59.42-.42,1.19-.63,2.31-.63h20.51v-3.71h-20.44c-1.05,0-1.82-.21-2.24-.7s-.63-1.19-.63-2.24v-5.46c0-1.33.21-2.17.63-2.59s1.19-.63,2.24-.63h20.44v-3.71h-14c-.7,0-1.33-.28-1.82-.7Z"/><path class="cls-2" d="M169.16,50.98c.7.07,1.33.28,1.75.77.49.49.77,1.12.77,1.82v5.81c0,2.45-.63,4.34-1.96,5.6-1.33,1.26-3.5,2.03-6.51,2.1h-10.22c-.84,0-1.54-.28-2.03-.77s-.7-1.05-.7-1.75v-3.85c0-.7.21-1.26.7-1.75.49-.49,1.19-.77,2.03-.77h5.39c.84,0,1.47-.28,1.96-.77.49-.49.77-1.19.77-2.03v-1.82c0-.7.28-1.33.77-1.82.49-.49,1.12-.7,1.82-.77h5.46ZM187.22,49.51v15.26c0,.7-.21,1.26-.56,1.61-.42.35-.98.56-1.61.56h-7.7c-.63,0-1.26-.21-1.68-.56-.49-.35-.7-.91-.7-1.61v-15.26h-21.63c-.98,0-1.68-.35-2.17-.91-.56-.56-.84-1.19-.84-1.96V12.9c0-.7.28-1.26.84-1.82.49-.56,1.19-.84,2.17-.84h6.37c.84,0,1.54.28,2.1.84.56.56.84,1.12.84,1.82v27.72h46.69c1.12,0,1.89.14,2.31.56.35.42.56,1.33.56,2.59v2.8c0,.98-.21,1.68-.56,2.17-.42.49-1.19.77-2.31.77h-22.12ZM208.15,6.25c.35.42.56.91.56,1.68v29.05c0,.7-.21,1.26-.56,1.61s-.84.49-1.61.49h-39.41c-.77,0-1.26-.14-1.61-.49-.35-.35-.49-.91-.49-1.61V7.93c0-.77.14-1.26.49-1.68.35-.35.84-.49,1.61-.49h39.41c.77,0,1.26.14,1.61.49ZM196.39,12.41h-19.11v2.17h19.11v-2.17ZM196.39,21.16h-19.11v2.17h19.11v-2.17ZM196.39,29.84h-19.11v2.31h19.11v-2.31ZM200.24,51.75c.49.49.77,1.12.77,1.82v1.82c0,.84.28,1.54.77,2.03.49.49,1.19.77,1.96.77h5.39c.84,0,1.54.28,2.03.77s.7,1.05.7,1.75v3.85c0,.7-.21,1.26-.7,1.75-.49.49-1.19.77-2.03.77h-10.22c-3.01-.07-5.18-.84-6.51-2.1-1.33-1.26-1.96-3.15-1.96-5.6v-5.81c0-.7.28-1.33.77-1.82.42-.49,1.05-.7,1.75-.77h5.46c.7.07,1.33.28,1.82.77Z"/></g></svg>