<?xml version="1.0" encoding="UTF-8"?><svg id="_レイヤー_2" xmlns="http://www.w3.org/2000/svg" viewBox="0 0 218.08 71.45"><defs><style>.cls-1,.cls-2,.cls-3{stroke-width:0px;}.cls-2{fill:#198caa;}.cls-3{fill:#fff;}</style></defs><g id="_レイヤー_4"><path class="cls-1" d="M23.4,47.13c.77.07,1.33.35,1.82.77.42.49.7,1.12.7,1.82v9.66c0,2.45-.63,4.27-1.96,5.46-1.33,1.19-3.5,1.89-6.51,1.96H7.23c-.84,0-1.47-.28-2.03-.77-.49-.49-.7-1.05-.7-1.75v-5.81c0-.63.21-1.26.7-1.75.56-.42,1.19-.7,2.03-.77h3.5c.77,0,1.47-.21,1.96-.77.49-.49.77-1.12.77-1.96v-3.5c0-.7.28-1.33.77-1.82.49-.42,1.05-.7,1.82-.77h7.35ZM5.13,19.76c-.35-.49-.56-1.12-.56-1.96v-4.06c0-1.33.21-2.24.56-2.59.42-.42,1.19-.63,2.31-.63h21.49v-3.15c0-.7.21-1.19.63-1.61.42-.35.98-.49,1.68-.49h8.89c.63,0,1.19.14,1.61.49.49.42.7.91.7,1.61v3.15h21.42c1.19,0,1.96.21,2.38.63.35.35.56,1.26.63,2.59v3.78c0,1.05-.21,1.75-.56,2.24-.42.49-1.26.7-2.45.7H7.44c-1.12,0-1.89-.21-2.31-.7ZM58.55,23.05c1.26,0,2.31.28,3.01.77.77.49,1.12,1.61,1.12,3.22v13.65c0,1.47-.35,2.52-1.05,3.15-.7.63-1.75.98-3.01.98h-16.1v19.95c0,.7-.21,1.19-.63,1.61-.35.35-.91.49-1.61.49h-8.96c-.7,0-1.26-.14-1.75-.49-.42-.42-.7-.91-.7-1.61v-19.95h-15.82c-1.47,0-2.52-.28-3.22-.91-.63-.63-.98-1.68-.98-3.15v-13.86c0-1.47.35-2.52.98-3.01.63-.56,1.68-.84,3.15-.84h45.58ZM22.7,35.3h26.04v-2.8h-26.04v2.8ZM57.22,47.9c.49.49.77,1.12.77,1.82v3.5c0,.84.28,1.47.77,1.96.49.56,1.19.77,1.96.77h3.5c.84.07,1.47.35,2.03.77.49.49.7,1.12.7,1.75v5.81c0,.7-.21,1.26-.7,1.75-.56.49-1.19.77-2.03.77h-10.22c-3.01-.07-5.18-.77-6.51-1.96-1.33-1.19-1.96-3.01-1.96-5.46v-9.66c0-.7.28-1.33.7-1.82.49-.42,1.05-.7,1.82-.77h7.35c.77.07,1.33.35,1.82.77Z"/><path class="cls-1" d="M82.33,66.81c-.77,0-1.4-.28-1.89-.84-.49-.49-.7-1.12-.7-1.89v-8.4c-.63.42-1.05.42-1.47.14-.42-.28-.56-.91-.56-1.89v-6.16c-.07-.56-.07-.98,0-1.33,0-.35.21-.7.63-1.05l1.4-1.54v-7.77c0-.7.21-1.33.7-1.82.49-.56,1.12-.77,1.89-.77h6.86l1.61-1.82h-9.73c-.63-.07-1.26-.35-1.75-.84-.49-.49-.77-1.05-.77-1.82v-3.22c0-1.05.28-1.82.7-2.24.49-.42,1.12-.63,1.82-.63h5.74v-2.1h-5.74c-.84,0-1.47-.21-1.89-.7-.42-.42-.63-1.05-.63-1.89v-3.43c0-.77.21-1.4.63-1.82s1.05-.63,1.89-.63h5.74v-4.48c0-.77.28-1.4.84-1.96.49-.49,1.12-.84,1.82-.98h6.09c.77.14,1.33.49,1.82.98.49.56.77,1.19.77,1.96v4.41h5.46c.7,0,1.33.21,1.82.7.49.42.7.98.77,1.61l2.73-3.08c.49-.49,1.12-.77,1.82-.84.77,0,1.33.28,1.89.77l2.38,2.59v-5.88c0-.91.21-1.61.7-2.1.42-.42,1.12-.63,2.03-.63h18.83c.91,0,1.61.21,2.1.63.42.49.63,1.19.63,2.1v4.34c0,1.05-.14,1.89-.35,2.45l-4.34,11.48h1.96c.91,0,1.61.28,2.1.7.42.49.63,1.12.63,2.03v23.94c0,.91-.14,1.61-.49,2.03-.42.49-1.12.7-2.24.7h-10.92v8.19c0,.91-.21,1.61-.7,2.1-.42.42-1.12.7-2.03.7h-5.18c-.91,0-1.61-.28-2.03-.7-.49-.49-.7-1.19-.7-2.1V16.96l-5.39,5.95h1.61c.7,0,1.33.21,1.82.7.49.49.7,1.26.7,2.17v3.22c0,.77-.21,1.33-.7,1.82-.49.49-1.12.77-1.82.84h-9.59l-1.61,1.82h8.89c.77,0,1.4.21,1.89.77.49.49.77,1.12.77,1.82v28c0,.77-.28,1.4-.77,1.89-.49.56-1.12.84-1.89.84h-26.6ZM99.56,42.86h-7.84v2.45h7.84v-2.45ZM99.56,54.63h-7.84v2.45h7.84v-2.45ZM98.65,22.91l1.96-2.1h-2.45v2.1h.49ZM125.67,16.61v6.65l2.52-6.65h-2.52ZM125.67,44.61h1.68c.91,0,1.33-.42,1.33-1.33v-5.67h-3.01v7Z"/><path class="cls-1" d="M183.06,21.3c.7,0,1.33.28,1.82.91.56.56.84,1.26.84,1.96v5.74h10.36v-5.6c0-1.12.21-1.82.7-2.17.42-.35,1.26-.56,2.45-.56h5.53c1.26,0,2.1.21,2.59.56.42.35.56,1.05.49,2.17v5.6h1.68c1.19,0,2.03.21,2.45.63s.63,1.26.63,2.59v3.64c0,1.05-.21,1.82-.63,2.31-.42.42-1.26.7-2.45.7h-1.68v22.47c0,1.75-.28,3.01-.84,3.57-.56.63-1.61.98-3.36.98h-8.89c-1.96,0-2.94-.98-2.94-2.87v-3.92c0-1.96.98-2.94,2.94-2.94h1.33v-2.59c-.42.14-.98.21-1.54.21h-4.06c-1.12,0-1.82-.21-2.1-.63-.35-.42-.77-1.19-1.26-2.31l-2.59-6.09c-.42-.77-.35-1.4.14-1.96.56-.49,1.4-.77,2.59-.7h3.78c1.12-.07,1.89.07,2.24.49.35.42.84,1.19,1.47,2.38l1.33,3.22v-9.31h-11.9c-.49,1.33-1.26,2.73-2.38,4.13v20.16c0,.77-.28,1.4-.91,1.96-.56.56-1.26.77-2.1.77h-5.67c-.98,0-1.68-.21-2.24-.77-.49-.56-.77-1.19-.84-1.96v-16.52h-1.54c0,6.58-1.61,11.48-4.76,14.63s-7.07,4.83-11.48,4.76c-.7,0-1.33-.28-1.82-.7-.49-.49-.77-1.05-.77-1.82v-6.65c0-.77.28-1.33.77-1.82.49-.42,1.12-.7,1.82-.77,1.47-.07,2.59-.84,3.29-2.31.77-1.47,1.19-3.85,1.19-7.14V12.34c0-1.33.14-2.17.56-2.59s1.19-.63,2.31-.63h19.53v-1.96c0-.7.35-1.33.84-1.82.56-.56,1.26-.84,2.17-.84h8.05c.84,0,1.54.28,2.1.84.56.49.84,1.12.84,1.82v1.96h17.43c1.19,0,1.96.21,2.38.63s.63,1.26.63,2.59v4.9c0,1.05-.21,1.75-.63,2.24-.42.49-1.19.7-2.38.7h-42.07v17.92h1.4c1.75,0,2.87-.84,3.29-2.38.49-1.54.77-3.15.77-4.76v-6.79c0-.7.21-1.4.7-1.96.56-.63,1.12-.91,1.89-.91h6.51Z"/><path class="cls-2" d="M40.27,71.38h-8.96c-1.66,0-3.13-.45-4.36-1.33-.2-.14-.39-.31-.57-.48-.18-.18-.34-.36-.49-.54-2.11,1.43-4.91,2.19-8.34,2.27-.04,0-.07,0-.11,0H7.23c-1.89,0-3.57-.63-5-1.88-.07-.07-.15-.13-.22-.2-1.32-1.32-2.02-3.03-2.02-4.93v-5.81c0-1.88.72-3.63,2.02-4.93.15-.15.31-.29.48-.42,1.28-.96,2.75-1.52,4.36-1.65.12-.01.25-.02.38-.02h1.73v-1.73c0-.37.03-.73.08-1.08-.84-.34-1.58-.8-2.24-1.39-.06-.05-.12-.11-.17-.16-1.05-1.05-2.29-3-2.29-6.33v-13.86c0-.88.08-1.66.23-2.35-1.16-.37-2.11-.99-2.86-1.86-.08-.1-.17-.2-.24-.31-.93-1.3-1.4-2.84-1.4-4.58v-4.06c0-2.62.62-4.51,1.88-5.78,1.29-1.29,3.14-1.94,5.49-1.94h17.12c.25-1.31.87-2.49,1.82-3.44.1-.1.2-.19.3-.28,1.22-1.02,2.75-1.53,4.56-1.53h8.89c2.19,0,3.65.83,4.49,1.53.88.75,1.86,1.94,2.2,3.72h17.05c.89,0,3.62,0,5.56,1.95,1.54,1.54,1.85,3.77,1.94,5.53,0,.08,0,.16,0,.24v3.78c0,1.92-.47,3.55-1.4,4.85-.08.11-.16.21-.25.31-.83.97-1.84,1.53-2.81,1.84.16.73.25,1.56.25,2.51v13.65c0,2.8-.86,4.98-2.54,6.5-.66.59-1.41,1.06-2.24,1.41.06.37.09.74.09,1.12v1.73h1.73c.12,0,.25,0,.38.02,1.61.13,3.07.69,4.36,1.65.17.13.33.27.48.42,1.3,1.3,2.02,3.05,2.02,4.93v5.81c0,1.91-.7,3.61-2.02,4.93-.07.07-.14.14-.22.2-1.43,1.25-3.11,1.88-5,1.88h-10.22s-.07,0-.11,0c-3.43-.08-6.23-.84-8.34-2.28-.15.19-.31.37-.49.54-.82.82-2.32,1.8-4.79,1.8ZM33.36,62.38h4.65v-17.55c0-2.49,2.01-4.5,4.5-4.5h15.66v-12.77H13.34v12.77h15.52c2.49,0,4.5,2.01,4.5,4.5v17.55ZM54.05,62.31h8.4v-1.85h-1.73c-2.09,0-3.94-.78-5.24-2.19-1.3-1.35-1.99-3.09-1.99-5.04v-1.59h-3.46v7.75c0,1.25.24,1.91.46,2.11.09.08.91.75,3.57.82ZM9,62.31h8.4c2.66-.07,3.48-.74,3.56-.81.23-.2.46-.86.46-2.11v-7.75h-3.46v1.59c0,1.95-.69,3.69-1.99,5.04-1.3,1.41-3.15,2.19-5.24,2.19h-1.73v1.85ZM12.35,40.27h0,0ZM9.07,15.96h53.31v-.94h-19.93c-2.49,0-4.5-2.01-4.5-4.5v-.75h-4.51v.75c0,2.49-2.01,4.5-4.5,4.5H9.07v.94ZM48.74,39.8h-26.04c-2.49,0-4.5-2.01-4.5-4.5v-2.8c0-2.49,2.01-4.5,4.5-4.5h26.04c2.49,0,4.5,2.01,4.5,4.5v2.8c0,2.49-2.01,4.5-4.5,4.5Z"/><path class="cls-2" d="M122.94,71.31h-5.18c-1.73,0-3.31-.5-4.54-1.44-1.21.93-2.69,1.44-4.28,1.44h-26.6c-2.01,0-3.85-.8-5.18-2.27-.9-.94-1.91-2.54-1.91-4.96v-4.92c-2.03-1.73-2.03-4.33-2.03-5.23v-5.91c-.08-.78-.07-1.47.03-2.13.1-.98.53-2.4,1.93-3.7l.07-.07v-6.03c0-.9.16-1.76.45-2.56-1.08-1.28-1.64-2.83-1.64-4.52v-3.22c0-1.44.31-2.77.9-3.88-.5-.9-.9-2.11-.9-3.68v-3.43c0-1.97.69-3.75,1.95-5,.89-.89,2.49-1.95,5.07-1.95h1.24c0-1.94.75-3.71,2.16-5.12,1.13-1.13,2.56-1.9,4.12-2.21.29-.06.59-.09.89-.09h6.09c.27,0,.54.02.81.07,1.6.29,3.01,1.04,4.2,2.23.07.07.14.14.2.22,1.21,1.39,1.86,3.06,1.88,4.83h.96c.81,0,1.59.13,2.32.37,1.19-1.11,2.7-1.79,4.37-1.96.15-.01.29-.02.44-.02.37-1.57,1.13-2.64,1.81-3.31.88-.88,2.5-1.94,5.21-1.94h18.83c2.01,0,3.71.58,5.04,1.72.17.15.33.31.48.48.78.91,1.72,2.53,1.72,5.03v4.34c0,1.55-.21,2.9-.64,4.03l-2.47,6.53c.32.2.62.42.91.67.17.15.33.31.48.48,1.14,1.33,1.72,3,1.72,4.96v23.94c0,2.06-.5,3.67-1.53,4.91-1.99,2.32-4.78,2.32-5.7,2.32h-6.42v3.69c0,2.71-1.1,4.37-2.02,5.29-1.29,1.29-3.14,2.01-5.21,2.01ZM119.53,62.31h1.64v-6.49c0-2.49,2.02-4.5,4.5-4.5h9.15v-20.4h-.19c-1.48,0-2.86-.73-3.7-1.94-.84-1.22-1.03-2.77-.51-4.15l4.34-11.47s0,0,0,0c0,0,.06-.29.06-.87v-2.57h-15.29s0,4.11,0,4.11c0,.51-.09,1-.25,1.47.16.46.25.96.25,1.47v45.35ZM84.24,62.31h22.85v-24.32h-7.05c-1.77,0-3.38-1.04-4.1-2.65-.73-1.61-.44-3.5.73-4.83l1.61-1.82c.85-.97,2.08-1.52,3.37-1.52h6.5c-1.16-.4-2.12-1.27-2.63-2.43-.72-1.63-.42-3.53.78-4.85l.82-.9c-.74.15-1.53.12-2.28-.12-.07-.02-.14-.05-.21-.08.04.07.07.15.1.23.71,1.64.39,3.55-.84,4.86l-1.96,2.1c-.85.91-2.04,1.43-3.29,1.43h-.49c-2.49,0-4.5-2.01-4.5-4.5v-2.1c0-1.99,1.29-3.67,3.08-4.27-1.79-.6-3.08-2.28-3.08-4.27v-2.85h-2.34v2.92c0,1.95-1.24,3.61-2.98,4.24,1.74.62,2.98,2.29,2.98,4.24v2.1c0,1.97-1.26,3.64-3.02,4.25h2.51c1.77,0,3.38,1.04,4.1,2.65.73,1.61.44,3.5-.73,4.83l-1.61,1.82c-.85.97-2.08,1.52-3.37,1.52h-4.95v5.86c0,1.12-.42,2.2-1.17,3.03l-.86.95v4.09c1.26.83,2.03,2.24,2.03,3.76v6.63ZM81.22,48.84s0,0,0,0t0,0ZM82.21,46.43h0s0,0,0,0ZM99.56,61.58h-7.84c-2.49,0-4.5-2.01-4.5-4.5v-2.45c0-2.49,2.01-4.5,4.5-4.5h7.84c2.49,0,4.5,2.01,4.5,4.5v2.45c0,2.49-2.01,4.5-4.5,4.5ZM99.56,49.81h-7.84c-2.49,0-4.5-2.01-4.5-4.5v-2.45c0-2.49,2.01-4.5,4.5-4.5h7.84c2.49,0,4.5,2.01,4.5,4.5v2.45c0,2.49-2.01,4.5-4.5,4.5ZM127.35,49.11h-1.68c-2.49,0-4.5-2.01-4.5-4.5v-7c0-2.49,2.01-4.5,4.5-4.5h3.01c2.49,0,4.5,2.01,4.5,4.5v5.67c0,3.38-2.45,5.83-5.83,5.83ZM125.67,27.76c-.27,0-.54-.02-.81-.07-2.14-.39-3.69-2.25-3.69-4.43v-6.65c0-2.49,2.01-4.5,4.5-4.5h2.52c1.48,0,2.86.73,3.7,1.94s1.03,2.77.5,4.15l-2.52,6.65c-.67,1.77-2.37,2.91-4.21,2.91Z"/><path class="cls-2" d="M152.52,71.45c-.11,0-.22,0-.33,0h0c-1.65,0-3.34-.63-4.68-1.79-.09-.07-.17-.15-.25-.23-1.37-1.37-2.09-3.1-2.09-5v-6.65c0-1.91.72-3.64,2.09-5,.08-.08.16-.16.25-.23,1.15-.99,2.56-1.61,4.08-1.81.16-.33.65-1.65.65-5V12.34c0-1.92.22-4.12,1.88-5.77,1.29-1.29,3.14-1.95,5.49-1.95h15.54c.37-.9.92-1.73,1.66-2.46,1.41-1.41,3.26-2.16,5.35-2.16h8.05c1.99,0,3.78.71,5.18,2.05.8.73,1.4,1.6,1.79,2.57h13.41c.89,0,3.62,0,5.56,1.95,1.75,1.75,1.95,4.13,1.95,5.77v4.9c0,2.13-.56,3.82-1.71,5.17-1.21,1.41-2.78,1.94-4.03,2.15v1.2c1.13.32,2.06.85,2.81,1.6,1.75,1.75,1.95,4.13,1.95,5.77v3.64c0,2.15-.58,3.91-1.71,5.24-.08.09-.15.17-.24.25-.75.75-1.7,1.3-2.81,1.63v18.36c0,3.02-.67,5.2-2.06,6.65-2.21,2.4-5.54,2.4-6.64,2.4h-8.89c-4.45,0-7.44-2.96-7.44-7.37v-3.92c0-.45.03-.89.09-1.31-.4-.15-.76-.32-1.1-.53v5.9c0,2.03-.8,3.84-2.33,5.24-.97.93-2.63,1.99-5.18,1.99h-5.67c-2.21,0-4.03-.7-5.42-2.08-.07-.07-.14-.15-.21-.22-.71-.81-1.23-1.72-1.56-2.7-3.8,3.38-8.41,5.15-13.42,5.15ZM152.26,62.45s.03,0,.05,0c-.02,0-.03,0-.05,0ZM154.17,59.43v2.9c2.41-.34,4.5-1.44,6.39-3.33,2.28-2.28,3.44-6.14,3.44-11.45,0-2.49,2.01-4.5,4.5-4.5h1.54c2.49,0,4.5,2.01,4.5,4.5v14.75h2.76s0-18.39,0-18.39c0-1.02.35-2.01.99-2.81.75-.94,1.31-1.91,1.67-2.88.65-1.77,2.34-2.94,4.22-2.94h11.9c2.49,0,4.5,2.01,4.5,4.5v9.31c0,1-.33,1.94-.9,2.7.58.77.9,1.71.9,2.7v2.59c0,2.41-1.89,4.37-4.27,4.49v.73h7.03v-22.52c0-2.49,2.01-4.5,4.5-4.5h.26v-.87h-.26c-2.49,0-4.5-2.01-4.5-4.5v-3.83h-2.76v3.83c0,2.49-2.01,4.5-4.5,4.5h-10.36c-2.49,0-4.5-2.01-4.5-4.5v-4.11h-2.76v5.16c0,1.99-.32,4.02-.96,6.05-.99,3.45-3.89,5.59-7.6,5.59h-1.4c-2.49,0-4.5-2.01-4.5-4.5v-17.92c0-2.49,2.01-4.5,4.5-4.5h40.58v-2.06h-15.94c-2.49,0-4.5-2.01-4.5-4.5v-.12h-5v.12c0,2.49-2.01,4.5-4.5,4.5h-17.9v32.11c0,3.97-.54,6.97-1.66,9.15-1.15,2.35-3.06,3.95-5.41,4.54ZM191.35,50.2h.32l-.99-2.4c-.06-.1-.11-.2-.16-.29h-.31l1.06,2.49c.03.07.06.14.09.2ZM183.06,25.8h0,0ZM190.22,25.41h1.36v-.73h-1.36v.73Z"/><path class="cls-3" d="M40.27,69.88h-8.96c-1.36,0-2.5-.34-3.49-1.05-.13-.1-.26-.2-.38-.32-.52-.52-.91-1.09-1.18-1.71-.1.1-.2.19-.3.29-1.92,1.72-4.76,2.64-8.44,2.72H7.23c-1.51,0-2.86-.51-4.01-1.51-.05-.04-.1-.09-.14-.14-1.05-1.05-1.58-2.35-1.58-3.87v-5.81c0-1.48.56-2.86,1.58-3.87.1-.1.21-.19.32-.28,1.07-.8,2.24-1.25,3.58-1.36.08,0,.17-.01.25-.01h3.23v-3.23c0-.73.14-1.44.42-2.1-1.23-.25-2.25-.74-3.06-1.48-.04-.04-.08-.07-.12-.11-1.23-1.23-1.86-3.01-1.86-5.27v-13.86c0-1.49.27-2.62.67-3.48-1.05-.1-2.57-.44-3.66-1.71-.06-.07-.11-.13-.16-.21-.74-1.04-1.12-2.29-1.12-3.71v-4.06c0-2.24.46-3.73,1.44-4.71,1.01-1.01,2.46-1.5,4.43-1.5h18.49v-.15c0-1.48.51-2.73,1.51-3.73.06-.06.13-.13.2-.18.94-.79,2.16-1.18,3.6-1.18h8.89c1.74,0,2.88.64,3.53,1.18,1.19,1.02,1.78,2.33,1.78,3.92v.15h18.42c.74,0,2.99,0,4.5,1.51.92.92,1.39,2.32,1.51,4.55,0,.05,0,.11,0,.16v3.78c0,1.62-.37,2.93-1.12,3.98-.05.07-.11.14-.16.21-1.04,1.21-2.52,1.58-3.6,1.7.46.98.68,2.2.68,3.63v13.65c0,2.35-.69,4.16-2.04,5.38-.84.75-1.88,1.27-3.06,1.54.28.66.42,1.38.42,2.11v3.23h3.23c.08,0,.17,0,.25.01,1.34.11,2.51.56,3.58,1.36.11.08.22.18.32.28,1.02,1.02,1.58,2.39,1.58,3.87v5.81c0,1.52-.53,2.82-1.58,3.87-.05.05-.09.09-.14.14-1.15,1-2.49,1.51-4.01,1.51h-10.22c-3.75-.09-6.59-1-8.51-2.73-.11-.1-.22-.2-.33-.31-.25.64-.64,1.23-1.15,1.74-.91.91-2.16,1.37-3.73,1.37ZM31.86,63.88h7.65v-19.05c0-1.66,1.34-3,3-3h16.1c.52,0,.82-.11.95-.17.04-.11.11-.39.11-.96v-13.65c0-.41-.03-.68-.06-.86-.21-.07-.56-.13-1.07-.13H12.97c-.55,0-.89.05-1.07.1-.03.16-.06.4-.06.75v13.86c0,.5.06.8.1.96.16.04.5.11,1.1.11h15.82c1.66,0,3,1.34,3,3v19.05ZM48.52,50.13v9.25c0,1.57.32,2.66.96,3.22.47.42,1.68,1.13,4.58,1.2h9.88v-4.85h-3.23c-2.12,0-3.42-.92-4.15-1.72-1.03-1.07-1.58-2.46-1.58-4.01v-3.09h-6.46ZM7.5,63.78l9.95.03c2.83-.07,4.04-.78,4.51-1.2.64-.57.96-1.66.96-3.23v-9.25h-6.46v3.09c0,1.56-.55,2.94-1.58,4.01-.73.8-2.03,1.72-4.15,1.72h-3.23v4.83ZM61.01,53.21s0,0,0,0t0,0ZM10.43,53.21s0,0,0,0t0,0ZM59.94,26.35h.01-.01ZM11.67,26.26s0,0,0,0c0,0,0,0,0,0ZM7.57,17.46h56.31v-3.64c0-.11-.01-.21-.02-.3h-21.41c-1.66,0-3-1.34-3-3v-2.25h-7.51s0,2.25,0,2.25c0,1.66-1.34,3-3,3H7.57c0,.07,0,.14,0,.22v3.72ZM48.74,38.3h-26.04c-1.66,0-3-1.34-3-3v-2.8c0-1.66,1.34-3,3-3h26.04c1.66,0,3,1.34,3,3v2.8c0,1.66-1.34,3-3,3Z"/><path class="cls-3" d="M122.94,69.81h-5.18c-1.66,0-3.14-.56-4.16-1.58-.14-.13-.26-.28-.38-.42-.06.07-.13.15-.2.22-1.06,1.17-2.47,1.79-4.08,1.79h-26.6c-1.61,0-3.02-.62-4.08-1.79-.7-.73-1.5-1.99-1.5-3.94v-5.68c-.05-.03-.1-.06-.14-.09-1.89-1.26-1.89-3.53-1.89-4.38v-5.99c-.07-.69-.07-1.29.01-1.84.07-.81.42-1.87,1.51-2.86l.5-.55v-6.61c0-1.06.25-2.03.74-2.86-.1-.09-.19-.17-.29-.27-1.1-1.1-1.65-2.42-1.65-3.94v-3.22c0-1.54.42-2.91,1.18-3.91-.6-.74-1.18-1.9-1.18-3.65v-3.43c0-2.01.82-3.25,1.51-3.94s1.94-1.51,4.01-1.51h2.74v-1.48c0-1.54.59-2.96,1.72-4.08.92-.92,2.08-1.55,3.35-1.8.19-.04.39-.06.59-.06h6.09c.18,0,.36.02.54.05,1.31.24,2.43.83,3.4,1.81.05.05.09.09.13.14,1,1.15,1.51,2.47,1.51,3.93v1.41h2.46c.99,0,1.91.22,2.71.66l.37-.42s.08-.09.12-.13c.97-.97,2.23-1.56,3.64-1.7.54-.05,1.07.01,1.58.13.06-1.6.59-2.91,1.58-3.89.68-.68,1.96-1.5,4.15-1.5h18.83c1.65,0,3.01.46,4.06,1.36.11.1.22.2.32.32.9,1.05,1.36,2.41,1.36,4.06v4.34c0,1.35-.19,2.56-.54,3.5l-2.95,7.8c.67.24,1.28.59,1.82,1.05.11.1.22.2.32.32.91,1.06,1.36,2.37,1.36,3.99v23.94c0,1.7-.39,2.99-1.18,3.95-1.52,1.78-3.8,1.78-4.55,1.78h-7.92v5.19c0,1.76-.53,3.18-1.58,4.23-1.01,1.01-2.48,1.58-4.15,1.58ZM118.03,63.81h4.64v-7.99c0-1.66,1.34-3,3-3h10.65v-23.4h-1.69c-.99,0-1.91-.48-2.47-1.29-.56-.81-.69-1.84-.34-2.77l4.34-11.48s.16-.43.16-1.39v-4.07h-18.29v5.61c0,.53-.14,1.03-.38,1.47.25.44.38.94.38,1.47v46.85ZM82.74,63.81h25.85v-27.32h-8.55c-1.18,0-2.25-.69-2.74-1.77s-.29-2.34.49-3.22l1.61-1.82c.57-.64,1.39-1.01,2.25-1.01h9.11v-2.75s-1.13,0-1.13,0c-1.19,0-2.26-.7-2.74-1.78-.48-1.08-.28-2.35.52-3.23l4.89-5.4-1.48-1.61-2.38,2.68c-.79.89-2.03,1.23-3.15.87-1.01-.32-1.77-1.15-2.01-2.17h-5.13c-1.66,0-3-1.34-3-3v-4.35s0,0,0,0h-5.24s-.06.04-.09.07v4.35c0,1.66-1.34,3-3,3h-5.26v2.47h5.26c1.66,0,3,1.34,3,3v2.1c0,1.66-1.34,3-3,3h-5.26v2.75h9.25c1.18,0,2.25.69,2.74,1.77s.29,2.34-.49,3.22l-1.61,1.82c-.57.64-1.39,1.01-2.25,1.01h-6.45v7.36c0,.75-.28,1.47-.78,2.02l-1.29,1.42s0,.07.01.12c.01.12.02.25.02.37v5.08c.15.05.3.12.44.19.98.52,1.59,1.53,1.59,2.64v8.13ZM99.56,60.08h-7.84c-1.66,0-3-1.34-3-3v-2.45c0-1.66,1.34-3,3-3h7.84c1.66,0,3,1.34,3,3v2.45c0,1.66-1.34,3-3,3ZM99.56,48.31h-7.84c-1.66,0-3-1.34-3-3v-2.45c0-1.66,1.34-3,3-3h7.84c1.66,0,3,1.34,3,3v2.45c0,1.66-1.34,3-3,3ZM127.35,47.61h-1.68c-1.66,0-3-1.34-3-3v-7c0-1.66,1.34-3,3-3h3.01c1.66,0,3,1.34,3,3v5.67c0,2.55-1.78,4.33-4.33,4.33ZM125.67,26.26c-.18,0-.36-.02-.54-.05-1.42-.26-2.46-1.5-2.46-2.95v-6.65c0-1.66,1.34-3,3-3h2.52c.99,0,1.91.48,2.47,1.3.56.81.69,1.85.34,2.77l-2.52,6.65c-.45,1.18-1.58,1.94-2.8,1.94ZM98.65,25.91h-.49c-1.66,0-3-1.34-3-3v-2.1c0-1.66,1.34-3,3-3h2.45c1.19,0,2.28.71,2.75,1.8.48,1.1.26,2.37-.56,3.24l-1.96,2.1c-.57.61-1.36.95-2.19.95Z"/><path class="cls-3" d="M152.53,69.95c-.11,0-.21,0-.32,0h0c-1.32,0-2.66-.51-3.73-1.42-.06-.05-.11-.1-.17-.16-1.09-1.09-1.65-2.42-1.65-3.94v-6.65c0-1.52.55-2.85,1.65-3.94.05-.05.11-.11.17-.16.97-.84,2.18-1.35,3.47-1.48.05,0,.1,0,.16-.01.25-.01.45-.02.73-.6.02-.03.03-.07.05-.1.25-.49.85-2.02.85-5.75V12.34c0-1.7.17-3.45,1.44-4.71,1.01-1.01,2.46-1.51,4.43-1.51h16.64c.22-1.06.77-2.06,1.61-2.9,1.12-1.12,2.61-1.72,4.29-1.72h8.05c1.6,0,3.04.57,4.15,1.65.89.81,1.47,1.83,1.69,2.97h14.53c2.01,0,3.49.49,4.5,1.51,1.35,1.35,1.51,3.34,1.51,4.71v4.9c0,1.76-.44,3.13-1.35,4.19-1.36,1.58-3.42,1.73-4.39,1.75.04.49.02.93,0,1.23v2.58c1.4.17,2.47.65,3.25,1.43,1.35,1.35,1.51,3.34,1.51,4.71v3.64c0,1.78-.46,3.21-1.35,4.26-.05.06-.1.12-.16.17-.79.79-1.9,1.29-3.25,1.49v19.56c0,2.62-.54,4.46-1.65,5.62-1.19,1.3-3,1.93-5.55,1.93h-8.89c-3.61,0-5.94-2.3-5.94-5.87v-3.92c0-.88.14-1.68.4-2.39-1.03-.14-2.35-.55-3.22-1.74-.39-.49-.77-1.13-1.19-1.99v10.19c0,1.61-.64,3.04-1.85,4.15-1.09,1.05-2.48,1.58-4.16,1.58h-5.67c-1.82,0-3.25-.54-4.36-1.65-.05-.05-.09-.1-.14-.15-.92-1.05-1.45-2.28-1.57-3.67,0-.09-.01-.18-.01-.27v-1.09c-.37.46-.76.9-1.18,1.32-3.75,3.75-8.23,5.64-13.33,5.64ZM152.67,58.17v5.78c3.46-.04,6.38-1.32,8.95-3.88s3.88-6.78,3.88-12.51c0-1.66,1.34-3,3-3h1.54c1.66,0,3,1.34,3,3v16.25s.05,0,.08,0h5.68v-19.89c0-.68.23-1.34.66-1.87.85-1.07,1.5-2.17,1.91-3.29.43-1.18,1.56-1.96,2.81-1.96h11.9c1.66,0,3,1.34,3,3v9.31c0,1.18-.69,2.23-1.72,2.71.17.08.32.17.47.28.76.57,1.25,1.44,1.25,2.39v2.59c0,1.66-1.34,3-3,3h-1.27v3.73h8.83c.54,0,.88-.04,1.09-.08.05-.26.11-.73.11-1.47v-22.47c0-1.66,1.34-3,3-3h1.68s.05,0,.08,0h0v-3.65c0-.08,0-.15,0-.22h-1.76c-1.66,0-3-1.34-3-3v-5.33h-5.61c-.05,0-.1,0-.15,0v5.33c0,1.66-1.34,3-3,3h-10.36c-1.66,0-3-1.34-3-3v-5.61h-5.76v6.66c0,1.84-.3,3.73-.9,5.62-.8,2.83-3.1,4.53-6.17,4.53h-1.4c-1.66,0-3-1.34-3-3v-17.92c0-1.66,1.34-3,3-3h42.08v-4.84c0-.08,0-.15,0-.22h-17.44c-1.66,0-3-1.34-3-3v-1.62h-7.99s0,0-.01,0v1.62c0,1.66-1.34,3-3,3h-19.4c0,.07,0,.14,0,.22v33.39c0,3.74-.49,6.51-1.5,8.48-1.14,2.35-3.11,3.74-5.57,3.95ZM152.26,63.95h.01-.01ZM190.78,52.27s.07.1.09.13c-.03-.05-.06-.09-.09-.13ZM190.41,51.7h4.17c-.56-.32-1.02-.82-1.28-1.46l-1.28-3.08c-.28-.52-.5-.9-.66-1.16-.04,0-.09,0-.14,0-.06,0-.13,0-.19,0h-3.11l1.95,4.58c.23.51.4.87.53,1.11ZM188.72,26.91h4.36v-2.6c0-.25,0-.65.06-1.13h-4.51c.06.32.09.66.09.99v2.74ZM183.06,24.3h0,0Z"/><path class="cls-2" d="M23.4,47.13c.77.07,1.33.35,1.82.77.42.49.7,1.12.7,1.82v9.66c0,2.45-.63,4.27-1.96,5.46-1.33,1.19-3.5,1.89-6.51,1.96H7.23c-.84,0-1.47-.28-2.03-.77-.49-.49-.7-1.05-.7-1.75v-5.81c0-.63.21-1.26.7-1.75.56-.42,1.19-.7,2.03-.77h3.5c.77,0,1.47-.21,1.96-.77.49-.49.77-1.12.77-1.96v-3.5c0-.7.28-1.33.77-1.82.49-.42,1.05-.7,1.82-.77h7.35ZM5.13,19.76c-.35-.49-.56-1.12-.56-1.96v-4.06c0-1.33.21-2.24.56-2.59.42-.42,1.19-.63,2.31-.63h21.49v-3.15c0-.7.21-1.19.63-1.61.42-.35.98-.49,1.68-.49h8.89c.63,0,1.19.14,1.61.49.49.42.7.91.7,1.61v3.15h21.42c1.19,0,1.96.21,2.38.63.35.35.56,1.26.63,2.59v3.78c0,1.05-.21,1.75-.56,2.24-.42.49-1.26.7-2.45.7H7.44c-1.12,0-1.89-.21-2.31-.7ZM58.55,23.05c1.26,0,2.31.28,3.01.77.77.49,1.12,1.61,1.12,3.22v13.65c0,1.47-.35,2.52-1.05,3.15-.7.63-1.75.98-3.01.98h-16.1v19.95c0,.7-.21,1.19-.63,1.61-.35.35-.91.49-1.61.49h-8.96c-.7,0-1.26-.14-1.75-.49-.42-.42-.7-.91-.7-1.61v-19.95h-15.82c-1.47,0-2.52-.28-3.22-.91-.63-.63-.98-1.68-.98-3.15v-13.86c0-1.47.35-2.52.98-3.01.63-.56,1.68-.84,3.15-.84h45.58ZM22.7,35.3h26.04v-2.8h-26.04v2.8ZM57.22,47.9c.49.49.77,1.12.77,1.82v3.5c0,.84.28,1.47.77,1.96.49.56,1.19.77,1.96.77h3.5c.84.07,1.47.35,2.03.77.49.49.7,1.12.7,1.75v5.81c0,.7-.21,1.26-.7,1.75-.56.49-1.19.77-2.03.77h-10.22c-3.01-.07-5.18-.77-6.51-1.96-1.33-1.19-1.96-3.01-1.96-5.46v-9.66c0-.7.28-1.33.7-1.82.49-.42,1.05-.7,1.82-.77h7.35c.77.07,1.33.35,1.82.77Z"/><path class="cls-2" d="M82.33,66.81c-.77,0-1.4-.28-1.89-.84-.49-.49-.7-1.12-.7-1.89v-8.4c-.63.42-1.05.42-1.47.14-.42-.28-.56-.91-.56-1.89v-6.16c-.07-.56-.07-.98,0-1.33,0-.35.21-.7.63-1.05l1.4-1.54v-7.77c0-.7.21-1.33.7-1.82.49-.56,1.12-.77,1.89-.77h6.86l1.61-1.82h-9.73c-.63-.07-1.26-.35-1.75-.84-.49-.49-.77-1.05-.77-1.82v-3.22c0-1.05.28-1.82.7-2.24.49-.42,1.12-.63,1.82-.63h5.74v-2.1h-5.74c-.84,0-1.47-.21-1.89-.7-.42-.42-.63-1.05-.63-1.89v-3.43c0-.77.21-1.4.63-1.82s1.05-.63,1.89-.63h5.74v-4.48c0-.77.28-1.4.84-1.96.49-.49,1.12-.84,1.82-.98h6.09c.77.14,1.33.49,1.82.98.49.56.77,1.19.77,1.96v4.41h5.46c.7,0,1.33.21,1.82.7.49.42.7.98.77,1.61l2.73-3.08c.49-.49,1.12-.77,1.82-.84.77,0,1.33.28,1.89.77l2.38,2.59v-5.88c0-.91.21-1.61.7-2.1.42-.42,1.12-.63,2.03-.63h18.83c.91,0,1.61.21,2.1.63.42.49.63,1.19.63,2.1v4.34c0,1.05-.14,1.89-.35,2.45l-4.34,11.48h1.96c.91,0,1.61.28,2.1.7.42.49.63,1.12.63,2.03v23.94c0,.91-.14,1.61-.49,2.03-.42.49-1.12.7-2.24.7h-10.92v8.19c0,.91-.21,1.61-.7,2.1-.42.42-1.12.7-2.03.7h-5.18c-.91,0-1.61-.28-2.03-.7-.49-.49-.7-1.19-.7-2.1V16.96l-5.39,5.95h1.61c.7,0,1.33.21,1.82.7.49.49.7,1.26.7,2.17v3.22c0,.77-.21,1.33-.7,1.82-.49.49-1.12.77-1.82.84h-9.59l-1.61,1.82h8.89c.77,0,1.4.21,1.89.77.49.49.77,1.12.77,1.82v28c0,.77-.28,1.4-.77,1.89-.49.56-1.12.84-1.89.84h-26.6ZM99.56,42.86h-7.84v2.45h7.84v-2.45ZM99.56,54.63h-7.84v2.45h7.84v-2.45ZM98.65,22.91l1.96-2.1h-2.45v2.1h.49ZM125.67,16.61v6.65l2.52-6.65h-2.52ZM125.67,44.61h1.68c.91,0,1.33-.42,1.33-1.33v-5.67h-3.01v7Z"/><path class="cls-2" d="M183.06,21.3c.7,0,1.33.28,1.82.91.56.56.84,1.26.84,1.96v5.74h10.36v-5.6c0-1.12.21-1.82.7-2.17.42-.35,1.26-.56,2.45-.56h5.53c1.26,0,2.1.21,2.59.56.42.35.56,1.05.49,2.17v5.6h1.68c1.19,0,2.03.21,2.45.63s.63,1.26.63,2.59v3.64c0,1.05-.21,1.82-.63,2.31-.42.42-1.26.7-2.45.7h-1.68v22.47c0,1.75-.28,3.01-.84,3.57-.56.63-1.61.98-3.36.98h-8.89c-1.96,0-2.94-.98-2.94-2.87v-3.92c0-1.96.98-2.94,2.94-2.94h1.33v-2.59c-.42.14-.98.21-1.54.21h-4.06c-1.12,0-1.82-.21-2.1-.63-.35-.42-.77-1.19-1.26-2.31l-2.59-6.09c-.42-.77-.35-1.4.14-1.96.56-.49,1.4-.77,2.59-.7h3.78c1.12-.07,1.89.07,2.24.49.35.42.84,1.19,1.47,2.38l1.33,3.22v-9.31h-11.9c-.49,1.33-1.26,2.73-2.38,4.13v20.16c0,.77-.28,1.4-.91,1.96-.56.56-1.26.77-2.1.77h-5.67c-.98,0-1.68-.21-2.24-.77-.49-.56-.77-1.19-.84-1.96v-16.52h-1.54c0,6.58-1.61,11.48-4.76,14.63s-7.07,4.83-11.48,4.76c-.7,0-1.33-.28-1.82-.7-.49-.49-.77-1.05-.77-1.82v-6.65c0-.77.28-1.33.77-1.82.49-.42,1.12-.7,1.82-.77,1.47-.07,2.59-.84,3.29-2.31.77-1.47,1.19-3.85,1.19-7.14V12.34c0-1.33.14-2.17.56-2.59s1.19-.63,2.31-.63h19.53v-1.96c0-.7.35-1.33.84-1.82.56-.56,1.26-.84,2.17-.84h8.05c.84,0,1.54.28,2.1.84.56.49.84,1.12.84,1.82v1.96h17.43c1.19,0,1.96.21,2.38.63s.63,1.26.63,2.59v4.9c0,1.05-.21,1.75-.63,2.24-.42.49-1.19.7-2.38.7h-42.07v17.92h1.4c1.75,0,2.87-.84,3.29-2.38.49-1.54.77-3.15.77-4.76v-6.79c0-.7.21-1.4.7-1.96.56-.63,1.12-.91,1.89-.91h6.51Z"/></g></svg>