<?xml version="1.0" encoding="UTF-8"?><svg id="_レイヤー_2" xmlns="http://www.w3.org/2000/svg" viewBox="0 0 217.21 70.82"><defs><style>.cls-1,.cls-2,.cls-3{stroke-width:0px;}.cls-2{fill:#198caa;}.cls-3{fill:#fff;}</style></defs><g id="_レイヤー_4"><path class="cls-1" d="M17.59,66.18c-1.26,0-2.24-.28-3.01-.77-.7-.49-1.05-1.61-1.05-3.22v-14.07c-.28.07-.63.14-.91.28h-5.53c-.77-.07-1.4-.35-1.89-.77-.49-.49-.7-1.05-.7-1.82v-9.1c0-.77.21-1.33.7-1.82.49-.42,1.12-.7,1.89-.77h.7c3.92.07,6.79-1.26,8.61-4.06,1.82-2.8,2.73-6.16,2.87-10.22v-2.66H7.51c-1.19,0-2.03-.21-2.45-.7-.35-.49-.56-1.19-.56-2.24v-5.74c.07-1.33.28-2.17.63-2.59.42-.42,1.19-.63,2.38-.63h55.87c1.12,0,1.89.21,2.31.63.35.42.56,1.26.56,2.59v5.74c0,1.05-.21,1.75-.56,2.24-.42.49-1.19.7-2.31.7h-30.17v2.66c0,3.22-.42,6.23-1.26,8.96h27.65c1.47,0,2.52.35,3.15.98.7.56.98,1.61.98,3.08v29.47c0,1.47-.28,2.52-.91,3.01-.7.56-1.68.84-3.15.84H17.59ZM49.65,55.04v-15.61h-22.12v15.61h22.12Z"/><path class="cls-1" d="M94.16,4.57c.77,0,1.4.28,1.89.84.49.56.77,1.19.77,1.96v39.13c0,6.72-1.47,11.69-4.55,14.91-3.08,3.22-6.3,4.76-9.8,4.76h-3.85c-.77-.07-1.33-.35-1.89-.77-.49-.49-.7-1.05-.7-1.82v-6.65c0-.77.21-1.33.7-1.82.56-.42,1.12-.7,1.89-.7,1.47-.07,2.66-.84,3.71-2.38,1.05-1.47,1.54-3.85,1.54-7.14V7.37c0-.77.28-1.4.77-1.96.49-.56,1.05-.84,1.75-.84h7.77ZM116.77,54.55c-.56.56-1.26.84-2.1.84h-7c-.91,0-1.61-.28-2.17-.84-.49-.49-.77-1.12-.84-1.89V7.16c.07-.7.35-1.33.84-1.89.56-.49,1.26-.77,2.17-.77h7c.84,0,1.54.28,2.1.77.56.56.84,1.19.84,1.89v45.5c0,.77-.28,1.4-.84,1.89ZM137.56,65.54c-.56.56-1.26.77-2.1.77h-7c-.91,0-1.68-.21-2.17-.77-.56-.56-.84-1.19-.84-1.96V7.16c0-.7.28-1.33.84-1.89.49-.49,1.26-.77,2.17-.77h7c.84,0,1.54.28,2.1.77.56.56.84,1.19.84,1.89v56.43c0,.77-.28,1.4-.84,1.96Z"/><path class="cls-1" d="M169.66,50.14c.7.07,1.33.28,1.75.77.49.49.77,1.12.77,1.82v5.81c0,2.45-.63,4.34-1.96,5.6-1.33,1.26-3.5,2.03-6.51,2.1h-10.22c-.84,0-1.54-.28-2.03-.77s-.7-1.05-.7-1.75v-3.85c0-.7.21-1.26.7-1.75s1.19-.77,2.03-.77h5.39c.84,0,1.47-.28,1.96-.77.49-.49.77-1.19.77-2.03v-1.82c0-.7.28-1.33.77-1.82.49-.49,1.12-.7,1.82-.77h5.46ZM187.72,48.67v15.26c0,.7-.21,1.26-.56,1.61-.42.35-.98.56-1.61.56h-7.7c-.63,0-1.26-.21-1.68-.56-.49-.35-.7-.91-.7-1.61v-15.26h-21.63c-.98,0-1.68-.35-2.17-.91-.56-.56-.84-1.19-.84-1.96V12.06c0-.7.28-1.26.84-1.82.49-.56,1.19-.84,2.17-.84h6.37c.84,0,1.54.28,2.1.84s.84,1.12.84,1.82v27.72h46.69c1.12,0,1.89.14,2.31.56.35.42.56,1.33.56,2.59v2.8c0,.98-.21,1.68-.56,2.17-.42.49-1.19.77-2.31.77h-22.12ZM208.65,5.41c.35.42.56.91.56,1.68v29.05c0,.7-.21,1.26-.56,1.61-.35.35-.84.49-1.61.49h-39.41c-.77,0-1.26-.14-1.61-.49-.35-.35-.49-.91-.49-1.61V7.09c0-.77.14-1.26.49-1.68.35-.35.84-.49,1.61-.49h39.41c.77,0,1.26.14,1.61.49ZM196.89,11.57h-19.11v2.17h19.11v-2.17ZM196.89,20.32h-19.11v2.17h19.11v-2.17ZM196.89,29h-19.11v2.31h19.11v-2.31ZM200.74,50.91c.49.49.77,1.12.77,1.82v1.82c0,.84.28,1.54.77,2.03.49.49,1.19.77,1.96.77h5.39c.84,0,1.54.28,2.03.77.49.49.7,1.05.7,1.75v3.85c0,.7-.21,1.26-.7,1.75-.49.49-1.19.77-2.03.77h-10.22c-3.01-.07-5.18-.84-6.51-2.1-1.33-1.26-1.96-3.15-1.96-5.6v-5.81c0-.7.28-1.33.77-1.82.42-.49,1.05-.7,1.75-.77h5.46c.7.07,1.33.28,1.82.77Z"/><path class="cls-2" d="M59.67,70.68H17.59c-2.07,0-3.89-.5-5.43-1.47-.05-.03-.11-.07-.16-.11-1.36-.95-2.97-2.92-2.97-6.91v-9.29h-1.94c-.14,0-.27,0-.41-.02-1.67-.15-3.2-.79-4.42-1.84-.08-.07-.16-.14-.24-.22-1.34-1.34-2.03-3.02-2.03-5.01v-9.1c0-1.98.68-3.66,2.02-5,.08-.08.16-.16.25-.23,1.23-1.05,2.76-1.69,4.42-1.84.13-.01.26-.02.4-.02h.7c.08,0,.15,0,.22,0,2.91,0,3.96-1.02,4.62-2.02,1.05-1.61,1.71-3.57,1.99-5.93h-7.11c-.97,0-3.92,0-5.87-2.27-.09-.1-.17-.21-.25-.31-.93-1.3-1.4-2.93-1.4-4.85v-5.74c0-.08,0-.16,0-.24.08-1.61.35-3.65,1.67-5.23.09-.11.18-.21.28-.3C3.9.77,6.62.77,7.51.77h55.87c2.35,0,4.2.66,5.49,1.95.1.1.19.2.28.3,1.09,1.31,1.6,3.05,1.6,5.47v5.74c0,1.95-.46,3.54-1.4,4.85-.08.11-.16.21-.25.31-1.29,1.51-3.22,2.27-5.73,2.27h-25.72c-.04.89-.11,1.76-.21,2.62h22.15c3.16,0,5.07,1.12,6.15,2.12,1.64,1.42,2.48,3.58,2.48,6.43v29.47c0,2.99-.89,5.2-2.65,6.56-1.48,1.19-3.43,1.79-5.91,1.79ZM18.03,61.68h41.2v-28.38h-27.28c-1.43,0-2.77-.68-3.62-1.83-.85-1.15-1.1-2.63-.68-4,.7-2.29,1.06-4.86,1.06-7.64v-2.66c0-2.49,2.01-4.5,4.5-4.5h28.54v-2.9H9v2.9h10.27c2.49,0,4.5,2.01,4.5,4.5v2.66c0,.05,0,.1,0,.15-.17,4.97-1.35,9.06-3.59,12.52-1.74,2.67-5.06,5.8-11.18,6.09v5.3h2.86c.18-.05.34-.09.47-.12l.1-.03c1.34-.34,2.77-.04,3.87.82,1.09.85,1.73,2.16,1.73,3.55v13.56ZM14.62,52.43h0s.01,0,.02-.01c0,0-.01,0-.02.01ZM49.66,59.54h-22.12c-2.49,0-4.5-2.01-4.5-4.5v-15.61c0-2.49,2.01-4.5,4.5-4.5h22.12c2.49,0,4.5,2.01,4.5,4.5v15.61c0,2.49-2.01,4.5-4.5,4.5ZM32.03,50.54h13.12v-6.61h-13.12v6.61Z"/><path class="cls-2" d="M135.46,70.82h-7c-2.81,0-4.5-1.16-5.44-2.18-1.35-1.4-2.07-3.14-2.07-5.05v-7.03c-.31.46-.68.89-1.1,1.28-1.4,1.35-3.18,2.06-5.18,2.06h-7c-2.09,0-3.94-.75-5.35-2.16-.85-.85-1.46-1.87-1.81-3.02-.9,4.03-2.55,7.27-4.98,9.81-3.9,4.08-8.29,6.15-13.05,6.15h-3.85c-.14,0-.27,0-.41-.02-1.52-.14-2.88-.68-4.18-1.65-.17-.13-.33-.27-.48-.42-1.34-1.34-2.02-3.02-2.02-5v-6.65c0-1.98.68-3.66,2.02-5,.15-.15.31-.29.48-.42,1.34-1,2.73-1.52,4.24-1.59.07-.07.18-.2.34-.42.13-.18.76-1.16.76-4.6V7.37c0-1.82.65-3.52,1.89-4.93,1.35-1.55,3.13-2.37,5.13-2.37h7.77c2.06,0,3.94.84,5.28,2.38.55.63.99,1.32,1.3,2.06.33-.79.79-1.53,1.37-2.2.13-.15.27-.29.42-.42,1.41-1.23,3.18-1.88,5.14-1.88h7c1.9,0,3.66.65,5.06,1.88.08.07.15.14.22.21.69.69,1.21,1.45,1.58,2.28.36-.83.89-1.59,1.58-2.28,1.35-1.35,3.25-2.09,5.35-2.09h7c1.91,0,3.66.65,5.07,1.88.07.07.15.13.22.2,1.41,1.41,2.16,3.17,2.16,5.07v56.43c0,1.95-.75,3.73-2.16,5.14-.95.95-2.64,2.09-5.28,2.09ZM129.95,61.82h3.95s0-52.82,0-52.82h-3.95v52.82ZM80.53,61.68h1.94c1.43,0,3.66-.35,6.55-3.37,2.19-2.29,3.3-6.26,3.3-11.8V9.07h-3.95v35.82c0,4.38-.76,7.48-2.38,9.75-1.69,2.48-3.71,3.57-5.46,4.01v3.02ZM78.62,58.91h0,0ZM109.16,50.89h3.95V9h-3.95v41.89ZM94.16,9.07h0,0Z"/><path class="cls-2" d="M209.63,70.75h-10.22s-.07,0-.11,0c-3.51-.08-6.37-.93-8.52-2.51-.14.17-.29.34-.44.49-.09.09-.19.18-.29.27-1.24,1.04-2.84,1.61-4.5,1.61h-7.7c-1.62,0-3.22-.54-4.43-1.5-.37-.28-.7-.6-1-.94-2.16,1.63-5.05,2.5-8.61,2.58-.04,0-.07,0-.11,0h-10.22c-2.01,0-3.87-.74-5.21-2.09-1.32-1.32-2.02-3.03-2.02-4.93v-3.85c0-1.91.7-3.61,2.02-4.93,1.03-1.03,2.34-1.7,3.8-1.96-1.44-.33-2.71-1.06-3.7-2.14-1.35-1.4-2.06-3.13-2.06-5.04V12.06c0-1.84.69-3.49,2.06-4.9.97-1.06,2.68-2.26,5.45-2.26h6.37c.37,0,.73.02,1.08.07.25-.91.67-1.72,1.27-2.44.09-.1.18-.2.27-.3,1.2-1.2,2.81-1.81,4.8-1.81h39.41c1.99,0,3.6.61,4.8,1.82.09.09.18.19.26.29,1.07,1.28,1.61,2.81,1.61,4.56v28.93c.56.27,1.12.64,1.62,1.14.1.09.19.19.27.3,1.08,1.29,1.61,3.08,1.61,5.47v2.8c0,1.88-.47,3.49-1.4,4.79-.08.11-.16.21-.24.31-.75.87-2.04,1.88-4.17,2.22,1.32.3,2.5.95,3.44,1.89,1.32,1.32,2.02,3.03,2.02,4.93v3.85c0,1.9-.7,3.61-2.01,4.93-1.35,1.35-3.2,2.09-5.22,2.09ZM199.47,61.75h3.48c-1.47-.25-2.8-.93-3.85-1.98-1.32-1.32-2.06-3.13-2.08-5.12h-1.57v3.9c0,1.15.2,2,.56,2.34.14.13.97.8,3.47.86ZM160.2,61.75h3.46c2.5-.07,3.33-.73,3.47-.87.35-.33.55-1.18.55-2.33v-3.9h-1.57c-.02,1.98-.76,3.8-2.09,5.13-1.05,1.05-2.36,1.72-3.82,1.97ZM179.97,61.61h3.25v-12.93c0-2.14,1.5-3.94,3.51-4.39h-10.27c2.01.45,3.51,2.25,3.51,4.39v12.93ZM155.33,44.17h6.83c-2.01-.45-3.51-2.25-3.51-4.39V13.9h-3.32v30.27ZM200.68,33.74h4.03V9.42h-3.87c.35.64.55,1.37.55,2.15v2.17c0,1.3-.55,2.47-1.43,3.29.88.82,1.43,1.99,1.43,3.29v2.17c0,1.28-.53,2.44-1.39,3.25.86.82,1.39,1.97,1.39,3.25v2.31c0,.89-.26,1.73-.71,2.43ZM170.03,33.74h3.96c-.45-.7-.71-1.53-.71-2.43v-2.31c0-1.28.53-2.44,1.39-3.25-.86-.82-1.39-1.97-1.39-3.25v-2.17c0-1.3.55-2.47,1.43-3.29-.88-.82-1.43-1.99-1.43-3.29v-2.17c0-.78.2-1.51.55-2.15h-3.8v24.32ZM207.09,9.42h0,0Z"/><path class="cls-3" d="M59.67,69.18H17.59c-1.78,0-3.33-.42-4.62-1.24-.04-.02-.07-.05-.11-.07-1.55-1.08-2.33-2.99-2.33-5.68v-10.79h-3.44c-.09,0-.18,0-.27-.01-1.35-.12-2.59-.64-3.58-1.49-.05-.05-.11-.1-.16-.15-1.05-1.05-1.58-2.37-1.58-3.94v-9.1c0-1.57.53-2.89,1.58-3.94.05-.05.11-.11.17-.16.99-.85,2.23-1.36,3.58-1.48.09,0,.18-.01.26-.01h.7c3.86.04,5.32-1.51,6.1-2.7,1.42-2.19,2.2-4.89,2.37-8.25H7.51c-.8,0-3.23,0-4.73-1.75-.06-.07-.11-.14-.16-.21-.75-1.06-1.12-2.36-1.12-3.98v-5.74c0-.05,0-.11,0-.16.11-2.04.52-3.38,1.32-4.35.06-.07.12-.14.18-.2,1.02-1.02,2.49-1.51,4.5-1.51h55.87c1.97,0,3.42.49,4.43,1.51.06.06.13.13.18.2.86,1.03,1.25,2.46,1.25,4.51v5.74c0,1.63-.37,2.93-1.12,3.98-.05.07-.11.14-.16.21-1.5,1.75-3.82,1.75-4.59,1.75h-27.17c-.02,1.95-.18,3.83-.48,5.62h23.87c2.2,0,3.93.59,5.16,1.75,1.97,1.69,1.97,4.41,1.97,5.31v29.47c0,.93,0,3.77-2.07,5.38-1.22.98-2.87,1.47-4.99,1.47ZM16.59,63.05c.27.08.61.12,1,.12h42.07c.51,0,.83-.04,1.02-.09.02-.17.04-.42.04-.76v-29.47c0-.51-.05-.8-.08-.94,0,0,0,0-.01-.01.03.03-.29-.11-1.04-.11h-27.65c-.95,0-1.85-.45-2.41-1.22s-.73-1.75-.45-2.66c.75-2.43,1.13-5.15,1.13-8.08v-2.66c0-1.66,1.34-3,3-3h30.04v-5.68c0-.08,0-.15,0-.22H7.52c0,.09-.02.19-.02.3v5.6h11.77c1.66,0,3,1.34,3,3v2.66s0,.07,0,.1c-.16,4.69-1.26,8.53-3.35,11.75-1.65,2.54-4.94,5.53-11.18,5.43h-.24v8.28s4.58,0,4.58,0c.23-.07.44-.12.61-.16l.12-.03c.9-.22,1.85-.03,2.58.54.73.57,1.16,1.44,1.16,2.37v14.07c0,.4.03.68.06.87ZM49.66,58.04h-22.12c-1.66,0-3-1.34-3-3v-15.61c0-1.66,1.34-3,3-3h22.12c1.66,0,3,1.34,3,3v15.61c0,1.66-1.34,3-3,3ZM30.53,52.04h16.12v-9.61h-16.12v9.61Z"/><path class="cls-3" d="M135.46,69.32h-7c-2.28,0-3.62-.91-4.35-1.71-1.08-1.11-1.66-2.5-1.66-4.02V7.16c0-1.5.59-2.88,1.72-4.01,1.06-1.07,2.59-1.65,4.29-1.65h7c1.54,0,2.95.52,4.08,1.51.05.04.1.09.14.14,1.12,1.12,1.72,2.51,1.72,4.01v56.43c0,1.55-.59,2.96-1.72,4.08-1.09,1.1-2.51,1.65-4.22,1.65ZM128.45,63.32h6.95V7.5h-6.95v55.82ZM82.47,69.18h-3.85c-.09,0-.18,0-.27-.01-1.64-.15-2.74-.85-3.42-1.36-.11-.09-.22-.18-.32-.28-1.05-1.05-1.58-2.37-1.58-3.94v-6.65c0-1.57.53-2.89,1.58-3.94.1-.1.21-.19.32-.28.73-.55,1.9-1.27,3.6-1.3.24-.02.66-.1,1.32-1.07.4-.57,1.02-1.95,1.02-5.45V7.37c0-1.47.51-2.79,1.52-3.94,1.06-1.22,2.45-1.86,4-1.86h7.77c1.65,0,3.08.64,4.15,1.87,1,1.14,1.51,2.47,1.51,3.93v39.13c0,7.64-1.76,13.2-5.38,16.99-3.61,3.77-7.64,5.69-11.97,5.69ZM79.03,63.18h3.44c2.71,0,5.13-1.22,7.63-3.83,2.47-2.58,3.72-6.9,3.72-12.84V7.57h-6.98l.03,37.32c0,4.06-.67,6.88-2.1,8.88-1.49,2.19-3.43,3.42-5.74,3.61v5.78ZM94.16,7.57h0,0ZM114.67,58.39h-7c-1.68,0-3.17-.59-4.29-1.72-.98-.98-1.57-2.28-1.71-3.74,0-.09-.01-.18-.01-.27V7.16c0-.1,0-.2.01-.29.13-1.33.66-2.53,1.57-3.57.09-.1.18-.19.28-.28,1.15-1,2.54-1.51,4.15-1.51h7c1.54,0,2.95.52,4.08,1.51.05.04.1.09.15.14,1.12,1.12,1.72,2.51,1.72,4.01v45.5c0,1.61-.62,3.02-1.79,4.08-1.12,1.08-2.55,1.65-4.15,1.65ZM107.66,52.39h6.95V7.5h-6.95v44.89Z"/><path class="cls-3" d="M209.63,69.25h-10.22c-3.76-.09-6.62-1.07-8.57-2.92-.15-.14-.3-.29-.44-.45-.24.68-.62,1.29-1.12,1.79-.06.06-.13.12-.2.18-.97.81-2.23,1.26-3.54,1.26h-7.7c-1.29,0-2.57-.43-3.52-1.19-.72-.54-1.24-1.26-1.55-2.11-.16.18-.33.35-.5.51-1.96,1.85-4.82,2.84-8.5,2.92h-10.29c-1.61,0-3.09-.58-4.15-1.65-1.05-1.05-1.58-2.35-1.58-3.87v-3.85c0-1.52.53-2.82,1.58-3.87,1.06-1.06,2.54-1.65,4.15-1.65h5.12v-1.62c0-.36.04-.71.11-1.06h-4.87c-1.75,0-3.26-.64-4.36-1.86-1.08-1.11-1.65-2.5-1.65-4.01V12.06c0-1.45.56-2.75,1.65-3.88.76-.83,2.12-1.79,4.36-1.79h6.37c.83,0,1.61.15,2.32.45.02-.92.21-2.19,1.18-3.36.06-.07.12-.13.18-.2,1.37-1.37,3.15-1.37,3.74-1.37h39.41c.59,0,2.37,0,3.74,1.38.06.06.12.13.18.19.85,1.01,1.26,2.19,1.26,3.6v29.05c0,.31-.02.6-.06.89.76.2,1.5.56,2.12,1.19.06.06.12.13.18.2.85,1.01,1.26,2.49,1.26,4.51v2.8c0,1.56-.38,2.88-1.12,3.92-.05.07-.11.14-.16.21-.71.83-2.08,1.82-4.59,1.82h-5.43c.07.35.1.7.1,1.06v1.62h5.12c1.61,0,3.09.58,4.15,1.65,1.05,1.05,1.58,2.35,1.58,3.87v3.85c0,1.52-.53,2.82-1.58,3.87-1.06,1.07-2.54,1.65-4.15,1.65ZM193.94,53.14v5.4c0,1.63.34,2.78,1.02,3.42.82.77,2.42,1.23,4.52,1.28h9.88v-2.89h-5.12c-1.57,0-3.02-.59-4.08-1.66-1.06-1.06-1.65-2.53-1.65-4.15v-1.41h-4.57ZM153.76,63.24h9.95c2.02-.04,3.63-.5,4.45-1.27.68-.64,1.02-1.8,1.02-3.42v-5.4h-4.57v1.41c0,1.62-.59,3.09-1.65,4.16-1.08,1.08-2.49,1.65-4.08,1.65h-5.12v2.88ZM178.47,63.11h6.25v-14.43c0-1.66,1.34-3,3-3h21.99v-2.74c0-.05,0-.1,0-.15h-46.56c-1.66,0-3-1.34-3-3V12.4h-6.31s0,0-.01,0v33.27h21.64c1.66,0,3,1.34,3,3v14.43ZM168.53,35.24h37.68V7.92s-37.68,0-37.68,0v27.32ZM207.23,7.93h0,0ZM196.89,34.31h-19.11c-1.66,0-3-1.34-3-3v-2.31c0-1.66,1.34-3,3-3h19.11c1.66,0,3,1.34,3,3v2.31c0,1.66-1.34,3-3,3ZM196.89,25.49h-19.11c-1.66,0-3-1.34-3-3v-2.17c0-1.66,1.34-3,3-3h19.11c1.66,0,3,1.34,3,3v2.17c0,1.66-1.34,3-3,3ZM196.89,16.74h-19.11c-1.66,0-3-1.34-3-3v-2.17c0-1.66,1.34-3,3-3h19.11c1.66,0,3,1.34,3,3v2.17c0,1.66-1.34,3-3,3Z"/><path class="cls-2" d="M17.59,66.18c-1.26,0-2.24-.28-3.01-.77-.7-.49-1.05-1.61-1.05-3.22v-14.07c-.28.07-.63.14-.91.28h-5.53c-.77-.07-1.4-.35-1.89-.77-.49-.49-.7-1.05-.7-1.82v-9.1c0-.77.21-1.33.7-1.82.49-.42,1.12-.7,1.89-.77h.7c3.92.07,6.79-1.26,8.61-4.06,1.82-2.8,2.73-6.16,2.87-10.22v-2.66H7.51c-1.19,0-2.03-.21-2.45-.7-.35-.49-.56-1.19-.56-2.24v-5.74c.07-1.33.28-2.17.63-2.59.42-.42,1.19-.63,2.38-.63h55.87c1.12,0,1.89.21,2.31.63.35.42.56,1.26.56,2.59v5.74c0,1.05-.21,1.75-.56,2.24-.42.49-1.19.7-2.31.7h-30.17v2.66c0,3.22-.42,6.23-1.26,8.96h27.65c1.47,0,2.52.35,3.15.98.7.56.98,1.61.98,3.08v29.47c0,1.47-.28,2.52-.91,3.01-.7.56-1.68.84-3.15.84H17.59ZM49.65,55.04v-15.61h-22.12v15.61h22.12Z"/><path class="cls-2" d="M94.16,4.57c.77,0,1.4.28,1.89.84.49.56.77,1.19.77,1.96v39.13c0,6.72-1.47,11.69-4.55,14.91-3.08,3.22-6.3,4.76-9.8,4.76h-3.85c-.77-.07-1.33-.35-1.89-.77-.49-.49-.7-1.05-.7-1.82v-6.65c0-.77.21-1.33.7-1.82.56-.42,1.12-.7,1.89-.7,1.47-.07,2.66-.84,3.71-2.38,1.05-1.47,1.54-3.85,1.54-7.14V7.37c0-.77.28-1.4.77-1.96.49-.56,1.05-.84,1.75-.84h7.77ZM116.77,54.55c-.56.56-1.26.84-2.1.84h-7c-.91,0-1.61-.28-2.17-.84-.49-.49-.77-1.12-.84-1.89V7.16c.07-.7.35-1.33.84-1.89.56-.49,1.26-.77,2.17-.77h7c.84,0,1.54.28,2.1.77.56.56.84,1.19.84,1.89v45.5c0,.77-.28,1.4-.84,1.89ZM137.56,65.54c-.56.56-1.26.77-2.1.77h-7c-.91,0-1.68-.21-2.17-.77-.56-.56-.84-1.19-.84-1.96V7.16c0-.7.28-1.33.84-1.89.49-.49,1.26-.77,2.17-.77h7c.84,0,1.54.28,2.1.77.56.56.84,1.19.84,1.89v56.43c0,.77-.28,1.4-.84,1.96Z"/><path class="cls-2" d="M169.66,50.14c.7.07,1.33.28,1.75.77.49.49.77,1.12.77,1.82v5.81c0,2.45-.63,4.34-1.96,5.6-1.33,1.26-3.5,2.03-6.51,2.1h-10.22c-.84,0-1.54-.28-2.03-.77s-.7-1.05-.7-1.75v-3.85c0-.7.21-1.26.7-1.75s1.19-.77,2.03-.77h5.39c.84,0,1.47-.28,1.96-.77.49-.49.77-1.19.77-2.03v-1.82c0-.7.28-1.33.77-1.82.49-.49,1.12-.7,1.82-.77h5.46ZM187.72,48.67v15.26c0,.7-.21,1.26-.56,1.61-.42.35-.98.56-1.61.56h-7.7c-.63,0-1.26-.21-1.68-.56-.49-.35-.7-.91-.7-1.61v-15.26h-21.63c-.98,0-1.68-.35-2.17-.91-.56-.56-.84-1.19-.84-1.96V12.06c0-.7.28-1.26.84-1.82.49-.56,1.19-.84,2.17-.84h6.37c.84,0,1.54.28,2.1.84s.84,1.12.84,1.82v27.72h46.69c1.12,0,1.89.14,2.31.56.35.42.56,1.33.56,2.59v2.8c0,.98-.21,1.68-.56,2.17-.42.49-1.19.77-2.31.77h-22.12ZM208.65,5.41c.35.42.56.91.56,1.68v29.05c0,.7-.21,1.26-.56,1.61-.35.35-.84.49-1.61.49h-39.41c-.77,0-1.26-.14-1.61-.49-.35-.35-.49-.91-.49-1.61V7.09c0-.77.14-1.26.49-1.68.35-.35.84-.49,1.61-.49h39.41c.77,0,1.26.14,1.61.49ZM196.89,11.57h-19.11v2.17h19.11v-2.17ZM196.89,20.32h-19.11v2.17h19.11v-2.17ZM196.89,29h-19.11v2.31h19.11v-2.31ZM200.74,50.91c.49.49.77,1.12.77,1.82v1.82c0,.84.28,1.54.77,2.03.49.49,1.19.77,1.96.77h5.39c.84,0,1.54.28,2.03.77.49.49.7,1.05.7,1.75v3.85c0,.7-.21,1.26-.7,1.75-.49.49-1.19.77-2.03.77h-10.22c-3.01-.07-5.18-.84-6.51-2.1-1.33-1.26-1.96-3.15-1.96-5.6v-5.81c0-.7.28-1.33.77-1.82.42-.49,1.05-.7,1.75-.77h5.46c.7.07,1.33.28,1.82.77Z"/></g></svg>