<?xml version="1.0" encoding="UTF-8"?><svg id="_レイヤー_2" xmlns="http://www.w3.org/2000/svg" viewBox="0 0 291.07 71.45"><defs><style>.cls-1,.cls-2,.cls-3{stroke-width:0px;}.cls-2{fill:#198caa;}.cls-3{fill:#fff;}</style></defs><g id="_レイヤー_4"><path class="cls-1" d="M66.04,40.55c-.35.42-1.19.56-2.45.56H22.28v6.23c0,6.72-1.33,11.69-3.99,14.91-2.73,3.15-6.44,4.76-11.2,4.69-.77,0-1.33-.28-1.82-.7-.56-.49-.77-1.05-.77-1.82v-6.65c0-.77.21-1.33.77-1.82.49-.42,1.05-.7,1.82-.77,1.47-.07,2.52-.84,3.29-2.31.77-1.47,1.12-3.85,1.12-7.14V12.62c0-1.33.21-2.17.63-2.59.42-.42,1.19-.63,2.24-.63h20.09v-2.24c.07-.7.35-1.33.91-1.82.49-.56,1.19-.84,2.1-.84h5.88c.84,0,1.54.28,2.1.84.56.49.84,1.12.84,1.82v2.24h17.99c1.19,0,2.03.21,2.38.63.42.42.63,1.26.63,2.59v3.01c0,.98-.21,1.75-.63,2.24-.35.49-1.19.7-2.38.7h-11.69v2.1h10.99c1.26,0,2.1.21,2.52.56.42.35.63,1.12.49,2.17v14.98c0,1.12-.14,1.82-.56,2.17ZM27.11,18.57h-4.83v2.1h4.83v-2.1ZM27.11,29.91h-4.83v1.89h4.83v-1.89ZM24.45,66.32c-.35-.35-.56-.91-.56-1.75v-18.83c0-1.12.21-1.82.56-2.24.42-.35,1.19-.49,2.38-.49h5.18c1.12,0,1.82.14,2.24.42.35.35.49,1.12.49,2.31v.35h6.58c1.19,0,1.96.21,2.38.56.42.42.63,1.33.63,2.59v3.01c0,1.05-.21,1.75-.63,2.24-.42.49-1.19.7-2.38.7h-6.58v.91c0,.98.49,1.54,1.4,1.54h5.18c1.12,0,1.82.14,2.24.49.42.42.63,1.12.63,2.24v4.2c0,.84-.21,1.4-.63,1.75s-1.12.49-2.24.49h-14.49c-1.19,0-1.96-.14-2.38-.49ZM41.6,20.67v-2.1h-3.5v2.1h3.5ZM41.6,31.8v-1.89h-3.5v1.89h3.5ZM46.64,66.32c-.42-.35-.56-.91-.56-1.75v-18.83c0-1.12.14-1.82.56-2.24.35-.35,1.19-.49,2.38-.49h5.18c1.05,0,1.82.14,2.17.42.35.35.56,1.12.56,2.31v.35h6.58c1.12,0,1.96.21,2.38.56.42.42.63,1.33.63,2.59v3.01c0,1.05-.21,1.75-.63,2.24-.42.49-1.26.7-2.38.7h-6.58v.91c0,.98.42,1.54,1.33,1.54h5.25c1.05,0,1.82.14,2.24.49.42.42.63,1.12.63,2.24v4.2c0,.84-.21,1.4-.63,1.75-.42.35-1.19.49-2.24.49h-14.49c-1.19,0-2.03-.14-2.38-.49ZM55.75,29.91h-3.15v1.89h3.15v-1.89Z"/><path class="cls-1" d="M103.04,42.86c.7,0,1.33.28,1.82.84.49.56.77,1.19.77,1.96v2.8c.07,5.74-1.47,10.29-4.48,13.51-3.08,3.22-7.14,4.76-12.25,4.76h-8.54c-.77-.07-1.33-.35-1.89-.77-.49-.49-.7-1.05-.7-1.82v-5.32c0-.7.21-1.33.7-1.75.56-.49,1.12-.7,1.89-.77h2.94c3.64-.07,6.16-.98,7.49-2.73,1.26-1.82,1.96-3.71,1.96-5.67v-2.24c0-.77.21-1.4.7-1.96.49-.56,1.12-.84,1.82-.84h7.77ZM93.31,40.13c-.56.49-1.26.77-2.1.77h-7c-.91,0-1.61-.28-2.1-.77-.56-.56-.84-1.19-.91-1.96V8.28c.07-.7.35-1.33.91-1.89.49-.56,1.19-.84,2.1-.84h7c.84,0,1.54.28,2.1.84s.84,1.19.84,1.89v29.89c0,.77-.28,1.4-.84,1.96ZM132.3,5.55c1.26,0,2.24.28,3.01.77.7.49,1.12,1.61,1.12,3.22v27.37c0,1.47-.42,2.52-1.12,3.15-.7.63-1.68.91-2.94.91h-30.59c-1.4,0-2.52-.28-3.15-.91-.63-.63-.98-1.61-.98-3.08V9.4c0-1.47.28-2.52.91-3.01.7-.56,1.75-.84,3.15-.84h30.59ZM109.76,66.32c-.35-.35-.56-.91-.56-1.75v-18.83c0-1.12.21-1.82.56-2.24.42-.35,1.19-.49,2.38-.49h7.07c1.12,0,1.82.14,2.24.42.35.35.49,1.12.49,2.31v9.03c0,.98.49,1.47,1.4,1.47h13.65c1.12,0,1.89.21,2.31.56.35.35.56,1.12.56,2.17v5.6c0,.84-.21,1.4-.56,1.75-.42.35-1.19.49-2.31.49h-24.85c-1.19,0-1.96-.14-2.38-.49ZM110.46,18.64h13.09v-4.2h-13.09v4.2ZM110.46,32.01h13.09v-4.13h-13.09v4.13Z"/><path class="cls-1" d="M192.17,64.78h-39.06c-.77,0-1.33-.14-1.68-.49-.42-.35-.56-.84-.56-1.47v-13.37c0-.84.21-1.47.63-1.89.42-.49,1.05-.77,1.89-.98h3.57V11.92c0-.63.14-1.19.56-1.47.35-.35.98-.49,1.82-.49h11.76l1.47-2.8c.49-.98.98-1.61,1.47-1.96.42-.35,1.12-.49,2.03-.49h9.45c1.05,0,1.89.28,2.31.77.49.49.35,1.26-.28,2.24l-1.33,2.24h20.58c.84,0,1.47.14,1.82.49.42.28.63.84.63,1.47v17.99c0,.77-.21,1.26-.63,1.61-.35.35-.98.49-1.82.49h-35.98v1.82h40.67c.7,0,1.19.21,1.54.63s.49,1.33.49,2.73-.14,2.38-.49,2.73c-.35.42-.84.56-1.54.56h-40.67v1.89h35.56c2.24,0,3.78.42,4.76,1.33.98.91,1.47,2.52,1.47,4.83v12.95c0,2.1-.56,3.43-1.54,4.2-1.05.7-2.59,1.12-4.69,1.12h-9.87c-.63,0-1.19-.28-1.68-.7-.49-.49-.77-1.05-.84-1.82-.35.35-.98.49-1.82.49ZM165.98,55.68v-5.88h-2.73v5.88h2.73ZM197.21,16.05h-26.39v1.89h26.39v-1.89ZM197.21,24.03h-26.39v1.89h26.39v-1.89ZM179.5,55.68h2.66v-5.88h-2.66v5.88ZM196.58,56.66h1.89c1.26.07,1.89-.84,1.89-2.59v-2.73c-.21-.91-.91-1.4-1.96-1.54h-3.85v7.63c.21-.28.42-.42.7-.49.35-.14.77-.21,1.33-.28Z"/><path class="cls-1" d="M243.52,50.71c.7.07,1.33.28,1.75.77.49.49.77,1.12.77,1.82v5.81c0,2.45-.63,4.34-1.96,5.6-1.33,1.26-3.5,2.03-6.51,2.1h-10.22c-.84,0-1.54-.28-2.03-.77s-.7-1.05-.7-1.75v-3.85c0-.7.21-1.26.7-1.75s1.19-.77,2.03-.77h5.39c.84,0,1.47-.28,1.96-.77.49-.49.77-1.19.77-2.03v-1.82c0-.7.28-1.33.77-1.82.49-.49,1.12-.7,1.82-.77h5.46ZM261.58,49.23v15.26c0,.7-.21,1.26-.56,1.61-.42.35-.98.56-1.61.56h-7.7c-.63,0-1.26-.21-1.68-.56-.49-.35-.7-.91-.7-1.61v-15.26h-21.63c-.98,0-1.68-.35-2.17-.91-.56-.56-.84-1.19-.84-1.96V12.62c0-.7.28-1.26.84-1.82.49-.56,1.19-.84,2.17-.84h6.37c.84,0,1.54.28,2.1.84s.84,1.12.84,1.82v27.72h46.69c1.12,0,1.89.14,2.31.56.35.42.56,1.33.56,2.59v2.8c0,.98-.21,1.68-.56,2.17-.42.49-1.19.77-2.31.77h-22.12ZM282.51,5.97c.35.42.56.91.56,1.68v29.05c0,.7-.21,1.26-.56,1.61-.35.35-.84.49-1.61.49h-39.41c-.77,0-1.26-.14-1.61-.49-.35-.35-.49-.91-.49-1.61V7.65c0-.77.14-1.26.49-1.68.35-.35.84-.49,1.61-.49h39.41c.77,0,1.26.14,1.61.49ZM270.75,12.13h-19.11v2.17h19.11v-2.17ZM270.75,20.88h-19.11v2.17h19.11v-2.17ZM270.75,29.56h-19.11v2.31h19.11v-2.31ZM274.6,51.47c.49.49.77,1.12.77,1.82v1.82c0,.84.28,1.54.77,2.03.49.49,1.19.77,1.96.77h5.39c.84,0,1.54.28,2.03.77.49.49.7,1.05.7,1.75v3.85c0,.7-.21,1.26-.7,1.75-.49.49-1.19.77-2.03.77h-10.22c-3.01-.07-5.18-.84-6.51-2.1-1.33-1.26-1.96-3.15-1.96-5.6v-5.81c0-.7.28-1.33.77-1.82.42-.49,1.05-.7,1.75-.77h5.46c.7.07,1.33.28,1.82.77Z"/><path class="cls-2" d="M7.39,71.45c-.12,0-.24,0-.36,0h0c-1.71,0-3.3-.6-4.68-1.79-1.08-.95-2.34-2.6-2.34-5.24v-6.65c0-2.64,1.25-4.29,2.31-5.21,1.21-1.04,2.58-1.65,4.11-1.83.14-.32.58-1.56.58-5V12.62c0-1.64.2-4.03,1.95-5.77,1.3-1.29,3.12-1.95,5.42-1.95h16.02c.38-1.04.98-1.98,1.81-2.75,1.33-1.39,3.19-2.15,5.28-2.15h5.88c1.99,0,3.78.71,5.18,2.05.88.8,1.52,1.77,1.89,2.85h13.87c2.53,0,4.44.7,5.69,2.08,1.62,1.73,1.82,4.04,1.82,5.64v3.01c0,1.73-.39,3.22-1.16,4.43.43,1.06.59,2.28.46,3.59v14.73c0,.98,0,3.49-1.81,5.3,1.17,1.3,1.74,3.12,1.74,5.56v3.01c0,1.64-.33,3.01-1,4.17.86,1.62.86,3.3.86,3.95v4.2c0,2.76-1.22,4.35-2.25,5.21-1.65,1.37-3.71,1.53-5.12,1.53h-14.49c-1.21,0-2.63-.1-3.93-.69-1.29.59-2.65.69-3.77.69h-14.49c-1.59,0-3.63-.17-5.26-1.53-.1-.09-.2-.18-.3-.27-.52-.52-1.11-1.3-1.48-2.4-3.33,2.88-7.49,4.34-12.41,4.34ZM7.09,62.45s.03,0,.04,0c-.01,0-.02,0-.04,0ZM9,59.43v2.93c2.46-.29,4.33-1.27,5.85-3,1.94-2.38,2.93-6.42,2.93-12.01v-6.23c0-2.49,2.01-4.5,4.5-4.5h39.81v-11.44h-9.5c-2.49,0-4.5-2.01-4.5-4.5v-2.1c0-2.49,2.01-4.5,4.5-4.5h10.2v-.17h-16.5c-2.49,0-4.5-2.01-4.5-4.5v-.4h-2.83v.4c0,2.49-2.01,4.5-4.5,4.5h-18.46v31.83c0,4.17-.52,7.1-1.63,9.23-1.22,2.34-3.09,3.88-5.37,4.46ZM50.58,62.31h11.3v-.17h-3.62c-3.38,0-5.83-2.54-5.83-6.04v-.91c0-2.49,2.01-4.5,4.5-4.5h5.09v-.1h-5.09c-1.99,0-3.68-1.29-4.27-3.08h-2.08v14.8ZM28.39,62.31h11.3v-.17h-3.55c-3.42,0-5.9-2.54-5.9-6.04v-.91c0-2.49,2.01-4.5,4.5-4.5h5.09v-.1h-5.09c-1.99,0-3.68-1.29-4.27-3.08h-2.08v14.8ZM55.75,36.3h-3.15c-2.49,0-4.5-2.01-4.5-4.5v-1.89c0-2.49,2.01-4.5,4.5-4.5h3.15c2.49,0,4.5,2.01,4.5,4.5v1.89c0,2.49-2.01,4.5-4.5,4.5ZM41.6,36.3h-3.5c-2.49,0-4.5-2.01-4.5-4.5v-1.89c0-2.49,2.01-4.5,4.5-4.5h3.5c2.49,0,4.5,2.01,4.5,4.5v1.89c0,2.49-2.01,4.5-4.5,4.5ZM27.11,36.3h-4.83c-2.49,0-4.5-2.01-4.5-4.5v-1.89c0-2.49,2.01-4.5,4.5-4.5h4.83c2.49,0,4.5,2.01,4.5,4.5v1.89c0,2.49-2.01,4.5-4.5,4.5ZM41.6,25.17h-3.5c-2.49,0-4.5-2.01-4.5-4.5v-2.1c0-2.49,2.01-4.5,4.5-4.5h3.5c2.49,0,4.5,2.01,4.5,4.5v2.1c0,2.49-2.01,4.5-4.5,4.5ZM27.11,25.17h-4.83c-2.49,0-4.5-2.01-4.5-4.5v-2.1c0-2.49,2.01-4.5,4.5-4.5h4.83c2.49,0,4.5,2.01,4.5,4.5v2.1c0,2.49-2.01,4.5-4.5,4.5Z"/><path class="cls-2" d="M137,71.31h-24.85c-1.59,0-3.63-.17-5.26-1.53-.1-.09-.2-.18-.3-.27-.84-.83-1.83-2.33-1.88-4.74-.09.1-.18.19-.26.29-3.94,4.12-9.15,6.19-15.54,6.19h-8.54c-.14,0-.27,0-.41-.02-1.52-.14-2.88-.68-4.18-1.65-.17-.13-.33-.27-.48-.42-1.34-1.34-2.02-3.02-2.02-5v-5.32c0-2.08.81-3.91,2.27-5.17,1.22-1.07,2.67-1.68,4.41-1.83.14-.01.27-.02.41-.02h2.94c2.43-.05,3.56-.58,3.87-.91.73-1.08,1.08-2.06,1.08-2.99v-2.24c0-.09,0-.17,0-.26h-4.04c-2.09,0-3.92-.72-5.29-2.09-1.3-1.29-2.04-2.89-2.21-4.73-.01-.13-.02-.27-.02-.4V8.28c0-.15,0-.3.02-.44.17-1.71.9-3.27,2.11-4.53,1.34-1.46,3.24-2.26,5.38-2.26h7c1.79,0,3.42.57,4.74,1.67,1.45-1.09,3.4-1.67,5.76-1.67h30.59c2.06,0,3.89.5,5.43,1.47.06.04.11.07.17.11,1.13.79,3.04,2.75,3.04,6.91v27.37c0,3.42-1.42,5.42-2.6,6.49-1.53,1.38-3.54,2.07-5.96,2.07h-5.93c0,.09,0,.17,0,.26v6h10.55c2.17,0,3.91.54,5.19,1.6.11.09.21.18.3.28,1.25,1.25,1.88,3.05,1.88,5.35v5.6c0,2.52-1.02,4.08-1.88,4.93-.1.1-.2.19-.3.28-1.65,1.37-3.75,1.53-5.19,1.53ZM113.7,62.31h21.66v-1.57h-12.02c-3.42,0-5.9-2.51-5.9-5.97v-7.26h-3.74v14.8ZM82.27,62.24h6.63c3.94,0,6.8-1.07,9-3.37,2.19-2.34,3.29-5.84,3.23-10.35v-1.16h-3.88v.54c0,2.82-.93,5.59-2.76,8.23-.04.05-.08.11-.12.16-2.2,2.9-5.9,4.41-10.99,4.51h-1.12v1.43ZM103.04,47.36h0,0ZM124.15,36.47h7.79V10.05h-7.39c2.01.45,3.51,2.25,3.51,4.39v4.2c0,2.49-2.01,4.5-4.5,4.5h-13.09c-2.49,0-4.5-2.01-4.5-4.5v-4.2c0-2.14,1.5-3.94,3.51-4.39h-7.32v26.42h7.71c-2.2-.29-3.9-2.18-3.9-4.46v-4.13c0-2.49,2.01-4.5,4.5-4.5h13.09c2.49,0,4.5,2.01,4.5,4.5v4.13c0,2.28-1.7,4.17-3.9,4.46ZM85.7,36.4h3.95V10.05h-3.95v26.35Z"/><path class="cls-2" d="M206.38,71.31h-9.87c-1.66,0-3.25-.62-4.62-1.79-.08-.07-.16-.15-.24-.22,0,0-.01-.01-.02-.02h-38.53c-1.95,0-3.53-.56-4.72-1.67-.96-.85-2.02-2.35-2.02-4.79v-13.37c0-2.46.96-4.03,1.82-4.94,1.31-1.46,2.96-2.01,4.1-2.29.05-.01.11-.03.17-.04V11.92c0-2.67,1.23-4.17,2.18-4.93,1.17-1.01,2.75-1.52,4.7-1.52h9.04l.21-.39c.74-1.49,1.64-2.64,2.71-3.44,1.22-.95,2.78-1.42,4.77-1.42h9.45c2.34,0,4.33.79,5.63,2.23.71.76,1.26,1.8,1.42,3.02h14.23c1.93,0,3.5.5,4.67,1.5,1.46,1.14,2.28,2.92,2.28,4.96v17.78c1.07.37,2,1,2.73,1.88,1.35,1.62,1.54,3.75,1.54,5.61,0,2.06-.21,4.18-1.66,5.76-.07.08-.14.16-.22.24.65,1.49.97,3.27.97,5.35v12.95c0,3.44-1.1,6.04-3.26,7.74-.09.07-.18.14-.28.2-1.87,1.25-4.29,1.88-7.19,1.88ZM198.03,62.31h8.35c.81,0,1.35-.09,1.7-.18.02-.16.04-.37.04-.64v-12.95c0-.79-.08-1.26-.14-1.52-.26-.06-.75-.15-1.59-.15h-3.73c1.04.86,1.77,2.04,2.09,3.45.08.33.12.67.12,1.02v2.73c0,2.33-.7,4.16-2.07,5.46-1.17,1.11-2.72,1.68-4.41,1.63h-1.16c.33.34.6.73.81,1.15ZM190.81,61.1s0,0,0,0c0,0,0,0,0,0ZM155.36,60.27h35.7c-.64-.78-1.02-1.78-1.02-2.85v-7.63c0-1.12.41-2.14,1.08-2.92h-5.55c.67.79,1.08,1.81,1.08,2.92v5.88c0,2.49-2.01,4.5-4.5,4.5h-2.66c-2.49,0-4.5-2.01-4.5-4.5v-5.88c0-1.12.41-2.14,1.08-2.92h-5.26c-.62,0-1.21-.12-1.74-.35.87.82,1.41,1.98,1.41,3.27v5.88c0,2.49-2.01,4.5-4.5,4.5h-2.73c-2.49,0-4.5-2.01-4.5-4.5v-4.98c-.55.24-1.16.38-1.8.38h-1.59v9.2ZM161.45,14.46v31.21c.55-.24,1.16-.38,1.8-.38h2.73c.62,0,1.21.12,1.74.35-.87-.82-1.41-1.98-1.41-3.27v-1.89c0-1.32.57-2.5,1.47-3.33-.9-.82-1.47-2.01-1.47-3.33v-1.82c0-1.17.45-2.24,1.19-3.05-.74-.8-1.19-1.87-1.19-3.05v-1.89c0-1.17.45-2.24,1.19-3.04-.74-.8-1.19-1.87-1.19-3.04v-1.89c0-.56.1-1.1.29-1.59h-5.15ZM201.42,27.51h3.33v-13.05h-3.33c.19.49.29,1.03.29,1.59v1.89c0,1.17-.45,2.24-1.19,3.04.74.8,1.19,1.87,1.19,3.04v1.89c0,.56-.1,1.1-.29,1.59ZM175.34,11.55h6.66c-.28-.75-.36-1.56-.23-2.34h-5.21s-1.23,2.34-1.23,2.34Z"/><path class="cls-2" d="M283.49,71.31h-10.22s-.07,0-.11,0c-3.51-.08-6.37-.93-8.52-2.51-.14.17-.29.34-.44.49-.09.09-.19.18-.29.27-1.24,1.04-2.84,1.61-4.5,1.61h-7.7c-1.62,0-3.22-.54-4.43-1.5-.37-.28-.7-.6-1-.94-2.16,1.63-5.05,2.5-8.61,2.58-.04,0-.07,0-.11,0h-10.22c-2.01,0-3.87-.74-5.21-2.09-1.32-1.32-2.02-3.03-2.02-4.93v-3.85c0-1.91.7-3.61,2.02-4.93,1.03-1.03,2.34-1.7,3.8-1.96-1.44-.33-2.71-1.06-3.7-2.14-1.35-1.4-2.06-3.13-2.06-5.04V12.62c0-1.84.69-3.49,2.06-4.9.97-1.06,2.68-2.26,5.45-2.26h6.37c.37,0,.73.02,1.08.07.25-.91.67-1.72,1.27-2.44.09-.1.18-.2.27-.3,1.2-1.2,2.81-1.81,4.8-1.81h39.41c1.99,0,3.6.61,4.8,1.82.09.09.18.19.26.29,1.07,1.28,1.61,2.81,1.61,4.56v28.93c.56.27,1.12.64,1.62,1.14.1.09.19.19.27.3,1.08,1.29,1.61,3.08,1.61,5.47v2.8c0,1.88-.47,3.49-1.4,4.79-.08.11-.16.21-.24.31-.75.87-2.04,1.88-4.17,2.22,1.32.3,2.5.95,3.44,1.89,1.32,1.32,2.02,3.03,2.02,4.93v3.85c0,1.9-.7,3.61-2.01,4.93-1.35,1.35-3.2,2.09-5.22,2.09ZM273.33,62.31h3.48c-1.47-.25-2.8-.93-3.85-1.98-1.32-1.32-2.06-3.13-2.08-5.12h-1.57v3.9c0,1.15.2,2,.56,2.34.14.13.97.8,3.47.86ZM234.05,62.31h3.46c2.5-.07,3.33-.73,3.47-.87.35-.33.55-1.18.55-2.33v-3.9h-1.57c-.02,1.98-.76,3.8-2.09,5.13-1.05,1.05-2.36,1.72-3.82,1.97ZM253.83,62.17h3.25v-12.93c0-2.14,1.5-3.94,3.51-4.39h-10.27c2.01.45,3.51,2.25,3.51,4.39v12.93ZM229.18,44.73h6.83c-2.01-.45-3.51-2.25-3.51-4.39V14.46h-3.32v30.27ZM274.54,34.3h4.03V9.98h-3.87c.35.64.55,1.37.55,2.15v2.17c0,1.3-.55,2.47-1.43,3.29.88.82,1.43,1.99,1.43,3.29v2.17c0,1.28-.53,2.44-1.39,3.25.86.82,1.39,1.97,1.39,3.25v2.31c0,.89-.26,1.73-.71,2.43ZM243.89,34.3h3.96c-.45-.7-.71-1.53-.71-2.43v-2.31c0-1.28.53-2.44,1.39-3.25-.86-.82-1.39-1.97-1.39-3.25v-2.17c0-1.3.55-2.47,1.43-3.29-.88-.82-1.43-1.99-1.43-3.29v-2.17c0-.78.2-1.51.55-2.15h-3.8v24.32ZM280.95,9.98h0,0Z"/><path class="cls-3" d="M7.38,69.95c-.11,0-.22,0-.34,0h0c-1.36,0-2.63-.48-3.73-1.42-1.21-1.06-1.82-2.43-1.82-4.1v-6.65c0-1.66.6-3.04,1.8-4.08,1.04-.89,2.18-1.38,3.52-1.5.04,0,.09,0,.13,0,.22-.01.42-.02.78-.71.29-.56.78-2.04.78-5.75V12.62c0-1.38.16-3.36,1.51-4.71,1-1,2.47-1.51,4.36-1.51h17.17c.22-1.25.8-2.34,1.71-3.19.77-.82,2.1-1.71,4.22-1.71h5.88c1.6,0,3.04.57,4.15,1.65.96.87,1.56,2,1.74,3.25h15.04c2.12,0,3.63.53,4.59,1.6,1.27,1.35,1.42,3.27,1.42,4.62v3.01c0,1.69-.43,3.06-1.28,4.1-.05.06-.09.12-.14.17.61.98.87,2.25.72,3.67v14.81c0,.89,0,2.92-1.44,4.29-.43.45-.93.76-1.47.97.42.18.8.41,1.13.69.07.06.13.12.2.18,1.02,1.02,1.51,2.56,1.51,4.71v3.01c0,1.73-.43,3.09-1.31,4.14,1.17,1.47,1.17,3.33,1.17,3.98v4.2c0,2.18-.93,3.41-1.71,4.06-1.28,1.06-2.99,1.18-4.16,1.18h-14.49c-1.32,0-2.78-.12-3.93-.9-1.19.79-2.62.9-3.77.9h-14.49c-1.42,0-3.05-.14-4.3-1.18-.07-.06-.13-.12-.2-.18-.66-.66-1.44-1.86-1.44-3.87v-.76c-.09.12-.19.24-.29.36-3.34,3.85-7.77,5.78-13.22,5.78ZM7.5,58.16v5.78c3.64-.03,6.42-1.23,8.52-3.66,2.15-2.6,3.26-6.97,3.26-12.95v-6.23c0-1.66,1.34-3,3-3h41.31v-14.44h-11c-1.66,0-3-1.34-3-3v-2.1c0-1.66,1.34-3,3-3h11.7v-2.95c0-.08,0-.15,0-.22h-18c-1.66,0-3-1.34-3-3v-1.9h-5.82s0,0-.01,0v1.9c0,1.66-1.34,3-3,3H14.5c0,.07,0,.14,0,.22v33.11c0,3.92-.46,6.63-1.46,8.53-1.53,2.93-3.81,3.75-5.54,3.9ZM49.08,63.81h14.3v-3.17h-5.12c-2.55,0-4.33-1.87-4.33-4.54v-.91c0-1.66,1.34-3,3-3h6.59v-2.95c0-.05,0-.1,0-.15h-6.59c-1.66,0-3-1.34-3-3v-.08h-4.85v17.8ZM26.89,63.81h14.3v-3.17h-5.05c-2.55,0-4.4-1.91-4.4-4.54v-.91c0-1.66,1.34-3,3-3h6.59v-2.95c0-.05,0-.1,0-.15h-6.59c-1.66,0-3-1.34-3-3v-.08h-4.85v17.8ZM5.27,55.96l1.97,2.26s.02-.02.03-.03c-.02,0-.03,0-.05,0v-.15s-1.96-2.07-1.96-2.07ZM55.75,34.8h-3.15c-1.66,0-3-1.34-3-3v-1.89c0-1.66,1.34-3,3-3h3.15c1.66,0,3,1.34,3,3v1.89c0,1.66-1.34,3-3,3ZM41.6,34.8h-3.5c-1.66,0-3-1.34-3-3v-1.89c0-1.66,1.34-3,3-3h3.5c1.66,0,3,1.34,3,3v1.89c0,1.66-1.34,3-3,3ZM27.11,34.8h-4.83c-1.66,0-3-1.34-3-3v-1.89c0-1.66,1.34-3,3-3h4.83c1.66,0,3,1.34,3,3v1.89c0,1.66-1.34,3-3,3ZM41.6,23.67h-3.5c-1.66,0-3-1.34-3-3v-2.1c0-1.66,1.34-3,3-3h3.5c1.66,0,3,1.34,3,3v2.1c0,1.66-1.34,3-3,3ZM27.11,23.67h-4.83c-1.66,0-3-1.34-3-3v-2.1c0-1.66,1.34-3,3-3h4.83c1.66,0,3,1.34,3,3v2.1c0,1.66-1.34,3-3,3Z"/><path class="cls-3" d="M137,69.81h-24.85c-1.42,0-3.05-.14-4.3-1.18-.07-.06-.13-.12-.2-.18-.66-.66-1.44-1.86-1.44-3.87v-4.6c-.77,1.49-1.72,2.84-2.86,4.06-3.63,3.8-8.48,5.71-14.44,5.71h-8.54c-.09,0-.18,0-.27-.01-1.64-.15-2.74-.85-3.42-1.36-.11-.08-.22-.18-.32-.28-1.05-1.05-1.58-2.37-1.58-3.94v-5.32c0-1.63.62-3.06,1.75-4.03,1-.87,2.14-1.35,3.57-1.48.09,0,.18-.01.27-.01h2.94c2.51-.05,4.33-.58,5.07-1.5.93-1.36,1.38-2.64,1.38-3.9v-2.24c0-.62.08-1.21.24-1.76h-5.78c-2.13,0-3.47-.9-4.22-1.65-1.04-1.04-1.64-2.32-1.78-3.81,0-.09-.01-.18-.01-.27V8.28c0-.1,0-.2.01-.29.14-1.4.71-2.62,1.71-3.65.76-.83,2.1-1.79,4.29-1.79h7c1.64,0,3.1.59,4.22,1.72.18.18.34.36.49.55.22-.29.49-.56.8-.8,1.21-.97,2.9-1.47,4.99-1.47h30.59c1.77,0,3.33.42,4.62,1.24.04.02.08.05.11.08,1.09.77,2.4,2.37,2.4,5.68v27.37c0,2.87-1.15,4.51-2.11,5.38-1.25,1.12-2.91,1.68-4.95,1.68h-7.55c.09.59.12,1.19.12,1.76v7.5h12.05c1.81,0,3.23.42,4.23,1.25.07.06.14.12.2.18.95.95,1.44,2.4,1.44,4.29v5.6c0,2.01-.78,3.21-1.44,3.87-.06.06-.13.13-.2.18-1.26,1.05-2.92,1.18-4.23,1.18ZM112.2,63.81h24.66v-4.57h-13.52c-2.59,0-4.4-1.84-4.4-4.47v-8.76h-6.74v17.8ZM80.77,63.74h8.13c4.32,0,7.62-1.25,10.08-3.83,2.47-2.65,3.71-6.49,3.65-11.4v-2.64h-6.88v2.04c0,2.51-.84,4.99-2.5,7.38-.02.04-.05.07-.08.11-1.91,2.51-5.21,3.83-9.82,3.92h-2.59s0,4.43,0,4.43ZM103.04,45.86h0,0ZM93.31,40.13h0,0ZM100.75,37.87c.17.04.49.1,1.04.1h30.59c.67,0,.9-.12.93-.14,0,0,.13-.27.13-.92V9.54c0-.41-.04-.68-.08-.85-.28-.09-.63-.14-1.05-.14h-30.59c-.5,0-.82.05-1.02.1-.02.17-.04.41-.04.75v27.58c0,.48.05.75.09.89ZM84.2,37.9h6.95V8.55h-6.94s0,0-.01,0v29.35ZM123.55,35.01h-13.09c-1.66,0-3-1.34-3-3v-4.13c0-1.66,1.34-3,3-3h13.09c1.66,0,3,1.34,3,3v4.13c0,1.66-1.34,3-3,3ZM123.55,21.64h-13.09c-1.66,0-3-1.34-3-3v-4.2c0-1.66,1.34-3,3-3h13.09c1.66,0,3,1.34,3,3v4.2c0,1.66-1.34,3-3,3Z"/><path class="cls-3" d="M206.38,69.81h-9.87c-.9,0-2.27-.25-3.64-1.43-.05-.05-.11-.1-.16-.15-.15-.15-.29-.3-.42-.46h-39.19c-.59,0-2.35,0-3.7-1.27-.72-.64-1.54-1.79-1.54-3.69v-13.37c0-1.99.76-3.22,1.43-3.93,1.04-1.17,2.41-1.62,3.36-1.85.24-.06.48-.09.73-.09h.57V11.92c0-2.09.93-3.22,1.64-3.78,1.35-1.18,3.13-1.18,3.74-1.18h9.95l.63-1.2c.65-1.31,1.41-2.29,2.3-2.95.95-.75,2.21-1.11,3.86-1.11h9.45c1.92,0,3.52.62,4.53,1.75.46.5,1.31,1.7,1,3.5h15.75c.6,0,2.37,0,3.72,1.17,1.1.85,1.73,2.22,1.73,3.79v17.99c0,.33-.02.65-.07.96,1.59.18,2.58.98,3.15,1.67,1.04,1.25,1.19,2.98,1.19,4.65s-.16,3.54-1.26,4.74c-.3.34-.64.62-1.01.85.92,1.44,1.36,3.34,1.36,5.75v12.95c0,2.95-.9,5.16-2.69,6.56-.06.05-.12.09-.19.13-1.62,1.08-3.75,1.63-6.36,1.63ZM196.95,63.81h9.43c1.62,0,2.48-.3,2.89-.53.15-.18.34-.71.34-1.79v-12.95c0-2.13-.51-2.63-.51-2.63-.13-.12-.72-.53-2.72-.53h-35.56c-1.66,0-3-1.34-3-3v-1.89c0-1.66,1.34-3,3-3h39.7c0-.09,0-.19,0-.29,0-.13,0-.25,0-.36h-39.7c-1.66,0-3-1.34-3-3v-1.82c0-1.66,1.34-3,3-3h35.43V12.96s-20.03,0-20.03,0c-1.08,0-2.07-.58-2.61-1.52-.53-.94-.52-2.09.03-3.02l.43-.72h-8c-.15,0-.27,0-.35.01-.09.12-.25.35-.46.78l-1.5,2.85c-.52.99-1.54,1.61-2.66,1.61h-11.14v33.61c0,1.66-1.34,3-3,3h-3.09v12.2h38.3c.08,0,.14,0,.19,0,.78-.51,1.76-.63,2.65-.31,1.03.37,1.77,1.27,1.94,2.34ZM191.87,62.16s0,0,0,0c0,0,0,0,0,0ZM153.62,49.67s0,0,0,0c0,0,0,0,0,0ZM175.96,7.5s0,0,0,0c0,0,0,0,0,0ZM194.55,60.43c-.31,0-.63-.05-.94-.15-1.23-.41-2.06-1.55-2.06-2.85v-7.63c0-1.66,1.34-3,3-3h3.85c.13,0,.27,0,.4.03,2.32.31,4,1.75,4.49,3.83.05.22.08.45.08.68v2.73c0,1.9-.54,3.37-1.6,4.37-.88.83-2.08,1.26-3.36,1.22h-1.64c-.11.01-.19.03-.26.04-.55.47-1.25.73-1.96.73ZM196.96,59.21s0,0,0,0t0,0ZM182.16,58.68h-2.66c-1.66,0-3-1.34-3-3v-5.88c0-1.66,1.34-3,3-3h2.66c1.66,0,3,1.34,3,3v5.88c0,1.66-1.34,3-3,3ZM165.98,58.68h-2.73c-1.66,0-3-1.34-3-3v-5.88c0-1.66,1.34-3,3-3h2.73c1.66,0,3,1.34,3,3v5.88c0,1.66-1.34,3-3,3ZM197.21,28.92h-26.39c-1.66,0-3-1.34-3-3v-1.89c0-1.66,1.34-3,3-3h26.39c1.66,0,3,1.34,3,3v1.89c0,1.66-1.34,3-3,3ZM197.21,20.94h-26.39c-1.66,0-3-1.34-3-3v-1.89c0-1.66,1.34-3,3-3h26.39c1.66,0,3,1.34,3,3v1.89c0,1.66-1.34,3-3,3Z"/><path class="cls-3" d="M283.49,69.81h-10.22c-3.76-.09-6.62-1.07-8.57-2.92-.15-.14-.3-.29-.44-.45-.24.68-.62,1.29-1.12,1.79-.06.06-.13.12-.2.18-.97.81-2.23,1.26-3.54,1.26h-7.7c-1.29,0-2.57-.43-3.52-1.19-.72-.54-1.24-1.26-1.55-2.11-.16.18-.33.35-.5.51-1.96,1.85-4.82,2.84-8.5,2.92h-10.29c-1.61,0-3.09-.58-4.15-1.65-1.05-1.05-1.58-2.35-1.58-3.87v-3.85c0-1.52.53-2.82,1.58-3.87,1.06-1.06,2.54-1.65,4.15-1.65h5.12v-1.62c0-.36.04-.71.11-1.06h-4.87c-1.75,0-3.26-.64-4.36-1.86-1.08-1.11-1.65-2.5-1.65-4.01V12.62c0-1.45.56-2.75,1.65-3.88.76-.83,2.12-1.79,4.36-1.79h6.37c.83,0,1.61.15,2.32.45.02-.92.21-2.19,1.18-3.36.06-.07.12-.13.18-.2,1.37-1.37,3.15-1.37,3.74-1.37h39.41c.59,0,2.37,0,3.74,1.38.06.06.12.13.18.19.85,1.01,1.26,2.19,1.26,3.6v29.05c0,.31-.02.6-.06.89.76.2,1.5.56,2.12,1.19.06.06.12.13.18.2.85,1.01,1.26,2.49,1.26,4.51v2.8c0,1.56-.38,2.88-1.12,3.92-.05.07-.11.14-.16.21-.71.83-2.08,1.82-4.59,1.82h-5.43c.07.35.1.7.1,1.06v1.62h5.12c1.61,0,3.09.58,4.15,1.65,1.05,1.05,1.58,2.35,1.58,3.87v3.85c0,1.52-.53,2.82-1.58,3.87-1.06,1.07-2.54,1.65-4.15,1.65ZM267.8,53.71v5.4c0,1.63.34,2.78,1.02,3.42.82.77,2.42,1.23,4.52,1.28h9.88v-2.89h-5.12c-1.57,0-3.02-.59-4.08-1.66-1.06-1.06-1.65-2.53-1.65-4.15v-1.41h-4.57ZM227.62,63.8h9.95c2.02-.04,3.63-.5,4.45-1.27.68-.64,1.02-1.8,1.02-3.42v-5.4h-4.57v1.41c0,1.62-.59,3.09-1.65,4.16-1.08,1.08-2.49,1.65-4.08,1.65h-5.12v2.88ZM252.33,63.67h6.25v-14.43c0-1.66,1.34-3,3-3h21.99v-2.74c0-.05,0-.1,0-.15h-46.56c-1.66,0-3-1.34-3-3V12.96h-6.31s0,0-.01,0v33.27h21.64c1.66,0,3,1.34,3,3v14.43ZM242.39,35.8h37.68V8.48s-37.68,0-37.68,0v27.32ZM281.09,8.49h0,0ZM270.75,34.87h-19.11c-1.66,0-3-1.34-3-3v-2.31c0-1.66,1.34-3,3-3h19.11c1.66,0,3,1.34,3,3v2.31c0,1.66-1.34,3-3,3ZM270.75,26.05h-19.11c-1.66,0-3-1.34-3-3v-2.17c0-1.66,1.34-3,3-3h19.11c1.66,0,3,1.34,3,3v2.17c0,1.66-1.34,3-3,3ZM270.75,17.3h-19.11c-1.66,0-3-1.34-3-3v-2.17c0-1.66,1.34-3,3-3h19.11c1.66,0,3,1.34,3,3v2.17c0,1.66-1.34,3-3,3Z"/><path class="cls-2" d="M66.04,40.55c-.35.42-1.19.56-2.45.56H22.28v6.23c0,6.72-1.33,11.69-3.99,14.91-2.73,3.15-6.44,4.76-11.2,4.69-.77,0-1.33-.28-1.82-.7-.56-.49-.77-1.05-.77-1.82v-6.65c0-.77.21-1.33.77-1.82.49-.42,1.05-.7,1.82-.77,1.47-.07,2.52-.84,3.29-2.31.77-1.47,1.12-3.85,1.12-7.14V12.62c0-1.33.21-2.17.63-2.59.42-.42,1.19-.63,2.24-.63h20.09v-2.24c.07-.7.35-1.33.91-1.82.49-.56,1.19-.84,2.1-.84h5.88c.84,0,1.54.28,2.1.84.56.49.84,1.12.84,1.82v2.24h17.99c1.19,0,2.03.21,2.38.63.42.42.63,1.26.63,2.59v3.01c0,.98-.21,1.75-.63,2.24-.35.49-1.19.7-2.38.7h-11.69v2.1h10.99c1.26,0,2.1.21,2.52.56.42.35.63,1.12.49,2.17v14.98c0,1.12-.14,1.82-.56,2.17ZM27.11,18.57h-4.83v2.1h4.83v-2.1ZM27.11,29.91h-4.83v1.89h4.83v-1.89ZM24.45,66.32c-.35-.35-.56-.91-.56-1.75v-18.83c0-1.12.21-1.82.56-2.24.42-.35,1.19-.49,2.38-.49h5.18c1.12,0,1.82.14,2.24.42.35.35.49,1.12.49,2.31v.35h6.58c1.19,0,1.96.21,2.38.56.42.42.63,1.33.63,2.59v3.01c0,1.05-.21,1.75-.63,2.24-.42.49-1.19.7-2.38.7h-6.58v.91c0,.98.49,1.54,1.4,1.54h5.18c1.12,0,1.82.14,2.24.49.42.42.63,1.12.63,2.24v4.2c0,.84-.21,1.4-.63,1.75s-1.12.49-2.24.49h-14.49c-1.19,0-1.96-.14-2.38-.49ZM41.6,20.67v-2.1h-3.5v2.1h3.5ZM41.6,31.8v-1.89h-3.5v1.89h3.5ZM46.64,66.32c-.42-.35-.56-.91-.56-1.75v-18.83c0-1.12.14-1.82.56-2.24.35-.35,1.19-.49,2.38-.49h5.18c1.05,0,1.82.14,2.17.42.35.35.56,1.12.56,2.31v.35h6.58c1.12,0,1.96.21,2.38.56.42.42.63,1.33.63,2.59v3.01c0,1.05-.21,1.75-.63,2.24-.42.49-1.26.7-2.38.7h-6.58v.91c0,.98.42,1.54,1.33,1.54h5.25c1.05,0,1.82.14,2.24.49.42.42.63,1.12.63,2.24v4.2c0,.84-.21,1.4-.63,1.75-.42.35-1.19.49-2.24.49h-14.49c-1.19,0-2.03-.14-2.38-.49ZM55.75,29.91h-3.15v1.89h3.15v-1.89Z"/><path class="cls-2" d="M103.04,42.86c.7,0,1.33.28,1.82.84.49.56.77,1.19.77,1.96v2.8c.07,5.74-1.47,10.29-4.48,13.51-3.08,3.22-7.14,4.76-12.25,4.76h-8.54c-.77-.07-1.33-.35-1.89-.77-.49-.49-.7-1.05-.7-1.82v-5.32c0-.7.21-1.33.7-1.75.56-.49,1.12-.7,1.89-.77h2.94c3.64-.07,6.16-.98,7.49-2.73,1.26-1.82,1.96-3.71,1.96-5.67v-2.24c0-.77.21-1.4.7-1.96.49-.56,1.12-.84,1.82-.84h7.77ZM93.31,40.13c-.56.49-1.26.77-2.1.77h-7c-.91,0-1.61-.28-2.1-.77-.56-.56-.84-1.19-.91-1.96V8.28c.07-.7.35-1.33.91-1.89.49-.56,1.19-.84,2.1-.84h7c.84,0,1.54.28,2.1.84s.84,1.19.84,1.89v29.89c0,.77-.28,1.4-.84,1.96ZM132.3,5.55c1.26,0,2.24.28,3.01.77.7.49,1.12,1.61,1.12,3.22v27.37c0,1.47-.42,2.52-1.12,3.15-.7.63-1.68.91-2.94.91h-30.59c-1.4,0-2.52-.28-3.15-.91-.63-.63-.98-1.61-.98-3.08V9.4c0-1.47.28-2.52.91-3.01.7-.56,1.75-.84,3.15-.84h30.59ZM109.76,66.32c-.35-.35-.56-.91-.56-1.75v-18.83c0-1.12.21-1.82.56-2.24.42-.35,1.19-.49,2.38-.49h7.07c1.12,0,1.82.14,2.24.42.35.35.49,1.12.49,2.31v9.03c0,.98.49,1.47,1.4,1.47h13.65c1.12,0,1.89.21,2.31.56.35.35.56,1.12.56,2.17v5.6c0,.84-.21,1.4-.56,1.75-.42.35-1.19.49-2.31.49h-24.85c-1.19,0-1.96-.14-2.38-.49ZM110.46,18.64h13.09v-4.2h-13.09v4.2ZM110.46,32.01h13.09v-4.13h-13.09v4.13Z"/><path class="cls-2" d="M192.17,64.78h-39.06c-.77,0-1.33-.14-1.68-.49-.42-.35-.56-.84-.56-1.47v-13.37c0-.84.21-1.47.63-1.89.42-.49,1.05-.77,1.89-.98h3.57V11.92c0-.63.14-1.19.56-1.47.35-.35.98-.49,1.82-.49h11.76l1.47-2.8c.49-.98.98-1.61,1.47-1.96.42-.35,1.12-.49,2.03-.49h9.45c1.05,0,1.89.28,2.31.77.49.49.35,1.26-.28,2.24l-1.33,2.24h20.58c.84,0,1.47.14,1.82.49.42.28.63.84.63,1.47v17.99c0,.77-.21,1.26-.63,1.61-.35.35-.98.49-1.82.49h-35.98v1.82h40.67c.7,0,1.19.21,1.54.63s.49,1.33.49,2.73-.14,2.38-.49,2.73c-.35.42-.84.56-1.54.56h-40.67v1.89h35.56c2.24,0,3.78.42,4.76,1.33.98.91,1.47,2.52,1.47,4.83v12.95c0,2.1-.56,3.43-1.54,4.2-1.05.7-2.59,1.12-4.69,1.12h-9.87c-.63,0-1.19-.28-1.68-.7-.49-.49-.77-1.05-.84-1.82-.35.35-.98.49-1.82.49ZM165.98,55.68v-5.88h-2.73v5.88h2.73ZM197.21,16.05h-26.39v1.89h26.39v-1.89ZM197.21,24.03h-26.39v1.89h26.39v-1.89ZM179.5,55.68h2.66v-5.88h-2.66v5.88ZM196.58,56.66h1.89c1.26.07,1.89-.84,1.89-2.59v-2.73c-.21-.91-.91-1.4-1.96-1.54h-3.85v7.63c.21-.28.42-.42.7-.49.35-.14.77-.21,1.33-.28Z"/><path class="cls-2" d="M243.52,50.71c.7.07,1.33.28,1.75.77.49.49.77,1.12.77,1.82v5.81c0,2.45-.63,4.34-1.96,5.6-1.33,1.26-3.5,2.03-6.51,2.1h-10.22c-.84,0-1.54-.28-2.03-.77s-.7-1.05-.7-1.75v-3.85c0-.7.21-1.26.7-1.75s1.19-.77,2.03-.77h5.39c.84,0,1.47-.28,1.96-.77.49-.49.77-1.19.77-2.03v-1.82c0-.7.28-1.33.77-1.82.49-.49,1.12-.7,1.82-.77h5.46ZM261.58,49.23v15.26c0,.7-.21,1.26-.56,1.61-.42.35-.98.56-1.61.56h-7.7c-.63,0-1.26-.21-1.68-.56-.49-.35-.7-.91-.7-1.61v-15.26h-21.63c-.98,0-1.68-.35-2.17-.91-.56-.56-.84-1.19-.84-1.96V12.62c0-.7.28-1.26.84-1.82.49-.56,1.19-.84,2.17-.84h6.37c.84,0,1.54.28,2.1.84s.84,1.12.84,1.82v27.72h46.69c1.12,0,1.89.14,2.31.56.35.42.56,1.33.56,2.59v2.8c0,.98-.21,1.68-.56,2.17-.42.49-1.19.77-2.31.77h-22.12ZM282.51,5.97c.35.42.56.91.56,1.68v29.05c0,.7-.21,1.26-.56,1.61-.35.35-.84.49-1.61.49h-39.41c-.77,0-1.26-.14-1.61-.49-.35-.35-.49-.91-.49-1.61V7.65c0-.77.14-1.26.49-1.68.35-.35.84-.49,1.61-.49h39.41c.77,0,1.26.14,1.61.49ZM270.75,12.13h-19.11v2.17h19.11v-2.17ZM270.75,20.88h-19.11v2.17h19.11v-2.17ZM270.75,29.56h-19.11v2.31h19.11v-2.31ZM274.6,51.47c.49.49.77,1.12.77,1.82v1.82c0,.84.28,1.54.77,2.03.49.49,1.19.77,1.96.77h5.39c.84,0,1.54.28,2.03.77.49.49.7,1.05.7,1.75v3.85c0,.7-.21,1.26-.7,1.75-.49.49-1.19.77-2.03.77h-10.22c-3.01-.07-5.18-.84-6.51-2.1-1.33-1.26-1.96-3.15-1.96-5.6v-5.81c0-.7.28-1.33.77-1.82.42-.49,1.05-.7,1.75-.77h5.46c.7.07,1.33.28,1.82.77Z"/></g></svg>