<?xml version="1.0" encoding="UTF-8"?><svg id="_レイヤー_2" xmlns="http://www.w3.org/2000/svg" viewBox="0 0 218.17 70.68"><defs><style>.cls-1,.cls-2,.cls-3{stroke-width:0px;}.cls-2{fill:#198caa;}.cls-3{fill:#fff;}</style></defs><g id="_レイヤー_4"><path class="cls-1" d="M42.44,5.35c.56.49.77,1.05.77,1.82v10.08h21.14c.77.07,1.33.35,1.89.91.49.56.7,1.19.7,1.89v8.33c0,.77-.21,1.33-.7,1.82-.56.49-1.12.77-1.89.77h-21.14v7.63c0,4.27,1.33,7.49,3.85,9.73,2.59,2.17,5.53,3.22,8.89,3.22h7.91c.84,0,1.54.28,2.17.84.56.56.84,1.26.84,2.1v8.61c0,.98-.28,1.75-.84,2.24-.63.49-1.33.77-2.17.77h-7.91c-7.84,0-14.56-3.29-20.23-9.73-5.74,6.44-12.39,9.73-19.95,9.73H7.09c-.77-.07-1.33-.35-1.89-.77-.49-.49-.7-1.05-.7-1.82v-9.38c0-.77.21-1.33.7-1.82.56-.42,1.12-.7,1.89-.77h8.68c3.08,0,5.88-1.05,8.47-3.22,2.52-2.24,3.85-5.46,3.85-9.73v-7.63H7.02c-.7,0-1.26-.28-1.82-.77-.49-.49-.7-1.05-.7-1.82v-8.33c0-.7.21-1.33.7-1.89.56-.56,1.12-.84,1.82-.91h21.07V7.17c0-.77.28-1.33.77-1.82.49-.49,1.12-.7,1.96-.7h9.59c.84,0,1.54.21,2.03.7Z"/><path class="cls-1" d="M129.62,65.27c-.56.56-1.61.91-3.29.91h-13.23c-1.96,0-2.94-.98-2.94-2.8v-7.21c0-1.89.98-2.87,2.94-2.87h3.99v-15.82h-8.61v7.63c.07,6.65-1.61,11.83-4.9,15.54-3.36,3.64-7.28,5.46-11.83,5.46h-2.24c-.77-.07-1.33-.35-1.89-.77-.49-.49-.7-1.05-.7-1.82v-7.49c0-.7.21-1.33.7-1.75.56-.49,1.12-.77,1.89-.77h.98c1.75-.07,3.08-.63,4.13-1.68.98-1.05,1.54-3.22,1.54-6.44v-7.91h-4.83c-1.19,0-1.96-.14-2.45-.49-.42-.35-.63-.91-.63-1.75v-5.88l-7.56,4.69c-1.12.56-1.89.63-2.31.35-.35-.28-.56-.91-.56-1.89v-8.47c0-1.33.21-2.17.63-2.59.35-.42,1.12-.98,2.24-1.82l23.38-14.42c1.05-.63,1.82-.84,2.31-.63.42.14.7.91.7,2.24v7.91c0,1.54-.21,2.59-.63,3.08-.42.42-1.26,1.05-2.52,1.82l-10.36,6.44h31.36l-10.36-6.44c-1.26-.77-2.1-1.4-2.52-1.82-.42-.49-.63-1.54-.63-3.08v-7.91c0-1.33.28-2.1.7-2.24.49-.21,1.26,0,2.31.63l23.38,14.42c1.12.84,1.89,1.4,2.24,1.82.42.42.63,1.26.63,2.59v8.47c0,.98-.21,1.61-.56,1.89-.42.28-1.19.21-2.31-.35l-7.35-4.55v32.27c0,1.75-.28,2.87-.84,3.5Z"/><path class="cls-1" d="M170.61,50.08c.7.07,1.33.28,1.75.77.49.49.77,1.12.77,1.82v5.81c0,2.45-.63,4.34-1.96,5.6-1.33,1.26-3.5,2.03-6.51,2.1h-10.22c-.84,0-1.54-.28-2.03-.77s-.7-1.05-.7-1.75v-3.85c0-.7.21-1.26.7-1.75s1.19-.77,2.03-.77h5.39c.84,0,1.47-.28,1.96-.77.49-.49.77-1.19.77-2.03v-1.82c0-.7.28-1.33.77-1.82.49-.49,1.12-.7,1.82-.77h5.46ZM188.67,48.61v15.26c0,.7-.21,1.26-.56,1.61-.42.35-.98.56-1.61.56h-7.7c-.63,0-1.26-.21-1.68-.56-.49-.35-.7-.91-.7-1.61v-15.26h-21.63c-.98,0-1.68-.35-2.17-.91-.56-.56-.84-1.19-.84-1.96V12c0-.7.28-1.26.84-1.82.49-.56,1.19-.84,2.17-.84h6.37c.84,0,1.54.28,2.1.84.56.56.84,1.12.84,1.82v27.72h46.7c1.12,0,1.89.14,2.31.56.35.42.56,1.33.56,2.59v2.8c0,.98-.21,1.68-.56,2.17-.42.49-1.19.77-2.31.77h-22.12ZM209.61,5.35c.35.42.56.91.56,1.68v29.05c0,.7-.21,1.26-.56,1.61-.35.35-.84.49-1.61.49h-39.41c-.77,0-1.26-.14-1.61-.49-.35-.35-.49-.91-.49-1.61V7.03c0-.77.14-1.26.49-1.68.35-.35.84-.49,1.61-.49h39.41c.77,0,1.26.14,1.61.49ZM197.85,11.51h-19.11v2.17h19.11v-2.17ZM197.85,20.26h-19.11v2.17h19.11v-2.17ZM197.85,28.94h-19.11v2.31h19.11v-2.31ZM201.7,50.85c.49.49.77,1.12.77,1.82v1.82c0,.84.28,1.54.77,2.03.49.49,1.19.77,1.96.77h5.39c.84,0,1.54.28,2.03.77.49.49.7,1.05.7,1.75v3.85c0,.7-.21,1.26-.7,1.75-.49.49-1.19.77-2.03.77h-10.22c-3.01-.07-5.18-.84-6.51-2.1-1.33-1.26-1.96-3.15-1.96-5.6v-5.81c0-.7.28-1.33.77-1.82.42-.49,1.05-.7,1.75-.77h5.46c.7.07,1.33.28,1.82.77Z"/><path class="cls-2" d="M63.87,70.61h-7.91c-7.59,0-14.38-2.64-20.24-7.86-5.88,5.22-12.57,7.86-19.94,7.86H7.09c-.14,0-.27,0-.41-.02-1.52-.14-2.88-.68-4.18-1.65-.17-.13-.33-.27-.48-.42-1.34-1.34-2.02-3.02-2.02-5v-9.38c0-1.98.68-3.66,2.02-5,.15-.15.31-.29.48-.42,1.3-.98,2.67-1.52,4.19-1.65.13-.01.27-.02.4-.02h8.68c2.02,0,3.78-.68,5.53-2.13,1.54-1.4,2.29-3.47,2.29-6.33v-3.13H7.02c-1.75,0-3.36-.63-4.79-1.89-.07-.07-.15-.13-.22-.2-1.34-1.34-2.02-3.02-2.02-5v-8.33c0-1.82.63-3.5,1.81-4.85.07-.07.13-.15.2-.22,1.29-1.29,2.82-2.03,4.56-2.21.15-.02.3-.02.45-.02h16.57v-5.58c0-1.91.72-3.64,2.09-5,.92-.92,2.56-2.02,5.14-2.02h9.59c2.54,0,4.16,1.01,5.1,1.91,1.03.94,2.2,2.57,2.2,5.11v5.58h16.64c.14,0,.27,0,.41.02,1.82.17,3.34.89,4.67,2.21.07.07.14.14.2.22,1.19,1.36,1.81,3.04,1.81,4.85v8.33c0,1.98-.68,3.66-2.02,5-.07.07-.14.14-.22.2-1.43,1.25-3.06,1.89-4.86,1.89h-16.64v3.13c0,2.86.75,4.93,2.29,6.33,1.75,1.45,3.64,2.13,5.95,2.13h7.91c1.92,0,3.71.68,5.16,1.98.06.06.13.12.19.18,1.41,1.41,2.16,3.24,2.16,5.28v8.61c0,2.29-.84,4.28-2.37,5.62-.07.06-.13.11-.21.17-1.46,1.14-3.12,1.72-4.93,1.72ZM35.72,51.88h.01c1.29,0,2.51.56,3.36,1.53,4.86,5.52,10.38,8.2,16.85,8.2h6.42v-5.56h-6.42c-4.43,0-8.4-1.44-11.78-4.27-.03-.03-.07-.06-.1-.09-3.56-3.16-5.36-7.57-5.36-13.1v-7.63c0-2.49,2.01-4.5,4.5-4.5h19.23v-4.72h-19.23c-2.49,0-4.5-2.01-4.5-4.5v-8.1h-6.12v8.1c0,2.49-2.01,4.5-4.5,4.5H9v4.72h19.09c2.49,0,4.5,2.01,4.5,4.5v7.63c0,5.53-1.8,9.93-5.36,13.1-.03.03-.07.06-.1.09-3.38,2.83-7.21,4.27-11.36,4.27h-6.77v5.56h6.77c6.23,0,11.66-2.69,16.59-8.23.85-.96,2.08-1.51,3.36-1.51Z"/><path class="cls-2" d="M126.33,70.68h-13.23c-3.94,0-6.73-2.3-7.32-5.85-4.04,3.86-8.73,5.78-14.03,5.78h-2.24c-.14,0-.27,0-.41-.02-1.52-.14-2.88-.68-4.18-1.65-.17-.13-.33-.27-.48-.42-1.34-1.34-2.02-3.02-2.02-5v-7.49c0-2.07.8-3.91,2.26-5.16,1.41-1.23,3.04-1.86,4.83-1.86h.87c.47-.03.72-.11.87-.21.12-.32.41-1.3.41-3.41v-3.41h-.33c-1.49,0-3.41-.15-5.06-1.33-.09-.06-.18-.13-.27-.21-.74-.62-1.58-1.62-2-3.16l-.94.59c-.12.07-.24.14-.37.2-3.27,1.63-5.51.94-6.81.07-.11-.07-.22-.15-.32-.24-1.02-.82-2.24-2.42-2.24-5.4v-8.47c0-1.59.19-3.88,1.79-5.61.63-.72,1.42-1.31,2.58-2.17l.3-.22c.11-.08.22-.16.34-.23L101.71,1.38c2.33-1.4,4.44-1.73,6.29-1,.38.15.82.36,1.25.69.43-.33.87-.54,1.25-.69,1.86-.73,3.96-.4,6.25.97l23.43,14.45c.12.07.23.15.34.23l.3.22c1.16.87,1.95,1.46,2.58,2.18,1.6,1.73,1.79,4.02,1.79,5.61v8.47c0,2.97-1.22,4.58-2.24,5.4-.11.08-.21.17-.33.24-1.3.87-3.55,1.56-6.81-.07-.12-.06-.24-.13-.36-.2l-.48-.3v24.2c0,1.83-.21,4.5-1.98,6.49-.06.07-.12.13-.18.19-1.48,1.48-3.66,2.23-6.47,2.23ZM129.62,65.27h0,0ZM114.66,61.68h11.3s0-31.23,0-31.23c-.33.08-.68.12-1.03.12h-31.36c-.28,0-.55-.03-.82-.08v2.49h3.41c2.49,0,4.5,2.01,4.5,4.5v7.91c0,4.42-.9,7.53-2.75,9.51-.04.04-.07.07-.11.11-1.71,1.71-3.85,2.7-6.38,2.94v3.66h.33c3.29,0,6-1.27,8.52-4.01,2.5-2.82,3.77-7.02,3.71-12.44v-7.68c0-2.49,2.01-4.5,4.5-4.5h8.61c2.49,0,4.5,2.01,4.5,4.5v15.82c0,2.49-2.01,4.5-4.5,4.5h-2.43v3.88ZM130.46,25c.82,0,1.64.23,2.37.67l3.35,2.08v-3.71h0c-.24-.19-.52-.4-.77-.58l-.14-.1-19.36-11.94v3.32c0,.16,0,.3,0,.42.25.17.57.38.99.64l10.39,6.46c1.07.66,1.78,1.72,2.03,2.9.37-.1.75-.14,1.13-.14ZM82.32,24.04h0v3.71l3.56-2.21c1.01-.63,2.21-.82,3.33-.57.28-1.1.97-2.09,1.99-2.72l10.36-6.44c.43-.26.76-.48,1.02-.66,0-.12,0-.26,0-.42v-3.32l-19.5,12.04c-.25.19-.53.39-.77.58ZM81.63,24.63s0,0,0,0c0,0,0,0,0,0ZM136.87,24.63s0,0,0,0c0,0,0,0,0,0ZM109,21.57h.51c-.09-.07-.17-.15-.25-.22-.08.07-.17.15-.25.22Z"/><path class="cls-2" d="M210.59,70.68h-10.22s-.07,0-.11,0c-3.51-.08-6.37-.93-8.52-2.51-.14.17-.29.34-.44.49-.09.09-.19.19-.3.27-1.24,1.04-2.84,1.61-4.5,1.61h-7.7c-1.62,0-3.22-.54-4.43-1.5-.37-.28-.7-.6-.99-.94-2.17,1.63-5.05,2.5-8.61,2.58-.04,0-.07,0-.11,0h-10.22c-2.01,0-3.87-.74-5.21-2.09-1.32-1.32-2.02-3.03-2.02-4.93v-3.85c0-1.91.7-3.61,2.02-4.93,1.03-1.03,2.34-1.7,3.8-1.96-1.44-.33-2.71-1.06-3.7-2.14-1.35-1.4-2.06-3.13-2.06-5.04V12c0-1.84.69-3.49,2.06-4.9.97-1.06,2.68-2.26,5.45-2.26h6.37c.37,0,.73.02,1.08.07.25-.91.67-1.72,1.27-2.45.08-.1.17-.2.27-.29,1.2-1.2,2.81-1.81,4.8-1.81h39.41c1.98,0,3.6.61,4.8,1.81.09.1.19.19.27.3,1.06,1.28,1.6,2.81,1.6,4.56v28.93c.56.27,1.12.64,1.62,1.14.1.1.19.19.27.3,1.08,1.29,1.61,3.08,1.61,5.47v2.8c0,1.88-.47,3.49-1.4,4.79-.08.11-.16.21-.24.31-.75.87-2.04,1.88-4.17,2.22,1.32.3,2.5.95,3.44,1.89,1.32,1.32,2.02,3.03,2.02,4.93v3.85c0,1.9-.7,3.61-2.01,4.93-1.35,1.35-3.2,2.09-5.22,2.09ZM200.42,61.68h3.48c-1.47-.25-2.8-.93-3.85-1.98-1.33-1.32-2.07-3.14-2.09-5.12h-1.57v3.9c0,1.15.2,2,.56,2.34.14.13.97.8,3.47.86ZM161.15,61.68h3.46c2.5-.07,3.33-.73,3.47-.87.35-.33.56-1.19.56-2.33v-3.9h-1.57c-.02,1.98-.76,3.8-2.09,5.13-1.05,1.05-2.36,1.72-3.82,1.97ZM180.92,61.54h3.25v-12.93c0-2.15,1.5-3.94,3.51-4.39h-10.27c2.01.45,3.51,2.25,3.51,4.39v12.93ZM156.28,44.11h6.83c-2.01-.45-3.51-2.25-3.51-4.39V13.84h-3.32v30.27ZM201.63,33.68h4.03V9.36h-3.87c.35.64.55,1.37.55,2.15v2.17c0,1.3-.55,2.47-1.43,3.29.88.82,1.43,1.99,1.43,3.29v2.17c0,1.28-.53,2.44-1.39,3.25.86.82,1.39,1.97,1.39,3.25v2.31c0,.9-.26,1.73-.71,2.43ZM170.98,33.68h3.96c-.45-.7-.71-1.53-.71-2.43v-2.31c0-1.28.53-2.44,1.39-3.25-.86-.82-1.39-1.97-1.39-3.25v-2.17c0-1.3.55-2.47,1.43-3.29-.88-.82-1.43-1.99-1.43-3.29v-2.17c0-.78.2-1.51.55-2.15h-3.79v24.32ZM208.04,9.36h0,0Z"/><path class="cls-3" d="M63.87,69.11h-7.91c-7.63,0-14.43-2.82-20.24-8.4-5.84,5.58-12.54,8.4-19.94,8.4H7.09c-.09,0-.18,0-.27-.01-1.64-.15-2.74-.85-3.42-1.36-.11-.08-.22-.18-.32-.28-1.05-1.05-1.58-2.37-1.58-3.94v-9.38c0-1.57.53-2.89,1.58-3.94.1-.1.21-.19.32-.28.68-.51,1.78-1.21,3.42-1.36.09,0,.18-.01.27-.01h8.68c2.38,0,4.52-.82,6.54-2.52,1.85-1.64,2.78-4.09,2.78-7.43v-4.63H7.02c-1.39,0-2.63-.5-3.8-1.52-.05-.04-.1-.09-.14-.14-1.05-1.05-1.58-2.37-1.58-3.94v-8.33c0-1.45.5-2.79,1.44-3.87.04-.05.09-.1.13-.14,1.05-1.05,2.24-1.63,3.64-1.78.1-.01.2-.02.3-.02h18.07v-7.08c0-1.52.55-2.85,1.65-3.94,1.04-1.05,2.42-1.58,4.08-1.58h9.59c2.05,0,3.34.8,4.08,1.51,1.14,1.03,1.72,2.39,1.72,4.01v7.08h18.14c.09,0,.18,0,.27.01,1.46.13,2.68.71,3.74,1.78.05.05.09.1.13.14.94,1.08,1.44,2.42,1.44,3.87v8.33c0,1.57-.53,2.89-1.58,3.94-.05.05-.09.09-.14.14-1.16,1.02-2.43,1.52-3.87,1.52h-18.14v4.63c0,3.34.93,5.79,2.84,7.49,1.96,1.64,4.24,2.46,6.9,2.46h7.91c1.57,0,2.97.54,4.16,1.6.04.04.09.08.13.12,1.13,1.12,1.72,2.58,1.72,4.22v8.61c0,2.37-1.01,3.75-1.86,4.5-.04.04-.09.08-.14.11-1.2.93-2.55,1.4-4.01,1.4ZM35.72,53.38h0c.86,0,1.67.37,2.24,1.02,5.16,5.86,11.04,8.71,17.98,8.71h7.92v-8.56h-7.92c-4.07,0-7.71-1.32-10.82-3.93-3.29-2.92-4.92-6.95-4.92-12.03v-7.63c0-1.66,1.34-3,3-3h20.73v-7.72s-20.73,0-20.73,0c-1.66,0-3-1.34-3-3V7.65h-9.12v9.6c0,1.66-1.34,3-3,3H7.5v7.72s20.59,0,20.59,0c1.66,0,3,1.34,3,3v7.63c0,5.08-1.63,9.11-4.86,11.97-3.17,2.66-6.67,3.98-10.46,3.98H7.5v8.56s8.27,0,8.27,0c6.68,0,12.48-2.85,17.71-8.73.57-.64,1.38-1,2.24-1Z"/><path class="cls-3" d="M126.33,69.18h-13.23c-3.61,0-5.94-2.28-5.94-5.8v-2.42c-.42.58-.86,1.15-1.34,1.68-3.97,4.31-8.7,6.47-14.07,6.47h-2.24c-.09,0-.18,0-.27-.01-1.64-.15-2.74-.85-3.42-1.36-.11-.09-.22-.18-.32-.28-1.05-1.05-1.58-2.37-1.58-3.94v-7.49c0-1.63.62-3.06,1.74-4.03,1.15-1,2.41-1.5,3.85-1.5h.91c1.12-.06,1.66-.4,2.02-.75.21-.28.72-1.53.72-4.37v-4.91h-1.83c-1.35,0-2.9-.12-4.19-1.05-.06-.04-.12-.09-.18-.14-.78-.65-1.71-1.88-1.71-4.06v-.49l-2.98,1.85c-.08.05-.16.09-.24.14-2.63,1.31-4.34.81-5.31.16-.07-.05-.15-.1-.22-.16-1.12-.9-1.68-2.32-1.68-4.23v-8.47c0-1.34.15-3.26,1.41-4.61.54-.61,1.28-1.17,2.37-1.98l.3-.22c.07-.05.15-.11.22-.15l23.38-14.42c.73-.44,2.85-1.71,4.96-.88.62.23,1.29.67,1.8,1.48.51-.81,1.18-1.25,1.8-1.48,2.11-.83,4.22.44,4.92.86l23.41,14.44c.08.05.15.1.22.15l.3.22c1.09.82,1.83,1.37,2.37,1.98,1.26,1.35,1.41,3.27,1.41,4.6v8.47c0,1.91-.56,3.33-1.68,4.23-.07.06-.14.11-.22.16-.97.65-2.68,1.15-5.31-.16-.08-.04-.16-.09-.24-.13l-2.77-1.72v26.89c0,1.59-.17,3.88-1.6,5.49-.04.04-.08.09-.12.13-1.2,1.2-2.97,1.79-5.41,1.79ZM129.62,65.27h0,0ZM113.16,63.18h13.17c.49,0,.82-.04,1.03-.08.05-.25.1-.67.1-1.33V29.5c0-1.09.59-2.09,1.54-2.62.95-.53,2.11-.5,3.04.07l5.64,3.49v-6.4c0-.38-.02-.62-.04-.77-.25-.22-.82-.64-1.32-1.02l-.19-.14-21.7-13.39v6c0,.63.04,1.02.08,1.24.32.25.85.62,1.63,1.1l10.38,6.45c1.14.71,1.67,2.08,1.3,3.37-.37,1.29-1.54,2.18-2.88,2.18h-31.36c-1.34,0-2.52-.89-2.88-2.18-.37-1.29.16-2.66,1.3-3.37l10.36-6.44c.8-.49,1.33-.87,1.66-1.12.04-.22.08-.61.08-1.24v-6l-21.9,13.53c-.5.37-1.05.78-1.33,1.02-.02.15-.04.39-.04.76v6.4l5.85-3.63c.93-.57,2.09-.6,3.04-.07.95.53,1.54,1.53,1.54,2.62v5.12s.05,0,.08,0h4.83c1.66,0,3,1.34,3,3v7.91c0,4.02-.77,6.79-2.35,8.49-.02.02-.05.05-.07.07-1.6,1.6-3.66,2.46-6.13,2.56-.04,0-.08,0-.12,0h-.57v6.6s1.83,0,1.83,0c3.69,0,6.83-1.47,9.62-4.5,2.77-3.12,4.17-7.67,4.11-13.47v-7.66c0-1.66,1.34-3,3-3h8.61c1.66,0,3,1.34,3,3v15.82c0,1.66-1.34,3-3,3h-3.93v6.88ZM89.6,56.54s0,0-.01,0c0,0,0,0,.01,0ZM111.48,40.48v4.63c.02,1.91-.1,3.73-.35,5.45.6-.17,1.26-.26,1.97-.26h.99v-9.82h-2.61ZM137.93,23.57s0,0,0,0c0,0,0,0,0,0ZM104.08,23.07h10.34l-1.43-.89c-1.37-.84-2.41-1.6-3.06-2.25-.05-.05-.11-.11-.16-.17-.2-.23-.37-.48-.53-.76-.15.28-.33.53-.52.76-.05.06-.1.12-.16.17-.65.65-1.68,1.41-3.08,2.26l-1.41.88Z"/><path class="cls-3" d="M210.59,69.18h-10.22c-3.76-.09-6.62-1.07-8.57-2.92-.15-.15-.3-.29-.44-.45-.24.69-.62,1.3-1.12,1.79-.06.06-.13.12-.2.18-.97.81-2.23,1.26-3.53,1.26h-7.7c-1.29,0-2.57-.43-3.52-1.19-.72-.54-1.24-1.26-1.55-2.11-.16.18-.33.35-.5.52-1.96,1.85-4.82,2.84-8.5,2.92h-10.29c-1.61,0-3.09-.58-4.15-1.65-1.05-1.05-1.58-2.35-1.58-3.87v-3.85c0-1.52.53-2.82,1.58-3.87,1.06-1.06,2.54-1.65,4.15-1.65h5.12v-1.62c0-.36.04-.71.11-1.06h-4.87c-1.75,0-3.26-.64-4.36-1.86-1.08-1.11-1.65-2.5-1.65-4.01V12c0-1.45.56-2.75,1.65-3.88.76-.83,2.12-1.79,4.36-1.79h6.37c.83,0,1.61.15,2.32.45.02-.92.21-2.19,1.18-3.36.06-.07.12-.13.18-.2,1.37-1.37,3.15-1.37,3.73-1.37h39.41c.58,0,2.37,0,3.73,1.37.06.06.12.13.18.2.84,1.01,1.25,2.19,1.25,3.6v29.05c0,.31-.02.6-.06.89.76.2,1.5.56,2.13,1.19.06.06.12.13.18.2.85,1.01,1.26,2.49,1.26,4.51v2.8c0,1.56-.38,2.88-1.12,3.92-.05.07-.11.14-.16.21-.71.83-2.08,1.82-4.59,1.82h-5.43c.07.35.1.7.1,1.06v1.62h5.12c1.62,0,3.09.59,4.15,1.65,1.05,1.05,1.58,2.35,1.58,3.87v3.85c0,1.52-.53,2.82-1.58,3.87-1.06,1.06-2.54,1.65-4.15,1.65ZM194.89,53.08v5.4c0,1.63.34,2.78,1.02,3.43.82.77,2.42,1.23,4.52,1.28h9.88v-2.89h-5.12c-1.57,0-3.02-.59-4.08-1.66-1.06-1.06-1.65-2.54-1.65-4.15v-1.41h-4.57ZM154.71,63.18h9.95c2.02-.04,3.63-.5,4.45-1.27.68-.64,1.02-1.8,1.02-3.42v-5.4h-4.57v1.41c0,1.62-.59,3.09-1.65,4.15-1.08,1.08-2.49,1.65-4.08,1.65h-5.12v2.88ZM179.42,63.04h6.25v-14.43c0-1.66,1.34-3,3-3h21.99v-2.74c0-.05,0-.1,0-.15h-46.56c-1.66,0-3-1.34-3-3V12.34h-6.31s0,0-.01,0v33.27h21.64c1.66,0,3,1.34,3,3v14.43ZM194.55,53.09h0s0,0,0,0ZM210.61,46.19h0s0,0,0,0ZM169.48,35.18h37.68V7.86s-37.68,0-37.68,0v27.32ZM208.18,7.87h0,0ZM197.85,34.25h-19.11c-1.66,0-3-1.34-3-3v-2.31c0-1.66,1.34-3,3-3h19.11c1.66,0,3,1.34,3,3v2.31c0,1.66-1.34,3-3,3ZM197.85,25.43h-19.11c-1.66,0-3-1.34-3-3v-2.17c0-1.66,1.34-3,3-3h19.11c1.66,0,3,1.34,3,3v2.17c0,1.66-1.34,3-3,3ZM197.85,16.68h-19.11c-1.66,0-3-1.34-3-3v-2.17c0-1.66,1.34-3,3-3h19.11c1.66,0,3,1.34,3,3v2.17c0,1.66-1.34,3-3,3Z"/><path class="cls-2" d="M42.44,5.35c.56.49.77,1.05.77,1.82v10.08h21.14c.77.07,1.33.35,1.89.91.49.56.7,1.19.7,1.89v8.33c0,.77-.21,1.33-.7,1.82-.56.49-1.12.77-1.89.77h-21.14v7.63c0,4.27,1.33,7.49,3.85,9.73,2.59,2.17,5.53,3.22,8.89,3.22h7.91c.84,0,1.54.28,2.17.84.56.56.84,1.26.84,2.1v8.61c0,.98-.28,1.75-.84,2.24-.63.49-1.33.77-2.17.77h-7.91c-7.84,0-14.56-3.29-20.23-9.73-5.74,6.44-12.39,9.73-19.95,9.73H7.09c-.77-.07-1.33-.35-1.89-.77-.49-.49-.7-1.05-.7-1.82v-9.38c0-.77.21-1.33.7-1.82.56-.42,1.12-.7,1.89-.77h8.68c3.08,0,5.88-1.05,8.47-3.22,2.52-2.24,3.85-5.46,3.85-9.73v-7.63H7.02c-.7,0-1.26-.28-1.82-.77-.49-.49-.7-1.05-.7-1.82v-8.33c0-.7.21-1.33.7-1.89.56-.56,1.12-.84,1.82-.91h21.07V7.17c0-.77.28-1.33.77-1.82.49-.49,1.12-.7,1.96-.7h9.59c.84,0,1.54.21,2.03.7Z"/><path class="cls-2" d="M129.62,65.27c-.56.56-1.61.91-3.29.91h-13.23c-1.96,0-2.94-.98-2.94-2.8v-7.21c0-1.89.98-2.87,2.94-2.87h3.99v-15.82h-8.61v7.63c.07,6.65-1.61,11.83-4.9,15.54-3.36,3.64-7.28,5.46-11.83,5.46h-2.24c-.77-.07-1.33-.35-1.89-.77-.49-.49-.7-1.05-.7-1.82v-7.49c0-.7.21-1.33.7-1.75.56-.49,1.12-.77,1.89-.77h.98c1.75-.07,3.08-.63,4.13-1.68.98-1.05,1.54-3.22,1.54-6.44v-7.91h-4.83c-1.19,0-1.96-.14-2.45-.49-.42-.35-.63-.91-.63-1.75v-5.88l-7.56,4.69c-1.12.56-1.89.63-2.31.35-.35-.28-.56-.91-.56-1.89v-8.47c0-1.33.21-2.17.63-2.59.35-.42,1.12-.98,2.24-1.82l23.38-14.42c1.05-.63,1.82-.84,2.31-.63.42.14.7.91.7,2.24v7.91c0,1.54-.21,2.59-.63,3.08-.42.42-1.26,1.05-2.52,1.82l-10.36,6.44h31.36l-10.36-6.44c-1.26-.77-2.1-1.4-2.52-1.82-.42-.49-.63-1.54-.63-3.08v-7.91c0-1.33.28-2.1.7-2.24.49-.21,1.26,0,2.31.63l23.38,14.42c1.12.84,1.89,1.4,2.24,1.82.42.42.63,1.26.63,2.59v8.47c0,.98-.21,1.61-.56,1.89-.42.28-1.19.21-2.31-.35l-7.35-4.55v32.27c0,1.75-.28,2.87-.84,3.5Z"/><path class="cls-2" d="M170.61,50.08c.7.07,1.33.28,1.75.77.49.49.77,1.12.77,1.82v5.81c0,2.45-.63,4.34-1.96,5.6-1.33,1.26-3.5,2.03-6.51,2.1h-10.22c-.84,0-1.54-.28-2.03-.77s-.7-1.05-.7-1.75v-3.85c0-.7.21-1.26.7-1.75s1.19-.77,2.03-.77h5.39c.84,0,1.47-.28,1.96-.77.49-.49.77-1.19.77-2.03v-1.82c0-.7.28-1.33.77-1.82.49-.49,1.12-.7,1.82-.77h5.46ZM188.67,48.61v15.26c0,.7-.21,1.26-.56,1.61-.42.35-.98.56-1.61.56h-7.7c-.63,0-1.26-.21-1.68-.56-.49-.35-.7-.91-.7-1.61v-15.26h-21.63c-.98,0-1.68-.35-2.17-.91-.56-.56-.84-1.19-.84-1.96V12c0-.7.28-1.26.84-1.82.49-.56,1.19-.84,2.17-.84h6.37c.84,0,1.54.28,2.1.84.56.56.84,1.12.84,1.82v27.72h46.7c1.12,0,1.89.14,2.31.56.35.42.56,1.33.56,2.59v2.8c0,.98-.21,1.68-.56,2.17-.42.49-1.19.77-2.31.77h-22.12ZM209.61,5.35c.35.42.56.91.56,1.68v29.05c0,.7-.21,1.26-.56,1.61-.35.35-.84.49-1.61.49h-39.41c-.77,0-1.26-.14-1.61-.49-.35-.35-.49-.91-.49-1.61V7.03c0-.77.14-1.26.49-1.68.35-.35.84-.49,1.61-.49h39.41c.77,0,1.26.14,1.61.49ZM197.85,11.51h-19.11v2.17h19.11v-2.17ZM197.85,20.26h-19.11v2.17h19.11v-2.17ZM197.85,28.94h-19.11v2.31h19.11v-2.31ZM201.7,50.85c.49.49.77,1.12.77,1.82v1.82c0,.84.28,1.54.77,2.03.49.49,1.19.77,1.96.77h5.39c.84,0,1.54.28,2.03.77.49.49.7,1.05.7,1.75v3.85c0,.7-.21,1.26-.7,1.75-.49.49-1.19.77-2.03.77h-10.22c-3.01-.07-5.18-.84-6.51-2.1-1.33-1.26-1.96-3.15-1.96-5.6v-5.81c0-.7.28-1.33.77-1.82.42-.49,1.05-.7,1.75-.77h5.46c.7.07,1.33.28,1.82.77Z"/></g></svg>