<?xml version="1.0" encoding="UTF-8"?><svg id="_レイヤー_2" xmlns="http://www.w3.org/2000/svg" viewBox="0 0 218.72 70.82"><defs><style>.cls-1,.cls-2,.cls-3{stroke-width:0px;}.cls-2{fill:#198caa;}.cls-3{fill:#fff;}</style></defs><g id="_レイヤー_4"><path class="cls-1" d="M5.13,21.86c-.42-.49-.63-1.19-.63-2.03v-8.33c0-1.33.21-2.17.63-2.59.35-.42,1.12-.63,2.24-.63h20.3v-1.47c0-.7.21-1.26.63-1.68.35-.42.98-.63,1.68-.63h11.69c.7,0,1.33.21,1.75.63.42.42.63.98.63,1.68v1.47h20.23c1.19,0,1.96.21,2.31.63.42.42.63,1.26.7,2.59v8.19c0,1.05-.21,1.75-.63,2.24-.35.49-1.19.7-2.38.7h-5.32c-.84,0-1.54-.21-2.17-.63-.56-.42-.91-1.12-.91-2.17v-4.34H15.91v4.34c0,.84-.21,1.54-.63,2.03-.42.56-1.12.77-2.17.77h-5.74c-1.12,0-1.89-.21-2.24-.77ZM58.4,40.06c1.26,0,2.31.28,3.01.77.77.49,1.12,1.61,1.12,3.22v18.06c0,1.47-.35,2.52-1.05,3.15-.7.63-1.75.98-3.01.98H13.46c-1.47,0-2.52-.35-3.22-.98-.63-.56-.98-1.61-.98-3.08v-18.27c0-1.47.35-2.52.98-3.01.63-.56,1.68-.84,3.15-.84h45.01ZM17.45,38.31c-1.26,0-2.24-.21-3.01-.77-.7-.49-1.05-1.54-1.05-3.22v-4.34c0-1.47.35-2.52,1.05-3.15.7-.63,1.68-.98,2.94-.98h36.89c1.47,0,2.52.35,3.15.98.7.56.98,1.61.98,3.08v4.55c0,1.54-.28,2.52-.91,3.08-.7.49-1.68.77-3.15.77H17.45ZM18.71,23.4c-.42-.49-.63-1.26-.63-2.24v-.84c0-1.33.21-2.17.63-2.59.42-.42,1.12-.63,2.24-.63h29.68c1.19,0,1.96.21,2.38.63s.63,1.26.63,2.59v.84c0,.98-.21,1.75-.63,2.24s-1.19.7-2.38.7h-29.68c-1.12,0-1.82-.21-2.24-.7ZM21.86,49.3h7.7v-1.68h-7.7v1.68ZM21.86,58.62h7.7v-1.68h-7.7v1.68ZM46.08,32.99v-1.75h-20.44v1.75h20.44ZM49.93,47.63h-7.7v1.68h7.7v-1.68ZM49.93,56.94h-7.7v1.68h7.7v-1.68Z"/><path class="cls-1" d="M79.01,65.48c-.42-.49-.56-1.19-.56-2.17V19.62c0-.7.14-1.26.56-1.61s.98-.56,1.68-.56h9.87c.7,0,1.26.21,1.75.56.42.35.7.91.7,1.61v33.88h8.82V6.74c0-.7.21-1.19.63-1.61.35-.35.91-.49,1.61-.49h9.8c.7,0,1.26.14,1.75.49.42.42.7.91.7,1.61v46.77h8.89V19.62c0-.7.28-1.26.7-1.61.49-.35,1.05-.56,1.75-.56h9.87c.7,0,1.26.21,1.61.56.42.35.56.91.56,1.61v43.69c0,.98-.14,1.68-.56,2.17s-1.26.77-2.38.77h-55.45c-1.12,0-1.89-.28-2.31-.77Z"/><path class="cls-1" d="M171.16,50.21c.7.07,1.33.28,1.75.77.49.49.77,1.12.77,1.82v5.81c0,2.45-.63,4.34-1.96,5.6-1.33,1.26-3.5,2.03-6.51,2.1h-10.22c-.84,0-1.54-.28-2.03-.77-.49-.49-.7-1.05-.7-1.75v-3.85c0-.7.21-1.26.7-1.75.49-.49,1.19-.77,2.03-.77h5.39c.84,0,1.47-.28,1.96-.77.49-.49.77-1.19.77-2.03v-1.82c0-.7.28-1.33.77-1.82s1.12-.7,1.82-.77h5.46ZM189.23,48.74v15.26c0,.7-.21,1.26-.56,1.61-.42.35-.98.56-1.61.56h-7.7c-.63,0-1.26-.21-1.68-.56-.49-.35-.7-.91-.7-1.61v-15.26h-21.63c-.98,0-1.68-.35-2.17-.91-.56-.56-.84-1.19-.84-1.96V12.13c0-.7.28-1.26.84-1.82.49-.56,1.19-.84,2.17-.84h6.37c.84,0,1.54.28,2.1.84s.84,1.12.84,1.82v27.72h46.69c1.12,0,1.89.14,2.31.56.35.42.56,1.33.56,2.59v2.8c0,.98-.21,1.68-.56,2.17-.42.49-1.19.77-2.31.77h-22.12ZM210.16,5.48c.35.42.56.91.56,1.68v29.05c0,.7-.21,1.26-.56,1.61-.35.35-.84.49-1.61.49h-39.41c-.77,0-1.26-.14-1.61-.49-.35-.35-.49-.91-.49-1.61V7.16c0-.77.14-1.26.49-1.68.35-.35.84-.49,1.61-.49h39.41c.77,0,1.26.14,1.61.49ZM198.4,11.64h-19.11v2.17h19.11v-2.17ZM198.4,20.39h-19.11v2.17h19.11v-2.17ZM198.4,29.07h-19.11v2.31h19.11v-2.31ZM202.25,50.98c.49.49.77,1.12.77,1.82v1.82c0,.84.28,1.54.77,2.03.49.49,1.19.77,1.96.77h5.39c.84,0,1.54.28,2.03.77s.7,1.05.7,1.75v3.85c0,.7-.21,1.26-.7,1.75s-1.19.77-2.03.77h-10.22c-3.01-.07-5.18-.84-6.51-2.1-1.33-1.26-1.96-3.15-1.96-5.6v-5.81c0-.7.28-1.33.77-1.82.42-.49,1.05-.7,1.75-.77h5.46c.7.07,1.33.28,1.82.77Z"/><path class="cls-2" d="M58.48,70.75H13.46c-2.56,0-4.66-.72-6.23-2.14-1.11-.98-2.47-2.92-2.47-6.42v-18.27c0-3.55,1.38-5.47,2.59-6.46.51-.43,1.07-.79,1.69-1.07-.1-.64-.16-1.33-.16-2.06v-4.34c0-1.04.12-1.99.35-2.85h-1.87c-2.68,0-4.65-.87-5.86-2.59-.99-1.27-1.51-2.89-1.51-4.71v-8.33c0-1.6.19-3.9,1.81-5.63,1.25-1.39,3.11-2.09,5.56-2.09h16.46c.29-.62.68-1.19,1.17-1.7,1.2-1.32,3-2.08,4.99-2.08h11.69c1.92,0,3.68.69,4.93,1.95.54.54.97,1.16,1.29,1.83h16.39c.94,0,3.75,0,5.63,2.09,1.49,1.6,1.78,3.71,1.87,5.39,0,.08,0,.16,0,.23v8.19c0,2.06-.52,3.71-1.6,5.04-1.24,1.6-3.22,2.4-5.91,2.4h-1.7c.21.84.32,1.77.32,2.78v4.55c0,.41,0,1.13-.13,1.98.41.19.79.41,1.15.65,1.44.95,3.11,2.93,3.11,6.96v18.06c0,2.8-.86,4.98-2.54,6.5-1.54,1.39-3.63,2.13-6.02,2.13ZM53.17,61.75h4.87v-17.18h-4.8c.75.8,1.2,1.88,1.2,3.06v1.68c0,1.61-.84,3.02-2.11,3.82,1.27.8,2.11,2.21,2.11,3.82v1.68c0,1.22-.48,2.32-1.27,3.13ZM32.79,61.75h6.21c-.78-.81-1.27-1.91-1.27-3.13v-1.68c0-1.61.84-3.02,2.11-3.82-1.27-.8-2.11-2.21-2.11-3.82v-1.68c0-1.18.46-2.26,1.2-3.06h-6.07c.75.8,1.2,1.88,1.2,3.06v1.68c0,1.61-.84,3.02-2.11,3.82,1.27.8,2.11,2.21,2.11,3.82v1.68c0,1.22-.48,2.32-1.27,3.13ZM13.76,61.75h4.87c-.78-.81-1.27-1.91-1.27-3.13v-1.68c0-1.61.84-3.02,2.11-3.82-1.27-.8-2.11-2.21-2.11-3.82v-1.68c0-1.18.46-2.26,1.2-3.06h-4.8v17.18ZM50.51,33.81h3.4v-3.46h-3.41c.06.29.09.59.09.89v1.75c0,.28-.03.55-.07.82ZM17.89,33.81h3.33c-.05-.27-.07-.54-.07-.82v-1.75c0-.3.03-.6.09-.89h-3.34v3.46ZM9,18.13h2.41v-2.64c0-1.02.34-1.96.91-2.71h-3.32v5.35ZM60.39,18.13h2.41v-5.35h-3.32c.57.75.91,1.69.91,2.71v2.64ZM31.26,10.99h9.2c-.43-.57-.73-1.25-.85-1.99h-7.5c-.12.74-.42,1.42-.85,1.99Z"/><path class="cls-2" d="M136.77,70.75h-55.45c-3.08,0-4.81-1.27-5.73-2.34-1.47-1.72-1.64-3.73-1.64-5.1V19.62c0-2.69,1.19-4.24,2.18-5.07,1.26-1.05,2.84-1.6,4.56-1.6h9.87c1.6,0,3.06.47,4.36,1.4.09.07.18.13.27.21,1.08.9,1.82,2.12,2.14,3.5V6.74c0-1.86.67-3.51,1.95-4.79.83-.83,2.33-1.81,4.79-1.81h9.8c1.66,0,3.13.45,4.36,1.33.2.15.4.31.57.49,1.67,1.67,2.01,3.53,2.01,4.79v11.65c.27-1.51,1.05-2.87,2.21-3.84.09-.07.17-.14.27-.21,1.3-.93,2.77-1.4,4.36-1.4h9.87c1.81,0,3.45.62,4.65,1.74.96.86,2.02,2.38,2.02,4.93v43.68c0,1.37-.17,3.38-1.64,5.1-.92,1.07-2.66,2.34-5.8,2.34ZM82.97,63.59h0,0ZM82.96,61.75h52.26V21.95h-5.49v31.55c0,2.49-2.01,4.5-4.5,4.5h-8.89c-2.49,0-4.5-2.01-4.5-4.5V9.14h-5.49v44.37c0,2.49-2.01,4.5-4.5,4.5h-8.82c-2.49,0-4.5-2.01-4.5-4.5v-31.55h-5.56v39.79Z"/><path class="cls-2" d="M211.14,70.82h-10.22s-.07,0-.11,0c-3.51-.08-6.37-.93-8.52-2.51-.14.17-.29.34-.44.49-.09.09-.19.18-.29.27-1.24,1.04-2.84,1.61-4.5,1.61h-7.7c-1.62,0-3.22-.54-4.43-1.5-.37-.28-.7-.59-.99-.94-2.16,1.63-5.05,2.5-8.61,2.58-.04,0-.07,0-.11,0h-10.22c-2.01,0-3.87-.74-5.21-2.09-1.32-1.32-2.02-3.03-2.02-4.93v-3.85c0-1.9.7-3.61,2.01-4.93,1.03-1.03,2.35-1.7,3.81-1.97-1.43-.33-2.71-1.06-3.69-2.14-1.35-1.39-2.06-3.13-2.06-5.04V12.13c0-1.85.69-3.5,2.06-4.91.97-1.06,2.68-2.25,5.45-2.25h6.37c.37,0,.73.02,1.08.07.25-.91.67-1.72,1.27-2.44.09-.1.18-.2.27-.3,1.2-1.2,2.81-1.81,4.8-1.81h39.41c1.98,0,3.6.61,4.8,1.81.09.1.19.2.27.3,1.06,1.28,1.6,2.81,1.6,4.56v28.93c.56.27,1.12.64,1.62,1.14.1.1.19.2.28.3,1.08,1.29,1.6,3.08,1.6,5.47v2.8c0,1.87-.47,3.48-1.4,4.78-.08.11-.16.21-.25.31-.75.87-2.04,1.88-4.17,2.22,1.32.3,2.5.95,3.44,1.89,1.32,1.32,2.02,3.03,2.02,4.93v3.85c0,1.91-.7,3.61-2.02,4.93-1.35,1.35-3.2,2.09-5.21,2.09ZM200.97,61.82h3.48c-1.47-.25-2.8-.93-3.85-1.98-1.32-1.32-2.07-3.14-2.09-5.12h-1.57v3.9c0,1.15.2,2,.56,2.34.14.13.97.8,3.47.86ZM161.7,61.82h3.46c2.5-.07,3.33-.73,3.47-.87.35-.33.55-1.18.55-2.33v-3.9h-1.57c-.02,1.98-.76,3.8-2.09,5.13-1.05,1.05-2.36,1.72-3.82,1.97ZM181.48,61.68h3.25v-12.93c0-2.14,1.5-3.94,3.51-4.39h-10.27c2.01.45,3.51,2.25,3.51,4.39v12.93ZM156.83,44.24h6.83c-2.01-.45-3.51-2.25-3.51-4.39V13.97h-3.32v30.27ZM202.19,33.81h4.03V9.49h-3.87c.35.64.55,1.37.55,2.15v2.17c0,1.3-.55,2.47-1.43,3.29.88.82,1.43,1.99,1.43,3.29v2.17c0,1.28-.53,2.44-1.39,3.25.86.82,1.39,1.97,1.39,3.25v2.31c0,.89-.26,1.73-.71,2.43ZM171.53,33.81h3.96c-.45-.7-.71-1.53-.71-2.43v-2.31c0-1.28.53-2.44,1.39-3.25-.86-.82-1.39-1.97-1.39-3.25v-2.17c0-1.3.55-2.47,1.43-3.29-.88-.82-1.43-1.99-1.43-3.29v-2.17c0-.78.2-1.51.55-2.15h-3.8v24.32ZM208.59,9.49h0,0Z"/><path class="cls-3" d="M58.48,69.25H13.46c-2.18,0-3.94-.59-5.23-1.75-.89-.79-1.97-2.37-1.97-5.31v-18.27c0-2.98,1.1-4.53,2.05-5.31.68-.58,1.5-1,2.49-1.25-.41-1.24-.41-2.46-.41-3.03v-4.34c0-1.76.39-3.22,1.15-4.35h-4.17c-2.17,0-3.73-.67-4.65-1.98-.8-1.01-1.22-2.33-1.22-3.82v-8.33c0-1.34.15-3.26,1.41-4.61.96-1.08,2.42-1.61,4.46-1.61h17.5c.22-.83.63-1.56,1.22-2.18.92-1.03,2.3-1.6,3.89-1.6h11.69c1.52,0,2.9.54,3.87,1.51.63.64,1.08,1.41,1.31,2.27h17.43c.77,0,3.09,0,4.52,1.6,1.16,1.24,1.4,2.95,1.48,4.46,0,.05,0,.1,0,.16v8.19c0,1.71-.42,3.05-1.28,4.1-1.41,1.84-3.9,1.84-4.73,1.84h-3.95c1.07,1.61,1.07,3.54,1.07,4.28v4.55c0,.85-.06,1.9-.39,2.94.77.21,1.47.53,2.07.94,1.63,1.07,2.45,2.99,2.45,5.71v18.06c0,2.35-.69,4.16-2.05,5.38-1.27,1.14-3,1.75-5.01,1.75ZM12.35,63.09c.16.07.49.16,1.11.16h45.01c.52,0,.82-.11.95-.17.04-.11.11-.39.11-.96v-18.06c0-.41-.03-.68-.06-.86-.21-.07-.56-.13-1.07-.13H13.39c-.55,0-.89.05-1.07.1-.03.16-.06.4-.06.75v18.27c0,.47.05.76.09.9ZM59.8,43.36s0,0,0,0c0,0,0,0,0,0ZM12.08,43.27s0,0,0,0c0,0,0,0,0,0ZM47.99,35.31h6.36c.47,0,.8-.04,1.02-.08.02-.17.04-.42.04-.76v-4.55c0-.51-.05-.8-.08-.93,0,0-.01-.01-.02-.02,0,.02-.29-.11-1.04-.11h-6.38c.72.55,1.19,1.42,1.19,2.39v1.75c0,.93-.43,1.77-1.1,2.32ZM16.45,35.21c.19.05.5.1,1,.1h6.29c-.67-.55-1.1-1.39-1.1-2.32v-1.75c0-.98.47-1.84,1.19-2.39h-6.45c-.39,0-.7.06-.87.17-.04.1-.12.39-.12.97v4.34c0,.43.03.71.06.89ZM16.16,35.09s0,0,0,0c0,0,0,0,0,0ZM21.08,21.1h29.56v-.78c0-.08,0-.15,0-.22h-29.56c0,.07,0,.14,0,.22v.78ZM7.68,20.27h0,0ZM12.88,20.06h0s0,0,0,0ZM58.89,19.63s.05,0,.08,0h5.33v-8.05c0-.11-.01-.21-.02-.3h-20.22c-1.66,0-3-1.34-3-3v-.78h-10.38s0,.78,0,.78c0,1.66-1.34,3-3,3H7.5c0,.07,0,.14,0,.22v8.13h5.41v-4.14c0-1.66,1.34-3,3-3h39.97c1.66,0,3,1.34,3,3v4.14ZM49.93,61.62h-7.7c-1.66,0-3-1.34-3-3v-1.68c0-1.66,1.34-3,3-3h7.7c1.66,0,3,1.34,3,3v1.68c0,1.66-1.34,3-3,3ZM29.56,61.62h-7.7c-1.66,0-3-1.34-3-3v-1.68c0-1.66,1.34-3,3-3h7.7c1.66,0,3,1.34,3,3v1.68c0,1.66-1.34,3-3,3ZM49.93,52.3h-7.7c-1.66,0-3-1.34-3-3v-1.68c0-1.66,1.34-3,3-3h7.7c1.66,0,3,1.34,3,3v1.68c0,1.66-1.34,3-3,3ZM29.56,52.3h-7.7c-1.66,0-3-1.34-3-3v-1.68c0-1.66,1.34-3,3-3h7.7c1.66,0,3,1.34,3,3v1.68c0,1.66-1.34,3-3,3Z"/><path class="cls-3" d="M136.77,69.25h-55.45c-2.51,0-3.88-.99-4.59-1.82-1.15-1.34-1.28-2.99-1.28-4.12V19.62c0-1.69.55-3.01,1.64-3.92.99-.82,2.23-1.25,3.6-1.25h9.87c1.28,0,2.45.38,3.49,1.12.06.04.12.09.18.14,1.13.94,1.78,2.37,1.78,3.92v30.88h2.82V6.74c0-1.47.51-2.73,1.51-3.73.91-.91,2.17-1.37,3.73-1.37h9.8c1.36,0,2.5.34,3.49,1.05.14.1.26.21.38.32,1.05,1.05,1.58,2.3,1.58,3.73v43.77h2.89v-30.88c0-1.55.65-2.97,1.78-3.92.06-.05.12-.09.18-.14,1.04-.74,2.22-1.12,3.49-1.12h9.87c1.43,0,2.71.48,3.63,1.34,1.02.9,1.54,2.19,1.54,3.83v43.68c0,1.13-.13,2.78-1.28,4.12-.71.83-2.1,1.82-4.66,1.82ZM81.46,63.25h55.26V20.45h-8.49s0,33.05,0,33.05c0,1.66-1.34,3-3,3h-8.89c-1.66,0-3-1.34-3-3V7.64h-8.49v45.87c0,1.66-1.34,3-3,3h-8.82c-1.66,0-3-1.34-3-3V20.45h-8.56s0,42.79,0,42.79Z"/><path class="cls-3" d="M211.14,69.32h-10.22c-3.76-.09-6.62-1.07-8.57-2.92-.15-.14-.3-.29-.44-.45-.24.69-.62,1.3-1.12,1.79-.06.06-.13.12-.2.18-.97.81-2.23,1.26-3.54,1.26h-7.7c-1.29,0-2.57-.43-3.52-1.19-.72-.54-1.24-1.26-1.55-2.11-.16.18-.33.35-.5.51-1.96,1.85-4.82,2.84-8.51,2.92h-10.29c-1.61,0-3.09-.58-4.15-1.65-1.05-1.05-1.58-2.35-1.58-3.87v-3.85c0-1.52.53-2.82,1.58-3.87,1.06-1.07,2.54-1.65,4.15-1.65h5.12v-1.62c0-.36.04-.71.11-1.06h-4.87c-1.75,0-3.26-.64-4.36-1.86-1.08-1.11-1.65-2.5-1.65-4.01V12.13c0-1.45.56-2.75,1.65-3.88.76-.83,2.12-1.78,4.36-1.78h6.37c.83,0,1.61.15,2.32.45.02-.92.21-2.19,1.18-3.36.06-.07.12-.13.18-.2,1.37-1.37,3.15-1.37,3.73-1.37h39.41c.58,0,2.37,0,3.73,1.37.06.06.12.13.18.2.84,1.01,1.25,2.19,1.25,3.6v29.05c0,.31-.02.6-.06.89.76.2,1.5.56,2.12,1.19.06.06.13.13.18.2.84,1.01,1.25,2.49,1.25,4.51v2.8c0,1.56-.38,2.87-1.12,3.91-.05.07-.11.14-.16.21-.71.83-2.08,1.82-4.59,1.82h-5.43c.07.35.1.7.1,1.06v1.62h5.12c1.61,0,3.09.59,4.15,1.65,1.05,1.05,1.58,2.35,1.58,3.87v3.85c0,1.52-.53,2.82-1.58,3.87-1.06,1.06-2.54,1.65-4.15,1.65ZM195.45,53.21v5.4c0,1.63.34,2.78,1.02,3.42.82.77,2.42,1.23,4.52,1.28h9.88v-2.89h-5.12c-1.57,0-3.02-.59-4.08-1.66-1.06-1.06-1.65-2.53-1.65-4.15v-1.41h-4.57ZM155.26,63.31h9.95c2.03-.04,3.63-.5,4.45-1.27.68-.64,1.02-1.8,1.02-3.42v-5.4h-4.57v1.41c0,1.62-.59,3.09-1.65,4.16-1.07,1.07-2.48,1.65-4.08,1.65h-5.12v2.88ZM179.98,63.18h6.25v-14.43c0-1.66,1.34-3,3-3h21.99v-2.74c0-.05,0-.1,0-.15h-46.56c-1.66,0-3-1.34-3-3V12.47h-6.31s0,0,0,0v33.27h21.64c1.66,0,3,1.34,3,3v14.43ZM170.03,35.31h37.68V7.99s-37.68,0-37.68,0v27.32ZM208.74,8h0,0ZM198.4,34.38h-19.11c-1.66,0-3-1.34-3-3v-2.31c0-1.66,1.34-3,3-3h19.11c1.66,0,3,1.34,3,3v2.31c0,1.66-1.34,3-3,3ZM198.4,25.56h-19.11c-1.66,0-3-1.34-3-3v-2.17c0-1.66,1.34-3,3-3h19.11c1.66,0,3,1.34,3,3v2.17c0,1.66-1.34,3-3,3ZM198.4,16.81h-19.11c-1.66,0-3-1.34-3-3v-2.17c0-1.66,1.34-3,3-3h19.11c1.66,0,3,1.34,3,3v2.17c0,1.66-1.34,3-3,3Z"/><path class="cls-2" d="M5.13,21.86c-.42-.49-.63-1.19-.63-2.03v-8.33c0-1.33.21-2.17.63-2.59.35-.42,1.12-.63,2.24-.63h20.3v-1.47c0-.7.21-1.26.63-1.68.35-.42.98-.63,1.68-.63h11.69c.7,0,1.33.21,1.75.63.42.42.63.98.63,1.68v1.47h20.23c1.19,0,1.96.21,2.31.63.42.42.63,1.26.7,2.59v8.19c0,1.05-.21,1.75-.63,2.24-.35.49-1.19.7-2.38.7h-5.32c-.84,0-1.54-.21-2.17-.63-.56-.42-.91-1.12-.91-2.17v-4.34H15.91v4.34c0,.84-.21,1.54-.63,2.03-.42.56-1.12.77-2.17.77h-5.74c-1.12,0-1.89-.21-2.24-.77ZM58.4,40.06c1.26,0,2.31.28,3.01.77.77.49,1.12,1.61,1.12,3.22v18.06c0,1.47-.35,2.52-1.05,3.15-.7.63-1.75.98-3.01.98H13.46c-1.47,0-2.52-.35-3.22-.98-.63-.56-.98-1.61-.98-3.08v-18.27c0-1.47.35-2.52.98-3.01.63-.56,1.68-.84,3.15-.84h45.01ZM17.45,38.31c-1.26,0-2.24-.21-3.01-.77-.7-.49-1.05-1.54-1.05-3.22v-4.34c0-1.47.35-2.52,1.05-3.15.7-.63,1.68-.98,2.94-.98h36.89c1.47,0,2.52.35,3.15.98.7.56.98,1.61.98,3.08v4.55c0,1.54-.28,2.52-.91,3.08-.7.49-1.68.77-3.15.77H17.45ZM18.71,23.4c-.42-.49-.63-1.26-.63-2.24v-.84c0-1.33.21-2.17.63-2.59.42-.42,1.12-.63,2.24-.63h29.68c1.19,0,1.96.21,2.38.63s.63,1.26.63,2.59v.84c0,.98-.21,1.75-.63,2.24s-1.19.7-2.38.7h-29.68c-1.12,0-1.82-.21-2.24-.7ZM21.86,49.3h7.7v-1.68h-7.7v1.68ZM21.86,58.62h7.7v-1.68h-7.7v1.68ZM46.08,32.99v-1.75h-20.44v1.75h20.44ZM49.93,47.63h-7.7v1.68h7.7v-1.68ZM49.93,56.94h-7.7v1.68h7.7v-1.68Z"/><path class="cls-2" d="M79.01,65.48c-.42-.49-.56-1.19-.56-2.17V19.62c0-.7.14-1.26.56-1.61s.98-.56,1.68-.56h9.87c.7,0,1.26.21,1.75.56.42.35.7.91.7,1.61v33.88h8.82V6.74c0-.7.21-1.19.63-1.61.35-.35.91-.49,1.61-.49h9.8c.7,0,1.26.14,1.75.49.42.42.7.91.7,1.61v46.77h8.89V19.62c0-.7.28-1.26.7-1.61.49-.35,1.05-.56,1.75-.56h9.87c.7,0,1.26.21,1.61.56.42.35.56.91.56,1.61v43.69c0,.98-.14,1.68-.56,2.17s-1.26.77-2.38.77h-55.45c-1.12,0-1.89-.28-2.31-.77Z"/><path class="cls-2" d="M171.16,50.21c.7.07,1.33.28,1.75.77.49.49.77,1.12.77,1.82v5.81c0,2.45-.63,4.34-1.96,5.6-1.33,1.26-3.5,2.03-6.51,2.1h-10.22c-.84,0-1.54-.28-2.03-.77-.49-.49-.7-1.05-.7-1.75v-3.85c0-.7.21-1.26.7-1.75.49-.49,1.19-.77,2.03-.77h5.39c.84,0,1.47-.28,1.96-.77.49-.49.77-1.19.77-2.03v-1.82c0-.7.28-1.33.77-1.82s1.12-.7,1.82-.77h5.46ZM189.23,48.74v15.26c0,.7-.21,1.26-.56,1.61-.42.35-.98.56-1.61.56h-7.7c-.63,0-1.26-.21-1.68-.56-.49-.35-.7-.91-.7-1.61v-15.26h-21.63c-.98,0-1.68-.35-2.17-.91-.56-.56-.84-1.19-.84-1.96V12.13c0-.7.28-1.26.84-1.82.49-.56,1.19-.84,2.17-.84h6.37c.84,0,1.54.28,2.1.84s.84,1.12.84,1.82v27.72h46.69c1.12,0,1.89.14,2.31.56.35.42.56,1.33.56,2.59v2.8c0,.98-.21,1.68-.56,2.17-.42.49-1.19.77-2.31.77h-22.12ZM210.16,5.48c.35.42.56.91.56,1.68v29.05c0,.7-.21,1.26-.56,1.61-.35.35-.84.49-1.61.49h-39.41c-.77,0-1.26-.14-1.61-.49-.35-.35-.49-.91-.49-1.61V7.16c0-.77.14-1.26.49-1.68.35-.35.84-.49,1.61-.49h39.41c.77,0,1.26.14,1.61.49ZM198.4,11.64h-19.11v2.17h19.11v-2.17ZM198.4,20.39h-19.11v2.17h19.11v-2.17ZM198.4,29.07h-19.11v2.31h19.11v-2.31ZM202.25,50.98c.49.49.77,1.12.77,1.82v1.82c0,.84.28,1.54.77,2.03.49.49,1.19.77,1.96.77h5.39c.84,0,1.54.28,2.03.77s.7,1.05.7,1.75v3.85c0,.7-.21,1.26-.7,1.75s-1.19.77-2.03.77h-10.22c-3.01-.07-5.18-.84-6.51-2.1-1.33-1.26-1.96-3.15-1.96-5.6v-5.81c0-.7.28-1.33.77-1.82.42-.49,1.05-.7,1.75-.77h5.46c.7.07,1.33.28,1.82.77Z"/></g></svg>