<?xml version="1.0" encoding="UTF-8"?><svg id="_レイヤー_2" xmlns="http://www.w3.org/2000/svg" viewBox="0 0 218.42 71.1"><defs><style>.cls-1,.cls-2,.cls-3{stroke-width:0px;}.cls-2{fill:#198caa;}.cls-3{fill:#fff;}</style></defs><g id="_レイヤー_4"><path class="cls-1" d="M45.8,64.56H6.74c-.77,0-1.33-.14-1.68-.49-.42-.35-.56-.84-.56-1.47v-13.37c0-.84.21-1.47.63-1.89.42-.49,1.05-.77,1.89-.98h3.57V11.71c0-.63.14-1.19.56-1.47.35-.35.98-.49,1.82-.49h11.76l1.47-2.8c.49-.98.98-1.61,1.47-1.96.42-.35,1.12-.49,2.03-.49h9.45c1.05,0,1.89.28,2.31.77.49.49.35,1.26-.28,2.24l-1.33,2.24h20.58c.84,0,1.47.14,1.82.49.42.28.63.84.63,1.47v17.99c0,.77-.21,1.26-.63,1.61-.35.35-.98.49-1.82.49H24.45v1.82h40.67c.7,0,1.19.21,1.54.63s.49,1.33.49,2.73-.14,2.38-.49,2.73c-.35.42-.84.56-1.54.56H24.45v1.89h35.56c2.24,0,3.78.42,4.76,1.33.98.91,1.47,2.52,1.47,4.83v12.95c0,2.1-.56,3.43-1.54,4.2-1.05.7-2.59,1.12-4.69,1.12h-9.87c-.63,0-1.19-.28-1.68-.7-.49-.49-.77-1.05-.84-1.82-.35.35-.98.49-1.82.49ZM19.62,55.46v-5.88h-2.73v5.88h2.73ZM50.85,15.84h-26.39v1.89h26.39v-1.89ZM50.85,23.82h-26.39v1.89h26.39v-1.89ZM33.13,55.46h2.66v-5.88h-2.66v5.88ZM50.22,56.45h1.89c1.26.07,1.89-.84,1.89-2.59v-2.73c-.21-.91-.91-1.4-1.96-1.54h-3.85v7.63c.21-.28.42-.42.7-.49.35-.14.77-.21,1.33-.28Z"/><path class="cls-1" d="M78.12,25.57c-.42-.49-.63-1.19-.63-2.24v-4.9c0-1.33.21-2.17.63-2.59.35-.42,1.12-.63,2.24-.63h7.21v-7.42c.07-.7.35-1.33.84-1.89.56-.56,1.26-.77,2.17-.77h3.15c.84,0,1.54.21,2.1.77.56.56.84,1.19.84,1.89v7.42h3.22c1.19,0,1.96.21,2.38.63s.63,1.26.63,2.59v4.9c0,1.05-.21,1.75-.63,2.24-.42.49-1.19.7-2.38.7h-3.22l3.22,2.8c1.19,1.19,1.96,1.96,2.38,2.38.35.35.56,1.05.49,2.17v7.49c.07.84-.21,1.54-.77,2.1-.56.49-1.26.49-2.1-.14l-3.22-2.8v23.38c0,.77-.28,1.4-.84,1.96-.56.56-1.26.84-2.1.84h-3.15c-.91,0-1.61-.28-2.17-.84-.49-.56-.77-1.19-.84-1.96v-19.95l-7.07,12.18c-.84,1.26-1.54,1.68-2.03,1.4-.56-.28-.84-.77-.84-1.4v-10.22c-.07-1.12.07-2.03.49-2.73.42-.77.84-1.61,1.4-2.66l8.05-14h-7.21c-1.12,0-1.89-.21-2.24-.7ZM105.21,5.69c.42-.42,1.19-.56,2.24-.56h29.4c1.19,0,2.03.14,2.45.56.35.42.56,1.33.56,2.59v29.19c0,.77-.28,1.4-.84,1.96-.56.56-1.26.84-2.1.84h-10.78v.56c-.07,7.56.49,11.97,1.54,13.37l2.45-5.81c.49-1.19.98-1.89,1.4-2.31s1.05-.56,1.96-.56h2.87c1.05,0,1.68.14,1.89.56s.14,1.12-.28,2.31l-3.5,8.19h2.94c.77.07,1.33.28,1.89.77.49.42.7,1.05.7,1.75v4.55c0,.77-.21,1.33-.7,1.82-.56.42-1.12.7-1.89.77h-6.09c-4.97-.14-8.47-1.54-10.5-4.13-.35-.42-.7-1.05-1.05-1.68v3.64c0,.84-.21,1.4-.63,1.75-.35.35-1.12.56-2.24.56h-9.38c-1.19,0-1.96-.21-2.31-.56-.42-.35-.63-.91-.63-1.75V8.28c0-1.26.21-2.17.63-2.59ZM115.57,17.94h13.37v-3.43h-13.37v3.43ZM115.57,30.82h13.37v-3.43h-13.37v3.43ZM115.57,55.04c0,1.05.42,1.54,1.33,1.54.77,0,1.33.07,1.75.21-.77-3.29-1.33-7.77-1.61-13.51v-3.01h-1.47v14.77Z"/><path class="cls-1" d="M170.87,50.49c.7.07,1.33.28,1.75.77.49.49.77,1.12.77,1.82v5.81c0,2.45-.63,4.34-1.96,5.6-1.33,1.26-3.5,2.03-6.51,2.1h-10.22c-.84,0-1.54-.28-2.03-.77-.49-.49-.7-1.05-.7-1.75v-3.85c0-.7.21-1.26.7-1.75.49-.49,1.19-.77,2.03-.77h5.39c.84,0,1.47-.28,1.96-.77.49-.49.77-1.19.77-2.03v-1.82c0-.7.28-1.33.77-1.82s1.12-.7,1.82-.77h5.46ZM188.93,49.02v15.26c0,.7-.21,1.26-.56,1.61-.42.35-.98.56-1.61.56h-7.7c-.63,0-1.26-.21-1.68-.56-.49-.35-.7-.91-.7-1.61v-15.26h-21.63c-.98,0-1.68-.35-2.17-.91-.56-.56-.84-1.19-.84-1.96V12.41c0-.7.28-1.26.84-1.82.49-.56,1.19-.84,2.17-.84h6.37c.84,0,1.54.28,2.1.84s.84,1.12.84,1.82v27.72h46.7c1.12,0,1.89.14,2.31.56.35.42.56,1.33.56,2.59v2.8c0,.98-.21,1.68-.56,2.17-.42.49-1.19.77-2.31.77h-22.12ZM209.86,5.76c.35.42.56.91.56,1.68v29.05c0,.7-.21,1.26-.56,1.61-.35.35-.84.49-1.61.49h-39.41c-.77,0-1.26-.14-1.61-.49-.35-.35-.49-.91-.49-1.61V7.44c0-.77.14-1.26.49-1.68.35-.35.84-.49,1.61-.49h39.41c.77,0,1.26.14,1.61.49ZM198.1,11.92h-19.11v2.17h19.11v-2.17ZM198.1,20.67h-19.11v2.17h19.11v-2.17ZM198.1,29.35h-19.11v2.31h19.11v-2.31ZM201.95,51.26c.49.49.77,1.12.77,1.82v1.82c0,.84.28,1.54.77,2.03.49.49,1.19.77,1.96.77h5.39c.84,0,1.54.28,2.03.77s.7,1.05.7,1.75v3.85c0,.7-.21,1.26-.7,1.75s-1.19.77-2.03.77h-10.22c-3.01-.07-5.18-.84-6.51-2.1-1.33-1.26-1.96-3.15-1.96-5.6v-5.81c0-.7.28-1.33.77-1.82.42-.49,1.05-.7,1.75-.77h5.46c.7.07,1.33.28,1.82.77Z"/><path class="cls-2" d="M60.02,71.1h-9.87c-1.66,0-3.25-.62-4.62-1.79-.08-.07-.16-.15-.24-.22,0,0-.01-.01-.02-.02H6.74c-1.95,0-3.53-.56-4.72-1.67-.96-.85-2.02-2.36-2.02-4.79v-13.37c0-2.46.96-4.03,1.82-4.94,1.31-1.46,2.96-2.01,4.1-2.29.05-.01.11-.03.17-.04V11.71c0-2.67,1.23-4.17,2.18-4.94,1.17-1.01,2.75-1.52,4.7-1.52h9.04l.21-.39c.74-1.49,1.64-2.64,2.71-3.44,1.22-.96,2.78-1.42,4.77-1.42h9.45c2.34,0,4.33.79,5.63,2.23.71.76,1.26,1.8,1.42,3.02h14.23c1.93,0,3.5.5,4.67,1.5,1.46,1.14,2.28,2.92,2.28,4.96v17.78c1.07.37,2,1,2.73,1.88,1.35,1.62,1.54,3.75,1.54,5.61,0,2.06-.21,4.18-1.66,5.76-.07.08-.14.16-.22.24.65,1.49.97,3.27.97,5.35v12.95c0,3.44-1.1,6.04-3.26,7.74-.09.07-.18.14-.28.2-1.87,1.25-4.29,1.88-7.19,1.88ZM51.67,62.1h8.35c.81,0,1.35-.09,1.7-.18.02-.16.04-.37.04-.64v-12.95c0-.79-.08-1.26-.14-1.52-.26-.06-.75-.15-1.59-.15h-3.73c1.04.86,1.77,2.04,2.09,3.44.08.33.12.67.12,1.02v2.73c0,2.33-.7,4.16-2.07,5.46-1.17,1.11-2.73,1.69-4.41,1.63h-1.16c.33.34.6.73.81,1.15ZM44.45,60.89s0,0,0,0c0,0,0,0,0,0ZM9,60.06h35.7c-.64-.78-1.02-1.78-1.02-2.85v-7.63c0-1.12.41-2.14,1.08-2.92h-5.55c.67.79,1.08,1.81,1.08,2.92v5.88c0,2.49-2.01,4.5-4.5,4.5h-2.66c-2.49,0-4.5-2.01-4.5-4.5v-5.88c0-1.12.41-2.14,1.08-2.92h-5.26c-.62,0-1.21-.12-1.74-.35.87.82,1.41,1.98,1.41,3.27v5.88c0,2.49-2.01,4.5-4.5,4.5h-2.73c-2.49,0-4.5-2.01-4.5-4.5v-4.98c-.55.24-1.16.38-1.8.38h-1.59v9.2ZM15.09,14.25v31.21c.55-.24,1.16-.38,1.8-.38h2.73c.62,0,1.21.12,1.74.35-.87-.82-1.41-1.98-1.41-3.27v-1.89c0-1.32.57-2.5,1.47-3.33-.9-.82-1.47-2.01-1.47-3.33v-1.82c0-1.17.45-2.24,1.19-3.05-.74-.8-1.19-1.87-1.19-3.05v-1.89c0-1.17.45-2.24,1.19-3.04-.74-.8-1.19-1.87-1.19-3.04v-1.89c0-.56.1-1.1.29-1.59h-5.15ZM55.06,27.3h3.33v-13.05h-3.33c.19.49.29,1.03.29,1.59v1.89c0,1.17-.45,2.24-1.19,3.04.74.8,1.19,1.87,1.19,3.04v1.89c0,.56-.1,1.1-.29,1.59ZM28.98,11.34h6.66c-.28-.75-.36-1.56-.23-2.34h-5.21s-1.23,2.34-1.23,2.34Z"/><path class="cls-2" d="M93.73,70.96h-3.15c-2.09,0-3.94-.75-5.35-2.16-.07-.07-.14-.14-.21-.22-1.13-1.29-1.78-2.81-1.93-4.52-.01-.14-.02-.27-.02-.41v-3.79c-2.81,2.94-5.66,1.92-6.62,1.44h0c-2.08-1.04-3.32-3.07-3.32-5.42v-10.1c-.1-1.99.25-3.65,1.07-5.07.2-.36.39-.74.61-1.16.22-.43.47-.9.74-1.41.02-.04.04-.08.07-.12l4.18-7.27c-2.32-.11-4.07-.91-5.21-2.39-1.08-1.32-1.6-2.97-1.6-5.03v-4.9c0-1.6.19-3.9,1.81-5.63,1.25-1.39,3.11-2.09,5.56-2.09h2.71v-2.92c0-.15,0-.3.02-.45.16-1.62.83-3.15,1.93-4.4.07-.08.14-.15.21-.23,1.39-1.38,3.19-2.08,5.35-2.08h3.15c2.64,0,4.33,1.13,5.28,2.08.67.67,1.19,1.41,1.55,2.22.32-.96.81-1.76,1.47-2.42h0c1.68-1.68,3.9-1.88,5.42-1.88h29.4c1.75,0,3.97.21,5.63,1.88.1.1.19.19.27.3,1.08,1.29,1.61,3.08,1.61,5.47v29.19c0,1.95-.75,3.73-2.16,5.14-.17.17-.36.34-.54.49.23.29.44.61.62.96,1.03,2.07.51,4.2-.06,5.82-.03.09-.07.18-.11.27l-1.21,2.84c.48.26.94.59,1.37.96,1.43,1.22,2.23,3.06,2.23,5.13v4.55c0,1.99-.68,3.67-2.02,5.01-.15.15-.31.29-.47.41-1.3.97-2.67,1.52-4.18,1.65-.14.01-.27.02-.41.02h-6.09s-.08,0-.13,0c-3.41-.1-6.33-.71-8.77-1.83-.09.09-.18.17-.26.25-1.24,1.15-3.01,1.73-5.27,1.73h-9.38c-2.34,0-4.09-.57-5.34-1.73-.61-.54-1.26-1.34-1.67-2.48-.36.77-.86,1.48-1.5,2.12-1.41,1.41-3.24,2.16-5.28,2.16ZM92.07,61.96h.1v-21.68c0-1.76,1.03-3.36,2.63-4.09,1.11-.51,2.35-.53,3.46-.12v-2.26l-1.44-1.44-3.1-2.7c-1.42-1.23-1.92-3.21-1.26-4.97.66-1.76,2.34-2.92,4.21-2.92h1.73v-2.06h-1.73c-2.49,0-4.5-2.01-4.5-4.5v-5.58h-.1v5.58c0,2.49-2.01,4.5-4.5,4.5h-5.58v2.06h5.58c1.61,0,3.09.86,3.9,2.25.8,1.39.81,3.1,0,4.5l-6.71,11.67c1.09-.87,2.56-1.21,3.98-.83,1.96.53,3.33,2.31,3.33,4.35v18.25ZM109.08,61.88h6.19v-1c-2.54-.66-4.2-2.88-4.2-5.84v-14.77c0-2.49,2.01-4.5,4.5-4.5h1.47c2.49,0,4.5,2.01,4.5,4.5v2.9c.04.9.1,1.77.16,2.61-.05-1.46-.07-3.11-.05-5v-.52c0-2.49,2.01-4.5,4.5-4.5h9.22V9.63h-26.28v52.26ZM131.39,61.75h4.11v-.66h-1.03c-1.51,0-2.92-.76-3.76-2.02-.23-.35-.41-.73-.53-1.12-.58.39-1.24.64-1.95.73-1.6.19-3.18-.48-4.15-1.77-.55-.73-1.07-1.69-1.5-3.36.14.79.29,1.53.45,2.22.13.55.15,1.11.08,1.65.22.25.42.52.59.83.2.36.48.85.59,1.01.03.04.04.05.07.08,1.45,1.85,4.61,2.33,7.03,2.41ZM105.21,5.69h0,0ZM128.95,35.32h-13.37c-2.49,0-4.5-2.01-4.5-4.5v-3.43c0-2.49,2.01-4.5,4.5-4.5h13.37c2.49,0,4.5,2.01,4.5,4.5v3.43c0,2.49-2.01,4.5-4.5,4.5ZM128.95,22.44h-13.37c-2.49,0-4.5-2.01-4.5-4.5v-3.43c0-2.49,2.01-4.5,4.5-4.5h13.37c2.49,0,4.5,2.01,4.5,4.5v3.43c0,2.49-2.01,4.5-4.5,4.5Z"/><path class="cls-2" d="M210.84,71.1h-10.22s-.07,0-.11,0c-3.51-.08-6.37-.93-8.52-2.51-.14.17-.29.34-.45.5-.09.09-.19.18-.29.26-1.24,1.04-2.84,1.61-4.5,1.61h-7.7c-1.62,0-3.22-.54-4.43-1.5-.37-.28-.7-.6-.99-.94-2.16,1.63-5.05,2.5-8.61,2.58-.04,0-.07,0-.11,0h-10.22c-2.02,0-3.87-.74-5.21-2.09-1.32-1.32-2.02-3.03-2.02-4.93v-3.85c0-1.9.7-3.61,2.01-4.93,1.03-1.03,2.35-1.7,3.81-1.97-1.43-.33-2.71-1.06-3.69-2.14-1.35-1.4-2.06-3.13-2.06-5.04V12.41c0-1.84.69-3.49,2.06-4.91.97-1.06,2.68-2.25,5.45-2.25h6.37c.37,0,.73.02,1.08.07.25-.91.67-1.72,1.27-2.45.08-.1.17-.2.26-.29,1.2-1.21,2.81-1.82,4.8-1.82h39.41c1.98,0,3.6.61,4.8,1.81.09.1.19.19.27.3,1.06,1.28,1.6,2.81,1.6,4.56v28.93c.56.27,1.12.64,1.62,1.14.1.1.19.2.28.3,1.08,1.29,1.6,3.08,1.6,5.47v2.8c0,1.88-.47,3.48-1.4,4.78-.08.11-.16.21-.25.31-.75.87-2.04,1.88-4.17,2.22,1.32.3,2.5.95,3.44,1.89,1.32,1.32,2.02,3.03,2.02,4.93v3.85c0,1.91-.7,3.61-2.02,4.93-1.35,1.35-3.2,2.09-5.21,2.09ZM200.67,62.1h3.48c-1.47-.25-2.8-.93-3.85-1.98-1.33-1.32-2.07-3.14-2.09-5.12h-1.57v3.9c0,1.15.2,2,.56,2.34.14.13.97.8,3.47.86ZM161.4,62.1h3.46c2.5-.07,3.33-.73,3.47-.87.35-.33.55-1.19.55-2.33v-3.9h-1.57c-.02,1.98-.76,3.8-2.09,5.12-1.06,1.06-2.36,1.73-3.82,1.98ZM181.18,61.96h3.25v-12.93c0-2.15,1.5-3.94,3.51-4.39h-10.27c2.01.45,3.51,2.25,3.51,4.39v12.93ZM156.53,44.52h6.83c-2.01-.45-3.51-2.25-3.51-4.39V14.25h-3.32v30.27ZM201.89,34.09h4.03V9.77h-3.87c.35.64.55,1.37.55,2.15v2.17c0,1.3-.55,2.47-1.43,3.29.88.82,1.43,1.99,1.43,3.29v2.17c0,1.28-.53,2.44-1.39,3.25.86.82,1.39,1.97,1.39,3.25v2.31c0,.9-.26,1.73-.71,2.43ZM171.23,34.09h3.96c-.45-.7-.71-1.53-.71-2.43v-2.31c0-1.28.53-2.44,1.39-3.25-.86-.82-1.39-1.97-1.39-3.25v-2.17c0-1.3.55-2.47,1.43-3.29-.88-.82-1.43-1.99-1.43-3.29v-2.17c0-.78.2-1.51.55-2.15h-3.8v24.32ZM208.29,9.77h.01-.01Z"/><path class="cls-3" d="M60.02,69.6h-9.87c-.9,0-2.27-.25-3.64-1.43-.05-.05-.11-.1-.16-.15-.15-.15-.29-.3-.42-.46-.05,0-.09,0-.13,0H6.74c-.59,0-2.35,0-3.7-1.27-.72-.64-1.54-1.79-1.54-3.69v-13.37c0-1.98.76-3.22,1.43-3.93,1.04-1.17,2.41-1.62,3.36-1.85.24-.06.48-.09.73-.09h.57V11.71c0-2.09.93-3.22,1.64-3.78,1.35-1.18,3.13-1.18,3.74-1.18h9.95l.63-1.2c.65-1.31,1.41-2.29,2.3-2.95.95-.75,2.21-1.11,3.86-1.11h9.45c1.92,0,3.52.62,4.53,1.75.46.5,1.31,1.7,1,3.5h15.75c.6,0,2.37,0,3.72,1.16,1.1.85,1.73,2.22,1.73,3.79v17.99c0,.33-.02.65-.07.96,1.59.18,2.58.98,3.15,1.67,1.04,1.25,1.19,2.98,1.19,4.65s-.16,3.54-1.26,4.74c-.3.34-.64.62-1.01.85.92,1.44,1.36,3.34,1.36,5.75v12.95c0,2.95-.9,5.16-2.69,6.56-.06.05-.12.09-.19.14-1.62,1.08-3.75,1.63-6.36,1.63ZM50.59,63.6h9.43c1.62,0,2.48-.3,2.89-.53.15-.18.34-.71.34-1.79v-12.95c0-2.13-.51-2.63-.51-2.63-.13-.12-.72-.53-2.72-.53H24.45c-1.66,0-3-1.34-3-3v-1.89c0-1.66,1.34-3,3-3h39.7c0-.09,0-.19,0-.29,0-.13,0-.25,0-.36H24.45c-1.66,0-3-1.34-3-3v-1.82c0-1.66,1.34-3,3-3h35.43V12.75s-20.03,0-20.03,0c-1.08,0-2.07-.58-2.61-1.52-.53-.94-.52-2.09.03-3.02l.43-.72h-8c-.15,0-.27,0-.35.01-.09.11-.25.35-.46.78l-1.5,2.85c-.52.99-1.54,1.61-2.66,1.61h-11.14v33.61c0,1.66-1.34,3-3,3h-3.09v12.2h38.3c.08,0,.14,0,.19,0,.78-.51,1.76-.63,2.65-.31,1.03.37,1.77,1.27,1.94,2.34ZM45.51,61.95s0,0,0,0c0,0,0,0,0,0ZM7.25,49.46s0,0,0,0c0,0,0,0,0,0ZM29.59,7.29h0s0,0,0,0ZM48.19,60.21c-.31,0-.63-.05-.94-.15-1.23-.41-2.06-1.55-2.06-2.85v-7.63c0-1.66,1.34-3,3-3h3.85c.13,0,.27,0,.4.03,2.32.31,4,1.75,4.49,3.84.05.22.08.45.08.68v2.73c0,1.9-.54,3.37-1.6,4.37-.88.83-2.08,1.27-3.36,1.22h-1.64c-.11.01-.19.03-.26.04-.55.47-1.25.73-1.96.73ZM50.59,59s0,0,0,0c0,0,0,0,0,0ZM35.79,58.46h-2.66c-1.66,0-3-1.34-3-3v-5.88c0-1.66,1.34-3,3-3h2.66c1.66,0,3,1.34,3,3v5.88c0,1.66-1.34,3-3,3ZM19.62,58.46h-2.73c-1.66,0-3-1.34-3-3v-5.88c0-1.66,1.34-3,3-3h2.73c1.66,0,3,1.34,3,3v5.88c0,1.66-1.34,3-3,3ZM50.85,28.71h-26.39c-1.66,0-3-1.34-3-3v-1.89c0-1.66,1.34-3,3-3h26.39c1.66,0,3,1.34,3,3v1.89c0,1.66-1.34,3-3,3ZM50.85,20.73h-26.39c-1.66,0-3-1.34-3-3v-1.89c0-1.66,1.34-3,3-3h26.39c1.66,0,3,1.34,3,3v1.89c0,1.66-1.34,3-3,3Z"/><path class="cls-3" d="M93.73,69.46h-3.15c-1.68,0-3.17-.59-4.29-1.72-.05-.05-.09-.1-.14-.15-.92-1.05-1.44-2.28-1.57-3.66,0-.09-.01-.18-.01-.27v-8.81l-1.48,2.54c-.03.05-.06.11-.1.16-2.48,3.73-5.05,2.85-5.92,2.4-1.54-.79-2.45-2.3-2.45-4.06v-10.13c-.09-1.72.2-3.12.88-4.3.2-.38.41-.77.63-1.2.22-.43.46-.89.73-1.39l5.51-9.59h-2.03c-2.11,0-3.65-.62-4.59-1.84-.86-1.05-1.28-2.39-1.28-4.1v-4.9c0-1.34.15-3.27,1.41-4.61.96-1.08,2.42-1.6,4.46-1.6h4.21v-4.42c0-.1,0-.2.01-.3.13-1.33.66-2.53,1.57-3.57.04-.05.09-.1.14-.15,1.09-1.09,2.54-1.64,4.29-1.64h3.15c1.71,0,3.13.55,4.22,1.65,1.13,1.13,1.72,2.51,1.72,4.01v4.42h.22c.33,0,.96,0,1.69.13v-4.06c0-2.16.49-3.7,1.51-4.71,1.29-1.29,3.11-1.44,4.36-1.44h29.4c1.46,0,3.3.16,4.57,1.44.06.06.12.13.18.2.85,1.01,1.26,2.49,1.26,4.51v29.19c0,1.55-.59,2.96-1.72,4.08-.64.63-1.38,1.1-2.2,1.39.77.31,1.51.85,1.99,1.8.78,1.56.37,3.22-.13,4.65-.02.06-.04.12-.07.18l-1.81,4.24c.88.24,1.65.66,2.36,1.28,1.1.94,1.72,2.37,1.72,4.01v4.55c0,1.57-.53,2.9-1.58,3.95-.1.1-.21.19-.32.27-.68.51-1.78,1.21-3.42,1.36-.09,0-.18.01-.27.01h-6.09c-3.76-.11-6.87-.85-9.3-2.24-.27.44-.57.78-.87,1.04-.96.89-2.39,1.34-4.26,1.34h-9.38c-1.95,0-3.36-.44-4.33-1.34-.76-.67-1.61-1.89-1.61-3.97v-17.53c-.6.07-1.24.01-1.91-.21v17.33c0,1.55-.59,2.96-1.72,4.08-1.12,1.12-2.58,1.72-4.22,1.72ZM90.57,63.46h3.1v-23.18c0-1.18.69-2.24,1.76-2.73,1.07-.49,2.33-.3,3.21.47l1.12.98v-5.36c0-.06,0-.13,0-.19,0-.09,0-.17,0-.24l-1.93-1.93-3.14-2.73c-.94-.82-1.28-2.14-.84-3.31.44-1.17,1.56-1.95,2.81-1.95h3.23v-4.84c0-.08,0-.15,0-.22h-3.23c-1.66,0-3-1.34-3-3v-7.08h-3.1v7.08c0,1.66-1.34,3-3,3h-7.08c0,.07,0,.14,0,.22v4.84h7.08c1.07,0,2.06.57,2.6,1.5.54.93.54,2.07,0,3l-8.05,14c-.21.4-.44.84-.66,1.25-.25.48-.48.92-.71,1.35-.02.04-.04.07-.06.11h0s-.12.24-.07,1c0,.06,0,.12,0,.19v4.02l4.35-7.49c.68-1.17,2.07-1.75,3.37-1.39,1.31.35,2.22,1.54,2.22,2.9v19.75ZM107.58,63.38h9.19v-2.95c0-.29.04-.58.12-.85-2.59,0-4.32-1.83-4.32-4.54v-14.77c0-1.66,1.34-3,3-3h1.47c1.66,0,3,1.34,3,3v2.94c.26,5.35.78,9.69,1.53,12.9.14.62.09,1.25-.15,1.82.39.26.72.61.96,1.04.25.45.57,1.02.73,1.22,1.52,1.94,4.29,2.94,8.28,3.05h5.59s0-3.66,0-3.66h-2.53c-1.01,0-1.95-.51-2.5-1.35-.55-.84-.65-1.9-.25-2.83l2.94-6.88h-1.16s-.05,0-.08,0c-.13.21-.31.53-.51,1.01l-2.46,5.83c-.42.99-1.33,1.68-2.4,1.81-1.07.13-2.12-.32-2.77-1.18-1.11-1.49-2.24-4.45-2.14-15.2v-.53c0-1.66,1.34-3,3-3h10.72V8.28c0-.05,0-.1,0-.15h-29.28s0,.1,0,.15v55.11ZM137.33,59.61s.02.02.03.03c0,0-.02-.02-.03-.03ZM133.1,48.55h0,0ZM129.15,43.27c0,.33,0,.65.01.96.08-.09.17-.18.25-.27.28-.28.58-.51.88-.69h-1.15ZM80.56,23.83h0,0ZM105.21,5.69h0,0ZM128.95,33.82h-13.37c-1.66,0-3-1.34-3-3v-3.43c0-1.66,1.34-3,3-3h13.37c1.66,0,3,1.34,3,3v3.43c0,1.66-1.34,3-3,3ZM128.95,20.94h-13.37c-1.66,0-3-1.34-3-3v-3.43c0-1.66,1.34-3,3-3h13.37c1.66,0,3,1.34,3,3v3.43c0,1.66-1.34,3-3,3Z"/><path class="cls-3" d="M210.84,69.6h-10.22c-3.76-.09-6.62-1.07-8.57-2.92-.15-.15-.3-.29-.44-.45-.24.69-.62,1.3-1.12,1.79-.06.06-.13.12-.19.18-.97.81-2.23,1.26-3.54,1.26h-7.7c-1.29,0-2.57-.43-3.52-1.19-.72-.54-1.24-1.26-1.55-2.11-.16.18-.32.35-.5.52-1.96,1.85-4.82,2.84-8.5,2.92h-10.29c-1.62,0-3.09-.58-4.15-1.65-1.05-1.05-1.58-2.35-1.58-3.87v-3.85c0-1.52.53-2.82,1.58-3.87,1.06-1.06,2.54-1.65,4.15-1.65h5.12v-1.62c0-.36.04-.71.11-1.06h-4.87c-1.75,0-3.26-.64-4.36-1.86-1.08-1.11-1.65-2.5-1.65-4.01V12.41c0-1.45.56-2.75,1.65-3.88.76-.83,2.12-1.78,4.36-1.78h6.37c.83,0,1.61.15,2.32.45.02-.92.21-2.19,1.18-3.36.06-.07.11-.13.18-.19,1.37-1.38,3.15-1.38,3.74-1.38h39.41c.59,0,2.37,0,3.74,1.37.06.06.12.13.18.2.84,1.01,1.25,2.19,1.25,3.6v29.05c0,.31-.02.6-.06.89.76.2,1.5.56,2.13,1.19.06.06.13.13.18.2.84,1.01,1.25,2.49,1.25,4.51v2.8c0,1.56-.38,2.87-1.12,3.91-.05.07-.11.14-.16.21-.71.83-2.08,1.82-4.59,1.82h-5.43c.07.35.1.7.1,1.06v1.62h5.12c1.61,0,3.09.59,4.15,1.65,1.05,1.05,1.58,2.35,1.58,3.87v3.85c0,1.52-.53,2.82-1.58,3.87-1.06,1.06-2.54,1.65-4.15,1.65ZM195.15,53.49v5.4c0,1.63.34,2.78,1.03,3.43.82.77,2.42,1.23,4.52,1.28h9.88v-2.89h-5.12c-1.57,0-3.02-.59-4.08-1.66-1.06-1.06-1.65-2.53-1.65-4.15v-1.41h-4.57ZM154.96,63.59h9.95c2.02-.04,3.63-.5,4.45-1.27.68-.64,1.02-1.8,1.02-3.42v-5.4h-4.57v1.41c0,1.62-.59,3.09-1.65,4.15-1.08,1.08-2.49,1.65-4.08,1.65h-5.12v2.88ZM179.68,63.46h6.25v-14.43c0-1.66,1.34-3,3-3h21.99v-2.74c0-.05,0-.1,0-.15h-46.56c-1.66,0-3-1.34-3-3V12.75h-6.31s0,0,0,0v33.27h21.64c1.66,0,3,1.34,3,3v14.43ZM170.73,53.5h0s0,0,0,0ZM169.73,35.59h37.68V8.27s-37.68,0-37.68,0v27.32ZM208.44,8.28h0,0ZM198.1,34.66h-19.11c-1.66,0-3-1.34-3-3v-2.31c0-1.66,1.34-3,3-3h19.11c1.66,0,3,1.34,3,3v2.31c0,1.66-1.34,3-3,3ZM198.1,25.84h-19.11c-1.66,0-3-1.34-3-3v-2.17c0-1.66,1.34-3,3-3h19.11c1.66,0,3,1.34,3,3v2.17c0,1.66-1.34,3-3,3ZM198.1,17.09h-19.11c-1.66,0-3-1.34-3-3v-2.17c0-1.66,1.34-3,3-3h19.11c1.66,0,3,1.34,3,3v2.17c0,1.66-1.34,3-3,3Z"/><path class="cls-2" d="M45.8,64.56H6.74c-.77,0-1.33-.14-1.68-.49-.42-.35-.56-.84-.56-1.47v-13.37c0-.84.21-1.47.63-1.89.42-.49,1.05-.77,1.89-.98h3.57V11.71c0-.63.14-1.19.56-1.47.35-.35.98-.49,1.82-.49h11.76l1.47-2.8c.49-.98.98-1.61,1.47-1.96.42-.35,1.12-.49,2.03-.49h9.45c1.05,0,1.89.28,2.31.77.49.49.35,1.26-.28,2.24l-1.33,2.24h20.58c.84,0,1.47.14,1.82.49.42.28.63.84.63,1.47v17.99c0,.77-.21,1.26-.63,1.61-.35.35-.98.49-1.82.49H24.45v1.82h40.67c.7,0,1.19.21,1.54.63s.49,1.33.49,2.73-.14,2.38-.49,2.73c-.35.42-.84.56-1.54.56H24.45v1.89h35.56c2.24,0,3.78.42,4.76,1.33.98.91,1.47,2.52,1.47,4.83v12.95c0,2.1-.56,3.43-1.54,4.2-1.05.7-2.59,1.12-4.69,1.12h-9.87c-.63,0-1.19-.28-1.68-.7-.49-.49-.77-1.05-.84-1.82-.35.35-.98.49-1.82.49ZM19.62,55.46v-5.88h-2.73v5.88h2.73ZM50.85,15.84h-26.39v1.89h26.39v-1.89ZM50.85,23.82h-26.39v1.89h26.39v-1.89ZM33.13,55.46h2.66v-5.88h-2.66v5.88ZM50.22,56.45h1.89c1.26.07,1.89-.84,1.89-2.59v-2.73c-.21-.91-.91-1.4-1.96-1.54h-3.85v7.63c.21-.28.42-.42.7-.49.35-.14.77-.21,1.33-.28Z"/><path class="cls-2" d="M78.12,25.57c-.42-.49-.63-1.19-.63-2.24v-4.9c0-1.33.21-2.17.63-2.59.35-.42,1.12-.63,2.24-.63h7.21v-7.42c.07-.7.35-1.33.84-1.89.56-.56,1.26-.77,2.17-.77h3.15c.84,0,1.54.21,2.1.77.56.56.84,1.19.84,1.89v7.42h3.22c1.19,0,1.96.21,2.38.63s.63,1.26.63,2.59v4.9c0,1.05-.21,1.75-.63,2.24-.42.49-1.19.7-2.38.7h-3.22l3.22,2.8c1.19,1.19,1.96,1.96,2.38,2.38.35.35.56,1.05.49,2.17v7.49c.07.84-.21,1.54-.77,2.1-.56.49-1.26.49-2.1-.14l-3.22-2.8v23.38c0,.77-.28,1.4-.84,1.96-.56.56-1.26.84-2.1.84h-3.15c-.91,0-1.61-.28-2.17-.84-.49-.56-.77-1.19-.84-1.96v-19.95l-7.07,12.18c-.84,1.26-1.54,1.68-2.03,1.4-.56-.28-.84-.77-.84-1.4v-10.22c-.07-1.12.07-2.03.49-2.73.42-.77.84-1.61,1.4-2.66l8.05-14h-7.21c-1.12,0-1.89-.21-2.24-.7ZM105.21,5.69c.42-.42,1.19-.56,2.24-.56h29.4c1.19,0,2.03.14,2.45.56.35.42.56,1.33.56,2.59v29.19c0,.77-.28,1.4-.84,1.96-.56.56-1.26.84-2.1.84h-10.78v.56c-.07,7.56.49,11.97,1.54,13.37l2.45-5.81c.49-1.19.98-1.89,1.4-2.31s1.05-.56,1.96-.56h2.87c1.05,0,1.68.14,1.89.56s.14,1.12-.28,2.31l-3.5,8.19h2.94c.77.07,1.33.28,1.89.77.49.42.7,1.05.7,1.75v4.55c0,.77-.21,1.33-.7,1.82-.56.42-1.12.7-1.89.77h-6.09c-4.97-.14-8.47-1.54-10.5-4.13-.35-.42-.7-1.05-1.05-1.68v3.64c0,.84-.21,1.4-.63,1.75-.35.35-1.12.56-2.24.56h-9.38c-1.19,0-1.96-.21-2.31-.56-.42-.35-.63-.91-.63-1.75V8.28c0-1.26.21-2.17.63-2.59ZM115.57,17.94h13.37v-3.43h-13.37v3.43ZM115.57,30.82h13.37v-3.43h-13.37v3.43ZM115.57,55.04c0,1.05.42,1.54,1.33,1.54.77,0,1.33.07,1.75.21-.77-3.29-1.33-7.77-1.61-13.51v-3.01h-1.47v14.77Z"/><path class="cls-2" d="M170.87,50.49c.7.07,1.33.28,1.75.77.49.49.77,1.12.77,1.82v5.81c0,2.45-.63,4.34-1.96,5.6-1.33,1.26-3.5,2.03-6.51,2.1h-10.22c-.84,0-1.54-.28-2.03-.77-.49-.49-.7-1.05-.7-1.75v-3.85c0-.7.21-1.26.7-1.75.49-.49,1.19-.77,2.03-.77h5.39c.84,0,1.47-.28,1.96-.77.49-.49.77-1.19.77-2.03v-1.82c0-.7.28-1.33.77-1.82s1.12-.7,1.82-.77h5.46ZM188.93,49.02v15.26c0,.7-.21,1.26-.56,1.61-.42.35-.98.56-1.61.56h-7.7c-.63,0-1.26-.21-1.68-.56-.49-.35-.7-.91-.7-1.61v-15.26h-21.63c-.98,0-1.68-.35-2.17-.91-.56-.56-.84-1.19-.84-1.96V12.41c0-.7.28-1.26.84-1.82.49-.56,1.19-.84,2.17-.84h6.37c.84,0,1.54.28,2.1.84s.84,1.12.84,1.82v27.72h46.7c1.12,0,1.89.14,2.31.56.35.42.56,1.33.56,2.59v2.8c0,.98-.21,1.68-.56,2.17-.42.49-1.19.77-2.31.77h-22.12ZM209.86,5.76c.35.42.56.91.56,1.68v29.05c0,.7-.21,1.26-.56,1.61-.35.35-.84.49-1.61.49h-39.41c-.77,0-1.26-.14-1.61-.49-.35-.35-.49-.91-.49-1.61V7.44c0-.77.14-1.26.49-1.68.35-.35.84-.49,1.61-.49h39.41c.77,0,1.26.14,1.61.49ZM198.1,11.92h-19.11v2.17h19.11v-2.17ZM198.1,20.67h-19.11v2.17h19.11v-2.17ZM198.1,29.35h-19.11v2.31h19.11v-2.31ZM201.95,51.26c.49.49.77,1.12.77,1.82v1.82c0,.84.28,1.54.77,2.03.49.49,1.19.77,1.96.77h5.39c.84,0,1.54.28,2.03.77s.7,1.05.7,1.75v3.85c0,.7-.21,1.26-.7,1.75s-1.19.77-2.03.77h-10.22c-3.01-.07-5.18-.84-6.51-2.1-1.33-1.26-1.96-3.15-1.96-5.6v-5.81c0-.7.28-1.33.77-1.82.42-.49,1.05-.7,1.75-.77h5.46c.7.07,1.33.28,1.82.77Z"/></g></svg>