<?xml version="1.0" encoding="UTF-8"?><svg xmlns="http://www.w3.org/2000/svg" xmlns:xlink="http://www.w3.org/1999/xlink" viewBox="0 0 560 740"><defs><style>.cls-1{fill:#967a79;}.cls-1,.cls-2,.cls-3,.cls-4,.cls-5,.cls-6,.cls-7,.cls-8,.cls-9,.cls-10,.cls-11{stroke-width:0px;}.cls-2{fill:#b08c72;}.cls-12{mix-blend-mode:soft-light;opacity:.3;}.cls-3{fill:#ff6700;}.cls-4{fill:#ff9248;}.cls-13{isolation:isolate;}.cls-5{fill:none;}.cls-6{fill:#198caa;}.cls-14{clip-path:url(#clippath-1);}.cls-7{fill:#105a8c;}.cls-8{fill:#ffac73;}.cls-9{fill:#e3c7a3;}.cls-15{clip-path:url(#clippath);}.cls-10{fill:#181a2f;}.cls-11{fill:#8abdc4;}</style><clipPath id="clippath"><rect class="cls-5" width="560" height="740"/></clipPath><clipPath id="clippath-1"><path class="cls-5" d="M548.87,705.24s-.02-.04-.03-.06l-.06-.08s0,0,0,0l-27.58-37.65s0,0,0,0c-.75-1.03-1.95-1.64-3.23-1.64h-20.04c-3.39-9.01-6.76-18.45-10.1-28.3-.54-1.61-1.09-3.22-1.63-4.85-3.26-9.77-6.49-19.91-9.68-30.38-.53-1.74-1.06-3.5-1.59-5.26-3.71-12.34-7.38-25.12-10.98-38.27-1.03-3.76-2.05-7.54-3.07-11.36-3.06-11.44-6.07-23.14-9.04-35.05-36.94-148.42-65.96-329.53-75.63-457.29h0c-.13-1.69-.25-3.37-.37-5.04,0,0,0-.01,0-.02,4.54.7,9.13,1.07,13.74,1.07h9.76c1.52,0,2.8-1.14,2.98-2.65l.75-6.36,1.8-15.3h0s.04-.35.04-.35c.06-.5,0-1.01-.2-1.47l-3.96-9.83c-.46-1.14-1.56-1.88-2.78-1.88h-8.41c-9.67,0-19.28-1.56-28.46-4.62l-2.29-.76c-9.18-3.06-18.79-4.62-28.46-4.62h-100.79c-9.67,0-19.28,1.56-28.46,4.62l-2.29.76c-9.18,3.06-18.79,4.62-28.46,4.62h-8.33c-1.22,0-2.33.74-2.78,1.88l-3.96,9.83c-.19.47-.26.97-.2,1.47l.04.35,2.56,21.67c.18,1.51,1.46,2.65,2.98,2.65h9.85c4.58,0,9.14-.36,13.65-1.06h0s0,0,0,0c-.12,1.67-.25,3.36-.37,5.05h0c-8.64,114.09-32.7,270.72-64.06,408.63-.94,4.13-1.88,8.24-2.84,12.34-2.38,10.24-4.8,20.36-7.26,30.34-1.96,7.99-3.95,15.88-5.96,23.67-2.51,9.74-5.06,19.32-7.63,28.71-2.06,7.51-4.14,14.9-6.23,22.16-.52,1.81-1.05,3.62-1.58,5.42-1.58,5.39-3.17,10.71-4.76,15.95-1.6,5.23-3.2,10.39-4.82,15.45-1.08,3.38-2.16,6.71-3.24,10.01-.54,1.65-1.08,3.29-1.63,4.91-3.87,11.6-7.78,22.68-11.73,33.15h-20.04c-1.27,0-2.47.61-3.23,1.64l-12.67,17.29-14.91,20.36s0,0,0,0l-.06.08s-.02.04-.03.06c-.69,1.03-.87,2.31-.48,3.49l8.43,25.3c.54,1.63,2.07,2.74,3.79,2.74h514.23c1.72,0,3.25-1.1,3.79-2.74l8.43-25.3c.39-1.18.21-2.46-.48-3.49Z"/></clipPath></defs><g class="cls-13"><g id="_レイヤー_2"><g id="_レイヤー_2-2"><g class="cls-15"><path class="cls-5" d="M108.68,681.98h342.64c-1.89-5.25-3.77-10.64-5.66-16.17H114.34c-1.88,5.53-3.77,10.92-5.66,16.17Z"/><path class="cls-5" d="M323.78,25.17h-87.55c-6.95,162.31-58.54,442.07-113.67,615.64h314.9c-55.13-173.57-106.72-453.33-113.67-615.64Z"/><polygon class="cls-8" points="91.22 640.82 91.22 641.26 91.39 640.82 91.22 640.82"/><path class="cls-4" d="M374.2,24.33h-45.45c6.72,159.44,57.72,440.38,113.95,616.49h-5.25c-55.13-173.57-106.72-453.33-113.67-615.64h-87.55c-6.95,162.31-58.54,442.07-113.67,615.64h-5.25C173.53,464.71,224.53,183.76,231.25,24.32h-45.45c-10.9,202.46-81.29,582.27-153.83,707.76h496.06c-72.54-125.49-142.93-505.29-153.83-707.75Z"/><path class="cls-6" d="M374.2,24.33h-45.45c6.72,159.44,57.72,440.38,113.95,616.49h-5.25c-55.13-173.57-106.72-453.33-113.67-615.64h-87.55c-6.95,162.31-58.54,442.07-113.67,615.64h-5.25C173.53,464.71,224.53,183.76,231.25,24.32h-45.45c-10.9,202.46-81.29,582.27-153.83,707.76h496.06c-72.54-125.49-142.93-505.29-153.83-707.75Z"/><path class="cls-3" d="M328.58,20.17h-97.16c-.05,1.37-.11,2.76-.17,4.15h97.5c-.06-1.38-.12-2.78-.17-4.15Z"/><path class="cls-3" d="M445.67,665.82c1.88,5.53,3.77,10.92,5.66,16.17H108.68c1.89-5.25,3.77-10.64,5.66-16.17h-5.3c-2.49,7.28-4.99,14.36-7.5,21.17h356.91c-2.5-6.81-5-13.89-7.5-21.17h-5.3Z"/><path class="cls-7" d="M444.3,645.82c-.53-1.65-1.07-3.33-1.6-5-56.22-176.1-107.23-457.05-113.95-616.49h-97.5c-6.72,159.43-57.72,440.38-113.95,616.49-.53,1.67-1.07,3.35-1.6,5-2.21,6.84-4.43,13.5-6.66,20h341.92c-2.23-6.5-4.45-13.16-6.66-20ZM439.05,645.82H116.7l5.85-5C177.68,467.24,229.28,187.48,236.22,25.17h87.55c6.95,162.31,58.54,442.07,113.67,615.64l5.85,5h-4.25Z"/><path class="cls-4" d="M443.3,645.82H116.7c-2.21,6.84-4.43,13.5-6.66,20h339.92c-2.23-6.5-4.45-13.16-6.66-20Z"/><path class="cls-6" d="M443.3,645.82H116.7c-2.21,6.84-4.43,13.5-6.66,20h339.92c-2.23-6.5-4.45-13.16-6.66-20Z"/><polygon class="cls-11" points="437.45 640.82 122.55 640.82 116.7 645.82 120.95 645.82 439.05 645.82 443.3 645.82 437.45 640.82"/><path class="cls-11" d="M374.2,24.33h-45.45s-97.5,0-97.5,0h-45.45c-10.9,202.46-81.29,582.27-153.83,707.76h496.06c-72.54-125.49-142.93-505.29-153.83-707.75ZM190.53,29.32h178.94c11.21,194.24,77.86,563.35,150.05,697.77H40.48C112.67,592.66,179.32,223.54,190.53,29.32Z"/><path class="cls-11" d="M156.12,25.65h14.23c9.67,0,19.28-1.56,28.46-4.62l2.29-.76c9.18-3.06,18.79-4.62,28.46-4.62h100.79c9.67,0,19.28,1.56,28.46,4.62l2.29.76c9.18,3.06,18.79,4.62,28.46,4.62h14.31c.6,0,1.06.52.99,1.12l.04-.35c.06-.5,0-1.01-.2-1.47l-3.96-9.83c-.46-1.14-1.56-1.88-2.78-1.88h-8.41c-9.67,0-19.28-1.56-28.46-4.62l-2.29-.76c-9.18-3.06-18.79-4.62-28.46-4.62h-100.79c-9.67,0-19.28,1.56-28.46,4.62l-2.29.76c-9.18,3.06-18.79,4.62-28.46,4.62h-8.33c-1.22,0-2.33.74-2.78,1.88l-3.96,9.83c-.19.47-.26.97-.2,1.47l.04.35c-.07-.59.4-1.11.99-1.11Z"/><polygon class="cls-6" points="402.31 48.43 403.06 42.06 402.31 48.43 402.31 48.43"/><polygon class="cls-6" points="404.87 26.77 403.06 42.06 404.87 26.77 404.87 26.77"/><path class="cls-6" d="M403.88,25.65h-14.31c-9.67,0-19.28-1.56-28.46-4.62l-2.29-.76c-9.18-3.06-18.79-4.62-28.46-4.62h-100.79c-9.67,0-19.28,1.56-28.46,4.62l-2.29.76c-9.18,3.06-18.79,4.62-28.46,4.62h-14.23c-.6,0-1.06.52-.99,1.11l2.56,21.67c.18,1.51,1.46,2.65,2.98,2.65h9.85c9.57,0,19.07-1.54,28.14-4.57l2.44-.81c9.18-3.06,18.79-4.62,28.46-4.62h100.79c9.67,0,19.28,1.56,28.46,4.62l2.29.76c9.18,3.06,18.79,4.62,28.46,4.62h9.76c1.52,0,2.8-1.14,2.98-2.65l.75-6.36,1.8-15.3c.07-.59-.39-1.12-.99-1.12Z"/><path class="cls-7" d="M183.79,55.07c5.04-.76,10.02-1.94,14.87-3.56l2.44-.81c9.18-3.06,18.79-4.62,28.46-4.62h100.79c9.67,0,19.28,1.56,28.46,4.62l2.29.76c4.93,1.64,9.98,2.84,15.1,3.61-.13-1.69-.25-3.38-.37-5.05-4.99-.77-9.92-1.95-14.72-3.55l-2.29-.76c-9.18-3.06-18.79-4.62-28.46-4.62h-100.79c-9.67,0-19.28,1.56-28.46,4.62l-2.44.81c-4.73,1.58-9.58,2.74-14.5,3.5-.12,1.67-.25,3.36-.37,5.05Z"/><path class="cls-6" d="M371.13,54.14c1.68.35,3.37.67,5.07.93-.13-1.69-.25-3.37-.37-5.04,0,0,0-.01,0-.02-1.7-.26-3.39-.59-5.07-.95.12,1.68.25,3.37.37,5.08Z"/><path class="cls-6" d="M183.79,55.07c1.7-.26,3.39-.58,5.07-.93.13-1.7.25-3.4.37-5.08-1.68.36-3.37.69-5.07.95-.12,1.67-.25,3.36-.37,5.05Z"/><path class="cls-10" d="M230.11,46.08h5.01c.1-1.67.21-3.35.3-5h-5.01c-.1,1.66-.2,3.32-.3,5Z"/><path class="cls-10" d="M329.59,41.08h-5.02c.1,1.65.2,3.33.3,5h5.01c-.1-1.68-.2-3.34-.3-5Z"/><polygon class="cls-9" points="548.78 705.1 521.2 667.45 521.2 667.45 548.78 705.11 548.78 705.1"/><polygon class="cls-9" points="11.22 705.1 11.22 705.11 26.14 684.74 11.22 705.1"/><path class="cls-1" d="M548.87,705.24c.41.66-.05,1.53-.84,1.53H11.97c-.79,0-1.25-.87-.84-1.53-.69,1.03-.87,2.31-.48,3.49l8.43,25.3c.54,1.63,2.07,2.74,3.79,2.74h514.23c1.72,0,3.25-1.1,3.79-2.74l8.43-25.3c.39-1.18.21-2.46-.48-3.49Z"/><path class="cls-9" d="M548.83,705.18l-.06-.08s.06.09.09.14c-.01-.02-.02-.04-.03-.06Z"/><path class="cls-9" d="M11.17,705.18s-.02.04-.03.06c.03-.05.06-.09.09-.14l-.06.08Z"/><path class="cls-9" d="M11.97,706.77h536.06c.79,0,1.25-.87.84-1.53-.03-.05-.06-.09-.09-.14l-27.58-37.65c-.75-1.03-1.95-1.64-3.23-1.64H42.03c-1.27,0-2.47.61-3.23,1.64l-12.67,17.29-14.92,20.36s-.06.09-.09.14c-.41.66.05,1.53.84,1.53Z"/><g class="cls-12"><g class="cls-14"><image width="1024" height="640" transform="translate(554.06 -68.49) rotate(90) scale(.86)" xlink:href="../old-paper01.jpg"/></g></g><path class="cls-9" d="M545.44,706.84H14.33c-2.78,0-3.16-1.75-2.97-2.01,6.01-8.21,12.03-16.42,18.04-24.64.19-.26,1.61-2.2,3.17-4.33,9.51-12.29,16.18-9.98,30.37-9.98h428.21c16.09,0,25.63-3.47,36.03,9.97,1.56,2.13,2.98,4.07,3.17,4.33,6.02,8.22,12.03,16.43,18.05,24.65.19.26-.19,2.01-2.97,2.01Z"/><path class="cls-2" d="M284.33,686.84c-1.95-.14-3.2-.43-3.2-.73,0-.59,0-.88,0-1.47,0-.22,1.18-.4,2.62-.39,2.96.03,5.71.09,6.64-.18,2.21-.64-4.12-1.42-10.51-1.42-6.39,0-12.72.78-10.51,1.42.93.27,3.68.21,6.64.18,1.44-.02,2.62.16,2.62.39,0,.59,0,.88,0,1.47,0,.3-1.26.59-3.2.73-2.61.19-5.76.1-8.64-.27-.53-.07-1.32-.05-1.75.03-.43.08-.35.2.18.27,2.34.3,4.95.45,7.44.45,1.33,0,2.63-.04,3.84-.13.69-.05,1.32-.12,1.88-.19.42-.06.96-.08,1.5-.08s1.08.03,1.5.08c.56.07,1.19.14,1.88.19,1.21.09,2.51.13,3.84.13,2.49,0,5.1-.15,7.44-.45.53-.07.61-.19.18-.27-.43-.08-1.22-.1-1.75-.03-2.88.36-6.03.46-8.64.27Z"/><path class="cls-2" d="M279.88,671.75c-18.03,0-93.65,3.27-94.16,14.62-.5,11.26,77.64,14.62,94.16,14.62,20.38,0,94.16-4.42,94.16-14.62,0-4.34-19.62-8.87-28.6-10.31-21.66-3.47-43.92-4.31-65.56-4.31ZM253.38,683.82c-1.69-.14-1.17-.59-.68-.77.5-.18,2.85-.46,4.41-.28,1.56.18,1.55.54.78.74-.78.2-2.26.5-4.51.31ZM280.13,690.76c-.08,0-.17,0-.25,0-.08,0-.17,0-.25,0-11.85,0-24.79-1.02-24.71-3.58.08-2.56,11.65-5.43,24.71-5.43.08,0,.17,0,.25,0,.08,0,.17,0,.25,0,13.06,0,24.63,2.87,24.71,5.43.08,2.56-12.86,3.58-24.71,3.58ZM306.38,683.82c-2.24.18-3.73-.11-4.51-.31-.78-.2-.79-.56.77-.74,1.56-.18,3.91.09,4.41.28s1.01.64-.68.77ZM334.14,689.31c4.48-1.68,2.03-5.35-.48-6.04,5.15-.7,4.25-2.56-1.45-3.38-5.99-.97-16.1-.73-18.93-.27-11.1-.96-22.32-.95-33.39-.95s-22.29-.02-33.39.95c-2.84-.47-12.95-.7-18.93.27-5.7.82-6.6,2.67-1.45,3.38-2.51.68-4.96,4.36-.48,6.04-5.64.51-14.53,1.57-18.95,3.67-7.25-1.94-11.65-4.94-11.01-6.61,5.86-15.27,66.05-13.07,84.21-13.07s78.58-2.16,84.22,13.07c.64,1.71-3.76,4.67-11.01,6.61-4.42-2.1-13.32-3.16-18.95-3.67Z"/></g></g></g></g></svg>