<?xml version="1.0" encoding="UTF-8"?><svg id="_レイヤー_2" xmlns="http://www.w3.org/2000/svg" xmlns:xlink="http://www.w3.org/1999/xlink" viewBox="0 0 128.21 128.21"><defs><style>.cls-1{fill:url(#_名称未設定グラデーション_260);}.cls-1,.cls-2,.cls-3{stroke-width:0px;}.cls-2{fill:url(#_名称未設定グラデーション_260-2);}.cls-3{fill:#77502c;}</style><linearGradient id="_名称未設定グラデーション_260" x1="64.11" y1="68.53" x2="64.11" y2="47.75" gradientUnits="userSpaceOnUse"><stop offset="0" stop-color="#dca05c"/><stop offset="1" stop-color="#c87828"/></linearGradient><linearGradient id="_名称未設定グラデーション_260-2" x1="64.11" y1="127.96" x2="64.11" y2=".25" xlink:href="#_名称未設定グラデーション_260"/></defs><g id="_レイヤー_3"><path class="cls-1" d="M68.98,68.53c-.95,0-1.86-.2-2.7-.6-.48-.23-.92-.52-1.32-.86-.23-.2-.53-.31-.85-.31s-.62.11-.85.31c-.4.34-.84.63-1.32.86-.84.4-1.75.6-2.7.6-1.77,0-3.56-.69-5.18-2-.23-.18-.37-.44-.4-.73-.03-.29.05-.57.24-.8.21-.26.52-.41.85-.41.25,0,.49.09.69.24,1.23,1,2.54,1.53,3.79,1.53.63,0,1.23-.13,1.78-.4,1.23-.58,2.02-1.75,2.02-2.96v-6.38c0-.8-.62-1.43-1.41-1.43l-.6.04c-.59.04-1.15.08-1.67.08-.93,0-2.07-.12-2.56-1.04-.5-.93-.45-1.97.17-3,1.2-2.01,4.28-3.53,7.17-3.53s5.97,1.52,7.17,3.53c.61,1.03.67,2.07.17,3-.5.92-1.63,1.04-2.56,1.04-.52,0-1.08-.04-1.67-.08,0,0-.51-.04-.51-.04-.89,0-1.5.63-1.5,1.43v6.38c0,1.21.79,2.37,2.02,2.96.56.27,1.16.4,1.78.4,1.24,0,2.55-.53,3.79-1.53.19-.16.44-.24.69-.24.33,0,.64.15.85.41.38.47.3,1.15-.16,1.53-1.62,1.31-3.41,2-5.18,2Z"/><path class="cls-3" d="M64.11,48c4.34,0,8.62,3.38,7.12,6.16-.39.73-1.26.91-2.34.91-.66,0-1.4-.07-2.16-.12-.04,0-.08,0-.12,0-.92,0-1.66.74-1.66,1.68v6.38c0,1.31.85,2.56,2.16,3.18.6.28,1.23.42,1.89.42,1.29,0,2.66-.54,3.95-1.58.16-.13.34-.19.53-.19.25,0,.49.11.65.31.29.36.24.89-.12,1.18-1.59,1.28-3.35,1.95-5.02,1.95-.9,0-1.78-.19-2.59-.58-.46-.22-.89-.5-1.27-.82-.29-.25-.65-.37-1.01-.37s-.73.12-1.01.37c-.38.32-.8.6-1.27.82-.82.39-1.69.58-2.59.58-1.68,0-3.44-.66-5.02-1.95-.36-.29-.42-.82-.12-1.18.17-.21.41-.31.65-.31.19,0,.37.06.53.19,1.29,1.05,2.66,1.58,3.95,1.58.66,0,1.29-.14,1.89-.42,1.31-.63,2.16-1.88,2.16-3.18v-6.38c0-.94-.74-1.68-1.66-1.68-.04,0-.08,0-.12,0-.76.05-1.5.12-2.16.12-1.08,0-1.95-.18-2.34-.91-1.51-2.78,2.78-6.16,7.12-6.16M64.11,47.5c-2.97,0-6.14,1.57-7.39,3.65-.65,1.09-.71,2.25-.17,3.25.56,1.04,1.78,1.17,2.78,1.17.53,0,1.09-.04,1.69-.08l.5-.04s.06,0,.08,0c.65,0,1.16.52,1.16,1.18v6.38c0,1.12-.74,2.19-1.88,2.73-.52.25-1.09.38-1.67.38-1.19,0-2.44-.51-3.63-1.47-.24-.19-.54-.3-.84-.3-.41,0-.79.18-1.04.5-.46.57-.37,1.42.2,1.88,1.66,1.35,3.51,2.06,5.34,2.06.99,0,1.93-.21,2.81-.63.5-.24.96-.54,1.38-.9.19-.16.43-.25.69-.25s.5.09.69.25c.42.36.88.66,1.38.9.87.42,1.82.63,2.81.63,1.83,0,3.68-.71,5.34-2.06.28-.22.45-.54.49-.9.04-.36-.07-.7-.29-.98-.25-.32-.63-.5-1.04-.5-.31,0-.61.11-.84.3-1.19.96-2.45,1.47-3.63,1.47-.59,0-1.15-.13-1.67-.38-1.14-.54-1.88-1.62-1.88-2.73v-6.38c0-.66.51-1.18,1.16-1.18.03,0,.05,0,.08,0l.5.04c.6.04,1.16.08,1.69.08,1,0,2.22-.13,2.78-1.17.54-1,.48-2.15-.17-3.25-1.24-2.08-4.42-3.65-7.39-3.65h0Z"/><path class="cls-2" d="M64.11,127.96c-35.21,0-63.86-28.65-63.86-63.86S28.9.25,64.11.25c35.21,0,63.86,28.65,63.86,63.86s-28.65,63.86-63.86,63.86ZM100.94,76.82c5.87,3.51,10.1,8.85,12.28,15.46,4.93-8.56,7.53-18.28,7.53-28.16,0-31.23-25.41-56.64-56.64-56.64-31.23,0-56.64,25.41-56.64,56.64,0,9.88,2.6,19.61,7.53,28.16,2.18-6.61,6.42-11.94,12.28-15.46-2.96-7.34-1.55-22.77.05-26.1-1.43-1.33-2.26-3.59-2.31-6.23-.06-3.44,1.2-6.78,3.28-8.71,2.49-2.6,5.75-2.99,7.48-2.99,2.29,0,4.51.68,5.62,1.71,5.04-2.89,11.65-4.06,22.71-4.06s17.66,1.18,22.71,4.06c1.11-1.03,3.33-1.71,5.62-1.71,1.72,0,4.99.39,7.49,3,2.07,1.92,3.33,5.26,3.27,8.7-.04,2.64-.88,4.89-2.31,6.22,1.6,3.33,3.01,18.76.05,26.1ZM63.99,44.31c-9.15,0-16.48,12.78-16.48,23.37s8.25,15.33,16.42,15.33c0,0,.17,0,.17,0,0,0,.1,0,.1,0,8.25,0,16.49-4.74,16.49-15.32s-7.33-23.37-16.42-23.37c-.09,0-.17.01-.17.01-.01,0-.12,0-.12,0ZM80.35,48.46c-.24,0-.46.07-.64.2-.98.72-.9,2.16-.47,2.88.6,1,1.22,1.49,1.9,1.49.26,0,.53-.07.81-.22.94-.49.69-2.25.36-3.05-.22-.53-1.14-1.31-1.96-1.31ZM47.87,48.46c-.82,0-1.74.78-1.96,1.31-.33.79-.58,2.56.36,3.05.28.15.55.22.81.22.68,0,1.3-.49,1.9-1.49.43-.72.51-2.16-.47-2.88-.19-.14-.4-.2-.64-.2Z"/><path class="cls-3" d="M64.11.5c35.13,0,63.61,28.48,63.61,63.61s-28.48,63.61-63.61,63.61c-35.13,0-63.61-28.48-63.61-63.61S28.98.5,64.11.5M15.06,92.88c2.83-9.13,8.76-13.74,12.53-15.96-3.09-7.3-1.62-23.3.05-26.26-3.52-3.06-3.01-11.13.83-14.7,2.04-2.13,4.81-2.93,7.31-2.93,2.44,0,4.62.76,5.58,1.77,4.45-2.6,10.45-4.13,22.75-4.13s18.3,1.53,22.75,4.13c.96-1.01,3.14-1.77,5.58-1.77s5.27.79,7.31,2.93c3.85,3.57,4.36,11.64.83,14.7,1.67,2.97,3.14,18.96.05,26.26,3.77,2.22,9.7,6.83,12.53,15.96,4.98-8.45,7.84-18.28,7.84-28.78,0-31.37-25.52-56.89-56.89-56.89-31.37,0-56.89,25.52-56.89,56.89,0,10.49,2.87,20.33,7.84,28.78M64.11,44.07c-.06,0-.11-.01-.17-.01-8.87,0-16.67,12.49-16.67,23.62s8.72,15.58,16.67,15.58c.06,0,.11,0,.17,0,.06,0,.11,0,.17,0,7.96,0,16.67-4.45,16.67-15.58s-7.8-23.62-16.67-23.62c-.06,0-.11.01-.17.01M81.14,53.28c.28,0,.59-.07.93-.25,1.15-.6.81-2.57.48-3.37-.26-.61-1.26-1.46-2.19-1.46-.28,0-.55.07-.79.25-1.06.78-1.06,2.33-.54,3.21.41.68,1.11,1.61,2.12,1.61M47.08,53.28c1.01,0,1.71-.93,2.12-1.61.52-.87.52-2.43-.54-3.21-.24-.18-.51-.25-.79-.25-.93,0-1.94.85-2.19,1.46-.33.79-.67,2.77.48,3.37.33.17.64.25.93.25M64.11,0C28.76,0,0,28.76,0,64.11s28.76,64.11,64.11,64.11c35.35,0,64.11-28.76,64.11-64.11S99.46,0,64.11,0h0ZM14.94,91.67c-4.73-8.4-7.22-17.91-7.22-27.56,0-31.09,25.3-56.39,56.39-56.39,31.09,0,56.39,25.3,56.39,56.39,0,9.65-2.49,19.16-7.22,27.56-2.23-6.36-6.36-11.5-12.03-14.95,2.83-7.35,1.51-22.27-.06-25.94,1.4-1.39,2.21-3.66,2.26-6.28.06-3.51-1.23-6.92-3.36-8.9-2.54-2.66-5.88-3.06-7.65-3.06-2.29,0-4.45.64-5.65,1.65-5.06-2.84-11.68-4.01-22.68-4.01s-17.61,1.16-22.68,4.01c-1.2-1.01-3.36-1.65-5.65-1.65-1.76,0-5.11.4-7.67,3.08-2.11,1.96-3.4,5.37-3.34,8.88.04,2.62.86,4.89,2.26,6.28-1.57,3.67-2.89,18.59-.06,25.94-5.67,3.45-9.8,8.6-12.03,14.95h0ZM63.94,82.75c-7.46,0-16.17-3.95-16.17-15.08,0-10.41,7.46-23.12,16.17-23.12.07,0,.11.01.16.01,0,0,0,0,.01,0s0,0,.01,0c.04,0,.09,0,.13-.01h0c8.74,0,16.2,12.71,16.2,23.12,0,11.13-8.71,15.08-16.17,15.08h-.07s-.1,0-.1,0h-.11s-.07,0-.07,0h0ZM81.14,52.78c-.58,0-1.14-.45-1.69-1.37-.38-.64-.46-1.91.41-2.55.14-.1.31-.16.5-.16.71,0,1.54.7,1.73,1.15.26.63.57,2.3-.25,2.73-.24.13-.48.19-.7.19h0ZM47.08,52.78c-.22,0-.45-.06-.7-.19-.81-.42-.51-2.1-.25-2.73.19-.45,1.02-1.15,1.73-1.15.19,0,.35.05.5.16.86.63.79,1.91.41,2.55-.55.92-1.11,1.37-1.69,1.37h0Z"/></g></svg>